<svg id="Layer_1" data-name="Layer 1" xmlns="http://www.w3.org/2000/svg" viewBox="0 0 668.62 391.61"><defs><style>.cls-1{fill:#ab3b2c;}.cls-2{fill:#fff;}</style></defs><title>harlem</title><path class="cls-1" d="M62.65,342.14l20.77,48.8,40.68-17.39-20.76-48.8,24.37-10.43,51.89,122-24.37,10.43-20.8-48.88L93.75,415.22l20.8,48.88L90.17,474.52l-51.89-122Z" transform="translate(-29.97 -83.37)"/><path class="cls-1" d="M192.68,283.59l108.5,100.7-26.49,11.33-16.12-15-41.66,17.82-.34,22.05-26.41,11.29Zm47,79.5-22.07-21-.27,30.61Z" transform="translate(-29.97 -83.37)"/><path class="cls-1" d="M259.85,257.81l39.7-17c13.54-5.79,26.67-5.34,37.12-1.21s17.82,9.17,23.56,22.66l1.35,3.17A43.09,43.09,0,0,1,363.76,292c-1.72,7.83-4,11.83-9.77,17.5l47.1,32.08-29.88,12.78-57.9-39,22.95,53.95-24.45,10.45Zm75.49,16a17.83,17.83,0,0,0-9.82-9.66c-4.48-1.73-11.25-.9-17.15,1.61l-13.74,5.88L309,305.31l9.43-4,0,.08,8.15-3.49C335.48,294.06,339.3,283.12,335.34,273.82Z" transform="translate(-29.97 -83.37)"/><path class="cls-1" d="M384.14,204.67l41.53,97.59,48.9-20.91,10.37,24.36-73.36,31.37-51.89-122Z" transform="translate(-29.97 -83.37)"/><path class="cls-1" d="M516.84,147.56,527.24,172l-48.9,20.91L488.8,217.5l36.68-15.68,10.39,24.44L499.2,241.94l10.46,24.59,48.9-20.92L568.93,270l-73.36,31.37L443.48,178.93Z" transform="translate(-29.97 -83.37)"/><path class="cls-1" d="M620.79,196.92l24.68-107.4,53.12,124.83-24.46,10.46-21.49-50.54L638.2,237.85l-55.83-33.54,21.5,50.55-24.45,10.45L526.31,140.47Z" transform="translate(-29.97 -83.37)"/><path class="cls-2" d="M83,475,30,350.34,57,338.76l20.76,48.8,38-16.24L95,322.52,122.08,311l53,124.64-27.06,11.57-20.8-48.88-38,16.25,20.8,48.87ZM33.79,351.88,84.54,471.16l21.7-9.29L85.44,413l43.36-18.54,20.8,48.88,21.7-9.28L120.55,314.77l-21.7,9.28,20.76,48.8L76.25,391.39l-20.76-48.8Z" transform="translate(-29.97 -83.37)"/><path class="cls-2" d="M182.27,432.53l2.62-153.69L297.41,383.29,268,395.87l-16.12-15L212,397.93,211.62,420Zm5.42-147.12-2.44,142.67,23.48-10,.35-22.06,43.39-18.56,16.12,15,23.56-10.07Zm21.82,88,.31-36.2,26.1,24.9ZM212.68,344l-.22,25,18.26-7.81Z" transform="translate(-29.97 -83.37)"/><path class="cls-2" d="M304.65,380.19l-53.1-124.6,41-17.55c12.82-5.48,26.39-5.92,38.24-1.23,11,4.43,18.51,9.69,24.36,23.44l1.35,3.18a44.71,44.71,0,0,1,2.27,27.4c-1.64,7.44-3.81,11.64-8.93,17l47.85,32.59-33.05,14.14-54.48-36.7,21.59,50.76ZM255.37,257.12l50.82,119.25L328,367.05l-24.31-57.13L365,351.23l26.71-11.42-46.37-31.58,1.26-1.25c5.63-5.55,7.73-9.31,9.37-16.78a41.75,41.75,0,0,0-2.1-25.63l-1.35-3.18c-5.49-12.89-12.23-17.63-22.76-21.87-11.12-4.4-23.91-4-36,1.2Zm46.43,48.65-15.47-36.35L301.41,263c6.58-2.81,13.58-3.44,18.25-1.63A19.41,19.41,0,0,1,330.3,271.8h0c4.33,10.2.05,21.84-9.55,25.95l-9.52,4.08,0-.08ZM290.15,271l13.18,31,9.46-4.05,0,.08,6.78-2.9c8.12-3.48,11.72-13.41,8-22.14h0a16.26,16.26,0,0,0-9.05-8.89c-3.88-1.5-10.18-.88-16,1.61Z" transform="translate(-29.97 -83.37)"/><path class="cls-2" d="M404.42,337.53l-53-124.64,27.13-11.6,41.53,97.6L469,278l11.51,27Zm-49.21-123.1L406,333.71l70.68-30.23-9.23-21.68-48.9,20.91L377,205.12Z" transform="translate(-29.97 -83.37)"/><path class="cls-2" d="M488.4,301.8,435.19,176.71l76-32.52,11.54,27.12-48.9,20.91,9.32,21.91,36.68-15.68,11.54,27.12-36.68,15.68L504,263.16l48.9-20.91,11.51,27ZM439,178.24,489.94,298l70.68-30.22-9.23-21.68L502.49,267l-11.6-27.27L527.57,224l-9.26-21.76L481.63,218,470,190.69l48.9-20.91L509.68,148Z" transform="translate(-29.97 -83.37)"/><path class="cls-2" d="M572.26,265.77l-55.43-130.3,96.6,57.71L638.66,83.37l55.44,130.3L667,225.27l-20.31-47.74-13.87,61.15-53.71-32.26,20.31,47.75ZM523,142.56,573.8,261.94l21.78-9.31-22.7-53.33,58,34.81,15-66,22.69,53.34,21.77-9.31L639.49,92.76l-24.12,105Z" transform="translate(-29.97 -83.37)"/></svg>