<svg width="639" height="325" viewBox="0 0 639 325" fill="none" xmlns="http://www.w3.org/2000/svg">
<path d="M298.333 86.8101L412.903 219.13L380.323 229.02L363.323 209.3L312.093 224.86L308.863 250.74L276.373 260.6L298.333 86.8101ZM343.403 186.3L320.163 158.72L315.923 194.65L343.403 186.3Z" fill="#AB3A2B"/>
<path d="M263.253 265.71L286.033 85.4501L404.873 222.7L368.673 233.7L351.673 213.98L302.583 228.89L299.353 254.77L263.253 265.71ZM288.483 93.5401L267.333 260.87L296.213 252.1L299.443 226.23L352.823 210.01L369.823 229.74L398.823 220.94L288.483 93.5401ZM302.833 199.74L307.833 157.25L335.313 189.87L302.833 199.74ZM310.333 165.55L306.863 194.92L329.323 188.09L310.333 165.55Z" fill="white"/>
<path d="M83.4035 286.97C91.7035 284.45 98.7934 274.75 96.2734 266.42C92.1334 252.73 73.2235 256.42 61.7835 255.93C41.6535 255.24 21.0135 245.11 14.7835 224.7C11.2663 213.14 12.2665 200.676 17.582 189.825C22.8976 178.974 32.1325 170.543 43.4221 166.237C54.7117 161.93 67.2149 162.067 78.4073 166.62C89.5997 171.174 98.6473 179.805 103.723 190.77L75.7835 206.17C75.1969 204.149 74.2143 202.265 72.8927 200.627C71.5711 198.989 69.937 197.63 68.0854 196.63C66.2338 195.63 64.2017 195.008 62.1075 194.8C60.0132 194.593 57.8986 194.804 55.8867 195.421C53.8747 196.038 52.0057 197.05 50.3883 198.396C48.7709 199.743 47.4375 201.398 46.4657 203.264C45.4939 205.131 44.903 207.172 44.7275 209.269C44.552 211.367 44.7954 213.478 45.4435 215.48C49.5735 228.99 67.7235 227.39 79.0435 227.39C99.5735 227.11 120.593 236.47 126.903 257.39C134.553 282.69 118.073 309.99 92.9035 317.64C69.7635 324.64 43.7035 314.01 33.5535 292.7L61.4835 277.27C64.0135 285.63 75.1535 289.71 83.5935 287.14L83.4035 286.97Z" fill="#AB3A2B"/>
<path d="M138.033 138.85L156.163 198.85L206.163 183.66L188.023 123.66L218.023 114.56L263.353 264.56L233.353 273.66L215.183 213.55L165.183 228.74L183.353 288.86L153.353 297.96L108.023 147.96L138.033 138.85Z" fill="#AB3A2B"/>
<path d="M410.553 56.0699L430.603 122.39L448.883 44.39L483.603 33.84L462.353 123.5L536.083 181.68L499.503 192.78L436.873 143.13L455.873 206.03L425.873 215.13L380.543 65.1299L410.553 56.0699Z" fill="#AB3A2B"/>
<path d="M593.844 0L602.933 30.05L542.783 48.32L551.923 78.56L597.033 64.86L606.113 94.92L561.003 108.62L570.153 138.86L630.293 120.59L639.353 150.59L549.163 177.96L503.633 27.39L593.844 0Z" fill="#AB3A2B"/>
<path d="M67.3234 324.12C47.8934 324.12 29.1535 313.39 20.9035 296.06L20.2035 294.6L51.4235 277.39L52.0435 279.39C53.0435 282.82 55.8735 285.65 59.8935 287.39C63.0787 288.71 66.5632 289.139 69.9735 288.63L71.8335 288.06C79.0035 285.88 85.8335 277.19 83.5535 269.66C80.5535 259.8 68.5535 260.1 57.8535 260.35C55.2835 260.42 52.8535 260.48 50.6435 260.35C32.6435 259.73 9.06349 250.86 2.11349 227.89C-1.5041 215.918 -0.450004 203.02 5.06344 191.794C10.5769 180.568 20.1399 171.849 31.8259 167.393C43.5119 162.938 56.4523 163.076 68.0401 167.782C79.6279 172.487 89.0018 181.409 94.2735 192.75L94.9435 194.21L63.7235 211.39L63.1135 209.39C61.996 205.841 59.5345 202.869 56.255 201.111C52.9755 199.352 49.1383 198.947 45.5635 199.98C41.9862 201.118 38.9931 203.605 37.2194 206.913C35.4457 210.222 35.0311 214.091 36.0635 217.7C39.4235 228.8 54.1335 228.56 64.8735 228.39C65.9435 228.39 66.9835 228.39 67.9635 228.39C86.4235 228.12 110.403 236.15 117.483 259.58C125.243 285.26 109.144 313.83 82.3135 321.98C77.4487 323.424 72.398 324.145 67.3234 324.12ZM24.7335 296.03C34.8935 315.38 59.3935 325.27 81.3135 318.61C106.313 311.01 121.413 284.4 114.183 260.51C107.763 239.24 85.9135 231.75 68.8035 231.75H68.0035C67.0035 231.75 66.0035 231.75 64.9335 231.75C53.7635 231.92 36.8735 232.2 32.7735 218.62C31.4362 214.139 31.9254 209.311 34.1341 205.19C36.3429 201.068 40.092 197.988 44.5635 196.62C46.7614 195.958 49.0687 195.74 51.3518 195.976C53.6349 196.213 55.8483 196.901 57.8635 198C61.3285 199.835 64.0783 202.778 65.6735 206.36L90.4535 192.71C85.2128 182.517 76.3556 174.647 65.6165 170.642C54.8774 166.638 43.0301 166.786 32.3948 171.059C21.7595 175.332 13.1024 183.421 8.1191 193.743C3.13578 204.064 2.18517 215.874 5.45345 226.86C11.8735 248.08 33.9035 256.29 50.8135 256.86C52.9235 256.94 55.2935 256.86 57.8135 256.86C69.1035 256.58 83.1534 256.24 86.8834 268.61C89.4034 276.93 83.5635 286 76.1435 289.95L76.7135 290.3L73.0035 291.39C68.2294 292.755 63.1312 292.437 58.5635 290.49C54.6384 288.984 51.4106 286.077 49.5035 282.33L24.7335 296.03Z" fill="white"/>
<path d="M141.163 302.79L140.673 301.14L94.8334 149.49L128.103 139.39L146.243 199.39L192.973 185.2L174.843 125.2L208.163 115.09L208.663 116.74L254.443 268.39L221.163 278.49L203.003 218.39L156.273 232.58L174.443 292.69L141.163 302.79ZM99.1635 151.79L143.463 298.49L170.163 290.39L151.993 230.27L205.313 214.08L223.483 274.2L250.153 266.1L205.813 119.39L179.163 127.49L197.293 187.49L143.973 203.69L125.843 143.69L99.1635 151.79Z" fill="white"/>
<path d="M413.683 220.01L413.163 218.39L367.353 66.7101L400.633 56.6201L419.323 118.47L436.373 45.76L474.893 34.0601L453.213 125.56L528.663 185.1L488.073 197.39L429.073 150.59L446.983 209.88L413.683 220.01ZM371.683 69.01L416.023 215.71L442.703 207.61L422.563 141.09L488.793 193.61L521.353 183.72L449.353 126.9L449.613 125.84L470.163 39.0901L439.273 48.48L419.743 131.76L398.333 60.91L371.683 69.01Z" fill="white"/>
<path d="M536.913 182.79L536.413 181.14L490.413 28.93L583.923 0.530029L594.003 33.88L533.853 52.15L542.003 79.1L587.163 65.39L597.163 98.74L552.063 112.45L560.203 139.39L620.353 121.13L630.353 154.38L536.913 182.79ZM494.703 31.22L539.163 178.49L626.163 152.09L618.073 125.39L557.923 143.66L547.793 110.12L592.893 96.42L584.813 69.66L539.703 83.39L529.563 49.85L589.714 31.58L581.633 4.83002L494.703 31.22Z" fill="white"/>
</svg>
