<svg width="65" height="122" viewBox="0 0 65 122" fill="none" xmlns="http://www.w3.org/2000/svg">
<path d="M2.78175 121.841C1.76505 122.273 0.590857 121.798 0.159108 120.782C-0.27264 119.765 0.201552 118.591 1.21825 118.159L2.78175 121.841ZM43.6028 1.86754C43.9521 0.819655 45.0847 0.253337 46.1326 0.602635L63.2089 6.29476C64.2568 6.64406 64.8231 7.7767 64.4738 8.82459C64.1245 9.87248 62.9918 10.4388 61.944 10.0895L46.765 5.02982L41.7054 20.2087C41.3561 21.2566 40.2234 21.823 39.1755 21.4737C38.1277 21.1244 37.5613 19.9917 37.9106 18.9438L43.6028 1.86754ZM1.21825 118.159C19.1374 110.55 37.0985 96.4606 46.902 77.0364C56.6584 57.7055 58.4504 32.8727 43.7113 3.39442L47.289 1.60558C62.5498 32.1273 60.8416 58.2945 50.473 78.8386C40.1514 99.2894 21.3625 113.95 2.78175 121.841L1.21825 118.159Z" fill="#D86B8C"/>
</svg>
