<?xml version="1.0" encoding="utf-8"?>
<!-- Generator: Adobe Illustrator 24.0.1, SVG Export Plug-In . SVG Version: 6.00 Build 0)  -->
<svg version="1.1" id="Layer_1" xmlns="http://www.w3.org/2000/svg" xmlns:xlink="http://www.w3.org/1999/xlink" x="0px" y="0px"
	 viewBox="0 0 629.9 504.8" style="enable-background:new 0 0 629.9 504.8;" xml:space="preserve">
<style type="text/css">
	.feet1-st0{fill:#214D48;}
	.feet1-st1{fill:#03131A;}
	.feet1-st2{fill:#FFFFFF;}
	.feet1-st3{fill:#2E2307;}
	.feet1-st4{fill:#14312D;}
</style>
<g id="babyshoe2">
	<polygon class="feet1-st0" points="191.4,398.6 326.8,397.1 324.6,403.1 196.6,411.3 	"/>
	<polygon class="feet1-st0" points="168.9,358.2 158.6,360.1 185.2,403.1 197.5,406 219.9,396.2 	"/>
	<path class="feet1-st1" d="M166.9-54.1c0,0,50.5,204.5,41,335.8l-8.8,20.8c0,0,60.6,26.4,124.2,24.7C317.8,127.1,309,9.4,309,9.4
		l-41.6-81.2L163.1-54"/>
	<path class="feet1-st2" d="M206.3,400.5l127.1-9.7l1.2,21.7c0,0-94.6,10.5-108.4,10.8c-13.8,0.3-29-0.9-29-0.9l-4.4-22.6L206.3,400.5z"/>
	<path class="feet1-st0" d="M329.5,348.6c-6-11.3-9.9-16.9-10.1-26.4c-0.3-9.5-121.1-19.6-121.1-19.6s-13.5,29.3-41.7,45.7
		c7.5,7,12.7,16.4,19,24.6c9.8,11.2,21.3,19.7,32.2,28.8c119.7-1.5,126.9-1.7,126.9-1.7S335.5,359.9,329.5,348.6z"/>
	<path class="feet1-st3" d="M182.5,345.9c5.3-0.9,4.1-2.7,4.1-2.7s-12.9-1.9-15.2-5.5c-2.3-3.6-7.6-2.8-5.3,0.9
		C168.5,342.3,177.2,346.8,182.5,345.9z"/>
	<path class="feet1-st3" d="M191.4,362.7c2,5.6,13.6,18.3,19.2,16.3c5.6-2,20.1-19.3,14.2-30.3c-5.9-11.1-23.4-33.1-23.4-33.1
		s9.4-4.2,5.4-12.4c-4.1-8.2-0.6-17.7-9.8-13.7c-9.3,4-11,7.8-11,7.8l0,0c0,0-7.2,11.4-1.4,16.9
		C190.2,319.7,189.4,357.1,191.4,362.7z"/>
	<path class="feet1-st0" d="M214,367.7c5.5-5.8,6.9-22.7,3-26.3c-3.8-3.6-19.3-20.1-19.3-20.1l0,0c0,0-2-3.7-1.8,1.9
		c0.2,5.6-2.8,35.6,3,41.1C204.7,369.8,208.5,373.4,214,367.7z"/>
</g>
<g id="babytoe2">
	<path class="feet1-st0" d="M179.1,374c-6.1-8.4-11-17.9-18.4-25.1c-0.8,0.4-1.5,0.8-2.3,1.2c-30.1,15.2-49,19.1-88.5,21
		c-13.2,1.9-20.7,17.2-20.7,17.2s28.3,13.4,154.4,15.2c2.3,0,4.6,0.1,6.8,0.1C199.8,394.2,188.5,385.5,179.1,374z"/>
	<path class="feet1-st2" d="M225.1,418c-5.5-6.3-11.6-11.8-17.8-17.2c-59.8-1.9-127.6-4.6-133.8-6.6c-11.2-3.7-24.3-9.4-24.3-9.4
		s-18.7,24.3,9.4,31.8c28.9,2.8,122.7,5.5,170.2,6.8C228,421.4,226.8,419.5,225.1,418z"/>
</g>
<g id="babyfoot">
	<path class="feet1-st2" d="M562.4,402.5l-135-2.2l-18,0.4c5.6,7.4,11.3,14.8,17.2,22c6.4,7.8,13,15.4,20.1,22.6
		c44.4-1.7,86.3-6.7,113.4-16.6C571.4,407,562.4,402.5,562.4,402.5z"/>
	<path class="feet1-st2" d="M429.6,421.9l-23.8,0l10.8,25.8c0,0,28.2-1.8,36.4-3c8.2-1.2,8.2-1.2,8.2-1.2l-27.1-22.2L429.6,421.9z"/>
	<path class="feet1-st0" d="M375.9,351.5l-12.7,22.4l44.5,52.3c0,0,31.6-5.6,34.2-6c2.6-0.4-11.9-25-11.9-25L375.9,351.5z"/>
	<path class="feet1-st0" d="M545.7,335.3c-9-4.5-94.6-13.8-94.6-13.8l-39.2-3.4c0,0-1.3,14.9-9.1,18c0,0-12.6,8-28.8,17.7
		c17.7,22.1,33.5,45.4,51.2,67.1c60.6-0.5,117.6-7.4,137.1-18.5C562.4,402.5,554.6,339.9,545.7,335.3z"/>
	<path class="feet1-st1" d="M314.6-79c0,0,34.3,102.5,42.2,120.1s17.8,99.3,41.1,133.2c8.6,53.3,26.3,109.3,23.8,116.6
		c-2.5,7.3-26.6,25.9-0.9,31.9c25.8,6,57.7,27.5,122.1,21.8c7.6-67-11.2-175.6-28.9-209.1C501,91.1,481.3-51.5,481.3-51.5L314.6-79z
		"/>
	<path class="feet1-st3" d="M374.7,350.3c-0.9,0.3-1.8,0.5-2.7,0.7c0.2,0.3,0.3,0.6,0.5,0.9c2,2.4,3.9,4.9,5.8,7.3
		c-0.6-1.8-1.3-3.7-2.2-5.8C375.7,352.3,375.2,351.3,374.7,350.3z"/>
	<path class="feet1-st3" d="M400.7,361.2c0,0,0.6-6.8-6.8-19.8c-0.4-0.7-0.9-1.5-1.3-2.1l-2.1,1.7c5.8,8.9,7.1,22.4,7.9,23.8
		C399.3,366.3,400.7,361.2,400.7,361.2z"/>
	<path class="feet1-st3" d="M418,355c0.9,1.6,2.3-3.5,2.3-3.5s0.6-6.7-6.8-19.8c-3.1-5.5-7.4-10.4-12.5-14.1c-0.5,0.9-1.1,1.6-1.9,2.2
		c1.6,1.7,3.8,3.9,7.5,7.2C415.4,335.1,417.1,353.4,418,355z"/>
	<path class="feet1-st3" d="M408.6,369.9c1.8,0.4-1-4.1-1-4.1s-4.7-4.9-19.3-8.2c-4.5-1-8.6-1.2-12.1-1c0.8,1.1,1.7,2.1,2.5,3.2
		c0.5,0,1-0.1,1.5-0.1C392,358.4,406.8,369.5,408.6,369.9z"/>
	<path class="feet1-st3" d="M424.7,348.4c1.9-0.1-2-3.7-2-3.7s-5.8-3.5-20.7-3c-15,0.5-24.1,8.3-24.1,8.3c3.7-0.1,5.7-0.2,16.8-4.3
		S422.8,348.4,424.7,348.4z"/>
</g>
<g id="babytoe_1_">
	<path class="feet1-st2" d="M418.7,401.7l-156.2,16.8c0,0-7.5,5.6-1.9,22.5c3.6,10.9,99,13.2,187.7,3.3c3.1-1.2,6.1-3,9.2-3.2
		C443.6,428.9,431,415.5,418.7,401.7z"/>
	<path class="feet1-st0" d="M317.1,398c-18.8,5.6-58.4,18.7-54.6,20.6c3.8,1.9,37.7,7.5,116.8,5.6c19.1-0.5,38.8-1.7,58.1-3.5
		c-19.6-20.1-37.5-42-57.2-62.5C357.9,374.3,328.3,394.6,317.1,398z"/>
	<path class="feet1-st3" d="M329.9,386.7c0,0,0-3.7,3.7-3.7s26.2,5.6,28.1,15c0,5.6-5.6,3.7-5.6,1.9S344.8,386.7,329.9,386.7z"/>
	<path class="feet1-st3" d="M376.6,375.5c-15,0-24.3,7.5-24.3,7.5c3.8,0,5.6,0,16.8-3.8s28.1,3.8,29.9,3.8s-1.9-3.8-1.9-3.8
		S391.6,375.5,376.6,375.5z"/>
	<path class="feet1-st3" d="M358.7,387c-14.6-3.1-25.3,2.3-25.3,2.3c3.7,0.8,5.5,1.1,17.3-0.2c11.8-1.3,26.7,9.5,28.5,9.8
		c1.8,0.4-1.1-4-1.1-4S373.3,390,358.7,387z"/>
	<path class="feet1-st3" d="M363.9,368.2c-0.5,0.8-1.2,1.4-2,1.9c6.5,9,7.5,24.2,8.3,25.7c0.9,1.7,2.5-3.4,2.5-3.4s0.7-6.7-6.2-20
		C365.7,371,364.9,369.6,363.9,368.2z"/>
	<path class="feet1-st3" d="M385.2,380.9c0.9,1.7,2.5-3.4,2.5-3.4s0.5-4.8-3.5-14.4c-2.1-2.3-4.3-4.5-6.4-6.8
		C383.5,365.4,384.4,379.5,385.2,380.9z"/>
	<path class="feet1-st3" d="M368.9,364.8c3.5,0.5,5.4,0.8,15.7-1.1c-0.9-1-1.8-2-2.8-3C373.8,361.8,368.9,364.8,368.9,364.8z"/>
	<path class="feet1-st4" d="M296.4,404.4c0,0,9.1,14.1,22.2,19.7c0,0-46.8-1.9-56.1-5.6C253.1,414.8,296.4,404.4,296.4,404.4z"/>
</g>
</svg>
