<?xml version="1.0" encoding="utf-8"?>
<!-- Generator: Adobe Illustrator 24.0.1, SVG Export Plug-In . SVG Version: 6.00 Build 0)  -->
<svg version="1.1" id="Layer_1" xmlns="http://www.w3.org/2000/svg" xmlns:xlink="http://www.w3.org/1999/xlink" x="0px" y="0px"
	 viewBox="0 0 878.4 594.9" style="enable-background:new 0 0 878.4 594.9;" xml:space="preserve">
<style type="text/css">
	.st0-deb{fill:#121414;}
	.st1{fill:#DAD4C8;}
	.st2{fill:#D1B19D;}
	.st3{fill:#6B6B6B;}
	.st4{fill:#121414;stroke:#6B6B6B;stroke-width:1.09;stroke-miterlimit:10;}
	.st5{fill:#121414;stroke:#6B6B6B;stroke-width:0.9;stroke-miterlimit:10;}
	.st6{fill:#121414;stroke:#6B6B6B;stroke-width:1.17;stroke-miterlimit:10;}
	.st7{fill:#4F300C;}
	.st8{fill:#121414;stroke:#6B6B6B;stroke-width:1.41;stroke-miterlimit:10;}
	.st9{fill:url(#SVGID_1_);}
	.st10{fill:#121414;stroke:#6B6B6B;stroke-width:1.69;stroke-miterlimit:10;}
	.st11{fill:#121414;stroke:#6B6B6B;stroke-width:1.54;stroke-miterlimit:10;}
	.st12{fill:#121414;stroke:#6B6B6B;stroke-width:1.66;stroke-miterlimit:10;}
	.st13{fill:#121414;stroke:#6B6B6B;stroke-width:1.29;stroke-miterlimit:10;}
</style>
<path id="toe" class="st0-deb" d="M488.1,432.9c-1.2-9,0.5-33.7-9.9-37.9c-10.4-4.2-13.7-8-44-6.5c-15.3-9.9-18.9-10.1-18.9-10.1
	s0-0.1,0.1-0.4c-33.4,12.4-59.4,39.9-86.1,65.8l-0.1,0.1c22.1,4.8,56,6.4,110,3.5C483.8,443.2,489.3,441.8,488.1,432.9z"/>
<g id="mainfoot">
	<path class="st1" d="M329.8,67.2c0,0-7-2.2-7.3,3.1l-0.6,10.6c0,0-3.5-0.2-5.4,1.5S314,94.7,314,94.7s-9.2,4.8-7.7,10.2
		c1.5,5.4,1.6,3.6,1.6,3.6s-3.3-3.7-5.2-2.1c-1.9,1.7-4,8.6-4.1,10.4s-3.6,1.6-2.1,5.2c1.6,3.6-3.7,3.3-4,6.9
		c-0.2,3.5,1.2,10.7,1.2,10.7s10.3,5.9,56.1,12.1l17.4,6.3l42.3,4.2c0,0,5.4-1.5,5.5-3.2s-3.1-7.3-1.4-7.2s7.4-4.9,7.4-4.9
		s0.6-10.6,4.3-13.9c3.7-3.3,11.1-8.2,9.7-13.6s-25.8-13.9-25.8-13.9L329.8,67.2z"/>
	<path class="st0-deb" d="M418.5,377.2c0.2-0.9,0.6-3.3,0.5-6.2c-0.1-3.5-0.7-7.8-3.1-11.3c-4.9-7.4-14.8-20.4-16.4-24
		s-4.5-14.5-9.6-18.3s-11.6-14.9-11.4-18.4s-9.5-20.1-7.3-27.1l0,0c0,0,7.6-70.5,26.2-85.5l18.6-14.9l-8.2-11.1L292.1,136
		c0,0-20.8-8.3-21.1-3c-0.3,5.3-2.8,17.6-5,24.6s-12.8,38.3-13.2,45.4c-0.4,7.1-10.3,24.3-14,27.6c0,0-18.7,16.7-27.1,39.3
		c-8.4,22.6-14.7,40-13.8,54.2l-1.9,1.7c0,0-3.5-0.2-3.6,1.6c-0.1,1.8-3.3,88.5-3.3,88.5s4.7,10.9,43.6,13.2l1.7-60.3
		c0,0,27.5,15.8,60.7,55c6.1,7.6,14.6,13.8,29.6,18.1c2.5,0.7,5.2,1.4,8.1,2l0.1-0.1C359.4,417.5,385.2,389.8,418.5,377.2z"/>
	<path d="M233.2,425.6c5.6,1.5,11.4,2.4,17.3,2.7c10.6,0.6,12.5-1.1,14.8-9.8c2.3-8.7,5-24.6,5-24.6l-28.6-26.5l-12.1-6l-1.4,24.8
		L233.2,425.6z"/>
	<path class="st2" d="M412.3-71.9c0,0-49.2,54-65.8,95.6s-16.7,43.4-16.7,43.4s4.8,9.2,101.8,50.2c0,0,139.7-176.6,150.6-181.2
		S412.3-71.9,412.3-71.9z"/>
	<path class="st3" d="M354.5,216.8c3.2,0.2,5.9-1.9,6-4.5c0.2-2.7-2.3-5-5.5-5.2s-5.9,1.9-6,4.5
		C348.8,214.3,351.3,216.6,354.5,216.8z"/>
	<path class="st3" d="M347.5,246.2c3-1,4.8-3.9,3.9-6.5s-4-3.8-7-2.8s-4.8,3.9-3.9,6.5C341.3,246,344.5,247.2,347.5,246.2z"/>
	<path class="st3" d="M343.8,261.3c1.9-1.9,1.5-5.3-0.8-7.5s-5.7-2.4-7.5-0.5c-1.9,1.9-1.5,5.3,0.8,7.5
		C338.6,263,341.9,263.2,343.8,261.3z"/>
	<path class="st4" d="M352.3,339.1c2.9,0.2,5.4-1.3,5.5-3.2c0.1-2-2.2-3.7-5.1-3.8c-2.9-0.2-5.4,1.3-5.5,3.2
		C347.1,337.2,349.4,338.9,352.3,339.1z"/>
	<path class="st4" d="M340.6,311.7c2.9-0.6,4.9-2.6,4.5-4.5s-3-3-5.9-2.4s-4.9,2.6-4.5,4.5C335.1,311.1,337.7,312.2,340.6,311.7z"/>
	<path class="st5" d="M334.1,290.5c2.3-0.4,3.9-2.2,3.5-3.8c-0.3-1.7-2.4-2.6-4.7-2.2s-3.9,2.2-3.5,3.8
		C329.7,290,331.8,291,334.1,290.5z"/>
	<path class="st6" d="M367.8,363.1c3.4,0.2,6.3-1.2,6.4-3.2s-2.6-3.7-6-3.9c-3.4-0.2-6.3,1.2-6.4,3.2
		C361.7,361.1,364.4,362.9,367.8,363.1z"/>
	<path class="st7" d="M379.6,229c-5.1-0.6-18.3-4.6-52.6-20c-48.9-22-61.1-41.9-63.9-47.9l-2.9,5.1c1.3,8.9,28.6,26.5,61.2,46.1
		c25.9,15.6,49.1,18.7,57.6,19.3C379.1,230.7,379.3,229.8,379.6,229z"/>
	<path class="st7" d="M375.5,248.1l-2.9,0.8c-5.4,1.5-32.5,10.5-32.5,10.5c-3.6,1.6-0.1,1.8-0.1,1.8l34.8-11
		C374.9,249.4,375.1,248.8,375.5,248.1z"/>
	<path class="st7" d="M379,231.4h-0.1c-5.4,1.5-32.6,10.5-32.6,10.5c-3.6,1.6-0.1,1.8-0.1,1.8l32.2-10.2c0.1-0.3,0.3-0.6,0.5-0.9
		C379,232.3,379,231.9,379,231.4z"/>
	<path class="st7" d="M385,207.7c-9.5,0.3-30.7,1.4-30.7,1.4c-3.9,0.5-0.6,1.7-0.6,1.7l30.7-1.1C384.6,209,384.8,208.3,385,207.7z"
		/>
	<path class="st7" d="M371.4,270.1c-10.1,8.8-22.6,14.2-35.9,15.7c-4.4-0.3-2.4,3.4-2.4,3.4s22-2.3,38.1-15.6"/>
	<path class="st7" d="M379.8,303.1c-5.9,12-15.3,21.9-27,28.4c-4.1,1.5-0.9,4.1-0.9,4.1s19.4-10.7,29-29.1"/>
	<path class="st7" d="M396.1,328.9c-5.9,12-15.3,21.9-27,28.4c-4.1,1.5-0.9,4.1-0.9,4.1s19.4-10.7,29-29.1"/>
	<path class="st7" d="M378.3,293.6l-2-0.1c0,0-33.7,9.9-37.3,14.4l3.2,1.4c0,0,25.3-10,36.5-13.3
		C378.5,295.2,378.3,294.4,378.3,293.6z"/>
	<path class="st7" d="M407.4,346.7c-10.7,2.3-31.1,6.9-33.9,9.5l3.5,1.2c0,0,19-5.2,32.4-8.4c-0.2-0.1-0.3-0.3-0.4-0.5
		C408.4,348,407.9,347.4,407.4,346.7z"/>
	<path class="st8" d="M355.8,184.9c2.9,0.2,5.4-2.1,5.6-5s-2.1-5.4-5-5.6c-2.9-0.2-5.4,2.1-5.6,5
		C350.7,182.2,352.9,184.7,355.8,184.9z"/>
	<path class="st0-deb" d="M418.6,373.1c0,0-1.4,4.5,9,11.5s10.3,7,10.3,7l-52.4,23.6l-42.3,31.4c0,0-20.9-2.5-31.6-9.9
		s22.2-22.4,22.2-22.4L418.6,373.1z"/>
</g>
<g id="mainfoot2">
	<path class="st1" d="M543.9,90.6c0,0-0.6,5.3,1,7.2c1.6,2,0.8,9,0.4,12.5c-0.4,3.5-5.3,15.5-5.3,15.5l1.2,5.5c0,0,31.3-9,90.4,4.6
		l23.9,9.8c0,0,2.7-8.6,1.4-12.3c-1.4-3.7,3.1-12.1,3.1-12.1s3.9-3.1,2.5-6.8c-1.4-3.7,1.6-14.1,1.6-14.1s1.7-6.7-2.3-7.3
		s-99.3-9.3-104.7-8.1C551.5,86,543.9,90.5,543.9,90.6"/>
	<path d="M529.6,418.9c0,0,22.4,2.3,27-7.9c4.6-10.2,8-40.1,8-40.1l-26-22.5L529.6,418.9"/>
	<path class="st0-deb" d="M699.7,363.4c-0.1-0.3-0.3-0.6-0.4-0.8c-5.9-11.3-5.1-18.4-10-22.5s-11.2-11.9-11-13.7
		c0.2-1.5-1.5-9.8-4.1-13.5c-0.2-0.2-0.4-0.5-0.6-0.8c-0.2-0.2-0.5-0.5-0.7-0.6c-2.2-1.4-3.3-5.8-3.6-10.2c-0.2-2.1-0.1-4.2,0.1-6.3
		c0.6-5.3-6.1-9.6-6.1-9.6s0.8-7-0.8-9c-2.4-3.5-4.4-7.3-5.9-11.3c-1.4-3.7-2.4-43-0.2-62.4s6.8-45.6,12.9-52.1c2.5-2.8,5.2-5.5,8-8
		l-20.6-1.2l-40.5-10.9l-54.8-4.3l-20.2,4.9l-5.7,2.9c0,0-0.9,56.9-1.7,64c-0.8,7-5.7,19-5.8,20.8c-0.2,1.8,6.1,9.6,3.9,12.9
		c-2.1,3.3-11.1,4.1-18.8,24.7s-13.7,27-15.6,44.6l-2.1,19.4c0,0-3.5-0.4-3.9,3.1s-6,86.7-0.9,89s40.4,6.2,43.9,6.6
		s8.2-57.9,8.2-57.9s38.6,22.1,60.1,53c1.6,2.2,3.5,4.2,5.7,6.2c23.5-15.2,47-28.9,72.3-43.2C688.1,373.7,694.1,368.7,699.7,363.4z"
		/>
	<path class="st2" d="M543.9-25.2c0,0-4.9,111.6,2,114.2c0,0,73.4-2.6,115.3,5.6C676,57,695.4-71,695.4-71L556.2-86.4L543.9-25.2z"
		/>
	
		<linearGradient id="SVGID_1_" gradientUnits="userSpaceOnUse" x1="519.3369" y1="169.9474" x2="588.5066" y2="169.9474" gradientTransform="matrix(0.994 0.1095 -0.1095 0.994 40.1232 -225.9267)">
		<stop  offset="0" style="stop-color:#AF8C7E"/>
		<stop  offset="0.55" style="stop-color:#C4A391"/>
		<stop  offset="1" style="stop-color:#D1B19D"/>
	</linearGradient>
	<path class="st9" d="M574-86.2l42.3,4.7c0,0-19.3,46-46.3,96.5c-16.4,35.6-21.7,74.1-21.7,74.1l-4.5,1.5c0,0-5.2-82.5-2.1-126.8
		C544.9-80.5,574-86.2,574-86.2z"/>
	<path class="st3" d="M625.3,188.6c3.2,0.3,6-1.7,6.3-4.6c0.3-2.9-2-5.6-5.1-5.9s-6,1.7-6.3,4.6
		C619.9,185.7,622.2,188.3,625.3,188.6z"/>
	<path class="st3" d="M624,217c3.2,0.3,6-2.1,6.4-5.5s-1.9-6.4-5-6.8s-6,2.1-6.4,5.5C618.5,213.6,620.8,216.7,624,217z"/>
	<path class="st3" d="M629,244.3c3.7,0.4,6.9-1.6,7.2-4.5s-2.4-5.6-6-6c-3.7-0.4-6.9,1.6-7.2,4.5C622.6,241.2,625.3,243.9,629,244.3
		z"/>
	<path class="st10" d="M622.8,159c2.9,0.3,5.5-1.8,5.9-4.7c0.3-2.9-1.8-5.5-4.7-5.9c-2.9-0.3-5.5,1.8-5.9,4.7
		C617.8,156,619.9,158.6,622.8,159z"/>
	<path class="st11" d="M629.4,275.3c1.7-1.7,1.4-4.8-0.7-6.9c-2.1-2.1-5.2-2.3-6.9-0.6c-1.7,1.7-1.4,4.8,0.7,6.9
		S627.6,277.1,629.4,275.3z"/>
	<path class="st12" d="M634.8,301.1c3.4,0.4,6.4-1.3,6.6-3.7c0.3-2.4-2.3-4.7-5.7-5.1s-6.4,1.3-6.6,3.7
		C628.8,298.5,631.3,300.7,634.8,301.1z"/>
	<path class="st13" d="M648.2,329.3c2.6,0.3,4.8-1.1,5-3s-1.7-3.7-4.2-4c-2.6-0.3-4.8,1.1-5,3C643.8,327.2,645.7,329,648.2,329.3z"
		/>
	<path class="st11" d="M665.7,354.3c2.9,0.2,5.4-1.6,5.6-4.1c0.2-2.4-2.1-4.6-5-4.8c-2.9-0.2-5.4,1.6-5.6,4.1
		C660.5,352,662.8,354.1,665.7,354.3z"/>
	<path class="st7" d="M656,258.9c-8.7,6.1-18.7,9.9-29.2,11.3c-4.4-0.2-2.3,3.5-2.3,3.5s17-2.1,31.9-11.9
		C656,260.8,655.9,259.8,656,258.9z"/>
	<path class="st7" d="M656,258.9c-7.3-3.8-13.8-8.9-19.1-15c-2.3-3.7-4.2,0-4.2,0c6.8,7.4,14.8,13.5,23.7,18.1
		C656,261,655.9,260,656,258.9z"/>
	<path class="st7" d="M658.8,188.6c-7-4-18.3-9.2-30.7-10.1l-2.6,2.4c11.6,0.5,22.9,4.2,32.6,10.5
		C658.2,190.4,658.4,189.5,658.8,188.6z"/>
	<path class="st7" d="M671.6,308.9c-0.4-0.6-0.7-1.4-0.9-2.1c-6.8,8.1-15.5,14.4-25.2,18.3l3.2,1.4c9.8-4.3,17.7-11.2,23-17
		C671.7,309.4,671.6,309.2,671.6,308.9z"/>
	<path class="st7" d="M686.7,337c-0.6-0.5-1.2-1.2-1.7-1.9c-6,5.8-13,10.4-20.8,13.5l3.3,1.4C674.6,346.8,681.1,342.4,686.7,337z"/>
	<path class="st7" d="M694.7,350.4c-0.2-0.8-0.4-1.7-0.4-2.5c-8.6,2.6-17.6,3.4-26.5,2.3l2.2,2.8
		C678.3,353.6,686.6,352.8,694.7,350.4z"/>
	<path class="st7" d="M664.8,284.6c-10.2,2.6-28.5,7.7-31.2,10.8l3.2,1.5c0,0,17.2-5.8,29.6-9.3c-0.1-0.1-0.1-0.3-0.2-0.4
		C665.6,286.4,665.1,285.5,664.8,284.6z"/>
	<path class="st7" d="M655.4,229.4c0-0.6,0.1-1.2,0.2-1.8c-10.4,2.8-25.6,7.1-28.1,10l3.2,1.5c0,0,13-4.4,24.6-7.9
		C655.2,230.6,655.2,230,655.4,229.4z"/>
	<path class="st7" d="M657.3,199.1V199c-9.1,2.3-31,8.1-33.9,11.5l3.2,1.5c0,0,17.8-6,30.3-9.5C656.7,201.3,656.8,200.2,657.3,199.1
		z"/>
	<path class="st7" d="M530.3,197.8c0,0-3.1-3.9,0.8-7c3.9-3.1,48.7-21.4,91.2-18.5c36.6,7.6,37.3,8.4,37.3,8.4l-0.5,2.9
		c0,0-24.7-8.1-40.7-8.1C602.2,175.5,561.2,176.2,530.3,197.8z"/>
	<path class="st0-deb" d="M605.3,417.9c0,0,12.7,12,15.6,12.9c2.8,0.9,2.8,0.9,2.8,0.9l80.4-49.5l-3.3-15.8L641.4,378L605.3,417.9z"/>
	<polygon class="st0-deb" points="697.3,358.3 705.3,370 714.4,378.4 703.6,382.6 678.8,381.2 	"/>
</g>
<path id="toe2" class="st0-deb" d="M778.6,415.3l-3.5-1.8c0,0,1.8-21.3-7.1-26.6c-8.9-5.3-17.7-8.9-47.8-7.1
	c-13.8-6.9-14.2-8.8-20.7-18.7c-5,5.8-10.4,11.5-17.3,15.9c-23.6,17-45.4,33.1-67.1,50.8c29.9,21,100.6,19.8,153.1,3.4
	C778.6,427.7,780.4,424.1,778.6,415.3z"/>
</svg>
