<svg width="1133" height="166" viewBox="0 0 1133 166" fill="none" xmlns="http://www.w3.org/2000/svg">
<path d="M87.64 70.0002C91.7723 72.0087 95.6276 74.543 99.11 77.5401C107.814 86.2713 112.701 98.0968 112.701 110.425C112.701 122.753 107.814 134.579 99.11 143.31C94.8674 147.753 89.7521 151.27 84.0852 153.642C78.4183 156.013 72.3223 157.187 66.18 157.09H10.77V9.05016H52.4C57.9123 8.97009 63.3826 10.0202 68.4735 12.1356C73.5643 14.2511 78.1678 17.3871 82 21.3502C89.8867 29.3102 93.8334 38.7135 93.84 49.5602C93.84 56.6602 90.4 65.1702 87.64 70.0002ZM52.4 38.0002H40.65V65.0902C43.3167 64.9702 47.0467 64.7268 51.84 64.3602C58.93 63.5602 64.97 58.2902 64.97 50.7602C64.9704 47.4087 63.6521 44.1916 61.3001 41.804C58.9481 39.4164 55.7511 38.0501 52.4 38.0002ZM83.48 110.47C83.48 100.63 75.41 92.9002 66.18 92.2802C57.3 91.8002 49.61 92.2002 40.65 92.2002V128.1H66.18C68.4765 128.086 70.7475 127.617 72.8622 126.722C74.9769 125.826 76.8934 124.52 78.5015 122.881C80.1095 121.241 81.3773 119.3 82.2317 117.168C83.0862 115.036 83.5104 112.757 83.48 110.46V110.47Z" fill="#6AA6D4"/>
<path d="M178.84 6L246.92 157.11H214.45L204.37 134.62H153.31L143.23 157.13H110.86L178.84 6ZM192.53 108.33L178.94 77L165.15 108.33H192.53Z" fill="#6AA6D4"/>
<path d="M336.77 70.0001C340.905 72.0038 344.761 74.5386 348.24 77.5401C356.949 86.2687 361.839 98.0952 361.839 110.425C361.839 122.755 356.949 134.582 348.24 143.31C343.999 147.754 338.883 151.273 333.216 153.644C327.549 156.016 321.453 157.189 315.31 157.09H259.86V9.05009H301.49C307.002 8.97062 312.472 10.021 317.563 12.1364C322.654 14.2518 327.257 17.3875 331.09 21.3501C338.977 29.3101 342.923 38.7134 342.93 49.5601C342.93 56.6601 339.49 65.1701 336.77 70.0001ZM301.53 38.0001H289.77V65.0901C292.437 64.9701 296.167 64.7268 300.96 64.3601C308.06 63.5601 314.1 58.2901 314.1 50.7601C314.098 47.4026 312.773 44.181 310.413 41.7929C308.053 39.4048 304.847 38.0422 301.49 38.0001H301.53ZM332.61 110.47C332.61 100.63 324.54 92.9001 315.31 92.2801C306.44 91.8001 298.75 92.2001 289.78 92.2001V128.1H315.27C317.567 128.086 319.838 127.617 321.952 126.721C324.067 125.826 325.983 124.52 327.591 122.881C329.2 121.241 330.467 119.3 331.322 117.168C332.176 115.036 332.6 112.756 332.57 110.46L332.61 110.47Z" fill="#6AA6D4"/>
<path d="M378.82 9.0498L406.02 60.3998L433.22 9.0498H467.17L420.91 93.6498V157.13H391.13V93.6498L344.97 9.0498H378.82Z" fill="#6AA6D4"/>
<path d="M519.77 9.0498C543.19 9.0498 561.53 18.2898 574.25 30.8198C587.583 44.1065 594.25 61.5765 594.25 83.2298C594.25 104.883 587.583 122.29 574.25 135.45C559.583 149.91 541.423 157.136 519.77 157.13H480.11V9.12982H519.77V9.0498ZM519.68 38.5298H509.97V127.45H519.97C546.85 127.45 564.37 109.73 564.37 82.9898C564.38 56.4998 546.56 38.5298 519.7 38.5298H519.68Z" fill="#6AA6D4"/>
<path d="M607.2 9.0498H655.85C672.45 9.0498 685.85 15.2798 694.85 24.1098C703.93 33.1098 709.28 41.3498 709.28 57.7298V61.5898C709.28 71.5898 706.137 80.9898 699.85 89.7898C694.61 97.0698 690.46 100.17 681.99 103.47L716.68 157.11H680.08L637.26 91.6198V157.11H607.26L607.2 9.0498ZM678.42 58.6498C678.426 56.0033 677.907 53.3818 676.892 50.9374C675.878 48.493 674.388 46.2743 672.51 44.4098C668.62 40.6598 661.24 38.5298 654 38.5298H637.17V79.4098H648.77V79.5098H658.77C669.64 79.5098 678.42 69.9398 678.42 58.6498Z" fill="#6AA6D4"/>
<path d="M729.58 9.0498H759.58V157.13H729.58V9.0498Z" fill="#6AA6D4"/>
<path d="M839.77 160.44L772.49 9.0498H804.22L839.64 90.1598L875.16 9.0498H907.26L839.77 160.44Z" fill="#6AA6D4"/>
<path d="M1010.12 8.67969V38.3497H950.18V68.1997H995.18V97.8697H950.18V127.72H1010.12V157.31H920.21V8.67969H1010.12Z" fill="#6AA6D4"/>
<path d="M1023.07 9.0498H1071.77C1088.38 9.0498 1101.77 15.2798 1110.77 24.1098C1119.84 33.1098 1125.2 41.3498 1125.2 57.7298V61.5898C1125.2 71.5898 1122.05 80.9898 1115.76 89.7898C1110.53 97.0698 1106.38 100.17 1097.91 103.47L1132.6 157.11H1095.97L1053.14 91.6198V157.11H1023.14L1023.07 9.0498ZM1094.29 58.6498C1094.3 56.002 1093.78 53.379 1092.76 50.934C1091.75 48.4891 1090.25 46.2711 1088.37 44.4098C1084.48 40.6598 1077.1 38.5298 1069.87 38.5298H1053.03V79.4098H1064.6V79.5098H1074.6C1085.51 79.5098 1094.29 69.9398 1094.29 58.6498Z" fill="#6AA6D4"/>
<path d="M76.87 70.0001C81.0023 72.0087 84.8576 74.543 88.34 77.5401C97.0437 86.2713 101.931 98.0968 101.931 110.425C101.931 122.753 97.0437 134.579 88.34 143.31C84.0974 147.753 78.9821 151.27 73.3152 153.642C67.6483 156.013 61.5523 157.187 55.41 157.09H0V9.05009H41.63C47.1422 8.97062 52.6123 10.021 57.7031 12.1364C62.7939 14.2518 67.3974 17.3875 71.23 21.3501C79.1167 29.3101 83.0633 38.7134 83.07 49.5601C83.07 56.6601 79.63 65.1701 76.87 70.0001ZM41.63 38.0001H29.88V65.0901C32.5467 64.9701 36.2767 64.7268 41.07 64.3601C48.16 63.5601 54.2 58.2901 54.2 50.7601C54.1978 47.4094 52.8787 44.1938 50.5272 41.8067C48.1758 39.4197 44.9803 38.0526 41.63 38.0001V38.0001ZM72.7 110.47C72.7 100.63 64.64 92.9001 55.41 92.2801C46.53 91.8001 38.84 92.2001 29.88 92.2001V128.1H55.41C57.7061 128.086 59.9766 127.617 62.0907 126.721C64.2048 125.825 66.1207 124.52 67.728 122.88C69.3352 121.24 70.602 119.299 71.4554 117.167C72.3087 115.035 72.7317 112.756 72.7 110.46V110.47Z" stroke="white" stroke-width="4.24" stroke-miterlimit="10"/>
<path d="M168.07 6L236.15 157.11H203.68L193.6 134.6H142.54L132.46 157.11H100.09L168.07 6ZM181.77 108.35L168.17 77L154.38 108.33L181.77 108.35Z" stroke="white" stroke-width="4.24" stroke-miterlimit="10"/>
<path d="M325.96 70.0001C330.095 72.0038 333.951 74.5386 337.43 77.5401C346.139 86.2687 351.029 98.0952 351.029 110.425C351.029 122.755 346.139 134.582 337.43 143.31C333.189 147.754 328.073 151.273 322.406 153.644C316.739 156.016 310.643 157.189 304.5 157.09H249.09V9.05009H290.77C296.282 8.97062 301.752 10.021 306.843 12.1364C311.934 14.2518 316.537 17.3875 320.37 21.3501C328.257 29.3101 332.203 38.7134 332.21 49.5601C332.16 56.6601 328.77 65.1701 325.96 70.0001ZM290.77 38.0001H278.97V65.0901C281.637 64.9701 285.367 64.7268 290.16 64.3601C297.26 63.5601 303.3 58.2901 303.3 50.7601C303.298 47.4162 301.984 44.2065 299.641 41.8206C297.299 39.4347 294.113 38.0629 290.77 38.0001ZM321.77 110.46C321.77 100.62 313.7 92.8901 304.47 92.2701C295.6 91.7901 287.91 92.1901 278.94 92.1901V128.1H304.47C306.767 128.086 309.038 127.617 311.152 126.721C313.267 125.826 315.183 124.52 316.791 122.881C318.399 121.241 319.667 119.3 320.522 117.168C321.376 115.036 321.8 112.756 321.77 110.46V110.46Z" stroke="white" stroke-width="4.24" stroke-miterlimit="10"/>
<path d="M368.05 9.0498L395.25 60.3998L422.45 9.0498H456.39L410.14 93.6498V157.13H380.36V93.6498L334.2 9.0498H368.05Z" stroke="white" stroke-width="4.24" stroke-miterlimit="10"/>
<path d="M509.02 9.0498C532.43 9.0498 550.77 18.2898 563.5 30.8198C576.833 44.1065 583.5 61.5765 583.5 83.2298C583.5 104.883 576.833 122.29 563.5 135.45C548.833 149.91 530.673 157.136 509.02 157.13H469.33V9.12982H509.02V9.0498ZM508.93 38.5298H499.21V127.45H509.21C536.09 127.45 553.61 109.73 553.61 82.9898C553.6 56.4998 535.77 38.5298 508.93 38.5298Z" stroke="white" stroke-width="4.24" stroke-miterlimit="10"/>
<path d="M596.43 9.0498H645.08C661.68 9.0498 675.08 15.2798 684.08 24.1098C693.16 33.1098 698.51 41.3498 698.51 57.7298V61.5898C698.51 71.5898 695.367 80.9898 689.08 89.7898C683.84 97.0698 679.69 100.17 671.22 103.47L705.91 157.11H669.31L626.49 91.6198V157.11H596.49L596.43 9.0498ZM667.65 58.6498C667.664 56.0048 667.151 53.3835 666.142 50.9387C665.132 48.4938 663.646 46.2744 661.77 44.4098C657.88 40.6598 650.51 38.5298 643.27 38.5298H626.4V79.4098H637.96V79.5098H647.96C658.87 79.5098 667.65 69.9398 667.65 58.6498Z" stroke="white" stroke-width="4.24" stroke-miterlimit="10"/>
<path d="M718.77 9.0498H748.77V157.13H718.77V9.0498Z" stroke="white" stroke-width="4.24" stroke-miterlimit="10"/>
<path d="M828.97 160.44L761.77 9.0498H793.5L828.92 90.1598L864.45 9.0498H896.54L828.97 160.44Z" stroke="white" stroke-width="4.24" stroke-miterlimit="10"/>
<path d="M999.35 8.67969V38.3497H939.41V68.1997H984.41V97.8697H939.41V127.72H999.35V157.31H909.44V8.67969H999.35Z" stroke="white" stroke-width="4.24" stroke-miterlimit="10"/>
<path d="M1012.3 9.0498H1060.95C1077.55 9.0498 1090.95 15.2798 1099.95 24.1098C1109.03 33.1098 1114.37 41.3498 1114.37 57.7298V61.5898C1114.37 71.5898 1111.23 80.9898 1104.94 89.7898C1099.71 97.0698 1095.56 100.17 1087.09 103.47L1121.78 157.11H1085.15L1042.32 91.6198V157.11H1012.32L1012.3 9.0498ZM1083.52 58.6498C1083.53 56.002 1083.01 53.379 1081.99 50.934C1080.98 48.4891 1079.48 46.2711 1077.6 44.4098C1073.71 40.6598 1066.34 38.5298 1059.1 38.5298H1042.27V79.4098H1053.83V79.5098H1063.83C1074.77 79.5098 1083.52 69.9398 1083.52 58.6498Z" stroke="white" stroke-width="4.24" stroke-miterlimit="10"/>
</svg>
