<svg xmlns="http://www.w3.org/2000/svg" viewBox="0 0 306.89 674.56"><defs><style>.cls-1{fill:#fff;}.cls-2{fill:#000a47;}.cls-3{fill:#f9c89b;}.cls-4{fill:#492100;}</style></defs><title>babybd</title><g id="Layer_2" data-name="Layer 2"><g id="Layer_5" data-name="Layer 5"><path class="cls-1" d="M201.67,165.86s-79.79-6.13-86.81,0-82.42,39.46-87.68,52.61S0,318.43,0,318.43L59.62,336,64,330.71l3.51,35.07c.87,8.77.87,62.25-.88,69.27S44.72,538.51,48.23,544.65s27.18,17.54,44.71,19.29,95.58,9.65,101.71,7.89,64-18.41,71-17.53,11.4-10.53,9.64-43.84-.87-142-.87-146.43V336s32.44-.88,32.44-16.66,0-46.47-11.4-72.78l-11.4-26.3Z"/><path class="cls-2" d="M51.49,547.24s-12.61,55.58-12.61,89.87v34.3l233,3.15s18.53-52.43,17-60.31-18.92-59.92-18.92-59.92l-88.69,12.22L51.49,547.24"/><path class="cls-3" d="M95.18,71.66s.53,15.5-.27,19.78,0,28.6,2.14,35,14.43,21.12,14.43,21.12v20.58l90.19-2.29s-8.66-6.26-8.93-8.67-3.47-30.2-3.47-30.2l-4.82-18.71L111.22,64.71l-14.7,3.47Z"/><path class="cls-4" d="M177.08,6.26S168.43,4.82,164.47,3s-23.08-5.77-35,0S90.2,23.2,90.56,34.74s2.88,31.37,13.7,48.67,16.22,25.6,15.86,33.89-.36,10.1-.36,10.1l71.39,5.77s21.63-42.91,20.18-62.38S211,31.5,196.55,19.24,177.08,6.26,177.08,6.26Z"/><path class="cls-3" d="M11.16,318.25s3,15.55,3,23.67-1,53.08-3.38,61.87-8.45,38.54-8.11,75,.67,90.61.34,96-2.71,31.44,2.7,39.9,13.19,17.91,22,17.58,11.49-2.71,13.18-11.5,2-50,2-50-11.83-24-9.47-31.44S51.39,501.83,54.77,491s4.06-51.39,4.4-68.64,7.44-58.15,2.37-87.22S11.16,318.25,11.16,318.25Z"/><path class="cls-3" d="M273.28,483.54s26.78-46.11,26.78-49.43,3-110.72,3-110.72L266.93,332Z"/></g></g></svg>