<svg xmlns="http://www.w3.org/2000/svg" xmlns:xlink="http://www.w3.org/1999/xlink" viewBox="0 0 893.85 545.07"><defs><style>.cls-1,.cls-10{fill:none;}.cls-2{clip-path:url(#clip-path);}.cls-3{fill:#141414;}.cls-4{fill:#8b2221;}.cls-5{fill:#fff;}.cls-6{fill:#f1f1f1;}.cls-7{fill:#e0b4a9;}.cls-8{fill:#262626;}.cls-9{fill:#989898;}.cls-10{stroke:#91271e;stroke-miterlimit:10;stroke-width:2.62px;}.cls-11{fill:#d2d2d2;}.cls-12{fill:#c8a19a;}.cls-13{fill:#6aa6d4;}.cls-14{fill:#452d1c;}.cls-15{fill:#a42a2c;}</style><clipPath id="clip-path" transform="translate(4.25 -145.95)"><rect class="cls-1" width="1152" height="700"/></clipPath></defs><title>deborabd</title><g id="Layer_2" data-name="Layer 2"><g id="Layer_1-2" data-name="Layer 1"><g class="cls-2"><path class="cls-3" d="M98.07,590.08s37.38,25.1,83.81,4.47l230.57-6.36-25.61-35-110.48-4.77-94.48,12.7Z" transform="translate(4.25 -145.95)"/><path class="cls-4" d="M278,437.1v11.16l270.6,11.15-6.4,130.39,6.4,4.77,176.14,3.18,11.95-137.28-.73-20.18s-385.84-8-401.9-8S278,437.1,278,437.1Z" transform="translate(4.25 -145.95)"/><path class="cls-4" d="M807.94,422.79s-49.64,9.54-83.26,9.54H699.05l-3.19,19.08,33.62,17.49,74.61-6.51,8.65-44.34Z" transform="translate(4.25 -145.95)"/><path class="cls-3" d="M324.39,672.44c38.91,0,70.44-31.33,70.44-70s-31.53-70-70.44-70-70.46,31.32-70.46,70S285.48,672.44,324.39,672.44Z" transform="translate(4.25 -145.95)"/><path class="cls-5" d="M324.39,659.72a57.24,57.24,0,1,0-57.65-57.25A57.45,57.45,0,0,0,324.39,659.72Z" transform="translate(4.25 -145.95)"/><path class="cls-6" d="M874.39,443.88S708.67,467.35,699.06,461c0,0-9.6,1.59-3.2,33.38S711.2,615,711.2,615s5.48,1.79,11.89,3.39,6.4,0,6.4,0l1.57,12.72,105.72-38.17L880,605.64l9.6-173.31Z" transform="translate(4.25 -145.95)"/><path class="cls-6" d="M17,440.28s-19.22,1.59-19.22,4.77,8,4.77,12.81,4.77c0,0-17.61,46.11-14.41,73.15l27.22,1.59s-6.41,41.35-4.8,46.11A19.64,19.64,0,0,0,33,583.39c8,1.59,16,4.77,57.64,6.36s91.27,4.77,91.27,4.77,60.85-33.38,115.28-38.12,89.67,4.77,96.08,14.31,9.63,41.3,9.63,41.3l309,6.36-4.79-23.85-155.32-3.18s-6.4-3.17-6.4-9.54,3.2-122.48,3.2-122.48L302,451.42s-22.42-1.59-22.42-7.95V437.1H116.23s-11.16-1.59-14.41,3.18-32,1.59-32,1.59-9.61-17.49-22.42-17.49S25,426,17,440.28Z" transform="translate(4.25 -145.95)"/><path class="cls-7" d="M482.91,394.16s6.39,14.32,8,19.09S534.15,461,534.15,461s1.6,4.77,3.19,6.36,11.21,9.54,12.82,9.54,11.2-1.59,9.6-8-17.61-11.16-20.82-17.49-32-49.28-32-52.48-6.42-23.84-6.42-23.84Z" transform="translate(4.25 -145.95)"/><path class="cls-7" d="M302,451.41s-1.61,4.77,0,4.77,9.61-3.18,12.81-3.18,9.61,0,8,1.6-9.61,6.36-8,7.95,4.8,3.18,14.41-3.18l14.42-9.53c4.8-3.18,38.43-27,44.84-35s14.42-19.09,14.42-19.09l-11.21-17.48a346.68,346.68,0,0,1-22.41,27c-14.43,15.9-32,39.74-32,39.74S308.38,445,302,451.41Z" transform="translate(4.25 -145.95)"/><path class="cls-3" d="M420.47,678.8s1.61,3.17,11.2,1.59,14.4-4.77,14.4-4.77l-6.39-38.12h-6.41l-3.2,3.18s0,27-4.8,30.2a10.23,10.23,0,0,0-4.8,7.92Z" transform="translate(4.25 -145.95)"/><path class="cls-8" d="M472.28,675.62c1.44,4.76-27.75,6.08-28.89,4.76a18.12,18.12,0,0,1-1.12-3.53c-.24-.93-.5-1.91-.78-3.06-3-12.08-8.22-36.34-8.22-36.34l20.23-9.54s8.68,23.86,8.68,28.62" transform="translate(4.25 -145.95)"/><path class="cls-5" d="M433.27,626.34V637.5s21.38-4.77,21.38-6.36a71.51,71.51,0,0,0-1.53-8Z" transform="translate(4.25 -145.95)"/><path class="cls-9" d="M324.39,645.41a43,43,0,1,0-16.5-3.22A43,43,0,0,0,324.39,645.41Z" transform="translate(4.25 -145.95)"/><path class="cls-10" d="M324.77,645.81A44.28,44.28,0,1,0,293.42,633a44.11,44.11,0,0,0,31.35,12.86Z" transform="translate(4.25 -145.95)"/><path class="cls-11" d="M325.77,619.34a19.1,19.1,0,1,0-7.33-1.43A19.14,19.14,0,0,0,325.77,619.34Z" transform="translate(4.25 -145.95)"/><path class="cls-3" d="M13.75,500.7v17.5l525.19,12.72V510.24Z" transform="translate(4.25 -145.95)"/><path class="cls-4" d="M15.36,507.07V515l525.18,9.54-3.2-7.93Z" transform="translate(4.25 -145.95)"/><path class="cls-7" d="M452.48,621.56s6.4-3.18,9.6-25.45,8-60.43,11.21-66.78-25.62-8-25.62-8Z" transform="translate(4.25 -145.95)"/><path class="cls-12" d="M446.07,524.56s4.81,19.08,4.81,30.21v44.52s8-39.75,6.4-46.11-3.19-28.62-3.19-28.62Z" transform="translate(4.25 -145.95)"/><path class="cls-13" d="M417.26,348.06s-9.6,1.59-12.81,4.77-16,27-16,27,11.15,14.3,16,14.3h4.79s4.81,12.73,0,31.81-25.61,77.92-24,90.66l1.6,12.73S406,531,417.23,526.18a49.41,49.41,0,0,1,33.62-1.59c9.6,3.17,17.61,6.36,24,4.77a61.73,61.73,0,0,1,14.46-1.57c1.61,0,3.21-7.95,6.41-9.54s9.6,0,9.6-6.36-1.6-27-14.41-54.07-20.81-36.57-17.61-46.11,4.8-15.9,4.8-15.9h4.81s20.81-12.72,20.81-20.67-11.23-25.49-14.41-27.08-11.24-1.57-11.24-1.57l-6.42,6.34-16-1.31Z" transform="translate(4.25 -145.95)"/><path class="cls-14" d="M442.85,274.9c-3.09.83-19.22,6.36-22.42,25.44S415.65,356,414,357.64l-1.61,1.59s12.82-1.59,17.62-3.18,22.42-3.18,25.62-1.59,24,1.59,25.62-9.53-3.2-41.35-6.4-46.12S460.51,270.14,442.85,274.9Z" transform="translate(4.25 -145.95)"/><path class="cls-7" d="M439.68,386.22s12.8-30.22,14.41-31.81l1.6-1.59V335.33a56.15,56.15,0,0,0,3.19-19.09c0-11.15-8-22.26-11.2-22.26s-9.6-1.58-12.81,4.77-6.41,22.26-4.8,25.42,9.61,11.16,9.61,11.16v14.31s-8,1.59-8,3.18S433.27,373.5,439.68,386.22Z" transform="translate(4.25 -145.95)"/><path class="cls-3" d="M724.68,368.73S689.45,371.9,687.85,383s0,15.89,0,15.89,6.41,0,4.8,9.54-4.8,33.4-4.8,33.4l17.61-1.6s4.81-42.94,3.2-44.52-9.61-7.95-4.8-11.16a45,45,0,0,1,9.6-4.77Z" transform="translate(4.25 -145.95)"/><path class="cls-15" d="M734.16,461.61s3.33-52.21,1.72-55.39-16-14.31-17.61-15.9-6.4-8.93-6.4-8.93l12.81-13.32s6.4-3.17,25.62,11.15,57.27,40.72,57.27,40.72l-.34,3.83-13.71,1.54-24-23.85,9,55.67h-9s-1.61-54.07-9.6-62S737.49,380.8,739.09,384s9.59,11.15,11.16,22.26,1.59,42.93,1.59,42.93l9,9.89Z" transform="translate(4.25 -145.95)"/><path class="cls-7" d="M453.74,620.49c-1.06-8.56-4.2-35.47-2.86-43.45,1.6-9.54,3.2-23.86,1.6-30.22s-4.8-23.85-4.8-23.85l-20.82-4.77L412.44,523l1.61,4.76s9.61,19.09,11.21,28.63,1.6,47.7,3.19,52.47,4.81,17.51,4.81,17.51l19.89-3a3.77,3.77,0,0,1,0-1.46A3.87,3.87,0,0,1,453.74,620.49Z" transform="translate(4.25 -145.95)"/><path class="cls-8" d="M468.54,690.36c-6.33,1.27-13.94,1.27-20.26-5l-6.36-6.28,27.89-6.29s6.33,6.29,7.59,8.81S468.54,690.36,468.54,690.36Z" transform="translate(4.25 -145.95)"/><rect class="cls-1" x="871.78" width="19.25" height="19.25"/></g></g></g></svg>