<svg id="Layer_1" data-name="Layer 1" xmlns="http://www.w3.org/2000/svg" viewBox="0 0 1152 700"><defs><style>.cls-1{fill:#424242;}.cls-2{fill:#1c1c1c;}.cls-10,.cls-11,.cls-14,.cls-15,.cls-3,.cls-8,.cls-9{fill:none;}.cls-3{stroke:#fff;stroke-miterlimit:10;stroke-width:2.65px;}.cls-4{fill:#303030;}.cls-5{fill:#d34452;}.cls-18,.cls-6{fill:#fff;}.cls-7{fill:#262626;}.cls-10,.cls-11,.cls-14,.cls-15,.cls-8,.cls-9{stroke:#6b6b6b;stroke-linejoin:round;}.cls-10,.cls-14,.cls-8{stroke-linecap:round;}.cls-8{stroke-width:2.38px;}.cls-11,.cls-15,.cls-9{stroke-linecap:square;}.cls-9{stroke-width:0.87px;}.cls-10{stroke-width:3.1px;}.cls-11{stroke-width:1.14px;}.cls-12{fill:#ef8b33;}.cls-13{fill:#8632ad;}.cls-14{stroke-width:2.82px;}.cls-15{stroke-width:1.03px;}.cls-16{fill:#3b9322;}.cls-17{fill:#38a396;}.cls-18{font-size:20.36px;font-family:Montserrat-Regular, Montserrat;}.cls-19{letter-spacing:-0.01em;}.cls-20{letter-spacing:-0.06em;}.cls-21{letter-spacing:0.02em;}</style></defs><title>end-02</title><rect class="cls-1" x="-6.6" y="-12.49" width="1162.89" height="722.55"/><g id="maintext"><path class="cls-2" d="M198.82,221.55l.55,40.83-50.36.67,2.18,164.17-41.33.55-2.18-164.18-50.49.68-.54-40.83Z"/><path class="cls-2" d="M257.7,220.77l1.09,82,68.54-.92-1.09-82,41.08-.55,2.72,205-41.07.55-1.09-82.15-68.55.91,1.09,82.15-41.07.55-2.73-205Z"/><path class="cls-2" d="M516.34,216.82l.55,41.08-82.4,1.1.54,41.33,61.81-.83.55,41.08-61.81.82.55,41.33,82.41-1.09.54,40.94-123.61,1.65-2.73-205.76Z"/><path class="cls-2" d="M734.05,213.93,734.6,255l-82.41,1.1.55,41.33,61.8-.82.55,41.07-61.8.83.55,41.33,82.4-1.1.55,40.95-123.61,1.64-2.74-205.76Z"/><path class="cls-2" d="M876.84,325.87l-1.51-113.82,41.33-.55,2.79,209.7L794.27,305.09l1.52,113.81-41.21.55L751.8,209.87Z"/><path class="cls-2" d="M996.65,210.94c32.2-.43,57.58,12,75.3,29.15q27.84,27.22,28.44,72.18t-26.51,72.66q-29.87,30.42-74.51,31l-54.55.73-2.73-204.88,54.56-.72Zm.41,40.83-13.35.17,1.64,123.11,13.73-.19c37-.49,60.72-25.34,60.23-62.36C1058.82,275.82,1034,251.28,997.06,251.77Z"/></g><g id="strokes"><path class="cls-3" d="M187,215l.54,40.83-50.36.66,2.19,164.18L98,421.21,95.81,257l-50.48.68-.55-40.83Z"/><path class="cls-3" d="M245.83,214.21l1.09,82,68.55-.92-1.09-82,41.07-.55,2.73,205-41.07.55L316,336.15l-68.54.91,1.09,82.15-41.08.55-2.72-205Z"/><path class="cls-3" d="M504.48,210.26l.55,41.08-82.41,1.09.55,41.34,61.81-.83.54,41.08-61.8.82.55,41.33,82.4-1.09.55,40.94-123.61,1.65-2.74-205.76Z"/><path class="cls-3" d="M722.19,207.37l.54,41.07-82.4,1.1.55,41.33,61.8-.82.55,41.07-61.81.83.55,41.33,82.41-1.1.55,40.95-123.62,1.64L598.58,209Z"/><path class="cls-3" d="M865,319.31l-1.51-113.82,41.33-.55,2.79,209.7L782.41,298.53l1.52,113.81-41.21.55-2.79-209.57Z"/><path class="cls-3" d="M984.79,204.38c32.2-.43,57.58,12,75.3,29.15q27.84,27.22,28.43,72.18T1062,378.37q-29.87,30.42-74.51,31l-54.55.73-2.73-204.87,54.56-.73Zm.41,40.83-13.35.17,1.64,123.1,13.73-.18c37-.49,60.72-25.34,60.22-62.36C1047,269.26,1022.12,244.72,985.2,245.21Z"/></g><g id="Cassette"><path class="cls-4" d="M1219,568.31,933.5,529.75a13.59,13.59,0,0,0-15.3,11.66L894.74,715.26a13.6,13.6,0,0,0,11.67,15.3l285.51,38.56a13.59,13.59,0,0,0,15.3-11.65l23.46-173.86A13.61,13.61,0,0,0,1219,568.31Z"/><path class="cls-5" d="M1207.67,581.92,942.06,546a8,8,0,0,0-9,6.86l-15.93,118a8,8,0,0,0,6.86,9l265.62,35.88a8,8,0,0,0,9-6.86l15.92-118A8,8,0,0,0,1207.67,581.92Z"/><path class="cls-6" d="M1174.12,636.84,959.86,607.9A17.64,17.64,0,0,0,940,623l-2.46,18.22a17.65,17.65,0,0,0,15.13,19.85L1167,690a17.62,17.62,0,0,0,19.84-15.11l2.46-18.23A17.63,17.63,0,0,0,1174.12,636.84Z"/><path class="cls-7" d="M1090.58,632.06l-53.51-7.22a3.45,3.45,0,0,0-3.88,2.95l-4.79,35.5a3.45,3.45,0,0,0,3,3.88l53.51,7.23a3.46,3.46,0,0,0,3.88-3l4.79-35.5A3.46,3.46,0,0,0,1090.58,632.06Z"/><path class="cls-7" d="M985.52,658a21,21,0,1,0-12.7-26.87A21,21,0,0,0,985.52,658Z"/><path class="cls-7" d="M1124.88,676.88a21,21,0,1,0-12.7-26.88A21,21,0,0,0,1124.88,676.88Z"/><path class="cls-8" d="M948.52,728.18l26.74-31.94,152.94,20.67L1139.84,754Z"/><path class="cls-9" d="M953.05,568.39,1188.81,599"/><path class="cls-9" d="M949.63,584.34l235.77,30.6"/><path class="cls-9" d="M1047.87,633,1044,661.46"/><path class="cls-9" d="M1056.55,634.12l-3.86,28.52"/><path class="cls-9" d="M1066.46,635.47,1062.62,664"/><path class="cls-9" d="M1077.62,637l-3.84,28.51"/><path class="cls-4" d="M108.14-195.68-198.3,21.13a17.71,17.71,0,0,0-4.24,24.7l132,186.58a17.73,17.73,0,0,0,24.71,4.23L260.65,19.83a17.71,17.71,0,0,0,4.24-24.7l-132-186.58A17.73,17.73,0,0,0,108.14-195.68Z"/><path class="cls-5" d="M109.41-172.63-175.67,29.07a10.41,10.41,0,0,0-2.49,14.52l89.63,126.66A10.43,10.43,0,0,0-74,172.74L211.09-29a10.41,10.41,0,0,0,2.49-14.52L123.94-170.14A10.43,10.43,0,0,0,109.41-172.63Z"/><path class="cls-6" d="M126.2-90.48l-230,162.7a23,23,0,0,0-5.49,32l13.84,19.56a23,23,0,0,0,32,5.48l230-162.7a23,23,0,0,0,5.49-32L158.25-85A23,23,0,0,0,126.2-90.48Z"/><path class="cls-7" d="M42.32-20.84-15.12,19.8a4.5,4.5,0,0,0-1.07,6.26l27,38.1A4.5,4.5,0,0,0,17,65.23L74.47,24.6a4.5,4.5,0,0,0,1.07-6.26l-27-38.1A4.49,4.49,0,0,0,42.32-20.84Z"/><path class="cls-10" d="M-7.76,197l-2.88-54.19L153.54,26.64,197.6,51.71Z"/><path class="cls-11" d="M-145.35,40.6,106.59-139.61"/><path class="cls-11" d="M-134.44,58.84,117.5-121.37"/><path class="cls-11" d="M2.38,18,24,48.54"/><path class="cls-11" d="M11.7,11.35,33.35,42"/><path class="cls-11" d="M22.34,3.83,44,34.43"/><path class="cls-11" d="M34.32-4.64,56,26"/><path class="cls-4" d="M-136.07,567.93l34.69,225.93a17.72,17.72,0,0,0,20.21,14.82l371-57a17.73,17.73,0,0,0,14.83-20.21L270,505.52a17.72,17.72,0,0,0-20.21-14.83l-371,57A17.72,17.72,0,0,0-136.07,567.93Z"/><path class="cls-12" d="M-114.87,577.07l23.56,153.37a10.4,10.4,0,0,0,11.88,8.71l345.17-53a10.43,10.43,0,0,0,8.72-11.89L250.91,520.84A10.4,10.4,0,0,0,239,512.13l-345.17,53A10.44,10.44,0,0,0-114.87,577.07Z"/><path class="cls-6" d="M-80.37,662.13l3.64,23.69A23,23,0,0,0-50.52,705l278.44-42.8A23,23,0,0,0,247.16,636l-3.64-23.68a23,23,0,0,0-26.21-19.23l-278.44,42.8A23,23,0,0,0-80.37,662.13Z"/><path class="cls-7" d="M43.83,632.84,50.91,679A4.49,4.49,0,0,0,56,682.73L125.57,672a4.49,4.49,0,0,0,3.76-5.12l-7.09-46.14a4.48,4.48,0,0,0-5.12-3.75L47.59,627.72A4.49,4.49,0,0,0,43.83,632.84Z"/><path class="cls-7" d="M201,623.75a27.39,27.39,0,1,0-15.91,35.31A27.4,27.4,0,0,0,201,623.75Z"/><path class="cls-7" d="M19.87,651.6a27.38,27.38,0,0,0-35.32-15.89A27.38,27.38,0,0,0-31.35,671,27.39,27.39,0,0,0,4,686.92,27.4,27.4,0,0,0,19.87,651.6Z"/><path class="cls-11" d="M-81.16,587l306.4-45.48"/><path class="cls-11" d="M-76.34,607.67l306.4-45.48"/><path class="cls-11" d="M109,664.9l-5.7-37"/><path class="cls-11" d="M97.67,666.65,92,629.59"/><path class="cls-11" d="M84.78,668.63l-5.69-37"/><path class="cls-11" d="M70.27,670.85,64.59,633.8"/><path class="cls-4" d="M1114.19,257.89l31.56,205.51a16.12,16.12,0,0,0,18.39,13.48L1501.63,425a16.14,16.14,0,0,0,13.49-18.39l-31.56-205.51a16.13,16.13,0,0,0-18.39-13.48l-337.49,51.88A16.12,16.12,0,0,0,1114.19,257.89Z"/><path class="cls-12" d="M1133.48,266.2l21.43,139.51a9.48,9.48,0,0,0,10.81,7.93l314-48.26a9.48,9.48,0,0,0,7.93-10.81L1466.2,215.06a9.47,9.47,0,0,0-10.81-7.93l-314,48.26A9.49,9.49,0,0,0,1133.48,266.2Z"/><path class="cls-4" d="M398.37-66.84l31.56,205.51a16.13,16.13,0,0,0,18.39,13.49l337.49-51.88A16.12,16.12,0,0,0,799.3,81.9L767.74-123.61a16.11,16.11,0,0,0-18.39-13.48L411.86-85.22A16.12,16.12,0,0,0,398.37-66.84Z"/><path class="cls-13" d="M417.66-58.53,439.09,81a9.47,9.47,0,0,0,10.81,7.93l314-48.26a9.48,9.48,0,0,0,7.93-10.81L750.38-109.67a9.48,9.48,0,0,0-10.81-7.93l-314,48.26A9.49,9.49,0,0,0,417.66-58.53Z"/><path class="cls-6" d="M449,18.85l3.31,21.55a20.9,20.9,0,0,0,23.84,17.48L729.47,19A20.92,20.92,0,0,0,747-4.89l-3.31-21.54a20.91,20.91,0,0,0-23.85-17.49L466.54-5A20.92,20.92,0,0,0,449,18.85Z"/><path class="cls-7" d="M562-7.8l6.44,42a4.09,4.09,0,0,0,4.66,3.42l63.25-9.72a4.09,4.09,0,0,0,3.42-4.66l-6.45-42a4.08,4.08,0,0,0-4.65-3.42l-63.26,9.73A4.07,4.07,0,0,0,562-7.8Z"/><path class="cls-7" d="M705-16.07a24.91,24.91,0,0,0-32.13-14.45A24.91,24.91,0,0,0,658.36,1.6a24.91,24.91,0,0,0,32.13,14.46A24.92,24.92,0,0,0,705-16.07Z"/><path class="cls-7" d="M540.22,9.27a24.91,24.91,0,1,0-14.47,32.12A24.92,24.92,0,0,0,540.22,9.27Z"/><path class="cls-14" d="M509.71,133.15l13-44.25L703.48,61.1l32.37,37.27Z"/><path class="cls-15" d="M621.25,21.37l-5.18-33.7"/><path class="cls-15" d="M611,23,605.8-10.75"/><path class="cls-15" d="M599.26,24.76l-5.17-33.7"/><path class="cls-15" d="M586.07,26.78,580.9-6.92"/><path class="cls-4" d="M421.25,902.33l164.44,127.24a16.11,16.11,0,0,0,22.61-2.88L817.23,756.61A16.14,16.14,0,0,0,814.34,734L649.91,606.75a16.11,16.11,0,0,0-22.61,2.89L418.37,879.71A16.13,16.13,0,0,0,421.25,902.33Z"/><path class="cls-16" d="M441,895.07l111.62,86.38a9.49,9.49,0,0,0,13.3-1.7L760.25,728.49a9.48,9.48,0,0,0-1.69-13.3L646.93,628.81a9.49,9.49,0,0,0-13.3,1.7L439.26,881.77A9.49,9.49,0,0,0,441,895.07Z"/><path class="cls-6" d="M517,929.55l17.23,13.34a20.91,20.91,0,0,0,29.33-3.75l156.8-202.68a20.93,20.93,0,0,0-3.74-29.34l-17.24-13.34a20.92,20.92,0,0,0-29.33,3.75L513.27,900.21A20.91,20.91,0,0,0,517,929.55Z"/><path class="cls-15" d="M469.38,880.48l173.56-222"/><path class="cls-15" d="M485.53,891.11l173.56-222"/><path class="cls-4" d="M914.27,53.77,1078.7,181a16.11,16.11,0,0,0,22.61-2.89L1310.24-91.94a16.13,16.13,0,0,0-2.88-22.62L1142.92-241.81a16.12,16.12,0,0,0-22.61,2.89L911.38,31.16A16.11,16.11,0,0,0,914.27,53.77Z"/><path class="cls-17" d="M934,46.51l111.63,86.38a9.47,9.47,0,0,0,13.3-1.7l194.37-251.25a9.49,9.49,0,0,0-1.7-13.3l-111.63-86.38a9.46,9.46,0,0,0-13.29,1.7L932.28,33.21A9.48,9.48,0,0,0,934,46.51Z"/><path class="cls-6" d="M1010,81l17.24,13.34a20.91,20.91,0,0,0,29.33-3.74L1213.38-112.1a20.91,20.91,0,0,0-3.74-29.33l-17.24-13.34a20.89,20.89,0,0,0-29.32,3.75L1006.28,51.66A20.91,20.91,0,0,0,1010,81Z"/><path class="cls-7" d="M1073.56-16.14l33.58,26a4.08,4.08,0,0,0,5.73-.73L1152-41.51a4.09,4.09,0,0,0-.73-5.73l-33.58-26a4.09,4.09,0,0,0-5.73.73l-39.16,50.62A4.09,4.09,0,0,0,1073.56-16.14Z"/><path class="cls-7" d="M1069.52,11.24a24.91,24.91,0,1,0,11.64,33.25A24.92,24.92,0,0,0,1069.52,11.24Z"/><path class="cls-14" d="M1132.73,122.06l-21.07-41L1223.57-63.64l49.14,4.71Z"/><path class="cls-15" d="M962.4,31.93,1136-190"/><path class="cls-15" d="M978.55,42.55l173.56-222"/></g><text class="cls-18" transform="translate(530.34 535.9)">Cli<tspan class="cls-19" x="25.59" y="0">c</tspan><tspan x="36.88" y="0">k </tspan><tspan class="cls-20" x="54.45" y="0">T</tspan><tspan x="65.02" y="0">o Resta</tspan><tspan class="cls-21" x="140.35" y="0">r</tspan><tspan x="148.82" y="0">t</tspan></text></svg>