<?xml version="1.0" encoding="utf-8"?>
<!-- Generator: Adobe Illustrator 24.0.1, SVG Export Plug-In . SVG Version: 6.00 Build 0)  -->
<svg version="1.1" id="Layer_1" xmlns="http://www.w3.org/2000/svg" xmlns:xlink="http://www.w3.org/1999/xlink" x="0px" y="0px"
	 viewBox="0 0 1152 700" style="enable-background:new 0 0 1152 700;" xml:space="preserve">
<style type="text/css">
	.st0{display:none;}
	.st1{display:inline;}
	.st2{fill:#21CCCC;}
	.st3{fill:#39B716;}
	.st4{fill:#EADC2D;}
	.st5{fill:#DB8109;}
	.st6{fill:#C40A0A;}
	.st7{opacity:0.86;fill:#009393;enable-background:new    ;}
	.st8{opacity:0.86;fill:#F4CB1E;enable-background:new    ;}
	.st9{fill:#98D987;}
	.st10{fill:#BAE5AE;}
	.st11{fill:#DBF1D5;}
	.st12{fill:#75CC5C;}
	.st13{fill:#64DADA;}
	.st14{fill:#D55454;}
	.st15{fill:#E5A653;}
	.st16{fill:#EFE66C;}
	.st17{fill:#F8E8D3;}
	.st18{display:none;opacity:0.24;}
	.st19{clip-path:url(#SVGID_2_);}
	.st20{fill:#141414;}
	.st21{fill:#C10808;}
	.st22{fill:#B50B0B;}
	.st23{fill:#FFFFFF;}
	.st24{fill:#F1F1F1;}
	.st25{fill:#E0B4A9;}
	.st26{fill:#262626;}
	.st27{fill:#989898;}
	.st28{fill:none;stroke:#C10808;stroke-width:3;stroke-miterlimit:10;}
	.st29{fill:#D2D2D2;}
	.st30{fill:#C8A19A;}
	.st31{fill:#6AA6D4;}
	.st32{fill:#452D1C;}
	.st33{fill:none;}
	.st34{clip-path:url(#SVGID_4_);}
	.st35{fill:#8B2221;}
	.st36{fill:none;stroke:#91271E;stroke-width:2.6226;stroke-miterlimit:10;}
	.st37{fill:#A42A2C;}
	.st38{display:none;opacity:0.64;}
	.st39{fill:#000A47;}
	.st40{fill:#F9C89B;}
	.st41{fill:#492100;}
	.st42{fill:none;stroke:#FFFFFF;stroke-width:4.2064;stroke-miterlimit:10;}
	.st43{fill:#424242;}
	.st44{fill:#1C1C1C;}
	.st45{fill:none;stroke:#FFFFFF;stroke-width:2.6453;stroke-miterlimit:10;}
	.st46{fill:#303030;}
	.st47{fill:#D34452;}
	.st48{fill:none;stroke:#6B6B6B;stroke-width:2.3772;stroke-linecap:round;stroke-linejoin:round;}
	.st49{fill:none;stroke:#6B6B6B;stroke-width:0.8717;stroke-linecap:square;stroke-linejoin:round;}
	.st50{fill:none;stroke:#6B6B6B;stroke-width:3.0974;stroke-linecap:round;stroke-linejoin:round;}
	.st51{fill:none;stroke:#6B6B6B;stroke-width:1.1357;stroke-linecap:square;stroke-linejoin:round;}
	.st52{fill:#EF8B33;}
	.st53{fill:none;stroke:#6B6B6B;stroke-width:2.8174;stroke-linecap:round;stroke-linejoin:round;}
	.st54{fill:none;stroke:#6B6B6B;stroke-width:1.0331;stroke-linecap:square;stroke-linejoin:round;}
	.st55{fill:#8632AD;}
	.st56{fill:#3B9322;}
	.st57{fill:#38A396;}
	.st58{font-family:'Montserrat-Regular';}
	.st59{font-size:20.3556px;}
</style>
<g id="Layer_2_1_" class="st0">
	<g class="st1">
		<path class="st2" d="M596.4-694.4c0,0-39.6-143.8-104.3-196.8s-135.9-116.2-235-136.6c-99.1-20.4-183.1-51.3-312.4-5.4
			c-129.3,45.9-110,38-110,38l-17.7-24.4l103.8-52.3L48.1-1085l149.4,13.5l120.7,23.4l98.9,53l84.6,60.6l77.4,78.6l41.5,98.2
			l13.7,59.7L596.4-694.4z"/>
		<path class="st3" d="M644-693.6l-22.7,0.8c0,0-19.8-117.8-77.3-176.7c-57.4-58.9-178.6-166.2-297.5-185.2s-253.7-36.8-332.9-1.8
			s-86.3,38.6-86.3,38.6l-15.7-29.5l87.6-38.6l147.3-22.9l139.5,7.6l162.3,49.3l151.2,80.6l86.7,91.4L644-775.5l18.8,81.6L644-693.6
			"/>
		<path class="st4" d="M689.4-700l-42.8,0.7c0,0-25.5-138.2-89.3-198.4c-63.8-60.2-159-145-317-184.1c-158-39.1-312.7-17.7-372,11.5
			c-59.3,29.2-46.7,25.7-46.7,25.7l-5.8-49.4l158.4-48.8l202.8,10.5l166,43.5l123.9,61.8l118.4,76.5l54,72.1l50.8,106.9L689.4-700z"
			/>
		<path class="st5" d="M727.4-701.7l-38.1,1.7c0,0-44-202.4-181-283.4S296-1113.6,129.9-1127.7s-250.1,17.9-310.6,46.5l-3.9-54
			l251-40.4l194.8,25.6l171.1,65.2L552-1013l82.2,77l86.1,125.9l38,106.1L727.4-701.7z"/>
		<path class="st6" d="M-49.5-1184.2c0,0,188.3-32.9,386.6,42.5s319.6,199.3,373.1,295.5c53.5,96.1,66.7,140.7,66.7,140.7l-47,4.1
			c0,0-36.6-202.5-190.6-297.3s-342-195.3-599.7-153.2l-123.7,32.1l-1.6-35.8L-49.5-1184.2z"/>
	</g>
</g>
<g id="Layer_3_1_">
	<path class="st7" d="M3779.4-1250.1H2518.8v822.2h1260.6V-1250.1z"/>
	<path class="st8" d="M1257.7-1250.1H-2.9v822.2h1260.6V-1250.1z"/>
</g>
<g id="Layer_4_1_">
	<g>
		<path class="st9" d="M578.6-681.6c0-0.3,0.1-0.7,0.1-1c2.4-1.8,4.9-1.6,7.5-0.5c0.5,0.4,0.7,0.9,0.3,1.5
			C583.9-681.6,581.2-681.6,578.6-681.6z"/>
		<path class="st10" d="M586.6-681.6c0-0.3,0-0.6,0-0.9c2.4-2,5-1.6,7.6-0.6c0.6,0.4,0.7,0.9,0.4,1.5
			C591.9-681.6,589.2-681.6,586.6-681.6z"/>
		<path class="st11" d="M594.6-681.6c0-0.3,0-0.6,0.1-0.9c2.3-2,4.7-2,7,0.1c0,0.3,0,0.5-0.1,0.8
			C599.2-681.6,596.9-681.6,594.6-681.6z"/>
		<path class="st12" d="M601.6-682.4c-2.3,0-4.7,0-7-0.1c-2.7,0-5.3,0-8-0.1c-2.6,0-5.3-0.1-7.9-0.1c-0.4-1-0.7-2-1.1-3
			c-3.2-6.2-3.5-13.1-5.2-19.6c-4.7-17.9-10.2-35.5-16.9-52.6c-5.3-13.6-11.1-27-18-39.9c-10.5-19.5-22.1-38.4-38.1-53.9
			c-14.1-13.6-28.5-26.9-43.6-39.5c-10.5-8.7-21-17.4-31.6-25.9c-8.8-7.1-18-13.7-27.1-20.4c-23.6-17.1-48-33-73.3-47.4
			c-29-16.5-59-30.6-90.6-41.5c-28.8-10-58.6-15.1-88.6-19.2c-31-4.3-62-8.4-93.1-11.6c-18.5-1.8-37.1-3.3-55.7-4.4
			c-22.6-1.3-45.2-2.3-67.8-1.7c-34.3,0.9-68.4,4.2-101.5,14.3c-14.8,4.5-28.9,11-43.3,16.8c-21,8.5-41.9,17-62.8,25.7
			c-5,2.1-6.5,1-7.9-5.2c-3-7.2-7.5-13.7-11.6-20.3c-0.9-1.4-2.3-3-0.5-4.8c2.9-1,5.8-2.1,8.7-3.1c1.8,2.7,3.9,2.6,6.7,1.2
			c13.6-6.9,27.6-13.3,41.5-19.7c18.7-8.6,38.3-14.2,58.3-18.7c29-6.5,58.3-10.1,87.8-12.8c34.5-3.1,69.2-3.2,103.7-1.9
			c56.6,2,112.7,9.5,167.8,22.8c36.5,8.8,72.1,20.2,106.7,34.6c27.2,11.3,53.8,24,79.4,38.5c18.9,10.7,37.4,22.3,55.3,34.7
			c15.2,10.5,30,21.5,44.6,32.8c13.6,10.6,26.9,21.7,39.9,33.1c7.3,6.3,14.9,12.3,21.3,19.5c11.2,12.4,21,25.7,29.6,40
			c10.9,18.2,19.8,37.2,27.8,56.8c10.8,26.3,19.6,53.3,25.6,81.1c1.6,7.3,2.6,8,10,8.1c2.7,0.1,5.7-0.9,8.1,1.4
			c0.9,5.7,0.9,5.7-5.1,5.8C612.8-682.7,607.2-682.5,601.6-682.4z"/>
		<path class="st13" d="M-287.5-1011.7c3.7,5.7,3.6,5.5,10.6,2.7c24.2-10,48.7-19.5,72.8-29.9c22.1-9.4,44.8-16.6,68.5-20.2
			c13.1-2,26.3-3.4,39.5-4.4c19.9-1.5,39.9-1.7,59.8-1c23.7,0.9,47.4,2.3,71,4.5c22.6,2.1,45.2,4.7,67.7,7.4
			c22.5,2.8,44.9,6.5,67.4,9.5c34.6,4.7,67.5,15.5,99.4,29.4c21.2,9.2,41.6,19.7,61.5,31.4c17.1,10.1,33.9,20.7,50.2,32
			c21.2,14.7,41.9,30.2,61.8,46.6c17,14,33.5,28.6,49.7,43.5c14.6,13.5,26.6,28.7,36.8,45.8c9.6,16.1,17.4,32.9,24.8,50.1
			c5.4,12.5,8.5,25.8,13.4,38.3c4.8,12.1,6.8,24.8,9.9,37.3c0.2,0.9,0.1,2,0.2,3c-7.1,0.7-14.2,1.2-21.3,2.1
			c-3.2,0.4-4.8-0.6-5.6-3.8c-4.4-16.9-11.4-32.8-17.8-48.9c-4-9.9-7.8-20-12.7-29.6c-7.6-15-15.3-30-23.8-44.6
			c-7.5-12.8-15.6-25.4-25.1-36.9c-11.9-14.2-24.8-27.3-40.2-38c-16-11.2-30.9-24-46.8-35.3c-22.4-15.9-45.1-31.4-69-45.1
			c-32.5-18.7-66.6-33.6-102.8-43.5c-25.3-6.9-51.3-10.7-76.9-16.3c-23.8-5.1-47.8-9.8-71.9-13.4c-20.7-3.1-41.5-5.2-62.4-5.9
			c-43.8-1.5-86.8,3.9-129,15.2c-21.3,5.7-42.1,13.1-63.1,19.8c-27.2,8.7-54.4,17.3-81.6,25.9c-2.3,0.7-3.6,0.6-5.2-1.7
			c-4.3-6.1-8.9-11.9-13.8-17.5c-3.1-3.6-2.7-5.8,1.8-7.2C-288.8-1010.7-288.2-1011.3-287.5-1011.7z"/>
		<path class="st14" d="M-296.2-1107.7c-0.3-1-0.8-1.9-0.8-2.9c-0.5-10-0.9-19.9-1.4-29.9c-0.1-2.3,0.4-3.5,3.1-4
			c44.7-8.5,89.4-17.3,134.1-25.8c28.8-5.5,58-7.2,87.3-8.4c22.1-1,44.2-1.1,66.4-0.4c39.2,1.2,78.3,4.5,117.2,10.2
			c39,5.7,77.5,13.8,115.3,24.5c23.1,6.5,45.9,14.3,68.4,22.7c26.9,10,53.2,21.3,79.2,33.5c14.8,7,29.4,14.6,43.8,22.4
			c22.9,12.3,45,25.9,66.8,40c11,7.1,21.3,15.2,32,22.7c14.5,10.2,27.9,21.7,41.8,32.6c4.9,3.9,9.5,8.2,14.1,12.5
			c10.9,10.1,21.9,20.2,32.2,30.9c13,13.6,25.7,27.4,37.5,42.2c8.3,10.5,16.3,21.1,23.9,32.2c9,13.2,17,27,25.1,40.8
			c8.7,14.9,17.2,30,25.3,45.3c9,16.9,17.6,33.9,25.2,51.5c2.4,5.6,4.9,11.1,7.2,16.7c1,2.4,1,3.9-2.2,4.1
			c-15.9,0.9-31.7,3.2-47.7,3.4c-2.3-1.2-2.3-3.5-2.9-5.5c-5.3-18.7-10-37.5-17.6-55.5c-2.1-4.9-3.5-10.1-5.6-15
			c-5.9-13.9-12.3-27.5-19-41.1c-6.4-13-13.6-25.6-21.1-37.9c-12-19.7-26-38.1-40.8-55.9c-13.6-16.3-29-30.7-44.7-44.7
			c-15.7-13.9-32.9-25.9-51.1-36.4c-22.7-13.2-45.8-25.7-69-38.1c-14.5-7.8-29.3-15-44-22.4c-26.4-13.1-53.2-25.3-80.4-36.4
			c-22.6-9.3-45.6-17.8-68.8-25.5c-36.6-11.7-73.4-21.2-110.9-28.4c-24.7-4.8-49.6-8.1-74.6-10.6c-32-3.2-64-4.4-96.1-3.8
			c-20.5,0.4-40.9,1.8-61.2,3.6c-16.9,1.6-33.8,3.4-50.5,6.2c-13.3,2.2-26.3,6-39.4,9.1c-30,7.1-59.9,14.3-89.9,21.3
			C-292-1107.4-294.1-1106.2-296.2-1107.7z"/>
		<path class="st15" d="M-296.2-1107.7c38-9,76.2-17.5,114-27.2c21.3-5.4,42.9-8.2,64.6-10.4c17-1.8,34-2.6,51.1-3.5
			c19-1,37.9-1,56.8-0.5c18.5,0.5,37,1.7,55.5,3.5c31.3,3,62.4,7.7,93.2,14.2c26.5,5.5,52.6,12.4,78.4,20.3
			c27.4,8.4,54.4,18.1,80.9,29c19.5,8,38.8,16.4,57.8,25.5c17.8,8.4,35.5,17.1,53.2,25.9c10.8,5.4,21.3,11.4,32,17.1
			c13.8,7.5,27.8,14.7,41.4,22.6c10.7,6.2,21.5,12.5,31.8,19.5c18.8,12.8,36.1,27.4,52.4,43.2c7.6,7.4,14.9,15,21.8,23
			c12.3,14.1,23.9,28.7,34,44.3c11.1,17,21.8,34.2,30.6,52.7c3.9,8.2,7.2,16.7,11.7,24.6c5.6,9.9,8.1,21,12.9,31.1
			c5.7,11.9,7.9,24.9,12.5,37c3.1,8.2,4.4,16.9,7,25.2c-13.5,0.6-27,1.2-40.5,1.7c-1.5,0.1-2.9-0.3-4.4-0.5
			c-2.8-3.7-3.3-8.3-4.4-12.6c-4.6-17.9-11.4-35.1-18-52.3c-6.3-16.2-13.7-32.1-21.8-47.5c-11.4-21.6-23.2-43-37.6-62.7
			c-13.7-18.8-28.3-36.6-44.7-53c-24.3-24.4-52.1-43.7-82.5-59.7c-19.3-10.1-38.2-20.9-57.5-31.1c-29.7-15.8-59.5-31.2-90.2-44.8
			c-20.2-9-40.8-17.3-61.7-24.5c-45.7-15.9-92.9-25.9-140.9-31.7c-22.4-2.7-45-4.5-67.5-6.2c-32.6-2.4-65.2-2.5-97.8-1.5
			c-40.8,1.3-81.2,6-121,15.5c-31.8,7.6-62.7,17.9-92.7,30.8c-1.4,0.6-2.7,1.2-4.3,1.4c-1.2,0.2-2.9,0-2.9-1.2
			c0-4.2-3.4-8.2-0.7-12.5c-0.3-5.9-0.7-11.8-1-17.7c-1.5-1.8-0.2-4.4-1.7-6.3C-296.4-1107.1-296.3-1107.4-296.2-1107.7z"/>
		<path class="st16" d="M-293.7-1082.9c0.4,2.6,0.7,5.2,1.1,7.9c0.8,5.7,0.8,5.6,5.9,3.4c36.7-16.2,74.8-28,114.1-35.7
			c20.6-4,41.5-6.4,62.4-8.5c36.3-3.6,72.7-3.3,109.1-2.5c21.5,0.5,43,2.4,64.4,4.4c29.7,2.8,59.2,6.7,88.4,12.5
			c18.3,3.7,36.5,8.2,54.5,13.4c27.1,7.9,53.6,17.5,79.4,28.7c24.1,10.4,47.7,21.9,71,34c18.8,9.8,37.5,19.7,56.2,29.8
			c19.5,10.6,39.1,21,58.3,32.2c11.7,6.8,22.4,15.2,33,23.7c10.1,8.1,19.4,17.1,28.4,26.2c6.8,6.9,13.1,14.4,19.4,21.9
			c10.8,12.9,20.3,26.9,30,40.6c4.8,6.7,9.1,13.9,12.9,21.2c7.4,14.1,15.5,27.8,22.1,42.3c3.8,8.4,7.1,17.1,11.2,25.3
			c5.8,11.5,8.7,23.9,13.6,35.6c5,12,7.9,24.4,10.9,36.9c-9.6,1.7-19.3,0.3-29,1c-3.3,0-6.7,0-10,0c-6.9,0-7.5-0.3-8.9-6.9
			c-2.6-12-5.3-24-9-35.7c-4.4-13.7-8.6-27.5-13.9-40.8c-7.1-17.6-14.6-35.1-23.9-51.7c-13.1-23.5-28.2-45.7-48.8-63.3
			c-13.8-11.8-27.7-23.6-42-34.9c-13.9-11-27.9-21.9-42.3-32.2c-22.8-16.2-46.5-31-71-44.6c-21.7-12-43.9-22.8-66.7-32.4
			c-31.9-13.4-64.6-24.4-98.1-33.1c-26.7-6.9-53.6-12.5-80.9-16.5c-25.1-3.8-50.3-6.4-75.6-8.3c-32.6-2.4-65.2-2.5-97.7-1.4
			c-30.6,1.1-61.1,4.3-91.4,9.5c-23.6,4-46.9,9-69.4,17.2c-17.1,6.3-33.5,14.5-49.9,22.5c-3,1.5-6,2.8-9,4.3c-5.4,2.8-5.3,2.9-5.9-3
			c-1.3-10.3-2.5-20.7-3.7-31c-0.2-2-0.8-3.7-1.4-5.6C-296.7-1078.7-298.5-1082.3-293.7-1082.9z"/>
		<path class="st17" d="M-296.4-1106.9c3,1.4,1.4,4.1,1.7,6.3C-298-1102-296.1-1104.7-296.4-1106.9z"/>
	</g>
	
		<image style="overflow:visible;opacity:0.95;enable-background:new    ;" width="966" height="499" xlink:href="../../../../Creative Cloud Files/1x/Asset 1.png"  transform="matrix(1.3102 0 0 1.1315 2308.9551 -1255.6368)">
	</image>
</g>
<g id="Layer_1_2_">
	<g id="jT0KsP_2_" class="st18">
		
			<image style="display:inline;overflow:visible;enable-background:new    ;" width="920" height="560" id="jT0KsP_3_" xlink:href="1E4492A53315FF3A.jpg"  transform="matrix(1.7531 0.5656 -0.3816 1.1828 -480.2473 -1465.2737)">
		</image>
	</g>
	<g>
		<g>
			<defs>
				<rect id="SVGID_1_" x="2563.3" y="-1316.8" width="1204.3" height="731.8"/>
			</defs>
			<clipPath id="SVGID_2_">
				<use xlink:href="#SVGID_1_"  style="overflow:visible;"/>
			</clipPath>
			<g class="st19">
				<path class="st20" d="M2665.8-699.9c0,0,39.1,26.2,87.6,4.7l241-6.6l-26.8-36.6l-115.5-5l-98.8,13.3L2665.8-699.9z"/>
				<path class="st21" d="M2853.8-859.8v11.7l282.9,11.7l-6.7,136.3l6.7,5l184.1,3.3l12.5-143.5l-0.8-21.1c0,0-403.4-8.3-420.1-8.3
					C2895.7-864.8,2853.8-859.8,2853.8-859.8z"/>
				<path class="st22" d="M3407.9-874.8c0,0-51.9,10-87,10h-26.8l-3.3,19.9l35.1,18.3l78-6.8l9-46.4L3407.9-874.8z"/>
				<path class="st20" d="M2902.4-613.8c40.7,0,73.6-32.8,73.6-73.1c0-40.4-33-73.1-73.6-73.1c-40.7,0-73.7,32.7-73.7,73.1
					C2828.7-646.5,2861.7-613.8,2902.4-613.8z"/>
				<path class="st23" d="M2902.4-627.1c33.3,0,60.3-26.8,60.3-59.8c0-33.1-27-59.8-60.3-59.8s-60.3,26.8-60.3,59.8
					C2842.1-653.9,2869.1-627.1,2902.4-627.1z"/>
				<path class="st24" d="M3477.4-852.7c0,0-173.2,24.5-183.3,17.8c0,0-10,1.7-3.3,34.9s16,126.1,16,126.1s5.7,1.9,12.4,3.5
					c6.7,1.7,6.7,0,6.7,0l1.6,13.3L3438-697l45.2,13.3l10-181.2L3477.4-852.7z"/>
				<path class="st24" d="M2581-856.5c0,0-20.1,1.7-20.1,5s8.4,5,13.4,5c0,0-18.4,48.2-15.1,76.5l28.4,1.7c0,0-6.7,43.2-5,48.2
					c1.2,3.3,3.2,6.3,5.8,8.6c2.6,2.3,5.8,3.9,9.3,4.7c8.4,1.7,16.7,5,60.3,6.6c43.5,1.7,95.4,5,95.4,5s63.6-34.9,120.5-39.9
					c56.9-4.9,93.7,5,100.4,15s10.1,43.2,10.1,43.2l323.1,6.6l-5-24.9l-162.4-3.3c0,0-6.7-3.3-6.7-10s3.3-128,3.3-128l-257.8-8.3
					c0,0-23.4-1.7-23.4-8.3v-6.7h-170.8c0,0-11.7-1.7-15.1,3.3c-3.4,5-33.5,1.7-33.5,1.7s-10-18.3-23.4-18.3
					C2599.4-873.1,2589.4-871.4,2581-856.5z"/>
				<path class="st25" d="M3068.1-904.7c0,0,6.7,15,8.4,20s45.2,49.9,45.2,49.9s1.7,5,3.3,6.6c1.7,1.7,11.7,10,13.4,10
					s11.7-1.7,10-8.3c-1.7-6.7-18.4-11.7-21.8-18.3c-3.4-6.6-33.5-51.5-33.5-54.9c0-3.4-6.7-24.9-6.7-24.9L3068.1-904.7z"/>
				<path class="st25" d="M2879-844.9c0,0-1.7,5,0,5s10-3.3,13.4-3.3s10,0,8.4,1.7c-1.7,1.7-10,6.6-8.4,8.3c1.7,1.7,5,3.3,15.1-3.3
					l15.1-10c5-3.3,40.2-28.3,46.9-36.6c6.7-8.3,15.1-20,15.1-20l-11.7-18.3c-7.3,9.8-15.2,19.2-23.4,28.3
					c-15.1,16.6-33.5,41.5-33.5,41.5S2885.7-851.5,2879-844.9z"/>
				<path class="st20" d="M3002.8-607.1c0,0,1.7,3.3,11.7,1.7s15.1-5,15.1-5l-6.7-39.8h-6.7l-3.3,3.3c0,0,0,28.3-5,31.6
					c-1.4,0.9-2.6,2.1-3.5,3.5C3003.5-610.4,3003-608.8,3002.8-607.1z"/>
				<path class="st26" d="M3057-610.5c1.5,5-29,6.4-30.2,5c-0.5-1.2-0.9-2.4-1.2-3.7c-0.3-1-0.5-2-0.8-3.2c-3.1-12.6-8.6-38-8.6-38
					l21.1-10c0,0,9.1,24.9,9.1,29.9"/>
				<path class="st23" d="M3016.2-662v11.7c0,0,22.4-5,22.4-6.6c0-1.6-1.6-8.3-1.6-8.3L3016.2-662z"/>
				<path class="st27" d="M2902.4-642.1c8.9-0.1,17.5-2.7,24.9-7.7c7.3-5,13-12,16.4-20.2c3.3-8.2,4.2-17.2,2.4-25.9
					s-6.1-16.7-12.4-22.9c-6.3-6.2-14.3-10.5-23-12.2s-17.7-0.8-25.9,2.6c-8.2,3.4-15.2,9.2-20.1,16.5c-4.9,7.4-7.5,16-7.5,24.9
					c0,5.9,1.2,11.8,3.5,17.2c2.3,5.5,5.6,10.4,9.8,14.6s9.2,7.5,14.6,9.7C2890.6-643.2,2896.5-642,2902.4-642.1z"/>
				<path class="st28" d="M2902.8-641.6c9.1-0.1,18-2.8,25.5-7.9c7.5-5.1,13.4-12.3,16.8-20.8c3.4-8.4,4.3-17.7,2.5-26.6
					c-1.8-8.9-6.2-17.1-12.7-23.5c-6.5-6.4-14.7-10.8-23.6-12.5s-18.2-0.8-26.6,2.7c-8.4,3.5-15.6,9.4-20.6,17
					c-5.1,7.6-7.8,16.5-7.8,25.6c0,12.3,5,24,13.7,32.7C2878.7-646.4,2890.5-641.6,2902.8-641.6L2902.8-641.6z"/>
				<path class="st29" d="M2903.8-669.3c3.9,0,7.8-1.2,11-3.4c3.3-2.2,5.8-5.3,7.3-9c1.5-3.6,1.9-7.7,1.1-11.5
					c-0.8-3.9-2.7-7.4-5.5-10.2s-6.4-4.7-10.2-5.4c-3.9-0.8-7.9-0.4-11.5,1.2c-3.6,1.5-6.7,4.1-8.9,7.4s-3.4,7.1-3.4,11.1
					c0,2.6,0.5,5.2,1.6,7.7c1,2.4,2.5,4.6,4.4,6.5c1.9,1.9,4.1,3.3,6.5,4.3C2898.6-669.8,2901.2-669.3,2903.8-669.3z"/>
				<path class="st20" d="M2577.7-793.3v18.3l549,13.3v-21.6L2577.7-793.3z"/>
				<path class="st21" d="M2579.3-786.7v8.3l549,10l-3.3-8.3L2579.3-786.7z"/>
				<path class="st25" d="M3036.3-667c0,0,6.7-3.3,10-26.6s8.4-63.2,11.7-69.8c3.3-6.6-26.8-8.3-26.8-8.3L3036.3-667z"/>
				<path class="st30" d="M3029.6-768.4c0,0,5,19.9,5,31.6v46.5c0,0,8.4-41.6,6.7-48.2c-1.7-6.6-3.3-29.9-3.3-29.9H3029.6z"/>
				<path class="st31" d="M2999.5-952.9c0,0-10,1.7-13.4,5s-16.7,28.3-16.7,28.3s11.7,15,16.7,15h5c0,0,5,13.3,0,33.3
					c-5,19.9-26.8,81.5-25.1,94.8l1.7,13.3c0,0,20.1,1.7,31.8-3.3c11.2-4.7,23.6-5.2,35.1-1.7c10,3.3,18.4,6.6,25.1,5
					c5-1.1,10-1.7,15.1-1.6c1.7,0,3.4-8.3,6.7-10s10,0,10-6.6c0-6.6-1.7-28.3-15.1-56.5c-13.4-28.3-21.8-38.2-18.4-48.2
					c3.4-10,5-16.6,5-16.6h5c0,0,21.8-13.3,21.8-21.6c0-8.3-11.7-26.7-15.1-28.3c-3.3-1.7-11.8-1.6-11.8-1.6l-6.7,6.6l-16.7-1.4
					L2999.5-952.9z"/>
				<path class="st32" d="M3026.2-1029.4c-3.2,0.9-20.1,6.6-23.4,26.6c-3.3,20-5,58.2-6.7,59.9l-1.7,1.7c0,0,13.4-1.7,18.4-3.3
					c5-1.7,23.4-3.3,26.8-1.7c3.3,1.7,25.1,1.7,26.8-10c1.7-11.6-3.3-43.2-6.7-48.2C3056.3-1009.4,3044.7-1034.4,3026.2-1029.4z"/>
				<path class="st25" d="M3022.9-913c0,0,13.4-31.6,15.1-33.3l1.7-1.7v-18.3c2.3-6.4,3.4-13.2,3.3-20c0-11.7-8.4-23.3-11.7-23.3
					s-10-1.7-13.4,5c-3.4,6.6-6.7,23.3-5,26.6c1.7,3.3,10,11.7,10,11.7v15c0,0-8.3,1.7-8.3,3.3
					C3014.6-946.3,3016.2-926.3,3022.9-913z"/>
				<path class="st20" d="M3320.9-931.3c0,0-36.8,3.3-38.5,15c-1.7,11.6,0,16.6,0,16.6s6.7,0,5,10c-1.7,10-5,34.9-5,34.9l18.4-1.7
					c0,0,5-44.9,3.3-46.5c-1.7-1.7-10-8.3-5-11.7c3.1-2.1,6.5-3.7,10-5L3320.9-931.3z"/>
				<path class="st21" d="M3330.8-834.2c0,0,3.5-54.6,1.8-57.9s-16.7-15-18.4-16.6c-1.7-1.7-6.7-9.3-6.7-9.3l13.4-13.9
					c0,0,6.7-3.3,26.8,11.7s59.9,42.6,59.9,42.6l-0.4,4l-14.3,1.6l-25.1-24.9l9.4,58.2h-9.4c0,0-1.7-56.5-10-64.8
					c-8.4-8.3-23.4-15-21.8-11.7c1.7,3.3,10,11.7,11.7,23.3c1.6,11.6,1.7,44.9,1.7,44.9l9.4,10.3L3330.8-834.2z"/>
				<path class="st25" d="M3037.6-668.1c-1.1-9-4.4-37.1-3-45.4c1.7-10,3.3-24.9,1.7-31.6c-1.7-6.6-5-24.9-5-24.9l-21.8-5l-15.1,5
					l1.7,5c0,0,10,20,11.7,29.9c1.7,10,1.7,49.9,3.3,54.9c1.7,5,5,18.3,5,18.3l20.8-3.2c-0.1-0.5-0.1-1,0-1.5
					C3037.1-667.2,3037.3-667.7,3037.6-668.1z"/>
				<path class="st26" d="M3053.1-595.1c-6.6,1.3-14.6,1.3-21.2-5.3l-6.7-6.6l29.2-6.6c0,0,6.6,6.6,7.9,9.2
					C3063.7-601.6,3053.1-595.1,3053.1-595.1z"/>
				<rect x="3470.2" y="-1164.2" class="st33" width="20.1" height="20.1"/>
			</g>
		</g>
	</g>
	<g>
		<g>
			<defs>
				<rect id="SVGID_3_" x="-1.8" y="-1156.5" width="1152" height="700"/>
			</defs>
			<clipPath id="SVGID_4_">
				<use xlink:href="#SVGID_3_"  style="overflow:visible;"/>
			</clipPath>
			<g class="st34">
				<path class="st20" d="M96.3-566.4c0,0,37.4,25.1,83.8,4.5l230.6-6.4l-25.6-35l-110.5-4.8l-94.5,12.7L96.3-566.4z"/>
				<path class="st35" d="M276.1-719.4v11.2L546.7-697l-6.4,130.4l6.4,4.8l176.1,3.2l12-137.3l-0.7-20.2c0,0-385.8-8-401.9-8
					C316.1-724.2,276.1-719.4,276.1-719.4z"/>
				<path class="st35" d="M806.1-733.7c0,0-49.6,9.5-83.3,9.5h-25.6l-3.2,19.1l33.6,17.5l74.6-6.5l8.6-44.3L806.1-733.7z"/>
				<path class="st20" d="M322.6-484.1c38.9,0,70.4-31.3,70.4-70c0-38.6-31.5-70-70.4-70s-70.5,31.3-70.5,70
					C252.1-515.4,283.7-484.1,322.6-484.1z"/>
				<path class="st23" d="M322.6-496.8c31.8,0,57.6-25.6,57.6-57.2c0-31.6-25.8-57.2-57.6-57.2S265-585.6,265-554
					C264.9-522.4,290.7-496.8,322.6-496.8z"/>
				<path class="st24" d="M872.6-712.6c0,0-165.7,23.5-175.3,17.1c0,0-9.6,1.6-3.2,33.4c6.4,31.8,15.3,120.6,15.3,120.6
					s5.5,1.8,11.9,3.4c6.4,1.6,6.4,0,6.4,0l1.6,12.7L835-563.6l43.2,12.7l9.6-173.3L872.6-712.6z"/>
				<path class="st24" d="M15.2-716.2c0,0-19.2,1.6-19.2,4.8c0,3.2,8,4.8,12.8,4.8c0,0-17.6,46.1-14.4,73.2l27.2,1.6
					c0,0-6.4,41.3-4.8,46.1c1.1,3.2,3,6,5.5,8.2s5.6,3.8,8.9,4.5c8,1.6,16,4.8,57.6,6.4c41.6,1.6,91.3,4.8,91.3,4.8
					s60.9-33.4,115.3-38.1c54.4-4.7,89.7,4.8,96.1,14.3s9.6,41.3,9.6,41.3l309,6.4l-4.8-23.8L550-565.2c0,0-6.4-3.2-6.4-9.5
					c0-6.4,3.2-122.5,3.2-122.5l-246.6-7.9c0,0-22.4-1.6-22.4-7.9v-6.4H114.4c0,0-11.2-1.6-14.4,3.2c-3.3,4.8-32,1.6-32,1.6
					s-9.6-17.5-22.4-17.5S23.2-730.5,15.2-716.2z"/>
				<path class="st25" d="M481.1-762.4c0,0,6.4,14.3,8,19.1s43.2,47.7,43.2,47.7s1.6,4.8,3.2,6.4c1.6,1.6,11.2,9.5,12.8,9.5
					s11.2-1.6,9.6-8c-1.6-6.4-17.6-11.2-20.8-17.5s-32-49.3-32-52.5s-6.4-23.8-6.4-23.8L481.1-762.4z"/>
				<path class="st25" d="M300.2-705.1c0,0-1.6,4.8,0,4.8s9.6-3.2,12.8-3.2c3.2,0,9.6,0,8,1.6c-1.6,1.6-9.6,6.4-8,7.9
					s4.8,3.2,14.4-3.2l14.4-9.5c4.8-3.2,38.4-27,44.8-35c6.4-7.9,14.4-19.1,14.4-19.1l-11.2-17.5c-7,9.4-14.5,18.4-22.4,27
					c-14.4,15.9-32,39.7-32,39.7S306.6-711.5,300.2-705.1z"/>
				<path class="st20" d="M418.7-477.7c0,0,1.6,3.2,11.2,1.6c9.6-1.6,14.4-4.8,14.4-4.8l-6.4-38.1h-6.4l-3.2,3.2c0,0,0,27-4.8,30.2
					c-1.4,0.8-2.5,2-3.4,3.4C419.3-480.9,418.8-479.3,418.7-477.7z"/>
				<path class="st26" d="M470.5-480.9c1.4,4.8-27.8,6.1-28.9,4.8c-0.5-1.1-0.9-2.3-1.1-3.5c-0.2-0.9-0.5-1.9-0.8-3.1
					c-3-12.1-8.2-36.3-8.2-36.3l20.2-9.5c0,0,8.7,23.9,8.7,28.6"/>
				<path class="st23" d="M431.5-530.2v11.2c0,0,21.4-4.8,21.4-6.4c0-1.6-1.5-8-1.5-8L431.5-530.2z"/>
				<path class="st27" d="M322.6-511.1c8.5-0.1,16.8-2.6,23.8-7.4c7-4.8,12.5-11.5,15.7-19.3c3.2-7.9,4-16.5,2.3-24.8
					s-5.8-15.9-11.8-21.9s-13.7-10-22-11.7c-8.3-1.6-16.9-0.8-24.8,2.5c-7.8,3.3-14.5,8.8-19.2,15.8c-4.7,7.1-7.2,15.3-7.2,23.8
					c0,5.7,1.2,11.3,3.3,16.5c2.2,5.2,5.4,10,9.4,13.9c4,4,8.8,7.1,14,9.3S316.9-511.1,322.6-511.1z"/>
				<path class="st36" d="M323-510.7c8.7-0.1,17.2-2.7,24.4-7.6s12.8-11.8,16.1-19.9c3.3-8.1,4.1-16.9,2.4-25.5
					c-1.7-8.5-6-16.4-12.1-22.5c-6.2-6.1-14-10.3-22.6-12s-17.4-0.8-25.5,2.6c-8,3.3-14.9,9-19.8,16.3c-4.8,7.2-7.4,15.8-7.4,24.5
					c0,11.7,4.7,23,13.1,31.3C299.9-515.3,311.2-510.7,323-510.7L323-510.7z"/>
				<path class="st29" d="M324-537.2c3.8,0,7.4-1.2,10.6-3.3c3.1-2.1,5.5-5.1,7-8.6c1.4-3.5,1.8-7.3,1-11s-2.6-7.1-5.3-9.7
					c-2.7-2.7-6.1-4.5-9.8-5.2c-3.7-0.7-7.5-0.3-11,1.1c-3.5,1.4-6.5,3.9-8.5,7c-2.1,3.1-3.2,6.8-3.2,10.6c0,2.5,0.5,5,1.5,7.3
					s2.4,4.4,4.2,6.2c1.8,1.8,3.9,3.2,6.2,4.1C319-537.7,321.5-537.2,324-537.2z"/>
				<path class="st20" d="M11.9-655.8v17.5l525.2,12.7v-20.7L11.9-655.8z"/>
				<path class="st35" d="M13.6-649.4v7.9l525.2,9.5l-3.2-7.9L13.6-649.4z"/>
				<path class="st25" d="M450.7-535c0,0,6.4-3.2,9.6-25.4c3.2-22.3,8-60.4,11.2-66.8c3.2-6.4-25.6-8-25.6-8L450.7-535z"/>
				<path class="st30" d="M444.3-632c0,0,4.8,19.1,4.8,30.2v44.5c0,0,8-39.8,6.4-46.1c-1.6-6.4-3.2-28.6-3.2-28.6L444.3-632
					L444.3-632z"/>
				<path class="st31" d="M415.5-808.5c0,0-9.6,1.6-12.8,4.8c-3.2,3.2-16,27-16,27s11.2,14.3,16,14.3h4.8c0,0,4.8,12.7,0,31.8
					c-4.8,19.1-25.6,77.9-24,90.7l1.6,12.7c0,0,19.2,1.6,30.4-3.2c10.7-4.4,22.6-5,33.6-1.6c9.6,3.2,17.6,6.4,24,4.8
					c4.7-1.1,9.6-1.6,14.5-1.6c1.6,0,3.2-7.9,6.4-9.5c3.2-1.6,9.6,0,9.6-6.4c0-6.4-1.6-27-14.4-54.1c-12.8-27-20.8-36.6-17.6-46.1
					c3.2-9.5,4.8-15.9,4.8-15.9h4.8c0,0,20.8-12.7,20.8-20.7c0-7.9-11.2-25.5-14.4-27.1c-3.2-1.6-11.2-1.6-11.2-1.6l-6.4,6.3
					l-16-1.3L415.5-808.5z"/>
				<path class="st32" d="M441-881.6c-3.1,0.8-19.2,6.4-22.4,25.4c-3.2,19.1-4.8,55.7-6.4,57.3l-1.6,1.6c0,0,12.8-1.6,17.6-3.2
					c4.8-1.6,22.4-3.2,25.6-1.6c3.2,1.6,24,1.6,25.6-9.5c1.6-11.1-3.2-41.3-6.4-46.1C469.9-862.5,458.7-886.4,441-881.6z"/>
				<path class="st25" d="M437.9-770.3c0,0,12.8-30.2,14.4-31.8l1.6-1.6v-17.5c2.2-6.1,3.2-12.6,3.2-19.1c0-11.2-8-22.3-11.2-22.3
					s-9.6-1.6-12.8,4.8c-3.2,6.4-6.4,22.3-4.8,25.4c1.6,3.2,9.6,11.2,9.6,11.2v14.3c0,0-8,1.6-8,3.2
					C429.9-802.1,431.5-783,437.9-770.3z"/>
				<path class="st20" d="M722.9-787.8c0,0-35.2,3.2-36.8,14.3c-1.6,11.1,0,15.9,0,15.9s6.4,0,4.8,9.5c-1.6,9.5-4.8,33.4-4.8,33.4
					l17.6-1.6c0,0,4.8-42.9,3.2-44.5c-1.6-1.6-9.6-7.9-4.8-11.2c3-2,6.2-3.6,9.6-4.8L722.9-787.8z"/>
				<path class="st37" d="M732.4-694.9c0,0,3.3-52.2,1.7-55.4s-16-14.3-17.6-15.9c-1.6-1.6-6.4-8.9-6.4-8.9l12.8-13.3
					c0,0,6.4-3.2,25.6,11.2c19.2,14.3,57.3,40.7,57.3,40.7l-0.3,3.8l-13.7,1.5l-24-23.8l9,55.7h-9c0,0-1.6-54.1-9.6-62
					c-8-8-22.4-14.3-20.8-11.2c1.6,3.2,9.6,11.2,11.2,22.3c1.6,11.1,1.6,42.9,1.6,42.9l9,9.9L732.4-694.9z"/>
				<path class="st25" d="M451.9-536c-1.1-8.6-4.2-35.5-2.9-43.5c1.6-9.5,3.2-23.9,1.6-30.2c-1.6-6.4-4.8-23.8-4.8-23.8l-20.8-4.8
					l-14.4,4.8l1.6,4.8c0,0,9.6,19.1,11.2,28.6s1.6,47.7,3.2,52.5s4.8,17.5,4.8,17.5l19.9-3c-0.1-0.5-0.1-1,0-1.5
					C451.5-535.2,451.7-535.6,451.9-536z"/>
				<path class="st26" d="M466.7-466.2c-6.3,1.3-13.9,1.3-20.3-5l-6.4-6.3l27.9-6.3c0,0,6.3,6.3,7.6,8.8
					C476.9-472.4,466.7-466.2,466.7-466.2z"/>
				<rect x="865.7" y="-1010.6" class="st33" width="19.2" height="19.2"/>
			</g>
		</g>
	</g>
	<g id="UWMvmO.tif_1_" class="st38">
		
			<image style="display:inline;overflow:visible;enable-background:new    ;" width="963" height="409" id="Layer_0_1_" xlink:href="1E4492A53315FF3A.png"  transform="matrix(1.4988 0 0 1.4988 -142.7215 -966.0159)">
		</image>
	</g>
</g>
<g id="Layer_5_1_">
	<g>
		<path class="st23" d="M3567.5-916.3c0,0-82.5-6.3-89.8,0s-85.3,40.8-90.7,54.4c-5.4,13.6-28.1,103.4-28.1,103.4l61.7,18.1l4.5-5.4
			c0,0,2.7,27.2,3.6,36.3c0.9,9.1,0.9,64.4-0.9,71.7s-22.7,107-19,113.4c3.6,6.3,28.1,18.1,46.3,20c18.1,1.8,98.9,10,105.2,8.2
			s66.2-19,73.5-18.1s11.8-10.9,10-45.3c-1.8-34.5-0.9-146.9-0.9-151.5c0-4.5,0-29,0-29s33.6-0.9,33.6-17.2c0-16.3,0-48.1-11.8-75.3
			s-11.8-27.2-11.8-27.2L3567.5-916.3z"/>
		<path class="st39" d="M3412.2-521.8c0,0-13,57.5-13,93s0,35.5,0,35.5l241,3.3c0,0,19.2-54.2,17.5-62.4c-1.6-8.2-19.6-62-19.6-62
			l-91.7,12.6L3412.2-521.8"/>
		<path class="st40" d="M3457.4-1013.7c0,0,0.6,16-0.3,20.5c-0.8,4.4,0,29.6,2.2,36.2c2.2,6.6,14.9,21.8,14.9,21.8v21.3l93.3-2.4
			c0,0-9-6.5-9.2-9c-0.3-2.5-3.6-31.2-3.6-31.2l-5-19.4l-75.8-45.1l-15.2,3.6L3457.4-1013.7z"/>
		<path class="st41" d="M3542.1-1081.4c0,0-9-1.5-13.1-3.4c-4.1-1.9-23.9-6-36.2,0s-40.6,20.9-40.3,32.8c0.4,11.9,3,32.4,14.2,50.3
			c11.2,17.9,16.8,26.5,16.4,35.1c-0.4,8.6-0.4,10.4-0.4,10.4l73.8,6c0,0,22.4-44.4,20.9-64.5s-0.4-40.6-15.3-53.3
			C3547.2-1080.7,3542.1-1081.4,3542.1-1081.4z"/>
		<path class="st40" d="M3370.5-758.6c0,0,3.1,16.1,3.1,24.5c0,8.4-1,54.9-3.5,64c-2.4,9.1-8.7,39.9-8.4,77.6
			c0.3,37.8,0.7,93.7,0.3,99.3c-0.3,5.6-2.8,32.5,2.8,41.3c5.6,8.7,13.6,18.5,22.7,18.2s11.9-2.8,13.6-11.9
			c1.7-9.1,2.1-51.8,2.1-51.8s-12.2-24.8-9.8-32.5s18.5-38.8,22-50s4.2-53.2,4.5-71s7.7-60.2,2.4-90.2
			C3417.3-771.2,3370.5-758.6,3370.5-758.6z"/>
		<path class="st40" d="M3641.6-587.7c0,0,27.7-47.7,27.7-51.1c0-3.4,3.1-114.5,3.1-114.5l-37.4,8.8L3641.6-587.7z"/>
	</g>
	<g>
		<path class="st23" d="M977.5-786c0,0-79.8-6.1-86.8,0c-7,6.1-82.4,39.5-87.7,52.6c-5.3,13.1-27.2,100-27.2,100l59.6,17.5l4.4-5.3
			c0,0,2.6,26.3,3.5,35.1s0.9,62.3-0.9,69.3c-1.8,7-21.9,103.5-18.4,109.6s27.2,17.5,44.7,19.3s95.6,9.6,101.7,7.9
			c6.1-1.8,64-18.4,71-17.5s11.4-10.5,9.6-43.8s-0.9-142-0.9-146.4s0-28.1,0-28.1s32.4-0.9,32.4-16.7s0-46.5-11.4-72.8
			s-11.4-26.3-11.4-26.3L977.5-786z"/>
		<path class="st39" d="M827.3-404.7c0,0-12.6,55.6-12.6,89.9c0,34.3,0,34.3,0,34.3l233,3.2c0,0,18.5-52.4,16.9-60.3
			s-18.9-59.9-18.9-59.9L957-385.3L827.3-404.7"/>
		<path class="st40" d="M871-880.2c0,0,0.5,15.5-0.3,19.8s0,28.6,2.1,35c2.1,6.4,14.4,21.1,14.4,21.1v20.6l90.2-2.3
			c0,0-8.7-6.3-8.9-8.7c-0.3-2.4-3.5-30.2-3.5-30.2l-4.8-18.7L887-887.2l-14.7,3.5L871-880.2z"/>
		<path class="st41" d="M952.9-945.6c0,0-8.7-1.4-12.6-3.2c-4-1.8-23.1-5.8-35,0s-39.3,20.2-38.9,31.7s2.9,31.4,13.7,48.7
			c10.8,17.3,16.2,25.6,15.9,33.9c-0.4,8.3-0.4,10.1-0.4,10.1l71.4,5.8c0,0,21.6-42.9,20.2-62.4c-1.4-19.5-0.4-39.3-14.8-51.6
			C958-944.9,952.9-945.6,952.9-945.6z"/>
		<path class="st40" d="M787-633.6c0,0,3,15.6,3,23.7c0,8.1-1,53.1-3.4,61.9c-2.4,8.8-8.5,38.5-8.1,75.1c0.3,36.5,0.7,90.6,0.3,96
			c-0.3,5.4-2.7,31.4,2.7,39.9s13.2,17.9,22,17.6s11.5-2.7,13.2-11.5s2-50,2-50s-11.8-24-9.5-31.4s17.9-37.5,21.3-48.3
			c3.4-10.8,4.1-51.4,4.4-68.6c0.3-17.2,7.4-58.2,2.4-87.2C832.3-645.8,787-633.6,787-633.6z"/>
		<path class="st40" d="M1049.1-468.4c0,0,26.8-46.1,26.8-49.4s3-110.7,3-110.7l-36.2,8.6L1049.1-468.4z"/>
	</g>
</g>
<g id="Layer_6">
	<g>
		<g>
			<path class="st21" d="M2621.1-545c4.1,2,7.9,4.5,11.4,7.5c8.6,8.7,13.5,20.4,13.5,32.6c0,12.2-4.8,24-13.5,32.6
				c-4.2,4.4-9.3,7.9-14.9,10.3c-5.6,2.4-11.7,3.5-17.8,3.4h-55v-146.9h41.3c5.5-0.1,10.9,1,15.9,3.1c5.1,2.1,9.6,5.2,13.4,9.1
				c7.8,7.9,11.7,17.2,11.7,28C2627.2-558.2,2623.8-549.8,2621.1-545z M2586.1-576.7h-11.7v26.9c2.6-0.1,6.3-0.4,11.1-0.7
				c7-0.8,13-6,13-13.5c0-3.3-1.3-6.5-3.6-8.9C2592.6-575.3,2589.4-576.7,2586.1-576.7z M2616.9-504.8c0-9.8-8-17.4-17.2-18
				c-8.8-0.5-16.4-0.1-25.3-0.1v35.6h25.3c2.3,0,4.5-0.5,6.6-1.4s4-2.2,5.6-3.8s2.9-3.6,3.7-5.7
				C2616.5-500.3,2617-502.6,2616.9-504.8L2616.9-504.8z"/>
			<path class="st21" d="M2711.5-608.5l67.5,149.9h-32.2l-10-22.3h-50.7l-10,22.3H2644L2711.5-608.5z M2725.1-507l-13.5-31.1
				l-13.7,31.1H2725.1z"/>
			<path class="st21" d="M2868.2-545c4.1,2,7.9,4.5,11.4,7.5c8.6,8.7,13.5,20.4,13.5,32.6c0,12.2-4.9,24-13.5,32.6
				c-4.2,4.4-9.3,7.9-14.9,10.3c-5.6,2.4-11.7,3.5-17.8,3.4h-55v-146.9h41.3c5.5-0.1,10.9,1,15.9,3.1c5.1,2.1,9.6,5.2,13.4,9.1
				c7.8,7.9,11.7,17.2,11.7,28C2874.3-558.2,2870.9-549.8,2868.2-545z M2833.2-576.7h-11.7v26.9c2.6-0.1,6.3-0.4,11.1-0.7
				c7-0.8,13-6,13-13.5c0-3.3-1.3-6.5-3.7-8.9S2836.5-576.7,2833.2-576.7L2833.2-576.7z M2864.1-504.8c0-9.8-8-17.4-17.2-18
				c-8.8-0.5-16.4-0.1-25.3-0.1v35.6h25.3c2.3,0,4.5-0.5,6.6-1.4s4-2.2,5.6-3.8s2.9-3.6,3.7-5.7
				C2863.7-500.3,2864.1-502.6,2864.1-504.8L2864.1-504.8z"/>
			<path class="st21" d="M2909.9-605.5l27,50.9l27-50.9h33.7l-45.9,83.9v63h-29.5v-63l-45.8-83.9H2909.9z"/>
			<path class="st21" d="M3049.8-605.5c23.2,0,41.4,9.2,54,21.6c13.2,13.2,19.8,30.5,19.8,52c0,21.5-6.6,38.8-19.8,51.8
				c-14.6,14.3-32.6,21.5-54,21.5h-39.3v-146.8L3049.8-605.5L3049.8-605.5z M3049.7-576.2h-9.6v88.2h9.9c26.7,0,44-17.6,44-44.1
				C3094-558.4,3076.3-576.2,3049.7-576.2L3049.7-576.2z"/>
			<path class="st21" d="M3136.5-605.5h48.3c16.5,0,29.8,6.2,38.7,14.9c9,8.9,14.3,17.1,14.3,33.4v3.8c0,9.9-3.1,19.2-9.4,28
				c-5.2,7.2-9.3,10.3-17.7,13.6l34.4,53.2h-36.3l-42.5-65v65h-29.8V-605.5z M3207.2-556.2c0-2.6-0.5-5.2-1.5-7.7
				c-1-2.4-2.5-4.6-4.3-6.5c-3.9-3.7-11.2-5.8-18.4-5.8h-16.7v40.6h11.5v0.1h9.9C3198.4-535.6,3207.2-545,3207.2-556.2z"/>
			<path class="st21" d="M3257.9-605.5h29.8v147h-29.8V-605.5z"/>
			<path class="st21" d="M3367.2-455.3l-66.7-150.2h31.5l35.1,80.5l35.2-80.5h31.8L3367.2-455.3z"/>
			<path class="st21" d="M3536.2-605.8v29.4h-59.5v29.6h44.6v29.4h-44.6v29.6h59.5v29.4H3447v-147.4H3536.2z"/>
			<path class="st21" d="M3549.1-605.5h48.3c16.5,0,29.8,6.2,38.7,14.9c9,8.9,14.3,17.1,14.3,33.4v3.8c0,9.9-3.1,19.2-9.4,28
				c-5.2,7.2-9.3,10.3-17.7,13.6l34.4,53.2h-36.3l-42.5-65v65h-29.8V-605.5z M3619.7-556.2c0-2.6-0.5-5.2-1.5-7.7
				c-1-2.4-2.5-4.6-4.4-6.5c-3.9-3.7-11.2-5.8-18.4-5.8h-16.7v40.6h11.5v0.1h9.9C3611-535.6,3619.7-545,3619.7-556.2z"/>
		</g>
		<g>
			<path class="st42" d="M2614.4-545c4.1,2,7.9,4.5,11.4,7.5c8.6,8.7,13.5,20.4,13.5,32.6c0,12.2-4.8,24-13.5,32.6
				c-4.2,4.4-9.3,7.9-14.9,10.3c-5.6,2.4-11.7,3.5-17.8,3.4h-55v-146.9h41.3c5.5-0.1,10.9,1,15.9,3.1c5.1,2.1,9.6,5.2,13.4,9.1
				c7.8,7.9,11.7,17.2,11.7,28C2620.5-558.2,2617.1-549.8,2614.4-545z M2579.4-576.7h-11.7v26.9c2.6-0.1,6.3-0.4,11.1-0.7
				c7-0.8,13-6,13-13.5c0-3.3-1.3-6.5-3.6-8.9C2585.9-575.3,2582.7-576.7,2579.4-576.7L2579.4-576.7z M2610.2-504.8
				c0-9.8-8-17.4-17.2-18c-8.8-0.5-16.4-0.1-25.3-0.1v35.6h25.3c2.3,0,4.5-0.5,6.6-1.4s4-2.2,5.6-3.8s2.9-3.6,3.7-5.7
				C2609.8-500.3,2610.3-502.6,2610.2-504.8L2610.2-504.8z"/>
			<path class="st42" d="M2704.8-608.5l67.5,149.9h-32.2l-10-22.3h-50.7l-10,22.3h-32.1L2704.8-608.5z M2718.4-506.9l-13.5-31.1
				l-13.7,31.1H2718.4z"/>
			<path class="st42" d="M2861.5-545c4.1,2,7.9,4.5,11.4,7.5c8.6,8.7,13.5,20.4,13.5,32.6c0,12.2-4.9,24-13.5,32.6
				c-4.2,4.4-9.3,7.9-14.9,10.3c-5.6,2.4-11.7,3.5-17.8,3.4h-55v-146.9h41.3c5.5-0.1,10.9,1,15.9,3.1c5.1,2.1,9.6,5.2,13.4,9.1
				c7.8,7.9,11.7,17.2,11.7,28C2867.6-558.2,2864.3-549.8,2861.5-545z M2826.6-576.7h-11.7v26.9c2.6-0.1,6.3-0.4,11.1-0.7
				c7-0.8,13-6,13-13.5c0-3.3-1.3-6.5-3.6-8.9C2833.1-575.3,2829.9-576.7,2826.6-576.7z M2857.3-504.8c0-9.8-8-17.4-17.2-18
				c-8.8-0.5-16.4-0.1-25.3-0.1v35.6h25.3c2.3,0,4.5-0.5,6.6-1.4s4-2.2,5.6-3.8s2.9-3.6,3.7-5.7
				C2856.9-500.3,2857.4-502.6,2857.3-504.8L2857.3-504.8z"/>
			<path class="st42" d="M2903.2-605.5l27,50.9l27-50.9h33.7l-45.9,84v63h-29.5v-63l-45.8-83.9L2903.2-605.5L2903.2-605.5z"/>
			<path class="st42" d="M3043.1-605.5c23.2,0,41.4,9.2,54,21.6c13.2,13.2,19.8,30.5,19.8,52c0,21.5-6.6,38.8-19.8,51.8
				c-14.6,14.3-32.6,21.5-54,21.5h-39.4v-146.8L3043.1-605.5L3043.1-605.5z M3043-576.2h-9.6v88.2h9.9c26.7,0,44-17.6,44-44.1
				C3087.3-558.4,3069.6-576.2,3043-576.2z"/>
			<path class="st42" d="M3129.8-605.5h48.3c16.5,0,29.8,6.2,38.7,14.9c9,8.9,14.3,17.1,14.3,33.4v3.8c0,9.9-3.1,19.2-9.4,28
				c-5.2,7.2-9.3,10.3-17.7,13.6l34.4,53.2h-36.3l-42.5-65v65h-29.8V-605.5z M3200.5-556.2c0-2.6-0.5-5.2-1.5-7.7
				c-1-2.4-2.5-4.6-4.3-6.5c-3.9-3.7-11.2-5.8-18.4-5.8h-16.7v40.6h11.5v0.1h9.9C3191.8-535.6,3200.5-545,3200.5-556.2z"/>
			<path class="st42" d="M3251.2-605.5h29.8v147h-29.8V-605.5z"/>
			<path class="st42" d="M3360.5-455.3l-66.7-150.2h31.5l35.1,80.5l35.2-80.5h31.8L3360.5-455.3z"/>
			<path class="st42" d="M3529.5-605.8v29.4H3470v29.6h44.6v29.4H3470v29.6h59.5v29.4h-89.2v-147.4H3529.5z"/>
			<path class="st42" d="M3542.4-605.5h48.3c16.5,0,29.8,6.2,38.7,14.9c9,8.9,14.3,17.1,14.3,33.4v3.8c0,9.9-3.1,19.2-9.4,28
				c-5.2,7.2-9.3,10.3-17.7,13.6l34.4,53.2h-36.3l-42.5-65v65h-29.8V-605.5z M3613-556.2c0-2.6-0.5-5.2-1.5-7.7
				c-1-2.4-2.5-4.6-4.4-6.5c-3.9-3.7-11.2-5.8-18.4-5.8H3572v40.6h11.5v0.1h9.9C3604.4-535.6,3613-545,3613-556.2z"/>
		</g>
	</g>
</g>
<rect x="-6.6" y="-12.5" class="st43" width="1162.9" height="722.6"/>
<g id="maintext">
	<g>
		<path class="st44" d="M198.8,221.6l0.5,40.8L149,263l2.2,164.2l-41.3,0.5l-2.2-164.2l-50.5,0.7l-0.5-40.8L198.8,221.6z"/>
		<path class="st44" d="M257.7,220.8l1.1,82l68.5-0.9l-1.1-82l41.1-0.5l2.7,205l-41.1,0.5l-1.1-82.2l-68.5,0.9l1.1,82.2l-41.1,0.5
			l-2.7-205L257.7,220.8z"/>
		<path class="st44" d="M516.3,216.8l0.5,41.1l-82.4,1.1l0.5,41.3l61.8-0.8l0.5,41.1l-61.8,0.8l0.5,41.3l82.4-1.1l0.5,40.9
			l-123.6,1.6l-2.7-205.8L516.3,216.8z"/>
		<path class="st44" d="M734.1,213.9l0.5,41.1l-82.4,1.1l0.5,41.3l61.8-0.8l0.5,41.1l-61.8,0.8l0.5,41.3l82.4-1.1l0.5,40.9
			l-123.6,1.6l-2.7-205.8L734.1,213.9z"/>
		<path class="st44" d="M876.8,325.9L875.3,212l41.3-0.5l2.8,209.7L794.3,305.1l1.5,113.8l-41.2,0.5l-2.8-209.6L876.8,325.9z"/>
		<path class="st44" d="M996.6,210.9c32.2-0.4,57.6,12,75.3,29.1c18.6,18.2,28,42.2,28.4,72.2s-8.4,54.2-26.5,72.7
			c-19.9,20.3-44.7,30.6-74.5,31l-54.6,0.7l-2.7-204.9l54.6-0.7L996.6,210.9z M997.1,251.8l-13.4,0.2l1.6,123.1l13.7-0.2
			c37-0.5,60.7-25.3,60.2-62.4C1058.8,275.8,1034,251.3,997.1,251.8z"/>
	</g>
</g>
<g id="strokes">
	<path class="st45" d="M187,215l0.5,40.8l-50.4,0.7l2.2,164.2L98,421.2L95.8,257l-50.5,0.7l-0.5-40.8L187,215z"/>
	<path class="st45" d="M245.8,214.2l1.1,82l68.5-0.9l-1.1-82l41.1-0.5l2.7,205l-41.1,0.5l-1.1-82.2l-68.5,0.9l1.1,82.2l-41.1,0.5
		l-2.7-205L245.8,214.2z"/>
	<path class="st45" d="M504.5,210.3l0.5,41.1l-82.4,1.1l0.5,41.3l61.8-0.8l0.5,41.1l-61.8,0.8l0.5,41.3l82.4-1.1l0.5,40.9
		l-123.6,1.6l-2.7-205.8L504.5,210.3z"/>
	<path class="st45" d="M722.2,207.4l0.5,41.1l-82.4,1.1l0.5,41.3l61.8-0.8l0.5,41.1l-61.8,0.8l0.5,41.3l82.4-1.1l0.5,40.9
		l-123.6,1.6L598.6,209L722.2,207.4z"/>
	<path class="st45" d="M865,319.3l-1.5-113.8l41.3-0.5l2.8,209.7L782.4,298.5l1.5,113.8l-41.2,0.5l-2.8-209.6L865,319.3z"/>
	<path class="st45" d="M984.8,204.4c32.2-0.4,57.6,12,75.3,29.1c18.6,18.2,28,42.2,28.4,72.2c0.4,30-8.4,54.2-26.5,72.7
		c-19.9,20.3-44.7,30.6-74.5,31l-54.6,0.7l-2.7-204.9l54.6-0.7L984.8,204.4z M985.2,245.2l-13.4,0.2l1.6,123.1l13.7-0.2
		c37-0.5,60.7-25.3,60.2-62.4C1047,269.3,1022.1,244.7,985.2,245.2z"/>
</g>
<g id="Cassette">
	<g>
		<path class="st46" d="M1219,568.3l-285.5-38.6c-7.4-1-14.3,4.2-15.3,11.7l-23.5,173.9c-1,7.4,4.2,14.3,11.7,15.3l285.5,38.6
			c7.4,1,14.3-4.2,15.3-11.7l23.5-173.9C1231.7,576.2,1226.5,569.3,1219,568.3z"/>
		<path class="st47" d="M1207.7,581.9L942.1,546c-4.4-0.6-8.4,2.5-9,6.9l-15.9,118c-0.6,4.4,2.5,8.4,6.9,9l265.6,35.9
			c4.4,0.6,8.4-2.5,9-6.9l15.9-118C1215.1,586.5,1212.1,582.5,1207.7,581.9z"/>
		<path class="st23" d="M1174.1,636.8l-214.3-28.9c-9.7-1.3-18.5,5.5-19.8,15.1l-2.5,18.2c-1.3,9.7,5.5,18.5,15.1,19.8l214.3,28.9
			c9.7,1.3,18.5-5.5,19.8-15.1l2.5-18.2C1190.6,647,1183.8,638.1,1174.1,636.8z"/>
		<path class="st26" d="M1090.6,632.1l-53.5-7.2c-1.9-0.3-3.6,1.1-3.9,3l-4.8,35.5c-0.3,1.9,1.1,3.6,3,3.9l53.5,7.2
			c1.9,0.3,3.6-1.1,3.9-3l4.8-35.5C1093.8,634.1,1092.5,632.3,1090.6,632.1z"/>
		<path class="st26" d="M985.5,658c10.9,3.9,23-1.8,26.9-12.7c3.9-10.9-1.8-23-12.7-26.9c-10.9-3.9-23,1.8-26.9,12.7
			C968.9,642.1,974.6,654.1,985.5,658z"/>
		<path class="st26" d="M1124.9,676.9c10.9,3.9,23-1.8,26.9-12.7c3.9-10.9-1.8-23-12.7-26.9c-10.9-3.9-23,1.8-26.9,12.7
			C1108.3,660.9,1114,673,1124.9,676.9z"/>
		<path class="st48" d="M948.5,728.2l26.7-31.9l152.9,20.7l11.6,37.1L948.5,728.2z"/>
		<path class="st49" d="M953,568.4l235.8,30.6"/>
		<path class="st49" d="M949.6,584.3l235.8,30.6"/>
		<path class="st49" d="M1047.9,632.9l-3.9,28.5"/>
		<path class="st49" d="M1056.6,634.1l-3.9,28.5"/>
		<path class="st49" d="M1066.5,635.5l-3.8,28.5"/>
		<path class="st49" d="M1077.6,637l-3.8,28.5"/>
	</g>
	<g>
		<path class="st46" d="M108.1-195.7L-198.3,21.1c-8,5.7-9.9,16.7-4.2,24.7l132,186.6c5.7,8,16.7,9.9,24.7,4.2L260.7,19.8
			c8-5.7,9.9-16.7,4.2-24.7l-132-186.6C127.2-199.4,116.1-201.3,108.1-195.7z"/>
		<path class="st47" d="M109.4-172.6L-175.7,29.1c-4.7,3.3-5.8,9.8-2.5,14.5l89.6,126.7c3.3,4.7,9.8,5.8,14.5,2.5L211.1-29
			c4.7-3.3,5.8-9.8,2.5-14.5l-89.6-126.7C120.6-174.8,114.1-176,109.4-172.6z"/>
		<path class="st23" d="M126.2-90.5l-230,162.7c-10.4,7.3-12.8,21.7-5.5,32l13.8,19.6c7.3,10.4,21.7,12.8,32,5.5l230-162.7
			c10.4-7.3,12.8-21.7,5.5-32L158.2-85C150.9-95.4,136.6-97.8,126.2-90.5z"/>
		<path class="st26" d="M42.3-20.8l-57.4,40.6c-2,1.4-2.5,4.2-1.1,6.3l27,38.1c1.4,2,4.2,2.5,6.3,1.1l57.4-40.6
			c2-1.4,2.5-4.2,1.1-6.3l-27-38.1C47.1-21.8,44.3-22.3,42.3-20.8z"/>
		<path class="st26" d="M-34.8,97.2c13.9-6,20.3-22.1,14.4-36s-22.1-20.3-36-14.3c-13.9,6-20.3,22.1-14.4,36
			C-64.8,96.8-48.7,103.2-34.8,97.2z"/>
		<path class="st26" d="M114.8-8.6c13.9-6,20.3-22.1,14.4-36c-6-13.9-22.1-20.3-36-14.3c-13.9,6-20.3,22.1-14.4,36
			C84.8-9,100.9-2.6,114.8-8.6z"/>
		<path class="st50" d="M-7.8,197l-2.9-54.2L153.5,26.6l44.1,25.1L-7.8,197z"/>
		<path class="st51" d="M-145.4,40.6l251.9-180.2"/>
		<path class="st51" d="M-134.4,58.8l251.9-180.2"/>
		<path class="st51" d="M2.4,17.9L24,48.5"/>
		<path class="st51" d="M11.7,11.4L33.4,42"/>
		<path class="st51" d="M22.3,3.8L44,34.4"/>
		<path class="st51" d="M34.3-4.6L56,25.9"/>
	</g>
	<g>
		<path class="st46" d="M-136.1,567.9l34.7,225.9c1.5,9.7,10.5,16.3,20.2,14.8l371-57c9.7-1.5,16.3-10.5,14.8-20.2L270,505.5
			c-1.5-9.7-10.5-16.3-20.2-14.8l-371,57C-130.9,549.2-137.6,558.3-136.1,567.9z"/>
		<path class="st52" d="M-114.9,577.1l23.6,153.4c0.9,5.7,6.2,9.6,11.9,8.7l345.2-53.1c5.7-0.9,9.6-6.2,8.7-11.9l-23.6-153.4
			c-0.9-5.7-6.2-9.6-11.9-8.7l-345.2,53.1C-111.8,566.1-115.7,571.4-114.9,577.1z"/>
		<path class="st23" d="M-80.4,662.1l3.6,23.7c1.9,12.5,13.7,21.2,26.2,19.2l278.4-42.8c12.5-1.9,21.2-13.7,19.2-26.2l-3.6-23.7
			c-1.9-12.5-13.7-21.2-26.2-19.2l-278.4,42.8C-73.7,637.9-82.3,649.6-80.4,662.1z"/>
		<path class="st26" d="M43.8,632.8l7.1,46.1c0.4,2.5,2.7,4.1,5.1,3.8l69.5-10.7c2.5-0.4,4.1-2.7,3.8-5.1l-7.1-46.1
			c-0.4-2.5-2.7-4.1-5.1-3.8l-69.5,10.7C45.1,628.1,43.5,630.4,43.8,632.8z"/>
		<path class="st26" d="M201,623.7c-5.4-14.1-21.2-21.3-35.3-15.9c-14.1,5.4-21.3,21.2-15.9,35.3c5.4,14.1,21.2,21.3,35.3,15.9
			C199.2,653.7,206.3,637.9,201,623.7z"/>
		<path class="st26" d="M19.9,651.6c-5.4-14.1-21.2-21.3-35.3-15.9c-14.1,5.4-21.3,21.2-15.9,35.3c5.4,14.1,21.2,21.3,35.3,15.9
			C18.1,681.6,25.2,665.7,19.9,651.6z"/>
		<path class="st50" d="M-13.7,787.8l14.3-48.6l198.8-30.6l35.6,41L-13.7,787.8z"/>
		<path class="st51" d="M-81.2,587l306.4-45.5"/>
		<path class="st51" d="M-76.3,607.7l306.4-45.5"/>
		<path class="st51" d="M109,664.9l-5.7-37"/>
		<path class="st51" d="M97.7,666.6L92,629.6"/>
		<path class="st51" d="M84.8,668.6l-5.7-37.1"/>
		<path class="st51" d="M70.3,670.9l-5.7-37.1"/>
	</g>
	<g>
		<path class="st46" d="M1114.2,257.9l31.6,205.5c1.4,8.8,9.6,14.8,18.4,13.5l337.5-51.9c8.8-1.4,14.8-9.6,13.5-18.4l-31.6-205.5
			c-1.4-8.8-9.6-14.8-18.4-13.5l-337.5,51.9C1118.9,240.9,1112.8,249.1,1114.2,257.9z"/>
		<path class="st52" d="M1133.5,266.2l21.4,139.5c0.8,5.2,5.6,8.7,10.8,7.9l314-48.3c5.2-0.8,8.7-5.6,7.9-10.8l-21.4-139.5
			c-0.8-5.2-5.6-8.7-10.8-7.9l-314,48.3C1136.2,256.2,1132.7,261,1133.5,266.2z"/>
		<path class="st23" d="M1164.9,343.6l3.3,21.5c1.8,11.4,12.4,19.2,23.8,17.5l253.3-38.9c11.4-1.8,19.2-12.4,17.5-23.8l-3.3-21.5
			c-1.8-11.4-12.4-19.2-23.8-17.5l-253.3,38.9C1170.9,321.5,1163.1,332.2,1164.9,343.6z"/>
		<path class="st26" d="M1277.8,316.9l6.4,42c0.3,2.2,2.4,3.8,4.7,3.4l63.3-9.7c2.2-0.3,3.8-2.4,3.4-4.7l-6.4-42
			c-0.3-2.2-2.4-3.8-4.7-3.4l-63.3,9.7C1279,312.6,1277.5,314.7,1277.8,316.9z"/>
		<path class="st26" d="M1420.8,308.7c-4.9-12.9-19.3-19.3-32.1-14.5c-12.9,4.9-19.3,19.3-14.5,32.1c4.9,12.9,19.3,19.3,32.1,14.5
			C1419.2,335.9,1425.7,321.5,1420.8,308.7z"/>
		<path class="st26" d="M1256,334c-4.9-12.9-19.3-19.3-32.1-14.5c-12.9,4.9-19.3,19.3-14.5,32.1c4.9,12.9,19.3,19.3,32.1,14.5
			C1254.4,361.2,1260.9,346.9,1256,334z"/>
		<path class="st53" d="M1225.5,457.9l13-44.2l180.8-27.8l32.4,37.3L1225.5,457.9z"/>
		<path class="st54" d="M1164.1,275.2l278.7-41.4"/>
		<path class="st54" d="M1168.5,294l278.7-41.4"/>
		<path class="st54" d="M1337.1,346.1l-5.2-33.7"/>
		<path class="st54" d="M1326.8,347.7l-5.2-33.7"/>
		<path class="st54" d="M1315.1,349.5l-5.2-33.7"/>
		<path class="st54" d="M1301.9,351.5l-5.2-33.7"/>
	</g>
	<g>
		<path class="st46" d="M398.4-66.8l31.6,205.5c1.4,8.8,9.6,14.8,18.4,13.5l337.5-51.9c8.8-1.4,14.8-9.6,13.5-18.4l-31.6-205.5
			c-1.4-8.8-9.6-14.8-18.4-13.5L411.9-85.2C403.1-83.9,397-75.6,398.4-66.8z"/>
		<path class="st55" d="M417.7-58.5L439.1,81c0.8,5.2,5.6,8.7,10.8,7.9l314-48.3c5.2-0.8,8.7-5.6,7.9-10.8l-21.4-139.5
			c-0.8-5.2-5.6-8.7-10.8-7.9l-314,48.3C420.4-68.5,416.9-63.7,417.7-58.5z"/>
		<path class="st23" d="M449,18.9l3.3,21.5c1.8,11.4,12.4,19.2,23.8,17.5L729.5,19c11.4-1.8,19.2-12.4,17.5-23.8l-3.3-21.5
			c-1.8-11.4-12.4-19.2-23.8-17.5L466.5-5C455.1-3.2,447.3,7.4,449,18.9z"/>
		<path class="st26" d="M562-7.8l6.4,42c0.3,2.2,2.4,3.8,4.7,3.4l63.3-9.7c2.2-0.3,3.8-2.4,3.4-4.7l-6.4-42
			c-0.3-2.2-2.4-3.8-4.7-3.4l-63.3,9.7C563.2-12.1,561.7-10,562-7.8z"/>
		<path class="st26" d="M705-16.1c-4.9-12.9-19.3-19.3-32.1-14.5c-12.9,4.9-19.3,19.3-14.5,32.1c4.9,12.9,19.3,19.3,32.1,14.5
			C703.4,11.2,709.8-3.2,705-16.1z"/>
		<path class="st26" d="M540.2,9.3C535.3-3.6,521-10.1,508.1-5.2c-12.9,4.9-19.3,19.3-14.5,32.1c4.9,12.9,19.3,19.3,32.1,14.5
			C538.6,36.5,545.1,22.1,540.2,9.3z"/>
		<path class="st53" d="M509.7,133.1l13-44.2l180.8-27.8l32.4,37.3L509.7,133.1z"/>
		<path class="st54" d="M448.3-49.5L727-90.9"/>
		<path class="st54" d="M452.7-30.7l278.7-41.4"/>
		<path class="st54" d="M621.3,21.4l-5.2-33.7"/>
		<path class="st54" d="M611,23l-5.2-33.7"/>
		<path class="st54" d="M599.3,24.8l-5.2-33.7"/>
		<path class="st54" d="M586.1,26.8l-5.2-33.7"/>
	</g>
	<g>
		<path class="st46" d="M421.3,902.3l164.4,127.2c7,5.4,17.2,4.2,22.6-2.9l208.9-270.1c5.4-7,4.2-17.2-2.9-22.6L649.9,606.7
			c-7-5.4-17.2-4.2-22.6,2.9L418.4,879.7C412.9,886.8,414.2,896.9,421.3,902.3z"/>
		<path class="st56" d="M441,895.1l111.6,86.4c4.1,3.2,10.1,2.4,13.3-1.7l194.4-251.3c3.2-4.1,2.4-10.1-1.7-13.3l-111.6-86.4
			c-4.1-3.2-10.1-2.4-13.3,1.7L439.3,881.8C436.1,885.9,436.8,891.9,441,895.1z"/>
		<path class="st23" d="M517,929.5l17.2,13.3c9.1,7.1,22.3,5.4,29.3-3.7l156.8-202.7c7.1-9.1,5.4-22.3-3.7-29.3l-17.2-13.3
			c-9.1-7.1-22.3-5.4-29.3,3.7L513.3,900.2C506.2,909.3,507.9,922.5,517,929.5z"/>
		<path class="st26" d="M580.5,832.4l33.6,26c1.8,1.4,4.3,1.1,5.7-0.7L659,807c1.4-1.8,1.1-4.3-0.7-5.7l-33.6-26
			c-1.8-1.4-4.3-1.1-5.7,0.7l-39.2,50.6C578.4,828.5,578.8,831,580.5,832.4z"/>
		<path class="st26" d="M678.5,728c-12.4-6-27.3-0.7-33.2,11.7c-6,12.4-0.8,27.3,11.6,33.3s27.3,0.7,33.2-11.7
			C696.1,748.8,690.9,733.9,678.5,728z"/>
		<path class="st26" d="M576.5,859.8c-12.4-6-27.3-0.7-33.2,11.7c-6,12.4-0.8,27.3,11.6,33.3c12.4,6,27.3,0.7,33.2-11.7
			C594.1,880.6,588.9,865.8,576.5,859.8z"/>
		<path class="st53" d="M639.7,970.6l-21.1-41l111.9-144.7l49.1,4.7L639.7,970.6z"/>
		<path class="st54" d="M469.4,880.5l173.6-222"/>
		<path class="st54" d="M485.5,891.1l173.6-222"/>
		<path class="st54" d="M643.6,812.8l-27-20.9"/>
		<path class="st54" d="M637.2,821l-27-20.9"/>
		<path class="st54" d="M630,830.4l-27-20.9"/>
		<path class="st54" d="M621.8,840.9l-27-20.9"/>
	</g>
	<g>
		<path class="st46" d="M914.3,53.8L1078.7,181c7,5.4,17.2,4.2,22.6-2.9l208.9-270.1c5.4-7,4.2-17.2-2.9-22.6l-164.4-127.2
			c-7-5.4-17.2-4.2-22.6,2.9L911.4,31.2C905.9,38.2,907.2,48.3,914.3,53.8z"/>
		<path class="st57" d="M934,46.5l111.6,86.4c4.1,3.2,10.1,2.4,13.3-1.7l194.4-251.3c3.2-4.1,2.4-10.1-1.7-13.3l-111.6-86.4
			c-4.1-3.2-10.1-2.4-13.3,1.7L932.3,33.2C929.1,37.4,929.8,43.3,934,46.5z"/>
		<path class="st23" d="M1010,81l17.2,13.3c9.1,7.1,22.3,5.4,29.3-3.7l156.8-202.7c7.1-9.1,5.4-22.3-3.7-29.3l-17.2-13.3
			c-9.1-7.1-22.3-5.4-29.3,3.7L1006.3,51.7C999.2,60.8,1000.9,73.9,1010,81z"/>
		<path class="st26" d="M1073.6-16.1l33.6,26c1.8,1.4,4.3,1.1,5.7-0.7l39.2-50.6c1.4-1.8,1.1-4.3-0.7-5.7l-33.6-26
			c-1.8-1.4-4.3-1.1-5.7,0.7l-39.2,50.6C1071.5-20.1,1071.8-17.5,1073.6-16.1z"/>
		<path class="st26" d="M1171.5-120.6c-12.4-6-27.3-0.7-33.2,11.7c-6,12.4-0.8,27.3,11.6,33.3c12.4,6,27.3,0.7,33.2-11.7
			C1189.1-99.7,1183.9-114.6,1171.5-120.6z"/>
		<path class="st26" d="M1069.5,11.2c-12.4-6-27.3-0.7-33.2,11.7c-6,12.4-0.8,27.3,11.6,33.3c12.4,6,27.3,0.7,33.2-11.7
			C1087.1,32.1,1081.9,17.2,1069.5,11.2z"/>
		<path class="st53" d="M1132.7,122.1l-21.1-41l111.9-144.7l49.1,4.7L1132.7,122.1z"/>
		<path class="st54" d="M962.4,31.9L1136-190"/>
		<path class="st54" d="M978.5,42.6l173.6-222"/>
		<path class="st54" d="M1136.6-35.8l-27-20.9"/>
		<path class="st54" d="M1130.3-27.6l-27-20.9"/>
		<path class="st54" d="M1123-18.2l-27-20.9"/>
		<path class="st54" d="M1114.8-7.6l-27-20.9"/>
	</g>
</g>
<g>
	<text transform="matrix(1 0 0 1 530.3389 535.9041)" class="st23 st58 st59">Click To Restart</text>
</g>
</svg>
