<svg xmlns="http://www.w3.org/2000/svg" viewBox="0 0 1048.32 497.86"><defs><style>.cls-1{fill:#98d987;}.cls-2{fill:#bae5ae;}.cls-3{fill:#dbf1d5;}.cls-4{fill:#75cc5c;}.cls-5{fill:#64dada;}.cls-6{fill:#d55454;}.cls-7{fill:#e5a653;}.cls-8{fill:#efe66c;}.cls-9{fill:#f8e8d3;}</style></defs><title>rainbow</title><g id="Layer_2" data-name="Layer 2"><g id="Layer_4" data-name="Layer 4"><path class="cls-1" d="M879,497.86l.14-1.05c2.4-1.79,4.92-1.57,7.5-.46a1.06,1.06,0,0,1,.35,1.51Z"/><path class="cls-2" d="M887,497.86a7.47,7.47,0,0,1,0-.95c2.39-2,5-1.64,7.58-.58a1.08,1.08,0,0,1,.37,1.53Z"/><path class="cls-3" d="M895,497.86a6.4,6.4,0,0,1,.06-.88c2.35-2,4.68-2,7,.06,0,.27,0,.54,0,.82Z"/><path class="cls-4" d="M902.06,497l-7-.06-8-.07-7.89-.1-1.07-3c-3.19-6.16-3.52-13.08-5.24-19.63A490.81,490.81,0,0,0,856,421.57a351.06,351.06,0,0,0-18-39.89c-10.54-19.54-22.08-38.44-38.07-53.92-14.06-13.62-28.46-26.94-43.6-39.46-10.49-8.68-21-17.36-31.6-25.9-8.81-7.09-18-13.73-27.11-20.37a790.65,790.65,0,0,0-73.31-47.39,539.45,539.45,0,0,0-90.62-41.47c-28.83-10-58.58-15.07-88.63-19.22-31-4.29-62-8.38-93.1-11.61-18.51-1.92-37.07-3.34-55.67-4.44-22.6-1.35-45.2-2.33-67.82-1.72-34.33.94-68.44,4.16-101.49,14.26-14.81,4.53-28.91,11-43.26,16.81Q52.19,160,20.86,173c-5,2.09-6.51,1-7.91-5.24-3-7.23-7.47-13.66-11.58-20.28-.88-1.42-2.34-3-.45-4.79l8.75-3.09c1.84,2.71,3.87,2.65,6.73,1.2,13.65-6.93,27.56-13.31,41.48-19.67,18.72-8.57,38.33-14.25,58.34-18.71,28.95-6.45,58.33-10.14,87.83-12.78,34.52-3.08,69.18-3.15,103.73-1.92A840.46,840.46,0,0,1,475.6,110.51a724.71,724.71,0,0,1,186.12,73.05q28.41,16.11,55.32,34.71,22.79,15.76,44.55,32.82,20.4,16,39.92,33c7.27,6.34,14.86,12.3,21.34,19.47a254.52,254.52,0,0,1,29.59,40c10.85,18.16,19.76,37.19,27.79,56.75a481.9,481.9,0,0,1,25.59,81.11c1.59,7.34,2.57,8,10,8.11,2.74.05,5.71-.85,8.09,1.4.94,5.73.94,5.7-5.15,5.77C913.21,496.79,907.64,496.93,902.06,497Z"/><path class="cls-5" d="M13,167.76c3.72,5.71,3.65,5.55,10.62,2.67,24.24-10,48.67-19.54,72.77-29.85,22.09-9.45,44.8-16.6,68.53-20.21,13.1-2,26.32-3.43,39.54-4.4a542.87,542.87,0,0,1,59.83-1c23.71.89,47.39,2.34,71,4.5,22.63,2.07,45.2,4.67,67.75,7.42s44.94,6.47,67.44,9.55c34.64,4.75,67.45,15.52,99.37,29.41a569.55,569.55,0,0,1,61.53,31.4q25.7,15.09,50.22,32,31.88,22.06,61.83,46.61c17,14,33.46,28.59,49.66,43.51a201.82,201.82,0,0,1,36.76,45.79c9.6,16.1,17.38,32.91,24.78,50.08C860,427.81,863.09,441,868,453.59c4.76,12.11,6.79,24.8,9.92,37.26a14.8,14.8,0,0,1,.16,3c-7.1.66-14.22,1.23-21.31,2.05-3.17.36-4.81-.59-5.64-3.81-4.36-16.86-11.36-32.83-17.82-48.91-4-9.92-7.81-20-12.67-29.59-7.64-15-15.27-30-23.76-44.57-7.49-12.82-15.56-25.44-25.09-36.87-11.85-14.21-24.81-27.3-40.19-38-16-11.19-30.91-24-46.84-35.3-22.39-15.92-45.08-31.41-69-45.11C583.28,195,549.17,180.08,513,170.14c-25.29-6.95-51.29-10.73-76.91-16.25-23.84-5.14-47.77-9.85-71.91-13.41a562.46,562.46,0,0,0-62.44-5.94c-43.82-1.54-86.77,3.92-129,15.16-21.33,5.66-42.13,13.06-63.14,19.78-27.18,8.7-54.4,17.26-81.59,25.94-2.31.74-3.57.61-5.19-1.67-4.29-6.06-8.94-11.88-13.75-17.53-3.08-3.62-2.74-5.76,1.83-7.19A10.47,10.47,0,0,0,13,167.76Z"/><path class="cls-6" d="M4.2,71.79a12.47,12.47,0,0,1-.8-2.86C2.91,59,2.53,49,2,39.07c-.12-2.32.43-3.54,3.06-4C49.79,26.49,94.45,17.75,139.15,9.25c28.82-5.47,58-7.16,87.27-8.42Q259.6-.61,292.79.44A1031.7,1031.7,0,0,1,410,10.64,909.8,909.8,0,0,1,525.32,35.17c23.15,6.52,45.89,14.31,68.43,22.73,26.87,10,53.23,21.3,79.15,33.51,14.84,7,29.38,14.62,43.84,22.4,22.9,12.33,45,25.91,66.84,40,11,7.1,21.32,15.16,32,22.68,14.48,10.17,27.92,21.65,41.78,32.61,4.93,3.89,9.51,8.24,14.1,12.49,10.91,10.1,21.89,20.15,32.19,30.95,13,13.63,25.73,27.42,37.45,42.19,8.31,10.48,16.31,21.13,23.86,32.17,9,13.22,17,27,25.09,40.84,8.72,14.94,17.17,30,25.27,45.29,9,16.91,17.59,33.91,25.23,51.47,2.42,5.56,4.86,11.12,7.17,16.74,1,2.39,1,3.92-2.23,4.11-15.92.93-31.75,3.19-47.72,3.41-2.26-1.17-2.32-3.48-2.9-5.52-5.29-18.68-10-37.55-17.59-55.5-2.08-4.9-3.5-10.06-5.57-14.95-5.91-13.9-12.29-27.55-19-41.09-6.43-13-13.55-25.57-21.07-37.88-12-19.72-26-38.11-40.8-55.89-13.59-16.3-29-30.74-44.74-44.71A314.69,314.69,0,0,0,795,196.8c-22.74-13.18-45.85-25.72-69-38.13-14.51-7.77-29.28-15-44-22.35-26.4-13.07-53.17-25.29-80.42-36.44q-34-13.9-68.8-25.46A888.52,888.52,0,0,0,422.15,45.75c-24.69-4.76-49.57-8.12-74.59-10.59a814.76,814.76,0,0,0-96.16-3.79c-20.43.4-40.83,1.76-61.19,3.63-16.91,1.55-33.77,3.37-50.51,6.2-13.31,2.24-26.29,6-39.41,9.07C70.32,57.33,40.4,64.6,10.42,71.6,8.4,72.07,6.31,73.27,4.2,71.79Z"/><path class="cls-7" d="M4.2,71.79c38-9,76.18-17.5,114-27.17,21.3-5.45,42.92-8.17,64.61-10.45,17-1.77,34-2.61,51.09-3.49,19-1,37.91-1,56.83-.51,18.52.52,37,1.73,55.53,3.51a851,851,0,0,1,93.2,14.16c26.45,5.54,52.55,12.44,78.39,20.34,27.43,8.38,54.39,18.12,80.91,29q29.21,12,57.82,25.45c17.83,8.42,35.51,17.14,53.16,25.92,10.82,5.38,21.33,11.38,32,17.13,13.83,7.47,27.82,14.68,41.42,22.56,10.73,6.22,21.45,12.49,31.75,19.47a387.73,387.73,0,0,1,52.36,43.22c7.6,7.38,14.88,15,21.84,23a402.64,402.64,0,0,1,34,44.3c11.11,17,21.82,34.25,30.63,52.69,3.91,8.18,7.23,16.71,11.67,24.57,5.6,9.92,8.06,21,12.88,31.08,5.68,11.91,7.87,24.87,12.47,37,3.12,8.23,4.41,16.85,7,25.17-13.49.59-27,1.2-40.48,1.74a28.56,28.56,0,0,1-4.38-.51c-2.82-3.72-3.34-8.3-4.43-12.59-4.56-17.93-11.36-35.12-18-52.28a460.51,460.51,0,0,0-21.82-47.49c-11.39-21.6-23.23-43-37.63-62.75A447.69,447.69,0,0,0,826.43,262c-24.32-24.38-52.08-43.69-82.47-59.69-19.27-10.14-38.24-20.88-57.48-31.1C656.83,155.42,627,140,596.25,126.36c-20.25-9-40.76-17.26-61.67-24.5C488.81,86,441.68,76,393.63,70.19c-22.45-2.71-45-4.51-67.52-6.18-32.59-2.41-65.21-2.53-97.76-1.51-40.76,1.28-81.23,6-121,15.53a568.17,568.17,0,0,0-92.7,30.84,16,16,0,0,1-4.26,1.4c-1.22.16-2.91,0-2.91-1.2,0-4.18-3.36-8.2-.67-12.49l-1-17.69C4.25,77,5.57,74.45,4.07,72.61A3.19,3.19,0,0,1,4.2,71.79Z"/><path class="cls-8" d="M6.77,96.58l1.05,7.86c.77,5.69.76,5.65,5.89,3.38A535.63,535.63,0,0,1,127.79,72.13c20.6-4,41.47-6.4,62.4-8.5,36.32-3.64,72.71-3.26,109.05-2.46,21.47.47,42.95,2.39,64.4,4.41A866.26,866.26,0,0,1,452,78.11c18.32,3.65,36.47,8.22,54.47,13.44a669.15,669.15,0,0,1,79.41,28.66c24.08,10.44,47.7,21.86,71,34Q685.06,169,713.05,184c19.54,10.55,39.12,21,58.3,32.22,11.68,6.82,22.36,15.23,33,23.7a334.45,334.45,0,0,1,28.42,26.19c6.81,6.88,13.09,14.43,19.36,21.91C863,301,872.38,315,882.15,328.65A186.54,186.54,0,0,1,895,349.82c7.39,14.06,15.48,27.77,22.12,42.28,3.85,8.4,7.06,17.11,11.21,25.33,5.8,11.45,8.74,23.9,13.62,35.62,5,12,7.93,24.44,10.94,36.94-9.62,1.68-19.34.33-29,1-3.33,0-6.66,0-10,0-6.91,0-7.47-.31-8.93-6.92-2.65-12-5.26-24-9-35.67-4.36-13.69-8.55-27.49-13.91-40.8-7.08-17.61-14.63-35.12-23.89-51.7-13.1-23.48-28.15-45.75-48.8-63.35-13.84-11.79-27.7-23.6-42-34.86-13.93-11-27.87-21.89-42.31-32.16a750.26,750.26,0,0,0-71-44.62,702.45,702.45,0,0,0-164.66-65.55,806,806,0,0,0-80.85-16.54c-25.11-3.77-50.32-6.42-75.65-8.28-32.57-2.39-65.17-2.5-97.73-1.38a685.8,685.8,0,0,0-91.44,9.47c-23.6,4-46.92,9-69.41,17.22-17.14,6.28-33.46,14.47-49.86,22.46-3,1.46-6,2.76-9,4.31-5.35,2.82-5.32,2.88-5.86-3-1.26-10.34-2.55-20.69-3.74-31a25.92,25.92,0,0,0-1.44-5.62C3.75,100.79,1.9,97.17,6.77,96.58Z"/><path class="cls-9" d="M4.07,72.61c3,1.44,1.45,4.09,1.66,6.28C2.42,77.52,4.34,74.78,4.07,72.61Z"/></g></g></svg>