<svg width="1625" height="995" viewBox="0 0 1625 995" fill="none" xmlns="http://www.w3.org/2000/svg">
<g clip-path="url(#clip0)">
<mask id="mask0" mask-type="alpha" maskUnits="userSpaceOnUse" x="395" y="-44" width="1244" height="944">
<path d="M1443 900L395 332L567 18L895 -44L1267 160L1623 496L1639 620L1443 900Z" fill="#C4C4C4"/>
</mask>
<g mask="url(#mask0)">
<path d="M744.4 31.0996C744.4 31.0996 669.4 159.1 692.4 237.1C715.4 315.1 713.4 405.6 744.4 436.6C775.4 467.6 774.7 478.8 818.1 482.1C861.4 485.4 959.4 416.8 972.8 374.1C986.1 331.4 982.1 320.1 983.5 314.1C984.8 308.1 986.2 325.1 1006.2 301.6C1026.2 278.1 1037.5 260.1 1032.2 231.4C1026.9 202.7 1026.9 197.4 1026.9 197.4L947.6 35.3996L744.4 31.0996Z" fill="#878787"/>
<path d="M716.7 36.0996C716.7 36.0996 687.4 94.7996 673.4 117.4C659.4 140 658.7 167.8 660.7 183.9C662.7 200 662.7 200 662.7 200C662.7 200 670.7 192.7 673.4 200C676.1 207.3 693.1 239 694.9 246C696.7 253 699.4 250 699.4 250C699.4 250 691.4 214.7 692.7 209.3C692.7 209.3 694.7 202 694 190C693.3 178 698 195.3 702.7 208.7C707.4 222 706.7 213.4 706.7 213.4C706.7 213.4 717.4 212.1 716.7 215.4C716 218.7 712.7 202.1 712.7 202.1C712.7 202.1 722 193.2 722 184C722 174.8 728 173.5 728 191.5C728 209.5 733.3 218.2 736 224.8C738.7 231.5 740 212.8 740 212.8C740 212.8 744.7 180.8 746.7 172.1C748.7 163.4 749.4 186.8 753.4 204.1C757.4 221.4 756.7 216.8 753.4 222.1C750.1 227.4 769.4 220.8 769.4 213.4C769.4 206 777.4 216.7 779.4 218.7C781.4 220.7 775.4 234 777.4 216.7C779.4 199.4 777.4 194.7 782.7 202.7C788 210.7 788.7 213.4 795.4 204.7C802.1 196 794.7 197.1 801.4 183.9C808.1 170.7 815.4 138.7 808.7 167.4C802 196.1 814.7 205.4 814.7 205.4C814.7 205.4 815.4 180.1 820 166.7C824.7 153.4 824.7 178.7 828 187.4C831.3 196.1 828 190.7 828 190.7L829.5 157.4C829.5 157.4 844 128.1 844 158.7C844 189.3 836.7 188 844 199.4C851.3 210.8 848 192.7 848 192.7L852.7 155.4C852.7 155.4 858.6 150.7 860.7 167.4C862.8 184.1 862.7 175.4 868.1 162.1C873.4 148.8 876.8 121.4 883.4 139.4C890.1 157.4 887.4 156.7 894.1 169.4C900.8 182.1 895.4 144.7 900.1 158.1C904.8 171.4 905.4 184.8 912.1 194.8C918.8 204.8 915.4 189.5 918.8 190.1C922.1 190.8 923.5 198.8 932.1 222.1C940.8 245.4 945.4 243.9 947.4 256.7C949.4 269.5 945.4 287.8 953.4 301.6C961.4 315.4 952.7 306.8 946.7 324.8C940.7 342.8 944.7 342.1 935.4 352.1C926.1 362.1 926.1 356.8 916.1 372.1C906.1 387.4 912.8 391.4 910.1 398.8C907.4 406.1 878.8 385.5 867.4 381.5C856.1 377.5 836.1 369.5 824.1 371.5C812.1 373.5 818.5 372.8 808.3 376.2C798.1 379.5 791.4 384 778.8 400.4C766.1 416.8 747.5 421.5 747.5 421.5C747.5 421.5 786.8 407.5 798.8 398.8C810.8 390.1 831.5 388.8 841.5 388.8C851.5 388.8 855.5 389.5 868.8 400.8C882.1 412.1 907.5 436.8 907.5 436.8C907.5 436.8 912.6 433.9 927.4 429.7C942.2 425.5 975.5 384.8 978.9 374.1C982.2 363.4 988.9 310.1 986.9 307.4C984.9 304.7 982.2 282.1 975.6 250.7C968.9 219.4 978.3 216 980.9 220C983.6 224 987.3 209.3 987.3 209.3C987.3 209.3 1004.9 189.3 1011.6 192.6C1018.3 195.9 1027.4 202 1027.4 202C1027.4 202 1015.6 108.6 1010.9 93.9996C1006.2 79.2996 960.9 9.29957 919.6 4.69957C878.3 0.0995708 736.7 -11.9004 716.7 36.0996Z" fill="#505050"/>
<path d="M747.4 245.5C747.4 245.5 743.4 244.2 734.7 241.5C726 238.8 718.7 233.5 718.7 233.5L688 233.7L739.4 328.5C739.4 328.5 751.4 310.8 752.7 308.8C754 306.8 757.4 308.1 763.4 297.5C769.4 286.9 771.7 254.7 747.4 245.5Z" fill="#505050"/>
<path d="M659.9 351.9C658.6 347.7 617.6 417.1 595.5 456.1C573.4 495.1 549.7 519.1 533.1 563.1C516.5 607.1 420 756.1 420 756.1L460.1 752.1L548.6 622.4C548.6 622.4 565.4 621.1 589.4 591.1C613.4 561.1 665.4 529.1 665.4 529.1C665.4 529.1 730.7 378.3 710 346.7C689.4 315.1 659.9 351.9 659.9 351.9Z" fill="#505050"/>
<path d="M444.1 741.5L617.8 488.7L636.1 494.2L460.1 752.2C460.1 752.2 439.5 766.2 444.1 741.5Z" fill="#404040"/>
<path d="M683.4 361.5C718.746 361.5 747.4 332.846 747.4 297.5C747.4 262.154 718.746 233.5 683.4 233.5C648.054 233.5 619.4 262.154 619.4 297.5C619.4 332.846 648.054 361.5 683.4 361.5Z" fill="#505050"/>
<path d="M683.4 353.5C714.328 353.5 739.4 328.428 739.4 297.5C739.4 266.572 714.328 241.5 683.4 241.5C652.472 241.5 627.4 266.572 627.4 297.5C627.4 328.428 652.472 353.5 683.4 353.5Z" fill="#8C8C8C"/>
<path d="M737.2 332.2C730.6 340.7 727.4 367.5 731.4 372.1C735.4 376.8 724.7 365.4 744.1 372.1C763.4 378.8 768.8 376.8 780.8 385.4C792.8 394 806.8 390.7 812.8 399.4C818.8 408.1 806.1 410.7 806.1 410.7L796.8 425.4C796.8 425.4 794.8 452.7 776.1 462.1C757.4 471.4 754.1 464.1 739.4 470.1C724.7 476.1 725.4 519.4 714.7 527.4C704 535.4 638.7 552.7 638.7 552.7C638.7 552.7 587.4 538.7 584 536C580.7 533.3 603.8 503.2 607 494.2C610.3 485.3 737.2 332.2 737.2 332.2Z" fill="#505050"/>
<path d="M1094.7 332.2C1083 328.4 1010 318.1 994 320.8C978 323.5 978 351.5 965.3 361.5C952.6 371.5 937.5 378.6 888.7 392.7C839.9 406.8 827.4 406.5 809.3 409.7C791.2 412.9 793.9 421.6 762.6 456.2C731.3 490.8 718.7 482.4 711 529.6C703.3 576.8 739.3 630.8 739.3 630.8C739.3 630.8 1049.3 639.5 1108 630.8C1166.7 622.1 1281.3 603.5 1281.3 603.5C1281.3 603.5 1225.3 441.5 1196 410.8C1166.7 380.1 1164.1 355 1094.7 332.2Z" fill="#404040"/>
<path d="M669 359.9C667.9 361.2 665.4 365.5 648.7 392.9C632 420.2 610.7 484.9 605.4 498.9C600.1 512.9 586.1 521.6 605.4 517.6C624.7 513.6 653.7 499.2 659.9 482.4C666.1 465.6 692.7 438.3 703.4 413.6C714.1 388.8 692.7 330.9 669 359.9Z" fill="#404040"/>
<path d="M679.9 241.5H676.4V355.2H679.9V241.5Z" fill="#505050"/>
<path d="M626.541 298.267L626.541 301.767L740.241 301.767L740.241 298.267L626.541 298.267Z" fill="#505050"/>
</g>
</g>
<g clip-path="url(#clip1)">
<path d="M1301.04 393.544L1198.05 477.485C1198.05 477.485 1176.88 497.475 1197.57 514.605C1218.18 531.716 1351.7 614.75 1351.7 614.75C1351.7 614.75 1377.2 624.718 1395.77 605.58C1414.33 586.442 1495.78 518.92 1495.78 518.92C1495.78 518.92 1515.38 499.12 1501.23 486.395C1487.07 473.671 1343.75 389.623 1343.75 389.623C1343.75 389.623 1323.76 374.975 1301.04 393.544Z" fill="#505050"/>
<path d="M1258.84 360.534C1258.84 360.534 1074.6 519.557 1067.22 528.652C1059.83 537.748 1040.8 526.804 1028.72 550.964C1016.65 575.123 1005.55 637.084 1007.67 645.611C1009.8 654.138 1021.01 670.055 1041.89 666.645C1062.76 663.234 1369.42 864.331 1375.24 868.31C1381.06 872.289 1601.67 658.269 1612.33 640.505C1622.99 622.741 1638.21 560.353 1638.21 560.353C1638.21 560.353 1295.2 353.856 1284.98 351.582C1274.75 349.308 1270.71 350.198 1258.84 360.534Z" fill="#8B8E8E"/>
<path d="M1627.1 562.447C1619.3 571.003 1613.11 580.723 1605.07 589.136C1595.63 599.027 1584.54 607.478 1574.14 616.44C1563.64 625.469 1554.21 635.275 1544.58 645.213C1535.3 654.782 1525.87 664.228 1515.78 672.991C1506.01 681.556 1496.1 689.912 1485.76 697.813C1482.63 700.248 1479.45 702.494 1476.25 704.824C1467.46 712.981 1459.06 721.404 1449.92 729.125C1445.6 736.487 1439.95 742.569 1433.05 747.477C1425.95 754.488 1417.44 759.395 1407.6 762.218C1397.68 765.828 1387.73 766.747 1377.58 764.937C1367.03 764.918 1357.16 762.274 1347.81 756.883C1338.49 752.127 1329.14 747.541 1319.99 742.463C1308.64 736.001 1298.09 728.374 1287.54 720.747C1269.58 708.611 1250.76 697.98 1231.5 688.06C1215.36 679.817 1200.03 669.964 1186.07 658.358C1180.03 653.346 1149.35 633.724 1139.51 629.745C1133.04 627.054 1126.51 624.259 1120.4 620.753C1109.12 614.396 1098.57 605.964 1088.15 598.545C1066.1 582.723 1049.44 569.174 1027.41 553.266C1015.79 578.961 1005.4 637.322 1007.5 645.574C1009.63 654.101 1020.84 670.018 1041.72 666.607C1062.59 663.197 1370.59 864.682 1376.41 868.661C1382.23 872.641 1601.5 658.232 1612.16 640.468C1622.37 623.5 1636.85 565.242 1638.03 560.316C1636.18 562.23 1629.43 560.818 1627.1 562.447Z" fill="#404040"/>
<path d="M1400.44 786.756C1400.44 786.756 1328.57 746.518 1324.65 745.646C1320.73 744.775 1563.87 515.899 1563.87 515.899L1638.1 560.42C1638.1 560.42 1414.04 780.295 1400.44 786.756Z" fill="#7F8080"/>
<path d="M1312.87 400.65L1212.46 485.074C1212.46 485.074 1195.25 500.934 1211.85 514.738C1228.45 528.542 1347.98 596.92 1347.98 596.92C1347.98 596.92 1371.08 605.637 1391.05 591.018C1411.02 576.4 1483.72 512.033 1483.72 512.033C1483.72 512.033 1495.69 495.633 1474.94 484.396C1454.17 473.244 1343.79 401.532 1343.79 401.532C1343.79 401.532 1319.46 395.136 1312.87 400.65Z" fill="#878787"/>
<path d="M1320.81 415.571L1238.45 483.16C1238.45 483.16 1223.84 495.391 1233.9 503.624C1243.96 511.857 1266.43 523.388 1266.43 523.388C1266.43 523.388 1284.07 529.726 1298.57 515.591C1313.07 501.456 1365.83 457.174 1365.83 457.174C1365.83 457.174 1380.33 445.454 1364.54 436.037C1348.77 426.534 1328.69 409.091 1320.81 415.571Z" fill="#505050"/>
<path d="M1315.67 433.488L1247.64 492.9C1247.64 492.9 1239.53 500.043 1247.67 506.06C1255.89 512.095 1271.42 519.845 1271.42 519.845C1271.42 519.845 1279.47 523.872 1285.37 516.236C1291.27 508.599 1346.76 462.508 1346.76 462.508C1346.76 462.508 1349.39 453.517 1346.09 452.247C1342.8 450.978 1319.1 430.494 1315.67 433.488Z" fill="#878787"/>
<path d="M1304.24 531.887L1293.63 539.372L1288.85 546.809L1299.59 552.778L1314.27 543.067L1313.47 536.625L1304.24 531.887Z" fill="#505050"/>
<path d="M1328.85 510.874L1318.25 518.358L1313.46 525.795L1324.21 531.764L1338.88 522.053L1338.08 515.611L1328.85 510.874Z" fill="#505050"/>
<path d="M1352.75 489.88L1342.12 497.449L1337.34 504.887L1348.08 510.855L1362.76 501.145L1361.96 494.702L1352.75 489.88Z" fill="#505050"/>
<path d="M1377.05 469.064L1366.44 476.549L1361.66 483.986L1372.4 489.955L1387.08 480.244L1386.27 473.801L1377.05 469.064Z" fill="#505050"/>
<path d="M1400.77 448.032L1390.14 455.602L1385.36 463.039L1396.1 469.008L1410.78 459.297L1409.98 452.854L1400.77 448.032Z" fill="#505050"/>
<path d="M1424.25 464.262L1413.64 471.747L1408.86 479.184L1419.6 485.153L1434.28 475.442L1433.48 469L1424.25 464.262Z" fill="#505050"/>
<path d="M1401.21 485.446L1390.6 492.93L1385.82 500.368L1396.56 506.337L1411.24 496.626L1410.44 490.183L1401.21 485.446Z" fill="#505050"/>
<path d="M1377.42 506.375L1366.8 513.944L1362.01 521.382L1372.75 527.351L1387.43 517.64L1386.63 511.197L1377.42 506.375Z" fill="#505050"/>
<path d="M1351.82 526.99L1341.22 534.474L1336.43 541.912L1347.18 547.881L1361.85 538.17L1361.05 531.727L1351.82 526.99Z" fill="#505050"/>
<path d="M1327.61 547.823L1316.98 555.393L1312.2 562.83L1322.94 568.799L1337.62 559.088L1336.82 552.645L1327.61 547.823Z" fill="#505050"/>
<path d="M1385.9 534.57C1385.9 534.57 1376.1 545.276 1374.36 547.483C1372.7 549.709 1376.18 552.542 1377.08 554.532C1377.98 556.522 1393.58 562.765 1393.58 562.765C1393.58 562.765 1396.64 563.088 1403.45 558.966C1410.27 554.845 1413.5 547.152 1411.06 546.072C1408.66 544.821 1390.64 529.359 1385.9 534.57Z" fill="#505050"/>
<path d="M1419.07 507.227L1406.02 520.074L1401.27 526.981L1424.04 541.174L1443.7 521.117L1435.97 516.891L1419.07 507.227Z" fill="#505050"/>
<path d="M1255.51 433.799C1253.56 432.918 1252.41 431.677 1251.78 429.659C1251.13 430.587 1250.48 431.516 1249.8 432.529C1259.16 432.283 1268.52 429.176 1275.84 423.198C1281.42 418.622 1285.85 410.749 1280.39 404.344C1275.15 398.167 1265.46 398.337 1258.19 397.257C1252.3 396.394 1246.49 395.191 1240.89 393.41C1236.9 392.074 1225.72 388.871 1226.15 383.329C1225.45 384.068 1224.73 384.892 1224.11 385.65C1234.45 384.997 1245.3 381.236 1250.94 371.932C1256.27 363.272 1255.28 352.045 1247.38 345.366C1239.09 338.421 1225.78 335.55 1215.41 338.345C1205.9 340.884 1198.23 348.842 1195.51 358.26C1192.68 368.189 1195.93 379.292 1206.21 382.921C1215.42 386.133 1226.87 383.31 1232.74 375.399C1238.75 367.251 1237.81 355.409 1231.89 347.469C1225.59 339.179 1214.86 335.181 1204.63 335.768C1194.41 336.27 1184.37 341.196 1177.65 348.918C1174.4 352.669 1171.28 357.435 1170.95 362.551C1170.66 368.302 1174.37 372.888 1177.85 376.971C1180.45 380.145 1184.72 386.284 1189.32 386.502C1193.56 386.73 1194.34 382.428 1194.36 379.122C1194.49 368.056 1190.47 356.782 1183.62 348.188C1178.31 341.547 1167.96 333.787 1160.14 341.622C1152.77 349.021 1155.61 363.167 1155.98 372.376C1156.16 375.995 1156.34 379.614 1156.41 383.299C1156.51 385.289 1156.73 389.098 1154.86 390.291C1153.71 391.021 1151.63 389.931 1150.7 389.278C1145.65 385.469 1149.41 375.388 1149.85 370.206C1150.46 363.811 1150.21 357.311 1149.03 350.964C1148.26 346.406 1147.25 340.902 1143.34 337.974C1139.8 335.397 1135.39 336.297 1132.62 339.528C1129.35 343.365 1129.99 348.519 1131.23 353C1132.91 359.102 1135.58 364.796 1137.87 370.585C1140.29 376.582 1142.54 384.152 1137.9 389.742C1130.34 398.799 1114.89 395.9 1106.14 390.641C1100.93 387.515 1096.04 382.578 1094.61 376.534C1093.24 371.039 1094.81 362.796 1101.65 362.171C1108.5 361.546 1114.75 368.396 1118.57 373.36C1122.1 377.993 1124.86 383.261 1126.84 388.804C1130.84 399.803 1132.59 412.006 1132.13 423.716C1131.9 430.377 1130.07 437.397 1123.52 440.325C1118.83 442.504 1113.28 442.162 1108.41 440.722C1097.03 437.207 1083.83 422.19 1093.65 410.594C1102.25 400.513 1119.61 406.075 1125.73 415.938C1131.58 425.384 1127.43 439.226 1116.93 443.423C1111.42 445.687 1104.49 444.682 1098.69 443.839C1093.42 443.024 1087.9 441.707 1083.37 438.732C1078.07 435.227 1072.93 427.372 1077.99 421.517C1082.91 415.899 1091.2 417.207 1097.18 420.059C1108.65 425.563 1115.89 439.254 1109.64 451.286C1106.25 457.691 1099.76 460.722 1092.84 461.689C1086.49 462.513 1078.76 462.674 1072.78 459.822C1069.8 458.353 1067.3 455.918 1066.31 452.744C1064.86 448.396 1067.47 445.127 1070.22 441.982C1072.26 439.661 1074.48 437.292 1077.29 435.947C1080.97 434.26 1084.74 435.009 1088.5 435.757C1094.91 437.093 1100.8 439.566 1102.59 446.407C1104 451.731 1102.48 457.747 1099.03 461.992C1095.11 466.757 1089.32 469.495 1083.45 470.964C1077.78 472.299 1068 474.062 1063.82 468.746C1058.19 461.498 1071.33 456.278 1076.4 454.81C1079.57 453.815 1082.9 453.304 1086.23 453.237C1087.75 453.218 1089.76 453.038 1091.29 453.38C1094 454.071 1094.92 455.976 1095.6 458.543C1097.65 465.8 1098.87 473.588 1093.46 479.813C1088.7 485.109 1081.6 487.288 1074.85 488.292C1072.17 488.68 1068.87 489.467 1066.15 489.22C1060.12 488.595 1060.66 481.736 1062.98 477.775C1066.22 472.053 1073.13 467.505 1079.04 465.061C1086.01 462.228 1094.7 463.356 1096.8 471.608C1098.5 478.07 1096.76 485.469 1093.45 491.087C1090.29 496.469 1085.1 501.31 1078.55 501.821C1070.62 502.475 1068.05 495.549 1071 489.135C1076.09 477.918 1090.03 469.922 1101.15 466.132C1104.34 465.052 1108.81 463.451 1111.14 466.653C1112.78 468.899 1112.23 472.982 1111.41 475.483C1110.84 477.236 1110.13 479.226 1108.06 478.496C1106.48 477.966 1105.62 476.165 1105.04 474.782C1103.49 471.305 1103.26 467.496 1103.57 463.716C1104.05 458.723 1105.21 449.495 1110.68 447.402C1114.01 446.085 1117.74 448.614 1119.34 451.476C1121.25 454.943 1120.75 459.216 1119.95 462.797C1119.35 465.526 1123.61 466.474 1124.21 463.745C1125.48 458.032 1125.56 451.248 1121.29 446.72C1117.55 442.665 1111.33 441.281 1106.72 444.73C1101.98 448.33 1100.32 455.388 1099.51 461.025C1098.59 467.174 1098.82 475.009 1103.06 480.069C1105.9 483.385 1111.13 485.176 1114.05 480.903C1116.68 477.104 1117.46 469.581 1115.36 465.355C1109.48 453.219 1088.54 466.549 1081.74 471.39C1073.64 477.283 1059.38 490.31 1067.1 501.423C1074.56 512.12 1089.63 503.84 1095.32 495.976C1101.9 486.881 1106.01 468.018 1094.1 461.253C1082.6 454.668 1066.03 464.853 1059.57 474.601C1056.58 479.215 1055.18 485.885 1058.98 490.49C1063.27 495.739 1072.23 493.256 1077.83 492.177C1091.83 489.562 1103.67 480.116 1101.3 464.645C1100.47 459.538 1099.66 451.125 1093.77 449.457C1087.29 447.657 1079.09 449.144 1072.88 451.342C1067.44 453.266 1060.58 456.392 1058.48 462.19C1056.61 467.41 1059.73 472.669 1064.41 474.962C1070.2 477.861 1077.77 476.771 1083.9 475.36C1090.3 473.92 1096.6 470.935 1101.17 466.047C1108.44 458.269 1110 444.029 1101.38 436.563C1096.57 432.451 1088.82 430.727 1082.61 430.509C1075.59 430.291 1070.79 434.592 1066.39 439.518C1062.19 444.312 1059.77 449.589 1062.68 455.786C1065.53 461.878 1071.73 464.957 1078.13 465.933C1090.76 467.847 1106.76 465.857 1113.29 453.352C1119.36 441.727 1115.02 427.875 1105.06 420.021C1096.15 413.029 1078.76 408.803 1072.61 421.574C1066.68 433.767 1080.3 443.687 1090.38 446.643C1101.47 449.827 1116.45 451.637 1125.37 442.883C1133.59 434.868 1135.13 421.518 1128.27 412.12C1121.06 402.371 1107.03 397.908 1095.9 403.308C1083.67 409.267 1083.76 424.947 1091.56 434.469C1098.89 443.346 1112.14 448.889 1123.49 444.882C1137.19 439.965 1136.92 423.887 1135.95 411.769C1134.91 398.382 1131.5 384.739 1123.99 373.493C1118.35 365.08 1104.6 350.925 1094.18 360.778C1085.01 369.475 1091.15 384.085 1099.27 390.992C1108.36 398.742 1122.65 402.456 1134 397.643C1138.84 395.587 1142.82 391.731 1144.34 386.521C1146.27 379.434 1143.31 372.243 1140.63 365.829C1139.23 362.475 1137.83 359.121 1136.64 355.634C1135.28 351.665 1132.63 345.525 1136.26 342.039C1143.92 334.526 1145.85 360.457 1145.82 364.209C1145.78 372.432 1138.48 394.791 1153.89 394.64C1160.43 394.574 1161 387.989 1160.79 382.93C1160.41 374.166 1159.61 365.308 1159.76 356.573C1159.84 348.984 1163.42 338.95 1172.89 344.19C1179.66 347.932 1184.46 356.071 1187.1 363.101C1188.33 366.417 1189.25 369.932 1189.64 373.418C1189.87 375.171 1189.94 376.886 1189.98 378.686C1190.03 379.681 1190.29 380.543 1189.4 381.329C1188.3 382.248 1187.52 380.912 1186.48 379.965C1183.29 377.018 1180.3 373.579 1177.81 369.894C1174.84 365.564 1174.71 361.329 1177.34 356.724C1184.79 343.347 1202.38 336.611 1216.79 341.784C1224.16 344.409 1230.3 350.16 1232.05 357.976C1233.7 365.859 1230.65 373.95 1223.29 377.682C1216.16 381.197 1204.92 380.666 1200.62 373.087C1196.71 366.133 1199.43 356.715 1204.02 350.936C1208.99 344.702 1216.23 341.481 1224.15 341.633C1231.97 341.851 1241.72 344.646 1246.84 350.975C1252.03 357.408 1250.36 366.522 1245.13 372.339C1239.85 378.412 1231.58 380.601 1223.87 381.121C1222.6 381.197 1221.92 382.211 1221.83 383.443C1221.28 390.747 1231.3 394.319 1236.67 396.318C1245.74 399.767 1255.19 401.065 1264.75 402.297C1268.13 402.78 1271.85 403.339 1274.85 405.168C1279.81 408.152 1279.19 413.382 1275.61 417.418C1269.29 424.514 1258.83 427.735 1249.65 428.02C1248.21 428.057 1247.25 429.545 1247.67 430.89C1248.57 434.045 1250.49 436.262 1253.51 437.56C1256.02 438.745 1258.12 434.917 1255.51 433.799Z" fill="#404040"/>
<path d="M1013.2 590.197C1006.13 594.261 1001.64 585.118 1000.06 579.756C999.782 580.59 999.422 581.404 999.147 582.238C1006.15 578.069 1005.52 567.638 998.009 564.445C992.784 562.209 986.355 564.18 981.49 561.129C978.736 559.443 976.891 556.079 976.703 552.905C976.505 550.177 978.134 547.676 977.577 544.956C976.821 541.119 973.035 538.845 969.457 538.05C966.816 537.462 964.108 537.576 961.495 538.068C960.103 538.296 958.172 538.94 956.865 538.381C955.152 537.642 953.884 535.302 953.166 533.71C951.548 530.129 951.748 526.415 953.179 522.796C954.07 520.399 955.283 518.163 954.981 515.501C954.499 511.635 951.584 509.465 947.807 509.967C947.068 510.072 945.733 510.849 945.071 510.612C943.386 510.147 943.226 507.248 943.188 505.808C942.991 501.469 944.147 498.684 947.509 496.031C950.331 493.795 953.229 491.218 952.255 487.153C951.802 485.173 950.43 483.705 949.143 482.255C948.792 481.819 947.647 480.938 947.572 480.474C947.373 479.356 949.05 477.044 949.892 476.874C951.635 476.277 954.541 477.281 956.169 478.001C959.728 479.688 963.636 483.421 967.557 480.266C969.072 479.082 969.47 477.291 970.616 475.756C973.382 472.166 976.704 474.515 979.553 476.581C982.723 478.807 986.329 481.488 990.457 480.617C992.436 480.162 993.781 478.94 995.012 477.424C995.751 476.515 996.556 474.904 998.099 475.605C999.727 476.325 999.555 480.314 999.829 481.896C1000.48 485.799 1002.89 489.021 1006.86 490.082C1009.31 490.717 1011.43 490.025 1013.81 489.39C1017.91 488.244 1017.01 491.892 1018.58 494.478C1021.26 498.922 1026.9 499.282 1030.23 502.797C1032.69 505.402 1032.76 509.893 1033.93 513.105C1034.84 515.814 1036.14 518.429 1037.58 520.807C1040.72 525.98 1044.98 530.149 1049.96 533.494C1050.07 532.177 1050.18 530.86 1050.32 529.458C1048.78 529.922 1047.25 530.386 1045.63 530.831C1042.94 531.665 1044.26 535.805 1046.95 534.972C1048.48 534.507 1050.01 534.043 1051.63 533.598C1053.54 533.039 1053.46 530.604 1051.99 529.562C1046.71 525.971 1042.42 521.168 1039.66 515.455C1037.32 510.727 1037.33 504.644 1034.06 500.428C1031.15 496.648 1025.44 496.184 1022.68 492.527C1021.36 490.802 1021.55 488.339 1020.26 486.529C1018.96 484.72 1017.02 484.199 1014.91 484.445C1012.06 484.795 1009.67 486.681 1006.81 485.061C1003.38 483.222 1004.36 479.234 1003.45 476.079C1002.38 472.441 998.783 469.314 994.976 471.152C993.177 472.005 992.571 473.928 991.141 475.131C988.073 477.67 984.561 474.563 982.101 472.763C978.949 470.451 974.841 468.016 970.855 469.456C969.283 470.091 968.251 471.114 967.313 472.516C966.66 473.444 966.385 475.083 965.513 475.785C963.61 477.509 961.66 475.822 960.004 474.828C955.981 472.412 950.396 470.99 945.852 472.932C941.809 474.628 941.778 479.185 943.898 482.52C945.156 484.501 948.857 486.755 947.805 489.475C947.037 491.72 943.222 493.198 941.678 494.913C937.378 499.773 936.217 516.249 945.808 514.534C947.578 514.212 948.487 513.34 949.755 514.875C951.307 516.742 949.678 519.243 948.882 521.213C947.887 523.677 947.422 526.168 947.554 528.793C947.817 533.236 949.765 538.144 953.333 540.996C958.501 545.098 964.846 539.887 970.553 542.768C974.5 544.72 972.236 548.869 972.301 552.195C972.347 554.8 973.113 557.387 974.4 559.641C977.257 564.483 982.009 566.435 987.357 566.908C990.86 567.24 995.149 566.852 997.903 569.344C1000.81 571.958 999.907 576.411 996.716 578.297C995.883 578.827 995.551 579.917 995.806 580.779C998.226 589.192 1005.58 599.15 1015.41 593.551C1017.96 592.508 1015.65 588.861 1013.2 590.197Z" fill="#404040"/>
<path d="M1017.1 585.157C1010.87 580.192 1002.81 578.222 995.058 580.524C994.869 580.571 992.88 581.471 992.54 581.395C990.343 580.817 990.6 578.458 990.752 576.971C990.914 575.038 991.435 573.096 991.852 571.22C992.63 567.724 993.256 564.105 991.771 560.732C988.281 552.707 978.529 553.939 971.847 551.02C963.602 547.486 965.85 536.174 960.419 530.044C957.759 527.126 954.674 525.724 951.001 524.549C947.991 523.611 946.533 522.929 946.885 519.338C947.075 516.875 948.051 514.497 948.582 512.109C949.322 508.784 949.654 505.278 947.942 502.123C947.252 500.806 946.248 499.688 945.245 498.57C942.425 495.169 943.108 492.099 945.798 488.85C948.384 485.666 952.228 483.658 955.031 480.702C956.329 479.29 957.371 477.822 958.129 476.022C958.47 475.292 958.508 474.316 958.982 473.795C960.639 471.569 963.242 473.132 964.842 474.383C967.974 476.78 970.596 479.063 974.638 479.783C979.021 480.579 982.524 479.3 986.482 477.586C989.54 476.297 991.623 475.776 993.923 478.704C995.238 480.428 995.786 481.982 997.746 483.223C1001.6 485.601 1006.67 483.687 1010.35 486.027C1012.7 487.534 1012.21 490.556 1013.29 492.944C1014.14 494.744 1015.36 496.089 1017 497.169C1021.25 500.173 1026.49 499.908 1031.39 499.567C1030.73 498.524 1030 497.378 1029.34 496.336C1026.29 502.816 1026.74 510.433 1030.88 516.364C1032.99 519.339 1035.99 521.528 1039.29 523.158C1040.98 523.982 1053.92 528.113 1052.49 530.927C1051.22 533.418 1055.07 535.437 1056.34 532.945C1060.13 525.555 1048.48 522.428 1043.84 520.41C1039.6 518.572 1035.45 516.308 1033.37 511.997C1031.18 507.752 1031.22 502.75 1033.18 498.354C1033.87 496.895 1032.84 495.057 1031.13 495.123C1028.13 495.35 1024.92 495.71 1022.01 494.706C1018 493.455 1017.45 491.096 1016.47 487.477C1015.51 484.133 1013.64 482.105 1010.27 481.177C1008.5 480.693 1006.72 480.656 1004.88 480.513C1000.93 480.172 999.309 479.007 997.256 475.776C995.316 472.839 992.695 471.361 989.069 471.986C984.325 472.81 980.897 476.164 975.861 475.492C970.569 474.762 968.157 469.93 963.358 468.594C960.328 467.741 957.043 468.442 955.357 471.199C954.116 473.161 953.793 475.415 952.231 477.215C950.526 479.252 948.319 480.73 946.35 482.35C940.583 486.974 936.13 494.127 941.515 500.873C943.596 503.573 945.148 505.439 944.711 509.011C944.455 511.37 943.706 513.53 943.109 515.814C942.322 518.949 941.828 522.777 943.702 525.61C946.058 529.087 950.403 528.443 953.839 530.281C959.168 533.256 960.084 538.381 961.455 543.877C963.752 553.247 970.16 555.388 978.85 557.321C985.495 558.799 989.347 561.982 988.01 569.202C987.146 573.484 985.526 577.956 987.143 582.343C988.94 587.127 992.68 585.99 996.59 584.891C1002.79 583.139 1009.27 584.579 1014.37 588.577C1016.34 590.178 1019.28 586.985 1017.1 585.157Z" fill="#404040"/>
<path d="M1187.74 488.882C1183.84 493.117 1179.46 497.958 1173.4 498.669C1166.05 499.54 1159.61 494.348 1154.8 489.431C1146.95 481.33 1140.04 472.993 1128.79 469.686C1118.31 466.55 1111.8 474.944 1112.44 484.93C1113.07 495.361 1120.63 503.575 1129.66 508C1133.93 510.113 1139 512.226 1143.8 511.146C1148.33 510.094 1151.75 506.38 1153.22 502.145C1156.52 492.946 1151.22 482.192 1145.37 475.162C1139.73 468.36 1129.9 460.269 1120.56 463.291C1111.01 466.446 1101.34 471.723 1093.91 478.572C1089.63 482.542 1085.97 487.364 1083.84 492.888C1081.54 498.819 1081.26 505.29 1078.13 510.946C1074.65 517.331 1069.15 520.761 1062.59 523.328C1058.19 525.034 1053.96 527.942 1054.57 533.267C1054.93 536.033 1059.27 535.834 1058.9 533.068C1058.24 527.999 1065.97 527.033 1069.39 525.29C1072.93 523.48 1076.2 520.808 1078.77 517.71C1084.66 510.519 1084.61 501.917 1088.12 493.75C1091.76 485.432 1098.74 479.378 1106.37 474.811C1110.08 472.594 1114.1 470.624 1118.12 469.013C1120.2 468.132 1122.71 466.9 1124.95 466.863C1127.72 466.853 1130.46 468.625 1132.74 470.027C1140.61 474.821 1147.03 482.96 1149.13 492.017C1150.27 496.925 1149.63 503.045 1145.04 505.963C1140.23 509.099 1133.34 505.508 1129.08 502.95C1120.78 498.061 1112.52 486.559 1118.39 476.678C1124.41 466.474 1141.06 481.273 1145.83 486.361C1152.25 493.249 1158.75 501.406 1168.68 502.989C1178.08 504.543 1184.91 498.366 1190.8 491.98C1192.82 489.744 1189.63 486.798 1187.74 488.882Z" fill="#595A5A"/>
<path d="M1128.27 466.796C1119.12 464.134 1110.09 464.541 1105.14 455.029C1101.06 447.231 1099.76 437.814 1101.15 429.173C1102.4 421.13 1106.12 413.635 1111.49 407.581C1114.23 404.521 1117.42 401.831 1120.92 399.746C1122.8 398.553 1131.81 393.399 1133.95 395.843C1133.78 395 1133.63 394.072 1133.55 393.247C1133.51 393.418 1133.38 393.569 1133.35 393.74C1132.25 396.27 1136.16 398.392 1137.19 395.758C1137.23 395.587 1137.35 395.436 1137.39 395.265C1137.79 394.28 1137.62 393.437 1136.98 392.669C1134.34 389.666 1128.46 391.58 1125.34 392.764C1120.75 394.517 1116.47 397.236 1112.72 400.428C1105 407.032 1099.39 416.165 1097.34 426.179C1095.21 436.175 1096.48 446.928 1100.96 456.156C1103.22 460.865 1106.43 464.891 1111.32 467.051C1116.46 469.269 1122.1 469.629 1127.48 471.183C1130.01 471.836 1130.96 467.573 1128.27 466.796Z" fill="#595A5A"/>
<path d="M1128.76 395.047C1129.88 396.459 1136.01 395.853 1137.73 396.147C1140.22 396.611 1142.76 397.265 1145.26 397.644C1149.48 398.402 1153.65 398.525 1157.82 397.483C1165.67 395.56 1172.2 390.301 1178.27 385.119C1186.31 378.317 1194.15 372.007 1203.66 367.052C1213.88 361.718 1224.69 357.322 1235.54 353.561C1241.25 351.61 1247.06 349.592 1253.16 349.516C1259.43 349.478 1265.27 351.762 1271.3 353.192C1281.43 355.447 1291.12 353.306 1301.21 352.151C1307 351.469 1312.44 351.516 1318.11 352.956C1323.52 354.34 1328.77 356.49 1334.37 357.021C1338.92 357.495 1343.15 356.557 1347.48 355.193C1353.13 353.497 1358.7 352.142 1364.6 351.754C1377.77 350.835 1389.7 354.293 1401.65 359.637C1412.71 364.602 1424.03 369.983 1436.44 368.449C1439.21 368.079 1439.01 363.74 1436.24 364.109C1423.47 365.654 1412.15 359.467 1400.82 354.53C1390.63 350.115 1380.09 347.235 1368.91 347.254C1363.72 347.263 1358.57 347.907 1353.5 349.016C1346.91 350.503 1340.78 353.525 1333.83 352.606C1328.29 351.82 1323.06 349.584 1317.61 348.371C1312.41 347.215 1307.05 347.186 1301.73 347.793C1296.69 348.37 1291.65 349.308 1286.54 349.782C1279.97 350.379 1273.91 349.478 1267.58 347.801C1262.27 346.352 1256.94 344.987 1251.4 345.366C1245.5 345.755 1239.73 347.602 1234.21 349.506C1222.96 353.447 1211.94 357.976 1201.32 363.49C1192.13 368.246 1184.26 374.281 1176.49 381.055C1167.73 388.681 1158.49 395.664 1146.17 393.551C1140.58 392.575 1135 390.708 1129.25 391.665C1126.64 392.158 1122.65 394.403 1125.01 397.435C1126.76 399.614 1130.41 397.293 1128.76 395.047Z" fill="#595A5A"/>
<path d="M1425.22 366.222C1425.12 366.289 1425.03 366.27 1424.93 366.336C1425.61 366.488 1426.38 366.658 1427.06 366.81C1427.17 367.104 1427.29 367.397 1427.4 367.691C1427.08 368.335 1426.76 368.979 1426.43 369.624C1427.29 369.008 1430.01 369.614 1431.07 369.671C1433.11 369.766 1435.14 369.861 1437.18 369.955C1442.02 370.316 1446.86 371.036 1451.54 372.523C1460.5 375.233 1466.12 380.956 1472.61 387.142C1478.88 393.102 1486.58 395.082 1494.01 399.061C1500.64 402.595 1504.47 408.725 1507.75 415.272C1510.77 421.402 1513.35 427.882 1517.6 433.302C1522.26 439.261 1529.38 442.634 1534.06 448.508C1541.95 458.494 1540.28 473.606 1550.56 482.066C1553.81 484.757 1557.85 486.283 1560.17 489.93C1562.17 492.971 1562.99 496.553 1563.63 500.096C1564.31 503.469 1564.73 506.785 1565.6 510.11C1566.09 511.92 1566.6 513.644 1567.41 515.255C1567.65 515.757 1567.9 516.259 1568.15 516.761C1568.35 517.074 1568.54 517.387 1568.66 517.68C1569.09 518.941 1569.56 518.865 1570.13 517.472C1570.82 517.624 1571.58 517.794 1572.26 517.946C1572.11 517.823 1572.05 517.718 1571.88 517.681C1569.67 515.937 1566.73 519.13 1568.93 520.873C1570.45 522.105 1572.71 521.982 1573.59 520.03C1574.71 517.415 1571.24 513.692 1570.51 511.38C1568.02 504.473 1568.29 496.837 1565.13 490.139C1561.54 482.54 1552.96 480.541 1548.92 473.378C1545.08 466.528 1544.19 458.456 1540.85 451.36C1536.95 443.155 1529.36 439.498 1523.25 433.217C1517.42 427.267 1514.58 419.119 1510.84 411.842C1507.22 404.775 1502.61 398.559 1495.3 394.874C1490.73 392.515 1485.74 391.226 1481.33 388.545C1476.83 385.844 1473.53 381.799 1469.84 378.293C1461.72 370.581 1451.48 367.142 1440.48 365.948C1438.04 365.673 1435.5 365.465 1433.02 365.36C1430.72 365.209 1427.7 364.716 1425.54 365.218C1423.35 365.806 1421.91 368.259 1424.03 369.984C1424.55 370.457 1425.47 370.751 1426.16 370.457C1426.26 370.391 1426.35 370.41 1426.45 370.344C1429.11 369.235 1427.8 365.095 1425.22 366.222Z" fill="#595A5A"/>
<path d="M1584.83 522.171C1579.13 516.43 1573.35 510.669 1567.67 504.842C1562.62 499.783 1555.37 494.591 1555.51 486.746C1555.58 481.213 1557.62 475.671 1555.23 470.308C1553.26 465.931 1549.06 463.477 1544.95 461.488C1539.37 458.816 1534.56 456.315 1532.07 450.213C1530.13 445.305 1529.52 439.981 1528.25 434.865C1525.65 424.443 1518.98 417.413 1510.3 411.454C1501 405.001 1490.32 399.942 1484.01 390.127C1481.08 385.626 1478.43 380.652 1473.08 378.568C1466.75 376.085 1459.32 377.743 1452.76 376.284C1445.2 374.512 1439.1 370.561 1432.84 366.127C1427.6 362.366 1422.2 358.927 1415.75 357.761C1408.52 356.511 1401 357.344 1393.65 357.05C1385.48 356.757 1377.37 355.847 1369.27 354.492C1360.91 353.08 1352.89 350.939 1344.74 348.589C1338.36 346.723 1331.36 345.254 1324.88 347.84C1319.47 350.038 1314.69 355.865 1308.64 356.13C1302.13 356.471 1297.29 350.474 1290.49 352.899C1287.87 353.837 1289.19 357.977 1291.81 357.039C1297.16 355.097 1302.76 360.46 1308.29 360.526C1313.2 360.545 1317.17 357.58 1321.06 354.955C1327.04 351.005 1332.59 350.181 1339.64 351.839C1346.43 353.44 1353.08 355.723 1359.98 357.258C1374.65 360.432 1389.55 361.778 1404.52 361.617C1412.67 361.551 1419.58 362.641 1426.44 367.207C1432.14 370.893 1437.32 375.355 1443.61 378.008C1449.5 380.481 1455.67 381.675 1462.09 381.76C1465.93 381.808 1469.9 381.618 1473.18 383.779C1476 385.569 1477.62 388.705 1479.35 391.415C1484.96 400.359 1493.38 405.901 1502.06 411.501C1511.45 417.527 1520.42 423.818 1523.46 435.054C1526.08 444.585 1526.34 455.471 1535.35 461.592C1540.01 464.775 1547.33 466.045 1550.38 471.199C1553.77 476.874 1549.86 484.416 1550.97 490.659C1552.12 497.177 1557.98 501.792 1562.45 506.188C1568.8 512.611 1575.09 518.931 1581.44 525.354C1583.84 527.41 1586.8 524.132 1584.83 522.171Z" fill="#595A5A"/>
<path d="M1264.74 355.315C1253.77 351.98 1242.82 347.754 1231.66 345.271C1222.97 343.339 1216.49 349.146 1211.97 355.835C1205.95 364.788 1200.29 372.566 1189.96 376.801C1181.78 380.174 1171.67 378.999 1164.45 384.551C1161.11 387.118 1158.87 390.737 1155.76 393.447C1151.11 397.511 1144.84 397.549 1139.02 396.791C1129.8 395.635 1120.47 392.935 1111.85 397.909C1106.01 401.262 1098.87 409.249 1102.49 416.317C1103.4 418.221 1105.05 419.661 1105.86 421.632C1106.84 424.086 1106.38 426.938 1105.34 429.211C1103.31 433.503 1098.99 436.033 1096.41 440.021C1091.09 448.236 1098.23 457.966 1104.65 463.243C1107.38 465.46 1110.5 466.692 1110.98 470.557C1111.28 472.86 1111.02 475.219 1111.59 477.492C1112.6 481.386 1115.31 484.494 1119.47 484.257C1122.28 484.077 1122.09 479.738 1119.27 479.918C1114.39 480.174 1115.68 470.349 1114.8 467.469C1113.5 463.688 1109.9 462.173 1107.06 459.662C1103.68 456.763 1099.91 452.433 1099.03 447.942C1098 442.523 1102.89 439.406 1106.08 435.91C1110.28 431.116 1112.45 424.171 1109.02 418.307C1108.24 416.971 1106.22 415.18 1106.04 413.617C1105.65 410.936 1107.37 408.008 1109.06 406.056C1112.33 402.219 1116.95 399.936 1121.97 399.444C1130.81 398.724 1139.34 402.589 1148.18 401.424C1156.56 400.335 1160.14 394.688 1165.91 389.259C1172.34 383.262 1182.45 384.437 1190.25 381.519C1197.08 378.923 1203.31 374.67 1208.1 369.203C1214.31 362.173 1219.09 347.128 1230.88 349.573C1236.1 350.643 1241.28 352.69 1246.29 354.253C1252.16 356.006 1258.1 357.863 1263.97 359.616C1266.46 360.44 1267.41 356.177 1264.74 355.315Z" fill="#595A5A"/>
<path d="M1253.43 499.825L1261.06 504.922L1263.36 505.434L1253.91 497.693L1253.43 499.825Z" fill="#505050"/>
<path d="M1259.43 493.374L1267.06 498.471L1269.36 498.983L1259.9 491.242L1259.43 493.374Z" fill="#505050"/>
<path d="M1263.57 507.718L1271.2 512.815L1273.5 513.327L1264.04 505.586L1263.57 507.718Z" fill="#505050"/>
<path d="M1270.01 501.275L1277.55 506.354L1279.94 506.884L1270.48 499.144L1270.01 501.275Z" fill="#505050"/>
<path d="M1257.19 491.355L1253 495.344L1252.64 496.964L1257.88 492.312L1257.19 491.355Z" fill="#505050"/>
<path d="M1268.8 499.485L1264.54 503.369L1264.18 504.989L1269.5 500.356L1268.8 499.485Z" fill="#505050"/>
<path d="M1278.92 507.462L1274.63 511.432L1274.27 513.052L1279.6 508.419L1278.92 507.462Z" fill="#505050"/>
<path d="M1267.24 490.011L1274.78 495.089L1277.17 495.62L1267.71 487.879L1267.24 490.011Z" fill="#505050"/>
<path d="M1273.23 483.558L1280.78 488.637L1283.16 489.167L1273.71 481.427L1273.23 483.558Z" fill="#505050"/>
<path d="M1277.38 497.902L1284.99 503.085L1287.29 503.596L1277.85 495.771L1277.38 497.902Z" fill="#505050"/>
<path d="M1283.71 491.526L1291.34 496.624L1293.64 497.135L1284.19 489.395L1283.71 491.526Z" fill="#505050"/>
<path d="M1270.98 481.626L1266.81 485.529L1266.45 487.149L1271.68 482.498L1270.98 481.626Z" fill="#505050"/>
<path d="M1282.52 489.65L1278.32 493.639L1277.96 495.259L1283.2 490.607L1282.52 489.65Z" fill="#505050"/>
<path d="M1292.64 497.628L1288.44 501.617L1288.08 503.237L1293.32 498.585L1292.64 497.628Z" fill="#505050"/>
<path d="M1278.47 480.517L1286.1 485.615L1288.4 486.126L1278.95 478.386L1278.47 480.517Z" fill="#505050"/>
<path d="M1284.47 474.065L1292.08 479.248L1294.38 479.76L1284.94 471.934L1284.47 474.065Z" fill="#505050"/>
<path d="M1288.69 488.429L1296.22 493.592L1298.6 494.123L1289.17 486.297L1288.69 488.429Z" fill="#505050"/>
<path d="M1295.03 482.053L1302.57 487.131L1304.96 487.662L1295.5 479.921L1295.03 482.053Z" fill="#505050"/>
<path d="M1282.3 472.152L1278.02 476.121L1277.68 477.656L1283 473.023L1282.3 472.152Z" fill="#505050"/>
<path d="M1293.84 480.176L1289.56 484.146L1289.2 485.766L1294.52 481.133L1293.84 480.176Z" fill="#505050"/>
<path d="M1303.95 488.154L1299.67 492.123L1299.31 493.743L1304.63 489.111L1303.95 488.154Z" fill="#505050"/>
<path d="M1302.24 457.259L1309.79 462.337L1312.17 462.868L1302.72 455.127L1302.24 457.259Z" fill="#505050"/>
<path d="M1312.72 465.226L1320.35 470.324L1322.65 470.835L1313.19 463.095L1312.72 465.226Z" fill="#505050"/>
<path d="M1313.51 447.595L1321.14 452.692L1323.44 453.204L1313.99 445.463L1313.51 447.595Z" fill="#505050"/>
<path d="M1317.74 461.958L1325.28 467.036L1327.67 467.567L1318.21 459.826L1317.74 461.958Z" fill="#505050"/>
<path d="M1311.34 445.681L1307.08 449.565L1306.72 451.186L1312.04 446.553L1311.34 445.681Z" fill="#505050"/>
<path d="M1322.88 453.705L1318.6 457.675L1318.24 459.295L1323.56 454.662L1322.88 453.705Z" fill="#505050"/>
<path d="M1333 461.683L1328.72 465.653L1328.36 467.273L1333.68 462.64L1333 461.683Z" fill="#505050"/>
<path d="M1294.06 471.545C1294.62 471.671 1295.18 471.315 1295.31 470.749C1295.43 470.184 1295.08 469.624 1294.51 469.499C1293.95 469.373 1293.39 469.73 1293.26 470.295C1293.14 470.86 1293.49 471.42 1294.06 471.545Z" fill="#505050"/>
<path d="M1308.1 480.754C1308.67 480.88 1309.23 480.524 1309.35 479.958C1309.48 479.393 1309.12 478.833 1308.56 478.708C1307.99 478.582 1307.43 478.939 1307.31 479.504C1307.18 480.069 1307.54 480.629 1308.1 480.754Z" fill="#505050"/>
</g>
<rect x="1624.12" y="955.232" width="44.5587" height="1821.1" transform="rotate(118.331 1624.12 955.232)" fill="#C4C4C4"/>
<circle cx="1329.45" cy="821.912" r="56" transform="rotate(138.855 1329.45 821.912)" fill="#C4C4C4"/>
<circle cx="1329.09" cy="821.922" r="47" transform="rotate(138.855 1329.09 821.922)" fill="#F4F4F4"/>
<defs>
<clipPath id="clip0">
<rect x="420" width="861.4" height="756.1" fill="white"/>
</clipPath>
<clipPath id="clip1">
<rect x="927" y="331" width="697" height="509" fill="white"/>
</clipPath>
</defs>
</svg>
