<svg width="1541" height="1707" viewBox="0 0 1541 1707" fill="none" xmlns="http://www.w3.org/2000/svg">
<mask id="mask0" mask-type="alpha" maskUnits="userSpaceOnUse" x="17" y="0" width="1497" height="1492">
<path d="M246 1492L58 1432L17 1024L22 284L418 0L1406 140L1514 472L246 1492Z" fill="#C4C4C4"/>
</mask>
<g mask="url(#mask0)">
<path d="M232.901 778.301C232.901 778.301 218.169 781.542 239.825 747.809C261.481 714.077 246.307 721.884 281.811 701.261C317.316 680.639 336.025 714.519 365.489 677.987C394.953 641.456 408.654 644.402 422.502 619.802C436.203 595.202 446.074 622.748 447.105 577.526C448.136 532.303 449.02 568.688 451.083 518.604C453.145 468.521 454.029 470.436 467.73 449.813C481.431 429.19 466.699 453.79 481.431 429.19C496.163 404.591 451.967 414.46 467.73 369.238C483.493 324.015 454.913 324.015 510.011 302.509C565.109 281.002 567.024 310.316 572.917 327.992C578.81 345.669 563.635 333.001 587.943 350.677C612.251 368.354 604.296 337.862 623.006 383.084C641.715 428.307 637.148 409.599 670.296 449.813C703.443 490.027 701.528 517.573 711.398 548.065C721.268 578.557 720.09 559.849 754.563 577.526C789.036 595.202 739.978 587.395 790.509 569.719C841.04 552.042 820.415 542.025 864.611 536.722C908.808 531.42 897.906 544.235 921.035 518.604C944.165 493.12 917.794 487.228 954.477 481.336C991.16 475.444 998.084 478.39 1027.55 478.39C1057.01 478.39 1034.47 468.521 1080.58 437.145C1126.69 405.769 1141.57 407.831 1168.98 413.576C1196.38 419.321 1183.71 350.677 1168.98 317.386C1154.24 284.096 1134.65 278.056 1175.9 269.218C1217.15 260.38 1217.15 250.51 1252.51 302.656C1287.86 354.802 1308.49 341.986 1307.46 378.223C1306.43 414.607 1300.53 438.176 1302.6 482.367C1304.66 526.559 1301.56 518.162 1276.08 558.229C1250.59 598.296 1240.43 572.223 1235.12 615.236C1229.82 658.248 406.739 842.526 406.739 842.526L232.901 778.301Z" fill="#818484"/>
<path d="M118.875 804.816C118.875 804.816 131.691 802.312 139.499 791.411C147.307 780.511 150.254 781.689 162.039 786.108C173.825 790.38 176.772 797.451 183.696 786.108C190.62 774.766 196.512 766.959 201.374 774.324C206.236 781.689 207.267 783.604 212.128 778.154C216.99 772.704 202.258 776.681 216.99 772.704C231.722 768.727 259.271 760.919 264.133 762.834C268.994 764.749 276.508 772.998 281.664 762.54C286.82 752.081 280.927 756.795 293.597 747.515C306.266 738.235 276.95 736.614 317.168 725.714C357.387 714.813 355.471 708.921 370.203 700.967C384.935 693.159 392.743 704.944 398.636 717.612C404.529 730.427 415.284 738.382 420.292 722.178C425.154 705.828 426.185 705.68 432.078 698.462C437.971 691.244 442.832 681.817 450.788 677.693C458.743 673.568 453.734 679.46 471.413 661.784C489.091 644.107 486.145 660.753 489.091 644.107C492.038 627.462 487.176 639.246 489.091 622.453C491.006 605.808 502.792 606.103 504.854 588.279C506.77 570.455 492.038 544.971 506.77 570.455C521.502 595.939 503.823 534.071 495.426 518.457C487.029 502.695 477.305 502.695 487.029 486.05C496.899 469.404 502.792 479.126 502.792 479.126C502.792 479.126 508.243 493.857 512.368 498.718C516.493 503.579 537.118 477.064 536.234 464.396C535.202 451.581 526.511 460.419 536.234 430.958C545.957 401.497 563.635 388.682 561.72 401.497C559.805 414.313 562.751 425.066 572.475 432.873C582.345 440.68 596.046 465.28 597.961 454.527C599.876 443.773 586.175 423.151 602.823 436.85C619.47 450.549 621.532 461.45 625.363 449.666C629.34 437.881 630.224 441.858 636.117 454.527C642.01 467.342 637.148 453.495 657.773 465.28C678.398 477.064 694.898 475.149 681.197 486.934C667.644 498.718 653.796 500.633 660.72 517.425C667.644 534.071 657.184 555.283 650.113 562.353C643.041 569.424 631.256 559.702 643.041 569.424C654.827 579.293 668.528 582.534 664.697 588.279C660.72 594.024 630.372 576.789 635.233 601.094C640.095 625.4 631.697 639.099 650.113 642.045C668.528 644.991 687.237 611.553 681.345 642.045C675.452 672.537 692.099 650.147 696.077 632.323C700.054 614.499 694.161 610.669 714.786 621.422C735.411 632.175 715.523 624.368 727.456 617.445C739.389 610.522 756.183 616.119 762.96 620.391C769.737 624.663 794.487 585.48 842.513 582.092C890.54 578.704 903.357 569.866 927.517 562.206C951.53 554.546 952.562 575.169 960.37 546.739C968.178 518.309 986.887 532.009 997.642 520.224C1008.4 508.44 999.557 501.517 1010.46 496.656C1021.21 491.795 1019.15 492.678 1031.97 507.409C1044.78 522.139 1051.71 521.108 1061.58 503.432C1071.45 485.755 1067.47 483.84 1079.26 479.863C1091.04 475.886 1093.99 494.593 1111.67 484.724C1129.35 474.855 1130.38 471.025 1145.11 469.994C1159.84 468.962 1155.86 481.778 1172.66 464.101C1189.45 446.425 1187.39 452.317 1192.25 440.533C1197.11 428.748 1184.44 432.726 1199.18 415.049C1213.91 397.373 1217.89 400.319 1218.77 383.673C1219.8 367.028 1212.88 361.136 1225.69 348.32C1238.51 335.505 1241.46 316.944 1238.51 335.505C1235.56 354.065 1235.71 360.105 1239.54 381.611C1243.37 403.265 1251.33 396.341 1239.54 422.856C1227.76 449.371 1190.34 467.047 1202.12 485.755C1213.91 504.463 1216.85 479.863 1214.94 512.27C1213.02 544.677 1196.23 557.492 1194.31 591.372C1192.4 625.252 1198.29 621.422 1191.37 632.176C1184.44 642.929 554.943 874.638 554.943 874.638L118.875 804.816Z" fill="#5E5F5F"/>
<path d="M100.312 992.776C100.312 992.776 119.906 999.7 140.531 1023.27C161.155 1046.84 229.954 1042.86 260.302 1043.89C290.797 1044.92 472.002 1043.89 515.903 1048.75C559.805 1053.61 686.501 1056.56 714.049 1048.75C741.598 1040.94 731.728 1036.97 759.277 1043.89C786.826 1050.81 812.312 1053.61 838.83 1053.61C865.348 1053.61 859.455 1039.91 880.08 1043.89C900.705 1047.87 904.682 1051.7 931.2 1053.61C957.718 1055.53 991.159 1058.62 1021.51 1047.72C1052 1036.97 1038.15 1036.97 1052 1047.72C1065.85 1058.47 1132.59 1047.72 1161.02 1049.64C1189.45 1051.55 1279.91 1063.34 1366.24 1046.69C1452.71 1030.04 1547 990.714 1547 990.714L1406.6 822.935L212.276 851.217L100.312 992.776Z" fill="#444545"/>
<path d="M610.041 778.743C610.041 778.743 336.025 784.635 280.043 790.528C224.061 796.42 93.3879 803.343 84.5487 816.011C75.7095 828.827 79.6871 817.926 77.6246 844.441C75.5622 870.956 78.6559 916.178 77.6246 923.985C76.5934 931.792 73.647 982.907 100.165 992.776C126.682 1002.65 214.043 999.7 221.999 997.637C229.807 995.722 225.976 901.448 287.851 879.794C349.726 858.14 446.957 862.118 468.613 897.471C490.269 932.824 507.359 991.745 516.051 1023.12C516.051 1023.12 692.541 1022.09 739.683 1027.98C786.826 1033.87 1208.16 1032.84 1222.89 1027.98C1237.63 1023.12 1239.54 1012.22 1244.55 978.93C1249.41 945.492 1311.29 868.01 1356.51 864.033C1401.74 860.055 1466.56 854.163 1490.13 931.792C1513.71 1009.42 1547.15 990.714 1547.15 990.714L1524.61 766.812C1524.61 766.812 1425.46 767.843 1407.78 755.027C1390.1 742.212 1301.71 631.292 1291.84 630.261C1281.97 629.23 1251.62 614.057 1223.04 613.91C1194.46 613.763 827.192 614.205 807.598 613.91C788.004 613.615 675.009 750.166 660.277 753.112C645.545 756.058 637.737 757.09 626.836 767.843C615.934 778.743 621.679 778.449 610.041 778.743Z" fill="#7F8080"/>
<path d="M370.35 1135.66C439.509 1135.66 495.573 1079.6 495.573 1010.45C495.573 941.302 439.509 885.244 370.35 885.244C301.192 885.244 245.128 941.302 245.128 1010.45C245.128 1079.6 301.192 1135.66 370.35 1135.66Z" fill="#505050"/>
<path d="M370.35 1098.98C419.249 1098.98 458.89 1059.35 458.89 1010.45C458.89 961.56 419.249 921.923 370.35 921.923C321.451 921.923 281.811 961.56 281.811 1010.45C281.811 1059.35 321.451 1098.98 370.35 1098.98Z" fill="#7F8080"/>
<path d="M370.35 1087.05C412.659 1087.05 446.957 1052.76 446.957 1010.45C446.957 968.149 412.659 933.854 370.35 933.854C328.042 933.854 293.744 968.149 293.744 1010.45C293.744 1052.76 328.042 1087.05 370.35 1087.05Z" fill="#717171"/>
<path d="M905.566 969.502C888.919 971.123 816.143 974.216 804.504 969.502C792.866 964.789 795.518 922.66 818.058 916.326C840.598 909.992 836.178 851.954 842.66 826.47C848.995 800.986 854.446 799.513 873.598 790.086C892.749 780.806 891.276 785.667 888.772 774.472C886.267 763.276 891.276 746.926 904.977 741.034C905.271 740.886 905.566 740.739 905.861 740.739C906.155 738.824 906.597 736.614 906.892 734.258C909.838 715.55 917.204 691.097 911.312 683.438C905.419 675.778 864.169 678.282 833.674 678.724C803.178 679.166 768.853 683.438 768.853 683.438C726.866 717.612 681.344 758.268 681.344 758.268C681.344 758.268 632.876 986.59 656.889 979.666C680.902 972.743 863.58 982.171 894.517 979.666C925.454 977.162 945.637 960.517 947.11 939.452C947.258 937.39 947.405 935.328 947.405 932.971C944.901 939.747 922.361 967.735 905.566 969.502Z" fill="#5C5C5C"/>
<path d="M977.9 683.29C970.682 682.848 961.253 682.259 953.151 682.112C937.977 681.67 936.503 689.477 936.503 689.477L930.758 754.144C931.347 756.059 931.642 758.121 931.642 760.183C931.642 773.44 936.503 770.936 944.901 765.044C953.298 759.152 957.718 758.121 955.655 749.283C953.74 740.444 964.052 726.745 964.052 726.745C966.704 725.567 969.503 723.357 972.008 722.473C972.597 718.791 973.186 715.108 973.775 711.131C975.543 700.378 976.869 691.245 977.9 683.29Z" fill="#5C5C5C"/>
<path d="M911.459 683.29C917.352 690.803 909.986 715.402 907.039 734.11C906.597 736.467 906.303 738.676 906.008 740.591C917.204 736.467 927.664 743.832 930.758 753.996L936.503 689.33C936.503 689.33 937.977 681.522 953.151 681.964C961.106 682.259 970.682 682.701 977.901 683.143C983.057 641.898 978.784 634.09 973.776 633.354C967.883 632.323 858.866 630.85 834.263 637.331C824.393 639.983 797.433 660.163 769 683.29C769 683.29 803.326 679.018 833.821 678.576C864.316 678.134 905.566 675.778 911.459 683.29Z" fill="#505050"/>
<path d="M955.655 749.282C957.571 758.121 953.151 759.152 944.901 765.044C936.651 770.936 931.642 773.44 931.642 760.183C931.642 758.121 931.347 756.058 930.758 754.143L903.209 756.206C903.209 756.206 903.946 753.701 906.156 740.739C905.861 740.886 905.566 741.033 905.272 741.033C891.571 746.926 886.562 763.276 889.066 774.471C891.571 785.666 893.044 780.805 873.892 790.086C854.741 799.366 849.29 800.839 842.955 826.47C836.62 851.953 841.04 909.991 818.353 916.325C795.812 922.659 793.013 964.788 804.799 969.502C816.585 974.216 889.066 971.123 905.861 969.502C922.508 967.882 945.196 939.894 947.847 932.971C948.289 910.875 945.048 874.786 953.446 839.138C962.285 802.165 963.169 779.627 972.303 722.326C969.798 723.21 966.999 725.419 964.347 726.597C964.053 726.745 953.74 740.444 955.655 749.282Z" fill="#8C8C8C"/>
<path d="M906.008 740.591C903.945 753.554 903.062 756.058 903.062 756.058L930.611 753.996C927.664 743.832 917.204 736.319 906.008 740.591Z" fill="#8C8C8C"/>
<path d="M866.379 836.634C864.464 817.042 863.432 804.08 860.486 778.596C857.54 753.112 850.615 735.436 867.41 704.06C884.057 672.684 932.231 546.887 918.53 558.671C918.53 558.671 811.428 575.316 784.027 607.723C756.478 640.13 703.442 713.488 687.974 728.66C672.505 743.832 666.023 751.787 660.277 752.965C654.384 754.144 633.907 756.206 616.67 778.154L599.287 778.743C599.287 778.743 582.639 842.379 589.563 879.647C596.487 916.915 601.349 975.836 614.166 993.513C626.983 1011.19 748.67 973.921 786.089 970.975C823.361 968.029 870.504 960.222 870.504 960.222C870.504 960.222 849.29 925.9 848.995 909.108C848.7 892.61 868.294 856.373 866.379 836.634ZM833.968 723.799C813.343 731.606 681.786 764.013 681.786 754.291C681.786 744.422 794.781 606.987 794.781 606.987C816.584 592.551 898.937 577.526 898.937 577.526C898.937 577.526 857.687 683.585 853.709 695.369C849.732 707.154 854.593 715.844 833.968 723.799Z" fill="#878787"/>
<path d="M85.5798 933.854C81.1602 933.854 35.4908 934.886 30.6292 938.716C25.7676 942.545 18.8436 988.799 30.6292 993.66C42.4149 998.521 88.5262 994.691 94.419 993.66C100.312 992.776 109.888 933.854 85.5798 933.854Z" fill="#8C8C8C"/>
<path d="M76.8881 892.609C76.8881 892.609 67.7542 908.371 70.7007 911.317C73.6471 914.263 83.6649 916.178 101.196 920.155C118.727 924.132 147.307 920.155 147.307 920.155V892.609H76.8881Z" fill="#717171"/>
<path d="M370.35 1049.78C392.074 1049.78 409.685 1032.17 409.685 1010.45C409.685 988.731 392.074 971.123 370.35 971.123C348.626 971.123 331.016 988.731 331.016 1010.45C331.016 1032.17 348.626 1049.78 370.35 1049.78Z" fill="#8C8C8C"/>
<path d="M108.856 818.073V848.418L206.383 843.557V814.096L108.856 818.073Z" fill="#8C8C8C"/>
<path d="M837.798 749.283L595.161 796.42H450.935V823.082H590.594L823.656 786.109C823.656 786.109 831.906 753.26 837.798 749.283Z" fill="#8C8C8C"/>
<path d="M708.157 907.34C708.157 907.34 668.233 871.545 670.148 828.827C672.063 786.108 671.621 789.349 692.246 780.511C712.871 771.673 732.759 774.177 736.884 776.386C741.009 778.596 746.165 775.65 740.567 815.864C734.969 856.078 723.92 898.796 720.237 903.952C716.554 909.107 715.228 914.41 708.157 907.34Z" fill="#7F8080"/>
<path d="M681.639 817.337C679.871 819.547 696.076 876.553 706.389 885.244C716.848 893.935 728.929 824.408 727.455 814.833C725.982 805.258 697.991 797.156 681.639 817.337Z" fill="#505050"/>
<path d="M927.664 614.057C927.664 614.057 927.664 614.204 936.061 607.281C944.459 600.358 953.298 595.497 964.494 590.636C975.838 585.775 986.15 590.194 995.874 590.636C1005.6 591.078 1028.73 604.629 1033.73 614.057H998.82C998.82 614.057 1006.19 605.366 1003.68 604.335C1001.18 603.304 983.057 601.389 975.249 601.094C967.441 600.8 962.432 611.553 968.914 613.762L927.664 614.057Z" fill="#7F8080"/>
<path d="M937.977 552.926C937.977 552.926 932.526 556.314 940.923 564.268C949.32 572.075 957.718 566.036 964.052 577.526C970.387 589.015 967.883 591.225 985.119 591.814C1002.5 592.256 997.936 588.426 1003.24 581.503C1008.69 574.58 1013.11 574.58 1024.31 565.741C1035.65 556.903 1033.59 543.204 1024.31 540.258C1015.17 537.164 932.084 520.519 937.977 552.926Z" fill="#8C8C8C"/>
<path d="M321.735 497.834C317.757 490.027 313.338 484.577 310.391 477.211C307.445 469.846 307.887 459.535 307.887 453.201C307.887 446.867 318.641 448.782 318.641 457.178C318.641 465.574 321.588 473.676 321.588 473.676C321.588 473.676 329.396 462.481 341.181 457.178C352.967 451.728 362.248 446.425 373.15 453.79C383.904 461.155 390.386 457.178 388.913 451.875C387.44 446.425 398.784 469.552 393.333 477.948C388.029 486.05 321.735 497.834 321.735 497.834Z" fill="#878787"/>
<path d="M307.887 409.451C306.266 410.483 297.574 430.074 300.521 436.997C303.467 443.921 302.878 455.116 303.909 460.124C304.94 464.985 308.476 477.064 308.181 467.195C307.887 457.178 303.909 457.031 307.887 453.348C311.864 449.518 313.338 454.379 316.284 458.798C319.23 463.07 318.789 472.056 321.735 476.033C324.681 480.01 321.293 468.668 339.855 462.334C358.565 456 360.922 450.107 369.319 454.968C377.717 459.83 393.48 462.186 392.743 459.977C392.007 457.767 390.976 443.184 385.525 432.431C380.074 421.678 381.547 425.508 376.686 414.313C371.824 402.97 372.266 408.862 365.931 405.916C359.596 402.97 362.395 407.389 351.494 401.939C340.445 396.489 331.163 399.435 324.239 401.939C317.315 404.149 316.284 404.59 307.887 409.451Z" fill="#505050"/>
<path d="M220.526 625.105C220.526 625.105 199.901 641.308 205.794 657.07C211.687 672.831 209.771 687.562 209.771 696.4C209.771 705.238 209.329 702.292 217.137 703.765C224.945 705.238 230.838 701.261 237.32 703.765C243.655 706.27 252.052 709.216 253.968 706.711C255.883 704.207 247.043 705.68 242.624 696.4C238.204 687.12 239.235 675.778 248.517 663.993C257.798 652.209 267.226 649.263 264.28 639.393C261.334 629.524 227.008 618.771 220.526 625.105Z" fill="#878787"/>
<path d="M506.917 491.058C506.917 491.058 509.421 495.477 516.198 501.811C523.122 508.145 526.511 503.726 533.877 510.208C541.243 516.542 544.189 519.046 536.381 520.077C528.573 521.108 513.252 522.581 506.917 541.142C500.582 559.849 519.145 570.161 541.095 571.634C563.046 573.107 578.662 563.826 576.158 549.096C573.653 534.366 566.876 508.293 560.394 500.928C554.06 493.562 561.868 488.112 554.943 482.22C548.019 476.328 548.609 479.421 543.158 476.622C537.707 473.824 537.707 472.792 532.403 471.319C526.953 469.846 529.015 475.297 524.006 471.319C519.145 467.342 517.082 468.521 518.555 476.622C520.028 484.577 523.417 497.834 518.555 492.973C513.694 488.112 509.274 486.639 506.917 491.058Z" fill="#878787"/>
<path d="M299.932 497.834C299.932 497.834 276.655 522.875 264.722 533.187C252.789 543.498 247.485 570.013 236.731 582.239C225.977 594.465 211.834 622.158 216.106 628.934C220.526 635.71 236.731 628.934 247.927 635.71C259.271 642.634 272.972 646.464 272.972 635.71C272.972 624.957 280.78 622.011 282.842 613.909C284.758 605.808 295.365 616.708 299.932 642.486C304.499 668.117 304.941 688.74 307.887 701.555C310.833 714.371 338.382 690.802 368.878 697.136C399.373 703.47 433.257 703.912 457.712 705.385C482.314 706.858 480.841 710.836 479.368 695.074C477.895 679.312 466.109 633.206 464.194 602.272C462.279 571.338 458.743 567.95 458.301 560.585C457.859 553.22 464.636 560.585 477.011 566.919C489.239 573.253 507.801 585.185 516.346 576.789C524.89 568.392 525.627 574.874 526.216 564.562C526.805 554.251 532.256 530.388 536.086 522.875C539.769 515.363 542.421 515.51 526.216 513.006C510.011 510.502 507.506 506.083 493.364 497.834C479.073 489.437 460.953 485.607 446.663 481.63C432.373 477.653 425.596 481.778 410.275 476.622C395.101 471.466 398.636 480.746 392.891 471.908C387.145 463.07 376.833 457.62 366.079 456.736C355.324 455.705 331.016 462.923 326.449 470.877C321.882 478.831 325.123 491.205 319.083 492.825C312.896 494.446 307.298 490.174 299.932 497.834Z" fill="#5C5C5C"/>
<path d="M307.445 699.346C307.445 699.346 303.467 707.006 304.057 722.178C304.499 737.351 295.217 805.7 305.972 838.991C316.726 872.429 325.123 898.944 324.681 923.396C324.239 947.996 307.445 1037.85 303.615 1056.41C299.784 1074.97 295.807 1121.23 296.249 1144.79C296.691 1168.36 295.217 1169.84 314.958 1177.2C334.552 1184.57 359.596 1173.81 365.489 1169.84C371.382 1165.86 376.833 1158.49 369.467 1145.83C362.101 1133.01 353.262 1151.28 355.177 1132.13C357.092 1112.98 370.351 980.403 381.253 952.415C392.007 924.427 399.962 921.039 403.793 901.3C407.77 881.709 403.793 876.259 433.699 902.332C463.605 928.404 464.194 944.608 473.033 967.587C481.872 990.714 481.431 1012.22 498.078 1038.29C514.725 1064.37 511.337 1091.76 516.051 1106.5C520.765 1121.23 516.787 1132.57 525.627 1141.85C534.466 1151.13 548.167 1151.13 559.51 1137.43C570.854 1123.73 577.189 1119.75 580.135 1111.95C583.082 1104.14 595.899 1104.58 602.675 1093.83C609.599 1083.07 586.028 1076.59 578.662 1076.15C571.296 1075.71 565.403 1069.23 560.542 1047.13C555.68 1025.04 547.577 996.606 538.738 959.78C529.899 922.954 526.658 912.201 521.207 879.794C515.756 847.387 505.002 799.219 499.551 781.1C494.1 762.982 489.828 741.328 486.587 735.878C483.346 730.428 473.475 711.131 474.065 705.533C474.506 700.23 360.922 673.126 307.445 699.346Z" fill="#404040"/>
<path d="M304.057 725.419C317.905 719.969 332.048 715.697 347.074 714.371C350.905 714.077 354.735 714.224 358.565 714.666C367.552 714.077 376.686 713.635 385.672 712.456C402.172 710.394 420.44 709.657 436.792 713.34C444.895 715.108 452.261 719.379 459.627 722.915C465.225 725.714 472.002 727.776 478.484 730.133C480.547 730.869 482.462 731.606 484.524 732.342C480.399 724.682 473.623 710.394 474.065 705.827C474.507 700.23 361.07 673.126 307.592 699.493C307.592 699.493 303.615 707.153 304.204 722.326C304.057 723.062 304.057 724.241 304.057 725.419Z" fill="#2D2D2D"/>
<path d="M328.659 665.319C328.659 665.319 319.378 700.23 320.851 710.983C322.324 721.736 327.775 725.271 339.561 728.218C351.346 731.164 356.797 737.498 364.163 722.325C371.529 707.153 379.484 691.833 377.275 683.584C374.77 675.188 349.284 658.543 328.659 665.319Z" fill="#787878"/>
<path d="M444.011 704.796C441.654 705.238 435.614 718.348 444.011 729.691C452.409 741.033 451.967 740.444 452.851 746.925C453.882 753.259 472.886 739.56 473.475 723.357C474.065 707.006 478.337 698.02 444.011 704.796Z" fill="#787878"/>
<path d="M448.43 710.541C448.43 710.541 446.368 726.008 451.082 739.855C455.797 753.701 449.167 754.732 449.462 765.486C449.904 776.239 445.926 783.604 442.538 787.139C439.149 790.527 426.332 814.685 426.332 814.685C426.332 814.685 417.493 817.631 417.493 821.609C417.493 825.586 422.944 830.889 425.301 825.586C427.806 820.136 452.703 788.318 452.703 788.318C452.703 788.318 457.27 784.93 464.636 783.457C472.002 781.984 470.529 779.038 470.529 779.038C470.529 779.038 476.863 775.944 478.926 769.316C480.988 762.687 481.43 759.888 478.926 753.407C476.421 746.925 485.85 743.537 486.292 740.149C486.734 736.761 487.323 734.257 481.43 738.234C475.537 742.212 475.096 736.614 474.064 732.342C473.033 728.07 478.189 714.813 473.917 710.836C469.497 706.564 448.872 702.145 448.43 710.541Z" fill="#2D2D2D"/>
</g>
<rect x="1512.49" y="439.825" width="44.5586" height="1950.83" transform="rotate(50.8213 1512.49 439.825)" fill="#C4C4C4"/>
</svg>
