<svg width="1760" height="1911" viewBox="0 0 1760 1911" fill="none" xmlns="http://www.w3.org/2000/svg">
<path d="M722.404 410.634C722.404 410.634 712.191 490.06 722.404 513.811C732.617 537.69 728.404 605.752 728.404 605.752L741.043 1056C741.043 1056 958.957 1072.99 965.723 1072.22C972.489 1071.33 989.596 1083.33 1025.34 1086.65C1061.09 1090.1 1123.26 1044.89 1130.91 1006.59C1138.57 968.278 1142.79 890.767 1076.4 815.044C1010.02 739.321 998.915 706.886 977.723 637.165C956.532 567.443 920.66 537.818 896.787 525.815C872.915 513.811 816.745 513.173 780.106 480.355C743.596 447.41 724.191 393.139 722.404 410.634Z" fill="#595A5A"/>
<path d="M807.17 954.742C807.17 954.742 733 925.628 714.106 923.968C695.085 922.308 552.106 912.986 512.149 931.757C472.191 950.529 432.106 1002.37 426.234 1024.59C420.234 1046.68 410.021 1107.21 410.021 1107.21L880.064 1112.32L807.17 954.742Z" fill="#9A9B9B"/>
<path d="M515.468 403.994C515.468 403.994 472.957 449.07 449.979 462.733C427 476.397 305.34 489.932 287.468 512.151C269.596 534.37 235.51 597.324 190.447 630.525C145.383 663.725 79.7658 751.963 60.2338 772.522C40.7019 793.08 9.17001 822.833 13.3828 870.591C17.5955 918.349 3.17001 919.115 40.5743 948.102C77.9785 977.089 211.638 997.52 211.638 997.52C211.638 997.52 226.957 1062.26 233.723 1079.25C240.489 1096.23 358.83 1103.89 358.83 1103.89L544.319 868.037L538.319 571.785C538.319 571.785 518.787 581.107 518.787 530.029C518.787 478.951 530.915 425.83 515.468 403.994Z" fill="#595A5A"/>
<path d="M770.021 888.852C770.021 888.852 759.681 890.895 759.681 910.56C759.681 930.097 672.361 955.636 630.106 936.993C587.851 918.349 525.681 888.979 525.681 888.979C525.681 888.979 552.744 862.93 535.255 816.576C517.638 770.095 770.021 888.852 770.021 888.852Z" fill="#7F8080"/>
<path d="M497.596 931.757C497.596 931.757 385.255 968.406 364.83 1045.02C344.404 1121.64 344.404 1121.64 344.404 1121.64L427.766 1130.96C427.766 1130.96 426.872 1027.91 445.638 994.711C464.404 961.638 497.596 931.757 497.596 931.757Z" fill="#707071"/>
<path d="M783.553 943.505C783.553 943.505 827.851 1057.03 811.638 1103.89C795.425 1150.75 977.595 1112.45 977.595 1112.45C977.595 1112.45 958.829 1100.57 949.51 1052.05C940.191 1003.52 910.319 976.323 896.787 969.427C883.127 962.404 770.021 924.479 783.553 943.505Z" fill="#707071"/>
<path d="M518.149 420.977C518.149 420.977 516.361 450.73 512.149 483.931C507.936 517.131 515.595 567.316 532.574 607.412C549.553 647.38 754.574 575.105 754.574 575.105C754.574 575.105 719.851 494.274 721.51 443.962C723.17 393.778 722.404 378.455 722.404 378.455L518.149 420.977Z" fill="#727373"/>
<path d="M434.66 970.96C434.66 970.96 361.511 982.069 352.957 987.943C344.404 993.817 359.596 1010.55 379.255 1013.74C398.915 1016.93 488.021 995.733 488.021 995.733L434.66 970.96Z" fill="#505050"/>
<path d="M818.532 923.712L572.532 938.142L649.127 976.067L818.532 923.712Z" fill="#505050"/>
<path d="M796.702 924.989C796.702 924.989 792.489 929.714 786.489 929.714C780.489 929.714 780.106 927.16 768.234 931.885C756.361 936.609 741.808 938.269 732.489 938.269C723.17 938.269 713.723 941.079 710.404 943.505C706.957 945.931 701.851 939.93 698.915 938.269C695.979 936.609 681.681 931.629 681.681 931.629C681.681 931.629 792.362 925.245 796.702 924.989Z" fill="#727373"/>
<path d="M695.468 961.766C695.468 961.766 700.319 975.174 699.042 992.54C697.766 1009.91 693.042 1020.12 699.298 1014.12C705.425 1007.99 698.659 976.068 699.298 968.278C699.936 960.489 702.106 958.063 704.787 960.361C707.595 962.66 710.021 958.446 716.787 955.126C723.553 951.806 730.191 951.422 732.744 953.466C735.298 955.509 734.659 952.189 738.106 949.762C741.553 947.336 743.595 946.187 744.744 950.912C745.893 955.636 742.191 960.872 744.744 963.937C747.298 966.874 745.383 949.507 745.766 947.719C746.276 945.932 746.915 945.804 750.617 944.655C754.319 943.505 754.319 943.505 754.319 943.505L695.468 961.766Z" fill="#727373"/>
<path d="M486.617 719.4C486.617 719.4 463.638 742.385 468.744 755.155C473.851 767.924 487.893 806.233 505.766 816.448C523.638 826.664 533.851 816.448 533.851 816.448C533.851 816.448 574.702 881.573 624.489 895.619C674.276 909.666 739.383 900.727 755.978 866.249C772.574 831.772 775.127 813.894 781.51 798.571C787.893 783.248 791.723 758.986 793 736C794.276 713.015 772.574 605.752 766.191 601.921C759.808 598.09 647.468 558.504 647.468 558.504L486.617 719.4Z" fill="#919191"/>
<path d="M490.446 595.536C490.446 595.536 478.957 654.276 473.851 674.707C468.744 695.138 477.425 730.254 477.425 730.254C477.425 730.254 491.723 714.293 507.042 730.254C522.361 746.216 524.914 748.77 524.914 752.601C524.914 756.432 530.021 748.77 533.851 739.832C537.68 730.893 533.851 723.231 541.51 700.246C549.17 677.261 547.893 661.938 572.149 651.722C596.404 641.506 616.191 659.384 630.489 642.783C644.787 626.183 647.212 588.641 676.829 584.044C706.446 579.447 722.787 601.921 735.553 612.137C748.319 622.352 758.531 615.967 763.638 622.352C768.744 628.737 768.744 637.676 770.021 661.938C771.297 686.2 777.68 696.415 780.234 715.57C782.787 734.724 781.638 753.878 793 743.662C804.489 733.447 793.766 708.035 800.404 678.027C807.042 647.891 811.638 640.229 800.404 626.183C789.17 612.137 780.234 609.583 775.127 596.813C770.021 584.044 770.021 575.105 753.425 558.505C736.829 541.904 727.893 545.735 711.297 544.458C694.702 543.181 668.531 521.473 630.489 526.581C592.446 531.689 567.042 520.196 546.617 540.627C526.191 561.059 493.893 577.914 490.446 595.536Z" fill="#505050"/>
<path d="M496.829 128.811C494.276 135.834 481.51 248.078 481.51 248.078C481.51 248.078 472.319 250.632 467.978 262.89C463.638 275.149 479.851 316.012 482.404 325.589C484.957 335.166 488.276 356.874 493.383 361.343C498.489 365.685 499.383 388.287 512.149 410.123C524.915 431.959 545.34 456.221 575.085 471.927C604.829 487.634 675.553 478.95 692.531 465.798C709.51 452.773 718.957 417.912 728.276 391.735C737.595 365.557 738.489 363.003 745.255 347.297C752.021 331.59 757.127 302.859 752.914 294.176C748.702 285.62 736.829 125.363 731.723 125.363C726.617 125.363 496.829 128.811 496.829 128.811Z" fill="#7F7F7F"/>
<path d="M534.234 81.3081C528.744 87.182 501.042 115.403 491.723 128.938C482.404 142.602 469.766 155.371 472.191 178.356C474.617 201.341 470.659 227.774 472.191 243.098C473.723 258.421 481.51 271.191 484.83 285.62C488.276 300.05 498.489 306.945 496.702 291.622C495.042 276.298 507.425 243.098 502.957 210.791C498.362 178.484 496.702 160.607 510.362 152.051C524.021 143.496 551.085 128.811 562.191 135.706C573.298 142.602 605.596 142.219 624.362 138.388C643.127 134.557 647.34 132.641 665.213 133.28C683.085 133.918 694.191 129.832 697.51 148.603C700.957 167.375 725.596 189.466 731.596 209.897C737.596 230.328 735.808 260.081 737.596 277.192C739.255 294.176 736.702 302.731 737.596 315.501C738.489 328.27 744.362 318.949 746.915 315.501C749.468 312.053 754.447 313.841 754.447 313.841C754.447 313.841 766.447 260.209 769.893 248.333C773.34 236.458 785.213 229.307 777.553 201.724C769.893 174.142 758.532 118.85 754.447 114.636C750.361 110.423 685.638 65.2185 661.766 63.5584C637.893 61.8984 565.638 47.2135 534.234 81.3081Z" fill="#505050"/>
<path d="M323.213 840.711C279.936 854.119 250.064 902.004 239.851 920.265C229.638 938.525 244.957 958.19 323.213 947.974C401.468 937.759 402.362 943.761 434.66 970.96C466.957 998.159 485.085 987.943 511 1007.61C536.787 1027.15 541.894 1031.49 555.553 1020.38C569.213 1009.27 576.872 1028.93 589.638 1020.38C602.404 1011.82 595.638 1011.82 606.617 998.286C617.723 984.623 630.745 999.18 645.043 987.177C659.34 975.301 668.787 993.945 679 976.961C689.213 959.978 691.128 934.566 691 922.563C690.872 910.56 690.872 900.344 664.574 885.021C638.277 869.697 629.596 865.356 616.83 856.034C604.064 846.712 594.745 842.371 559 840.711C523.255 839.051 484.83 839.817 464.021 832.155C443.213 824.493 422.021 818.492 388.83 821.939C355.638 825.387 347.851 833.049 323.213 840.711Z" fill="#7F7F7F"/>
<path d="M793 821.046C793 821.046 786.106 840.328 763.127 850.288C740.149 860.248 723.17 899.451 723.936 910.56C724.83 921.67 721.128 934.439 737.468 931.885C753.808 929.331 746.021 929.204 777.553 923.713C809.085 918.222 819.681 924.99 807.17 929.331C794.659 933.673 795.681 945.804 793 953.976C790.319 962.277 801.808 958.19 821.085 953.976C840.361 949.763 878.276 954.743 896.787 969.3C915.298 983.857 936.744 1013.61 956.404 1022.93C975.936 1032.25 998.149 1006.71 994.702 970.96C991.255 935.205 957.298 880.679 939.425 866.25C921.553 851.82 883.51 848.373 859.638 836.497C835.51 824.494 799.893 809.426 793 821.046Z" fill="#7F7F7F"/>
<mask id="mask0" mask-type="alpha" maskUnits="userSpaceOnUse" x="102" y="1006" width="884" height="349">
<path d="M798 1256L986 1092L762 1006L102 1068L232 1354L798 1256Z" fill="#C4C4C4"/>
</mask>
<g mask="url(#mask0)">
<path d="M118.277 1086.64C118.277 1086.64 456.608 1167.44 514.969 1183.25C573.331 1199.06 638.671 1207.08 638.671 1207.08C638.671 1207.08 672.647 1045.78 670.194 1056.94C665.315 1078.84 660.503 1103.55 660.503 1103.55C660.503 1103.55 75.7481 1076.47 118.277 1086.64Z" fill="#7F7F7F"/>
<path d="M118.277 1086.64L646.169 1171.61L638.72 1207.07C638.72 1207.07 677.175 1230.63 118.277 1086.64Z" fill="#6A6B6B"/>
<path d="M660.488 1103.5C660.488 1103.5 637.779 1190.46 638.72 1207.07C639.662 1223.68 1028.87 1234.49 1032.77 1234.09C1036.67 1233.7 1047.56 1129.46 1045.52 1122.85C1043.48 1116.23 658.93 1095.67 660.488 1103.5Z" fill="#6A6B6B"/>
<path d="M1027.01 1180.12C1005.47 1185.2 983.435 1186.9 961.619 1190.19C947.157 1192.83 932.865 1195.84 918.093 1196.42C905.542 1196.91 893.001 1196.22 880.517 1195.19C857.649 1193.33 834.875 1190.91 811.934 1190.2C786.725 1189.44 761.63 1189.4 736.574 1186.88C724.628 1185.68 712.828 1183.74 700.949 1182.41C692.351 1181.46 683.734 1180.63 675.196 1179.19C664.722 1177.37 654.408 1174.17 644.602 1170C641.025 1186.56 638.395 1201.32 638.75 1207.17C639.692 1223.78 1028.9 1234.59 1032.8 1234.19C1034.88 1233.98 1038.9 1204.62 1041.94 1176.05C1036.99 1177.58 1031.99 1178.9 1027.01 1180.12Z" fill="#5C5C5C"/>
<path d="M662.46 1093.56C662.46 1093.56 637.517 1201.43 635.762 1221.29C634.007 1241.15 647.589 1232.18 650.901 1213.72C654.198 1195.21 676.702 1097.86 676.702 1097.86C676.702 1097.86 674.851 1071.17 662.46 1093.56Z" fill="#5C5C5C"/>
<path d="M270.776 1123.22C263.77 1121.36 246.092 1143.98 250.467 1151.21C254.842 1158.45 311.664 1147.37 321.023 1152C330.381 1156.62 349.852 1198.91 386.554 1224.08C423.255 1249.25 431.841 1212.26 438.688 1197.27C445.487 1182.3 477.657 1189.82 506.396 1204.46C535.12 1219.05 535.024 1229.17 576.31 1227.49C617.596 1225.82 648.743 1205.16 648.743 1205.16L270.776 1123.22Z" fill="#5C5C5C"/>
<path d="M174.033 1164.05C149.677 1160.67 155.823 1181.47 177.962 1176.79C200.1 1172.11 190.831 1166.38 174.033 1164.05Z" fill="#5C5C5C"/>
<path d="M283.496 1195.76C272.16 1195.5 264.209 1188.83 272.426 1198.1C280.644 1207.37 305.196 1202 320.747 1207.94C336.233 1213.84 329.573 1178.33 315.107 1173.14C300.642 1167.94 302.927 1196.21 283.496 1195.76Z" fill="#5C5C5C"/>
<path d="M335.924 1285.84C333.276 1293.42 358.666 1283.12 364.309 1277.09C369.952 1271.05 343.886 1262.99 335.924 1285.84Z" fill="#5C5C5C"/>
</g>
<rect x="1731.4" y="486.6" width="44.5586" height="2199.84" transform="rotate(50.8213 1731.4 486.6)" fill="white"/>
</svg>
