<svg width="1659" height="1615" viewBox="0 0 1659 1615" fill="none" xmlns="http://www.w3.org/2000/svg">
<g clip-path="url(#clip0)">
<mask id="mask0" mask-type="alpha" maskUnits="userSpaceOnUse" x="551" y="-20" width="996" height="954">
<path d="M869 934L551 670L639 560L775 378L801 14L1023 -20C1093.67 7.33333 1236.2 64.4 1241 74C1245.8 83.6 1197.67 246 1173 326L1547 616L1503 888L869 934Z" fill="#C4C4C4"/>
</mask>
<g mask="url(#mask0)">
<path d="M901.8 428.4C901.8 428.4 906.4 452.1 907 484.1C907.7 516.1 967.7 557.4 1015.7 537.4C1063.7 517.4 1120.3 456 1123 431.7C1125.7 407.4 1113.1 345.4 1124.4 307.4C1135.7 269.4 901.8 428.4 901.8 428.4Z" fill="#7F8080"/>
<path d="M827.7 256.1C824.9 274.2 824.4 280.8 838.4 297.4C852.4 314 859.7 346.1 863.7 357.4C867.7 368.7 873.7 403.4 883.7 414.7C893.7 426 899.7 433.4 943 431.4C986.3 429.4 1027 410.1 1041.7 388.1C1056.4 366.1 1091 362.1 1101 339.4C1111 316.7 1108.3 319.4 1119.7 310.7C1131 302 1163 285.4 1165.7 262.7C1168.4 240 1175 211.4 1162.4 194.7C1149.7 178 1102.4 50.6999 1065.1 35.3999C1027.8 20.0999 905.1 31.3999 883.8 46.0999C862.5 60.7999 861.1 84.7999 850.5 104.1C839.9 123.4 846.5 154.8 834.5 166.8C822.5 178.8 816.2 184.1 826 195.5C835.8 206.8 837.2 215.2 836.5 230C835.7 244.7 829.3 245.5 827.7 256.1Z" fill="#878787"/>
<path d="M854.3 68.1003C854.3 70.2003 850.6 75.1004 854.3 80.8004C858 86.5004 860 80.8004 860 80.8004C860 80.8004 873.6 58.1003 889.6 53.5003C905.6 48.9003 915.6 40.2003 926.9 43.5003C938.2 46.8003 984.2 44.1003 998.2 36.2003C1012.2 28.3003 1030.6 28.3003 1042.4 30.3003C1054.2 32.3003 1067.6 40.9003 1064.9 35.6003C1062.2 30.3003 1042.9 10.9003 1027.6 8.90035C1012.3 6.90035 960.9 -5.09965 940.3 2.90035C919.7 10.9003 897.6 14.3003 885.6 28.3003C873.6 42.3003 871.6 51.6003 864.9 58.3003C858.3 64.7003 854.3 55.4003 854.3 68.1003Z" fill="#505050"/>
<path d="M1084.6 51.7001C1084.6 51.7001 1067.7 64.0001 1069 79.4001C1070.3 94.7001 1067.7 105.4 1065.3 117.4C1063 129.4 1060.3 133.4 1059.6 146.1C1058.9 158.8 1062.5 152.1 1072.1 170.8C1081.6 189.5 1076.2 184.1 1084.6 202.8C1093 221.5 1099 234.8 1099 224.8C1099 214.8 1100.3 212.8 1112.3 201.5C1124.3 190.2 1127.9 179.3 1139.6 176.8C1151.3 174.3 1156.5 182.3 1162.3 194.8C1168.1 207.3 1168.1 207.3 1168.1 207.3C1168.1 207.3 1163 166.8 1162.3 156.1C1161.6 145.4 1157 133.4 1145 116.1C1133 98.8001 1117 80.1001 1110.3 70.8001C1103.7 61.4001 1088.1 48.8001 1084.6 51.7001Z" fill="#505050"/>
<path d="M899 463C899 463 897.7 508.7 896.4 550.1C895.1 591.5 920.4 708.1 928.4 724.8C936.4 741.5 1067.1 607.5 1091.7 570.8C1116.4 534.1 1127.7 411.6 1124.8 403.5C1121.9 395.4 1122.1 398.2 1122.1 398.2C1122.1 398.2 1117.4 408.2 1113.9 425.5C1110.4 442.8 1090.4 465.5 1075.7 477.5C1061 489.5 985 522.8 975 523.5C965 524.2 946.3 514.2 937 511.5C927.7 508.8 908.5 493.5 907 474C905.6 454.4 908 447.5 899 463Z" fill="#9C9D9E"/>
<path d="M896.3 466.1C896.3 466.1 850.4 705.1 821 790.1C791.6 875.1 781.7 918.1 781.7 918.1H1022.7C1022.7 918.1 1103.2 546.5 1106 536.5C1108.7 526.4 981.7 663.1 966.7 680.1C951.7 697.1 930.7 723.1 927.7 703.1C924.7 683.1 899.7 611.5 906.7 557.5C913.7 503.5 900.1 446.5 896.3 466.1Z" fill="#6B6B6B"/>
<path d="M835.7 489.1C801.9 497.9 707.7 527.3 681.7 542.7C655.7 558.1 624.7 576.1 615.7 616.1C606.7 656.1 595.7 839.1 572.7 887.1C549.7 935.1 562.7 918.1 562.7 918.1H866.7C866.7 918.1 890.7 716.1 885.7 676.1C880.7 636.1 896.3 512.1 896.3 489.1C896.3 466.1 901.8 459.4 901.8 459.4C901.8 459.4 853.6 484.3 835.7 489.1Z" fill="#5C5C5C"/>
<path d="M1122.1 398.1C1122.1 398.1 1093.1 526.5 1080.7 549.1C1068.3 571.7 1022.9 700.1 1013.3 764.1C1003.7 828.1 987.7 918.1 987.7 918.1L1498.7 921C1498.7 921 1494.7 700 1482.7 659.5C1470.7 619 1438.7 581 1408.7 571C1378.7 561 1255.7 508 1233.7 491C1211.7 474 1154.7 433.1 1147.7 422C1140.7 411.1 1119.4 392.7 1122.1 398.1Z" fill="#5C5C5C"/>
<path d="M970.7 555.9C975.56 555.9 979.5 551.96 979.5 547.1C979.5 542.24 975.56 538.3 970.7 538.3C965.84 538.3 961.9 542.24 961.9 547.1C961.9 551.96 965.84 555.9 970.7 555.9Z" fill="#7F8080"/>
<path d="M915.7 807.1C926.746 807.1 935.7 798.145 935.7 787.1C935.7 776.054 926.746 767.1 915.7 767.1C904.655 767.1 895.7 776.054 895.7 787.1C895.7 798.145 904.655 807.1 915.7 807.1Z" fill="#7F8080"/>
<path d="M895.7 926.7C906.746 926.7 915.7 917.746 915.7 906.7C915.7 895.655 906.746 886.7 895.7 886.7C884.655 886.7 875.7 895.655 875.7 906.7C875.7 917.746 884.655 926.7 895.7 926.7Z" fill="#7F8080"/>
</g>
</g>
<g clip-path="url(#clip1)">
<mask id="mask1" mask-type="alpha" maskUnits="userSpaceOnUse" x="517" y="-38" width="1068" height="1272">
<path d="M1195 1234L517 652L761 438L711 164L931 -38L1195 28V352L1547 592L1585 930L1195 1234Z" fill="#C4C4C4"/>
</mask>
<g mask="url(#mask1)">
<path d="M1265.1 598.5L892.1 858.5C892.1 858.5 869.1 878.5 896.1 920.5C923.1 962.5 1084.1 1196.5 1084.1 1196.5C1084.1 1196.5 1096.4 1229.1 1152.1 1191.5C1207.8 1153.9 1541.1 950.5 1541.1 950.5C1541.1 950.5 1563.1 939.5 1568.1 929.5C1573.1 919.5 1580.1 904.1 1580.1 904.1L1352.1 570.5C1352.1 570.5 1340.1 538.5 1265.1 598.5Z" fill="#9C9D9E"/>
<path d="M1005.1 727L1029.3 762.8L1055 744.9C1055 744.9 1046.6 731.5 1041.1 731C1035.6 730.5 1029.1 720.6 1027.6 715.3C1026.1 710 1025.1 704.5 1044.6 691C1064.1 677.5 1094.1 649.5 1103.1 649.5C1112.1 649.5 1121.6 654.5 1127.6 662.5C1133.6 670.5 1140.8 685.1 1140.8 685.1L1179.2 658.4C1179.2 658.4 1171.1 660 1162.6 657C1154.1 654 1155.6 654 1150.1 646.5C1144.6 639 1120.1 609 1087.6 620C1055.1 631 1009.1 673 1005.1 681C1001.1 689 990.4 705.3 1005.1 727Z" fill="#9C9D9E"/>
<path d="M924.1 836.2C924.1 836.2 922.1 833.5 924.1 830.5C926.1 827.5 932.1 824.5 938.6 818.5C945.1 812.5 947.1 811 954.6 805C962.1 799 984.7 793.9 984.7 793.9L924.1 836.2Z" fill="#848484"/>
<path d="M1197.8 645.5V635.6C1197.8 635.6 1195.4 636.1 1207.3 627.6C1219.2 619.1 1221.4 624.8 1234.7 617.7C1248 610.6 1258 603.6 1261.6 601.1C1265.2 598.6 1265.2 598.6 1265.2 598.6L1197.8 645.5Z" fill="#848484"/>
<path d="M1352.1 570.5C1352.1 570.5 1340.1 538.5 1265.1 598.5L892.1 858.5C892.1 858.5 883.2 866.3 883 882.3C975.9 818.7 1304.7 593.5 1316.1 585.2C1329.4 575.5 1548.1 910.9 1568.1 929.5C1573.1 919.5 1580.1 904.1 1580.1 904.1L1352.1 570.5Z" fill="#848484"/>
</g>
</g>
<rect y="203.686" width="44.5587" height="2154.62" transform="rotate(-49.1141 0 203.686)" fill="#C4C4C4"/>
<defs>
<clipPath id="clip0">
<rect x="559" width="939.7" height="926.7" fill="white"/>
</clipPath>
<clipPath id="clip1">
<rect x="883" y="562" width="697.1" height="647.6" fill="white"/>
</clipPath>
</defs>
</svg>
