<svg width="1558" height="647" viewBox="0 0 1558 647" fill="none" xmlns="http://www.w3.org/2000/svg">
<g clip-path="url(#clip0)">
<mask id="mask0" mask-type="alpha" maskUnits="userSpaceOnUse" x="26" y="-28" width="814" height="666">
<path d="M840 464L26 638L44 136L264 -28L762 38L840 464Z" fill="#C4C4C4"/>
</mask>
<g mask="url(#mask0)">
<path d="M602.768 259.938C602.768 259.938 607.078 280.17 600.921 295.124C594.763 310.078 692.669 384.233 696.188 379.835C699.707 375.437 700.586 376.316 700.85 364.881C701.114 353.445 707.008 337.611 708.503 326.792C709.999 315.972 715.98 300.666 715.98 300.666L610.685 251.493L602.768 259.938Z" fill="#7F8080"/>
<path d="M189.768 401.739C189.768 401.739 158.804 455.574 143.673 470.88C128.543 486.186 108.575 527.266 88.6947 565.971C68.8144 604.676 136.196 627.547 136.196 627.547L237.093 622.269L245.274 554.799L195.573 470.88C195.573 470.88 190.647 407.545 189.768 401.739Z" fill="#353535"/>
<path d="M402.909 466.394L391.298 568.873L618.25 562.98C618.25 562.98 593.004 529.553 575.411 522.252C557.818 514.951 474.25 487.593 457.096 484.514C439.943 481.524 402.909 466.394 402.909 466.394Z" fill="#353535"/>
<path d="M181.938 348.256C181.938 348.256 195.133 442.203 202.435 469.208C209.736 496.214 326.994 593.504 326.994 593.504L394.992 551.28C394.992 551.28 393.145 500.876 403.437 463.315C413.729 425.754 181.938 348.256 181.938 348.256Z" fill="#7F8080"/>
<path d="M187.833 421.091C186.601 433.494 185.457 446.865 202.523 489.088C219.588 531.312 230.056 554.799 244.747 568.257C259.437 581.716 300.429 621.037 315.119 631.592C329.81 642.148 321.013 586.466 321.013 572.919C321.013 559.373 296.383 549.433 281.692 538.349C267.002 527.177 204.458 483.722 200.412 462.611C196.365 441.499 192.231 417.045 191.615 412.998C190.911 409.04 188.536 413.614 187.833 421.091Z" fill="#878787"/>
<path d="M147.368 203.817C147.368 203.817 139.099 190.622 131.798 217.891C124.497 245.16 119.219 280.347 123.617 287.384C128.016 294.421 148.248 314.653 147.368 328.728C146.489 342.802 167.6 361.275 175.517 354.238C183.434 347.2 179.652 341.922 179.652 341.922C179.652 341.922 199.62 397.077 215.982 419.948C232.343 442.819 278.174 482.14 336.231 484.427C394.289 486.802 418.919 455.134 425.957 436.925C432.994 418.716 436.512 401.739 443.55 392.327C450.587 382.914 449.443 361.803 452.962 356.525C456.481 351.247 459.999 346.585 462.375 332.51C464.75 318.436 470.028 309.639 470.555 283.865C471.171 258.091 469.94 251.582 463.518 242.785C457.097 233.989 479 192.381 470.731 167.751C462.462 143.12 436.6 85.063 421.91 73.3636C407.22 61.6642 318.11 22.3436 272.368 36.4181C226.626 50.4926 186.161 72.2201 177.98 105.031C169.799 137.842 147.368 203.817 147.368 203.817Z" fill="#878787"/>
<path d="M143.849 136.699C143.849 136.699 142.706 186.575 147.368 203.816C152.03 221.058 155.549 217.011 161.443 230.47C167.336 243.929 166.105 254.485 171.383 265.656C176.661 276.828 183.082 260.994 184.314 252.197C185.545 243.401 187.832 221.146 188.976 208.83C190.12 196.515 190.735 185.344 198.388 173.644C206.041 161.945 210.088 164.848 210.088 156.051C210.088 147.255 211.231 144.88 205.953 143.736C200.676 142.592 203.051 141.361 198.3 131.421C193.638 121.481 193.638 121.481 193.638 121.481C193.638 121.481 195.398 89.1973 199.532 81.6323C203.666 74.0673 226.713 50.5805 234.806 50.5805C242.899 50.5805 244.659 52.3398 256.446 50.5805C268.145 48.8211 268.145 57.0019 256.446 57.8816C244.746 58.7613 250.024 67.5578 261.108 65.7985C272.192 64.0392 261.724 65.7985 285.739 57.8816C309.753 49.9647 306.851 43.5432 319.782 42.9275C332.713 42.3117 347.931 41.432 361.829 46.2701C375.728 51.1962 378.279 51.3722 392.266 57.8816C406.34 64.3911 415.313 73.4515 421.734 73.4515C428.156 73.4515 436.424 54.7148 430.531 46.4461C424.637 38.2653 424.109 28.2372 424.637 38.2653C425.253 48.2054 424.637 48.2054 419.975 41.1681C415.313 34.1309 421.734 34.7467 411.794 28.2372C401.854 21.7278 349.602 -2.55074 337.287 0.264162C324.972 3.07906 257.502 13.547 244.043 24.1028C230.584 34.6587 224.074 37.0338 201.819 57.7936C179.564 78.5535 171.295 95.6188 156.692 106.175C142.09 116.731 143.937 130.805 143.849 136.699Z" fill="#505050"/>
<path d="M441.614 102.217C441.614 102.217 447.596 114.708 452.258 134.764C456.92 154.82 454.633 160.186 457.536 175.404C460.439 190.622 470.907 184.552 462.726 232.142C462.726 232.142 472.754 219.387 472.49 212.35C472.226 205.312 476.889 170.126 466.948 146.112C457.008 122.009 436.864 92.8923 441.614 102.217Z" fill="#505050"/>
<path d="M402.909 466.394C402.909 466.394 389.275 491.992 390.858 506.682C392.441 521.372 381.973 539.053 374.32 552.424C366.579 565.883 353.208 574.415 353.208 574.415C353.208 574.415 354.968 588.754 364.908 604.587C374.848 620.421 398.071 624.556 398.071 624.556C398.071 624.556 400.974 547.762 402.909 534.831C404.845 521.9 408.363 503.163 407.132 490.232C405.988 477.389 399.83 455.486 402.909 466.394Z" fill="#878787"/>
<path d="M594.235 213.052C592.74 211.909 585.175 218.594 586.934 226.247C588.693 233.9 594.235 253.516 604.263 261.169C614.204 268.822 613.94 255.012 615.435 262.665C616.931 270.318 623.352 292.837 643.584 311.046C663.816 329.255 696.628 332.773 707.184 316.324C717.74 299.874 725.92 279.642 730.319 268.207C734.717 256.771 735.597 229.238 737.092 222.201C738.588 215.163 742.37 204.344 739.115 201.705C735.861 199.066 726.184 154.819 721.258 152.708C716.244 150.685 613.06 161.241 613.06 161.241L594.235 213.052Z" fill="#878787"/>
<path d="M586.582 160.537C586.318 162.033 584.207 175.755 584.823 181.913C585.439 188.071 581.92 189.566 584.647 196.251C587.374 202.937 585.087 203.552 588.342 207.071C591.596 210.59 592.476 212.085 598.018 216.483C603.56 220.882 604.439 222.905 608.838 228.799C613.236 234.692 615.611 242.609 616.755 249.646C617.898 256.684 620.185 273.837 620.889 277.443C621.593 281.138 625.903 298.555 628.542 301.81C631.181 305.065 638.834 310.343 644.64 316.148C650.534 322.042 657.571 327.584 661.354 329.959C665.136 332.334 688.007 329.695 693.901 329.959C699.795 330.223 709.471 321.426 714.133 313.861C718.795 306.208 719.147 299.171 723.809 291.87C728.472 284.569 734.189 269.703 733.222 265.48C732.254 261.258 734.101 249.734 734.541 245.776C734.981 241.729 735.685 227.743 737.092 222.113C738.412 216.483 738.412 207.159 740.435 205.4C742.37 203.64 743.602 201.617 743.866 199.858C744.13 198.099 742.018 198.714 740.435 194.316C738.852 189.918 745.713 177.339 743.866 172.325C742.106 167.311 735.069 155.611 731.814 147.694C728.56 139.777 714.485 122.448 707.184 118.93C699.883 115.411 697.508 113.388 693.109 110.749C688.711 108.11 670.062 102.216 663.553 101.073C657.043 99.929 637.691 103.448 622.473 112.772C607.254 122.184 602.504 129.749 599.601 135.379C596.523 140.921 588.078 151.565 586.582 160.537Z" fill="#505050"/>
<path d="M617.986 206.279C617.81 212.436 617.37 233.284 619.13 239.53C620.889 245.775 623.264 258.442 627.047 264.6C630.829 270.758 635.227 278.938 640.242 283.688C645.256 288.351 652.557 288.703 653.436 289.846C654.316 290.99 658.45 279.466 660.738 277.531C663.113 275.508 670.414 270.494 675.956 269.35C681.498 268.207 681.498 272.869 687.127 271.373C692.669 269.878 693.021 266.711 701.818 268.998C710.614 271.373 714.397 278.059 717.916 279.29C721.434 280.434 725.832 277.795 726.712 270.23C727.592 262.665 730.055 249.91 732.606 243.84C735.157 237.77 735.509 228.622 732.606 223.608C729.703 218.594 730.847 198.714 727.944 192.204C725.041 185.783 728.559 167.838 724.689 164.055C720.906 160.273 720.291 159.657 718.531 162.56C716.772 165.463 714.133 173.38 709.999 176.371C705.864 179.273 710.614 177.514 710.262 170.213C709.999 162.912 711.758 159.657 708.503 163.791C705.248 167.926 707.36 171.972 702.961 176.107C698.563 180.241 695.66 183.144 695.044 184.024C694.429 184.903 697.947 180.769 697.947 174.963C697.947 169.069 697.331 169.069 696.804 166.43C696.188 163.791 694.78 162.912 694.429 167.31C694.165 171.708 689.766 171.093 687.655 179.009C685.544 186.926 684.4 187.19 684.4 187.19C684.4 187.19 683.785 187.454 684.137 181.297C684.488 175.139 682.113 171.884 680.618 175.755C679.122 179.537 675.076 184.287 674.46 186.047C673.845 187.806 675.076 180.769 676.132 176.107C677.187 171.444 677.187 166.43 676.132 168.19C675.076 169.949 674.196 168.19 670.942 176.371C667.687 184.551 667.423 186.662 665.928 187.806C664.432 188.95 665.928 187.19 667.423 179.625C668.918 172.06 666.543 174.963 663.728 179.625C660.914 184.287 663.025 184.287 660.034 187.806C657.131 191.325 657.131 195.107 657.131 191.325C657.131 187.542 655.636 183.144 655.636 183.144C655.636 183.144 653.876 185.783 653.876 190.445C653.876 195.107 653.876 196.866 652.381 193.7C650.885 190.533 650.885 187.806 650.885 184.287C650.885 180.769 649.39 187.542 649.39 188.422C649.39 189.301 648.51 192.556 647.015 188.422C645.519 184.287 648.158 179.625 644.376 184.639C640.593 189.653 644.376 189.653 640.593 189.653C636.811 189.653 641.737 188.51 640.857 183.76C639.978 179.097 636.195 179.625 636.195 182.616C636.195 185.519 636.459 190.269 635.579 186.75C634.7 183.232 630.565 177.69 630.565 174.435C630.565 171.181 627.31 169.421 626.167 175.051C625.023 180.593 628.19 189.389 628.19 189.389C628.19 189.389 621.769 183.232 622.648 177.074C623.528 170.917 619.745 172.06 619.13 175.931C618.514 179.713 617.194 179.713 617.458 184.111C617.722 188.51 626.167 194.667 624.408 198.802C622.912 202.76 618.162 200.385 617.986 206.279Z" fill="#878787"/>
<path d="M672.789 280.17C672.789 280.17 661.09 288.879 661.618 289.934C662.233 290.99 658.979 296.884 663.817 300.402C668.655 303.921 671.03 306.56 674.812 304.537C678.595 302.513 679.827 298.115 683.345 298.643C686.864 299.259 692.758 296.62 692.758 299.259C692.758 301.898 701.818 307.176 705.952 301.282C710.087 295.388 710.087 294.421 710.087 289.934C710.087 285.448 700.147 282.809 696.012 280.17C691.878 277.531 677.979 276.212 672.789 280.17Z" fill="#878787"/>
<path d="M626.959 307.528C626.959 307.528 637.339 318.7 646.135 326.792C654.932 334.885 658.451 336.996 663.465 348.256C668.567 359.516 670.766 365.409 680.266 371.479C689.766 377.46 689.239 374.91 691.438 389.864C693.637 404.818 692.317 393.382 701.114 415.374C709.911 437.365 706.392 435.166 712.55 459.796C718.707 484.427 712.55 501.58 712.55 530.609C712.55 559.637 710.087 561.836 710.087 561.836L488.236 564.475C488.236 564.475 494.394 517.414 488.236 501.58C482.079 485.746 481.639 461.995 477.68 456.278C473.722 450.56 482.958 409.216 488.236 399.1C493.514 388.984 498.616 372.359 501.871 366.113C505.126 359.867 592.476 285.097 626.959 307.528Z" fill="#8C8C8C"/>
<path d="M534.858 402.618C534.858 402.618 543.655 422.85 554.651 426.809C565.646 430.767 585.439 433.406 594.235 423.73C603.032 414.054 615.347 400.859 615.347 394.701C615.347 388.544 622.824 370.071 621.945 363.034C621.065 355.996 619.746 339.899 614.468 336.468C609.19 333.125 504.95 361.274 534.858 402.618Z" fill="#767878"/>
<path d="M668.831 359.604C668.831 359.604 675.34 366.465 687.831 369.632C700.322 372.798 700.586 361.275 702.785 369.632C704.985 377.988 707.008 399.54 709.999 407.897C712.901 416.253 725.217 432.087 720.818 444.402C716.42 456.717 716.948 478.973 715.98 484.603C715.013 490.144 712.726 520.58 712.726 520.58C712.726 520.58 672.701 367.52 668.831 359.604Z" fill="#9C9D9E"/>
<path d="M702.258 354.413C702.258 354.413 703.137 369.191 709.999 376.668C716.86 384.145 728.295 387.224 730.934 395.581C733.573 403.938 728.12 411.855 734.629 425.049C741.051 438.244 741.93 457.245 738.851 466.393C735.773 475.63 738.588 482.667 744.041 488.824C749.407 494.982 749.231 496.302 744.041 515.654C738.851 535.006 740.259 554.799 740.259 554.799H702.258C702.258 554.799 713.781 476.333 715.98 466.393C718.179 456.453 700.322 373.238 700.322 373.238C700.322 373.238 701.026 360.043 702.258 354.413Z" fill="#8C8C8C"/>
<path d="M540.84 200.737C540.84 200.737 484.278 177.251 479.527 177.866C474.865 178.482 462.55 184.904 461.67 195.196C460.791 205.488 460.791 222.201 472.49 227.479C484.19 232.757 519.992 245.336 520.872 245.336C521.751 245.336 521.487 255.276 522.631 256.156C523.774 257.035 529.932 260.554 533.187 261.17C536.442 261.786 535.21 264.952 538.201 267.943C541.104 270.846 548.141 270.846 548.141 270.846C548.141 270.846 544.007 304.273 548.141 308.935C552.275 313.597 563.975 314.213 563.975 314.213L593.004 322.394L600.657 319.139C600.657 319.139 598.282 277.795 598.282 275.42C598.282 273.045 603.824 270.142 598.897 262.489C593.883 254.836 601.536 258.707 599.513 244.016C597.49 229.326 593.356 233.197 593.356 229.678C593.356 226.159 593.092 224.4 593.971 220.882C594.851 217.363 592.036 218.419 589.837 223.784C587.638 229.15 585.087 226.687 583.591 227.567C582.096 228.447 582.184 225.192 582.184 225.192H572.771L558.081 217.539L551.924 215.692C552.011 215.955 552.803 205.664 540.84 200.737Z" fill="#353535"/>
<path d="M607.079 274.365C607.079 274.365 614.995 281.138 619.394 285.185C623.792 289.231 627.575 292.398 629.246 294.773C630.917 297.148 627.926 310.695 622.033 312.454C616.139 314.213 622.912 325.913 614.38 336.469C605.847 347.024 602.944 343.242 604.44 345.881C605.935 348.52 608.222 348.784 607.958 354.941C607.694 361.099 606.375 357.316 604.088 363.474C601.801 369.632 600.921 369.895 599.162 371.127C597.402 372.271 602.416 372.007 600.921 378.164C599.425 384.322 597.93 381.067 591.772 387.84C585.615 394.614 582.36 391.095 571.276 398.66C560.105 406.313 539.257 411.591 531.076 404.818C522.895 398.044 517.265 389.952 512.339 380.099C507.325 370.247 502.927 368.488 504.422 362.594C505.918 356.701 506.182 351.775 504.158 347.904C502.135 344.122 504.158 336.644 505.302 331.015C506.445 325.385 503.279 322.922 500.288 315.797C497.385 308.671 501.783 301.37 506.709 296.092C511.723 290.814 514.89 288.439 514.362 283.161C513.747 277.883 518.145 271.814 524.039 269.615C529.932 267.328 537.234 265.304 541.896 267.328C546.558 269.351 548.053 270.846 548.053 270.846C548.053 270.846 549.549 287.296 548.933 294.333C548.317 301.37 550.604 310.959 550.604 310.959C550.604 310.959 558.345 312.454 566.262 313.07C574.179 313.685 578.578 312.63 584.735 315.797C590.893 318.963 596.171 317.38 596.171 315.797C596.171 314.213 598.194 305.417 595.555 299.875C592.916 294.333 596.259 286.944 597.314 283.425C598.37 279.995 596.787 278.411 598.194 275.508C599.601 272.606 599.777 271.11 607.079 274.365Z" fill="#878787"/>
<path d="M561.688 277.707C561.688 277.707 559.929 302.513 561.688 303.921C563.447 305.416 578.402 311.222 581.92 303.921C585.439 296.619 580.161 286.327 576.027 283.425C571.892 280.522 561.776 275.156 561.688 277.707Z" fill="#878787"/>
</g>
</g>
<rect x="1548.55" y="287.15" width="44.5587" height="1580.48" transform="rotate(78.4643 1548.55 287.15)" fill="#C4C4C4"/>
<defs>
<clipPath id="clip0">
<rect x="85" width="663" height="633" fill="white"/>
</clipPath>
</defs>
</svg>
