<svg width="1635" height="1274" viewBox="0 0 1635 1274" fill="none" xmlns="http://www.w3.org/2000/svg">
<mask id="mask0" mask-type="alpha" maskUnits="userSpaceOnUse" x="110" y="0" width="1496" height="1264">
<path d="M1606 1264L918 880L110 440L210 240L1102 0H1510L1606 504V1264Z" fill="#C4C4C4"/>
</mask>
<g mask="url(#mask0)">
<path d="M903.736 345.56V359.26L908.736 363.96C908.736 363.96 906.036 372.66 908.736 375.26C911.436 377.96 913.736 380.96 913.736 380.96V394.66L960.036 419.36C960.036 419.36 976.336 399.66 973.336 391.36C970.336 383.06 968.636 378.06 968.336 372.66C968.036 367.36 967.036 354.66 967.036 354.66L958.336 347.96L911.636 340.66L903.736 345.56Z" fill="#353535"/>
<path d="M1184.24 474.96C1184.24 474.96 1193.34 464.76 1184.24 440.86C1175.14 416.96 1164.44 400.96 1159.74 376.96C1155.04 352.96 1137.14 338.26 1144.44 300.26C1151.74 262.26 1148.24 238.96 1147.94 218.26C1147.64 197.56 1149.74 118.96 1199.04 104.26C1248.34 89.5599 1365.64 57.4599 1422.04 78.5599C1478.44 99.6599 1497.74 121.66 1508.44 158.96C1519.14 196.26 1525.74 271.66 1525.74 295.66C1525.74 319.66 1478.44 364.96 1456.44 394.96C1434.44 424.96 1435.14 498.26 1435.14 519.96C1435.04 541.56 1168.04 583.56 1184.24 474.96Z" fill="#7F8080"/>
<path d="M1481.44 328.76C1452.74 352.36 1423.64 375.56 1394.94 399.26C1362.24 426.26 1331.04 454.96 1297.34 480.76C1271.14 500.86 1242.04 516.16 1211.24 528.06C1276.74 565.36 1435.04 536.56 1435.04 519.86C1435.04 498.16 1434.34 424.86 1456.34 394.86C1478.34 364.86 1525.64 319.56 1525.64 295.56C1525.64 294.36 1525.64 292.96 1525.54 291.46C1511.14 304.16 1496.34 316.56 1481.44 328.76Z" fill="#6C6D6D"/>
<path d="M1201.04 389.66C1193.44 378.76 1189.34 395.56 1184.14 353.56C1178.94 311.56 1174.34 283.56 1174.34 283.56C1174.34 283.56 1163.64 259.56 1159.04 260.26C1154.34 260.96 1149.04 266.26 1147.94 275.76C1146.84 285.26 1144.44 286.96 1144.44 286.96C1144.44 286.96 1145.74 280.26 1144.44 257.66C1143.14 235.06 1137.14 214.36 1137.14 214.36C1137.14 214.36 1138.44 182.06 1137.14 159.06C1135.84 136.06 1143.84 110.26 1155.84 89.6601C1167.84 69.0601 1199.24 43.2601 1226.04 33.6601C1252.84 24.0601 1284.74 3.06013 1334.24 9.06013C1383.74 15.0601 1408.74 17.1601 1440.74 30.5601C1472.74 43.9601 1480.74 45.2601 1501.74 71.5601C1522.74 97.8601 1523.74 126.86 1535.74 158.86C1547.74 190.86 1524.74 266.86 1525.74 290.86C1526.74 314.86 1534.74 315.16 1517.74 340.56C1500.74 365.96 1515.74 359.76 1487.74 386.86C1459.74 413.96 1460.74 435.96 1417.74 446.96C1374.74 457.96 1350.04 462.96 1310.84 451.96C1271.74 440.96 1244.74 419.26 1244.74 419.26C1244.74 419.26 1215.84 411.06 1201.04 389.66Z" fill="#505050"/>
<path d="M1535.74 158.96C1523.74 126.96 1522.74 97.9598 1501.74 71.6598C1493.44 61.1598 1487.14 54.6598 1480.54 49.7598C1479.54 51.7598 1478.44 53.7598 1477.14 55.6598C1476.04 57.6598 1474.94 59.5598 1473.74 61.3598C1474.84 64.5598 1475.94 67.8598 1476.84 71.0598C1479.04 78.5598 1480.94 86.2598 1483.14 93.8598C1485.44 102.06 1488.64 109.86 1491.14 117.96C1493.64 125.96 1495.64 134.06 1496.94 142.26C1499.54 158.16 1502.24 174.56 1502.04 190.86C1501.84 206.66 1499.24 222.66 1496.64 238.16C1495.24 246.66 1493.24 255.06 1490.94 263.26C1484.54 285.56 1476.34 308.96 1466.04 329.56C1464.64 332.46 1462.84 335.06 1460.94 337.66C1455.24 345.56 1449.44 353.76 1442.64 360.76C1437.94 365.56 1432.34 369.36 1427.14 373.46C1422.14 377.26 1417.34 381.36 1411.94 384.66C1403.54 389.86 1394.24 393.46 1385.14 397.36C1376.04 401.26 1366.94 404.96 1357.54 408.26C1345.14 412.56 1332.84 416.86 1320.74 421.66C1305.84 427.56 1290.94 433.46 1275.64 438.26C1285.54 443.26 1297.54 448.16 1310.84 451.96C1349.94 462.96 1374.74 457.96 1417.74 446.96C1460.74 435.96 1459.74 413.96 1487.74 386.86C1515.74 359.76 1500.74 365.96 1517.74 340.56C1534.74 315.26 1526.74 314.86 1525.74 290.86C1524.74 266.86 1547.74 190.96 1535.74 158.96Z" fill="#434343"/>
<path d="M891.036 399.26C888.836 404.56 889.036 412.96 883.736 414.96C878.436 416.96 876.036 426.26 878.736 436.66C881.436 447.06 878.736 459.96 880.436 474.96C882.136 489.96 945.136 491.96 945.136 491.96C945.136 491.96 987.836 474.96 987.436 461.26C987.136 447.56 989.736 413.26 990.136 407.56C990.436 401.86 978.136 391.56 973.436 391.26C968.736 390.96 976.136 394.26 967.736 399.26C959.336 404.26 946.236 404.96 941.136 398.56C936.036 392.16 935.436 390.86 928.436 391.16C921.436 391.56 916.736 394.36 910.736 391.06C904.736 387.76 901.436 390.46 897.436 393.46C893.436 396.46 894.036 391.96 891.036 399.26Z" fill="#7F8080"/>
<path d="M988.736 472.26C988.736 472.26 945.536 443.46 920.736 459.46C895.936 475.46 871.736 477.86 869.736 507.86C867.736 537.86 837.736 623.86 825.736 665.86C813.736 707.86 830.736 755.86 830.736 755.86L930.236 830.86L1596.74 838.86C1596.74 838.86 1613.74 591.86 1596.74 575.86C1579.74 559.86 1540.74 579.86 1521.74 566.86C1502.74 553.86 1460.74 529.86 1451.74 507.86C1442.74 485.86 1408.74 502.16 1343.74 497.96C1278.74 493.76 1194.64 477.86 1184.24 474.86C1173.84 471.86 1181.24 531.86 1148.04 553.86C1114.84 575.86 1103.14 557.86 1070.94 555.86C1038.84 553.86 1019.14 546.86 1019.14 546.86C1019.14 546.86 999.736 471.36 988.736 472.26Z" fill="#353535"/>
<path d="M1596.74 575.96C1579.74 559.96 1540.74 579.96 1521.74 566.96C1502.74 553.96 1460.74 529.96 1451.74 507.96C1448.64 500.26 1442.44 497.26 1432.94 496.46C1429.94 503.86 1425.74 510.66 1420.24 516.66C1414.04 526.26 1405.74 533.86 1395.44 539.46C1376.84 552.86 1356.24 563.16 1337.34 576.06C1327.34 584.96 1318.34 594.96 1308.84 604.46C1299.34 614.06 1289.84 623.76 1281.14 634.06C1274.24 643.56 1267.14 652.96 1259.64 662.06C1252.64 670.66 1244.64 676.96 1235.84 683.76C1230.04 688.26 1224.44 692.86 1218.04 696.46C1208.44 701.76 1197.84 705.66 1187.74 709.76C1180.94 712.46 1174.04 715.06 1167.14 717.46C1154.84 721.86 1142.24 725.56 1129.34 727.66C1116.04 729.76 1102.14 732.26 1088.54 732.26C1085.34 732.26 1082.14 732.06 1079.04 731.76C1078.14 731.66 1077.34 731.56 1076.44 731.46C1073.84 731.76 1071.34 732.06 1068.74 732.36C1062.84 733.36 1056.94 734.76 1051.34 736.86C1045.64 738.96 1040.04 741.36 1034.44 743.56C1022.24 748.36 1009.84 752.86 996.836 754.86C986.536 756.46 975.836 758.56 965.336 758.66C963.936 758.66 962.536 758.66 961.236 758.46C952.736 757.86 943.036 756.66 934.736 754.86C925.236 752.86 915.636 748.66 907.536 743.86C900.736 739.76 893.636 733.96 887.736 728.76C886.836 727.96 886.036 727.26 885.236 726.46C879.536 720.56 874.236 713.46 869.836 706.26C867.836 703.06 864.536 693.96 864.636 694.26C862.836 689.96 860.936 686.66 859.836 682.46C858.836 678.76 857.936 668.56 858.036 669.36C857.636 666.56 856.336 660.06 856.336 655.66C856.336 654.26 856.536 652.76 856.636 651.36C858.236 635.66 860.336 622.56 865.136 608.06C869.636 594.26 872.936 579.86 875.336 565.46C877.036 548.66 877.836 531.86 878.536 515.06C879.036 504.46 879.636 493.86 880.536 483.36C874.536 489.06 870.636 496.46 869.836 507.86C867.836 537.86 837.836 623.86 825.836 665.86C813.836 707.86 830.836 755.86 830.836 755.86L930.336 830.86L1596.84 838.86C1596.74 838.96 1613.74 591.96 1596.74 575.96Z" fill="#262626"/>
<path d="M903.336 810.66C903.336 810.66 910.736 832.96 930.236 960.96C949.736 1088.96 944.436 1260.96 931.136 1310.96C917.836 1360.96 910.136 1442.96 910.136 1442.96C910.136 1442.96 1165.14 1444.96 1407.44 1478.96C1649.74 1512.96 1590.84 1432.96 1604.34 1326.96C1617.84 1220.96 1596.74 838.96 1596.74 838.96L903.336 810.66Z" fill="#262626"/>
</g>
<rect x="1634.43" y="1234.59" width="44.5587" height="1839.72" transform="rotate(118.745 1634.43 1234.59)" fill="#C4C4C4"/>
<circle cx="1301.5" cy="1076.77" r="56" transform="rotate(139.269 1301.5 1076.77)" fill="#C4C4C4"/>
<circle cx="1301.5" cy="1076.77" r="47" transform="rotate(139.269 1301.5 1076.77)" fill="white"/>
</svg>
