<svg width="1558" height="1081" viewBox="0 0 1558 1081" fill="none" xmlns="http://www.w3.org/2000/svg">
<g clip-path="url(#clip0)">
<mask id="mask0" mask-type="alpha" maskUnits="userSpaceOnUse" x="361" y="-88" width="1154" height="1014">
<path d="M1367.44 925.054L361 279.782L484.328 -88H951.214L1272.75 -39.5496L1515 444.954L1367.44 925.054Z" fill="#C4C4C4"/>
</mask>
<g mask="url(#mask0)">
<path d="M702.337 38.7296C702.337 38.7296 706.104 131.14 705.541 160.406C704.979 189.67 741.511 195.299 741.511 195.299L870.159 61.4665C870.159 61.4665 867.967 36.5347 866.843 20.2137C865.719 3.89275 702.337 38.7296 702.337 38.7296Z" fill="#7F8080"/>
<path d="M893.706 390.025C833.457 408.879 773.375 746.836 773.375 746.836C773.375 746.836 1268.24 903.461 1256.32 842.509C1215.36 632.758 1301.29 481.76 1301.29 481.76C1301.29 481.76 1257 417.546 1250.7 420.416C1244.41 423.286 1258.57 424.919 1201.25 429.421C1143.92 433.923 1125.93 411.299 1093.34 411.355C1060.74 411.411 1051.75 370.834 1043.88 372.579C1036.01 374.267 918.884 382.146 893.706 390.025Z" fill="#474748"/>
<path d="M587.514 109.754C575.15 114.82 588.076 96.1346 557.727 130.578C520.746 172.562 528.501 162.094 506.582 198.113C484.663 234.132 477.357 236.383 463.306 247.076C449.256 257.769 444.76 258.332 438.015 264.522C431.271 270.713 419.468 275.216 413.286 280.281C407.104 285.346 422.278 269.588 436.891 273.527C451.504 277.467 463.306 269.532 472.299 276.004C481.292 282.532 502.086 275.779 521.195 265.649C540.304 255.518 548.735 359.072 553.231 383.835C557.727 408.598 566.157 417.603 553.792 446.868C541.428 476.133 530.75 496.957 530.75 496.957L790.406 475.57C790.406 475.57 976.996 291.312 1048.37 294.519C1119.76 297.727 1167.53 264.522 1165.28 256.081C1163.03 247.639 1126.49 192.485 1112.45 172.224C1098.4 151.964 1075.92 96.81 1056.8 76.5497C1037.7 56.2891 1024.77 59.2719 991.05 51.2802C957.328 43.3448 933.161 43.2886 915.738 44.977C898.315 46.6653 879.656 34.8467 873.586 32.0327C867.516 29.2187 836.492 91.6322 810.077 103.451C783.662 115.27 769.049 142.903 756.684 158.661C744.32 174.419 733.192 193.78 727.684 190.966C722.175 188.152 716.78 173.294 709.474 151.908C702.168 130.522 709.474 123.768 715.094 110.261C720.715 96.7539 713.408 69.1771 705.539 57.9212C697.671 46.6653 680.249 80.9957 664.512 84.9351C648.775 88.8752 587.514 109.754 587.514 109.754Z" fill="#6B6B6B"/>
<path d="M812.326 145.21C811.876 150.838 809.516 188.546 803.334 206.555C797.151 224.564 853.354 305.607 880.331 293.225C907.308 280.844 1005.67 285.908 1020.83 272.964C1036.01 260.02 1041.07 168.847 1020.83 154.215C1000.6 139.582 901.126 93.4329 879.769 96.2468C858.412 99.0607 813.113 136.149 812.326 145.21Z" fill="#878787"/>
<path d="M802.883 133.392C802.883 133.392 803.896 149.15 805.582 153.652C807.267 158.155 810.527 166.146 810.246 168.904C809.909 171.662 810.246 175.038 810.246 175.038C810.246 175.038 808.392 159.843 821.319 147.461C834.245 135.08 832.558 130.015 840.989 122.136C849.42 114.257 858.974 115.945 869.09 112.569C879.207 109.192 891.009 106.378 892.133 117.634C893.258 128.889 907.87 142.397 911.805 146.336C915.738 150.275 920.797 170.536 928.103 178.415C935.41 186.295 944.964 180.723 940.467 195.299C935.971 209.932 933.161 220.625 938.22 227.378C943.278 234.132 937.152 221.187 941.648 211.057C946.144 200.927 947.774 229.63 952.833 234.695C957.89 239.76 963.512 249.89 970.258 234.695C976.996 219.5 986.55 208.243 1001.73 212.745C1016.9 217.248 1023.65 222.876 1021.4 236.383C1019.15 249.89 1013.53 254.393 1008.47 262.835C1003.41 271.276 995.55 275.779 995.55 275.779C995.55 275.779 1027.58 276.341 1042.76 275.779C1057.93 275.216 1057.37 263.96 1058.5 253.267C1059.62 242.574 1060.74 233.006 1062.43 219.5C1064.11 205.992 1053.43 155.904 1046.13 145.211C1038.82 134.517 1011.84 115.607 990.489 109.586C969.135 103.564 975.312 99.6238 953.394 93.4337C931.475 87.2427 906.184 84.4288 887.076 82.7403C867.967 81.0518 859.536 88.1435 842.113 96.1345C824.69 104.126 800.523 115.945 799.399 121.011C798.275 126.075 798.499 148.024 802.883 133.392Z" fill="#505050"/>
<path d="M508.831 364.699C508.831 364.699 497.591 359.071 481.292 359.635C464.993 360.197 462.183 381.584 429.585 368.076C396.988 354.569 387.433 311.234 400.922 289.848C414.411 268.462 426.775 262.271 438.016 264.523C449.257 266.773 459.373 271.839 474.547 271.839C489.722 271.839 516.7 251.015 527.94 238.634C539.18 226.252 565.034 224.001 590.325 222.875C615.616 221.75 645.403 229.066 648.776 232.443C652.148 235.819 652.71 251.015 636.973 252.704C621.237 254.392 595.383 252.141 586.391 252.704C577.399 253.266 608.31 264.973 616.74 264.466C625.17 263.96 633.039 281.969 622.923 290.411C612.806 298.853 616.178 293.225 616.74 305.044C617.302 316.862 611.12 325.304 606.624 325.304C602.128 325.304 608.872 332.058 597.631 338.249C586.391 344.439 587.515 346.69 565.596 354.007C543.676 361.323 516.7 364.137 508.831 364.699Z" fill="#878787"/>
<path d="M1082.66 258.332C1075.92 258.388 1014.1 267.337 989.366 272.402C964.635 277.467 915.739 262.271 887.075 248.202C858.411 234.132 852.455 218.936 833.795 204.867C815.136 190.797 802.547 184.606 786.641 184.606C770.735 184.606 767.925 201.489 752.751 208.244C737.576 214.997 724.65 221.188 720.715 225.689C716.781 230.192 728.022 257.093 720.715 264.466C713.409 271.839 707.227 285.346 712.285 290.974C717.343 296.601 717.905 306.169 718.467 314.048C719.029 321.928 731.956 332.621 739.824 339.936C747.693 347.253 743.533 361.323 786.079 365.826C828.624 370.327 913.49 384.398 952.832 397.904C992.173 411.412 1036.57 415.351 1070.86 406.909C1105.14 398.467 1212.94 353.444 1211.36 328.118C1204.62 220.625 1154.43 257.6 1082.66 258.332Z" fill="#878787"/>
<path d="M552.107 187.982L544.239 195.299L537.495 222.763L533.617 233.907C533.617 233.907 597.857 260.527 610.052 263.622C622.248 266.718 647.596 270.15 650.687 256.08C653.834 242.011 654.959 230.361 660.579 227.209C666.199 224.057 695.424 227.209 695.424 227.209L702.337 217.811L747.131 217.248C747.131 217.248 758.372 208.299 752.751 195.299C747.131 182.354 752.133 186.181 747.131 182.354C742.129 178.471 744.939 174.644 744.939 174.644L735.328 179.259H652.71L645.966 184.606H626.295L629.105 179.259H576.275L566.158 172.224C566.158 172.224 559.976 173.35 553.793 179.259C547.611 185.168 552.107 187.982 552.107 187.982Z" fill="#404040"/>
<path d="M724.087 471.63C728.022 466.002 788.664 410.285 798.836 387.211C809.009 364.136 814.011 338.811 833.682 341.062C853.353 343.313 894.212 373.704 903.318 384.96C912.366 396.216 912.366 409.16 898.315 431.672C884.265 454.183 858.973 481.76 858.973 481.76L724.087 471.63Z" fill="#595A5A"/>
<path d="M1217.55 243.136C1217.55 243.136 1165.84 282.868 1168.65 294.519C1171.46 306.168 1173.71 314.61 1186.07 326.992C1198.44 339.373 1211.36 341.061 1225.42 372.578C1239.46 404.095 1256.32 456.997 1253.52 466.002C1250.71 475.007 1396.83 481.76 1396.83 481.76C1396.83 481.76 1351.87 359.352 1328.83 340.949C1305.79 322.489 1232.16 273.47 1231.03 264.522C1229.91 255.573 1220.64 240.772 1217.55 243.136Z" fill="#595A5A"/>
<path d="M1084.35 216.122C1073.16 216.91 1070.07 225.126 1062.59 231.88C1055.12 238.633 1053.6 259.232 1055.4 261.652C1057.2 264.072 1068.22 270.037 1069.51 261.652C1070.8 253.266 1070.8 244.881 1078.11 242.854C1085.42 240.885 1100.59 245.95 1111.27 252.703C1121.95 259.457 1113.85 263.79 1131.11 281.012C1148.36 298.29 1156.18 303.692 1174.49 311.966C1192.76 320.239 1213.55 262.833 1206.25 257.206C1198.95 251.578 1184.5 248.595 1165.28 235.82C1146.05 223.044 1124.75 210.494 1116.89 212.182C1109.02 213.87 1097.78 214.434 1096.09 214.434C1094.41 214.434 1087.16 215.897 1084.35 216.122Z" fill="#919191"/>
<path d="M816.877 362.335C816.877 362.335 807.322 342.75 812.943 322.49C818.563 302.229 815.753 266.774 820.811 256.643C825.869 246.513 824.183 238.634 835.986 238.634C847.788 238.634 875.328 238.071 874.203 245.387C873.079 252.703 868.583 240.885 881.51 229.629C894.437 218.373 900.675 214.602 909.611 219.33C918.603 224.001 916.356 230.192 920.852 235.257C925.348 240.322 924.954 233.625 930.743 242.854C936.589 252.141 943.895 249.889 951.763 254.392C959.628 258.894 962.895 260.808 960.981 271.951C959.067 283.038 955.135 294.8 957.383 297.671C959.628 300.541 981.551 299.978 983.236 306.732C984.921 313.485 979.867 325.304 968.059 333.745C956.259 342.188 947.379 355.808 934.903 372.522C922.426 389.237 914.107 397.904 903.429 402.407C892.751 406.909 816.877 362.335 816.877 362.335Z" fill="#919191"/>
<path d="M622.922 2.82335C622.922 2.82335 633.601 22.296 635.849 38.7296C638.097 55.1631 633.039 60.2283 629.386 76.5493C625.732 92.8703 625.171 99.0612 633.039 107.503C640.908 115.945 643.155 124.387 633.039 125.512C622.922 126.638 647.09 131.141 662.264 125.512C677.439 119.884 666.76 108.628 658.892 98.4981C651.024 88.3678 654.958 83.8654 667.323 73.7354C679.687 63.6051 680.25 76.5493 685.869 57.9771C691.489 39.4049 702.055 62.0855 711.161 65.5748C720.265 69.0078 724.088 74.6921 724.088 74.6921L688.679 -18L622.922 2.82335Z" fill="#505050"/>
<path d="M874.148 5.07439C874.148 5.07439 865.156 19.707 874.148 34.9024C883.14 50.0979 871.9 51.7862 881.454 58.5398C891.009 65.2933 914.614 59.2714 924.731 51.2798C934.847 43.2881 937.657 43.4006 935.971 33.2703C934.285 23.14 932.205 21.9582 930.688 29.2745C929.171 36.5908 922.988 46.496 918.492 38.7295C913.996 30.9629 920.74 30.4001 918.492 15.7674C916.3 1.13484 874.148 5.07439 874.148 5.07439Z" fill="#505050"/>
<path d="M681.373 -1.11621C681.373 -1.11621 717.343 71.4842 733.08 85.5541C748.816 99.6237 807.267 109.754 821.318 99.0614C835.369 88.368 865.718 53.4748 873.587 32.0886C881.455 10.7025 881.455 -1.11621 881.455 -1.11621H681.373Z" fill="#878787"/>
<path d="M741.51 13.5164C741.51 13.5164 737.014 29.8374 741.51 31.5257C746.006 33.2141 740.386 26.4606 746.568 25.8978C752.751 25.335 756.123 21.1141 763.429 22.6336C770.735 24.1531 769.049 29.2746 781.413 29.2746C793.778 29.2746 800.523 24.4908 805.019 22.6336C809.515 20.7764 810.639 22.1834 817.383 22.6336C824.128 23.0838 827.5 29.7811 830.31 31.7508C833.12 33.7206 836.492 16.8369 830.31 13.4601C824.128 10.0833 821.88 6.14375 810.639 10.0833C799.399 14.0229 798.836 14.5856 791.53 12.3345C784.224 10.0833 770.174 15.1484 763.429 12.8973C756.684 10.6461 747.13 6.76282 741.51 13.5164Z" fill="#505050"/>
<path d="M773.546 41.6561C771.578 37.2664 786.472 38.2794 791.531 41.6561C796.589 45.0329 798.837 43.9074 798.837 43.9074C798.837 43.9074 784.786 52.293 781.414 51.2236C778.042 50.0981 776.356 47.8469 773.546 41.6561Z" fill="#505050"/>
<path d="M724.087 471.63C724.087 471.63 692.051 535.226 681.373 570.119C670.694 605.012 683.115 633.152 678 682.678C672.942 732.204 820.418 646.659 833.794 634.278C847.17 621.897 868.977 544.231 868.19 519.468C867.403 494.705 883.196 456.435 888.255 438.425C893.313 420.416 724.087 471.63 724.087 471.63Z" fill="#595A5A"/>
<path d="M1253.52 466.002C1253.52 466.002 1246.21 514.965 1234.97 548.733C1223.73 582.501 1225.98 650.036 1274.31 626.398C1322.65 602.762 1412.57 564.491 1396.83 481.761C1381.09 399.031 1253.52 466.002 1253.52 466.002Z" fill="#595A5A"/>
</g>
<path d="M-5.94152 9.99943L-30 47.5049L1581.42 1081.17L1605.48 1043.67L-5.94152 9.99943Z" fill="white"/>
</g>
<defs>
<clipPath id="clip0">
<rect width="1558" height="1081" fill="white"/>
</clipPath>
</defs>
</svg>
