<svg width="1163" height="2251" viewBox="0 0 1163 2251" fill="none" xmlns="http://www.w3.org/2000/svg">
<rect y="0.0136719" width="719" height="2250" fill="#595959"/>
<path d="M832.566 669.104C832.566 669.104 874.06 695.702 892.253 703.612C910.447 711.521 918.773 708.161 922.622 700.462C926.47 692.762 921.572 691.362 925.771 682.053C929.969 672.743 931.578 676.243 931.229 672.043C930.879 667.844 929.969 663.294 932.138 657.344C934.307 651.394 931.438 649.435 937.386 648.245C943.334 647.055 948.442 643.695 947.532 635.995C946.623 628.296 938.226 626.546 939.975 618.496C941.725 610.447 944.034 609.187 946.133 603.587C948.232 597.987 944.383 569.779 938.436 556.34C932.488 542.9 913.945 535.341 903.799 530.791C893.653 526.241 848.87 520.432 848.87 520.432L839.774 590.988L803.527 572.509L798.769 620.106C798.769 620.106 813.464 661.474 832.566 669.104Z" fill="#595A5A"/>
<path d="M924.371 529.322C929.199 533.171 927.87 539.261 928.01 544.091C928.01 544.091 920.873 541.571 913.665 538.771C906.458 535.971 905.408 535.061 893.023 531.771C880.638 528.482 879.658 527.572 873.151 528.412C866.643 529.322 863.634 528.412 864.544 532.261C865.454 536.111 863.495 534.921 860.136 547.661C856.777 560.4 859.786 567.119 858.037 579.859C856.287 592.598 859.296 595.608 854.328 606.667C849.36 617.727 844.672 619.967 841.733 610.867C838.794 601.768 835.225 595.818 831.937 593.018C828.648 590.218 826.479 592.318 824.939 590.218C823.4 588.118 818.992 579.859 812.694 583.219C806.396 586.578 803.388 589.868 803.038 594.628C802.688 599.388 803.597 609.467 805.697 614.367C805.697 614.367 802.128 614.927 801.428 622.906C800.729 630.816 804.437 633.406 801.428 639.006C798.419 644.605 791.842 645.305 789.533 650.205C787.224 655.105 784.145 660.704 782.745 648.315C781.346 635.926 780.646 617.727 784.145 602.328C787.644 586.928 784.845 586.228 786.454 574.819C788.063 563.41 790.163 553.82 794.361 545.631C798.559 537.441 811.644 525.122 825.149 520.572C838.654 516.022 855.448 512.032 869.442 513.222C883.437 514.412 892.743 520.712 903.239 520.572C913.945 520.432 920.593 526.312 924.371 529.322Z" fill="#595A5A"/>
<path d="M882.457 695.003C876.859 700.813 866.153 714.112 864.754 724.891C863.355 735.601 780.086 666.304 780.086 666.304C780.086 666.304 782.675 653.705 785.684 646.495C788.693 639.286 805.487 604.008 805.487 604.008L882.457 695.003Z" fill="#595A5A"/>
<path d="M756.296 648.315C756.296 648.315 784.285 659.515 801.778 673.514C819.271 687.513 845.092 702.002 854.958 713.412C864.824 724.821 866.293 716.212 873.221 730.211C880.148 744.21 869.652 760.309 876.649 770.809C883.647 781.308 897.641 826.806 897.641 842.905C897.641 859.004 935.987 820.506 947.602 815.606C959.218 810.706 938.926 824.706 953.62 843.605C968.314 862.504 972.513 873.003 982.309 876.503C992.105 880.003 992.105 908.001 997.003 919.2C1001.9 930.4 1006.8 942.999 991.406 956.998C976.011 970.998 838.864 1026.99 805.977 1041.69C773.089 1056.39 721.309 959.098 712.912 932.5C704.515 905.901 703.816 766.609 716.411 744.91C729.006 723.211 736.003 702.912 740.202 683.313C744.4 663.714 746.01 643.836 756.296 648.315Z" fill="#595A5A"/>
<path d="M937.456 1189.6C937.456 1189.6 910.167 1151.8 914.365 1088.8C918.563 1025.8 867.273 931.45 882.457 887.212C897.641 842.975 892.183 813.436 892.183 813.436L740.202 683.313C740.202 683.313 742.651 688.633 706.755 725.941C670.858 763.249 660.362 803.147 662.461 864.114C664.561 925.01 679.255 1076.2 696.049 1135C712.842 1193.8 717.041 1208.49 717.041 1208.49C717.041 1208.49 891.274 1183.3 937.456 1189.6Z" fill="#595A5A"/>
<path d="M916.534 1173.5C944.034 1190.09 928.989 1259.59 937.456 1284.79C945.923 1309.99 962.717 1382.44 973.213 1428.63C983.708 1474.83 985.808 1552.53 1007.85 1597.67C1029.89 1642.82 1021.49 1682.72 1039.34 1700.57C1057.18 1718.42 1054.03 1720.52 1018.35 1744.67C982.659 1768.81 978.111 1769.86 964.116 1744.67C950.121 1719.47 940.675 1679.57 924.931 1631.27C909.187 1582.97 875.95 1500.03 854.258 1438.08C832.566 1376.14 823.12 1402.38 823.12 1418.13C823.12 1433.88 803.178 1515.78 791.632 1561.98C780.086 1608.17 787.434 1631.27 766.442 1665.92C745.45 1700.57 744.4 1689.02 743.351 1715.27C742.301 1741.52 645.738 1748.87 641.54 1731.02C637.341 1713.17 654.485 1690.07 662.182 1650.17C669.879 1610.27 689.821 1464.33 701.367 1434.93C712.912 1405.53 711.863 1400.28 723.408 1375.09C734.954 1349.89 735.514 1238.52 742.581 1204.92C749.648 1171.4 810.525 1109.45 916.534 1173.5Z" fill="#595A5A"/>
<path d="M1029.89 1710.02C1034.79 1706.66 1027.79 1726.82 1087.62 1719.47C1147.45 1712.12 1153.74 1710.02 1161.09 1727.87C1168.44 1745.71 1131.7 1753.06 1084.47 1769.86C1037.24 1786.66 1039.34 1780.36 1029.89 1780.36C1020.44 1780.36 1029.89 1794.01 1029.89 1794.01C1029.89 1794.01 964.466 1792.96 964.116 1784.56C963.766 1776.16 953.97 1758.31 964.116 1744.66C974.262 1731.02 1013.1 1721.57 1029.89 1710.02Z" fill="#595A5A"/>
<path d="M743.351 1715.27C743.351 1715.27 739.152 1721.57 779.037 1728.92C818.922 1736.27 832.007 1725.77 845.442 1728.92C858.806 1732.07 859.856 1734.87 842.013 1751.8C824.17 1768.81 762.243 1771.96 730.755 1768.81C699.268 1765.66 695.069 1763.14 695.069 1763.14L690.871 1776.16C690.871 1776.16 645.458 1777.49 640.91 1763.14C636.292 1748.86 650.986 1715.27 650.986 1715.27H743.351Z" fill="#595A5A"/>
<path d="M947.532 815.606C947.532 815.606 950.961 803.916 964.046 799.297C977.131 794.607 973.352 783.897 989.726 780.188C1006.03 776.478 1012.61 764.298 1025.2 769.898C1037.8 775.498 1038.71 782.008 1041.51 787.187C1044.31 792.297 1036.4 788.097 1036.4 788.097L1042.14 811.896L1029.89 830.585C1029.89 830.585 1038.29 831.075 1040.18 840.874C1042.07 850.674 1044.86 850.674 1044.38 862.783C1043.89 874.892 1048.57 870.693 1041.09 880.072C1033.6 889.382 1031.78 896.871 1021 905.761C1010.3 914.65 997.003 919.27 997.003 919.27L937.456 845.494L947.532 815.606Z" fill="#595A5A"/>
<path d="M928.08 661.614L959.638 655.805C959.638 655.805 963.836 657.415 959.638 661.614C955.439 665.814 920.453 670.924 920.453 670.924L928.08 661.614Z" fill="#595A5A"/>
<rect x="742.064" y="2249.56" width="44.5587" height="2249.56" transform="rotate(179.967 742.064 2249.56)" fill="#C4C4C4"/>
<circle cx="719.388" cy="1926.93" r="56" transform="rotate(-159.51 719.388 1926.93)" fill="#C4C4C4"/>
<circle cx="719.206" cy="1926.62" r="47" transform="rotate(-159.51 719.206 1926.62)" fill="#595959"/>
</svg>
