<svg width="1558" height="1209" viewBox="0 0 1558 1209" fill="none" xmlns="http://www.w3.org/2000/svg">
<g clip-path="url(#clip0)">
<g clip-path="url(#clip1)">
<mask id="mask0" mask-type="alpha" maskUnits="userSpaceOnUse" x="859" y="-21" width="682" height="1066">
<path d="M875 809L859 241L1221 -9L1541 -21V573L1241 1045L875 809Z" fill="#C4C4C4"/>
</mask>
<g mask="url(#mask0)">
<path d="M1010.1 387.4V582.7L1148.1 642.7L1181.4 635.7C1181.4 635.7 1190.1 404 1186.1 395.4C1182.1 386.7 1136 378.1 1111.4 384.1C1086.8 390.1 1002.1 376.1 1010.1 387.4Z" stroke="#717171" stroke-miterlimit="10"/>
<path d="M972.1 503.4C972.1 503.4 969.4 494.1 976.8 495.4C984.1 496.7 1010.1 495.3 1010.1 495.3V582.8L971.6 578.1L972.1 503.4Z" fill="#717171"/>
<path d="M933.2 506.4V555.1H985.7V506.4C985.6 506.4 962.5 495.1 933.2 506.4Z" fill="#7F8080"/>
<path d="M985.6 517.3V506.5C985.6 506.5 962.5 495.2 933.1 506.5V517.3H985.6Z" fill="#5C5C5C"/>
<path d="M933.2 551.1C933.2 551.1 923.3 564.4 920.9 564.4C918.5 564.4 922 571.1 920.9 577.7C919.8 584.3 911.8 583 913.8 599C915.8 615 912.5 642.3 917.8 650.3C923.1 658.3 959.7 640.3 958.4 633C957.1 625.7 980.4 591.4 985.6 583C990.8 574.6 985.6 548.3 985.6 548.3C985.6 548.3 954.5 553.1 933.2 551.1Z" fill="#717171"/>
<path d="M927.5 582.8C927.5 582.8 923.5 606.1 927.5 613.5C931.5 620.9 930.2 628.2 930.2 628.2C930.2 628.2 934.9 610.8 933.2 594.2C931.5 577.4 929.1 568.2 927.5 582.8Z" fill="#7F8080"/>
<path d="M976.8 495.4C976.8 495.4 974.1 482.1 980.5 482.1C986.8 482.1 999.5 476.1 1004.2 482.1C1008.9 488.1 1004.2 498.1 1004.2 498.1C1004.2 498.1 982.8 499.4 976.8 495.4Z" fill="#7F8080"/>
<path d="M987.9 479.4V456.7C987.9 456.7 996.1 450 999.8 456.7C1003.5 463.4 999.8 479.6 999.8 479.6C999.8 479.6 995.8 486.8 987.9 479.4Z" fill="#7F8080"/>
<path d="M1040.5 572.8C1040.5 572.8 1039.5 564.7 1043.5 569.1C1047.5 573.5 1066.2 575.6 1066.2 575.6C1066.2 575.6 1107.5 584.8 1107.5 577.5C1107.5 570.2 1110.8 571.8 1114.1 580.3C1117.5 588.8 1126.1 591.5 1126.8 586.8C1127.5 582.1 1134.2 561.5 1134.8 572.8C1135.4 584.1 1134.2 605.5 1134.8 611.5C1135.4 617.5 1143.4 612.2 1147.4 613.5C1151.4 614.8 1153.4 618.2 1147.4 620.5C1141.4 622.8 1134.8 628.8 1134.8 628.8C1134.8 628.8 1126.1 636.1 1123.4 628.8C1120.7 621.5 1118.5 615.9 1121.4 616.4C1124.3 616.9 1125.4 613.1 1126.1 600C1126.8 586.9 1130.7 591.8 1114.1 591.7C1097.5 591.4 1040.5 572.8 1040.5 572.8Z" fill="#717171"/>
<path d="M1159.5 616.3C1159.5 616.3 1167.5 612.1 1171.2 624.1C1174.9 636.1 1176.9 638 1176.9 638C1176.9 638 1184.1 629.5 1181.6 629.5C1179.1 629.4 1178.9 597.5 1176.9 590.2C1174.9 582.9 1169.6 590.9 1171.2 603.9C1172.8 616.9 1142.8 607.8 1159.5 616.3Z" fill="#717171"/>
<path d="M903.5 396.8V449.1L907.9 447.8C907.9 447.8 905.7 400.1 907.9 400.1C910.1 400.1 916.8 410.1 916.8 410.1L1009.6 402.8V396.8L919.5 403.5C919.5 403.4 903.5 380.8 903.5 396.8Z" fill="#7F8080"/>
<path d="M920.3 452.5V409.8L916.8 410.1V453.8L920.3 452.5Z" fill="#7F8080"/>
<path d="M929.6 263.4L933.1 449.1L942.7 445.5L936.1 263.4C936.2 263.4 933.1 239.4 929.6 263.4Z" fill="#404040"/>
<path d="M1015.1 263.4L976.2 442.5H985.6L1030.4 245.4C1030.4 245.4 1019.3 244.2 1015.1 263.4Z" fill="#7F8080"/>
<path d="M911.4 330.1V394L919.5 403.4L916.8 330.1C916.8 330.1 911.4 318.1 911.4 330.1Z" fill="#404040"/>
<path d="M903.5 354.1H925.7C925.7 354.1 928.1 350.8 917.5 348.1C906.8 345.4 892.1 350.8 903.5 354.1Z" fill="#404040"/>
<path d="M925.9 376.8C925.9 376.8 895.2 376.8 899.3 376.8C903.4 376.8 904 382.8 915.4 382.1C926.8 381.4 933.5 381.4 925.9 376.8Z" fill="#404040"/>
<path d="M980.5 324.8L1023 382.9L1035.4 347.4C1035.4 347.4 1036.6 345.8 1040.4 351C1044.2 356.2 1054.5 384.2 1054.5 384.2L1064.9 384.8C1064.9 384.8 1048.7 342.9 1040.4 341.5C1032.2 340.2 1027.1 346.2 1026.3 354.2C1025.5 362.2 1029.1 372.3 1020.6 370.2C1012.1 368.1 985.6 322.2 985.6 322.2C985.6 322.2 971.2 312.2 980.5 324.8Z" fill="#404040"/>
<path d="M1074.1 259.4L1076.9 385.3L1094.4 385.6C1094.4 385.6 1100.9 332.9 1097.2 322.5C1093.5 312.1 1092.8 310.1 1090.8 328.1C1088.8 346.1 1089.5 378.8 1087.1 364.1C1084.7 349.4 1086.4 266.8 1082.6 259.4C1078.8 252.1 1070.1 241.4 1074.1 259.4Z" fill="#404040"/>
<path d="M1195.5 364.1C1195.5 364.1 984.6 338.1 925.7 370.1C925.7 370.1 922.1 372.1 945.5 370.1C968.9 368.1 1058.2 351 1126.2 362.6C1194.2 374.2 1213.5 366.1 1195.5 364.1Z" fill="#7F8080"/>
<path d="M906.8 453.8L920.1 468.3L1010.1 461.1L1009.6 441.5H999.8V419.5C999.8 419.5 989.7 412.8 991.2 422.2C992.7 431.6 990.9 437.5 990.9 437.5L967.8 442.8C967.8 442.8 964.3 426.9 963.2 420.2C962.1 413.5 955.1 417.5 956.6 424.9C958.1 432.2 956.6 448.9 956.6 448.9C956.6 448.9 938.1 445.7 937.4 442.6C936.7 439.5 929.7 440.2 929.5 446.9C929.4 453.6 923.1 453.9 923.1 453.9C923.1 453.9 893.5 439.3 906.8 453.8Z" fill="#717171"/>
<path d="M1062.1 371C1062.1 371 1044.6 388.8 1035.4 394.1C1026.2 399.4 1030.8 373.8 1015.1 385.6C999.4 397.4 996.1 415.4 999.8 426.1C1003.5 436.8 1006.3 440.1 1006.2 458.1C1006.1 476.1 1014.8 488.8 1004.1 498.1C993.4 507.4 983.4 544.8 1015.1 578.1C1046.8 611.4 1105.5 574 1109.8 582.8C1114.1 591.6 1106.7 621.3 1126.8 635.8C1146.8 650.3 1156.7 631.3 1208.4 632C1260.1 632.8 1272.1 638.8 1306.8 635.8C1341.5 632.8 1393.5 583.5 1397.5 555.1C1401.5 526.8 1414.2 562.1 1431.5 525.4C1448.8 488.7 1454.8 485.1 1457.5 468.2C1460.2 451.4 1490.2 471.5 1497.5 442.4C1504.8 413.3 1510.2 390 1502.8 382C1495.4 374 1538.1 349.3 1538.1 326.7C1538.1 304 1546.8 224 1498.1 212.7C1449.4 201.4 1292.1 168 1271.4 192C1250.7 216 1250.1 189.3 1236.7 235.3C1223.3 281.3 1192 259.3 1164 258.6C1136 257.9 1120 275.9 1114 293.3C1108 310.6 1106.5 326.6 1094.3 330.6C1082.1 334.6 1062.1 343.9 1062.1 371Z" fill="#3F3D3D"/>
<path d="M1262.8 249.6C1262.8 249.6 1202.2 268.8 1192.8 284.8C1183.4 300.8 1190.1 324.8 1178.8 324.8C1167.5 324.8 1145.4 311.9 1159.5 336.8C1173.5 361.7 1192.2 361.2 1192.9 371C1193.6 380.8 1169.4 367 1154.5 359.9C1139.6 352.8 1136.9 343.1 1120.9 364.1C1104.9 385.1 1102.2 384.8 1087.2 379.5C1072.2 374.2 1064.2 358.9 1049.5 371C1034.8 383.1 1045.4 420.1 1035.5 412.4C1025.6 404.7 999.2 404.8 1009.7 422.8C1020.2 440.8 1020.1 456.8 1035.5 461.5C1050.9 466.2 1058.2 464.8 1062.2 474.2C1066.2 483.6 1045.5 476 1054.5 509.4C1063.5 542.8 1064.5 554.8 1082.7 548.5C1100.9 542.2 1110.2 529.9 1114.2 517.3C1118.2 504.8 1083.6 560.1 1106.2 594.1C1128.8 628.1 1117.7 635.7 1144.6 641.2C1171.5 646.8 1178.3 648.9 1187.2 632.8C1196.1 616.7 1219.5 602.6 1225.5 569C1231.5 535.4 1248.2 539 1257.5 528.2C1266.8 517.4 1287.5 547.4 1306.8 512.4C1326.1 477.4 1367.5 466.8 1353.5 442.5C1339.5 418.2 1352.8 376.7 1346.2 347.4C1339.5 318.1 1334.2 306.1 1321.5 310.1C1308.8 314.1 1306.8 321.4 1296.5 305.4C1286.2 289.4 1308.1 292.7 1296.5 280.4C1284.8 268.1 1295.5 235 1262.8 249.6Z" fill="#1E110C"/>
<path d="M1235.2 572.7C1253.59 572.7 1268.5 557.791 1268.5 539.4C1268.5 521.009 1253.59 506.1 1235.2 506.1C1216.81 506.1 1201.9 521.009 1201.9 539.4C1201.9 557.791 1216.81 572.7 1235.2 572.7Z" fill="#1E110C"/>
<path d="M1197.9 620.5C1210.33 620.5 1220.4 610.426 1220.4 598C1220.4 585.574 1210.33 575.5 1197.9 575.5C1185.47 575.5 1175.4 585.574 1175.4 598C1175.4 610.426 1185.47 620.5 1197.9 620.5Z" fill="#1E110C"/>
<path d="M1212 588.7C1225.7 588.7 1236.8 577.597 1236.8 563.9C1236.8 550.203 1225.7 539.1 1212 539.1C1198.3 539.1 1187.2 550.203 1187.2 563.9C1187.2 577.597 1198.3 588.7 1212 588.7Z" fill="#1E110C"/>
<path d="M1060 521.7C1067.29 521.7 1073.2 515.79 1073.2 508.5C1073.2 501.21 1067.29 495.3 1060 495.3C1052.71 495.3 1046.8 501.21 1046.8 508.5C1046.8 515.79 1052.71 521.7 1060 521.7Z" fill="#1E110C"/>
<path d="M1074.4 549.3C1085.45 549.3 1094.4 540.346 1094.4 529.3C1094.4 518.254 1085.45 509.3 1074.4 509.3C1063.35 509.3 1054.4 518.254 1054.4 529.3C1054.4 540.346 1063.35 549.3 1074.4 549.3Z" fill="#1E110C"/>
<path d="M1313.5 506.1C1327.86 506.1 1339.5 492.579 1339.5 475.9C1339.5 459.221 1327.86 445.7 1313.5 445.7C1299.14 445.7 1287.5 459.221 1287.5 475.9C1287.5 492.579 1299.14 506.1 1313.5 506.1Z" fill="#1E110C"/>
<path d="M1341 418.4C1352.49 418.4 1361.8 409.087 1361.8 397.6C1361.8 386.112 1352.49 376.8 1341 376.8C1329.51 376.8 1320.2 386.112 1320.2 397.6C1320.2 409.087 1329.51 418.4 1341 418.4Z" fill="#1E110C"/>
<path d="M1334.9 385.6C1346.72 385.6 1356.3 374.676 1356.3 361.2C1356.3 347.724 1346.72 336.8 1334.9 336.8C1323.08 336.8 1313.5 347.724 1313.5 361.2C1313.5 374.676 1323.08 385.6 1334.9 385.6Z" fill="#1E110C"/>
<path d="M1354.6 391.1C1358.58 391.1 1361.8 385.951 1361.8 379.6C1361.8 373.249 1358.58 368.1 1354.6 368.1C1350.62 368.1 1347.4 373.249 1347.4 379.6C1347.4 385.951 1350.62 391.1 1354.6 391.1Z" fill="#1E110C"/>
<path d="M1359.5 379.6C1366.18 379.6 1371.6 374.183 1371.6 367.5C1371.6 360.817 1366.18 355.4 1359.5 355.4C1352.82 355.4 1347.4 360.817 1347.4 367.5C1347.4 374.183 1352.82 379.6 1359.5 379.6Z" fill="#1E110C"/>
<path d="M1204.4 317.6C1216.77 317.6 1226.8 307.571 1226.8 295.2C1226.8 282.829 1216.77 272.8 1204.4 272.8C1192.03 272.8 1182 282.829 1182 295.2C1182 307.571 1192.03 317.6 1204.4 317.6Z" fill="#1E110C"/>
<path d="M1271.5 192.1C1271.5 192.1 1238.8 139.4 1250.8 107.4C1262.8 75.4 1260.1 70.4 1287.5 42.4C1314.8 14.4 1315.8 -17.6 1361.8 11.4C1407.8 40.4 1424.8 53.4 1425.8 81.4C1426.8 109.4 1406.8 118.4 1425.8 130.4C1444.8 142.4 1440.8 144.4 1456.8 142.4C1472.8 140.4 1462.8 107.4 1478.8 144.4C1494.8 181.4 1505.5 171.4 1501.8 192.1C1498.1 212.8 1488.8 217.4 1499.8 232.4C1510.8 247.4 1271.5 192.1 1271.5 192.1Z" fill="#3F3D3D"/>
<path d="M1319 327.3C1321.2 310.9 1322.5 309.8 1319 290.8C1315.5 271.8 1309.5 286.5 1319 257.2C1328.5 227.9 1324.4 219.8 1321.2 209.2C1318 198.6 1355.4 192.9 1368.4 209.2C1381.4 225.5 1377 229.1 1380.6 238.5C1384.2 247.9 1382.2 258.8 1403.4 268.6C1424.6 278.4 1429.4 264.5 1424.6 286.5C1419.7 308.5 1443.3 310.4 1418.1 327.3C1392.9 344.3 1421.4 335.2 1383.1 342.9C1344.8 350.6 1354.4 327.7 1347.2 342.9C1340 358.1 1342.1 374 1336.6 368.4C1331.1 362.8 1319 327.3 1319 327.3Z" fill="#1E110C"/>
<path d="M903.5 641.4C903.5 641.4 904.8 717.4 909.5 732.1C914.2 746.8 922.8 789.4 924.2 808.8C925.5 828.1 921.5 859.5 924.2 870.1C926.9 880.8 955.5 908.8 976.9 941.4C998.3 974 1012.9 995.4 1024.2 1006.1C1035.5 1016.8 1132.9 927.4 1162.9 905.4C1192.9 883.4 1231.6 866.7 1242.9 855.4C1254.2 844.1 1286.2 793.4 1292.9 765.4C1299.6 737.4 1308.2 734.1 1309.6 715.4C1310.9 696.7 1308.9 691.4 1316.9 676.4C1324.9 661.4 1330.2 647.4 1330.2 647.4L1322.9 628.7L1294.2 619.4L1243.5 623.4C1243.5 623.4 1166.2 632.1 1147.5 630.1C1128.8 628.1 1128.8 628.1 1128.8 628.1C1128.8 628.1 1112.1 584.8 1107.5 577.4C1102.8 570.1 1055.5 574.7 1047.5 573.4C1039.5 572.1 1000.8 571.4 991.5 569.4C982.2 567.4 947.5 574.1 943.5 577.4C939.5 580.7 948.8 630.1 940.8 634.1C932.8 638.1 903.3 632.8 903.5 641.4Z" fill="#7F8080"/>
<path d="M1194.7 740.8C1174.9 746.7 1154.4 750.1 1134 753.5C1091.4 760.7 1050.7 776.5 1008.3 784.8C1005.5 785.3 1002.7 785.1 1000.3 784.3C998.7 784.1 997.1 783.6 995.5 782.8C967.2 768.6 939.2 753.8 911.4 738.8C916.2 757.1 923 791.8 924.2 808.7C925.5 828 921.5 859.4 924.2 870C926.9 880.7 955.5 908.7 976.9 941.3C998.2 974 1012.9 995.3 1024.2 1006C1035.5 1016.7 1132.9 927.3 1162.9 905.3C1192.9 883.3 1231.6 866.6 1242.9 855.3C1254.2 844 1286.2 793.3 1292.9 765.3C1299.6 737.3 1308.2 734 1309.6 715.3C1310.5 703.4 1309.9 696.9 1311.6 689.8C1292.4 697.5 1273.8 706.5 1255.2 715.3C1235.4 724.9 1215.6 734.6 1194.7 740.8Z" fill="#717171"/>
<path d="M1293.5 754.9C1288 759.1 1281.1 765.5 1274.8 770.2C1268.1 775.3 1261 778.6 1253.3 782.1C1248.5 784.3 1241.4 788.8 1237.1 792.3C1224.7 802.6 1213.8 814.5 1201.2 824.6L1201.1 824.7C1200.2 825.4 1199.3 826.1 1198.4 826.8C1196.4 828.3 1194 828.9 1191.6 828.7C1191.3 829.1 1190.9 829.4 1190.6 829.8C1181.7 838.8 1171.9 847 1160.6 852.8C1157.3 856.1 1153.9 859.2 1150 861.8C1137.4 870.5 1123.3 876.6 1110.5 884.8C1108.7 885.9 1107 887.2 1105.4 888.4C1105.1 888.6 1104.2 889.3 1103.8 889.6C1102.7 890.5 1101.6 891.4 1100.5 892.3C1096.1 895.9 1091.8 899.7 1087.4 903.3C1070.3 917.8 1049.6 937 1025.8 937.5C1019.8 937.6 1016 934.4 1014.2 930.3C996.3 910.9 981.7 888.9 966.4 867.5C952.5 848 937.2 829.5 924.1 809.5C925.3 828.9 921.4 859.5 924.1 870.1C926.8 880.8 955.4 908.8 976.8 941.4C998.1 974.1 1012.8 995.4 1024.1 1006.1C1035.4 1016.8 1132.8 927.4 1162.8 905.4C1192.8 883.4 1231.5 866.7 1242.8 855.4C1254.1 844.1 1286.1 793.4 1292.8 765.4C1294 760.5 1295.2 756.4 1296.4 752.8C1295.4 753.5 1294.4 754.2 1293.5 754.9Z" fill="#404040"/>
<path opacity="0.5" d="M1018.7 913.3C1018 911.4 1017.7 909.4 1017.9 907.4C1016 893.8 1014.3 880.1 1014.7 866.4C1014.8 863 1015 859.6 1015.2 856.3C1015 855.4 1014.8 854.5 1014.8 853.5C1013.8 835.1 1010.9 816.9 1010.8 798.5C1010.8 797.6 1010.9 796.7 1011 795.9C1010.1 790.5 1009.5 785 1009.8 779.5C1009.8 779.3 1009.8 779.2 1009.8 779C1007.7 766.6 1007.8 753.1 1006.6 743.5C1004 723.4 1004.1 703.1 1004.4 682.8C1004.7 662.3 1005 641.9 1002.6 621.5C1001.1 608.4 999.1 595.3 997.3 582.2C995.9 578 994.6 573.9 993.3 569.7C992.7 569.6 992.1 569.5 991.6 569.4C982.3 567.4 947.6 574.1 943.6 577.4C939.6 580.7 948.9 630.1 940.9 634.1C932.9 638.1 903.4 632.8 903.6 641.4C903.6 641.4 904.9 717.4 909.6 732.1C914.3 746.8 922.9 789.4 924.3 808.8C925.6 828.1 921.6 859.5 924.3 870.1C927 880.8 955.6 908.8 977 941.4C996 970.5 1009.7 990.5 1020.4 1002.1C1019.6 990.3 1021 978.1 1022.2 966.6C1022.5 963.5 1022.9 960.5 1023.2 957.4C1023 956.5 1022.9 955.5 1022.9 954.4C1022.6 940.6 1020.6 926.9 1018.7 913.3Z" fill="#878787"/>
<path d="M1192.8 628.3C1174 629.8 1155.4 630.9 1147.4 630.1C1128.7 628.1 1128.7 628.1 1128.7 628.1C1128.7 628.1 1112 584.8 1107.4 577.4C1102.7 570.1 1055.4 574.7 1047.4 573.4C1046 573.2 1043.5 572.9 1040.4 572.7C1035.9 590.7 1034.4 609.3 1035.8 627.8C1036.1 632 1036.6 635.8 1037.3 639.8C1037.5 640.9 1037.7 642 1037.8 643.1C1039 643.4 1040.2 643.6 1041.4 643.8C1042.1 643.9 1042.7 644 1043.4 644C1045.7 644.2 1048 644.3 1050.4 644.4C1052.6 641.9 1055.8 640.2 1060 640.1C1071.3 639.7 1082.7 640.2 1094 639.8C1103.7 639.5 1113.4 637 1123 638.6C1131.7 640 1139.9 644.7 1146.6 650.1C1146.9 650.3 1147.2 650.6 1147.4 650.8C1149.7 650.1 1152.3 650 1154.7 650.6C1159.9 652 1165.2 654.9 1168.9 658.9C1169 659 1169 659.1 1169.1 659.2C1172.2 661.4 1175.3 664 1177.2 667.3C1181.2 674 1180.4 681.8 1182.8 689C1182.9 689.4 1183.6 691.1 1183.8 691.6C1183.9 691.3 1183.9 691 1184 690.7C1184 690.5 1184.3 688.1 1184.3 688.1C1184.5 686.3 1184.6 684.4 1184.6 682.6C1184.9 675.9 1185.1 669.2 1186.2 662.6C1187.2 656.6 1189.2 651.1 1191.7 646C1191.9 640.2 1192.2 634.2 1192.8 628.3Z" fill="#878787"/>
<path d="M960.8 676.4C960.8 676.4 944.8 688.7 945.5 696.7C946.2 704.7 950.8 726 956.2 730.7C961.5 735.4 966.9 732.7 967.5 730.7C968.1 728.8 968.8 674.8 960.8 676.4Z" fill="#404040"/>
<path d="M1088.1 680.1C1088.1 680.1 1081.4 703.8 1082.8 723.3C1084.1 742.8 1091.2 753.5 1099.8 756.1C1108.4 758.8 1122.1 765.4 1127.5 762.8C1132.8 760.1 1119.5 752.1 1120.8 744.8C1122.1 737.5 1130.1 741.3 1126.1 733.4C1122.1 725.5 1134.1 731.4 1134.8 721.8C1135.5 712.2 1120.8 717.7 1124.1 704.9C1127.4 692.1 1130.8 683.8 1130.8 680.1C1130.8 676.4 1127.1 686.1 1121.8 694.8C1116.5 703.5 1110.3 711.5 1108.7 698.1C1107.1 684.8 1090.7 669.3 1088.1 680.1Z" fill="#404040"/>
<path d="M1007.5 635.8C1011.75 635.8 1015.2 632.352 1015.2 628.1C1015.2 623.847 1011.75 620.4 1007.5 620.4C1003.25 620.4 999.8 623.847 999.8 628.1C999.8 632.352 1003.25 635.8 1007.5 635.8Z" fill="#404040"/>
<path d="M980.5 594.1L956.6 598.8V613.4H980.5V594.1Z" fill="#5C5C5C"/>
<path d="M1062.1 594.1H1046.8V611.4H1062.1V594.1Z" fill="#5C5C5C"/>
<path d="M1074.1 594.1V611.4L1087.1 609.4V596.1L1074.1 594.1Z" fill="#5C5C5C"/>
<path d="M1021.8 637.9C1021.8 637.9 1015.6 630.7 1015.1 628.1C1014.6 625.5 1018.3 612.4 1021.8 617.4C1025.3 622.4 1029.8 638.9 1021.8 637.9Z" fill="#404040"/>
<path d="M960.8 733.2L1008.9 988.9L1015.2 996.3L967.7 728.5C967.7 728.5 965.4 735.6 960.8 733.2Z" fill="#404040"/>
<path d="M1023.3 788C1023.3 788 1020.1 888.9 1020.7 913.4C1021.3 937.9 1022.8 948.4 1026.3 941.4C1029.8 934.4 1022.8 845.4 1028.3 817.4C1033.8 789.4 1027.3 758.1 1023.3 788Z" fill="#404040"/>
<path d="M1096 754.4C1096 754.4 1092.2 886.5 1096 893.5C1099.8 900.5 1098.8 764.8 1099.8 756.2C1100.8 747.4 1096 754.4 1096 754.4Z" fill="#404040"/>
</g>
</g>
<mask id="mask1" mask-type="alpha" maskUnits="userSpaceOnUse" x="489" y="303" width="444" height="482">
<path d="M489 565L503 303H673L909 555L933 695L829 785L489 565Z" fill="#C4C4C4"/>
</mask>
<g mask="url(#mask1)">
<path d="M534.305 700.04C534.305 700.04 528.435 666.123 531.044 656.992C533.653 647.86 533 618.509 534.305 608.726C535.609 598.942 528.435 572.852 530.391 566.33C532.348 559.807 531.5 539.588 532.283 535.022C533.066 530.456 548.067 524.977 562.417 516.629C576.766 508.28 591.768 493.93 605.465 485.451C619.162 476.972 668.081 453.491 677.865 455.774C687.649 458.057 686.344 463.927 695.476 469.145C704.607 474.363 753.526 471.754 769.832 471.754C786.138 471.754 793.965 470.45 800.488 486.756C807.01 503.062 826.578 522.629 833.1 535.674C839.623 548.719 862.451 572.2 876.801 593.724C891.15 615.248 906.152 638.729 906.804 651.122C907.457 663.514 908.109 681.777 897.021 694.822C885.932 707.867 857.233 717.39 848.754 717.39C840.275 717.39 803.097 726.782 784.181 731.348C765.266 735.914 772.441 715.694 758.744 698.736C745.047 681.777 746.351 677.994 741.133 678.907C735.915 679.821 739.829 668.08 763.309 662.862C786.79 657.644 818.751 645.708 818.751 642.903C818.751 640.099 812.228 620.14 806.358 617.661C800.488 615.248 588.507 650.469 583.941 662.862C579.375 675.255 587.202 695.474 587.202 700.04C587.202 704.606 534.305 700.04 534.305 700.04Z" fill="#5C5C5C"/>
<path d="M592.355 702.649C592.355 702.649 584.528 675.907 583.876 662.862C583.224 649.817 642.578 617.205 669.32 617.857C696.063 618.509 800.357 617.857 800.357 617.857C800.357 617.857 798.466 634.685 800.357 642.903C802.249 651.121 800.357 657.644 800.357 657.644C800.357 657.644 735.198 681.777 718.565 685.69C701.933 689.604 679.104 704.605 662.146 702.649C645.187 700.692 592.355 702.649 592.355 702.649Z" fill="#5C5C5C"/>
<path d="M610.814 488.712C610.814 488.712 634.882 601.551 644.6 629.728C654.319 657.905 668.212 691.365 669.125 682.233C669.973 673.102 680.278 491.386 678.191 460.666L652.623 491.321L639.774 503.453L610.814 488.712Z" fill="#7F8080"/>
<path d="M605.4 481.212C605.4 481.212 616.162 495.561 619.423 498.822C622.685 502.083 654.319 511.215 662.472 498.822C670.625 486.429 680.083 459.035 677.8 455.774C675.517 452.513 671.603 442.403 670.951 434.25C670.299 426.097 644.861 446.316 630.838 459.687C616.814 473.058 605.4 481.212 605.4 481.212Z" fill="#7F8080"/>
<path d="M568.874 383.375C568.874 383.375 565.613 407.508 568.874 416.965C572.135 426.423 574.418 434.25 578.984 447.295C583.55 460.34 590.072 474.689 598.225 481.212C606.378 487.734 621.38 489.365 631.816 481.212C642.252 473.059 649.427 463.275 656.602 455.644C663.776 447.947 666.385 434.902 666.711 430.989C667.038 427.075 669.647 425.771 672.256 417.292C674.865 408.812 672.908 393.158 669.32 393.811C665.733 394.463 662.146 398.703 660.841 402.29C659.537 405.877 664.102 400.333 655.623 392.832C647.144 385.331 631.164 355.654 631.164 355.654L568.874 383.375Z" fill="#878787"/>
<path d="M562.352 370.656C562.352 370.656 558.438 370.004 560.721 382.07C563.004 394.137 564.7 414.682 567.439 422.835C570.179 430.989 575.657 437.641 575.657 437.641C575.657 437.641 569.852 421.792 568.874 416.965C567.83 412.139 567.178 411.878 567.439 404.116C567.7 396.354 570.374 393.223 571.157 387.614C571.94 382.005 576.049 383.048 587.137 377.83C598.225 372.613 602.465 368.047 612.249 370.656C622.032 373.265 619.749 368.047 628.229 375.222C636.708 382.396 630.838 381.744 638.665 390.549C646.492 399.355 647.47 403.594 650.731 413.052C653.993 422.509 657.906 419.574 658.558 412.073C659.211 404.573 658.363 406.595 660.841 402.29C663.32 397.985 662.733 394.463 666.907 394.724C671.147 395.05 671.995 396.615 672.321 397.985C672.647 399.355 667.69 381.353 663.776 374.178C659.863 367.003 657.254 360.481 653.014 355.589C648.775 350.697 639.969 338.631 627.25 337.978C614.531 337.326 607.031 336.022 599.204 337.978C591.377 339.935 582.245 340.913 576.701 347.762C571.157 354.611 567.57 354.284 566.265 360.807C564.961 367.329 564.634 364.133 562.352 370.656Z" fill="#505050"/>
<path d="M672.647 443.447C672.647 443.447 675.125 439.664 675.778 432.358C676.43 425.053 676.756 416.313 675.778 412.4C674.799 408.486 672.647 399.616 672.647 399.616C672.647 399.616 673.43 415.857 670.821 421.205C668.212 426.553 664.95 427.793 666.124 434.641C667.298 441.49 673.43 446.382 672.647 443.447Z" fill="#505050"/>
<path d="M609.118 486.103C609.118 486.103 616.553 503.388 620.467 513.498C624.315 523.607 625.294 530.13 629.533 515.128C633.773 500.127 637.686 495.887 639.643 495.235C641.6 494.583 607.357 483.886 609.118 486.103Z" fill="#8C8C8C"/>
<path d="M673.43 455.578C673.43 455.578 672.908 468.754 662.472 475.602C652.036 482.451 647.47 490.93 645.513 492.887C643.557 494.843 644.404 492.169 651.71 497.126C659.015 502.083 673.169 515.781 676.43 516.563C679.756 517.346 679.43 509.193 678.126 499.409C676.821 489.625 679.626 467.514 678.126 460.601C676.626 453.687 674.604 449.317 673.43 455.578Z" fill="#8C8C8C"/>
<path d="M674.669 605.465C674.799 599.66 675.06 593.855 675.517 588.05C675.973 582.766 676.43 577.353 675.125 572.33C674.538 570.048 674.799 568.091 675.647 566.46C674.082 560.329 672.386 555.568 671.147 554.002C667.298 549.11 664.037 529.934 658.167 524.064C652.297 518.129 649.362 516.824 648.383 512.259C647.405 507.693 658.037 504.823 654.319 499.214C650.666 493.67 639.317 491.648 635.795 499.148C635.795 499.148 629.142 503.127 634.034 512.911C638.926 522.695 630.446 528.565 629.468 540.957C628.49 553.35 627.316 570.308 632.664 585.31C638.012 600.312 655.297 686.734 661.82 695.54C668.342 704.345 668.472 708.585 671.147 693.909C672.777 685.169 673.821 659.275 675.321 637.359C674.604 626.663 674.473 616.031 674.669 605.465Z" fill="#717171"/>
</g>
<rect x="-30" y="233.505" width="44.5586" height="1807.32" transform="rotate(-57.3212 -30 233.505)" fill="#C4C4C4"/>
</g>
<defs>
<clipPath id="clip0">
<rect width="1558" height="1209" fill="white"/>
</clipPath>
<clipPath id="clip1">
<rect x="899" width="639.7" height="1007" fill="white"/>
</clipPath>
</defs>
</svg>
