<svg width="219" height="1178" viewBox="0 0 219 1178" fill="none" xmlns="http://www.w3.org/2000/svg">
<rect width="219" height="1178" fill="url(#paint0_linear)"/>
<g clip-path="url(#clip0)">
<path d="M53.4867 991.272C53.4867 991.272 50.64 1103.34 53.08 1122.01C55.52 1140.67 54.7067 1178 54.7067 1178H131.16C131.16 1178 133.6 1159.34 138.48 1150.41C143.36 1141.48 142.547 1135.8 143.36 1130.12C144.173 1124.44 148.24 1122.01 150.68 1139.86C153.12 1157.71 157.187 1178 157.187 1178H218.187V966.196C218.187 966.196 182.4 956.458 160.44 957.27C138.48 958.081 131.973 957.27 117.333 954.835C102.693 952.401 53.4867 991.272 53.4867 991.272Z" fill="#3F3F3F"/>
<path d="M128.72 726.802C128.72 726.802 144.742 733.132 153.12 730.859C161.497 728.587 170.2 723.556 170.2 723.556L154.746 762.508L128.72 726.802Z" fill="#969696"/>
<path d="M114.486 689.878C114.486 689.878 114.486 698.805 116.113 708.543C117.74 718.281 119.773 723.556 135.226 730.048C150.68 736.54 162.066 730.048 167.76 725.99C173.453 721.933 180.773 698.399 183.213 692.718C183.213 692.718 177.52 683.792 175.08 678.111C172.64 672.431 166.946 668.373 166.133 660.258C165.32 652.143 114.486 689.878 114.486 689.878Z" fill="#7F7F7F"/>
<path d="M104.32 677.3C104.32 677.3 113.267 695.153 119.774 699.21C126.28 703.268 132.787 706.514 140.92 704.891C149.054 703.268 154.747 700.022 160.44 692.718C166.134 685.415 170.526 676.894 171.176 671.782C171.827 666.75 171.014 653.766 171.014 652.955C171.014 652.143 175.894 653.766 177.52 645.651C179.147 637.536 179.147 630.232 177.52 625.363C175.894 620.494 172.64 620.494 171.014 622.117C169.387 623.74 144.987 590.468 144.987 590.468L94.5602 600.207L81.5469 619.683L90.4935 652.955C90.4935 652.955 89.6802 661.881 92.9335 665.939C96.1869 669.996 99.4402 677.3 104.32 677.3Z" fill="#878787"/>
<path d="M139.294 734.917C148.24 743.032 152.307 752.77 153.934 751.958C155.56 751.147 156.374 732.482 161.254 727.613C166.134 722.744 183.214 695.964 179.147 687.038C175.08 678.111 172.64 673.891 172.64 673.891C172.64 673.891 174.267 670.808 179.147 674.054C184.027 677.3 192.974 692.718 195.414 698.399C197.854 704.08 192.16 804.706 192.16 804.706L180.774 964.573L105.134 958.081L127.094 842.847L139.294 734.917Z" fill="#727272"/>
<path d="M59.8303 923.836C59.8303 923.836 55.5196 930.49 53.8929 949.155C52.2663 967.82 57.1463 975.935 53.8929 979.992C50.6396 984.05 47.3863 992.976 65.2796 996.222C83.1729 999.468 96.9996 1000.28 105.133 1005.15C113.266 1010.02 113.266 992.976 119.773 979.181C126.28 965.385 126.036 964.006 126.036 964.006L63.6529 918.318L59.8303 923.836Z" fill="#5B5B5B"/>
<path d="M187.687 684.603C187.687 684.603 192.974 700.833 188.094 709.76C183.214 718.687 180.774 752.77 177.52 767.377C174.267 781.984 170.2 807.952 169.387 841.224C168.574 874.496 166.947 920.752 164.507 931.302C162.067 941.851 158.814 945.909 162.88 949.155C166.947 952.401 184.027 956.458 184.027 956.458L219 902.087V700.833C219 700.833 210.867 697.587 202.734 693.53C194.6 689.472 185.735 681.357 187.687 684.603Z" fill="#5B5B5B"/>
<path d="M159.627 1005.96C159.627 1005.96 149.867 1016.51 146.614 1023C143.361 1029.49 140.107 1031.12 142.547 1038.42C144.987 1045.72 149.867 1057.09 153.934 1060.33C158.001 1063.58 160.441 1066.82 162.067 1067.63C163.694 1068.45 171.827 1068.45 167.761 1063.58C163.694 1058.71 166.134 1061.95 171.014 1060.33C175.894 1058.71 175.894 1061.95 179.961 1061.14C184.027 1060.33 186.467 1059.52 188.094 1057.09C189.721 1054.65 192.974 1053.03 189.721 1049.78C186.467 1046.54 186.467 1042.48 189.721 1039.23C192.974 1035.99 193.787 1027.87 193.787 1023.81C193.787 1019.76 192.974 1013.26 195.414 1008.39C197.854 1003.53 170.201 986.484 170.201 986.484C170.201 986.484 164.507 998.657 159.627 1005.96Z" fill="#878787"/>
<path d="M218.187 857.454C218.187 857.454 205.173 926.433 200.293 928.056C195.413 929.679 191.346 937.794 184.026 949.155C176.706 960.516 166.133 985.673 162.88 993.788C159.626 1001.9 159.626 1004.34 165.32 1008.39C171.013 1012.45 188.093 1016.51 191.346 1016.51C194.6 1016.51 196.226 1012.45 201.106 997.845C205.986 983.238 218.187 966.197 218.187 966.197V857.454Z" fill="#727272"/>
<path d="M75.04 726.802C75.04 726.802 55.52 730.048 49.8267 739.786C44.1333 749.524 36 782.796 36 798.214C36 813.633 42.5067 831.486 42.5067 842.036C42.5067 852.585 45.76 888.292 47.3867 898.03C49.0133 907.768 53.8933 919.941 65.28 928.867C76.6667 937.794 94.56 944.286 105.133 952.401C115.707 960.516 133.6 966.196 141.733 972.689C149.867 979.181 151.493 971.066 150.68 969.443C149.867 967.82 142.547 967.82 150.68 958.081C158.813 948.343 168.573 944.286 167.76 941.04C166.947 937.794 127.907 907.768 120.587 903.71C113.267 899.653 101.067 884.234 96.1867 877.742C91.3067 871.25 98.6267 873.685 96.1867 867.193C93.7467 860.701 92.9333 860.701 90.4933 854.208C88.0533 847.716 80.7333 765.754 80.7333 765.754L75.04 726.802Z" fill="#727272"/>
<path d="M143.36 962.95C143.36 962.95 143.36 967.819 153.933 972.688C164.506 977.558 164.506 974.312 166.946 981.615C169.386 988.919 175.893 998.657 182.4 1001.9C188.906 1005.15 196.226 1010.83 198.666 1012.45C201.106 1014.08 205.173 1012.45 206.8 1009.21C208.426 1005.96 206.8 1005.15 205.986 1003.53C205.173 1001.9 211.68 1008.39 214.12 999.468C214.12 999.468 218.186 998.089 218.186 996.79C218.186 995.411 218.186 993.138 218.186 993.138V948.668C218.186 948.668 214.933 946.801 209.24 948.424C203.546 950.047 191.346 949.236 185.653 949.236C179.96 949.236 171.826 942.744 167.76 941.121C163.693 939.498 142.546 958.081 143.36 962.95Z" fill="#878787"/>
<path d="M179.634 947.532C179.634 947.532 177.52 957.27 174.266 960.516C171.013 963.762 166.946 973.5 163.693 974.312C160.44 975.123 162.88 975.935 163.693 977.558C164.506 979.181 166.946 981.615 169.386 980.804C171.826 979.992 181.586 967.008 184.84 960.516C188.093 954.024 186.466 951.589 185.653 949.966C184.84 948.343 178.496 946.72 179.634 947.532Z" fill="#7F7F7F"/>
<path d="M66.0938 725.179C66.0938 725.179 60.4005 743.032 67.7205 759.262C75.0405 775.492 80.7338 792.534 81.5471 805.518C82.3605 818.502 89.6805 852.585 90.4938 858.266C91.3071 863.947 94.5605 863.947 94.5605 868.816C94.5605 873.685 90.4938 870.439 96.1871 877.742C101.88 885.046 114.894 902.899 122.214 907.768C129.534 912.637 131.974 915.883 132.787 914.26C133.6 912.637 130.347 886.669 131.16 869.627C131.974 852.585 134.414 830.675 132.787 824.994C131.16 819.314 127.338 802.84 126.768 796.023C126.28 789.288 124.654 726.802 124.654 726.802C124.654 726.802 115.951 700.915 112.21 700.834C108.387 700.752 105.947 702.375 100.254 707.244C94.5605 712.113 84.8005 715.36 80.7338 716.171C76.6671 716.983 78.2938 718.606 73.4138 720.229C68.5338 721.852 68.5338 722.744 66.0938 725.179Z" fill="#5B5B5B"/>
<path d="M114.08 695.964C114.08 695.964 102.693 725.179 102.693 727.613C102.693 730.048 105.133 746.278 106.76 749.524C108.387 752.77 109.2 758.451 110.013 747.089C110.827 735.728 112.453 732.482 115.707 727.613C118.96 722.744 127.663 808.115 129.859 818.583C131.973 829.052 132.787 842.036 132.787 842.847C132.787 843.659 145.881 742.058 145.881 742.058C145.881 742.058 137.667 728.425 131.16 723.556C124.653 718.687 120.749 706.189 118.635 703.511C116.52 700.834 115.707 692.718 114.08 695.964Z" fill="#727272"/>
<path d="M97.8133 590.468C97.8133 590.468 82.3599 605.887 81.5466 618.06C80.7333 630.232 86.4266 647.274 88.8666 652.143C91.3066 657.012 92.1199 663.504 93.7466 664.316C95.3733 665.127 91.6319 655.795 90.2493 647.923C88.8666 639.97 82.7666 621.63 84.9626 616.599C87.2399 611.568 92.1199 603.453 97.8133 603.453C103.507 603.453 107.573 601.83 109.2 605.887C110.827 609.945 111.64 614.814 112.453 606.699C113.267 598.584 113.267 600.207 118.96 597.772C124.653 595.338 119.773 595.094 128.72 593.633C137.667 592.173 143.36 590.468 149.053 598.584C154.747 606.699 152.307 612.379 156.373 617.248C160.44 622.117 159.627 625.363 163.693 631.044C167.76 636.724 166.947 642.405 168.573 643.216C170.2 644.028 169.387 641.593 171.013 639.97C172.64 638.347 168.573 636.724 168.573 631.855C168.573 626.986 171.013 624.552 171.013 622.117C171.013 619.683 169.387 604.264 163.693 597.772C158 591.28 153.933 587.222 146.613 583.165C139.293 579.107 134.413 580.73 128.72 580.73C123.027 580.73 121.4 578.296 112.453 582.353C103.507 586.411 104.32 585.599 97.8133 590.468Z" fill="#4F4F4F"/>
</g>
<path d="M50.7243 1153.61L35.6484 1138.5L50.7243 1123.39L46.083 1118.75L26.333 1138.5L46.083 1158.25L50.7243 1153.61Z" fill="#F3F3F3"/>
<defs>
<linearGradient id="paint0_linear" x1="109.5" y1="-5.29499e-09" x2="109.978" y2="589.489" gradientUnits="userSpaceOnUse">
<stop stop-color="#C4C4C4"/>
<stop offset="1" stop-color="#A1A1A1"/>
</linearGradient>
<clipPath id="clip0">
<rect x="36" y="580" width="183" height="598" fill="white"/>
</clipPath>
</defs>
</svg>
