<svg width="286" height="1373" viewBox="0 0 286 1373" fill="none" xmlns="http://www.w3.org/2000/svg">
<rect width="219" height="1178" fill="url(#paint0_linear)"/>
<g clip-path="url(#clip0)">
<mask id="mask0" mask-type="alpha" maskUnits="userSpaceOnUse" x="0" y="0" width="219" height="1178">
<rect width="219" height="1178" fill="url(#paint1_linear)"/>
</mask>
<g mask="url(#mask0)">
<path d="M18.2564 1047.86C18.2564 1047.86 10.8723 1069.89 6.22098 1073.67C1.56963 1077.45 -1.8026 1088.14 1.10449 1093.03C4.01159 1097.91 5.63956 1101.69 9.12807 1099.48C12.6166 1097.27 10.0583 1096.57 9.12807 1091.69C8.1978 1086.81 11.1049 1088.38 12.2096 1086.34C13.3143 1084.37 13.0817 1094.37 10.4072 1104.13C7.73267 1113.9 8.1978 1111.17 5.98841 1112.97C3.77902 1114.77 0.232364 1116.8 5.11628 1119.25C10.0002 1121.69 10.8723 1119.48 14.4771 1117.27C14.4771 1117.27 14.9423 1121.63 19.361 1120.35C23.7798 1119.07 22.9077 1117.74 27.1521 1119.3C31.3964 1120.87 33.1407 1116.86 35.5826 1113.96C38.0246 1111.05 40.9317 1110.41 41.8038 1108.2C42.6759 1105.99 44.0132 1090.01 44.0132 1085.41C44.0132 1080.82 46.6877 1068.38 50.0018 1062.62C53.3159 1056.75 18.2564 1047.86 18.2564 1047.86Z" fill="#878787"/>
<path d="M105.179 705.625C105.179 705.625 106.749 713.008 105.179 716.496C103.609 719.984 101.283 719.229 89.6551 724.635C78.0267 730.041 60.5841 737.424 57.0956 750.621C53.6071 763.817 42.7346 841.716 37.3274 868.458C31.9202 895.199 25.699 957.228 24.9432 967.692C24.1873 978.156 19.129 983.562 23.0245 992.864C26.92 1002.17 25.7572 1012.63 23.7803 1023.85C21.8616 1035.07 19.129 1045.18 17.2103 1050.59C15.2916 1056 52.5024 1070.76 59.0725 1056.4C65.6425 1042.04 68.3752 1038.21 73.7824 1024.26C79.1896 1010.3 203.264 1004.9 202.45 1023.09C201.695 1041.29 199.718 1054.08 195.473 1065.36C191.229 1076.58 227.277 1087.85 234.603 1083.2C241.929 1078.55 256.697 1050.24 260.941 1041.35C265.185 1032.45 271.814 1021.17 271.407 1009.96C271 998.735 287.686 950.659 285.768 934.381C283.849 918.104 272.977 908.803 275.709 885.956C278.442 863.109 277.628 849.506 276.465 832.88C275.302 816.254 276.465 806.138 275.709 793.756C274.953 781.374 251.697 744.168 236.58 732.89C221.463 721.612 205.59 709.23 197.799 703.416C190.066 697.603 187.74 700.335 182.275 694.522C176.81 688.708 179.077 687.197 174.484 680.977C169.949 674.64 105.179 694.754 105.179 705.625Z" fill="#9C9D9E"/>
<path d="M68.7813 812.242C68.7813 812.242 71.5139 797.535 76.1653 782.013C80.8166 766.491 82.3283 752.946 89.3053 741.319C96.2824 729.693 101.573 720.507 105.178 716.496C108.841 712.485 97.0382 717.252 89.6542 724.635C82.2702 732.018 71.4558 753.818 70.2929 763.643C69.1301 773.467 66.8044 796.721 68.7813 812.242Z" fill="#5C5C5C"/>
<path d="M227.218 725.74C225.532 724.693 210.241 713.764 198.961 730.855C187.74 747.888 171.053 792.884 171.053 802.941C171.053 812.998 166.809 847.123 165.239 869.62C163.669 892.118 158.669 938.625 161.751 944.031C161.751 944.031 150.878 955.658 144.308 961.472C137.738 967.285 138.901 973.098 138.901 973.098C138.901 973.098 152.099 974.261 153.611 968.855C155.181 963.448 153.611 951.008 163.32 948.333C173.03 945.601 176.867 947.578 180.007 953.74C183.089 959.96 188.903 968.099 188.903 968.099C188.903 968.099 204.194 966.762 198.38 962.111C192.566 957.46 176.46 946.822 177.274 942.52C178.03 938.276 184.658 902.233 186.17 891.362C187.74 880.491 186.926 844.1 187.74 833.984C188.496 823.927 191.984 785.152 193.961 770.793C195.88 756.434 204.834 735.506 214.136 732.425C223.439 729.344 233.556 730.274 236.637 732.832C239.661 735.273 230.242 727.6 227.218 725.74Z" fill="#5C5C5C"/>
<path d="M64.4792 942.811C64.4792 942.811 76.0494 960.658 86.9219 964.146C97.7945 967.634 159.425 968.041 168.728 964.146C178.03 960.251 201.287 956.065 204.02 954.844C206.752 953.682 200.124 961.007 204.02 976.121C207.915 991.236 212.683 998.212 207.508 1011.76C202.334 1025.3 201.694 1050.13 199.775 1059.43C197.857 1068.73 194.194 1071.34 207.101 1078.55C219.951 1085.76 226.172 1084.13 226.172 1084.13C226.172 1084.13 222.276 1314.81 195.531 1372.94L79.6542 1361.32C79.6542 1361.32 78.8984 1212.49 76.1657 1172.96C73.433 1133.43 70.8748 1027.63 68.0258 1017.16C60.9906 991.236 64.4792 980.423 64.4792 942.811Z" fill="#505050"/>
<path d="M199.078 1065.3C199.078 1065.3 186.984 1085.24 183.321 1094.54C179.658 1103.84 174.426 1113.14 177.042 1118.96C179.658 1124.77 191.868 1113.14 192.333 1109.07C192.798 1105 197.101 1111.4 192.333 1126.51C187.566 1141.63 180.182 1137.56 179.135 1145.7C178.088 1153.84 188.031 1150.93 194.891 1148.6C201.694 1146.28 203.264 1152.38 210.125 1151.1C216.927 1149.77 221.288 1134.65 226.753 1121.86C232.16 1109.07 228.497 1096.86 231.637 1086.98C234.777 1077.1 207.973 1079.66 199.078 1065.3Z" fill="#878787"/>
<path d="M105.179 694.406C105.179 694.406 108.784 702.37 110.818 712.427C113.144 723.879 123.61 727.716 121.633 727.309C119.656 726.902 135.994 731.03 147.622 726.205C159.251 721.38 177.275 696.731 177.275 696.731C177.275 696.731 171.926 686.151 175.937 672.954C180.007 659.816 105.179 694.406 105.179 694.406Z" fill="#7F8080"/>
<path d="M80.0029 641.678C80.0029 643.597 79.2471 641.678 80.0029 650.573C80.7588 659.467 81.9216 657.142 85.0613 666.443C88.1428 675.745 85.4683 678.477 90.4685 680.395C95.4687 682.314 95.1198 676.5 95.1198 676.5C95.1198 676.5 101.69 695.103 107.504 702.079C113.318 709.055 129.598 713.299 136.575 713.706C143.552 714.113 159.425 714.462 166.053 700.51C172.681 686.557 174.949 676.5 177.274 667.955C179.6 659.409 182.333 655.165 182.333 650.515C182.333 645.864 169.541 587.73 169.541 587.73L88.8986 598.659L80.0029 641.678Z" fill="#878787"/>
<path d="M118.435 729.983C118.435 729.983 114.888 737.017 116.051 741.261C117.214 745.505 106.748 749.4 103.26 759.108C99.7713 768.817 82.0381 834.682 79.6542 844.739C77.2704 854.796 71.1074 892.409 64.4792 905.198C57.851 917.988 48.9553 937.753 50.5252 946.299C52.095 954.844 55.9324 973.447 56.3393 980.016C56.7463 986.585 60.6418 976.528 68.0259 968.39C75.4099 960.251 78.724 941.241 84.4219 930.777C90.1198 920.313 94.7711 897.815 95.527 888.514C96.2828 879.212 101.923 854.389 105.876 843.577C109.83 832.706 119.54 793.582 122.272 784.28C125.005 774.979 128.842 754.806 127.331 747.83C125.761 740.854 133.029 741.087 134.54 739.575C136.052 738.064 131.168 728.065 127.679 727.716C124.191 727.367 120.063 725.914 118.435 729.983Z" fill="#6B6B6B"/>
<path d="M85.8169 587.847C85.8169 587.847 82.7935 596.392 79.6539 605.287C76.5142 614.181 74.8862 628.598 77.27 636.272C79.6539 643.946 78.8399 641.678 83.0842 647.143C87.3286 652.549 87.3286 656.037 89.3054 662.665C91.2241 669.234 92.7939 666.153 93.2009 659.932C93.6079 653.712 90.1194 645.224 93.2009 638.248C96.2825 631.272 98.2593 634.179 95.5266 627.087C92.7939 619.994 88.9566 618.483 91.6311 612.67C94.3056 606.856 100.934 603.775 109.074 601.799C117.214 599.822 121.109 600.636 130.993 599.066C140.877 597.497 153.669 599.473 159.076 598.311C164.483 597.148 169.134 600.636 171.111 610.693C173.03 620.75 168.785 619.413 171.111 627.087C173.437 634.76 177.681 647.143 177.681 653.363C177.681 659.583 180.763 653.77 182.332 648.712C183.902 643.655 184.658 642.143 186.577 634.353C188.496 626.622 191.984 616.506 186.577 608.775C181.17 601.043 180.356 585.521 175.355 579.708C170.355 573.894 145.122 566.163 136.575 565.349C128.028 564.593 115.644 564.593 107.911 571.162C100.178 577.731 92.0381 579.301 85.8169 587.847Z" fill="#505050"/>
</g>
<path d="M50.7243 1153.61L35.6484 1138.5L50.7243 1123.39L46.083 1118.75L26.333 1138.5L46.083 1158.25L50.7243 1153.61Z" fill="#F3F3F3"/>
</g>
<defs>
<linearGradient id="paint0_linear" x1="109.5" y1="-5.29499e-09" x2="109.978" y2="589.489" gradientUnits="userSpaceOnUse">
<stop stop-color="#C4C4C4"/>
<stop offset="1" stop-color="#A1A1A1"/>
</linearGradient>
<linearGradient id="paint1_linear" x1="109.5" y1="-5.29499e-09" x2="109.978" y2="589.489" gradientUnits="userSpaceOnUse">
<stop stop-color="#C4C4C4"/>
<stop offset="1" stop-color="#A1A1A1"/>
</linearGradient>
<clipPath id="clip0">
<rect y="565" width="286" height="808" fill="white"/>
</clipPath>
</defs>
</svg>
