<?xml version="1.0" encoding="utf-8"?>
<!-- Generator: Adobe Illustrator 22.0.1, SVG Export Plug-In . SVG Version: 6.00 Build 0)  -->
<svg version="1.1" id="Layer_1" xmlns="http://www.w3.org/2000/svg" xmlns:xlink="http://www.w3.org/1999/xlink" x="0px" y="0px"
	 viewBox="0 0 219 1178" style="enable-background:new 0 0 219 1178;" xml:space="preserve">
<style type="text/css">
	.st0{fill:url(#SVGID_1_);}
	.st1{fill:url(#SVGID_2_);}
	.st2{fill:#404040;}
	.st3{fill:#7F8080;}
	.st4{fill:#3A3B3A;}
	.st5{fill:#717171;}
	.st6{fill:#878787;}
	.st7{fill:#5C5C5C;}
	.st8{fill:#505050;}
	.st9{fill:#F3F3F3;}
	.st10{fill:url(#SVGID_3_);}
	.st11{fill:url(#SVGID_4_);}
	.st12{fill:url(#SVGID_5_);filter:url(#Adobe_OpacityMaskFilter);}
	.st13{mask:url(#mask0_1_);}
</style>
<linearGradient id="SVGID_1_" gradientUnits="userSpaceOnUse" x1="305.5223" y1="2549.0884" x2="306.0003" y2="1959.5994" gradientTransform="matrix(1 0 0 -1 -196.5 2549)">
	<stop  offset="0" style="stop-color:#C4C4C4"/>
	<stop  offset="1" style="stop-color:#A1A0A0"/>
</linearGradient>
<rect class="st0" width="219" height="1178"/>
<linearGradient id="SVGID_2_" gradientUnits="userSpaceOnUse" x1="304.0223" y1="2549.0872" x2="304.5003" y2="1959.5994" gradientTransform="matrix(1 0 0 -1 -196.5 2549)">
	<stop  offset="0" style="stop-color:#C4C4C4"/>
	<stop  offset="1" style="stop-color:#A1A0A0"/>
</linearGradient>
<rect class="st1" width="216" height="1178"/>
<g>
	<path class="st2" d="M100.1,1178.2c0.4-7.5,1.6-23.2,4.6-32.7c4-12.9-2.4-33,0-37.1c2.4-4,4-16.9,8.9,6.4s6.4,16.1,9.7,27.4
		c2.5,8.6,2.1,27.4,2.9,36h84.8c-0.4-13.7-1.5-56.3,2.6-77.1c4.8-25,2.4-38.7,2.4-38.7L6.4,1080.2c0,0,13,76.1,13.8,98H100.1z"/>
	<path class="st3" d="M72.5,656.3c0,0,1.6,31.4,3.2,40.3c1.6,8.9,8.9,41.9,19.3,46.7s24.2-21,28.2-36.3c4-15.3,6.4-25.8,8.9-31.4
		s-0.8-16.1-1.6-25C129.7,641.8,72.5,656.3,72.5,656.3z"/>
	<path class="st4" d="M220.2,857V700.8c-3.6-3.1-8.3-5.9-14.8-8.3c-30.6-11.3-43.5-14.5-53.2-22.6s-15.9-12.7-12-3.5l-18.6,30.1
		l-0.8,28.2l-19.3,37.9l-43.7-79.8c0,0-15.2,12.9-26.4,17.7c-11.3,4.8-21,7.3-26.6,10.5c-2.3,1.3-4.3,1.8-6,2.2v236.1
		c6.5,29.8,3.6,37.8,3.6,47.8c0,5.2-1.7,9.9-3.6,15.5v70.7c1.2,0.7,2.7,1.5,4.4,2.4c18.5,9.7,43.5,2.4,65.3,4.8
		c21.8,2.4,11.3,0.8,58,0c46.7-0.8,82.2-14.5,93.5-20.1c0.1,0,0.2-0.1,0.2-0.1V940.8c-0.1-0.8-0.2-1.6-0.2-2.5
		c-3.2-33-19.3-44.3-10.5-62.1C212.9,869.5,216.9,863.3,220.2,857z"/>
	<path class="st5" d="M40.2,724c0,0-2.4-21,13.7-37.1c16.1-16.1,16.1-21.8,18.9-23.4c2.8-1.6-0.4,2.4,2,12.9s1.6,11.3,8.1,28.2
		c6.4,16.9,10.5,26.6,13.7,36.3c3.2,9.7,8.1,3.2,13.7-15.3c5.6-18.5,13.7-13.7,11.3-21c-2.4-7.3-4-9.7,2.4-16.1
		c6.4-6.4,8.7-23.3,8-27.4c-0.7-4-1.3-8.5-1.3-8.5s3.8,1.3,7,6.9c3.2,5.6,4,13.7,1.6,20.1c-2.4,6.4-3.2,9.7-4,19.3
		c-0.8,9.7-4.8,10.5-5.6,13.7c-0.8,3.2-2.4-3.2-1.6-8.9c0.8-5.6-4-8.1-2.4,0.8c1.6,8.9,4.8,9.7,2.4,14.5s-13.7,26.6-15.3,42.7
		c-1.6,16.1-5.6,59.6-8.1,73.3c-2.4,13.7-2.4,25-2.4,25s-1.6-33-3.2-50c-1.6-16.9-8.1-21-15.3-40.3s-8.9-38.7-13.7-48.4
		s-2.4-17.7-7.3-21.8s-10.5-0.8-13.7,4C45.9,708.7,42.7,733.7,40.2,724z"/>
	<g>
		<path class="st5" d="M83.8,876.3c0,0-8.1,16.1-7.3,31.4c0.8,15.3-3.2,17.7,5.6,22.6s11.8,1.6,11.8,1.6s-3.7-18.6,1.1-30.7
			c4.8-12.1,5.2-16.9,5.2-16.9S93.4,873.9,83.8,876.3z"/>
		<path class="st5" d="M108.6,734c0,0-1.3,13.3-11.5,17l-8.9-1.9c0,0,3.6,7.5,12.4,12.6s18.5-18.3,15.3-23.9
			C112.8,732,110,733.5,108.6,734z"/>
	</g>
	<g>
		<g>
			<path class="st6" d="M53.1,616c0,0,0.8,12.9,5.6,17.7s5.6,9.7,9.7,16.1c4,6.4,8.1,18.5,12.1,22.6c4,4,15.3,12.1,24.2,8.9
				s21.8-16.9,24.2-22.6c2.4-5.6,3.2-10.5,4-16.9c0.8-6.4-0.8-4,3.2-8.9s6.4-10.5,7.3-16.9c0.8-6.4-2.4-13.7-5.6-9.7
				c-3.2,4-13.7-38.7-15.3-37.9c-1.6,0.8-71.7,13.7-71.7,13.7S54.8,611.2,53.1,616z"/>
			<path class="st6" d="M37,714.3c0,0,4,0,7.3-1.6c3.2-1.6-1.6,1.6,3.2,4.8c4.8,3.2,4,1.6,4,4c0,2.4,2.4,12.1,4.8,14.5
				c2.4,2.4,4,3.2,4.8,1.6c0.8-1.6,1.6,1.6,4,3.2c2.4,1.6,3.2,0,3.2-1.6s3.2-2.4,3.2-4.8c0-2.4-4-4-4.8-6.4
				c-0.8-2.4,3.7-0.3,7.1,5.1s3.4,7,8.2,11s4,4.8,11.3,6.4c7.3,1.6,10.5-2.4,12.9-5.6s2.3-6.3,2.7-8.8c0.5-2.5-8.4-16.2-11.6-20.2
				s-6.4-11.3-9.7-15.3c-3.2-4-8.9-1.6-12.9-2.4c-4-0.8-12.1-1.6-15.3-1.6c-3.2,0-16.1,7.3-19.3,9.7C37,708.7,31.4,713.5,37,714.3z"
				/>
			<path class="st3" d="M63.6,715.1c0,0,3.2,0.8,4.8,5.6c1.6,4.8-1,4,2.3,2.4c3.3-1.6,2.5-5.6,0.1-8.8
				C68.5,711.1,62,712.7,63.6,715.1z"/>
		</g>
		<path class="st6" d="M98.7,885.6c0,0-12.1,18.5-8.1,35.5c4,16.9,3.2,8.9,9.7,16.1c6.4,7.3,6.4,11.3,10.5,15.3s8.9-0.8,10.5,0
			c1.6,0.8,9.3,2,10.9-1.2c1.6-3.2,8.9,1.6,11.3-4.8c2.4-6.4,4.8,4.8,8.1,8.1c3.2,3.2,8.9,4.8,8.9,1.6c0-3.2-0.8-8.9-4-15.3
			c-3.2-6.4-1.6-12.9-9.7-16.9c-8.1-4,6.4,4,10.5,4s2.4-6.4-0.8-8.9c-3.2-2.4-11.3-7.3-17.7-12.9s-16.9-4.8-22.6-10.5
			C110.4,890,103.1,880.3,98.7,885.6z"/>
		<path class="st3" d="M112.8,955.3c0,0,8.9,0.8,7.3-4.8c-1.6-5.6-3.2-4.8-7.3-4.8c-4,0-4.2,4-3.7,4.8
			C109.6,951.3,109.6,954.5,112.8,955.3z"/>
	</g>
	<path class="st7" d="M119.2,738.6l-3.2-0.1c0,0-0.1,11.6-2.9,14.7c-2.8,3-9.2,10.3-10.8,9.5s5.6,4,12.1,7.3
		C120.8,773.1,119.2,738.6,119.2,738.6z"/>
	<g>
		<path class="st8" d="M49.1,568.5c0,0-3.2,12.1-2.4,23.4c0.8,11.3,1.6,16.9,6.4,24.2c4.8,7.3,5.6,12.9,7.3,15.3
			c1.6,2.4,1.6-4.8,0-11.3c-1.6-6.4,2.4-5.6,0.8-13.7c-1.6-8.1-6.4-16.1-2.4-18.5c4-2.4,10.5-2.4,18.5-1.6c8.1,0.8,9.7-4,16.1-3.2
			c6.4,0.8,3.2,0.8,12.1-2.4c8.9-3.2,16.9-7.3,18.5,3.2c1.6,10.5-2.4,12.9,1.6,18.5c4,5.6,3.2,8.9,4.8,16.9c1.6,8.1,1.6,5.6,4.8-2.4
			c3.2-8.1,4-6.4,5.6-9.7c1.6-3.2,3.2-12.1,2.4-16.9c-0.8-4.8,2.4-8.1,2.4-12.1s-1.6-0.8-3.2-9.7s-2.4-11.3-9.7-16.1
			s-7.3-7.3-16.9-12.1s-16.1-0.8-21.8-2.4c-5.6-1.6-4,0.8-11.3,1.6s-10.5,2.4-15.3,6.4S54.8,556.4,49.1,568.5z"/>
		<path class="st8" d="M77.2,667.5c0,0,0.9,4.9,7.4,8.9s10.5,5.6,16.1,6.4c5.6,0.8,12.9-6.4,15.3-8.9c2.4-2.4,4.8-4,5.6-4.8
			c0.8-0.8-2.4,1.6-6.4,4c-4,2.4-6.4,5.6-9.7,6.4c-3.2,0.8-6.4,1.6-10.5,0c-4-1.6-9.7-4-12.1-6.4C80.5,670.8,77.1,666.6,77.2,667.5z
			"/>
	</g>
</g>
<path class="st9" d="M46.7,1151.6l-15.1-15.1l15.1-15.1l-4.6-4.6l-19.8,19.8l19.8,19.8L46.7,1151.6z"/>
<g>
	
		<linearGradient id="SVGID_3_" gradientUnits="userSpaceOnUse" x1="-470.9543" y1="2549.0884" x2="-470.4763" y2="1959.5994" gradientTransform="matrix(1 0 0 -1 -196.5 2549)">
		<stop  offset="0" style="stop-color:#C4C4C4"/>
		<stop  offset="1" style="stop-color:#A1A0A0"/>
	</linearGradient>
	<rect x="-776.5" class="st10" width="219" height="1178"/>
	
		<linearGradient id="SVGID_4_" gradientUnits="userSpaceOnUse" x1="-473.9543" y1="2549.0884" x2="-473.4763" y2="1959.5994" gradientTransform="matrix(1 0 0 -1 -196.5 2549)">
		<stop  offset="0" style="stop-color:#C4C4C4"/>
		<stop  offset="1" style="stop-color:#A1A0A0"/>
	</linearGradient>
	<rect x="-779.5" class="st11" width="219" height="1178"/>
	<defs>
		<filter id="Adobe_OpacityMaskFilter" filterUnits="userSpaceOnUse" x="-803.5" y="537" width="246" height="641">
			<feColorMatrix  type="matrix" values="1 0 0 0 0  0 1 0 0 0  0 0 1 0 0  0 0 0 1 0"/>
		</filter>
	</defs>
	<mask maskUnits="userSpaceOnUse" x="-803.5" y="537" width="246" height="641" id="mask0_1_">
		
			<linearGradient id="SVGID_5_" gradientUnits="userSpaceOnUse" x1="-470.9543" y1="2549.0884" x2="-470.4763" y2="1959.5994" gradientTransform="matrix(1 0 0 -1 -196.5 2549)">
			<stop  offset="0" style="stop-color:#C4C4C4"/>
			<stop  offset="1" style="stop-color:#A1A0A0"/>
		</linearGradient>
		<rect x="-776.5" class="st12" width="219" height="1178"/>
	</mask>
	<g class="st13">
		<path class="st2" d="M-786.8,1020.3c0,0-2.8,64.9,0,92.8c2.8,27.8,8.3,64.9,8.3,64.9h88c0,0,8.3-22.3,3.7-30.6
			c-4.6-8.3-7.4-17.6-5.6-21.3c1.9-3.7,8.3-26,12-1.9c3.7,24.1,10.2,50.1,11.1,53.8h87.1c0,0-5.6-54.8-4.6-68.7
			c0.9-13.9-0.9-68.7-2.8-82.6c-1.9-13.9-7.4-25-7.4-25s-75.9-2.8-83.4,1.8c-7.4,4.6-38.1,5.8-50.1,2.4
			C-742.4,1002.6-786.8,1020.3-786.8,1020.3z"/>
		<path class="st3" d="M-739,639.3c0,0,5,28.3,2.2,37.6c-2.8,9.3-6.5,56.6,0.9,70.5c7.4,13.9,21.3,38,30.6,30.6
			c9.3-7.4,24.1-26.9,30.6-42.7c6.5-15.8,9.3-55.7,8.3-65.9c-0.9-10.2,0.7-12.2,5.5-19.1C-656.2,643.5-739,639.3-739,639.3z"/>
		<path class="st5" d="M-746.1,708.5c0,0-3.7-16.7,0-23.2c3.7-6.5,10.2-18.6,11.1-9.3c0.6,5.8,2.8,11.1,5.6,18.6
			c2.8,7.4,6.5,17.6,0.9,23.2c-5.6,5.6-9.3,22.3-0.9,31.5c8.3,9.3,17.6,16.7,19.5,21.3c1.9,4.6,4.6-4.6,11.1-10.2
			c6.5-5.6,6.5-3.7,9.3-13.9c2.8-10.2,8.3-12.1,11.1-20.4c2.8-8.4,3.7-15.8,6.5-23.2c2.8-7.4-5.6-15.8-1.9-20.4
			c3.7-4.6,7.2-9.6,7.3-14.1c0.1-4.5,3.8-3.5,5.6,2c1.9,5.6,3.7,19.5,1.9,24.1c-1.9,4.6,10.2,307.1,10.2,307.1s-38,8.3-64.8,8.3
			c-26.9,0-53.7-9.3-53.7-9.3l15.7-290.4L-746.1,708.5z"/>
		<path class="st3" d="M-602.5,1011c0,0-2.8,3.7-6.5,10.2c-3.7,6.5-8.3,12.1-10.2,19.5c-1.9,7.4,0,10.2-3.7,15.8
			c-3.7,5.6-14.8,15.8-1.9,13.9c13-1.8,13.9-19.5,15.7-22.3c1.9-2.8,1.9,2.8,0.9,8.3c-0.9,5.6-2.8,17.6-3.7,26
			c-0.9,8.3-1.9,12.1,1.9,13.9c3.7,1.9,5.6-6.5,7.4-11.1c1.9-4.6-3.7,9.3-2.8,11.1c0.9,1.9,5.6-0.9,9.3-6.5c0,0-0.9,5.6,3.7,1.8
			c4.6-3.7,7.4-5.6,11.1-10.2s1.9-7.4,4.6-10.2c2.8-2.8,5.6-3.7,6.5-8.4c0.9-4.6,4.6-13.9,2.8-22.3c-1.9-8.4,0-14.9-0.9-21.3
			C-569.1,1012.8-596,1007.3-602.5,1011z"/>
		<path class="st6" d="M-739.6,635.2c0,0,0.9,10.2,3.7,14.8c2.8,4.6,12,8.4,18.5,11.1c6.5,2.8,27.8,5.6,40.8,1.9
			c13-3.7,14.8-10.2,17.6-17.6c2.8-7.4,5.6-5.6,6.5-8.4c0.9-2.8,0-9.3,1.9-11.1c1.9-1.9,2.8-13,0-10.2c-2.8,2.8-3.7,5.6-5.6,8.4
			c-1.9,2.8,2.8-10.2,0.9-18.6c-1.9-8.4-0.9-25.1-2.8-28.8c-1.9-3.7-8.3-18.6-23.2-21.3c-14.8-2.8-25-6.5-38,0
			c-13,6.5-16.7,13.9-17.6,22.3c-0.9,8.4-15.7,26.9-17.6,30.6c-1.9,3.7,0.9,7.4,2.8,15.8C-749.8,632.4-742.3,640.7-739.6,635.2z"/>
		<path class="st8" d="M-641.4,588.8c0,0,5.6,4.6,2.8,6.5c-2.8,1.9-3.7,5.6-3.7,7.4c0,1.9-2.8,0-1.9,3.7c0.9,3.7,3.7,5.6,0,7.4
			s-0.9,7.4-2.8,9.3c-1.9,1.9-0.9,1.9-1.9,3.7c-0.9,1.9-3,0.7-2.9,1.8c0.1,1-0.2,2-0.2,2s2.9-7.5,3-10.3c0.1-2.8,1.9-7.4-2.7-1.9
			c-4.6,5.6-6.5,6.5-5.6,7.4c0.9,0.9,1.9-12.1,0.9-17.6c-0.9-5.6,0-22.3-2.8-26.9c-2.8-4.6-4.6-20.4-16.7-22.3
			c-12-1.9-13.9-8.4-27.8-4.6c-13.9,3.7-15.7,4.6-20.4,9.3c-4.6,4.6-2.8,3.7-7.4,10.2c-4.6,6.5,2.8,6.5-3.7,17.6
			c-6.5,11.1,0.9,26-2.8,32.5c-3.7,6.5-0.9-7.4-3.7-11.1c-2.8-3.7-0.9-7.4-6.5-6.5c-5.6,0.9-6.5,1.9-4.6,7.4
			c1.9,5.6,2.1,9.6,1.9,13.5c-0.2,4-3.8-8-5.6-9.8c-1.9-1.9,0-2.8,0-11.1c0-8.4,2.8-8.4,0.9-13c-1.9-4.6-3.7,0-1.9-5.6
			c1.9-5.6,0-3.7,1.9-8.4c1.9-4.6,5.6,0,7.4-5.6c1.9-5.6-1.9-7.4,1.9-10.2c3.7-2.8,3.7-2.8,6.5-3.7c2.8-0.9,0,0,2.8-4.6
			c2.8-4.6,3.7-3.7,8.3-5.6c4.6-1.9,1.9-4.6,9.3-2.8c7.4,1.9,1.9-1.9,7.4-5.6c5.6-3.7,10.2-5.6,15.7-3.7c5.6,1.9,4.6,3.7,10.2,4.6
			c5.6,0.9,1.9-4.6,7.4-0.9c5.6,3.7,2.8,1.9,7.4,5.6c4.6,3.7,4.6,0.9,5.6,6.5c0.9,5.6,3.7,0.9,6.5,6.5c2.8,5.6,1.9,1.9,4.6,6.5
			c2.8,4.6-1.9,3.7,3.7,5.6c5.6,1.9,3.7,0,8.3,4.6c4.6,4.6,2.8,2.8,1.9,7.4C-641.4,588.8-643.2,586.9-641.4,588.8z"/>
		<path class="st8" d="M-672.9,655.6c-1.9-3.7-0.9-9.3-1.9-12.1c-0.9-2.8,1.9-7.4-0.9-8.4c-2.8-0.9-7.4-2.8-9.3-4.6
			c-1.9-1.9-0.9,0-3.7,0c-2.8,0-0.9,0.9-3.7,0.9s-2.8-4.6-6.5-4.6c-3.7,0,0.9,0.9-2.8,1.9c-3.7,0.9,0,0.9-5.6,1.9
			c-5.6,0.9-6.5,0-7.4,1.9c-0.9,1.9-0.9,3.7-0.9,6.5c0,2.8-4.6,5.6-2.8,6.5c0,0-3.7,3.7-2.8,6.5s0,3.7,2.8,9.3
			c2.8,5.6,3.7,4.6,9.3,8.4c5.6,3.7,2.8,1.9,7.4,2.8c4.6,0.9,1.9,0,8.3,0s5.6-1.9,10.2-3.7c4.6-1.9,2.8-2.8,6.5-5.6
			S-671,659.3-672.9,655.6z M-677.5,650c-2.8,2.8-2.8,1.9-8.3,3.7c-5.6,1.9-0.9,2.8-4.6,6.5c-3.7,3.7,0-0.9-3.7-0.9
			c-3.7,0-3.7,1.9-6.5,0c-2.8-1.9-0.9-7.4-4.6-6.5c-3.7,0.9-4.6-0.9-7.4-2.8c-2.8-1.9,0-3.7,0-3.7c-2.8-2.8-0.9-5.6,1.9-8.4
			c2.8-2.8,5.6-3.7,9.3-3.7c3.7,0,1.9,0.9,4.6,0.9c2.8,0,2.8-2.8,4.6,0s0-0.9,2.8,0c2.8,0.9,1.9,1.9,6.5,3.7
			c4.6,1.9,1.9,1.9,5.6,5.6C-673.8,648.2-674.7,647.2-677.5,650z"/>
		<path class="st8" d="M-701.6,644.5c0,0,1.9,4.6,3.7,5.6c1.9,0.9,0,0,3.7,0c3.7,0,3.7,0.9,6.5-1.9c2.8-2.8-0.9-1.9-4.6-3.7
			C-696,642.6-698.8,643.5-701.6,644.5z"/>
		<path class="st7" d="M-747.9,892.2c-3.7-10.2-6.5-30.6,0-46.4c6.5-15.8,10.2-65.9,4.6-78.9c-5.6-13-8.3-42.7-6.5-50.1
			c1.9-7.4,5.6-8.4,4.6-15.8c-0.9-7.4,0.7-18.7,9.3-28.8c0,0-14.8,8.4-17.6,16.7c-2.8,8.4-11.1,10.2-24.1,15.8
			c-13,5.6-25.9,11.1-25.9,11.1v316.4c0,0,1.9,6.5,6.5,7.4c4.6,0.9,43.5-1.8,51.9,0c8.3,1.9,13,0.9,15.7,4.6
			c2.8,3.7,2.8-0.9,2.8-11.1c0-10.2-6.5-36.2-6.5-52.9C-733.1,963.7-744.2,902.4-747.9,892.2z"/>
		<path class="st7" d="M-569.6,770.7c-1.9-11.5-6.5-23.8-10.7-31.6c-6.5-12.1-23.2-26-38.9-36.2c-15.7-10.2-29.6-6.5-31.5-13.9
			c-1.9-7.4-11.2-20.9-11.2-20.9c-3.8-2.3,1,3.2,1,10.7c0,7.4,1.9,22.3-0.9,31.5c-2.8,9.3-14.8,37.1-15.7,51
			c-0.9,13.9,5.6,69.6,0,88.2c-5.6,18.6-12,45.5-8.3,62.2c3.7,16.7,0.9,71.4,2.8,85.4c1.9,13.9-2.8,24.1,4.6,28.8
			c7.4,4.6,50-7.4,58.4-5.6c8.3,1.8,13-6.5,16.7-7.4s14.8,0,27.8,4.6c13,4.6,8.3,3.7,10.2-2.8c1.9-6.5-0.9-16.7,3.7-19.5
			c2.8-1.7,2.9-4.9,3-10.2c0,0,0.1-1.1,0.2-7.3c0.1-2,0.3-4.2,0.6-6.6c0.5-3.2,0.3-7.1-0.3-11.4c0.2-12,0.5-29.4,0.7-54.9
			C-556.6,831.4-569.6,770.7-569.6,770.7z"/>
	</g>
	<path class="st9" d="M-729.8,1151.6l-15.1-15.1l15.1-15.1l-4.6-4.6l-19.8,19.8l19.8,19.8L-729.8,1151.6z"/>
</g>
</svg>
