<svg width="375" height="809" viewBox="0 0 375 809" fill="none" xmlns="http://www.w3.org/2000/svg">
<mask id="mask0" mask-type="alpha" maskUnits="userSpaceOnUse" x="0" y="0" width="375" height="809">
<rect width="375" height="809" fill="#C4C4C4"/>
</mask>
<g mask="url(#mask0)">
<rect x="0.950439" y="-808.624" width="300.673" height="1617.32" fill="url(#paint0_linear)"/>
<path d="M339 -876H375V809H339V-876Z" fill="#C4C4C4"/>
<path d="M0.618335 727.606C0.618335 727.606 -7.72096 752.502 -12.9741 756.772C-18.2272 761.041 -22.0357 773.128 -18.7525 778.646C-15.4693 784.164 -13.6307 788.433 -9.69087 785.937C-5.75105 783.441 -8.64025 782.653 -9.69087 777.135C-10.7415 771.617 -7.45831 773.391 -6.21069 771.092C-4.96308 768.858 -5.22574 780.157 -8.24627 791.192C-11.2668 802.228 -10.7415 799.14 -13.2367 801.177C-15.7319 803.213 -19.7374 805.512 -14.2217 808.271C-8.70592 811.03 -7.72096 808.534 -3.64981 806.038C-3.64981 806.038 -3.1245 810.964 1.86595 809.519C6.85639 808.074 5.87144 806.563 10.6649 808.337C15.4583 810.11 17.4283 805.578 20.1861 802.294C22.944 799.009 26.2272 798.287 27.2122 795.79C28.1971 793.294 29.7074 775.23 29.7074 770.041C29.7074 764.851 32.7279 750.794 36.4707 744.291C40.2136 737.656 0.618335 727.606 0.618335 727.606Z" fill="#878787"/>
<path d="M98.7857 340.9C98.7857 340.9 100.559 349.242 98.7857 353.183C97.0128 357.125 94.3862 356.271 81.2535 362.38C68.1208 368.489 48.4216 376.831 44.4818 391.742C40.542 406.654 28.2629 494.676 22.1561 524.892C16.0494 555.109 9.02339 625.198 8.16976 637.022C7.31613 648.846 1.60338 654.955 6.00285 665.465C10.4023 675.975 9.08905 687.799 6.85649 700.477C4.68958 713.155 1.60338 724.584 -0.563519 730.693C-2.73042 736.802 39.2944 753.487 46.7144 737.262C54.1344 721.037 57.2206 716.702 63.3273 700.937C69.434 685.171 209.56 679.062 208.641 699.623C207.788 720.183 205.555 734.635 200.762 747.378C195.968 760.056 236.68 772.799 244.953 767.544C253.227 762.289 269.905 730.299 274.699 720.249C279.492 710.199 286.978 697.455 286.518 684.777C286.059 672.099 304.904 617.775 302.737 599.383C300.57 580.99 288.291 570.48 291.377 544.664C294.464 518.849 293.544 503.478 292.231 484.691C290.918 465.904 292.231 454.475 291.377 440.483C290.524 426.491 264.258 384.451 247.186 371.707C230.113 358.964 212.187 344.972 203.388 338.404C194.655 331.835 192.028 334.922 185.856 328.353C179.683 321.784 182.244 320.077 177.057 313.048C171.935 305.888 98.7857 328.616 98.7857 340.9Z" fill="#9C9D9E"/>
<path d="M57.6801 461.372C57.6801 461.372 60.7663 444.753 66.0194 427.214C71.2725 409.675 72.9798 394.37 80.8594 381.232C88.7391 368.095 94.7145 357.716 98.7856 353.183C102.922 348.651 89.5927 354.037 81.2534 362.38C72.9141 370.722 60.7007 395.355 59.3874 406.456C58.0741 417.558 55.4476 443.833 57.6801 461.372Z" fill="#5C5C5C"/>
<path d="M236.614 363.628C234.71 362.445 217.44 350.096 204.701 369.408C192.028 388.655 173.183 439.498 173.183 450.862C173.183 462.226 168.389 500.785 166.616 526.206C164.843 551.627 159.196 604.178 162.676 610.287C162.676 610.287 150.397 623.425 142.977 629.993C135.557 636.562 136.871 643.131 136.871 643.131C136.871 643.131 151.776 644.445 153.483 638.336C155.256 632.227 153.483 618.17 164.449 615.148C175.415 612.061 179.749 614.294 183.295 621.257C186.775 628.285 193.341 637.482 193.341 637.482C193.341 637.482 210.611 635.971 204.045 630.716C197.478 625.461 179.289 613.44 180.209 608.579C181.062 603.784 188.548 563.057 190.255 550.773C192.028 538.49 191.109 497.369 192.028 485.939C192.882 474.575 196.822 430.761 199.054 414.536C201.221 398.311 211.333 374.663 221.839 371.182C232.346 367.7 243.771 368.752 247.251 371.642C250.666 374.401 240.028 365.73 236.614 363.628Z" fill="#5C5C5C"/>
<path d="M52.8212 608.908C52.8212 608.908 65.8882 629.074 78.1674 633.015C90.4465 636.956 160.05 637.416 170.556 633.015C181.062 628.614 207.328 623.884 210.414 622.505C213.5 621.191 206.015 629.468 210.414 646.547C214.814 663.626 220.198 671.508 214.354 686.814C208.51 702.119 207.788 730.168 205.621 740.678C203.454 751.188 199.317 754.144 213.894 762.289C228.406 770.435 235.432 768.596 235.432 768.596C235.432 768.596 231.033 1029.25 200.827 1094.93L69.9594 1081.8C69.9594 1081.8 69.1058 913.635 66.0196 868.967C62.9334 824.299 60.0442 704.747 56.8266 692.923C48.8813 663.626 52.8212 651.408 52.8212 608.908Z" fill="#505050"/>
<path d="M204.833 747.312C204.833 747.312 191.175 769.843 187.038 780.354C182.901 790.864 176.991 801.374 179.946 807.943C182.901 814.511 196.69 801.374 197.216 796.776C197.741 792.177 202.6 799.403 197.216 816.482C191.831 833.561 183.492 828.963 182.31 838.159C181.128 847.355 192.357 844.071 200.105 841.444C207.788 838.816 209.56 845.713 217.309 844.268C224.991 842.757 229.916 825.678 236.089 811.227C242.195 796.776 238.058 782.981 241.604 771.814C245.15 760.647 214.879 763.537 204.833 747.312Z" fill="#878787"/>
<path d="M98.7856 328.222C98.7856 328.222 102.857 337.221 105.155 348.585C107.782 361.526 119.601 365.861 117.368 365.401C115.136 364.942 133.587 369.605 146.72 364.153C159.853 358.701 180.209 330.849 180.209 330.849C180.209 330.849 174.168 318.894 178.698 303.983C183.295 289.137 98.7856 328.222 98.7856 328.222Z" fill="#7F8080"/>
<path d="M70.3531 268.643C70.3531 270.81 69.4995 268.643 70.3531 278.693C71.2068 288.743 72.52 286.116 76.0659 296.626C79.5461 307.136 76.5255 310.223 82.1726 312.391C87.8197 314.559 87.4257 307.99 87.4257 307.99C87.4257 307.99 94.8457 329.01 101.412 336.893C107.978 344.775 126.364 349.571 134.244 350.03C142.124 350.49 160.05 350.884 167.536 335.119C175.021 319.354 177.582 307.99 180.209 298.334C182.835 288.678 185.921 283.882 185.921 278.627C185.921 273.372 171.475 207.684 171.475 207.684L80.3997 220.033L70.3531 268.643Z" fill="#878787"/>
<path d="M113.757 368.423C113.757 368.423 109.752 376.371 111.065 381.167C112.378 385.962 100.559 390.363 96.619 401.333C92.6791 412.303 72.6517 486.727 69.9595 498.092C67.2673 509.456 60.3069 551.956 52.8212 566.407C45.3356 580.859 35.289 603.193 37.0619 612.849C38.8349 622.505 43.1687 643.525 43.6283 650.948C44.088 658.371 48.4874 647.007 56.8267 637.81C65.166 628.614 68.9089 607.134 75.3439 595.31C81.7789 583.486 87.0321 558.065 87.8857 547.555C88.7393 537.045 95.1087 508.996 99.5738 496.778C104.039 484.494 115.005 440.286 118.091 429.776C121.177 419.266 125.511 396.472 123.804 388.589C122.031 380.707 130.239 380.97 131.946 379.262C133.653 377.554 128.138 366.255 124.198 365.861C120.258 365.467 115.596 363.825 113.757 368.423Z" fill="#6B6B6B"/>
<path d="M76.9196 207.815C76.9196 207.815 73.5051 217.472 69.9593 227.522C66.4134 237.572 64.5748 253.863 67.267 262.534C69.9592 271.205 69.04 268.643 73.8334 274.817C78.6269 280.926 78.6269 284.868 80.8594 292.356C83.0263 299.779 84.7993 296.297 85.2589 289.269C85.7186 282.24 81.7787 272.65 85.2589 264.767C88.7391 256.885 90.9717 260.169 87.8855 252.155C84.7993 244.141 80.4655 242.433 83.486 235.864C86.5065 229.295 93.9922 225.814 103.185 223.581C112.378 221.347 116.778 222.267 127.94 220.493C139.103 218.72 153.549 220.953 159.656 219.639C165.763 218.326 171.016 222.267 173.248 233.631C175.415 244.995 170.622 243.484 173.248 252.155C175.875 260.826 180.668 274.817 180.668 281.846C180.668 288.875 184.149 282.306 185.921 276.591C187.694 270.876 188.548 269.168 190.715 260.366C192.882 251.629 196.822 240.2 190.715 231.463C184.608 222.727 183.689 205.188 178.042 198.619C172.395 192.05 143.897 183.314 134.244 182.394C124.592 181.54 110.605 181.54 101.872 188.963C93.1386 196.386 83.9456 198.159 76.9196 207.815Z" fill="#505050"/>
<path d="M37.2868 847.099L20.2605 830.027L37.2868 812.955L32.0451 807.71L9.73999 830.027L32.0451 852.343L37.2868 847.099Z" fill="#F3F3F3"/>
</g>
<defs>
<linearGradient id="paint0_linear" x1="151.287" y1="-808.624" x2="151.943" y2="0.705596" gradientUnits="userSpaceOnUse">
<stop stop-color="#C4C4C4"/>
<stop offset="1" stop-color="#A1A1A1"/>
</linearGradient>
</defs>
</svg>
