<svg width="375" height="809" viewBox="0 0 375 809" fill="none" xmlns="http://www.w3.org/2000/svg">
<mask id="mask0" mask-type="alpha" maskUnits="userSpaceOnUse" x="0" y="0" width="375" height="809">
<rect width="375" height="809" fill="#C4C4C4"/>
</mask>
<g mask="url(#mask0)">
<rect x="0.950439" y="-808.624" width="300.673" height="1617.32" fill="url(#paint0_linear)"/>
<g clip-path="url(#clip0)">
<path d="M24.4463 825.861C24.4463 825.861 44.6844 944.302 42.5541 961.374H148.005C148.005 961.374 149.071 929.363 154.396 912.291C159.722 895.218 151.201 868.543 154.396 863.207C157.592 857.872 159.722 840.8 166.113 871.744C172.504 902.688 174.635 893.084 178.895 908.023C183.156 922.961 181.026 961.374 184.221 961.374C187.417 961.374 294.998 961.374 294.998 961.374C294.998 961.374 291.803 886.682 298.194 853.604C304.585 820.526 301.389 802.386 301.389 802.386L24.4463 825.861Z" fill="#3F3F3F"/>
<path d="M111.79 264.601C111.79 264.601 113.92 306.215 116.05 317.953C118.181 329.69 127.767 373.438 141.614 379.841C155.462 386.243 173.569 352.098 178.895 331.824C184.221 311.55 187.416 297.679 190.612 290.21C193.807 282.741 189.547 268.869 188.482 257.132C187.416 245.394 111.79 264.601 111.79 264.601Z" fill="#7F7F7F"/>
<path d="M7.40352 344.629C7.40352 344.629 6.33835 370.237 1.01253 380.908C-4.3133 391.578 -0.052638 392.645 -2.18297 421.455C-4.3133 450.265 -19.2256 532.427 3.14286 609.253C25.5113 686.08 19.1203 698.884 19.1203 715.957C19.1203 733.029 5.27319 745.834 8.46868 784.247C11.6642 822.66 -4.3133 820.526 20.1855 833.33C44.6843 846.135 77.7044 836.531 106.464 839.733C135.223 842.934 121.376 840.8 183.156 839.733C244.935 838.665 291.803 820.526 306.715 813.057C321.627 805.587 342.931 805.587 346.126 799.185C349.321 792.783 340.8 746.901 329.083 726.627C317.367 706.353 310.976 681.811 306.715 638.063C302.454 594.315 281.151 579.376 292.868 555.901C304.585 532.427 321.627 514.287 315.236 483.343C308.845 452.399 321.627 406.517 320.562 380.908C319.497 355.299 328.018 327.556 287.542 312.618C247.066 297.679 230.023 293.411 217.241 282.741C204.459 272.07 196.257 265.988 201.37 278.046L176.765 317.953L175.7 355.299L150.136 405.45L92.4037 299.813C92.4037 299.813 72.3786 316.886 57.4663 323.288C42.554 329.69 29.772 332.891 22.3158 337.159C14.8597 341.427 9.53385 339.293 7.40352 344.629Z" fill="#3A3A3A"/>
<path d="M69.1831 354.232C69.1831 354.232 65.9876 326.489 87.2909 305.148C108.594 283.808 108.594 276.338 112.322 274.204C116.05 272.07 111.79 277.405 114.985 291.277C118.181 305.148 117.116 306.215 125.637 328.623C134.158 351.031 139.484 363.835 143.745 376.64C148.005 389.444 154.396 380.908 161.852 356.366C169.309 331.824 179.96 338.226 176.765 328.623C173.569 319.02 171.439 315.819 179.96 307.282C188.482 298.746 191.464 276.338 190.505 271.003C189.547 265.668 188.801 259.693 188.801 259.693C188.801 259.693 193.807 261.4 198.068 268.869C202.329 276.338 203.394 287.009 200.198 295.545C197.003 304.081 195.938 308.349 194.873 321.154C193.807 333.958 188.482 335.025 187.416 339.293C186.351 343.562 184.221 335.025 185.286 327.556C186.351 320.087 179.96 316.886 182.091 328.623C184.221 340.36 188.482 341.427 185.286 347.83C182.091 354.232 167.178 383.042 165.048 404.382C162.918 425.723 157.592 483.343 154.396 501.483C151.201 519.622 151.201 534.561 151.201 534.561C151.201 534.561 149.07 490.812 146.94 468.405C144.81 445.997 136.289 440.662 126.702 415.053C117.116 389.444 114.985 363.835 108.594 351.031C102.203 338.226 105.399 327.556 99.0077 322.221C92.6167 316.886 85.1606 321.154 80.8999 327.556C76.6393 333.958 72.3786 367.036 69.1831 354.232Z" fill="#707070"/>
<path d="M126.702 555.901C126.702 555.901 116.05 577.242 117.115 597.516C118.181 617.789 112.855 620.991 124.572 627.393C136.288 633.795 140.123 629.527 140.123 629.527C140.123 629.527 135.223 604.985 141.614 588.98C148.005 572.974 148.431 566.572 148.431 566.572C148.431 566.572 139.484 552.7 126.702 555.901Z" fill="#707070"/>
<path d="M159.509 367.463C159.509 367.463 157.805 385.069 144.384 389.871L132.667 387.31C132.667 387.31 137.354 397.127 149.07 403.956C160.787 410.678 173.569 379.734 169.309 372.265C165.048 364.796 161.426 366.823 159.509 367.463Z" fill="#707070"/>
<path d="M86.2259 211.249C86.2259 211.249 87.2911 228.322 93.682 234.724C100.073 241.126 101.138 247.528 106.464 256.065C111.79 264.601 117.116 280.606 122.441 285.942C127.767 291.277 142.68 301.947 154.396 297.679C166.113 293.411 183.156 275.271 186.351 267.802C189.547 260.333 190.612 253.931 191.677 245.394C192.742 236.858 190.612 240.059 195.938 233.657C201.264 227.255 204.459 219.786 205.524 211.249C206.59 202.713 202.329 193.11 198.068 198.445C193.808 203.78 179.96 147.227 177.83 148.294C175.7 149.361 83.0304 166.434 83.0304 166.434C83.0304 166.434 88.3562 204.847 86.2259 211.249Z" fill="#878787"/>
<path d="M64.9226 341.427C64.9226 341.427 70.2484 341.427 74.5091 339.293C78.7697 337.159 72.3787 341.427 78.7697 345.696C85.1607 349.964 84.0955 347.83 84.0955 351.031C84.0955 354.232 87.291 367.036 90.4865 370.237C93.682 373.438 95.8124 374.506 96.8775 372.371C97.9427 370.237 99.0079 374.506 102.203 376.64C105.399 378.774 106.464 376.64 106.464 374.506C106.464 372.371 110.725 371.304 110.725 368.103C110.725 364.902 105.399 362.768 104.334 359.567C103.269 356.366 109.127 359.14 113.707 366.289C118.287 373.438 118.181 375.573 124.572 380.908C130.963 386.243 129.898 387.31 139.484 389.444C149.071 391.578 153.331 386.243 156.527 381.975C159.722 377.707 159.509 373.652 160.148 370.344C160.787 367.036 149.071 348.897 144.81 343.562C140.549 338.226 136.289 328.623 132.028 323.288C127.767 317.953 120.311 321.154 114.985 320.087C109.66 319.02 99.0079 317.953 94.7472 317.953C90.4865 317.953 73.4439 327.556 69.1832 330.757C64.9226 333.958 57.4664 340.36 64.9226 341.427Z" fill="#878787"/>
<path d="M100.073 342.494C100.073 342.494 104.334 343.562 106.464 349.964C108.594 356.366 105.186 355.192 109.553 353.165C113.92 351.031 112.855 345.696 109.66 341.427C106.464 337.159 97.9427 339.293 100.073 342.494Z" fill="#7F7F7F"/>
<path d="M146.408 568.172C146.408 568.172 130.43 592.714 135.756 615.122C141.082 637.53 140.017 626.859 148.538 636.463C157.059 646.066 157.059 651.401 162.385 656.736C167.711 662.071 174.102 655.669 176.232 656.736C178.363 657.803 188.482 659.404 190.612 655.136C192.742 650.868 202.329 657.27 205.524 648.733C208.72 640.197 211.915 655.136 216.176 659.404C220.437 663.672 227.893 665.806 227.893 661.538C227.893 657.27 226.828 649.801 222.567 641.264C218.306 632.728 220.437 624.192 209.785 618.857C199.133 613.521 218.306 624.192 223.632 624.192C228.958 624.192 226.828 615.655 222.567 612.454C218.306 609.253 207.655 602.851 199.133 595.382C190.612 587.913 176.765 588.98 169.309 581.51C161.853 574.041 152.266 561.237 146.408 568.172Z" fill="#878787"/>
<path d="M165.048 660.471C165.048 660.471 176.765 661.538 174.635 654.069C172.504 646.599 170.374 647.666 165.048 647.666C159.722 647.666 159.509 653.002 160.148 654.069C160.787 655.136 160.787 659.404 165.048 660.471Z" fill="#7F7F7F"/>
<path d="M173.569 373.652L169.415 373.439C169.415 373.439 169.309 388.804 165.581 392.859C161.959 396.913 153.438 406.517 151.307 405.45C149.177 404.383 158.764 410.785 167.285 415.053C175.806 419.321 173.569 373.652 173.569 373.652Z" fill="#5B5B5B"/>
<path d="M80.8999 148.294C80.8999 148.294 76.6392 164.3 77.7044 179.238C78.7696 194.177 79.8347 201.646 86.2257 211.249C92.6167 220.853 93.6819 228.322 95.8122 231.523C97.9425 234.724 97.9425 225.121 95.8122 216.584C93.6819 208.048 99.0077 209.115 96.8774 198.445C94.747 187.774 88.3561 177.104 93.6819 173.903C99.0077 170.702 107.529 170.702 118.181 171.769C128.832 172.836 130.963 166.434 139.484 167.501C148.005 168.568 143.745 168.568 155.461 164.3C167.178 160.032 177.83 154.696 179.96 168.568C182.091 182.439 176.765 185.64 182.091 193.11C187.416 200.579 186.351 204.847 188.482 215.517C190.612 226.188 190.612 222.987 194.873 212.316C199.133 201.646 200.198 203.78 202.329 199.512C204.459 195.244 206.589 183.506 205.524 177.104C204.459 170.702 208.72 166.434 208.72 161.099C208.72 155.763 206.589 160.032 204.459 148.294C202.329 136.557 201.264 133.356 191.677 126.954C182.091 120.551 182.091 117.35 169.309 110.948C156.527 104.546 148.005 109.881 140.549 107.747C133.093 105.613 135.223 108.814 125.637 109.881C116.05 110.948 111.79 113.082 105.399 118.417C99.0077 123.752 88.3561 132.289 80.8999 148.294Z" fill="#4F4F4F"/>
<path d="M118.074 279.433C118.074 279.433 119.246 285.942 127.767 291.277C136.288 296.612 141.614 298.746 149.07 299.813C156.527 300.88 166.113 291.277 169.309 288.076C172.504 284.875 175.7 282.741 176.765 281.674C177.83 280.607 173.569 283.808 168.243 287.009C162.918 290.21 159.722 294.478 155.461 295.545C151.201 296.612 146.94 297.679 141.614 295.545C136.288 293.411 128.832 290.21 125.637 287.009C122.441 283.808 117.861 278.259 118.074 279.433Z" fill="#4F4F4F"/>
</g>
<path d="M339 -876H375V809H339V-876Z" fill="#C4C4C4"/>
</g>
<defs>
<linearGradient id="paint0_linear" x1="151.287" y1="-808.624" x2="151.943" y2="0.705596" gradientUnits="userSpaceOnUse">
<stop stop-color="#C4C4C4"/>
<stop offset="1" stop-color="#A1A1A1"/>
</linearGradient>
<clipPath id="clip0">
<rect x="-9" y="107" width="355.872" height="854.375" fill="white"/>
</clipPath>
</defs>
</svg>
