<svg width="219" height="1180" viewBox="0 0 219 1180" fill="none" xmlns="http://www.w3.org/2000/svg">
<rect width="219" height="1178" fill="url(#paint0_linear)"/>
<mask id="mask0" mask-type="alpha" maskUnits="userSpaceOnUse" x="0" y="0" width="219" height="1178">
<rect width="219" height="1178" fill="url(#paint1_linear)"/>
</mask>
<g mask="url(#mask0)">
<path d="M52.8823 628.734C52.8823 628.734 52.0083 643.59 52.0083 651.454C52.0083 659.319 61.6223 675.048 73.8583 680.291C86.0943 685.534 118.432 670.679 121.928 663.688C125.424 656.697 118.432 640.968 119.306 631.356C120.18 621.744 52.8823 628.734 52.8823 628.734Z" fill="#7F7F7F"/>
<path d="M66.8661 1181C66.8661 1181 70.3621 1171.39 77.3541 1168.77C84.3461 1166.14 100.078 1165.27 110.566 1168.77C121.054 1172.26 140.282 1181 140.282 1181H216.32C216.32 1181 201.462 1104.1 197.966 1085.75C194.47 1067.4 152.518 1047.3 134.164 1050.8C115.81 1054.29 95.4459 1057.26 70.7117 1054.47C45.9775 1051.67 10.0561 1055.17 10.0561 1055.17L-11.7939 1181H66.8661Z" fill="#3F3F3F"/>
<path d="M50.2603 640.094C50.2603 640.094 48.5123 641.842 48.5123 651.454C48.5123 662.814 41.5203 667.183 38.8983 682.912C36.2763 698.641 19.6703 1039.44 24.9143 1063.91C30.1583 1088.37 136.786 1051.67 164.754 1063.91C192.722 1076.14 173.494 1051.67 169.998 1018.47C166.502 985.26 117.558 723.109 123.676 690.777C129.794 658.445 128.046 646.211 121.928 644.463C115.81 642.716 124.55 661.94 107.07 670.679C89.5903 679.417 68.0899 672.688 59.8743 663.688C51.1343 654.076 52.0083 636.599 50.2603 640.094Z" fill="#707070"/>
<path d="M46.7643 660.804C46.7643 660.804 24.0403 669.892 6.56028 683.874C-10.9197 697.855 -11.7937 703.972 -20.5337 710.089C-29.2737 716.206 -58.9898 809.706 -60.7378 856.02C-62.4858 902.333 -56.3678 934.665 -48.5018 965.249C-40.6358 995.834 -34.5177 1002.82 -34.5177 1009.82C-34.5177 1016.81 -45.8798 1022.92 -39.7618 1027.29C-33.6437 1031.66 -29.2737 1030.79 -27.5257 1038.65C-25.7777 1046.52 -48.5018 1181.09 -48.5018 1181.09H46.7643C46.7643 1181.09 38.8983 1166.23 52.0083 1126.91C65.1183 1087.59 73.8583 1057 72.1103 1019.43C70.3623 981.852 72.1103 910.198 72.1103 884.856C72.1103 859.515 60.7483 793.977 62.4963 767.762C64.2443 741.547 65.1183 706.593 65.9923 694.36C66.8663 682.126 52.0083 657.833 46.7643 660.804Z" fill="#4C4C4C"/>
<path d="M127.26 653.901C127.26 653.901 134.252 653.289 151.732 666.397C169.212 679.504 168.338 682.126 191.062 696.981C213.786 711.836 226.896 716.206 233.888 752.907C240.88 789.608 262.73 859.515 253.99 878.739C245.25 897.964 238.258 945.151 233.888 967.871C229.518 990.591 212.912 993.212 218.156 998.455C223.4 1003.7 227.77 1068.36 228.644 1081.47C229.518 1094.58 248.746 1151.38 248.746 1157.49C248.746 1163.61 236.51 1172.35 221.652 1172.35C206.794 1172.35 171.834 1181.09 171.834 1181.09H154.354C154.354 1181.09 136 1167.11 127.26 1167.11C118.52 1167.11 111.527 1028.17 119.394 977.483C127.26 926.801 136.874 904.955 132.504 868.253C128.134 831.552 102.787 731.935 106.283 719.701C109.779 707.467 113.8 672.077 117.908 667.97C121.928 663.688 122.016 663.251 127.26 653.901Z" fill="#4C4C4C"/>
<path d="M37.1503 592.907C37.1503 592.907 36.2763 606.015 39.7723 613.005C43.2683 619.996 45.0163 622.618 47.6383 621.744C50.2603 620.87 55.5043 639.22 59.8743 644.463C64.2443 649.706 72.1104 660.193 79.1024 661.94C86.0944 663.688 101.826 659.319 107.07 651.454C112.314 643.59 119.306 634.851 121.928 628.734C124.55 622.618 123.676 623.491 128.046 617.374C132.416 611.258 135.038 603.393 134.164 598.15C133.29 592.907 132.416 590.286 129.794 592.907C127.172 595.529 125.424 566.692 120.18 557.08C114.936 547.467 54.6303 550.963 52.8823 551.837C51.1343 552.71 44.1423 587.664 44.1423 594.655C44.1423 601.645 40.6463 584.169 37.1503 592.907Z" fill="#878787"/>
<path d="M18.7965 973.9C18.7965 973.9 14.4265 981.765 10.0565 985.26C5.68651 988.756 0.442506 998.368 -6.5495 1005.36C-13.5415 1012.35 -15.2895 1021.96 -11.7935 1028.08C-8.2975 1034.2 -1.30549 1038.56 0.442509 1039.44C2.19051 1040.31 7.43451 1037.69 9.18252 1035.94C10.9305 1034.2 15.3005 1038.56 18.7965 1036.82C22.2925 1035.07 19.4083 1033.32 23.9531 1032.45C28.4105 1031.57 31.9065 1029.83 31.9065 1025.46C31.9065 1021.09 38.8985 1018.47 36.2765 1012.35C33.6545 1006.23 31.0325 1001.86 29.2845 1001.86C27.5365 1001.86 25.7885 1000.99 26.6625 1003.61C27.5365 1006.23 18.7965 1002.74 19.6705 997.494C20.5445 992.251 20.5445 989.63 24.0405 987.008C27.5365 984.386 35.4025 982.639 31.0325 978.27C26.6625 973.9 21.4185 970.405 18.7965 973.9Z" fill="#878787"/>
<path d="M183.109 965.162C180.487 964.812 174.369 966.036 168.251 967.783C162.133 969.531 164.755 966.91 156.889 969.531C149.023 972.153 152.519 973.026 154.267 976.522C156.015 980.017 157.763 980.017 159.511 983.513C161.259 987.008 164.755 990.503 159.511 995.746C154.267 1000.99 150.771 1007.11 148.149 1006.23C145.527 1005.36 147.275 1013.22 149.897 1015.84C152.519 1018.47 149.897 1017.59 152.519 1021.09C155.141 1024.58 159.511 1027.2 163.007 1025.46C166.503 1023.71 160.385 1028.08 168.251 1030.7C176.117 1033.32 176.117 1029.83 177.865 1028.08C179.613 1026.33 172.621 1036.82 183.109 1033.32C193.597 1029.83 193.597 1022.84 197.967 1018.47C202.337 1014.1 200.589 1010.6 204.959 1006.23C209.329 1001.86 211.077 998.368 207.581 991.377C204.085 984.386 202.337 980.891 199.715 976.522C197.093 972.153 195.345 966.91 183.109 965.162Z" fill="#878787"/>
<path d="M46.7642 612.131C46.7642 612.131 47.6382 622.617 50.2602 628.734C52.8822 634.851 51.1342 634.851 54.6302 640.094C58.1262 645.337 56.3782 640.968 59.8742 647.959C63.3702 654.95 63.3702 656.697 66.8662 660.193C70.3622 663.688 71.2362 661.94 76.4802 664.562C81.7242 667.183 91.3382 665.436 96.5822 664.562C101.826 663.688 104.448 656.697 108.818 652.328C113.188 647.959 115.81 642.716 118.432 639.22C121.054 635.725 121.316 633.104 122.89 627.861C124.463 622.617 123.676 616.501 123.676 613.005C123.676 609.51 121.054 613.879 121.054 618.248C121.054 622.617 119.306 624.365 119.306 627.861C119.306 631.356 118.432 634.851 115.81 635.725C113.188 636.599 115.81 637.473 111.44 639.22C107.07 640.968 107.944 638.347 103.574 643.59C99.2042 648.833 100.078 650.58 99.2042 652.328C98.3302 654.076 95.7082 653.202 93.9602 654.076C92.2122 654.95 93.9602 658.445 90.4642 655.823C86.9682 653.202 87.8422 653.202 86.0942 654.076C84.3462 654.95 86.9682 655.823 83.4722 654.95C79.9762 654.076 83.4722 653.202 79.9762 654.076C76.4802 654.95 75.6062 656.697 74.7322 654.95C73.8582 653.202 73.8582 653.202 71.2362 650.58C68.6142 647.959 71.2362 650.58 67.7402 647.085C64.2442 643.59 64.2442 644.463 63.3702 641.842C62.4962 639.22 61.6222 640.094 60.7482 637.473C59.8742 634.851 61.6222 635.725 57.2522 633.104C52.8822 630.482 54.6302 626.113 52.0082 623.491C49.3862 620.87 49.3862 604.267 46.7642 612.131Z" fill="#4F4F4F"/>
<path d="M79.9761 646.211C79.9761 646.211 76.4801 648.833 77.3541 649.707C78.2281 650.58 79.1021 647.959 79.9761 647.959C80.8501 647.959 80.8501 645.337 84.3462 647.959C87.8422 650.58 89.5902 652.328 89.5902 649.707C89.5902 647.085 84.3462 640.968 79.9761 646.211Z" fill="#4F4F4F"/>
<path d="M63.3702 632.23C63.3702 632.23 61.6222 634.851 65.9922 631.356C70.3622 627.861 71.1488 627.074 74.2952 626.987C77.3542 626.987 78.6652 626.113 79.8014 626.987C80.9376 627.861 82.6856 626.987 80.9376 629.608C79.1896 632.23 78.3156 633.104 75.6936 632.23C73.0716 631.356 69.5756 632.23 67.8276 633.104C66.0796 633.977 59.8742 635.725 63.3702 632.23Z" fill="#4F4F4F"/>
<path d="M89.5902 626.113C88.8036 626.375 86.0942 627.861 86.0942 628.734C86.0942 629.608 89.5902 630.482 93.9602 632.23C98.3302 633.977 97.4562 631.356 101.826 633.977C106.196 636.599 107.944 634.851 104.448 632.23C100.952 629.608 94.8342 626.113 93.5232 626.113C92.2122 626.113 92.2122 625.239 89.5902 626.113Z" fill="#4F4F4F"/>
<path d="M45.0161 605.141C45.0161 605.141 45.0161 605.141 46.7641 598.15C48.5121 591.159 50.2601 584.169 50.2601 582.421C50.2601 580.673 47.6381 574.556 50.2601 571.061C52.8821 567.566 52.8821 571.061 54.6301 572.809C56.3781 574.556 56.3781 573.683 59.0001 571.935C61.6221 570.187 57.2521 573.683 59.8741 575.43C62.4961 577.178 63.3701 577.178 65.1181 574.556C66.8661 571.935 66.8661 576.304 68.6141 573.683C70.3621 571.061 65.9921 569.313 69.4881 567.566C72.9841 565.818 70.3621 569.313 72.9841 574.556C75.6061 579.799 74.7321 581.547 74.7321 576.304C74.7321 571.061 77.3541 564.07 77.3541 566.692C77.3541 569.313 78.2281 573.683 79.1021 577.178C79.9761 580.673 82.5981 578.052 81.7241 576.304C80.8501 574.556 82.5981 572.809 83.4721 571.061C84.3461 569.313 84.3461 574.556 86.0941 577.178C87.8421 579.799 89.5901 580.673 89.5901 575.43C89.5901 570.187 87.8421 571.935 90.4641 569.313C93.0862 566.692 90.4641 571.061 93.0862 573.683C95.7082 576.304 94.8342 576.304 94.8342 572.809C94.8342 569.313 93.9602 567.566 96.5822 568.44C99.2042 569.313 96.5822 573.683 99.2042 571.061C101.826 568.44 100.078 566.692 103.574 568.44C107.07 570.187 107.944 567.566 108.818 565.818C109.692 564.07 112.314 564.07 111.44 568.44C110.566 572.809 105.322 579.799 107.944 577.178C110.566 574.556 113.188 573.683 114.062 571.061C114.936 568.44 113.188 568.44 114.936 566.692C116.684 564.944 121.054 564.944 120.18 571.935C119.306 578.926 119.306 582.421 121.054 588.538C122.802 594.655 121.054 599.024 122.802 603.393C124.55 607.762 125.424 609.51 126.298 605.141C127.172 600.772 128.046 596.402 128.92 594.655C129.794 592.907 133.465 596.402 132.067 592.033C130.668 587.664 134.164 564.07 129.794 552.71C125.424 541.351 110.566 529.117 108.818 529.117C107.07 529.117 106.196 529.117 103.574 526.495C100.952 523.874 97.4562 528.243 93.9602 525.621C90.4641 523 78.2281 521.252 70.3621 525.621C62.4961 529.991 52.0081 535.234 47.6381 542.224C43.2681 549.215 38.0241 554.458 38.8981 564.07C39.7721 573.683 42.2193 590.373 42.3067 593.781C42.3941 597.276 45.8901 612.131 45.0161 605.141Z" fill="#4F4F4F"/>
<path d="M81.1999 627.598C81.1999 627.598 83.4723 627.861 85.2203 627.861C86.9683 627.861 87.8423 626.113 89.5903 626.113C91.3383 626.113 91.3383 630.482 91.3383 630.482C91.3383 630.482 89.5903 629.608 86.0943 631.356C82.5983 633.104 80.8503 630.482 78.2283 630.482C75.6063 630.482 78.2283 626.637 78.2283 626.637C78.2283 626.637 78.9275 625.589 81.1999 627.598Z" fill="#4F4F4F"/>
</g>
<path d="M50.7247 1155.61L35.6489 1140.5L50.7247 1125.39L46.0835 1120.75L26.3335 1140.5L46.0835 1160.25L50.7247 1155.61Z" fill="#F3F3F3"/>
<defs>
<linearGradient id="paint0_linear" x1="109.5" y1="-5.29499e-09" x2="109.978" y2="589.489" gradientUnits="userSpaceOnUse">
<stop stop-color="#C4C4C4"/>
<stop offset="1" stop-color="#A1A1A1"/>
</linearGradient>
<linearGradient id="paint1_linear" x1="109.5" y1="-5.29499e-09" x2="109.978" y2="589.489" gradientUnits="userSpaceOnUse">
<stop stop-color="#C4C4C4"/>
<stop offset="1" stop-color="#A1A1A1"/>
</linearGradient>
</defs>
</svg>
