<svg width="375" height="809" viewBox="0 0 375 809" fill="none" xmlns="http://www.w3.org/2000/svg">
<mask id="mask0" mask-type="alpha" maskUnits="userSpaceOnUse" x="0" y="0" width="375" height="809">
<rect width="375" height="809" fill="#C4C4C4"/>
</mask>
<g mask="url(#mask0)">
<rect x="0.950439" y="-808.624" width="300.673" height="1617.32" fill="url(#paint0_linear)"/>
<g clip-path="url(#clip0)">
<path d="M65.94 782.272C65.94 782.272 61.88 941.755 65.36 968.316C68.84 994.877 67.68 1048 67.68 1048H176.72C176.72 1048 180.2 1021.44 187.16 1008.74C194.12 996.032 192.96 987.948 194.12 979.865C195.28 971.781 201.08 968.316 204.56 993.723C208.04 1019.13 213.84 1048 213.84 1048H300.84V746.587C300.84 746.587 249.8 732.729 218.48 733.884C187.16 735.039 177.88 733.884 157 730.42C136.12 726.955 65.94 782.272 65.94 782.272Z" fill="#3F3F3F"/>
<path d="M173.24 405.91C173.24 405.91 196.092 414.918 208.04 411.684C219.988 408.451 232.4 401.291 232.4 401.291L210.36 456.723L173.24 405.91Z" fill="#969696"/>
<path d="M152.94 353.365C152.94 353.365 152.94 366.068 155.26 379.926C157.58 393.784 160.48 401.291 182.52 410.53C204.56 419.768 220.8 410.53 228.92 404.755C237.04 398.981 247.48 365.491 250.96 357.407C250.96 357.407 242.84 344.704 239.36 336.62C235.88 328.536 227.76 322.762 226.6 311.213C225.44 299.665 152.94 353.365 152.94 353.365Z" fill="#7F7F7F"/>
<path d="M138.44 335.465C138.44 335.465 151.2 360.871 160.48 366.646C169.76 372.42 179.04 377.039 190.64 374.73C202.24 372.42 210.36 367.801 218.48 357.407C226.6 347.013 232.864 334.888 233.792 327.612C234.72 320.452 233.56 301.975 233.56 300.82C233.56 299.665 240.52 301.975 242.84 290.426C245.16 278.878 245.16 268.484 242.84 261.555C240.52 254.626 235.88 254.626 233.56 256.936C231.24 259.246 196.44 211.897 196.44 211.897L124.52 225.755L105.96 253.472L118.72 300.82C118.72 300.82 117.56 313.523 122.2 319.297C126.84 325.072 131.48 335.465 138.44 335.465Z" fill="#878787"/>
<path d="M188.32 417.459C201.08 429.007 206.88 442.865 209.2 441.71C211.52 440.555 212.68 413.994 219.64 407.065C226.6 400.136 250.96 362.026 245.16 349.323C239.36 336.62 235.88 330.615 235.88 330.615C235.88 330.615 238.2 326.226 245.16 330.846C252.12 335.465 264.88 357.407 268.36 365.491C271.84 373.575 263.72 516.775 263.72 516.775L247.48 744.278L139.6 735.039L170.92 571.052L188.32 417.459Z" fill="#727272"/>
<path d="M74.9879 686.305C74.9879 686.305 68.8399 695.775 66.5199 722.336C64.1999 748.897 71.1599 760.445 66.5199 766.22C61.8799 771.994 57.2399 784.697 82.7599 789.316C108.28 793.936 128 795.091 139.6 802.02C151.2 808.949 151.2 784.697 160.48 765.065C169.76 745.433 169.412 743.469 169.412 743.469L80.4399 678.452L74.9879 686.305Z" fill="#5B5B5B"/>
<path d="M257.34 345.859C257.34 345.859 264.88 368.955 257.92 381.659C250.96 394.362 247.48 442.865 242.84 463.652C238.2 484.439 232.4 521.394 231.24 568.742C230.08 616.091 227.76 681.916 224.28 696.929C220.8 711.942 216.16 717.716 221.96 722.336C227.76 726.955 252.12 732.729 252.12 732.729L302 655.355V368.955C302 368.955 290.4 364.336 278.8 358.562C267.2 352.788 254.556 341.239 257.34 345.859Z" fill="#5B5B5B"/>
<path d="M217.32 803.174C217.32 803.174 203.4 818.187 198.76 827.426C194.12 836.665 189.48 838.974 192.96 849.368C196.44 859.761 203.4 875.929 209.2 880.549C215 885.168 218.48 889.787 220.8 890.942C223.12 892.097 234.72 892.097 228.92 885.168C223.12 878.239 226.6 882.858 233.56 880.549C240.52 878.239 240.52 882.858 246.32 881.703C252.12 880.549 255.6 879.394 257.92 875.929C260.24 872.465 264.88 870.155 260.24 865.536C255.6 860.916 255.6 855.142 260.24 850.523C264.88 845.903 266.04 834.355 266.04 828.581C266.04 822.807 264.88 813.568 268.36 806.639C271.84 799.71 232.4 775.458 232.4 775.458C232.4 775.458 224.28 792.781 217.32 803.174Z" fill="#878787"/>
<path d="M300.84 591.839C300.84 591.839 282.28 690 275.32 692.31C268.36 694.62 262.56 706.168 252.12 722.336C241.68 738.504 226.6 774.303 221.96 785.852C217.32 797.4 217.32 800.865 225.44 806.639C233.56 812.413 257.92 818.187 262.56 818.187C267.2 818.187 269.52 812.413 276.48 791.626C283.44 770.839 300.84 746.587 300.84 746.587V591.839Z" fill="#727272"/>
<path d="M96.68 405.91C96.68 405.91 68.84 410.53 60.72 424.388C52.6 438.246 41 485.594 41 507.536C41 529.478 50.28 554.884 50.28 569.897C50.28 584.91 54.92 635.723 57.24 649.581C59.56 663.439 66.52 680.762 82.76 693.465C99 706.168 124.52 715.407 139.6 726.955C154.68 738.503 180.2 746.587 191.8 755.826C203.4 765.065 205.72 753.516 204.56 751.207C203.4 748.897 192.96 748.897 204.56 735.039C216.16 721.181 230.08 715.407 228.92 710.787C227.76 706.168 172.08 663.439 161.64 657.665C151.2 651.891 133.8 629.949 126.84 620.71C119.88 611.471 130.32 614.936 126.84 605.697C123.36 596.458 122.2 596.458 118.72 587.22C115.24 577.981 104.8 461.342 104.8 461.342L96.68 405.91Z" fill="#727272"/>
<path d="M194.12 741.968C194.12 741.968 194.12 748.897 209.2 755.826C224.28 762.755 224.28 758.136 227.76 768.529C231.24 778.923 240.52 792.781 249.8 797.4C259.08 802.02 269.52 810.103 273 812.413C276.48 814.723 282.28 812.413 284.6 807.794C286.92 803.174 284.6 802.02 283.44 799.71C282.28 797.4 291.56 806.639 295.04 793.936C295.04 793.936 300.84 791.972 300.84 790.125C300.84 788.161 300.84 784.928 300.84 784.928V721.643C300.84 721.643 296.2 718.987 288.08 721.296C279.96 723.606 262.56 722.451 254.44 722.451C246.32 722.451 234.72 713.212 228.92 710.903C223.12 708.593 192.96 735.039 194.12 741.968Z" fill="#878787"/>
<path d="M245.856 720.026C245.856 720.026 242.84 733.884 238.2 738.503C233.56 743.123 227.76 756.981 223.12 758.136C218.48 759.29 221.96 760.445 223.12 762.755C224.28 765.065 227.76 768.529 231.24 767.374C234.72 766.22 248.64 747.742 253.28 738.503C257.92 729.265 255.6 725.8 254.44 723.49C253.28 721.181 244.232 718.871 245.856 720.026Z" fill="#7F7F7F"/>
<path d="M83.92 403.6C83.92 403.6 75.8 429.007 86.24 452.104C96.68 475.2 104.8 499.452 105.96 517.929C107.12 536.407 117.56 584.91 118.72 592.994C119.88 601.078 124.52 601.078 124.52 608.007C124.52 614.936 118.72 610.316 126.84 620.71C134.96 631.104 153.52 656.51 163.96 663.439C174.4 670.368 177.88 674.987 179.04 672.678C180.2 670.368 175.56 633.413 176.72 609.162C177.88 584.91 181.36 553.729 179.04 545.646C176.72 537.562 171.268 514.118 170.456 504.418C169.76 494.833 167.44 405.91 167.44 405.91C167.44 405.91 155.028 369.071 149.692 368.955C144.24 368.84 140.76 371.15 132.64 378.079C124.52 385.008 110.6 389.627 104.8 390.782C99 391.937 101.32 394.246 94.36 396.556C87.4 398.866 87.4 400.136 83.92 403.6Z" fill="#5B5B5B"/>
<path d="M152.36 362.026C152.36 362.026 136.12 403.6 136.12 407.065C136.12 410.53 139.6 433.626 141.92 438.246C144.24 442.865 145.4 450.949 146.56 434.781C147.72 418.613 150.04 413.994 154.68 407.065C159.32 400.136 171.732 521.625 174.864 536.522C177.88 551.42 179.04 569.897 179.04 571.052C179.04 572.207 197.716 427.621 197.716 427.621C197.716 427.621 186 408.22 176.72 401.291C167.44 394.362 161.872 376.577 158.856 372.766C155.84 368.955 154.68 357.407 152.36 362.026Z" fill="#727272"/>
<path d="M129.16 211.897C129.16 211.897 107.12 233.839 105.96 251.162C104.8 268.484 112.92 292.736 116.4 299.665C119.88 306.594 121.04 315.833 123.36 316.988C125.68 318.143 120.344 304.862 118.372 293.66C116.4 282.343 107.7 256.243 110.832 249.083C114.08 241.923 121.04 230.375 129.16 230.375C137.28 230.375 143.08 228.065 145.4 233.839C147.72 239.614 148.88 246.543 150.04 234.994C151.2 223.446 151.2 225.755 159.32 222.291C167.44 218.826 160.48 218.48 173.24 216.401C186 214.323 194.12 211.897 202.24 223.446C210.36 234.994 206.88 243.078 212.68 250.007C218.48 256.936 217.32 261.555 223.12 269.639C228.92 277.723 227.76 285.807 230.08 286.962C232.4 288.117 231.24 284.652 233.56 282.343C235.88 280.033 230.08 277.723 230.08 270.794C230.08 263.865 233.56 260.401 233.56 256.936C233.56 253.472 231.24 231.53 223.12 222.291C215 213.052 209.2 207.278 198.76 201.504C188.32 195.73 181.36 198.039 173.24 198.039C165.12 198.039 162.8 194.575 150.04 200.349C137.28 206.123 138.44 204.968 129.16 211.897Z" fill="#4F4F4F"/>
</g>
<path d="M339 -876H375V809H339V-876Z" fill="#C4C4C4"/>
</g>
<defs>
<linearGradient id="paint0_linear" x1="151.287" y1="-808.624" x2="151.943" y2="0.705596" gradientUnits="userSpaceOnUse">
<stop stop-color="#C4C4C4"/>
<stop offset="1" stop-color="#A1A1A1"/>
</linearGradient>
<clipPath id="clip0">
<rect x="41" y="197" width="261" height="851" fill="white"/>
</clipPath>
</defs>
</svg>
