<svg width="375" height="809" viewBox="0 0 375 809" fill="none" xmlns="http://www.w3.org/2000/svg">
<mask id="mask0" mask-type="alpha" maskUnits="userSpaceOnUse" x="0" y="0" width="375" height="809">
<rect width="375" height="809" fill="#C4C4C4"/>
</mask>
<g mask="url(#mask0)">
<rect x="0.950439" y="-808.624" width="300.673" height="1617.32" fill="url(#paint0_linear)"/>
<g clip-path="url(#clip0)">
<path d="M20.666 874.189C20.666 874.189 18.5336 970.883 20.7782 984.313H145.357C145.357 984.313 157.702 956.334 159.947 942.904C162.191 929.474 171.17 952.976 171.17 966.406C171.17 979.836 171.17 984.313 171.17 984.313H294.626C294.626 984.313 301.36 881.351 305.849 867.921C310.339 854.492 310.339 713.479 305.849 688.858C301.36 664.237 175.659 668.713 144.234 668.713C112.809 668.713 19.6559 707.883 19.6559 707.883L20.666 874.189Z" fill="#686767"/>
<path d="M126.277 281.601C126.277 281.601 124.033 312.937 124.033 325.247C124.033 337.558 148.724 371.132 165.559 376.728C182.394 382.324 208.207 336.439 208.207 325.247C208.207 314.056 209.33 303.984 210.452 296.15C211.574 288.316 126.277 281.601 126.277 281.601Z" fill="#7F7F7F"/>
<path d="M125.604 290.218C125.604 290.218 118.309 293.911 110.452 308.46C102.596 323.009 113.819 380.086 118.309 385.681C122.798 391.277 136.266 646.442 132.899 666.587C129.532 686.732 192.382 674.421 213.706 682.255C235.031 690.089 213.706 441.639 218.196 403.588C222.685 365.537 214.829 314.056 214.829 314.056C214.829 314.056 212.472 301.074 209.105 305.886C205.85 310.699 212.584 324.128 201.361 338.677C190.138 353.226 191.26 354.345 181.159 358.822C171.058 363.298 171.058 368.894 167.691 363.298C164.324 357.703 159.835 356.584 154.223 355.464C148.611 354.345 129.532 317.414 127.287 308.46C125.043 299.507 128.41 287.644 125.604 290.218Z" fill="#707070"/>
<path d="M146.479 353.226C146.479 353.226 136.378 362.179 140.867 365.537C145.357 368.894 147.601 368.894 149.846 371.132C152.091 373.371 150.968 380.086 156.58 384.562C162.191 389.039 158.825 395.754 156.58 400.23C154.335 404.707 141.99 469.617 139.745 511.026C137.5 552.434 138.623 646.442 137.5 664.349C136.378 682.255 135.256 687.851 144.234 697.923C153.213 707.995 165.558 725.902 176.782 715.829C188.005 705.757 204.84 695.685 204.84 682.255C204.84 668.825 204.84 509.906 198.106 493.119C191.372 476.332 184.638 413.66 176.782 403.588C168.925 393.515 173.415 386.8 173.415 382.324C173.415 377.847 178.69 374.826 182.73 369.678C186.883 364.418 193.617 363.298 195.861 359.941C198.106 356.584 199.116 357.591 194.066 355.912C189.127 354.345 182.393 364.418 176.782 366.656C171.17 368.894 164.436 365.537 161.069 365.537C157.702 365.537 149.846 353.226 146.479 353.226Z" fill="#5B5B5B"/>
<path d="M124.033 291.337C124.033 291.337 113.932 297.269 103.831 305.103C93.7302 312.937 64.5496 320.771 48.8371 325.248C33.1245 329.724 -1.6677 344.273 -15.1356 372.252C-28.6036 400.23 -58.9064 619.583 -39.8268 693.446C-20.7473 767.31 -26.3589 791.931 -26.3589 791.931C-26.3589 791.931 18.5342 784.097 23.0235 782.978C27.5128 781.859 9.55558 854.603 18.5342 871.391C27.5128 888.178 94.8525 897.131 101.586 890.416C108.32 883.701 136.266 739.667 136.94 682.479C137.501 625.179 147.602 521.098 136.379 486.404C125.155 451.711 130.767 391.277 124.033 376.728C117.299 362.179 110.565 299.843 124.033 291.337Z" fill="#7F7F7F"/>
<path d="M213.707 309.244C213.707 309.244 216.064 336.439 210.452 376.728C204.841 417.017 208.208 521.098 212.697 571.46C217.186 621.821 218.309 702.4 213.819 749.404C209.33 796.408 205.963 883.701 234.021 889.297C262.079 894.893 304.728 874.748 313.706 870.271C322.685 865.795 319.318 798.646 321.563 782.978C323.807 767.31 328.297 791.931 332.786 761.714C337.275 731.497 341.765 460.664 338.398 425.971C335.031 391.277 341.765 368.894 312.584 353.226C283.404 337.558 276.67 334.201 254.223 329.724C231.776 325.247 211.35 299.843 213.707 309.244Z" fill="#7F7F7F"/>
<path d="M101.586 251.384C101.586 251.384 100.464 255.86 104.953 260.337C109.442 264.814 113.931 271.528 118.421 274.886C122.91 278.243 121.788 272.648 124.032 277.124C126.277 281.601 128.522 295.031 136.378 305.103C144.234 315.175 162.192 328.605 175.659 329.724C189.127 330.843 201.585 317.973 208.88 310.363C216.063 302.865 218.308 274.886 219.43 267.052C220.553 259.218 223.92 267.052 227.287 259.218C230.654 251.384 235.143 239.073 234.021 235.716C232.898 232.358 205.962 183.116 201.473 180.878C196.984 178.639 118.421 184.235 118.421 184.235L101.586 251.384Z" fill="#878787"/>
<path d="M26.3899 780.74C26.3899 780.74 5.96354 783.985 -3.46401 783.538C-12.8916 783.09 -25.7983 782.195 -25.7983 782.195C-25.7983 782.195 -25.2372 806.816 -24.1148 817.448C-22.9925 828.08 -19.6255 837.592 -16.2586 839.943C-12.8916 842.293 -14.0139 839.943 -7.27993 846.993C-0.545962 854.044 -2.79062 848.224 3.94335 851.694C10.6773 855.275 10.7896 858.073 16.289 862.549C21.7884 867.026 23.0229 862.326 21.9006 856.394C20.7783 850.463 14.0443 839.831 12.922 833.899C11.7996 827.968 12.922 820.917 14.0443 814.986C15.1666 809.054 12.922 827.968 15.1666 833.899C17.4113 839.831 21.9006 845.762 25.2676 840.95C28.6346 836.249 25.2676 829.087 26.3899 820.805C27.5122 812.524 26.3899 799.541 26.3899 794.841C26.3899 790.141 27.5122 780.74 26.3899 780.74Z" fill="#878787"/>
<path d="M101.586 251.384C101.586 251.384 94.8519 245.788 95.9743 233.477C97.0966 221.167 93.7296 225.643 94.8519 212.214C95.9743 198.784 103.831 189.831 104.953 180.878C106.075 171.924 113.932 157.376 120.665 152.899C127.399 148.422 137.5 146.184 144.234 142.827C150.968 139.469 157.702 134.993 164.436 138.35C171.17 141.707 163.314 136.112 171.17 141.707C179.027 147.303 177.904 141.707 182.394 140.588C186.883 139.469 182.394 131.635 192.494 139.469C202.595 147.303 217.186 147.303 218.308 155.137C219.43 162.971 219.43 168.567 225.042 175.282C230.654 181.997 240.755 185.354 239.632 192.069C238.51 198.784 240.755 212.214 239.632 217.809C238.51 223.405 242.999 227.882 238.51 229.001C234.021 230.12 230.654 229.001 228.409 235.716C226.164 242.431 223.92 249.145 226.164 248.026C228.409 246.907 226.164 250.265 223.92 252.503C221.675 254.741 225.042 243.55 223.92 241.311C222.797 239.073 222.797 234.597 220.553 227.882C218.308 221.167 221.675 217.809 219.43 217.809C217.186 217.809 216.063 221.167 217.186 221.167C218.308 221.167 219.43 226.763 212.696 223.405C205.962 220.048 207.085 215.571 204.84 214.452C202.595 213.333 202.595 218.929 200.351 217.809C198.106 216.69 194.739 216.69 198.106 211.095C201.473 205.499 204.84 206.618 203.718 201.022C202.595 195.426 200.351 189.831 194.739 188.712C189.127 187.592 189.127 189.831 184.638 187.592C180.149 185.354 183.516 185.354 175.66 187.592C167.803 189.831 171.17 193.188 161.069 192.069C150.968 190.95 148.724 192.069 146.479 192.069C144.234 192.069 147.601 198.784 150.968 202.141C154.335 205.499 159.947 207.737 156.58 213.333C153.213 218.929 150.968 222.286 147.601 223.405C144.234 224.524 149.846 222.286 150.968 217.809C152.091 213.333 153.213 212.214 146.479 212.214C139.745 212.214 138.623 209.975 136.378 207.737C134.133 205.499 137.5 213.333 131.889 217.809C126.277 222.286 121.788 224.524 119.543 231.239C117.299 237.954 120.665 239.073 120.665 248.026C120.665 256.98 122.91 259.218 120.665 261.456C118.421 263.694 119.543 263.694 116.176 261.456C112.809 259.218 107.198 250.265 106.075 251.384C104.953 252.503 101.586 251.384 101.586 251.384Z" fill="#4F4F4F"/>
</g>
<path d="M339 -876H375V809H339V-876Z" fill="#C4C4C4"/>
</g>
<defs>
<linearGradient id="paint0_linear" x1="151.287" y1="-808.624" x2="151.943" y2="0.705596" gradientUnits="userSpaceOnUse">
<stop stop-color="#C4C4C4"/>
<stop offset="1" stop-color="#A1A1A1"/>
</linearGradient>
<clipPath id="clip0">
<rect x="-46" y="136" width="385.52" height="848.424" fill="white"/>
</clipPath>
</defs>
</svg>
