<svg width="375" height="809" viewBox="0 0 375 809" fill="none" xmlns="http://www.w3.org/2000/svg">
<mask id="mask0" mask-type="alpha" maskUnits="userSpaceOnUse" x="0" y="0" width="375" height="809">
<rect width="375" height="809" fill="#C4C4C4"/>
</mask>
<g mask="url(#mask0)">
<rect x="0.950439" y="-808.624" width="300.673" height="1617.32" fill="url(#paint0_linear)"/>
<g clip-path="url(#clip0)">
<path d="M85.1102 250.572C85.1102 250.572 83.9235 270.744 83.9235 281.423C83.9235 292.102 96.9779 313.46 113.593 320.579C130.208 327.698 174.118 307.527 178.865 298.034C183.612 288.542 174.118 267.184 175.305 254.132C176.492 241.08 85.1102 250.572 85.1102 250.572Z" fill="#7F7F7F"/>
<path d="M81.5499 265.998C81.5499 265.998 79.1764 268.371 79.1764 281.423C79.1764 296.848 69.6822 302.781 66.1219 324.139C62.5616 345.496 40.013 808.251 47.1336 841.474C54.2542 874.697 199.04 824.862 237.017 841.474C274.993 858.086 248.884 824.862 244.137 779.773C239.39 734.685 172.931 378.72 181.239 334.817C189.546 290.915 187.172 274.303 178.865 271.93C170.558 269.557 182.425 295.661 158.69 307.527C134.955 319.392 105.76 310.256 94.6044 298.034C82.7367 284.982 83.9235 261.251 81.5499 265.998Z" fill="#707070"/>
<path d="M76.8029 294.119C76.8029 294.119 45.9469 306.459 22.2115 325.444C-1.52394 344.428 -2.71072 352.734 -14.5784 361.04C-26.4461 369.346 -66.7963 496.307 -69.1698 559.194C-71.5434 622.081 -63.236 665.983 -52.5551 707.512C-41.8741 749.042 -33.5667 758.534 -33.5667 768.026C-33.5667 777.519 -48.9948 785.825 -40.6874 791.757C-32.38 797.69 -26.4461 796.504 -24.0726 807.183C-21.699 817.862 -52.5551 1000.59 -52.5551 1000.59H76.8029C76.8029 1000.59 66.122 980.419 83.9235 927.024C101.725 873.629 113.593 832.1 111.219 781.078C108.846 730.057 111.219 632.76 111.219 598.35C111.219 563.94 95.7912 474.949 98.1648 439.352C100.538 403.756 101.725 356.294 102.912 339.682C104.099 323.071 83.9235 290.084 76.8029 294.119Z" fill="#4C4C4C"/>
<path d="M186.104 284.745C186.104 284.745 195.599 283.914 219.334 301.713C243.069 319.511 241.883 323.071 272.739 343.242C303.595 363.413 321.396 369.346 330.89 419.181C340.384 469.016 370.054 563.94 358.186 590.044C346.318 616.148 336.824 680.222 330.89 711.072C324.956 741.923 302.408 745.482 309.528 752.602C316.649 759.721 322.583 847.525 323.77 865.324C324.956 883.122 351.065 960.248 351.065 968.553C351.065 976.859 334.451 988.725 314.275 988.725C294.1 988.725 246.63 1000.59 246.63 1000.59H222.894C222.894 1000.59 197.972 981.606 186.104 981.606C174.237 981.606 164.743 792.944 175.423 724.124C186.104 655.304 199.159 625.641 193.225 575.806C187.291 525.971 152.875 390.704 157.622 374.092C162.369 357.481 167.828 309.425 173.406 303.848C178.865 298.034 178.984 297.441 186.104 284.745Z" fill="#4C4C4C"/>
<path d="M63.7484 201.924C63.7484 201.924 62.5617 219.722 67.3087 229.215C72.0558 238.707 74.4294 242.267 77.9897 241.08C81.55 239.894 88.6706 264.811 94.6045 271.93C100.538 279.05 111.219 293.288 120.713 295.661C130.208 298.034 151.569 292.102 158.69 281.423C165.811 270.744 175.305 258.878 178.865 250.572C182.425 242.267 181.239 243.453 187.172 235.147C193.106 226.841 196.667 216.163 195.48 209.043C194.293 201.924 193.106 198.364 189.546 201.924C185.986 205.484 183.612 166.327 176.492 153.275C169.371 140.223 87.4838 144.97 85.1103 146.156C82.7368 147.343 73.2426 194.805 73.2426 204.297C73.2426 213.789 68.4955 190.058 63.7484 201.924Z" fill="#878787"/>
<path d="M38.8263 719.259C38.8263 719.259 32.8924 729.938 26.9586 734.684C21.0247 739.431 13.9041 752.483 4.40993 761.975C-5.08423 771.467 -7.45777 784.52 -2.71069 792.825C2.03639 801.131 11.5306 807.064 13.9041 808.251C16.2776 809.437 23.3983 805.877 25.7718 803.504C28.1453 801.131 34.0792 807.064 38.8263 804.691C43.5734 802.318 39.657 799.945 45.8282 798.758C51.8807 797.572 56.6278 795.199 56.6278 789.266C56.6278 783.333 66.122 779.773 62.5617 771.467C59.0014 763.162 55.4411 757.229 53.0675 757.229C50.694 757.229 48.3204 756.042 49.5072 759.602C50.694 763.162 38.8263 758.415 40.013 751.296C41.1998 744.177 41.1998 740.617 45.9469 737.057C50.694 733.498 61.3749 731.125 55.4411 725.192C49.5072 719.259 42.3866 714.513 38.8263 719.259Z" fill="#878787"/>
<path d="M261.939 707.394C258.379 706.919 250.071 708.58 241.764 710.953C233.457 713.327 237.017 709.767 226.336 713.327C215.655 716.886 220.402 718.073 222.776 722.819C225.149 727.565 227.523 727.565 229.896 732.311C232.27 737.058 237.017 741.804 229.896 748.923C222.776 756.042 218.029 764.348 214.468 763.162C210.908 761.975 213.281 772.654 216.842 776.214C220.402 779.773 216.842 778.587 220.402 783.333C223.962 788.079 229.896 791.639 234.643 789.266C239.39 786.893 231.083 792.825 241.764 796.385C252.445 799.945 252.445 795.199 254.818 792.825C257.192 790.452 247.698 804.691 261.939 799.945C276.18 795.199 276.18 785.706 282.114 779.773C288.048 773.841 285.674 769.094 291.608 763.162C297.542 757.229 299.916 752.483 295.169 742.99C290.421 733.498 288.048 728.752 284.488 722.819C280.927 716.886 278.554 709.767 261.939 707.394Z" fill="#878787"/>
<path d="M76.8027 228.028C76.8027 228.028 77.9895 242.267 81.5498 250.572C85.1101 258.878 82.7366 258.878 87.4837 265.998C92.2307 273.117 89.8572 267.184 94.6043 276.676C99.3514 286.169 99.3514 288.542 104.098 293.288C108.846 298.034 110.032 295.661 117.153 299.221C124.274 302.781 137.328 300.407 144.449 299.221C151.569 298.034 155.13 288.542 161.063 282.609C166.997 276.676 170.558 269.557 174.118 264.811C177.678 260.065 178.034 256.505 180.17 249.386C182.307 242.267 181.238 233.961 181.238 229.215C181.238 224.468 177.678 230.401 177.678 236.334C177.678 242.267 175.305 244.64 175.305 249.386C175.305 254.132 174.118 258.878 170.558 260.065C166.997 261.251 170.558 262.438 164.624 264.811C158.69 267.184 159.877 263.624 153.943 270.744C148.009 277.863 149.196 280.236 148.009 282.609C146.822 284.982 143.262 283.796 140.888 284.982C138.515 286.169 140.888 290.915 136.141 287.355C131.394 283.796 132.581 283.796 130.207 284.982C127.834 286.169 131.394 287.355 126.647 286.169C121.9 284.982 126.647 283.796 121.9 284.982C117.153 286.169 115.966 288.542 114.779 286.169C113.593 283.796 113.593 283.796 110.032 280.236C106.472 276.676 110.032 280.236 105.285 275.49C100.538 270.744 100.538 271.93 99.3514 268.371C98.1646 264.811 96.9778 265.998 95.7911 262.438C94.6043 258.878 96.9778 260.065 91.044 256.505C85.1101 252.946 87.4837 247.013 83.9234 243.453C80.363 239.893 80.363 217.349 76.8027 228.028Z" fill="#4F4F4F"/>
<path d="M121.9 274.303C121.9 274.303 117.153 277.863 118.34 279.05C119.526 280.236 120.713 276.677 121.9 276.677C123.087 276.677 123.087 273.117 127.834 276.677C132.581 280.236 134.954 282.609 134.954 279.05C134.954 275.49 127.834 267.184 121.9 274.303Z" fill="#4F4F4F"/>
<path d="M99.3514 255.319C99.3514 255.319 96.9779 258.878 102.912 254.132C108.846 249.386 109.914 248.318 114.186 248.199C118.34 248.199 120.12 247.013 121.663 248.199C123.205 249.386 125.579 248.199 123.205 251.759C120.832 255.319 119.645 256.505 116.085 255.319C112.525 254.132 107.777 255.319 105.404 256.505C103.03 257.692 94.6043 260.065 99.3514 255.319Z" fill="#4F4F4F"/>
<path d="M134.954 247.013C133.886 247.369 130.207 249.386 130.207 250.572C130.207 251.759 134.954 252.946 140.888 255.319C146.822 257.692 145.635 254.132 151.569 257.692C157.503 261.251 159.877 258.878 155.13 255.319C150.383 251.759 142.075 247.013 140.295 247.013C138.515 247.013 138.515 245.826 134.954 247.013Z" fill="#4F4F4F"/>
<path d="M74.4292 218.536C74.4292 218.536 74.4292 218.536 76.8027 209.043C79.1763 199.551 81.5498 190.058 81.5498 187.685C81.5498 185.312 77.9895 177.006 81.5498 172.26C85.1101 167.514 85.1101 172.26 87.4837 174.633C89.8572 177.006 89.8572 175.82 93.4175 173.447C96.9779 171.074 91.044 175.82 94.6043 178.193C98.1646 180.566 99.3514 180.566 101.725 177.006C104.098 173.447 104.098 179.379 106.472 175.82C108.846 172.26 102.912 169.887 107.659 167.514C112.406 165.141 108.846 169.887 112.406 177.006C115.966 184.126 114.779 186.499 114.779 179.379C114.779 172.26 118.34 162.768 118.34 166.327C118.34 169.887 119.526 175.82 120.713 180.566C121.9 185.312 125.46 181.753 124.274 179.379C123.087 177.006 125.46 174.633 126.647 172.26C127.834 169.887 127.834 177.006 130.207 180.566C132.581 184.126 134.955 185.312 134.955 178.193C134.955 171.074 132.581 173.447 136.141 169.887C139.702 166.327 136.141 172.26 139.702 175.82C143.262 179.379 142.075 179.379 142.075 174.633C142.075 169.887 140.888 167.514 144.449 168.701C148.009 169.887 144.449 175.82 148.009 172.26C151.569 168.701 149.196 166.327 153.943 168.701C158.69 171.074 159.877 167.514 161.063 165.141C162.25 162.768 165.811 162.768 164.624 168.701C163.437 174.633 156.316 184.126 159.877 180.566C163.437 177.006 166.997 175.82 168.184 172.26C169.371 168.701 166.997 168.701 169.371 166.327C171.744 163.954 177.678 163.954 176.491 173.447C175.305 182.939 175.305 187.685 177.678 195.991C180.052 204.297 177.678 210.23 180.052 216.162C182.425 222.095 183.612 224.468 184.799 218.536C185.986 212.603 187.172 206.67 188.359 204.297C189.546 201.924 194.53 206.67 192.632 200.737C190.733 194.805 195.48 162.768 189.546 147.343C183.612 131.918 163.437 115.306 161.063 115.306C158.69 115.306 157.503 115.306 153.943 111.746C150.383 108.187 145.635 114.119 140.888 110.56C136.141 107 119.526 104.627 108.846 110.56C98.1646 116.492 83.9234 123.612 77.9895 133.104C72.0557 142.596 64.935 149.716 66.1218 162.768C67.3086 175.82 70.6315 198.483 70.7502 203.11C70.8689 207.857 75.616 228.028 74.4292 218.536Z" fill="#4F4F4F"/>
<path d="M123.562 249.03C123.562 249.03 126.647 249.386 129.021 249.386C131.394 249.386 132.581 247.013 134.955 247.013C137.328 247.013 137.328 252.946 137.328 252.946C137.328 252.946 134.955 251.759 130.207 254.132C125.46 256.505 123.087 252.946 119.527 252.946C115.966 252.946 119.527 247.725 119.527 247.725C119.527 247.725 120.476 246.301 123.562 249.03Z" fill="#4F4F4F"/>
</g>
<path d="M339 -876H375V809H339V-876Z" fill="#C4C4C4"/>
</g>
<defs>
<linearGradient id="paint0_linear" x1="151.287" y1="-808.624" x2="151.943" y2="0.705596" gradientUnits="userSpaceOnUse">
<stop stop-color="#C4C4C4"/>
<stop offset="1" stop-color="#A1A1A1"/>
</linearGradient>
<clipPath id="clip0">
<rect x="-69.5259" y="107" width="430.441" height="893.472" fill="white"/>
</clipPath>
</defs>
</svg>
