<?xml version="1.0" encoding="utf-8"?>
<!-- Generator: Adobe Illustrator 22.0.1, SVG Export Plug-In . SVG Version: 6.00 Build 0)  -->
<svg version="1.1" id="Layer_1" xmlns="http://www.w3.org/2000/svg" xmlns:xlink="http://www.w3.org/1999/xlink" x="0px" y="0px"
	 viewBox="0 0 219 1178" style="enable-background:new 0 0 219 1178;" xml:space="preserve">
<style type="text/css">
	.st0{fill:url(#SVGID_1_);}
	.st1{fill:url(#SVGID_2_);}
	.st2{fill:#696868;}
	.st3{fill:#7F8080;}
	.st4{fill:#717171;}
	.st5{fill:#5C5C5C;}
	.st6{fill:#878787;}
	.st7{fill:#505050;}
	.st8{fill:#F3F3F3;}
	.st9{fill:url(#SVGID_3_);}
	.st10{fill:url(#SVGID_4_);}
	.st11{fill:url(#SVGID_5_);filter:url(#Adobe_OpacityMaskFilter);}
	.st12{mask:url(#mask0_1_);}
	.st13{fill:#404040;}
</style>
<linearGradient id="SVGID_1_" gradientUnits="userSpaceOnUse" x1="305.5223" y1="2549.0884" x2="306.0003" y2="1959.5994" gradientTransform="matrix(1 0 0 -1 -196.5 2549)">
	<stop  offset="0" style="stop-color:#C4C4C4"/>
	<stop  offset="1" style="stop-color:#A1A0A0"/>
</linearGradient>
<rect class="st0" width="219" height="1178"/>
<linearGradient id="SVGID_2_" gradientUnits="userSpaceOnUse" x1="304.0223" y1="2549.0872" x2="304.5003" y2="1959.5994" gradientTransform="matrix(1 0 0 -1 -196.5 2549)">
	<stop  offset="0" style="stop-color:#C4C4C4"/>
	<stop  offset="1" style="stop-color:#A1A0A0"/>
</linearGradient>
<rect class="st1" width="216" height="1178"/>
<g>
	<path class="st2" d="M220.2,1178V950.8c-28.4-6.7-84.5-4.9-101.8-4.9c-23,0-91.3,28.8-91.3,28.8l0.8,122.2c0,0-1.6,71.1,0.1,81
		h91.3c0,0,9.1-20.6,10.7-30.4c1.6-9.9,8.2,7.4,8.2,17.3s0,13.2,0,13.2H220.2z"/>
	<path class="st3" d="M105.2,661.3c0,0-1.6,23-1.6,32.1c0,9.1,18.1,33.7,30.4,37.8c12.3,4.1,31.3-29.6,31.3-37.8
		c0-8.2,0.8-15.6,1.6-21.4C167.8,666.3,105.2,661.3,105.2,661.3z"/>
	<path class="st4" d="M104.8,667.7c0,0-5.3,2.7-11.1,13.4s2.5,52.7,5.8,56.8s13.2,191.7,10.7,206.5s43.6,5.8,59.2,11.5
		s0-176.9,3.3-204.9c3.3-28-2.5-65.8-2.5-65.8s-1.8-9.6-4.2-6c-2.4,3.5,2.5,13.4-5.7,24.1c-8.2,10.7-7.4,11.5-14.8,14.8
		c-7.4,3.3-7.4,7.4-9.9,3.3c-2.5-4.1-5.8-4.9-9.9-5.8c-4.1-0.8-18.1-28-19.7-34.6C104.4,674.5,106.9,665.8,104.8,667.7z"/>
	<path class="st5" d="M120.1,714c0,0-7.4,6.6-4.1,9.1s4.9,2.5,6.6,4.1c1.6,1.6,0.8,6.6,4.9,9.9s1.6,8.2,0,11.5s-10.7,51-12.3,81.5
		c-1.6,30.4-0.8,99.6-1.6,112.7c-0.8,13.2-1.6,17.3,4.9,24.7c6.6,7.4,15.6,20.6,23.9,13.2c8.2-7.4,20.6-14.8,20.6-24.7
		c0-9.9,0-126.7-4.9-139c-4.9-12.3-9.9-58.4-15.6-65.8c-5.8-7.4-2.5-12.3-2.5-15.6s3.8-5.5,6.9-9.3s7.9-4.7,9.6-7.1
		c1.6-2.5,2.4-1.8-1.3-2.9c-3.7-1.2-8.6,6.2-12.7,7.9c-4.1,1.6-9.1-0.8-11.5-0.8C128.3,723,122.5,714,120.1,714z"/>
	<g>
		<path class="st3" d="M112.6,811.9c-8.2-25.5-4.1-69.9-9.1-80.6s-9.9-56.5,0-62.8c0,0-7.4,4.4-14.8,10.1S60,690.1,48.5,693.4
			s-37,14-46.9,34.6c-0.6,1.2-1.2,2.8-1.8,4.8v302.6c9.8-1.7,27.4-4.9,29.8-5.4c3.3-0.8-9.9,52.7-3.3,65s55.9,18.9,60.9,14
			c4.9-4.9,25.4-110.8,25.9-152.9C113.5,913.9,120.9,837.4,112.6,811.9z"/>
		<path class="st3" d="M220.2,703c-6.7-2.9-12.2-4.5-21.2-6.3c-16.5-3.3-31.4-21.9-29.7-15.1c0,0,1.7,20-2.4,49.6
			c-4.1,29.6-1.6,106.1,1.6,143.2s4.1,96.3,0.8,130.8s-5.8,98.7,14.8,102.8c10.8,2.2,24.4-0.9,36-4.7V703z"/>
	</g>
	<g>
		<path class="st6" d="M87.1,639.1c0,0-0.8,3.3,2.5,6.6s6.6,8.2,9.9,10.7c3.3,2.5,2.5-1.6,4.1,1.6c1.6,3.3,3.3,13.2,9.1,20.6
			c5.8,7.4,18.9,17.3,28.8,18.1c9.9,0.8,19-8.7,24.3-14.2c5.3-5.5,6.9-26.1,7.8-31.9c0.8-5.8,3.3,0,5.8-5.8
			c2.5-5.8,5.8-14.8,4.9-17.3c-0.8-2.5-20.6-38.7-23.9-40.3c-3.3-1.6-60.9,2.5-60.9,2.5L87.1,639.1z"/>
		<path class="st6" d="M32,1038.7c0-3.5,0.8-10.4,0-10.4c0,0-14.9,2.4-21.9,2.1c-3.3-0.2-7.2-0.4-10.4-0.6v41c0.3,0.4,0.6,0.7,1,0.9
			c2.5,1.7,1.6,0,6.6,5.2c4.9,5.2,3.3,0.9,8.2,3.5c4.9,2.6,5,4.7,9.1,8s4.9-0.2,4.1-4.5s-5.8-12.2-6.6-16.5c-0.8-4.3,0-9.6,0.8-13.9
			c0.8-4.3-0.8,9.6,0.8,13.9c1.6,4.3,4.9,8.7,7.4,5.2c2.5-3.5,0-8.7,0.8-14.8S32,1042.2,32,1038.7z"/>
	</g>
	<path class="st7" d="M87.1,639.1c0,0-4.9-4.1-4.1-13.2c0.8-9.1-1.6-5.8-0.8-15.6c0.8-9.9,6.6-16.5,7.4-23
		c0.8-6.6,6.6-17.3,11.5-20.6c4.9-3.3,12.3-4.9,17.3-7.4s9.9-5.8,14.8-3.3c4.9,2.5-0.8-1.6,4.9,2.5c5.8,4.1,4.9,0,8.2-0.8
		c3.3-0.8,0-6.6,7.4-0.8s18.1,5.8,18.9,11.5c0.8,5.8,0.8,9.9,4.9,14.8c4.1,4.9,11.5,7.4,10.7,12.3c-0.8,4.9,0.8,14.8,0,18.9
		s2.5,7.4-0.8,8.2s-5.8,0-7.4,4.9c-1.6,4.9-3.3,9.9-1.6,9.1c1.6-0.8,0,1.6-1.6,3.3c-1.6,1.6,0.8-6.6,0-8.2s-0.8-4.9-2.5-9.9
		c-1.6-4.9,0.8-7.4-0.8-7.4c-1.6,0-2.5,2.5-1.6,2.5s1.6,4.1-3.3,1.6c-4.9-2.5-4.1-5.8-5.8-6.6c-1.6-0.8-1.6,3.3-3.3,2.5
		s-4.1-0.8-1.6-4.9c2.5-4.1,4.9-3.3,4.1-7.4c-0.8-4.1-2.5-8.2-6.6-9.1c-4.1-0.8-4.1,0.8-7.4-0.8c-3.3-1.6-0.8-1.6-6.6,0
		c-5.8,1.6-3.3,4.1-10.7,3.3c-7.4-0.8-9.1,0-10.7,0c-1.6,0,0.8,4.9,3.3,7.4c2.5,2.5,6.6,4.1,4.1,8.2c-2.5,4.1-4.1,6.6-6.6,7.4
		c-2.5,0.8,1.6-0.8,2.5-4.1c0.8-3.3,1.6-4.1-3.3-4.1c-4.9,0-5.8-1.6-7.4-3.3c-1.6-1.6,0.8,4.1-3.3,7.4c-4.1,3.3-7.4,4.9-9.1,9.9
		c-1.6,4.9,0.8,5.8,0.8,12.3c0,6.6,1.6,8.2,0,9.9c-1.6,1.6-0.8,1.6-3.3,0c-2.5-1.6-6.6-8.2-7.4-7.4
		C89.6,639.9,87.1,639.1,87.1,639.1z"/>
</g>
<path class="st8" d="M46.7,1151.6l-15.1-15.1l15.1-15.1l-4.6-4.6l-19.8,19.8l19.8,19.8L46.7,1151.6z"/>
<g>
	
		<linearGradient id="SVGID_3_" gradientUnits="userSpaceOnUse" x1="-470.9543" y1="2549.0884" x2="-470.4763" y2="1959.5994" gradientTransform="matrix(1 0 0 -1 -196.5 2549)">
		<stop  offset="0" style="stop-color:#C4C4C4"/>
		<stop  offset="1" style="stop-color:#A1A0A0"/>
	</linearGradient>
	<rect x="-776.5" class="st9" width="219" height="1178"/>
	
		<linearGradient id="SVGID_4_" gradientUnits="userSpaceOnUse" x1="-473.9543" y1="2549.0884" x2="-473.4763" y2="1959.5994" gradientTransform="matrix(1 0 0 -1 -196.5 2549)">
		<stop  offset="0" style="stop-color:#C4C4C4"/>
		<stop  offset="1" style="stop-color:#A1A0A0"/>
	</linearGradient>
	<rect x="-779.5" class="st10" width="219" height="1178"/>
	<defs>
		<filter id="Adobe_OpacityMaskFilter" filterUnits="userSpaceOnUse" x="-803.5" y="537" width="246" height="641">
			<feColorMatrix  type="matrix" values="1 0 0 0 0  0 1 0 0 0  0 0 1 0 0  0 0 0 1 0"/>
		</filter>
	</defs>
	<mask maskUnits="userSpaceOnUse" x="-803.5" y="537" width="246" height="641" id="mask0_1_">
		
			<linearGradient id="SVGID_5_" gradientUnits="userSpaceOnUse" x1="-470.9543" y1="2549.0884" x2="-470.4763" y2="1959.5994" gradientTransform="matrix(1 0 0 -1 -196.5 2549)">
			<stop  offset="0" style="stop-color:#C4C4C4"/>
			<stop  offset="1" style="stop-color:#A1A0A0"/>
		</linearGradient>
		<rect x="-776.5" class="st11" width="219" height="1178"/>
	</mask>
	<g class="st12">
		<path class="st13" d="M-786.8,1020.3c0,0-2.8,64.9,0,92.8c2.8,27.8,8.3,64.9,8.3,64.9h88c0,0,8.3-22.3,3.7-30.6
			c-4.6-8.3-7.4-17.6-5.6-21.3c1.9-3.7,8.3-26,12-1.9c3.7,24.1,10.2,50.1,11.1,53.8h87.1c0,0-5.6-54.8-4.6-68.7
			c0.9-13.9-0.9-68.7-2.8-82.6c-1.9-13.9-7.4-25-7.4-25s-75.9-2.8-83.4,1.8c-7.4,4.6-38.1,5.8-50.1,2.4
			C-742.4,1002.6-786.8,1020.3-786.8,1020.3z"/>
		<path class="st3" d="M-739,639.3c0,0,5,28.3,2.2,37.6c-2.8,9.3-6.5,56.6,0.9,70.5c7.4,13.9,21.3,38,30.6,30.6
			c9.3-7.4,24.1-26.9,30.6-42.7c6.5-15.8,9.3-55.7,8.3-65.9c-0.9-10.2,0.7-12.2,5.5-19.1C-656.2,643.5-739,639.3-739,639.3z"/>
		<path class="st4" d="M-746.1,708.5c0,0-3.7-16.7,0-23.2c3.7-6.5,10.2-18.6,11.1-9.3c0.6,5.8,2.8,11.1,5.6,18.6
			c2.8,7.4,6.5,17.6,0.9,23.2c-5.6,5.6-9.3,22.3-0.9,31.5c8.3,9.3,17.6,16.7,19.5,21.3c1.9,4.6,4.6-4.6,11.1-10.2
			c6.5-5.6,6.5-3.7,9.3-13.9c2.8-10.2,8.3-12.1,11.1-20.4c2.8-8.4,3.7-15.8,6.5-23.2c2.8-7.4-5.6-15.8-1.9-20.4
			c3.7-4.6,7.2-9.6,7.3-14.1c0.1-4.5,3.8-3.5,5.6,2c1.9,5.6,3.7,19.5,1.9,24.1c-1.9,4.6,10.2,307.1,10.2,307.1s-38,8.3-64.8,8.3
			c-26.9,0-53.7-9.3-53.7-9.3l15.7-290.4L-746.1,708.5z"/>
		<path class="st3" d="M-602.5,1011c0,0-2.8,3.7-6.5,10.2c-3.7,6.5-8.3,12.1-10.2,19.5c-1.9,7.4,0,10.2-3.7,15.8
			c-3.7,5.6-14.8,15.8-1.9,13.9c13-1.8,13.9-19.5,15.7-22.3c1.9-2.8,1.9,2.8,0.9,8.3c-0.9,5.6-2.8,17.6-3.7,26
			c-0.9,8.3-1.9,12.1,1.9,13.9c3.7,1.9,5.6-6.5,7.4-11.1c1.9-4.6-3.7,9.3-2.8,11.1c0.9,1.9,5.6-0.9,9.3-6.5c0,0-0.9,5.6,3.7,1.8
			c4.6-3.7,7.4-5.6,11.1-10.2s1.9-7.4,4.6-10.2c2.8-2.8,5.6-3.7,6.5-8.4c0.9-4.6,4.6-13.9,2.8-22.3c-1.9-8.4,0-14.9-0.9-21.3
			C-569.1,1012.8-596,1007.3-602.5,1011z"/>
		<path class="st6" d="M-739.6,635.2c0,0,0.9,10.2,3.7,14.8c2.8,4.6,12,8.4,18.5,11.1c6.5,2.8,27.8,5.6,40.8,1.9
			c13-3.7,14.8-10.2,17.6-17.6c2.8-7.4,5.6-5.6,6.5-8.4c0.9-2.8,0-9.3,1.9-11.1c1.9-1.9,2.8-13,0-10.2c-2.8,2.8-3.7,5.6-5.6,8.4
			c-1.9,2.8,2.8-10.2,0.9-18.6c-1.9-8.4-0.9-25.1-2.8-28.8c-1.9-3.7-8.3-18.6-23.2-21.3c-14.8-2.8-25-6.5-38,0
			c-13,6.5-16.7,13.9-17.6,22.3c-0.9,8.4-15.7,26.9-17.6,30.6c-1.9,3.7,0.9,7.4,2.8,15.8C-749.8,632.4-742.3,640.7-739.6,635.2z"/>
		<path class="st7" d="M-641.4,588.8c0,0,5.6,4.6,2.8,6.5c-2.8,1.9-3.7,5.6-3.7,7.4c0,1.9-2.8,0-1.9,3.7c0.9,3.7,3.7,5.6,0,7.4
			s-0.9,7.4-2.8,9.3c-1.9,1.9-0.9,1.9-1.9,3.7c-0.9,1.9-3,0.7-2.9,1.8c0.1,1-0.2,2-0.2,2s2.9-7.5,3-10.3c0.1-2.8,1.9-7.4-2.7-1.9
			c-4.6,5.6-6.5,6.5-5.6,7.4c0.9,0.9,1.9-12.1,0.9-17.6c-0.9-5.6,0-22.3-2.8-26.9c-2.8-4.6-4.6-20.4-16.7-22.3
			c-12-1.9-13.9-8.4-27.8-4.6c-13.9,3.7-15.7,4.6-20.4,9.3c-4.6,4.6-2.8,3.7-7.4,10.2c-4.6,6.5,2.8,6.5-3.7,17.6
			c-6.5,11.1,0.9,26-2.8,32.5c-3.7,6.5-0.9-7.4-3.7-11.1c-2.8-3.7-0.9-7.4-6.5-6.5c-5.6,0.9-6.5,1.9-4.6,7.4
			c1.9,5.6,2.1,9.6,1.9,13.5c-0.2,4-3.8-8-5.6-9.8c-1.9-1.9,0-2.8,0-11.1c0-8.4,2.8-8.4,0.9-13c-1.9-4.6-3.7,0-1.9-5.6
			c1.9-5.6,0-3.7,1.9-8.4c1.9-4.6,5.6,0,7.4-5.6c1.9-5.6-1.9-7.4,1.9-10.2c3.7-2.8,3.7-2.8,6.5-3.7c2.8-0.9,0,0,2.8-4.6
			c2.8-4.6,3.7-3.7,8.3-5.6c4.6-1.9,1.9-4.6,9.3-2.8c7.4,1.9,1.9-1.9,7.4-5.6c5.6-3.7,10.2-5.6,15.7-3.7c5.6,1.9,4.6,3.7,10.2,4.6
			c5.6,0.9,1.9-4.6,7.4-0.9c5.6,3.7,2.8,1.9,7.4,5.6c4.6,3.7,4.6,0.9,5.6,6.5c0.9,5.6,3.7,0.9,6.5,6.5c2.8,5.6,1.9,1.9,4.6,6.5
			c2.8,4.6-1.9,3.7,3.7,5.6c5.6,1.9,3.7,0,8.3,4.6c4.6,4.6,2.8,2.8,1.9,7.4C-641.4,588.8-643.2,586.9-641.4,588.8z"/>
		<path class="st7" d="M-672.9,655.6c-1.9-3.7-0.9-9.3-1.9-12.1c-0.9-2.8,1.9-7.4-0.9-8.4c-2.8-0.9-7.4-2.8-9.3-4.6
			c-1.9-1.9-0.9,0-3.7,0c-2.8,0-0.9,0.9-3.7,0.9s-2.8-4.6-6.5-4.6c-3.7,0,0.9,0.9-2.8,1.9c-3.7,0.9,0,0.9-5.6,1.9
			c-5.6,0.9-6.5,0-7.4,1.9c-0.9,1.9-0.9,3.7-0.9,6.5c0,2.8-4.6,5.6-2.8,6.5c0,0-3.7,3.7-2.8,6.5s0,3.7,2.8,9.3
			c2.8,5.6,3.7,4.6,9.3,8.4c5.6,3.7,2.8,1.9,7.4,2.8c4.6,0.9,1.9,0,8.3,0s5.6-1.9,10.2-3.7c4.6-1.9,2.8-2.8,6.5-5.6
			S-671,659.3-672.9,655.6z M-677.5,650c-2.8,2.8-2.8,1.9-8.3,3.7c-5.6,1.9-0.9,2.8-4.6,6.5c-3.7,3.7,0-0.9-3.7-0.9
			c-3.7,0-3.7,1.9-6.5,0c-2.8-1.9-0.9-7.4-4.6-6.5c-3.7,0.9-4.6-0.9-7.4-2.8c-2.8-1.9,0-3.7,0-3.7c-2.8-2.8-0.9-5.6,1.9-8.4
			c2.8-2.8,5.6-3.7,9.3-3.7c3.7,0,1.9,0.9,4.6,0.9c2.8,0,2.8-2.8,4.6,0s0-0.9,2.8,0c2.8,0.9,1.9,1.9,6.5,3.7
			c4.6,1.9,1.9,1.9,5.6,5.6C-673.8,648.2-674.7,647.2-677.5,650z"/>
		<path class="st7" d="M-701.6,644.5c0,0,1.9,4.6,3.7,5.6c1.9,0.9,0,0,3.7,0c3.7,0,3.7,0.9,6.5-1.9c2.8-2.8-0.9-1.9-4.6-3.7
			C-696,642.6-698.8,643.5-701.6,644.5z"/>
		<path class="st5" d="M-747.9,892.2c-3.7-10.2-6.5-30.6,0-46.4c6.5-15.8,10.2-65.9,4.6-78.9c-5.6-13-8.3-42.7-6.5-50.1
			c1.9-7.4,5.6-8.4,4.6-15.8c-0.9-7.4,0.7-18.7,9.3-28.8c0,0-14.8,8.4-17.6,16.7c-2.8,8.4-11.1,10.2-24.1,15.8
			c-13,5.6-25.9,11.1-25.9,11.1v316.4c0,0,1.9,6.5,6.5,7.4c4.6,0.9,43.5-1.8,51.9,0c8.3,1.9,13,0.9,15.7,4.6
			c2.8,3.7,2.8-0.9,2.8-11.1c0-10.2-6.5-36.2-6.5-52.9C-733.1,963.7-744.2,902.4-747.9,892.2z"/>
		<path class="st5" d="M-569.6,770.7c-1.9-11.5-6.5-23.8-10.7-31.6c-6.5-12.1-23.2-26-38.9-36.2c-15.7-10.2-29.6-6.5-31.5-13.9
			c-1.9-7.4-11.2-20.9-11.2-20.9c-3.8-2.3,1,3.2,1,10.7c0,7.4,1.9,22.3-0.9,31.5c-2.8,9.3-14.8,37.1-15.7,51
			c-0.9,13.9,5.6,69.6,0,88.2c-5.6,18.6-12,45.5-8.3,62.2c3.7,16.7,0.9,71.4,2.8,85.4c1.9,13.9-2.8,24.1,4.6,28.8
			c7.4,4.6,50-7.4,58.4-5.6c8.3,1.8,13-6.5,16.7-7.4s14.8,0,27.8,4.6c13,4.6,8.3,3.7,10.2-2.8c1.9-6.5-0.9-16.7,3.7-19.5
			c2.8-1.7,2.9-4.9,3-10.2c0,0,0.1-1.1,0.2-7.3c0.1-2,0.3-4.2,0.6-6.6c0.5-3.2,0.3-7.1-0.3-11.4c0.2-12,0.5-29.4,0.7-54.9
			C-556.6,831.4-569.6,770.7-569.6,770.7z"/>
	</g>
	<path class="st8" d="M-729.8,1151.6l-15.1-15.1l15.1-15.1l-4.6-4.6l-19.8,19.8l19.8,19.8L-729.8,1151.6z"/>
</g>
</svg>
