<svg width="375" height="809" viewBox="0 0 375 809" fill="none" xmlns="http://www.w3.org/2000/svg">
<mask id="mask0" mask-type="alpha" maskUnits="userSpaceOnUse" x="0" y="0" width="375" height="809">
<rect width="375" height="809" fill="#C4C4C4"/>
</mask>
<g mask="url(#mask0)">
<rect x="0.950439" y="-808.624" width="300.673" height="1617.32" fill="url(#paint0_linear)"/>
<path d="M21.89 741.791C21.89 741.791 18.2417 827.112 21.89 863.679C25.5384 900.245 32.8351 949 32.8351 949H148.366C148.366 949 159.311 919.747 153.23 908.777C147.15 897.807 143.501 885.618 145.934 880.743C148.366 875.867 156.879 846.614 161.743 878.305C166.608 909.996 175.12 944.124 176.337 949H290.651C290.651 949 283.355 877.086 284.571 858.803C285.787 840.52 283.355 768.606 280.922 750.323C278.49 732.04 271.194 717.413 271.194 717.413C271.194 717.413 171.472 713.757 161.743 719.851C152.014 725.946 111.761 727.408 95.9514 723.02C80.1419 718.632 21.89 741.791 21.89 741.791Z" fill="#3F3F3F"/>
<path d="M84.6415 241.442C84.6415 241.442 91.2085 278.618 87.5602 290.807C83.9119 302.995 79.0474 365.158 88.7763 383.441C98.5052 401.724 116.747 433.415 128.908 423.664C141.069 413.913 160.527 388.317 169.04 367.596C177.553 346.875 181.201 294.463 179.985 281.056C178.769 267.648 180.958 265.088 187.16 255.947C193.362 246.927 84.6415 241.442 84.6415 241.442Z" fill="#7F7F7F"/>
<path d="M75.3991 332.248C75.3991 332.248 70.5346 310.309 75.3991 301.776C80.2636 293.244 88.7764 277.399 89.9925 289.588C90.7221 297.267 93.6408 304.214 97.2892 313.965C100.938 323.716 105.802 337.124 98.5053 344.437C91.2086 351.75 86.3441 373.69 97.2892 385.879C108.234 398.068 120.395 407.819 122.828 413.913C125.26 420.007 128.908 407.819 137.421 400.505C145.934 393.192 145.934 395.63 149.582 382.222C153.23 368.815 160.527 366.377 164.175 355.407C167.824 344.437 169.04 334.686 172.688 324.935C176.337 315.184 165.392 304.214 170.256 298.12C175.12 292.025 179.742 285.444 179.863 279.593C179.985 273.742 184.849 274.961 187.282 282.274C189.714 289.588 192.146 307.871 189.714 313.965C187.282 320.06 203.091 717.413 203.091 717.413C203.091 717.413 153.23 728.383 117.963 728.383C82.6958 728.383 47.4285 716.194 47.4285 716.194L68.1024 334.686L75.3991 332.248Z" fill="#707070"/>
<path d="M263.897 729.602C263.897 729.602 260.248 734.478 255.384 743.01C250.52 751.542 244.439 758.855 242.007 768.606C239.575 778.357 242.007 782.014 237.142 789.327C232.278 796.64 217.684 810.048 234.71 807.61C251.736 805.172 252.952 782.014 255.384 778.357C257.816 774.701 257.816 782.014 256.6 789.327C255.384 796.64 252.952 812.486 251.736 823.456C250.52 834.425 249.303 839.301 254.168 841.739C259.032 844.176 261.465 833.207 263.897 827.112C266.329 821.018 259.032 839.301 260.248 841.739C261.465 844.176 267.545 840.52 272.41 833.207C272.41 833.207 271.194 840.52 277.274 835.644C283.355 830.769 287.003 828.331 291.867 822.237C296.732 816.142 294.3 812.486 297.948 808.829C301.596 805.172 305.245 803.954 306.461 797.859C307.677 791.765 312.541 779.576 310.109 768.606C307.677 757.636 310.109 749.104 308.893 740.572C307.677 732.04 272.41 724.727 263.897 729.602Z" fill="#7F7F7F"/>
<path d="M17.0256 812.486C17.0256 812.486 4.86446 805.173 2.43223 800.297C0 795.421 0 794.203 0 794.203V750.567C0 750.567 3.64834 764.95 9.72892 774.701C15.8095 784.452 19.4578 783.233 17.0256 794.203C14.5934 805.173 34.0512 812.486 17.0256 812.486Z" fill="#7F7F7F"/>
<path d="M83.9119 235.957C83.9119 235.957 85.128 249.365 88.7764 255.459C92.4247 261.554 104.586 266.429 113.099 270.086C121.611 273.742 149.582 277.399 166.608 272.523C183.633 267.648 186.066 259.116 189.714 249.365C193.362 239.614 197.011 242.052 198.227 238.395C199.443 234.738 198.227 226.206 200.659 223.768C203.091 221.331 204.307 206.704 200.659 210.361C197.011 214.017 195.794 217.674 193.362 221.331C190.93 224.987 197.011 207.923 194.578 196.953C192.146 185.983 193.362 164.043 190.93 159.168C188.498 154.292 179.985 134.79 160.527 131.134C141.069 127.477 127.692 122.602 110.666 131.134C93.6408 139.666 88.7764 149.417 87.5603 160.387C86.3441 171.357 66.8863 195.734 64.4541 200.61C62.0219 205.485 65.6702 210.361 68.1024 221.331C70.5347 232.301 80.2636 243.27 83.9119 235.957Z" fill="#878787"/>
<path d="M212.82 175.013C212.82 175.013 220.117 181.108 216.468 183.545C212.82 185.983 211.604 190.859 211.604 193.297C211.604 195.734 207.956 193.297 209.172 198.172C210.388 203.048 214.036 205.485 209.172 207.923C204.307 210.361 207.956 217.674 205.523 220.112C203.091 222.55 204.307 222.55 203.091 224.987C201.875 227.425 199.2 225.962 199.321 227.303C199.443 228.644 199.078 229.985 199.078 229.985C199.078 229.985 202.848 220.112 202.969 216.455C203.091 212.799 205.523 206.704 199.443 214.017C193.362 221.331 190.93 222.55 192.146 223.768C193.362 224.987 194.578 207.923 193.362 200.61C192.146 193.297 193.362 171.357 189.714 165.262C186.065 159.168 183.633 138.447 167.824 136.009C152.014 133.572 149.582 125.039 131.34 129.915C113.099 134.79 110.666 136.009 104.586 142.104C98.5052 148.198 100.937 146.979 94.8569 155.511C88.7763 164.043 98.5052 164.043 89.9924 178.67C81.4796 193.297 91.2085 212.799 86.3441 221.331C81.4796 229.863 85.128 211.58 81.4796 206.704C77.8313 201.829 80.2635 196.953 72.9668 198.172C65.6701 199.391 64.454 200.61 66.8863 207.923C69.3185 215.236 69.6833 220.477 69.4401 225.719C69.1969 230.96 64.454 215.236 62.0218 212.799C59.5896 210.361 62.0218 209.142 62.0218 198.172C62.0218 187.202 65.6701 187.202 63.2379 181.108C60.8057 175.013 58.3735 181.108 60.8057 173.794C63.2379 166.481 60.8057 168.919 63.2379 162.825C65.6701 156.73 70.5346 162.825 72.9668 155.511C75.3991 148.198 70.5346 145.76 75.3991 142.104C80.2635 138.447 80.2635 138.447 83.9119 137.228C87.5602 136.009 83.9119 137.228 87.5602 131.134C91.2085 125.039 92.4247 126.258 98.5052 123.821C104.586 121.383 100.937 117.726 110.666 120.164C120.395 122.602 113.099 117.726 120.395 112.851C127.692 107.975 133.773 105.537 141.069 107.975C148.366 110.413 147.15 112.851 154.447 114.07C161.743 115.288 156.879 107.975 164.175 112.851C171.472 117.726 167.824 115.288 173.904 120.164C179.985 125.039 179.985 121.383 181.201 128.696C182.417 136.009 186.065 129.915 189.714 137.228C193.362 144.541 192.146 139.666 195.794 145.76C199.443 151.855 193.362 150.636 200.659 153.074C207.956 155.511 205.523 153.074 211.604 159.168C217.684 165.262 215.252 162.825 214.036 168.919C212.82 175.013 210.388 172.576 212.82 175.013Z" fill="#4F4F4F"/>
<path d="M171.472 262.772C169.04 257.897 170.256 250.584 169.04 246.927C167.824 243.27 171.472 237.176 167.824 235.957C164.175 234.738 158.095 232.301 155.663 229.863C153.23 227.425 154.446 229.863 150.798 229.863C147.15 229.863 149.582 231.082 145.934 231.082C142.285 231.082 142.285 224.987 137.421 224.987C132.556 224.987 138.637 226.206 133.773 227.425C128.908 228.644 133.773 228.644 126.476 229.863C119.179 231.082 117.963 229.863 116.747 232.301C115.531 234.738 115.531 237.176 115.531 240.833C115.531 244.489 109.45 248.146 111.882 249.365C111.882 249.365 107.018 254.24 108.234 257.897C109.45 261.554 108.234 262.772 111.882 270.086C115.531 277.399 116.747 276.18 124.044 281.056C131.34 285.931 127.692 283.493 133.773 284.712C139.853 285.931 136.205 284.712 144.718 284.712C153.23 284.712 152.014 282.275 158.095 279.837C164.175 277.399 161.743 276.18 166.608 272.524C171.472 268.867 173.904 267.648 171.472 262.772ZM165.391 255.459C161.743 259.116 161.743 257.897 154.446 260.335C147.15 262.772 153.23 263.991 148.366 268.867C143.501 273.742 148.366 267.648 143.501 267.648C138.637 267.648 138.637 270.086 134.989 267.648C131.34 265.21 133.773 257.897 128.908 259.116C124.044 260.335 122.827 257.897 119.179 255.459C115.531 253.021 119.179 250.584 119.179 250.584C115.531 246.927 117.963 243.27 121.611 239.614C125.26 235.957 128.908 234.738 133.773 234.738C138.637 234.738 136.205 235.957 139.853 235.957C143.501 235.957 143.501 232.301 145.934 235.957C148.366 239.614 145.934 234.738 149.582 235.957C153.23 237.176 152.014 238.395 158.095 240.833C164.175 243.27 160.527 243.27 165.391 248.146C170.256 253.021 169.04 251.803 165.391 255.459Z" fill="#4F4F4F"/>
<path d="M133.773 248.146C133.773 248.146 136.205 254.24 138.637 255.459C141.069 256.678 138.637 255.459 143.502 255.459C148.366 255.459 148.366 256.678 152.014 253.021C155.663 249.365 150.798 250.584 145.934 248.146C141.069 245.708 137.421 246.927 133.773 248.146Z" fill="#4F4F4F"/>
<path d="M72.9669 573.586C68.1024 560.178 64.4541 533.363 72.9669 512.642C81.4797 491.921 86.3441 426.102 79.0474 409.038C71.7507 391.973 68.1024 352.969 70.5346 343.218C72.9669 333.467 77.8313 332.248 76.6152 322.497C75.3991 312.746 77.5881 297.876 88.7764 284.712C88.7764 284.712 69.3185 295.682 65.6702 306.652C62.0218 317.622 51.0768 320.06 34.0512 327.373C17.0256 334.686 0 341.999 0 341.999V757.636C0 757.636 2.43223 766.168 8.5128 767.387C14.5934 768.606 65.6702 764.95 76.6152 767.387C87.5602 769.825 93.6408 768.606 97.2892 773.482C100.937 778.357 100.937 772.263 100.937 758.855C100.937 745.448 92.4247 711.319 92.4247 689.379C92.4247 667.439 77.8313 586.994 72.9669 573.586Z" fill="#5B5B5B"/>
<path d="M307.069 414.035C304.515 398.921 298.556 382.71 293.084 372.471C284.571 356.626 262.681 338.343 242.007 324.935C221.333 311.528 203.091 316.403 200.659 306.652C198.227 296.901 185.944 279.227 185.944 279.227C180.958 276.18 187.282 283.493 187.282 293.244C187.282 302.995 189.714 322.497 186.066 334.686C182.417 346.875 166.608 383.441 165.392 401.724C164.175 420.008 172.688 493.14 165.392 517.518C158.095 541.895 149.582 577.243 154.447 599.182C159.311 621.122 155.663 693.036 158.095 711.319C160.527 729.602 154.447 743.01 164.175 749.104C173.904 755.199 229.846 739.353 240.791 741.791C251.736 744.229 257.816 733.259 262.681 732.04C267.545 730.821 282.139 732.04 299.164 738.134C316.19 744.229 310.109 743.01 312.541 734.478C314.974 725.946 311.325 712.538 317.406 708.881C321.054 706.687 321.176 702.421 321.297 695.474C321.297 695.474 321.419 694.011 321.541 685.845C321.662 683.163 321.906 680.36 322.27 677.19C322.878 672.924 322.635 667.805 321.906 662.198C322.149 646.475 322.514 623.56 322.878 590.041C324.095 493.75 307.069 414.035 307.069 414.035Z" fill="#5B5B5B"/>
<path d="M339 -876H375V809H339V-876Z" fill="#C4C4C4"/>
</g>
<defs>
<linearGradient id="paint0_linear" x1="151.287" y1="-808.624" x2="151.943" y2="0.705596" gradientUnits="userSpaceOnUse">
<stop stop-color="#C4C4C4"/>
<stop offset="1" stop-color="#A1A1A1"/>
</linearGradient>
</defs>
</svg>
