<svg width="223" height="1178" viewBox="0 0 223 1178" fill="none" xmlns="http://www.w3.org/2000/svg">
<rect x="1" width="219" height="1178" fill="url(#paint0_linear)"/>
<mask id="mask0" mask-type="alpha" maskUnits="userSpaceOnUse" x="4" y="0" width="219" height="1178">
<rect x="4" width="219" height="1178" fill="url(#paint1_linear)"/>
</mask>
<g mask="url(#mask0)">
<path d="M-6.32829 1020.26C-6.32829 1020.26 -9.10691 1085.21 -6.32829 1113.05C-3.54968 1140.88 2.00755 1178 2.00755 1178H89.997C89.997 1178 98.3329 1155.73 93.7018 1147.38C89.0708 1139.03 86.2922 1129.75 88.1446 1126.04C89.997 1122.33 96.4804 1100.06 100.185 1124.18C103.89 1148.31 110.374 1174.29 111.3 1178H198.363C198.363 1178 192.806 1123.25 193.732 1109.33C194.658 1095.42 192.806 1040.67 190.953 1026.75C189.101 1012.83 183.544 1001.7 183.544 1001.7C183.544 1001.7 107.595 998.913 100.185 1003.55C92.7756 1008.19 62.1182 1009.31 50.0776 1005.97C38.0369 1002.63 -6.32829 1020.26 -6.32829 1020.26Z" fill="#3F3F3F"/>
<path d="M41.4639 639.348C41.4639 639.348 46.4655 667.65 43.6868 676.929C40.9082 686.208 37.2034 733.531 44.613 747.45C52.0227 761.369 65.9158 785.494 75.1778 778.071C84.4399 770.648 99.2591 751.162 105.743 735.387C112.226 719.613 115.005 679.713 114.078 669.506C113.152 659.299 114.819 657.35 119.543 650.391C124.267 643.524 41.4639 639.348 41.4639 639.348Z" fill="#7F7F7F"/>
<path d="M34.4248 708.478C34.4248 708.478 30.72 691.775 34.4248 685.28C38.1296 678.785 44.613 666.722 45.5392 676.001C46.095 681.847 48.3179 687.136 51.0965 694.559C53.8751 701.982 57.5799 712.189 52.0227 717.757C46.4654 723.324 42.7606 740.027 51.0965 749.306C59.4323 758.585 68.6944 766.008 70.5468 770.648C72.3992 775.287 75.1778 766.008 81.6612 760.441C88.1447 754.873 88.1447 756.729 90.9233 746.522C93.7019 736.315 99.2591 734.459 102.038 726.108C104.816 717.757 105.743 710.334 108.521 702.91C111.3 695.487 102.964 687.136 106.669 682.496C110.374 677.857 113.893 672.846 113.986 668.392C114.078 663.938 117.783 664.866 119.636 670.433C121.488 676.001 123.34 689.92 121.488 694.559C119.636 699.199 131.676 1001.7 131.676 1001.7C131.676 1001.7 93.7019 1010.05 66.8419 1010.05C39.982 1010.05 13.1221 1000.77 13.1221 1000.77L28.8676 710.334L34.4248 708.478Z" fill="#707070"/>
<path d="M177.987 1010.98C177.987 1010.98 175.208 1014.69 171.503 1021.18C167.798 1027.68 163.167 1033.25 161.315 1040.67C159.462 1048.09 161.315 1050.88 157.61 1056.44C153.905 1062.01 142.791 1072.22 155.758 1070.36C168.725 1068.51 169.651 1050.88 171.503 1048.09C173.356 1045.31 173.356 1050.88 172.429 1056.44C171.503 1062.01 169.651 1074.07 168.725 1082.43C167.798 1090.78 166.872 1094.49 170.577 1096.34C174.282 1098.2 176.134 1089.85 177.987 1085.21C179.839 1080.57 174.282 1094.49 175.208 1096.34C176.134 1098.2 180.765 1095.42 184.47 1089.85C184.47 1089.85 183.544 1095.42 188.175 1091.7C192.806 1087.99 195.584 1086.14 199.289 1081.5C202.994 1076.86 201.142 1074.07 203.92 1071.29C206.699 1068.51 209.478 1067.58 210.404 1062.94C211.33 1058.3 215.035 1049.02 213.182 1040.67C211.33 1032.32 213.182 1025.82 212.256 1019.33C211.33 1012.83 184.47 1007.26 177.987 1010.98Z" fill="#7F7F7F"/>
<path d="M40.9082 635.173C40.9082 635.173 41.8344 645.38 44.613 650.019C47.3916 654.659 56.6537 658.371 63.1371 661.154C69.6205 663.938 90.9233 666.722 103.89 663.01C116.857 659.299 118.709 652.803 121.488 645.38C124.267 637.957 127.045 639.812 127.971 637.029C128.898 634.245 127.971 627.75 129.824 625.894C131.676 624.038 132.602 612.903 129.824 615.687C127.045 618.471 126.119 621.254 124.267 624.038C122.414 626.822 127.045 613.831 125.193 605.48C123.34 597.129 124.267 580.426 122.414 576.715C120.562 573.003 114.078 558.156 99.2591 555.373C84.4398 552.589 74.2516 548.877 61.2847 555.373C48.3178 561.868 44.613 569.291 43.6868 577.642C42.7606 585.994 27.9413 604.552 26.0889 608.263C24.2365 611.975 27.0151 615.687 28.8675 624.038C30.7199 632.389 38.1296 640.74 40.9082 635.173Z" fill="#878787"/>
<path d="M139.086 588.777C139.086 588.777 144.643 593.417 141.864 595.273C139.086 597.129 138.16 600.84 138.16 602.696C138.16 604.552 135.381 602.696 136.307 606.408C137.233 610.119 140.012 611.975 136.307 613.831C132.602 615.687 135.381 621.254 133.529 623.11C131.676 624.966 132.602 624.966 131.676 626.822C130.75 628.677 128.712 627.564 128.805 628.585C128.898 629.605 128.62 630.626 128.62 630.626C128.62 630.626 131.491 623.11 131.584 620.326C131.676 617.543 133.529 612.903 128.898 618.47C124.267 624.038 122.414 624.966 123.34 625.894C124.267 626.822 125.193 613.831 124.267 608.263C123.34 602.696 124.267 585.994 121.488 581.354C118.709 576.715 116.857 560.94 104.816 559.084C92.7756 557.228 90.9232 550.733 77.0301 554.445C63.1371 558.156 61.2847 559.084 56.6536 563.724C52.0226 568.363 53.875 567.435 49.244 573.931C44.613 580.426 52.0226 580.426 45.5392 591.561C39.0557 602.696 46.4654 617.543 42.7606 624.038C39.0557 630.533 41.8344 616.615 39.0557 612.903C36.2771 609.191 38.1295 605.48 32.5723 606.408C27.0151 607.336 26.0889 608.263 27.9413 613.831C29.7937 619.398 30.0716 623.388 29.8863 627.378C29.7011 631.368 26.0889 619.398 24.2365 617.543C22.3841 615.687 24.2365 614.759 24.2365 606.408C24.2365 598.056 27.0151 598.056 25.1627 593.417C23.3103 588.777 21.4579 593.417 23.3103 587.849C25.1627 582.282 23.3103 584.138 25.1627 579.498C27.0151 574.859 30.7199 579.498 32.5723 573.931C34.4247 568.363 30.7199 566.508 34.4247 563.724C38.1295 560.94 38.1295 560.94 40.9082 560.012C43.6868 559.084 40.9082 560.012 43.6868 555.373C46.4654 550.733 47.3916 551.661 52.0226 549.805C56.6536 547.949 53.875 545.166 61.2847 547.021C68.6943 548.877 63.1371 545.166 68.6943 541.454C74.2515 537.742 78.8826 535.887 84.4398 537.742C89.997 539.598 89.0708 541.454 94.628 542.382C100.185 543.31 96.4805 537.742 102.038 541.454C107.595 545.166 104.816 543.31 109.447 547.021C114.078 550.733 114.078 547.949 115.005 553.517C115.931 559.084 118.709 554.445 121.488 560.012C124.267 565.58 123.34 561.868 126.119 566.508C128.898 571.147 124.267 570.219 129.824 572.075C135.381 573.931 133.529 572.075 138.16 576.715C142.791 581.354 140.938 579.498 140.012 584.138C139.086 588.777 137.233 586.922 139.086 588.777Z" fill="#4F4F4F"/>
<path d="M107.595 655.587C105.743 651.875 106.669 646.308 105.743 643.524C104.816 640.74 107.595 636.101 104.816 635.173C102.038 634.245 97.4067 632.389 95.5543 630.533C93.7019 628.677 94.6281 630.533 91.8495 630.533C89.0709 630.533 90.9233 631.461 88.1447 631.461C85.3661 631.461 85.3661 626.822 81.6613 626.822C77.9564 626.822 82.5875 627.75 78.8826 628.677C75.1778 629.605 78.8826 629.605 73.3254 630.533C67.7682 631.461 66.842 630.533 65.9158 632.389C64.9896 634.245 64.9896 636.101 64.9896 638.884C64.9896 641.668 60.3585 644.452 62.211 645.38C62.211 645.38 58.5061 649.091 59.4323 651.875C60.3585 654.659 59.4323 655.587 62.211 661.154C64.9896 666.722 65.9158 665.794 71.473 669.505C77.0302 673.217 74.2516 671.361 78.8826 672.289C83.5137 673.217 80.7351 672.289 87.2185 672.289C93.7019 672.289 92.7757 670.433 97.4067 668.578C102.038 666.722 100.185 665.794 103.89 663.01C107.595 660.226 109.447 659.298 107.595 655.587ZM102.964 650.019C100.185 652.803 100.185 651.875 94.6281 653.731C89.0709 655.587 93.7019 656.515 89.9971 660.226C86.2923 663.938 89.9971 659.298 86.2923 659.298C82.5875 659.298 82.5875 661.154 79.8088 659.298C77.0302 657.443 78.8826 651.875 75.1778 652.803C71.473 653.731 70.5468 651.875 67.7682 650.019C64.9896 648.164 67.7682 646.308 67.7682 646.308C64.9896 643.524 66.842 640.74 69.6206 637.957C72.3992 635.173 75.1778 634.245 78.8826 634.245C82.5875 634.245 80.7351 635.173 83.5137 635.173C86.2923 635.173 86.2923 632.389 88.1447 635.173C89.9971 637.957 88.1447 634.245 90.9233 635.173C93.7019 636.101 92.7757 637.029 97.4067 638.884C102.038 640.74 99.2591 640.74 102.964 644.452C106.669 648.164 105.743 647.236 102.964 650.019Z" fill="#4F4F4F"/>
<path d="M78.8826 644.452C78.8826 644.452 80.735 649.092 82.5874 650.019C84.4398 650.947 82.5874 650.019 86.2922 650.019C89.997 650.019 89.997 650.947 92.7756 648.164C95.5543 645.38 91.8494 646.308 88.1446 644.452C84.4398 642.596 81.6612 643.524 78.8826 644.452Z" fill="#4F4F4F"/>
<path d="M32.5723 892.204C28.8675 881.997 26.0889 861.583 32.5723 845.808C39.0557 830.034 42.7605 779.927 37.2033 766.936C31.6461 753.945 28.8675 724.252 30.7199 716.829C32.5723 709.406 36.2771 708.478 35.3509 701.054C34.4247 693.631 36.0919 682.311 44.613 672.289C44.613 672.289 29.7937 680.64 27.0151 688.992C24.2364 697.343 15.9006 699.199 2.93373 704.766C-10.0331 710.334 -23 715.901 -23 715.901V1032.32C-23 1032.32 -21.1476 1038.81 -16.5166 1039.74C-11.8855 1040.67 27.0151 1037.89 35.3509 1039.74C43.6867 1041.6 48.3178 1040.67 51.0964 1044.38C53.875 1048.09 53.875 1043.45 53.875 1033.25C53.875 1023.04 47.3916 997.058 47.3916 980.355C47.3916 963.653 36.2771 902.411 32.5723 892.204Z" fill="#5B5B5B"/>
<path d="M210.867 770.74C208.922 759.234 204.383 746.893 200.215 739.099C193.732 727.036 177.06 713.117 161.315 702.91C145.569 692.703 131.676 696.415 129.824 688.992C127.971 681.568 118.617 668.114 118.617 668.114C114.819 665.794 119.636 671.361 119.636 678.785C119.636 686.208 121.488 701.054 118.709 710.334C115.931 719.613 103.89 747.45 102.964 761.369C102.038 775.287 108.521 830.962 102.964 849.52C97.4067 868.078 90.9232 894.988 94.6281 911.69C98.3329 928.392 95.5543 983.139 97.4067 997.058C99.2591 1010.98 94.6281 1021.18 102.038 1025.82C109.447 1030.46 152.053 1018.4 160.389 1020.26C168.724 1022.11 173.355 1013.76 177.06 1012.83C180.765 1011.9 191.88 1012.83 204.846 1017.47C217.813 1022.11 213.182 1021.18 215.035 1014.69C216.887 1008.19 214.108 997.986 218.739 995.202C221.518 993.532 221.611 990.284 221.703 984.995C221.703 984.995 221.796 983.881 221.889 977.664C221.981 975.623 222.166 973.489 222.444 971.076C222.907 967.828 222.722 963.931 222.166 959.663C222.352 947.693 222.63 930.248 222.907 904.731C223.834 831.426 210.867 770.74 210.867 770.74Z" fill="#5B5B5B"/>
</g>
<path d="M50.7245 1151.61L35.6487 1136.5L50.7245 1121.39L46.0833 1116.75L26.3333 1136.5L46.0833 1156.25L50.7245 1151.61Z" fill="#F3F3F3"/>
<defs>
<linearGradient id="paint0_linear" x1="110.5" y1="-5.29499e-09" x2="110.978" y2="589.489" gradientUnits="userSpaceOnUse">
<stop stop-color="#C4C4C4"/>
<stop offset="1" stop-color="#A1A1A1"/>
</linearGradient>
<linearGradient id="paint1_linear" x1="113.5" y1="-5.29499e-09" x2="113.978" y2="589.489" gradientUnits="userSpaceOnUse">
<stop stop-color="#C4C4C4"/>
<stop offset="1" stop-color="#A1A1A1"/>
</linearGradient>
</defs>
</svg>
