<svg width="523" height="1282" viewBox="0 0 523 1282" fill="none" xmlns="http://www.w3.org/2000/svg">
<path d="M192.566 156.104C192.566 156.104 234.06 182.702 252.253 190.612C270.447 198.521 278.773 195.161 282.622 187.462C286.47 179.762 281.572 178.362 285.771 169.053C289.969 159.743 291.578 163.243 291.229 159.043C290.879 154.844 289.969 150.294 292.138 144.344C294.307 138.394 291.438 136.435 297.386 135.245C303.334 134.055 308.442 130.695 307.532 122.995C306.623 115.296 298.226 113.546 299.975 105.496C301.725 97.4467 304.034 96.1868 306.133 90.5871C308.232 84.9874 304.383 56.7789 298.436 43.3397C292.488 29.9004 273.945 22.3408 263.799 17.7911C253.653 13.2413 208.87 7.43164 208.87 7.43164L199.774 77.9878L163.527 59.5088L158.769 107.106C158.769 107.106 173.464 148.474 192.566 156.104Z" fill="#595A5A"/>
<path d="M284.371 16.3215C289.199 20.1713 287.87 26.261 288.01 31.0907C288.01 31.0907 280.873 28.5708 273.665 25.771C266.458 22.9711 265.408 22.0612 253.023 18.7714C240.638 15.4816 239.658 14.5716 233.151 15.4116C226.643 16.3215 223.634 15.4116 224.544 19.2613C225.454 23.1111 223.495 21.9212 220.136 34.6605C216.777 47.3998 219.786 54.1194 218.037 66.8587C216.287 79.5981 219.296 82.6079 214.328 93.6673C209.36 104.727 204.672 106.967 201.733 97.8671C198.794 88.7676 195.225 82.8179 191.937 80.018C188.648 77.2182 186.479 79.3181 184.939 77.2182C183.4 75.1183 178.992 66.8587 172.694 70.2186C166.396 73.5784 163.388 76.8682 163.038 81.6279C162.688 86.3877 163.597 96.4671 165.697 101.367C165.697 101.367 162.128 101.927 161.428 109.906C160.729 117.816 164.437 120.406 161.428 126.006C158.419 131.605 151.842 132.305 149.533 137.205C147.224 142.105 144.145 147.704 142.745 135.315C141.346 122.926 140.646 104.727 144.145 89.3275C147.644 73.9284 144.845 73.2284 146.454 61.819C148.063 50.4096 150.163 40.8202 154.361 32.6306C158.559 24.4411 171.644 12.1217 185.149 7.57199C198.654 3.02224 215.448 -0.967545 229.442 0.22239C243.437 1.41233 252.743 7.71198 263.239 7.57199C273.945 7.432 280.593 13.3117 284.371 16.3215Z" fill="#595A5A"/>
<path d="M242.457 182.003C236.859 187.813 226.153 201.112 224.754 211.891C223.355 222.601 140.086 153.304 140.086 153.304C140.086 153.304 142.675 140.705 145.684 133.495C148.693 126.286 165.487 91.0078 165.487 91.0078L242.457 182.003Z" fill="#595A5A"/>
<path d="M116.296 135.315C116.296 135.315 144.285 146.515 161.778 160.514C179.271 174.513 205.092 189.002 214.958 200.412C224.824 211.821 226.293 203.212 233.221 217.211C240.148 231.21 229.652 247.309 236.649 257.809C243.647 268.308 257.641 313.806 257.641 329.905C257.641 346.004 295.987 307.506 307.602 302.606C319.218 297.706 298.926 311.706 313.62 330.605C328.314 349.504 332.513 360.003 342.309 363.503C352.105 367.003 352.105 395.001 357.003 406.201C361.902 417.4 366.8 429.999 351.406 443.998C336.011 457.998 198.864 513.995 165.977 528.694C133.089 543.393 81.309 446.098 72.9122 419.5C64.5155 392.901 63.8157 253.609 76.4109 231.91C89.0061 210.211 96.0034 189.912 100.202 170.313C104.4 150.714 106.01 130.836 116.296 135.315Z" fill="#595A5A"/>
<path d="M297.456 676.596C297.456 676.596 270.167 638.798 274.365 575.801C278.563 512.805 227.273 418.45 242.457 374.212C257.641 329.975 252.183 300.436 252.183 300.436L100.202 170.313C100.202 170.313 102.651 175.633 66.7545 212.941C30.8583 250.249 20.3623 290.147 22.4615 351.114C24.5607 412.01 39.255 563.202 56.0486 621.999C72.8422 680.796 77.0406 695.495 77.0406 695.495C77.0406 695.495 251.274 670.296 297.456 676.596Z" fill="#595A5A"/>
<path d="M276.534 660.497C304.034 677.086 288.989 746.592 297.456 771.791C305.923 796.989 322.717 869.435 333.213 915.633C343.708 961.83 345.808 1039.53 367.849 1084.67C389.891 1129.82 381.494 1169.72 399.337 1187.57C417.18 1205.42 414.032 1207.52 378.345 1231.67C342.659 1255.81 338.111 1256.86 324.116 1231.67C310.121 1206.47 300.675 1166.57 284.931 1118.27C269.187 1069.97 235.95 987.029 214.258 925.082C192.566 863.136 183.12 889.384 183.12 905.133C183.12 920.882 163.178 1002.78 151.632 1048.98C140.087 1095.17 147.434 1118.27 126.442 1152.92C105.45 1187.57 104.4 1176.02 103.351 1202.27C102.301 1228.52 5.73798 1235.87 1.53959 1218.02C-2.6588 1200.17 14.4846 1177.07 22.1817 1137.17C29.8787 1097.27 49.8211 951.331 61.3667 921.932C72.9122 892.534 71.8626 887.284 83.4082 862.086C94.9538 836.887 95.5136 725.523 102.581 691.925C109.648 658.397 170.525 596.45 276.534 660.497Z" fill="#595A5A"/>
<path d="M389.891 1197.02C394.789 1193.66 387.792 1213.82 447.619 1206.47C507.446 1199.12 513.743 1197.02 521.09 1214.87C528.438 1232.71 491.702 1240.06 444.47 1256.86C397.238 1273.66 399.337 1267.36 389.891 1267.36C380.444 1267.36 389.891 1281.01 389.891 1281.01C389.891 1281.01 324.466 1279.96 324.116 1271.56C323.766 1263.16 313.97 1245.31 324.116 1231.66C334.262 1218.02 373.097 1208.57 389.891 1197.02Z" fill="#595A5A"/>
<path d="M103.351 1202.27C103.351 1202.27 99.1522 1208.57 139.037 1215.92C178.922 1223.27 192.007 1212.77 205.442 1215.92C218.806 1219.07 219.856 1221.87 202.013 1238.8C184.17 1255.81 122.243 1258.96 90.7555 1255.81C59.2675 1252.66 55.0691 1250.14 55.0691 1250.14L50.8707 1263.16C50.8707 1263.16 5.45814 1264.49 0.909884 1250.14C-3.70835 1235.86 10.986 1202.27 10.986 1202.27H103.351Z" fill="#595A5A"/>
<path d="M307.532 302.606C307.532 302.606 310.961 290.916 324.046 286.297C337.131 281.607 333.352 270.897 349.726 267.188C366.03 263.478 372.607 251.298 385.202 256.898C397.798 262.498 398.707 269.008 401.506 274.187C404.305 279.297 396.398 275.097 396.398 275.097L402.136 298.896L389.891 317.585C389.891 317.585 398.287 318.075 400.177 327.874C402.066 337.674 404.865 337.674 404.375 349.783C403.885 361.892 408.573 357.693 401.086 367.072C393.599 376.382 391.78 383.871 381.004 392.761C370.298 401.65 357.003 406.27 357.003 406.27L297.456 332.494L307.532 302.606Z" fill="#595A5A"/>
<path d="M288.08 148.614L319.638 142.805C319.638 142.805 323.836 144.415 319.638 148.614C315.439 152.814 280.453 157.924 280.453 157.924L288.08 148.614Z" fill="#595A5A"/>
</svg>
