<?xml version="1.0" encoding="utf-8"?>
<!-- Generator: Adobe Illustrator 24.0.1, SVG Export Plug-In . SVG Version: 6.00 Build 0)  -->
<svg version="1.1" xmlns="http://www.w3.org/2000/svg" xmlns:xlink="http://www.w3.org/1999/xlink" x="0px" y="0px"
	 viewBox="0 0 1284.5 868.2" style="enable-background:new 0 0 1284.5 868.2;" xml:space="preserve">
<style type="text/css">
	.st0{fill:#C8423B;}
	.st1{fill:#F0D6C5;}
	.st2{fill:#F8E6DB;}
	.st3{fill:#E2B96D;}
	.st4{fill:#FFFFFF;}
	.st5{fill:none;stroke:#7D3225;stroke-width:1.28;stroke-miterlimit:10;}
</style>
<g id="blood">
	<path class="st0" d="M760.8,183.9c21.3-8.2,13.6-29.6,3.8-59c-9.9-29.5-76.9-71.5-113.4-57.7C614.6,81,556.2,56.6,538,97.2
		c-18.2,40.6-42.8,59.6-51.8,60.4c-9,0.9-37.5,20.6-26.7,47.1c10.7,26.6,27.7,66.6,60.9,70.9c33.2,4.3,46.8,7.1,58.1,23.4
		c11.3,16.3,8.5,21.5,22.7,25.7c3.8,1.1,7.5,1.6,10.9,1.8c8.8,0.8,56.1,4.8,73.1-5.7c18.8-11.6,68.6-53.5,83.9-65.1
		C783.9,244.6,757.7,219.3,760.8,183.9z"/>
</g>
<g id="deadguy">
	<path class="st1" d="M665.1,198c0,0-12-2.5-15.7-0.5s-6.9,8.5-6,10.4s4.4,3.8,6.7,3.5c2.3-0.3-2.2-2.9,6.2-3.4
		c8.4-0.6,1.9-1.2,5.9-0.9c4,0.3,6,0.3,6,0.3L665.1,198z"/>
	<path class="st1" d="M813.2,289.3c0,0-0.1,7.2-0.6,10.3s-2.8,5.6-0.7,6.8c2.1,1.1,5.8,1.4,8.7-2.8c2.9-4.2,4.7-13.1,3.1-13.9
		C822.2,288.9,813.2,289.3,813.2,289.3z"/>
	<path class="st1" d="M754.7,198c0-3.7,0.5-7.4,1.5-11c0.4-1.5,1-2.8,2-4c3.5-3.8,6.8-6.4,11.6-6.3c4.9,0.2,6.5,1,9.4,4.3
		s5.3,6.8,5.8,11.2c0.5,4.4,0.5,5.8-0.4,10c-0.6,2.5-1.4,5-2.6,7.4c0,0-17.1,6.3-18.1,5.5S754.7,198,754.7,198z"/>
	<path class="st2" d="M645.6,346.4c0,0-5.3,4.7-9,6.5s-7.1,3.6-11.1,5.4c-4,1.8-14.3,1.5-14.7,2.5s-1.8,4.6-1,5s19.1,5,21.8,4.2
		s13-0.5,16.5-0.6c3.4-0.1,6.3,0,6.9-1.9c0.6-1.9-1.6-2.8-1.5-7.4c0.1-4.6,3.3-5.3,3.3-5.3L645.6,346.4z"/>
	<path class="st2" d="M700.6,380.5c0,0,0.1,7.8-0.7,9.1c-0.8,1.3-13.6,9-13.8,10.7c-0.2,1.7,2.1,5.7,6.8,6.7s2.9,2.1,8.6,0
		s8.5-5.4,9.7-9.9s2.5-15.7,2.5-15.7L700.6,380.5z"/>
	<path class="st3" d="M753.6,183.4c0,0,0.9-4.8,5.1-6.5c4.1-1.7,4-4.6,10.5-3.4c6.5,1.2,11.2,1.8,11.7,3.9c0.6,1.8,1.5,3.5,2.5,5.1
		c0.5,0.9,1,1.8,1.4,2.7c1.3,2.8,1.5,5.1,1.9,8.3c0.4,3.2,0.8,4.4-0.6,6.5c-1.4,2.1-1.5,4.7-1.7,6.4c-0.3,1.2-1.1,2.4-2.1,3.1
		c0,0,2.7-11.1,2.5-12.3s-4.1-10.6-6.1-12.3s-2.9-3-7.9-3.4s-11.9,1.8-11.9,1.8l-3.2,6.8l-0.1,8.3l-4-5.2L753.6,183.4z"/>
	<path class="st4" d="M754.7,198.2c0,0-5.8-12-12.4-12.1c-6.6-0.1-11.3,3-21.9,6.4c-10.5,3.4-55.3,5.5-55.3,5.5l4.4,19.9
		c0,0,39.1,1.7,43.6,0.1c4.5-1.7,2.5,0.9,3.2,3.9s0.1,3.2-1.8,6.6c-1.9,3.5-4.9,4.5-6.1,12.7c-1,6-2.5,12-4.5,17.8
		c-0.3,1.1-0.4,2.3-0.2,3.4c0,0-21.7,34.3-31.6,45.3c-9.9,11-33.8,30-33.8,30s13,15.9,18.3,17.2c5.3,1.3,30-25.4,31.8-28.6
		c1.8-3.2-0.3-6.4,9-10.8c9.3-4.4,15.4-7.6,17.1-9.7c1.7-2.1,5.1,0.4,4.8,4.7c-0.3,4.3-5.8,13-6.9,18.6s-7.5,17-9.7,23.9
		c-2.1,6.9-7.9,21.9-8.2,23.6c-0.2,1.7,10.1,5.7,13.3,5.6c3.2-0.1,4.3,2.3,6.7,3.2c2.1,0.7,4.2,1.3,6.4,1.8c0,0,24-56.4,27.7-62.8
		c3.7-6.4,11.4-26,11.2-33.2s-0.2-8.6,2.5-13.4c2.7-4.8,14.8-28.1,17.5-30.9s11.4,6.8,12.3,8.3s12.7,32.8,13.7,33.5s17.7,1,17.7,1
		s1.5-20.8-9.3-46.4c-10.8-25.6-17-34.5-25.5-35.2c-8.5-0.6-24,7-28.1,0.1C756.6,201.2,754.7,198.2,754.7,198.2z"/>
	<path class="st5" d="M760.2,190.2l5.5,4.6"/>
	<path class="st5" d="M764.7,190.2l-4.6,5.5"/>
	<path class="st5" d="M770.9,188.7l5.5,4.6"/>
	<path class="st5" d="M775.4,188.7l-4.6,5.5"/>
</g>
</svg>
