<!-- Generator: Adobe Illustrator 24.0.1, SVG Export Plug-In . SVG Version: 6.00 Build 0)  -->
<svg version="1.1" xmlns="http://www.w3.org/2000/svg" xmlns:xlink="http://www.w3.org/1999/xlink" x="0px" y="0px"
	 viewBox="0 0 442 151" style="enable-background:new 0 0 442 151;" xml:space="preserve">
<style type="text/css">
	.babytext-st0{fill:#599E93;}
	.babytext-st1{fill:none;stroke:#FFFFFF;stroke-width:4;stroke-miterlimit:10;}
</style>
<g id="baby-fill">
	<path class="babytext-st0" d="M88.1,40.5c0-10.3-3.7-19.3-11.2-26.8C69.2,5.9,59.9,2.1,49,2.1h-9.8L9.8,2v140.6h52.2
		c12.1,0,22.5-4.4,31-13.1c8.5-8.5,12.8-19,12.8-31.2c0-12.1-4.3-22.5-12.8-31.1c-2.7-2.6-7.4-5.5-10.8-7.1
		C84.8,55.3,88.1,47.2,88.1,40.5z M62,115H43.5l-5.6,0.1V81c8.5,0,15.8-0.4,24.1,0.1c8.7,0.5,16.3,7.8,16.3,17.2
		C78.3,107.5,71.2,115,62,115z M60.8,41.6c0,7.1-5.7,12.2-12.4,12.9c-4.5,0.3-8,0.6-10.6,0.7V29.4H49C55.6,29.4,60.8,35.1,60.8,41.6
		z"/>
	<path class="babytext-st0" d="M104.2,142.5h30.5l9.5-21.4h48.1l9.5,21.4h30.6L168.3-0.9L104.2,142.5z M155.4,96.2l13-29.7l12.8,29.7H155.4z"
		/>
	<path class="babytext-st0" d="M323,40.5c0-10.3-3.7-19.3-11.2-26.8c-7.8-7.8-17.1-11.7-28-11.7h-9.8L244.7,2v140.6h52.2
		c12.1,0,22.5-4.4,31-13.1c8.5-8.5,12.8-19,12.8-31.2c0-12.1-4.3-22.5-12.8-31.1c-2.7-2.6-7.4-5.5-10.8-7.1
		C319.7,55.3,323,47.2,323,40.5z M296.9,115h-18.5l-5.6,0.1V81c8.5,0,15.8-0.4,24.1,0.1c8.7,0.5,16.3,7.8,16.3,17.2
		C313.2,107.5,306.1,115,296.9,115z M295.7,41.6c0,7.1-5.7,12.2-12.4,12.9c-4.5,0.3-8,0.6-10.6,0.7V29.4h11.1
		C290.5,29.4,295.7,35.1,295.7,41.6z"/>
	<path class="babytext-st0" d="M324.9,2l43.5,80.3v60.2h28.1V82.3L440.1,2h-32l-25.6,48.7L356.8,2H324.9z"/>
</g>
<g id="baby-stroke">
	<path class="babytext-st1" d="M81.4,45c0-10.3-3.7-19.3-11.2-26.8c-7.8-7.8-17.1-11.7-28-11.7h-9.8L3.1,6.4V147h52.2
		c12.1,0,22.5-4.4,31-13.1c8.5-8.5,12.8-19,12.8-31.2c0-12.1-4.3-22.5-12.8-31.1c-2.7-2.6-7.4-5.5-10.8-7.1
		C78.1,59.7,81.4,51.7,81.4,45z M55.3,119.4H36.8l-5.6,0.1V85.4c8.5,0,15.8-0.4,24.1,0.1c8.7,0.5,16.3,7.8,16.3,17.2
		C71.6,111.9,64.5,119.4,55.3,119.4z M54.1,46c0,7.1-5.7,12.2-12.4,12.9c-4.5,0.3-8,0.6-10.6,0.7V33.9h11.1
		C48.9,33.9,54.1,39.6,54.1,46z"/>
	<path class="babytext-st1" d="M97.5,147H128l9.5-21.4h48.1l9.5,21.4h30.6L161.5,3.6L97.5,147z M148.6,100.7l13-29.7l12.8,29.7H148.6z"/>
	<path class="babytext-st1" d="M316.3,45c0-10.3-3.7-19.3-11.2-26.8c-7.8-7.8-17.1-11.7-28-11.7h-9.8L238,6.4V147h52.2
		c12.1,0,22.5-4.4,31-13.1c8.5-8.5,12.8-19,12.8-31.2c0-12.1-4.3-22.5-12.8-31.1c-2.7-2.6-7.4-5.5-10.8-7.1
		C313,59.7,316.3,51.7,316.3,45z M290.1,119.4h-18.5l-5.6,0.1V85.4c8.5,0,15.8-0.4,24.1,0.1c8.7,0.5,16.3,7.8,16.3,17.2
		C306.5,111.9,299.4,119.4,290.1,119.4z M289,46c0,7.1-5.7,12.2-12.4,12.9c-4.5,0.3-8,0.6-10.6,0.7V33.9h11.1
		C283.8,33.9,289,39.6,289,46z"/>
	<path class="babytext-st1" d="M318.2,6.4l43.5,80.3V147h28.1V86.7l43.6-80.3h-32l-25.6,48.7L350.1,6.4H318.2z"/>
</g>
</svg>
