<!-- Generator: Adobe Illustrator 24.0.1, SVG Export Plug-In . SVG Version: 6.00 Build 0)  -->
<svg version="1.1" xmlns="http://www.w3.org/2000/svg" xmlns:xlink="http://www.w3.org/1999/xlink" x="0px" y="0px"
	 viewBox="0 0 441 648" style="enable-background:new 0 0 441 648;" xml:space="preserve">
<style type="text/css">
	.deb-st0{fill:#EAC2A3;}
	.deb-st1{fill:#111111;}
	.deb-st2{fill:none;stroke:#000000;}
	.deb-st3{fill:#FFFFFF;}
	.deb-st4{fill:#452D1C;}
	.deb-st5{fill:#E6B592;}
</style>
<g id="debora-arm">
	<path d="M165.8,244.9c4.7,16.7,21.2,27.1,21.8,21.9s9.2-23,9.2-23s11.6-13.8,24.2-12.7c-16.2-16.1-35.6-47.1-50.3-47.1
		c-20.8-0.6-12,32.1-12,32.1S161.1,228.2,165.8,244.9z"/>
	<path class="deb-st0" d="M198.1,267.9c0,0,30,6.9,40.4,10.4c10.4,3.4,36.9,20.7,65.8,28.8s43.9,5.8,48.5,11.5
		c4.6,5.8,16.2,8.1,18.5,13.8c0,0-1.2,10.4,13.9,10.4s25.4-1.1,27.7-4.6c2.3-3.5,15-8.1,15-8.1s-3.5-20.7-4.6-21.9
		c-1.2-1.2-27.7,3.4-27.7,3.4s-91.2-46.1-106.2-55.3c0,0-40.4-8.1-64.7-24.2c-18.5-3.4-27.7,12.7-27.7,12.7L198.1,267.9z"/>
	<path class="deb-st1" d="M394.4,338L382,302.9l13.7-2.2l39.8-5.7l4.6,29.8L394.4,338z"/>
	<path class="deb-st2" d="M398.3,300.3l-2.6,0.4 M395.7,300.7l-13.7,2.2l12.4,35.1l45.6-13.2l-4.6-29.8L395.7,300.7z"/>
	<path class="deb-st0" d="M411,334.5c-1.2-4.4-16.8-5.2-24.5-5l1.5,11l19.5-3C409.2,338.3,412.2,338.9,411,334.5z"/>
	<path class="deb-st3" d="M210.1,217c-8.8-0.2-16.6,7.1-16.6,7.1s0,0,3.5,21.9c9.2-15,25.4-13.8,25.4-13.8"/>
</g>
<g id="debora-body">
	<path d="M176.1,186.1c-13.9-4.6-25.4-5.8-25.4-5.8l-13.9,18.4l-53.1-25.3l-17.3-11.5c0,0-9.2,9.2-27.7,16.1
		C20.2,185,1.8,270.2,1.8,270.2s26.6-4.6,50.8,19.6c-2.3,12.7,4.6,25.3,4.6,25.3s12.7,46.1,0,78.3c-12.7,32.2-32.3,91-35.8,169.3
		c49.6,10.4,50.8,6.9,50.8,6.9s0-4.6,2.3-4.6s6.9,1.2,6.9-1.2c0-2.3,3.5-4.6,5.8-4.6c2.3,0,6.9-3.5,6.9-3.5l-6.9-12.7
		c0,0,75-10.4,95.8-4.6c2.3,11.5,3.5,11.5,3.5,11.5s31.2-3.5,33.5-8.1c2.3-4.6-1.2-44.9-5.8-72.5c-4.6-27.6-6.9-72.6-6.9-72.6
		l-8.1-16.1c0,0-5.8-88.7-1.2-112.9c-1.2-24.2-1.2-24.2-1.2-24.2"/>
	<path class="deb-st3" d="M123,196.5c0,0-1.2,0,1.2,6.9s17.3,44.9,17.3,61s0,32.2,0,32.2l2.8-1.5c0,0,3-27.3-0.5-40
		c-3.5-12.7-18.5-59.9-18.5-59.9L123,193L123,196.5L123,196.5z"/>
	<path class="deb-st3" d="M177.1,475.2c0,0-6.3-29.9-7.4-40.3c-1.1-10.4-1.1-33.4-2.1-38c-1.1-4.6-4.2-17.3-5.3-25.3
		c-1.1-8.1-5.3-20.7-7.4-27.6c-2.1-6.9-3.2-21.9-3.2-21.9l-2.1,4.6c0,0,0,12.7,2.1,16.1c2.1,3.5,6.3,19.6,7.4,28.8
		c1.1,9.2,4.2,20.7,5.3,35.7s2.1,28.8,4.2,35.7c2.1,6.9,5.3,40.3,5.3,40.3s8.5,41.5,9.5,48.4c1.1,6.9,1.1,6.9,1.1,6.9h3.2
		c0,0-9.5-38-10.6-62.2"/>
	<path class="deb-st3" d="M140.3,201.1c0,0-1.2,0,1.2,6.9c2.3,6.9,17.3,44.9,17.3,61c0,16.1,0,32.2,0,32.2l2.8-1.5c0,0,3-27.3-0.5-40
		c-3.5-12.7-18.5-59.9-18.5-59.9l-2.3-2.3L140.3,201.1L140.3,201.1z"/>
	<path class="deb-st3" d="M194.4,477.8c0,0-6.3-30.9-7.4-41.6c-1.1-10.7-1.1-34.5-2.1-39.2c-1.1-4.8-4.2-17.8-5.3-26.1
		c-1.1-8.3-5.3-21.4-7.4-28.5c-2.1-7.1-3.2-22.6-3.2-22.6l-2.1,4.8c0,0,0,13.1,2.1,16.6c2.1,3.6,6.3,20.2,7.4,29.7
		c1.1,9.5,4.2,21.4,5.3,36.8c1.1,15.4,2.1,29.7,4.2,36.8c2.1,7.1,5.3,41.6,5.3,41.6s8.5,42.8,9.5,49.9c1.1,7.1,1.1,7.1,1.1,7.1h3.2
		c0,0-9.5-39.2-10.6-64.2"/>
	<path class="deb-st3" d="M187.7,281.7l32.3,13.8c0,0-21.9,73.7-19.6,82.9c-31.2-12.7-31.2-12.7-31.2-12.7L187.7,281.7z"/>
	<path class="deb-st0" d="M48,312.8c0,0,64.7,1.1,86.6-11.5c21.9-12.7,21.9-17.3,26.6-17.3c4.6,0,30-4.6,30,0c0,4.6,0,9.2-2.3,10.4
		s-2.3,1.1-2.3,1.1s6.9,4.6,3.5,8.1c-3.5,3.5-3.5,3.5-3.5,3.5s0,6.9-3.5,8.1s0,8.1-3.5,9.2s-43.9,1.1-62.4,9.2
		c-18.5,8.1-40.4,24.2-98.1,25.3c-19.6-9.2-13.9-87.5-13.9-87.5s20.8-4.6,47.3,18.4C48,312.8,48,312.8,48,312.8z"/>
	<path class="deb-st0" d="M86.1,543.1c0,0,54.3-9.2,95.8-4.6c11.5,34.5,11.5,61,13.9,72.5s5.8,21.9,1.2,31.1c-4.6,9.2-2.3,4.6-2.3,4.6
		l-62.4-1.2c0,0,2.3-16.1-18.5-55.3C93,551.2,86.1,543.1,86.1,543.1z"/>
	<path class="deb-st3" d="M72.2,147L64,165.2l14,24.4l11.6-2.3l1.2,4.6l33.5,3.5l20.8,20.7c0,0-4.6-13.8-2.3-16.1
		c2.3-2.3-1.2-6.9,12.7-6.9l-15-28.8l-2.3,26.5c0,0-41.6-34.6-53.1-39.1C73.4,147,72.2,147,72.2,147z"/>
	<path class="deb-st3" d="M142.6,228.7c1.9,0,3.5-1.8,3.5-4c0-2.2-1.5-4-3.5-4c-1.9,0-3.5,1.8-3.5,4
		C139.2,226.9,140.7,228.7,142.6,228.7z"/>
	<path class="deb-st3" d="M151.9,266.8c1.9,0,3.5-1.8,3.5-4s-1.5-4-3.5-4c-1.9,0-3.5,1.8-3.5,4S150,266.8,151.9,266.8z"/>
	<path class="deb-st3" d="M176.7,234.5c8.6,0,15.6-2.8,15.6-6.3s-7-6.3-15.6-6.3c-8.6,0-15.6,2.8-15.6,6.3S168.1,234.5,176.7,234.5z"/>
	<path class="deb-st3" d="M191.1,520.1c1.9,0,3.5-1.8,3.5-4s-1.5-4-3.5-4c-1.9,0-3.5,1.8-3.5,4S189.2,520.1,191.1,520.1z"/>
	<path class="deb-st3" d="M184.2,477.5c1.9,0,3.5-1.8,3.5-4c0-2.2-1.5-4-3.5-4c-1.9,0-3.5,1.8-3.5,4
		C180.7,475.7,182.3,477.5,184.2,477.5z"/>
	<path class="deb-st3" d="M177.9,434.7c1.9-0.3,3.2-2.3,2.9-4.5c-0.3-2.2-2.1-3.8-4-3.5c-1.9,0.3-3.2,2.3-2.9,4.5
		C174.2,433.4,176,435,177.9,434.7z"/>
	<path class="deb-st3" d="M173.2,389.8c1.9-0.3,3.2-2.3,2.9-4.5c-0.3-2.2-2.1-3.8-4-3.5c-1.9,0.3-3.2,2.3-2.9,4.5
		C169.5,388.5,171.3,390.1,173.2,389.8z"/>
	<path class="deb-st3" d="M162.8,348.4c1.9-0.3,3.2-2,3-3.8c-0.3-1.9-2-3.1-3.9-2.9c-1.9,0.3-3.2,2-3,3.8
		C159.2,347.4,160.9,348.6,162.8,348.4z"/>
	<path class="deb-st3" d="M10,234.5l-9.4,36.9c0,0,27.2-4.1,52.4,18.7c4.1-0.3,6.4-19.8,6.4-19.8S56,246,10,234.5z"/>
	<path class="deb-st3" d="M121.9,361.2h10.4c0,0,2.3,29.9-1.2,34.5c-3.5,4.6-28.9,28.8-28.9,28.8l-5.8-6.9c0,0,27.7-18.4,27.7-28.8
		C124.2,378.5,121.9,361.2,121.9,361.2z"/>
	<path class="deb-st4" d="M101.1,118.2c0,0-3.5-3.5-3.5-1.2c0,2.3,1.2,4.6,1.2,4.6s-2.3,0-2.3-2.3c0-2.3,4.6-10.4,3.5-11.5
		c-1.2-1.2-3.5-10.4-4.6-10.4c-1.2,0,0,1.2-1.2-2.3c-1.2-3.4,0-6.9-1.2-5.8c-1.2,1.2,0,1.2,0,1.2h-1.2c0,0-2.3-21.9,0-26.5
		s6.9-17.3,10.4-18.4c3.5-1.2,8.1-3.5,5.8-4.6c-2.3-1.1-3.5-6.9-5.8-5.8c-2.3,1.1-3.5,1.1-3.5,1.1s-2.3-4.6-1.2-6.9s3.5-5.8,2.3-5.8
		c-1.2,0-4.6-12.7-1.2-15c3.5-2.3,6.9-3.4,6.9-4.6c0,0,1.2-1.1,1.2,0s5.8,0,5.8,0s8.1-5.8,15-3.4s11.5,0,13.9,2.3
		c2.3,2.3,8.1,1.1,8.1,2.3s5.8,2.3,5.8,8.1c0,5.8-2.3,12.7-2.3,12.7s16.2,3.5,23.1,9.2c6.9,5.8,6.9,5.8,6.9,5.8s1.2,0,0-1.2
		s-1.2-1.2-1.2-1.2s0-1.1,2.3,1.2s10.4,6.9,15,15c4.6,8.1,5.5,30.2,3.3,32.4c-2.2,2.2-41.4,19.5-41.4,19.5L118.4,117L101.1,118.2z"
		/>
	<path class="deb-st0" d="M134.5,92.9c0,0-1.2-9.2-11.6-8.1c-10.4,1.1-8.1,21.9-8.1,21.9s-2.3,12.7-13.9,11.5
		c-3.5,12.7-4.6,23-16.2,33.4c31.2,24.2,53.1,39.1,53.1,39.1l2.3-26.5c0,0-6.9-8.1-4.6-10.4c2.3-2.3,2.3-2.3,2.3-2.3
		s13.9,9.2,23.1,9.2c4.6-1.1,4.6-6.9,8.1-8.1c3.5-1.1,3.5-10.4,3.5-10.4s12.7,1.1,12.7-1.1c0-2.3,1.2-24.2,2.3-24.2
		s10.4-2.3,12.7-13.8c2.3-11.5,2.3-15,2.3-15s-4.6-11.5-10.4-10.4c-5.8,1.1-12.7,13.8-21.9,13.8c-8.1,9.2-8.1,10.4-18.5,10.4
		C141.5,102.1,139.2,103.2,134.5,92.9z"/>
	<path class="deb-st5" d="M107.9,580.2c0,0-12.7,51.8-6.9,65.6c32.3,0,32.3,0,32.3,0S132.2,613.6,107.9,580.2z"/>
</g>
</svg>
