<svg width="473" height="127" viewBox="0 0 473 127" fill="none" xmlns="http://www.w3.org/2000/svg">
<path d="M12.5 37.5C107.5 -4.5 168.794 43.2111 236 75.5C325.5 118.5 407.167 83.8334 455.5 60.0001" stroke="#FAEB9D" stroke-width="7"/>
<g filter="url(#filter0_d)">
<path fill-rule="evenodd" clip-rule="evenodd" d="M303.088 68.1395C299.846 68.9108 297.848 69.7913 295.729 71.5254C294.945 72.1674 294.236 72.8843 293.608 73.6737C292.729 73.2789 291.812 72.9737 290.863 72.7585C288.136 72.1403 285.839 72.2433 282.714 72.9869C274.343 74.9783 269.899 83.3116 272.026 92.2549C273.633 99.0088 278.978 104.631 287.544 109.259C292.04 111.688 297.555 113.838 301.36 114.775L303.538 115.311L305.24 113.852C308.217 111.302 312.172 106.898 315.092 102.704C320.656 94.7149 322.897 87.2883 321.29 80.5343C319.185 71.6857 311.392 66.1999 303.088 68.1395ZM316.812 81.5997C318.07 86.8911 316.2 93.09 311.311 100.111C308.645 103.939 305.013 107.994 302.347 110.303C298.926 109.442 293.856 107.457 289.753 105.24C282.225 101.173 277.764 96.4807 276.505 91.1893C274.933 84.5814 278.015 78.803 283.772 77.4333C286.257 76.8421 287.858 76.7703 289.826 77.2165C290.988 77.48 292.069 77.9361 293.066 78.5901L295.129 79.9432L296.343 77.7958C296.949 76.7248 297.718 75.8123 298.649 75.0506C300.162 73.8123 301.535 73.2073 304.137 72.5882C309.828 71.2588 315.261 75.0835 316.812 81.5997Z" fill="white"/>
</g>
<g filter="url(#filter1_d)">
<path fill-rule="evenodd" clip-rule="evenodd" d="M149.446 15.4488C146.265 14.457 144.097 14.194 141.391 14.6036C140.388 14.7552 139.413 15.01 138.47 15.3679C137.915 14.5796 137.283 13.8493 136.576 13.1795C134.547 11.2557 132.52 10.1718 129.453 9.21565C121.238 6.65485 113.162 11.5514 110.426 20.3278C108.36 26.9556 110.086 34.5184 115.089 42.8707C117.715 47.2548 121.359 51.9192 124.153 54.6674L125.752 56.2398L127.961 55.8544C131.822 55.181 137.471 53.4136 142.123 51.2985C150.986 47.2689 156.704 42.0268 158.77 35.3989C161.477 26.7155 157.577 18.0202 149.446 15.4488ZM154.376 34.0289C152.757 39.2215 147.984 43.597 140.196 47.138C135.949 49.0685 130.755 50.7015 127.284 51.3256C124.783 48.8395 121.437 44.5442 119.04 40.5427C114.644 33.2031 113.203 26.8905 114.822 21.6979C116.843 15.2134 122.443 11.818 128.092 13.5792C130.531 14.3394 131.944 15.095 133.409 16.4834C134.274 17.3035 134.97 18.2474 135.494 19.3188L136.577 21.5353L138.717 20.3087C139.785 19.6969 140.912 19.3051 142.101 19.1252C144.034 18.8327 145.524 19.0134 148.077 19.8095C153.65 21.5719 156.369 27.6343 154.376 34.0289Z" fill="#B8DBDD"/>
</g>
<g filter="url(#filter2_d)">
<circle cx="455.558" cy="61.5578" r="12.5578" fill="#D86B8C"/>
</g>
<g filter="url(#filter3_d)">
<circle cx="16.5578" cy="35.5578" r="12.5578" fill="#D86B8C"/>
</g>
<defs>
<filter id="filter0_d" x="262.293" y="60" width="71.8505" height="71.5579" filterUnits="userSpaceOnUse" color-interpolation-filters="sRGB">
<feFlood flood-opacity="0" result="BackgroundImageFix"/>
<feColorMatrix in="SourceAlpha" type="matrix" values="0 0 0 0 0 0 0 0 0 0 0 0 0 0 0 0 0 0 127 0"/>
<feOffset dy="2.70684"/>
<feGaussianBlur stdDeviation="1.35342"/>
<feColorMatrix type="matrix" values="0 0 0 0 0 0 0 0 0 0 0 0 0 0 0 0 0 0 0.25 0"/>
<feBlend mode="normal" in2="BackgroundImageFix" result="effect1_dropShadow"/>
<feBlend mode="normal" in="SourceGraphic" in2="effect1_dropShadow" result="shape"/>
</filter>
<filter id="filter1_d" x="95.2932" y="0" width="74.4763" height="74.217" filterUnits="userSpaceOnUse" color-interpolation-filters="sRGB">
<feFlood flood-opacity="0" result="BackgroundImageFix"/>
<feColorMatrix in="SourceAlpha" type="matrix" values="0 0 0 0 0 0 0 0 0 0 0 0 0 0 0 0 0 0 127 0"/>
<feOffset dy="2.70684"/>
<feGaussianBlur stdDeviation="1.35342"/>
<feColorMatrix type="matrix" values="0 0 0 0 0 0 0 0 0 0 0 0 0 0 0 0 0 0 0.25 0"/>
<feBlend mode="normal" in2="BackgroundImageFix" result="effect1_dropShadow"/>
<feBlend mode="normal" in="SourceGraphic" in2="effect1_dropShadow" result="shape"/>
</filter>
<filter id="filter2_d" x="439" y="49" width="33.1156" height="33.1156" filterUnits="userSpaceOnUse" color-interpolation-filters="sRGB">
<feFlood flood-opacity="0" result="BackgroundImageFix"/>
<feColorMatrix in="SourceAlpha" type="matrix" values="0 0 0 0 0 0 0 0 0 0 0 0 0 0 0 0 0 0 127 0"/>
<feOffset dy="4"/>
<feGaussianBlur stdDeviation="2"/>
<feColorMatrix type="matrix" values="0 0 0 0 0 0 0 0 0 0 0 0 0 0 0 0 0 0 0.25 0"/>
<feBlend mode="normal" in2="BackgroundImageFix" result="effect1_dropShadow"/>
<feBlend mode="normal" in="SourceGraphic" in2="effect1_dropShadow" result="shape"/>
</filter>
<filter id="filter3_d" x="0" y="23" width="33.1156" height="33.1156" filterUnits="userSpaceOnUse" color-interpolation-filters="sRGB">
<feFlood flood-opacity="0" result="BackgroundImageFix"/>
<feColorMatrix in="SourceAlpha" type="matrix" values="0 0 0 0 0 0 0 0 0 0 0 0 0 0 0 0 0 0 127 0"/>
<feOffset dy="4"/>
<feGaussianBlur stdDeviation="2"/>
<feColorMatrix type="matrix" values="0 0 0 0 0 0 0 0 0 0 0 0 0 0 0 0 0 0 0.25 0"/>
<feBlend mode="normal" in2="BackgroundImageFix" result="effect1_dropShadow"/>
<feBlend mode="normal" in="SourceGraphic" in2="effect1_dropShadow" result="shape"/>
</filter>
</defs>
</svg>
