<svg width="1121" height="133" viewBox="0 0 1121 133" fill="none" xmlns="http://www.w3.org/2000/svg">
<path d="M66.61 56.54C70.1615 58.2836 73.4751 60.4748 76.47 63.06C83.9607 70.6424 88.1613 80.8715 88.1613 91.53C88.1613 102.188 83.9607 112.418 76.47 120C72.8339 123.839 68.4399 126.881 63.5667 128.933C58.6934 130.985 53.447 132.002 48.16 131.92H0.530029V3.75H36.31C41.0559 3.68355 45.7647 4.59481 50.1431 6.42705C54.5216 8.25929 58.4759 10.9733 61.76 14.4C65.0158 17.5711 67.5954 21.3688 69.3433 25.5641C71.0912 29.7594 71.9712 34.2653 71.93 38.81C71.93 45 69 52.33 66.61 56.54ZM36.31 28.79H26.21V52.25C28.49 52.1367 31.6967 51.9233 35.83 51.61C41.93 50.93 47.13 46.36 47.13 39.85C47.1462 36.9532 46.019 34.1669 43.9932 32.0961C41.9674 30.0254 39.2065 28.8374 36.31 28.79ZM63 91.53C62.9449 87.5203 61.386 83.6774 58.6321 80.7624C55.8782 77.8474 52.1302 76.0728 48.13 75.79C40.5 75.37 33.9 75.71 26.18 75.71V106.8H48.16C50.1393 106.779 52.0948 106.367 53.914 105.587C55.7332 104.807 57.38 103.674 58.7595 102.255C60.1389 100.835 61.2239 99.157 61.9517 97.3163C62.6795 95.4756 63.0358 93.509 63 91.53Z" fill="#AB3A2B"/>
<path d="M176.57 3.42999V29.11H125V55H163.65V80.69H125V106.53H176.53V132.13H99.28V3.42999H176.57Z" fill="#AB3A2B"/>
<path d="M213.45 3.75V106.32H265V131.92H187.69V3.75H213.45Z" fill="#AB3A2B"/>
<path d="M301.87 3.75V106.32H353.39V131.92H276.1V3.75H301.87Z" fill="#AB3A2B"/>
<path d="M430.59 56.54C434.143 58.2812 437.457 60.4726 440.45 63.06C447.941 70.6424 452.141 80.8715 452.141 91.53C452.141 102.189 447.941 112.418 440.45 120C436.816 123.839 432.424 126.88 427.552 128.932C422.68 130.984 417.435 132.002 412.15 131.92H364.52V3.75001H400.3C405.044 3.68374 409.752 4.59513 414.128 6.4274C418.505 8.25966 422.458 10.9736 425.74 14.4C428.999 17.5692 431.581 21.3664 433.331 25.562C435.081 29.7575 435.962 34.2644 435.92 38.81C435.92 45 433 52.33 430.59 56.54ZM400.3 28.79H390.2V52.25C392.48 52.1367 395.687 51.9233 399.82 51.61C405.92 50.93 411.11 46.36 411.11 39.85C411.126 36.9549 410 34.1701 407.977 32.0996C405.953 30.0292 403.195 28.84 400.3 28.79ZM427 91.53C426.945 87.5203 425.386 83.6774 422.632 80.7625C419.878 77.8475 416.13 76.0728 412.13 75.79C404.51 75.37 397.9 75.71 390.19 75.71V106.8H412.13C414.112 106.783 416.071 106.374 417.893 105.595C419.716 104.817 421.366 103.685 422.749 102.265C424.132 100.846 425.219 99.1658 425.949 97.3232C426.678 95.4805 427.036 93.5116 427 91.53Z" fill="#AB3A2B"/>
<path d="M569.49 21.88C582.27 34.6533 588.66 49.9867 588.66 67.88C588.66 85.7733 582.27 101.107 569.49 113.88C563.513 119.997 556.35 124.831 548.441 128.086C540.532 131.341 532.042 132.948 523.49 132.81C505.49 132.757 490.157 126.447 477.49 113.88C464.77 101.16 458.407 85.8267 458.4 67.88C458.393 49.9333 464.757 34.6 477.49 21.88C490.263 9.1 505.597 2.70999 523.49 2.70999C541.383 2.70999 556.717 9.1 569.49 21.88ZM495.94 40.16C492.313 43.7821 489.436 48.0837 487.473 52.8187C485.51 57.5537 484.499 62.6292 484.499 67.755C484.499 72.8808 485.51 77.9563 487.473 82.6913C489.436 87.4263 492.313 91.7279 495.94 95.35C501.408 100.783 508.361 104.478 515.924 105.97C523.486 107.462 531.321 106.685 538.443 103.736C545.565 100.787 551.657 95.7987 555.951 89.3975C560.246 82.9964 562.552 75.4683 562.58 67.76C562.52 57.4352 558.391 47.5504 551.09 40.2495C543.79 32.9486 533.905 28.8203 523.58 28.76C518.436 28.651 513.325 29.6075 508.568 31.5694C503.811 33.5313 499.512 36.4561 495.94 40.16Z" fill="#AB3A2B"/>
<path d="M671.34 3.75V29.27H639.85V131.92H614V29.27H582.45V3.75H671.34Z" fill="#AB3A2B"/>
<path d="M766.59 3.75V29.27H735.1V131.92H709.26V29.27H677.7V3.75H766.59Z" fill="#AB3A2B"/>
<path d="M871.54 21.88C884.32 34.6533 890.71 49.9867 890.71 67.88C890.71 85.7733 884.32 101.107 871.54 113.88C865.562 119.997 858.4 124.831 850.491 128.085C842.582 131.34 834.092 132.948 825.54 132.81C807.54 132.757 792.207 126.447 779.54 113.88C766.82 101.16 760.46 85.8267 760.46 67.88C760.46 49.9333 766.82 34.6 779.54 21.88C792.32 9.1 807.653 2.70999 825.54 2.70999C843.427 2.70999 858.76 9.1 871.54 21.88ZM798 40.16C794.373 43.7821 791.496 48.0837 789.533 52.8187C787.57 57.5537 786.559 62.6292 786.559 67.755C786.559 72.8808 787.57 77.9563 789.533 82.6913C791.496 87.4263 794.373 91.7279 798 95.35C803.467 100.784 810.419 104.48 817.982 105.973C825.544 107.466 833.379 106.689 840.501 103.74C847.623 100.791 853.714 95.8014 858.007 89.3993C862.301 82.9972 864.605 75.4684 864.63 67.76C864.645 60.0337 862.365 52.477 858.079 46.0487C853.792 39.6203 847.693 34.6098 840.555 31.653C833.417 28.6962 825.561 27.9262 817.985 29.4408C810.409 30.9554 803.453 34.6862 798 40.16Z" fill="#AB3A2B"/>
<path d="M964.48 86.84L1027.22 0.730011V131.92H1001.46V78.81L964.46 129.86L927.41 78.81V131.92H901.67V0.730011L964.48 86.84Z" fill="#AB3A2B"/>
<path d="M1078.83 106.69C1085.94 106.69 1093.83 100.78 1093.83 93.69C1093.83 81.99 1078.12 80.35 1069.26 77.28C1053.63 71.96 1039.83 59.13 1039.83 41.67C1039.86 31.7847 1043.63 22.2765 1050.38 15.0581C1057.13 7.83959 1066.37 3.44638 1076.23 2.76216C1086.09 2.07795 1095.85 5.15348 1103.54 11.3701C1111.22 17.5867 1116.27 26.4832 1117.66 36.27L1092.08 41.67C1092.07 38.2222 1090.69 34.9198 1088.24 32.4893C1085.8 30.0589 1082.49 28.6994 1079.04 28.71C1075.59 28.7206 1072.29 30.1004 1069.86 32.5459C1067.43 34.9914 1066.07 38.3022 1066.08 41.75C1066.08 53.29 1080.7 56.37 1089.6 59.01C1105.77 63.67 1120.04 76.01 1120.04 93.84C1120.04 115.46 1100.64 132.91 1079.04 132.91C1059.22 132.91 1041.3 118.37 1038.38 99.29L1063.96 93.84C1063.96 101 1071.73 106.84 1078.96 106.84L1078.83 106.69Z" fill="#AB3A2B"/>
</svg>
