<svg xmlns="http://www.w3.org/2000/svg" viewBox="0 0 54.36 54.34"><defs><style>.cls-1{fill:#fff;}.cls-2{fill:#1c1c1c;}</style></defs><title>rewind</title><g id="Layer_2" data-name="Layer 2"><g id="Layer_1-2" data-name="Layer 1"><path class="cls-1" d="M27.18,54.34A27.17,27.17,0,1,0,0,27.17,27.17,27.17,0,0,0,27.18,54.34Z"/><path class="cls-2" d="M21.94,27.16a1.14,1.14,0,0,0,0,1.18,1.18,1.18,0,0,0,.44.42L39.83,38.84a1.2,1.2,0,0,0,.59.15,1.22,1.22,0,0,0,.59-.17,1.18,1.18,0,0,0,.43-.43,1.34,1.34,0,0,0,.17-.59V17.68a1.26,1.26,0,0,0-.17-.59,1.18,1.18,0,0,0-.43-.43,1.23,1.23,0,0,0-.59-.15,1.11,1.11,0,0,0-.59.16L22.37,26.73A1.11,1.11,0,0,0,21.94,27.16Z"/><path class="cls-2" d="M16,15.35H13.64a.89.89,0,0,0-.89.89v21.1a.89.89,0,0,0,.89.89H16a.89.89,0,0,0,.89-.89V16.24A.89.89,0,0,0,16,15.35Z"/></g></g></svg>