<?xml version="1.0" encoding="utf-8"?>
<!-- Generator: Adobe Illustrator 24.0.1, SVG Export Plug-In . SVG Version: 6.00 Build 0)  -->
<svg version="1.1" xmlns="http://www.w3.org/2000/svg" xmlns:xlink="http://www.w3.org/1999/xlink" x="0px" y="0px"
	 viewBox="0 0 125 166.5" style="enable-background:new 0 0 125 166.5;" xml:space="preserve">
<style type="text/css">
	.st0{opacity:0.92;fill:#564539;}
	.st1{fill:#564539;}
	.st2{fill:#A9A39C;}
	.st3{fill:#4A6668;}
	.st4{fill:#DED8C9;}
	.st5{fill:#030700;}
	.st6{fill:#695444;}
</style>
<g id="Layer_2">
</g>
<g id="Layer_1">
	<path class="st0" d="M93.2,41.9c-0.9-3.4-3.4-6.2-5.5-8.9c-2.3-3-4.6-6-6.9-9c-2-2.5-4.2-5.1-7.1-6.5c-3-1.3-6.3-2-9.6-2.1
		c-3.9-0.3-7.9-0.5-11.8-0.7l-3.1-0.5c-2.3-1.2-7.7-0.1-7.7-0.1l-1.8,1.8c-0.1,0-0.2,0-0.3,0.1L39.3,16c-1.5,0.6-2.9,1.4-4.1,2.4
		c-0.6,0.6-1.1,1.2-1.5,2c-0.1,0.2-0.2,0.5-0.3,0.7c-0.6,1.1-1.1,2.2-1.6,3.3c-0.5,1.4-1.5,2.5-2.8,3.3c-1.2,0.8-2.5,1.3-3.8,2
		c-1.5,0.6-2.7,1.7-3.6,3c-0.9,1.3-1.5,2.8-1.6,4.4c-0.6,4-0.7,8.1-0.3,12.1c0.4,3.5,0.7,7,0.7,10.5c-0.4,4-0.7,7.9-0.8,11.9
		c-0.1,4.3-0.5,9,0.7,13.1c1.4,4.1,3.2,8,5.5,11.7c1.2,2.3,2.6,4.5,4,6.8c0,0.1,0.1,0.3,0.1,0.4h0c4.2,8.6,9.2,16.8,14.1,25l1.5,3.2
		l2.8,2.8c0.2,0.3,0.5,0.5,0.7,0.7l0.8,0.7l0-0.2c3.4,2.4,8.2,2.5,9.1,2.5c1.4,1.3,3.6,2.6,4.8,0.6c0.2-0.6,0.4-1.2,0.4-1.8
		c0.1-0.5,0.2-0.9,0.4-1.4c0.5-1,1.1-2,1.7-3c0.6-0.9,1.1-1.9,1.6-3c0.2-0.1,0.3-0.2,0.4-0.3c0.1-0.1,0.2-0.3,0.3-0.5
		c0.1-0.2,0.1-0.4,0.1-0.5c0-0.2,0-0.4-0.1-0.5c0,0,0,0,0-0.1c0.9-2.9,1.1-6,0.6-9c-0.2-0.9-1-1.2-1.7-0.9c0-1.3,0-2.6-0.1-3.9
		l0.1-0.5l-1.3-15.3c0.3,0,0.7-0.1,0.9-0.4c0.3-0.2,0.4-0.6,0.5-0.9c-0.1-5.4-0.5-11.2-2.4-16.3c-0.7-1.8-1.6-3.6-2.5-5.3
		C62,68.8,61,62.1,60.9,55.3c0-2.6-0.1-5.3,0.9-7.7c0.1-0.1,0.2-0.2,0.3-0.4c0.8-0.8,1.7-1.3,2.8-1.6c2.6-0.6,5.3-1,7.9-1.2
		c6.3-0.7,12.7-1,19-0.8c0.2,0,0.4-0.1,0.6-0.2c0.2-0.1,0.4-0.2,0.5-0.4c0.1-0.2,0.2-0.4,0.3-0.6C93.2,42.3,93.2,42.1,93.2,41.9z
		 M27.2,84.1L27.2,84.1c0.1,0.1,0.1,0.1,0,0.1C27.2,84.2,27.2,84.2,27.2,84.1C27.2,84.1,27.2,84.1,27.2,84.1z M23.5,58.2
		c0-0.1,0-0.2,0-0.3c0-0.1,0-0.3-0.1-0.4c0.1,0,0.1,0.1,0.2,0.1C23.6,57.8,23.6,58,23.5,58.2z M25.1,88.6c0.9,1.8,1.8,3.5,2.6,5.3
		C26.8,92.1,25.9,90.4,25.1,88.6z M29.3,63.6c0-0.1,0-0.1-0.1-0.2c0-0.1,0.1-0.2,0.1-0.2L29.3,63.6z"/>
	<path class="st1" d="M69.5,118.7c-1-8.2-1.6-16.5-1.9-24.8c0-1.8-2.9-1.8-2.8,0c0.2,8.3,0.9,16.6,1.9,24.8c0,0.4,0.2,0.7,0.4,1
		c0.3,0.3,0.6,0.4,1,0.4c0.4,0,0.7-0.1,1-0.4C69.4,119.4,69.5,119,69.5,118.7z"/>
	<path class="st2" d="M63,59.1l-0.3-8.7c0-0.4-0.1-0.7-0.4-1c-0.3-0.3-0.6-0.4-1-0.4s-0.7,0.1-1,0.4c-0.3,0.3-0.4,0.6-0.4,1
		c0.1,2.9,0.2,5.8,0.3,8.7c0,0.4,0.1,0.7,0.4,1c0.3,0.3,0.6,0.4,1,0.4s0.7-0.1,1-0.4C62.9,59.9,63,59.5,63,59.1z"/>
	<path class="st2" d="M62.8,50.4c0-1.4,1.3-2.2,2.5-2.7c1.8-0.7,3.7-1.2,5.6-1.5c4.4-0.9,8.9-1.2,13.4-1.1c4,0,8,0.5,11.9,1.5
		c3.2,0.9,6.5,2.5,8.4,5.4c2.2,3.4,2.6,8,2.9,12c0.3,2.1,0.3,4.3,0.1,6.5c-0.3,2.3-2.1,0.7-2.9-0.4c-4.1-6.2-10.1-10.8-17.1-13
		c-4.5-1.4-9.2-1.6-13.8-1.8c-4.2-0.2-8.8,0-12.4,2.5c-1.5,1-0.1,3.4,1.4,2.4c3.5-2.3,7.8-2.3,11.8-2c4.5,0.3,9.1,0.5,13.5,2.1
		c3.7,1.3,7.1,3.4,10,6.2c1.4,1.4,2.7,2.9,3.8,4.5c1.2,1.7,2.4,3.5,4.6,3.8c5.1,0.5,4.1-7,3.9-10.1c-0.3-4.4-0.8-9.4-3.1-13.3
		c-4.2-7.3-14.2-8.4-21.8-8.7c-5.4-0.2-10.8,0.3-16.2,1.4c-3.6,0.8-9.5,2-9.4,6.8c0,0.4,0.2,0.7,0.5,0.9c0.3,0.2,0.6,0.4,1,0.4
		c0.4,0,0.7-0.1,1-0.4C62.6,51.2,62.8,50.8,62.8,50.4L62.8,50.4z"/>
	<path class="st2" d="M75.1,46.2c3.2,2,6.4,4.1,9.6,6.2c3,2,6.1,3.9,8.9,6.2c2.8,2.3,4.7,4.9,7.3,7.2c1.1,0.9,2.1,2,2.8,3.3
		c0.6,1.2,1.5,2.3,2.6,3.1c0.3,0.2,0.7,0.2,1.1,0.1c0.4-0.1,0.7-0.3,0.9-0.6c1.3-1.9,1-4.5,0.8-6.7c-0.2-2.4-0.5-4.7-1.1-7
		c-0.4-2.2-1.3-4.3-2.4-6.3c-1.1-1.5-2.5-2.7-4.2-3.6c-3.7-1.8-8-2.3-12-2.3c-4.5-0.1-9,0.5-13.3,1.9c-5.1,1.7-9.4,4.7-13.6,8
		l2.1,1.2c0-1.2,0-2.3,0-3.5c0-0.6,0-1.3,0-1.9c0-0.3,0-0.6,0-0.8v-0.3c-0.2,0.3-0.2,0.3,0,0.2c0.2-0.1,1-0.5,1.3-0.7
		c0.5-0.2,1-0.5,1.6-0.7c1-0.4,2.1-0.8,3.2-1.2c1.7-0.6,1-3.3-0.8-2.7c-1.3,0.4-2.6,0.9-3.9,1.5c-1.3,0.4-2.5,1-3.6,1.8
		c-1,1-0.7,2.5-0.7,3.7c0,1.5,0,3.1,0.1,4.6c0,1,1.2,1.9,2.1,1.2c3.4-2.6,6.8-5.2,10.8-6.8c3.8-1.5,7.8-2.4,11.8-2.6
		c3.7-0.3,7.5,0.1,11.2,1c1.6,0.4,3,1.1,4.3,2.1c1.3,1.2,2.3,2.8,2.7,4.6c0.8,2.3,1.3,4.7,1.6,7.1c0.1,1.1,0.2,2.3,0.2,3.5
		c0.2,1.1,0,2.3-0.5,3.3l1.9-0.5c-1.1-0.7-1.5-2-2.1-3.1c-0.9-1.3-2-2.4-3.2-3.3c-1.2-1.2-2.4-2.5-3.5-3.7c-1.2-1.3-2.5-2.4-3.9-3.5
		c-2.8-2.2-5.9-4.2-8.9-6.1c-3.2-2.1-6.4-4.1-9.6-6.2C75,42.8,73.6,45.2,75.1,46.2L75.1,46.2z"/>
	<path class="st2" d="M70.8,47.6l12.4,0.3c3.9,0.1,8-0.1,11.9,0.9l0.8-2.7c-1.8-0.3-3.5,0-5.2-0.7c-1.5-0.7-3.1-1.2-4.7-1.5
		c-3.5-0.6-7-0.1-10.2,1.4c-3.2,1.7-6.2,3.9-8.9,6.4c-0.3,0.2-0.5,0.4-0.7,0.6c-0.3,0.6,0.3,0.3,0.4,0.3c0.8-0.1,1.5-0.4,2.2-0.7
		c1.7-0.7,3.3-1.6,5-2.5s0.2-3.3-1.4-2.4c-1.4,0.7-2.8,1.6-4.3,2.2c-1.3,0.6-2.9,0.6-3.8,1.8c-0.2,0.3-0.4,0.6-0.5,0.9
		c-0.1,0.3-0.2,0.7-0.1,1c0,0.3,0.1,0.7,0.3,1c0.2,0.3,0.4,0.6,0.7,0.8c0.6,0.4,1.3,0.5,2,0.4c0.7-0.1,1.3-0.4,1.8-0.9
		c2.4-2.1,5-4.1,7.7-5.8c2.7-1.5,5.9-2.1,9-1.7c1.7,0.3,3.3,0.8,4.8,1.6c0.8,0.3,1.6,0.5,2.4,0.6c1,0,1.9,0,2.9,0.1
		c1.8,0.3,2.5-2.2,0.8-2.7c-4-1.1-8.2-0.9-12.2-1l-12.8-0.3c-0.4,0-0.7,0.2-0.9,0.5c-0.2,0.3-0.4,0.6-0.4,1c0,0.4,0.1,0.7,0.4,1
		C70.2,47.5,70.6,47.6,70.8,47.6L70.8,47.6z"/>
	<path class="st2" d="M73.3,46.6c-1.5,0.3-3,0.7-4.4,1.3l-4.3,1.5c-0.4,0.1-0.7,0.3-0.8,0.7c-0.2,0.3-0.2,0.7-0.2,1.1
		c0.1,0.4,0.3,0.7,0.7,0.9c0.3,0.2,0.7,0.2,1.1,0.1l4.2-1.5l2-0.7c0.3-0.1,0.7-0.2,1-0.4l0.4-0.1c0,0,0.6-0.1,0.3-0.1
		c0.4,0,0.7-0.1,1-0.4c0.3-0.3,0.4-0.6,0.4-1s-0.1-0.7-0.4-1C73.9,46.8,73.6,46.6,73.3,46.6L73.3,46.6z"/>
	<path class="st2" d="M67.1,56.3c7.2,0.5,14.7-1,21.7,1.1c3.3,1,5.9,3.1,8.9,4.8c2.9,1.8,5.5,4,7.7,6.6c0.2,0.2,0.4,0.3,0.7,0.4
		c0.3,0,0.5,0,0.8-0.1c0.3-0.1,0.5-0.3,0.6-0.5s0.2-0.5,0.2-0.8c0.4-3.5-1.3-7-2.4-10.2c-0.6-1.6-1-3.4-2-4.8s-2.8-2-4.2-2.7
		c-3.2-1.5-6.6-2.4-10.1-2.5c-3.6-0.1-7.3-0.1-10.9,0.2c-3.6,0.2-8.2,0.5-11.5,2.6c-0.2,0.1-0.4,0.4-0.5,0.6
		c-0.1,0.2-0.2,0.5-0.1,0.8c0,0.3,0.1,0.5,0.3,0.7c0.2,0.2,0.4,0.4,0.7,0.4c1.8,0.7,3.8,0.6,5.6,1.2c1.8,0.6,3.5,1.3,5.2,2.1
		c3.6,1.7,7.2,3.4,11.2,3.5c1.4,0,4,0,4-2.1c0-2.1-2.6-2.4-4-2.6c-1.8-0.1-3.6-0.4-5.4-0.8c-1.9-0.5-3.6-1.3-5.2-2.4
		c-1.5-1-2.9,1.4-1.4,2.4c2.7,1.8,5.8,2.9,9.1,3.3c0.7,0.1,1.4,0.1,2.1,0.2c0.4,0,0.8,0.1,1.2,0.2c0.4,0.1,0.7,0.3,1.1,0.4
		c0.1-0.5,0.1-0.9,0.2-1.4c-0.2,0-0.4,0-0.6,0c-0.4,0-0.7,0-1.1,0c-0.9-0.1-1.7-0.2-2.6-0.4c-3.2-0.8-6.1-2.4-9.1-3.7
		c-1.5-0.7-3-1.2-4.5-1.7c-1.6-0.4-3.4-0.4-4.9-1l0.3,2.6c1.7-0.9,3.6-1.5,5.5-1.7c2.1-0.3,4.2-0.5,6.4-0.6c2-0.1,4-0.1,6-0.1
		c2-0.1,4.1,0,6.1,0.3c2,0.4,4,1.1,5.8,2c0.8,0.4,1.6,0.7,2.3,1.2c0.4,0.2,0.7,0.5,1,0.9c0.3,0.4,0.5,0.8,0.6,1.2c0.7,2,1.4,4,2.1,6
		c0.8,1.9,1.2,3.9,1.1,5.9l2.4-1c-2.4-2.8-5.2-5.1-8.3-7c-3.1-1.7-5.8-3.9-9.2-5c-7.4-2.4-15.2-0.9-22.8-1.3c-1.8-0.1-1.8,2.7,0,2.8
		L67.1,56.3z"/>
	<path class="st2" d="M77.6,54.3h9.6v-2.8c-4.6,0.2-8.8-2.3-13.5-1.4c-0.3,0.1-0.5,0.3-0.7,0.5c-0.2,0.2-0.3,0.5-0.3,0.8
		c0,0.3,0.1,0.6,0.3,0.8c0.2,0.2,0.4,0.4,0.7,0.5c2.8,0.5,5.1-1.5,7.8-1.5c2.7,0.1,5.4,1,7.6,2.5c4.8,3,9.3,6.6,13.4,10.6
		c0.3,0.3,0.6,0.4,1,0.4c0.4,0,0.7-0.1,1-0.4c2-2-0.3-5-1.5-6.7c-1.6-2.3-3.8-4.2-6.3-5.4c-1.3-0.6-2.6-1-4-1.4l-1-0.2l-0.3-0.1
		c-0.7-0.2-1,0.2-0.7,1.5c0.3,0.2,0.6,0.3,0.8,0.5c0.3,0.2,0.6,0.4,1,0.6c2.6,1.5,5.5,2.5,8.4,3.1l-0.3-2.6c-0.5,0.2-1.1,0-1.6,0
		c-0.5,0-1,0.1-1.5,0.3c-0.5,0.2-0.9,0.5-1.2,0.9c-0.3,0.4-0.5,0.9-0.5,1.4c0,0.3,0.1,0.6,0.3,0.8c0.2,0.2,0.4,0.4,0.7,0.5
		c1.3,0.3,2.5,0.7,3.8,1.1c1.7,0.6,2.4-2.1,0.8-2.7c-1.2-0.4-2.5-0.8-3.8-1.1l1,1.3c-0.1,0.6-0.1,0.2,0.2,0.2h1
		c0.8,0,1.5-0.1,2.2-0.4c0.2-0.1,0.4-0.4,0.5-0.6c0.1-0.2,0.2-0.5,0.1-0.8c0-0.3-0.1-0.5-0.3-0.7c-0.2-0.2-0.4-0.4-0.7-0.4
		c-3.1-0.7-6-1.8-8.7-3.4c-1.1-0.7-2.8-1.4-3.9-0.3c-0.2,0.3-0.4,0.6-0.5,0.9c-0.1,0.3-0.1,0.7,0,1c0.1,0.3,0.2,0.6,0.5,0.9
		c0.2,0.3,0.5,0.4,0.8,0.6c0.7,0.2,1.5,0.4,2.2,0.5c0.7,0.2,1.3,0.4,2,0.6c1.4,0.4,2.7,1.1,3.9,2c1.2,0.9,2.2,2,3,3.2
		c0.4,0.6,0.8,1.2,1.1,1.8c0.2,0.3,0.3,0.6,0.5,0.8c0,0.1,0.1,0.3,0.1,0.4s0,0.2,0,0h2c-4.2-4.2-8.9-7.9-13.9-11.1
		c-2.4-1.5-5.2-2.5-8-2.8c-1.4-0.1-2.9,0-4.3,0.4c-1.2,0.4-2.6,1.4-3.9,1.1v2.7c2.1-0.2,4.3,0,6.3,0.6c2.1,0.6,4.3,0.9,6.4,0.9
		c0.4,0,0.7-0.2,0.9-0.5c0.2-0.3,0.4-0.6,0.4-1c0-0.4-0.1-0.7-0.4-1c-0.2-0.3-0.6-0.4-0.9-0.5h-9.6c-0.4,0-0.7,0.2-0.9,0.5
		c-0.2,0.3-0.4,0.6-0.4,1c0,0.4,0.1,0.7,0.4,1C77,54,77.3,54.2,77.6,54.3L77.6,54.3z"/>
	<path class="st2" d="M65.1,77.1c0.5,9.2,1,18.4,1.6,27.6c0.3,4.7,0.5,9.3,0.8,13.9l0.2,3.3c0,1,0.1,2,0.4,3
		c0.8,1.8,3.2,1.9,4.9,2.2c8.8,1.3,17.7-0.4,26.5-0.8c1.7-0.1,3.5,0,5.1-0.7c1.6-0.7,2.3-2.4,2.4-4.2c0.3-4.5,0.4-8.9,0.2-13.4
		c-0.3-10.1-1.2-20.3-0.2-30.4c0.2-1.8-2.6-1.8-2.8,0c-0.8,8.4-0.4,16.8,0,25.1c0.2,4.2,0.3,8.4,0.3,12.6c0,2-0.1,4.1-0.2,6.1
		c0,0.7-0.1,1.2-0.7,1.6c-0.7,0.3-1.4,0.5-2.1,0.4c-4,0.2-8,0.5-12,0.8c-4.1,0.4-8.2,0.6-12.3,0.4c-2,0-4-0.3-6-0.8
		c-0.8-0.2-0.5-1-0.6-1.8c0-1.1-0.1-2.2-0.2-3.3c-0.2-4.2-0.5-8.4-0.7-12.7c-0.6-9.7-1.1-19.4-1.6-29.1
		C67.7,75.4,64.9,75.4,65.1,77.1L65.1,77.1z"/>
	<path class="st2" d="M106.8,78.1c0.2-0.3,0.3-0.7,0.4-1c0.1-0.4,0-0.7-0.1-1.1c-0.1-0.4-0.3-0.7-0.5-1c-0.2-0.3-0.5-0.5-0.9-0.7
		c-1.6-0.9-3.9-0.6-5.6-0.7c-4.2-0.2-8.4-0.3-12.6-0.3c-4.2,0-8.3,0.2-12.4,0.5C73.1,74,71,74.2,69,74.4c-1.5,0.2-3.3,0.3-4,1.9
		c-0.7,1.6,1.7,3.1,2.4,1.4c0.2-0.4,0.5-0.4,0.9-0.4c0.8-0.1,1.7-0.2,2.5-0.2c1.7-0.1,3.3-0.3,4.9-0.4c3.4-0.2,6.7-0.3,10.1-0.4
		c3.4-0.1,6.6,0,9.9,0.1c1.7,0.1,3.3,0.1,5,0.2l2.5,0.2c0.3,0,1.1,0.2,1.2,0.1C103.3,78.2,105.7,79.6,106.8,78.1L106.8,78.1z"/>
	<path class="st2" d="M105.9,75.2H66.6V99h39.3V75.2z"/>
	<path class="st2" d="M105.2,98.3H68.7v23.9h36.5V98.3z"/>
	<path class="st2" d="M109.4,118H70.1v11.2h39.3V118z"/>
	<path class="st3" d="M59.9,60.5c0.1,3.8,0.5,7.7,1.3,11.4c0.3,1.4,0.4,3.6,2.2,4c0.9,0.1,1.8,0.2,2.8,0.1h3.1L93,75.8l13.6-0.1
		c1,0,1.9-1.2,1.2-2.1c-2.8-3.6-5.9-7.1-9.2-10.3c-1.3-1.3-3.3,0.7-2,2c3.1,3,6,6.3,8.7,9.7c0.4-0.7,0.8-1.4,1.2-2.1L84.5,73
		l-10.9,0.1c-1.9,0-3.7,0-5.6,0h-2.5c0,0-1.4,0-1.4,0l0.2,0.1c0.2,0.2,0.2,0.2,0.1,0c0-0.3-0.1-0.5-0.2-0.8c-0.9-3.9-1.5-8-1.5-12
		c0-0.3-0.2-0.7-0.4-0.9s-0.6-0.4-0.9-0.4c-0.3,0-0.7,0.1-0.9,0.4S59.9,60.1,59.9,60.5L59.9,60.5z"/>
	<path class="st3" d="M97.4,62.5c-11.5-4.7-24.5-8.6-36.5-3.2c-1.6,0.8-0.2,3.2,1.4,2.4c11.2-5,23.7-0.9,34.3,3.5
		c0.2,0,0.4,0.1,0.5,0c0.2,0,0.4-0.1,0.5-0.2c0.2-0.1,0.3-0.2,0.4-0.4c0.1-0.1,0.2-0.3,0.2-0.5c0.1-0.4,0-0.7-0.2-1.1
		C98,62.8,97.7,62.6,97.4,62.5L97.4,62.5z"/>
	<path class="st3" d="M60.9,63.1c0.8,1.8,1.5,3.8,2,5.7c0.4,1.5,0.3,4,2,4.7c1,0.2,1.9,0.4,2.9,0.4l2.8,0.3c2.1,0.2,4.2,0.4,6.3,0.5
		c8.3,0.7,16.7,0.7,25-0.3c0.3,0,0.6-0.1,0.8-0.3c0.2-0.2,0.4-0.4,0.5-0.7c0.5-1.5-0.8-2.7-1.7-3.7s-2-2.3-3.1-3.3
		c-1-1.1-2.3-1.9-3.7-2.3c-1.5-0.5-3-0.7-4.4-1.2c-3-1-5.7-2.5-8.8-3.3c-3.1-0.8-6.4-1.2-9.6-1.1c-1.5,0-3.1,0.2-4.5,0.6
		c-1.3,0.4-2.8,0.9-3.4,2.1c-0.5,1.4-0.7,2.9-0.5,4.4c0.1,1.5,0.6,2.9,1.5,4c1.8,2.2,4.7,3.3,7.4,3.8c3.1,0.4,6.2,0.7,9.2,0.7
		l11.6,0.4l6,0.2c1.7,0.1,3.3,0.3,4.7-0.8c0.2-0.2,0.3-0.3,0.3-0.5c0.1-0.2,0.1-0.4,0.1-0.6c0-0.2-0.1-0.4-0.2-0.6
		c-0.1-0.2-0.3-0.3-0.5-0.4c-2.2-1.6-4.5-3-6.9-4.1c-2.5-1.1-5-2-7.7-2.7c-5.3-1.6-10.7-2.9-16.2-3.7c-1.3-0.2-2.6-0.3-4-0.3
		c-1.2,0-2.6-0.3-3.5,0.7s-0.5,2.2-0.5,3.3c0,1.4,0,2.9,0,4.3c-0.1,0.6,0,1.1,0.2,1.7c0.2,0.5,0.5,1,0.9,1.4c0.9,0.6,2,0.7,3.1,0.5
		c2.8-0.2,5.7-0.4,8.6-0.5c6.4-0.2,12.8,0,19.1,0.6c1.5,0.1,1.8-1.9,0.7-2.6c-2.5-1.6-5-3.1-7.6-4.5c-2.5-1.4-5.1-2.6-7.8-3.6
		c-2.8-0.8-5.7-0.9-8.4-0.3c-2.7,0.5-5.7,1.1-8.1,2.5c-0.2,0.1-0.4,0.4-0.5,0.6c-0.1,0.2-0.2,0.5-0.1,0.8c0,0.3,0.1,0.5,0.3,0.7
		c0.2,0.2,0.4,0.4,0.7,0.4l11.6,2.9l6,1.5c1.9,0.6,3.7,1,5.6,1.4c0.3,0,0.7,0,1-0.1c0.3-0.1,0.6-0.3,0.9-0.5
		c0.2-0.2,0.4-0.5,0.6-0.8s0.2-0.6,0.2-1c-0.1-0.7-0.4-1.4-0.9-1.9c-0.5-0.5-1.2-0.8-1.9-0.9c-1.8-0.3-3.5-0.4-5.3-0.8
		c-1.8-0.4-3.6-1-5.4-1.5c-3.3-0.9-7.5-1-9.9,2c-0.2,0.2-0.3,0.4-0.4,0.6c-0.1,0.2-0.1,0.5,0,0.7c0.1,0.2,0.2,0.5,0.4,0.6
		c0.2,0.2,0.4,0.3,0.6,0.4c6.3,1.5,12.8,1.6,19.2,0.4c0.3-0.1,0.5-0.3,0.7-0.5c0.2-0.2,0.3-0.5,0.3-0.8c0-0.3-0.1-0.6-0.3-0.8
		c-0.2-0.2-0.4-0.4-0.7-0.5c-4.8-0.8-9.4-2.4-13.7-4.6c-0.2,0.9-0.5,1.7-0.7,2.6c4.5-0.1,8.2,3.1,11.3,6c0.2-0.8,0.4-1.6,0.6-2.4
		c-4.3,0.9-8.8,1.2-13.2,1c-1.8-0.1-1.8,2.7,0,2.8c4.7,0.2,9.4-0.2,14-1.1c0.2-0.1,0.4-0.2,0.6-0.4s0.3-0.4,0.4-0.6
		c0.1-0.2,0.1-0.5,0-0.7c-0.1-0.2-0.2-0.5-0.4-0.6c-3.8-3.4-8-6.9-13.3-6.8c-0.3,0-0.6,0.1-0.8,0.3c-0.2,0.2-0.4,0.4-0.5,0.7
		c-0.1,0.3-0.1,0.6,0,0.9c0.1,0.3,0.3,0.5,0.6,0.7c4.5,2.4,9.3,4,14.3,4.9v-2.7c-5.8,1.1-11.9,1-17.7-0.4c0.2,0.8,0.4,1.6,0.6,2.3
		c2.2-2.8,6-1.7,8.9-0.8c1.7,0.5,3.4,1,5.2,1.3c1,0.2,2,0.3,3,0.4c0.3,0,0.6,0,0.9,0.1c0.2,0,0.3,0.1,0.5,0.1
		c0.2,0.2,0.2,0.1,0.1-0.1c0.8-0.6,0.6-0.4-0.2-0.6l-1.2-0.3l-3.2-0.8c-1.9-0.5-3.7-0.9-5.6-1.4l-12-3c0.1,0.9,0.2,1.7,0.3,2.6
		c2.1-1.3,4.8-1.8,7.2-2.2c2.6-0.6,5.3-0.4,7.9,0.5c2.4,0.9,4.7,2.1,6.9,3.4c2.4,1.3,4.8,2.7,7.1,4.2c0.2-0.9,0.5-1.7,0.7-2.6
		c-4.9-0.4-9.9-0.7-14.9-0.7c-2.5,0-5,0.1-7.5,0.2c-1.2,0.1-2.3,0.1-3.5,0.2l-1.8,0.1c-0.3,0-1.1,0.2-1.3,0c-0.2-0.2,0-0.5,0-0.8
		c0-0.7,0-1.3,0-2c0-0.7,0-1.1,0-1.6c0.1-0.7,0.1-1.3,0-2v-0.4c-0.5,0.3-0.5,0.4-0.2,0.3c0.2,0.1,0.6,0,0.8,0c0.6,0,1.2,0,1.8,0.1
		c1.3,0.1,2.5,0.2,3.8,0.4c4.8,0.8,9.5,1.9,14.1,3.3c2.5,0.6,5,1.5,7.4,2.5c2.4,1.2,4.7,2.5,6.9,4.1c-0.1-0.7-0.2-1.5-0.3-2.2
		c-0.2,0.2-0.9,0-1.2,0l-2.1-0.1l-4.6-0.2l-8.7-0.3C82.6,71,79.8,71,77,70.8c-2.4,0-4.8-0.4-7-1.3c-1-0.4-2-1-2.8-1.8
		c-0.4-0.5-0.7-1-0.9-1.6c-0.2-0.6-0.2-1.2-0.1-1.8c0-0.6,0-1.1,0.1-1.7c0.2-0.5,0.4-0.5,0.9-0.7c1.2-0.5,2.6-0.7,3.9-0.7
		c5.4-0.2,10.8,0.9,15.7,3.2c1.2,0.6,2.5,1.1,3.8,1.5c1.4,0.3,2.8,0.7,4.2,1.2c1.1,0.7,2.2,1.5,3,2.6c0.5,0.6,1,1.1,1.5,1.7l0.5,0.6
		c0.1,0.1,0.8,0.9,0.8,0.8l1.3-1c-7.8,0.9-15.7,1-23.6,0.4c-4-0.3-7.9-0.6-11.8-1L66,70.9c-0.3-0.1-0.3,0,0.2,0.2
		c-0.1-0.5-0.2-1-0.3-1.5c-0.2-0.9-0.4-1.7-0.6-2.6c-0.5-1.8-1.2-3.6-2-5.3C62.5,60.1,60.1,61.5,60.9,63.1L60.9,63.1z"/>
	<path class="st2" d="M65.6,76c-0.8-0.1-1.5,0-2.3,0.2c-0.8,0.4-0.8,1.2-0.9,2c-0.1,1.9-0.2,3.8-0.1,5.7c0.1,3.9,0.4,7.7,0.8,11.5
		c0.4,3.8,0.8,7.7,1,11.5c0.2,3.7,0.3,7.4,1.4,11c0.1,0.2,0.2,0.4,0.3,0.6c0.1,0.2,0.3,0.3,0.5,0.4c0.2,0.1,0.4,0.1,0.6,0.1
		c0.2,0,0.4-0.1,0.6-0.2c2.5-1.8,1.9-5.2,1.5-7.8c-0.5-3.5-1.3-7-1.7-10.6c-0.7-7-1-14.1-0.8-21.2c0-0.4-0.1-0.7-0.4-1
		c-0.3-0.3-0.6-0.4-1-0.4s-0.7,0.1-1,0.4c-0.3,0.3-0.4,0.6-0.4,1c0,6.5,0,13.1,0.7,19.6c0.3,3.2,0.8,6.4,1.4,9.5
		c0.3,1.6,0.6,3.2,0.7,4.8c0.1,0.8,0.4,2.7-0.4,3.3l2.1,0.8c-0.8-3.2-1.3-6.5-1.3-9.8c-0.2-3.4-0.5-6.8-0.8-10.3
		c-0.3-3.4-0.7-6.9-0.9-10.4c-0.1-1.8-0.1-3.5-0.1-5.3c0-0.8,0-1.6,0.1-2.4c0-0.3,0-0.5,0-0.8l-0.9,0.6c0,0,1.2,0,1.3,0
		C67.4,78.8,67.4,76.1,65.6,76L65.6,76z"/>
	<path class="st2" d="M65,115.9c-0.1,1.4,0,2.8,0.1,4.2c0.1,1.4,0.3,2.7,0.6,4c0.2,0.6,0.5,1.2,1,1.7c0.5,0.5,1.1,0.8,1.8,0.9
		c1.4,0.2,2.8,0.2,4.2,0.1c0.4,0,0.7-0.2,1-0.4c0.3-0.3,0.4-0.6,0.4-1c0-0.4-0.1-0.7-0.4-1c-0.3-0.3-0.6-0.4-1-0.4
		c-1.2,0.1-2.3,0.1-3.5,0h-0.1c-0.1,0-0.2,0-0.3-0.1c-0.1,0-0.1,0,0,0l-0.1-0.1c0.1,0.2-0.1-0.1,0,0s-0.1-0.2-0.1-0.2
		c-0.1-0.2,0,0,0-0.1s-0.1-0.4-0.2-0.7c-0.4-2.3-0.6-4.6-0.5-6.8c0-0.4-0.2-0.7-0.4-1c-0.3-0.3-0.6-0.4-1-0.4c-0.2,0-0.4,0-0.5,0.1
		c-0.2,0.1-0.3,0.2-0.5,0.3c-0.1,0.1-0.2,0.3-0.3,0.5C65.1,115.6,65.1,115.8,65,115.9L65,115.9z"/>
	<path class="st4" d="M65.8,140.5c-0.3-1.6-0.2-3.3,0.2-4.8c0.5-1.7,1.4-3.2,2-4.8c0.1-0.4,0-0.7-0.1-1.1c-0.2-0.3-0.5-0.6-0.8-0.7
		c-0.4-0.1-0.7-0.1-1.1,0.1c-0.3,0.2-0.6,0.5-0.7,0.9c-0.6,1.8-1.6,3.4-2.1,5.2c-0.5,2-0.5,4-0.1,6c0.1,0.4,0.3,0.7,0.7,0.9
		c0.3,0.2,0.7,0.2,1.1,0.1c0.4-0.1,0.7-0.3,0.8-0.7C65.9,141.3,66,140.9,65.8,140.5L65.8,140.5z"/>
	<path class="st4" d="M68.2,130.3c0.2-1.9,2.7-2.4,4.2-2.5c2.3-0.2,4.6-0.2,6.8-0.2l14.2-0.4c2.3-0.1,4.6-0.2,6.9-0.2
		c1-0.1,2.1,0,3.1,0.3c0.9,0.4,1.7,1,2.3,1.8c1.3,1.5,2.3,3.3,2.9,5.2c0.3,1,0.6,1.9,0.8,2.9c0.1,0.7,0.5,1.9-0.4,2
		c-2.2,0.2-4.4,0.3-6.6,0.3c-2.3,0.1-4.7,0.2-7,0.3c-4.7,0.2-9.5,0.3-14.2,0.3c-4.8,0.1-9.5,0.1-14.2,0.1c-0.2,0-0.5,0-0.7,0
		l0.3,0.5c0-0.1,0-0.1,0.1-0.2c0.3-0.5,0.5-0.9,0.7-1.5c0.5-1.1,1-2.2,1.5-3.3c0.8-1.7,1.5-3.8,2.7-5.3c1.3-1.5,3.2-1.7,5.1-1.6
		c2.3,0,4.6,0.1,6.9,0.2c4.7,0.2,9.4,0.3,14.1,0.5c1.9,0.1,4.3-0.2,6,0.9c1.5,1.1,2.5,2.8,2.8,4.6c0.3,1,0.3,2.1,0.6,3.1
		c-0.1-0.4,0.7-0.1-0.1-0.3c-0.3,0-0.5,0-0.8,0.1c-0.6,0-1.3,0-1.9,0c-2.2-0.1-4.5-0.3-6.8-0.3c-9.3-0.1-18.6,1.2-28,0.9
		c-0.6-0.1-1.2-0.1-1.8-0.1h-0.2c-0.5-0.1-0.5,0.3,0.2,1.1c0,0,0.5-0.6,0.4-0.5c0.8-0.9,1.7-1.7,2.5-2.5c1.6-1.6,3.2-3.1,4.9-4.6
		c0.6-0.6,1.4-1.2,2.1-1.6c1-0.4,2.2-0.7,3.3-0.6c2.4-0.1,4.7-0.2,7.1-0.3c4.1-0.1,8.7-0.4,12.5,1.5c1.5,0.7,2.9,1.8,3.9,3.1
		c0.4,0.7,0.8,1.4,1.1,2.1c-0.2-0.3,0.1,0.4,0.1,0.4c0,0,0.2-0.2,0.3-0.3h-0.5l-1.8-0.1c-4.7-0.2-9.3-0.5-14-0.4
		c-4.7,0.1-9.2,0.8-13.8,1.3c-2.2,0.3-4.5,0.3-6.8,0.1l1.3,1c-0.1-0.8-0.1-1.6,0.2-2.4c0.3-0.8,0.7-1.4,1.3-2c1.3-1.2-0.7-3.2-2-2
		c-0.9,0.9-1.6,2-2,3.3c-0.4,1.2-0.5,2.6-0.2,3.8c0.1,0.3,0.3,0.5,0.5,0.7s0.5,0.3,0.8,0.3c5.5,0.5,10.9-0.9,16.4-1.3
		c5.5-0.3,11-0.2,16.4,0.2c1.3,0.1,2.6,0.2,3.9,0.2c0.6,0.1,1.2-0.1,1.7-0.4c0.5-0.3,0.9-0.8,1.1-1.3c0.5-1.9-1.1-4.2-2.2-5.6
		c-3.1-3.6-7.9-4.8-12.4-5c-2.6-0.1-5.3,0-7.9,0.1l-4,0.2c-1.3,0-2.7,0.1-4,0.4c-2.4,0.7-4.2,2.7-6,4.3c-1.9,1.8-3.9,3.6-5.7,5.5
		c-0.7,0.8-1.5,1.7-1,2.8s1.6,1.3,2.8,1.4c2.8,0.1,5.6,0.1,8.4,0c5.5-0.2,10.9-0.7,16.3-0.9c2.9-0.1,5.7-0.1,8.6,0.1
		c1.2,0.1,2.5,0.2,3.7,0.2c1.3,0.1,2.5,0,3.8-0.4c0.5-0.2,0.8-0.6,1-1.1c0.2-0.5,0.3-1,0.1-1.5c-0.2-1.2-0.4-2.4-0.7-3.5
		c-0.5-2.3-1.8-4.3-3.6-5.8c-2-1.5-4.3-1.5-6.7-1.6l-8.3-0.3l-8.7-0.3c-2.5-0.2-5-0.2-7.4-0.1c-1.1,0.1-2.2,0.4-3.1,1
		c-1,0.5-1.8,1.3-2.4,2.2c-1.3,2.1-2.4,4.4-3.3,6.7c-0.8,1.7-3.2,5.1-0.9,6.6c1,0.6,2.3,0.4,3.4,0.4h4.1c11.2,0,22.4-0.3,33.6-0.9
		c2.1-0.1,5.2,0.3,6.2-2c0.4-1,0.4-2.1,0.1-3.2c-0.2-1.2-0.5-2.5-0.9-3.7c-0.8-2.3-2-4.4-3.6-6.2c-0.8-0.9-1.7-1.6-2.8-2.1
		c-1.1-0.5-2.2-0.7-3.4-0.7c-2.7-0.1-5.4,0.1-8,0.2l-8.2,0.2l-8.6,0.3c-2.5,0.1-5.2-0.1-7.6,0.8c-1,0.4-1.8,1-2.5,1.8
		c-0.6,0.8-1,1.8-1.1,2.8C65.3,132.1,68.1,132.1,68.2,130.3L68.2,130.3z"/>
	<path class="st4" d="M71.9,133.3c1.3-0.6,2.3-1.7,2.9-3c0.1-0.2,0.2-0.5,0.2-0.7c0-0.2-0.1-0.4-0.2-0.6c-0.1-0.2-0.3-0.4-0.5-0.5
		c-0.2-0.1-0.5-0.2-0.7-0.2h-4.2c-0.4,0-0.7,0.1-1,0.4c-0.3,0.3-0.4,0.6-0.4,1s0.1,0.7,0.4,1c0.3,0.3,0.6,0.4,1,0.4h4.2l-1.2-2.1
		c-0.2,0.4-0.3,0.7-0.6,1c0.1-0.1,0.1-0.2,0.2-0.3c-0.3,0.3-0.5,0.6-0.9,0.9l0.3-0.2c-0.3,0.2-0.6,0.4-0.9,0.5
		c-0.2,0.1-0.3,0.2-0.4,0.4c-0.1,0.1-0.2,0.3-0.2,0.5c-0.1,0.4,0,0.8,0.1,1.1c0.1,0.2,0.2,0.3,0.4,0.4c0.1,0.1,0.3,0.2,0.5,0.2
		C71.2,133.5,71.6,133.5,71.9,133.3L71.9,133.3z"/>
	<path class="st5" d="M72.7,136.6c0.8-2.4,1.8-4.8,4.6-5.2c3.5-0.4,6.9-0.6,10.4-0.6c1.7,0,3.4,0,5.1,0c1.7-0.1,3.4,0,5.1,0.1
		c1.4,0.2,2.7,1.4,3.7,2.2c1.1,0.8,2,1.9,2.6,3.1l1.2-2.1c-6.2,0.1-12.3,0.2-18.5,0.2c-3,0-6,0-9-0.1c-1.4,0-2.8-0.1-4.3-0.1
		c-0.6,0-1.2,0.1-1.7,0.3c-0.6,0.2-1.1,0.6-1.5,1c-0.2,0.2-0.3,0.4-0.4,0.7s0,0.6,0.1,0.8c0.1,0.3,0.3,0.5,0.5,0.6s0.5,0.2,0.8,0.2
		c5.7,0.3,11.5,0.7,17.2,0.6c5.5-0.1,11-0.8,16.4-2.2c0.3-0.1,0.5-0.2,0.7-0.4c0.2-0.2,0.3-0.5,0.3-0.7c0-0.3,0-0.5-0.1-0.8
		c-0.1-0.2-0.3-0.5-0.5-0.6c-5.2-3.3-11.4-5-17.6-4.9c-3.2,0-6.5,0.4-9.6,1.2c-2.3,0.5-6.6,1.2-5.9,4.4c0.1,0.3,0.3,0.5,0.5,0.7
		c0.2,0.2,0.5,0.3,0.8,0.3l25.9-0.8c1.1,0,2-1.6,1-2.4c-1.6-1.3-3.4-1.4-5.3-1.6c-2.2-0.2-4.4-0.4-6.7-0.5c-4-0.1-8.1,0.2-11.7,1.9
		c-1.4,0.7-0.5,2.5,0.7,2.6l0.9,0.1c0.8,0.1,1.4-0.7,1.4-1.4c0-0.4-0.2-0.7-0.4-1c-0.3-0.3-0.6-0.4-1-0.4l-0.9-0.1
		c0.2,0.9,0.5,1.7,0.7,2.6c3.1-1.5,6.6-1.7,10-1.6c1.9,0.1,3.8,0.2,5.6,0.3c1.4,0.1,3.6,0,4.8,1c0.3-0.8,0.7-1.6,1-2.4l-25.9,0.8
		l1.3,1c0.1,0.4-0.1,0.2,0.3,0c0.1-0.1,0.3-0.1,0.4-0.2c0.7-0.2,1.4-0.4,2.1-0.6c1.3-0.3,2.7-0.6,4-0.9c2.6-0.4,5.3-0.6,8-0.4
		c5,0.2,9.9,1.8,14.1,4.5c0.1-0.9,0.2-1.7,0.3-2.6c-5.2,1.3-10.6,2-16,2.1c-5.6,0.1-11.2-0.4-16.8-0.6c0.3,0.8,0.7,1.6,1,2.4
		c0.6-0.7,2-0.5,2.8-0.5c1.4,0,2.9,0.1,4.3,0.1c2.9,0,5.8,0,8.6,0.1c5.8,0,11.5-0.1,17.2-0.2c0.2,0,0.5-0.1,0.7-0.2
		c0.2-0.1,0.4-0.3,0.5-0.5c0.1-0.2,0.2-0.5,0.2-0.7c0-0.2-0.1-0.5-0.2-0.7c-0.7-1.4-1.7-2.7-3-3.7c-1.3-1.2-2.7-2.2-4.3-2.8
		c-1.8-0.5-3.8-0.3-5.6-0.4c-2.1,0-4.3-0.1-6.4,0c-2.1,0.1-4.1,0.1-6.2,0.2c-1.9,0-3.8,0.2-5.7,0.7c-3.2,1-4.5,4.1-5.4,6.9
		c-0.5,1.7,2.2,2.4,2.8,0.7L72.7,136.6z"/>
	<path class="st4" d="M70,137.6c0.4-1.3,0.8-2.5,1.2-3.7c0.3-1.2,0.8-2.4,1.5-3.4c0.7-1,1.6-1.1,2.7-1.2c1.3-0.1,2.7-0.3,4.1-0.4
		c5.6-0.5,11.3-0.7,16.9-0.7c1,0,2.6-0.2,3.6,0.2c1,0.4,1.8,1.7,2.4,2.6c0.7,0.9,1.2,1.9,1.7,3c0.2,0.5,0.4,1.1,0.5,1.7
		c0,0.2,0,0.4,0.1,0.7c0.6-0.4,0.7-0.6,0.3-0.4l-0.6,0.1c-5.5,0.9-11.1,1.4-16.7,1.6c-3.1,0.1-6.3,0.2-9.4,0.1
		c-1.6,0-3.1-0.1-4.7-0.2c-1.5,0-2.9-0.2-4.3-0.7c-1.6-0.7-3.1,1.7-1.4,2.4c2.9,1.3,6.2,1.1,9.2,1.2c3.3,0.1,6.5,0.1,9.8,0
		c3.3-0.1,6.7-0.3,10-0.7c1.5-0.2,3-0.3,4.5-0.5l2.4-0.3c0.9,0,1.7-0.2,2.5-0.5c2.8-1.1,0.6-5.7-0.4-7.4c-1.2-2.2-3-5.1-5.6-5.5
		c-1.4-0.2-2.8-0.2-4.3-0.1c-1.8,0-3.5,0-5.3,0.1c-3.3,0.1-6.5,0.3-9.8,0.5c-1.8,0.1-3.5,0.3-5.3,0.5s-3.2,0.3-4.4,1.6
		c-0.9,1.1-1.6,2.3-2,3.6c-0.7,1.7-1.2,3.4-1.8,5.2c-0.1,0.3,0,0.7,0.2,1c0.2,0.3,0.5,0.5,0.8,0.6c0.3,0.1,0.7,0.1,1-0.1
		C69.6,138.2,69.8,137.9,70,137.6L70,137.6z"/>
	<path class="st6" d="M106.5,76.2c-0.2,7.7,0.2,15.3,0.4,23c0.2,3.8,0.3,7.6,0.3,11.4c0,3.8-0.2,7.5-0.1,11.3s1.2,7.4,4.1,9.9
		c0.2,0.2,0.5,0.3,0.7,0.4s0.5,0,0.8-0.1c0.3-0.1,0.5-0.3,0.6-0.5c0.2-0.2,0.2-0.5,0.3-0.8c0.1-6.9-0.4-13.8-0.7-20.6
		c-0.3-6.9-0.6-13.9-0.9-20.8c-0.2-4-0.4-8-0.5-12c-0.1-1.8-2.9-1.8-2.8,0l1.9,41.7c0.2,3.9,0.4,7.8,0.3,11.7l2.4-1
		c-2.4-2.1-3.2-5.2-3.2-8.3c-0.1-3.6,0.1-7.2,0.1-10.9c-0.1-7.3-0.5-14.6-0.7-21.9c-0.1-4.1-0.2-8.3-0.1-12.4
		C109.4,74.4,106.6,74.4,106.5,76.2L106.5,76.2z"/>
	<path class="st6" d="M111.6,77c0-1.5-0.5-3.1-2.1-3.4c-1.6-0.3-2.7,1.2-3,2.7c-0.3,1.9,0.2,4,0.6,5.9c0.3,2.2,0.8,4.3,1.2,6.5
		c1.5,8.5,1.8,17.3,1.8,25.9c0,2.4-0.2,4.8-0.6,7.1c-0.5,2.3-0.5,4.7,0,7.1c0.1,0.3,0.4,0.6,0.7,0.8c0.3,0.2,0.7,0.2,1,0.1
		c0.3-0.1,0.6-0.3,0.8-0.6c0.2-0.3,0.3-0.7,0.2-1c-0.9-3.4,0.4-7,0.6-10.4c0.2-3.6,0-7.3-0.1-10.9c-0.2-7.3-0.9-14.6-2.3-21.7
		c-0.4-2-0.8-4.1-1-6.2c-0.1-0.8,0-1.5-0.1-2.3c0-0.1,0.1-0.2,0.1-0.2s0.1-0.2-0.2,0c-0.2,0.2-0.3,0.1-0.4,0c-0.2,0.1,0-0.2,0,0.2
		c0,0.2,0,0.4,0,0.6c0,0.4,0.1,0.7,0.4,1c0.3,0.3,0.6,0.4,1,0.4c0.4,0,0.7-0.1,1-0.4C111.4,77.7,111.6,77.4,111.6,77L111.6,77z"/>
	<path class="st6" d="M107.8,125.4c0.3,2.4,1,4.7,2.2,6.9c0.9,1.9,1.6,4,0.9,6.1l2.8,0.4c0-0.7,0.1-1.4,0.2-2.2s0-1.6,0-2.3
		c0-1.5-0.1-3.1-0.1-4.6c0-1.8-2.8-1.8-2.8,0c0,1.5,0.1,3.1,0.1,4.6c0,0.7,0,1.5,0,2.2c0,0.7-0.2,1.5-0.2,2.3c0,0.3,0.1,0.6,0.4,0.9
		c0.2,0.2,0.5,0.4,0.9,0.4c0.3,0,0.7,0,0.9-0.2c0.3-0.2,0.5-0.4,0.6-0.8c0.6-2.4,0.4-4.9-0.7-7.1c-0.9-2.2-2.2-4.3-2.3-6.7
		C110.5,123.6,107.7,123.6,107.8,125.4L107.8,125.4z"/>
	<path class="st4" d="M104.6,127.9c1,0.7,2,1.5,2.8,2.4c0.9,0.9,1.7,2,2.2,3.2c0.6,1.2,1.1,2.5,1.3,3.9c0,0.3,0,0.6,0,0.9
		c0,0.2,0.1,0.2-0.2,0.3c-0.2,0.1-0.5,0.2-0.8,0.3c-0.1,0-0.3,0.1-0.4,0.1h-0.2c-0.2,0-0.2,0,0,0l0.8,0.6c0-0.1,0-0.3,0-0.4
		c0.1,0.1-0.4-0.2-0.4-0.2c0.2,0.3,0.5,0.5,0.8,0.6c0.3,0.1,0.7,0.1,1,0c0.3-0.1,0.6-0.4,0.7-0.7c0.2-0.3,0.2-0.6,0.1-1
		c-0.2-1-0.6-1.9-1.2-2.7c-0.2-0.3-0.5-0.5-0.9-0.6s-0.7,0-1.1,0.1c-0.2,0.1-0.3,0.2-0.4,0.4c-0.1,0.1-0.2,0.3-0.2,0.5
		c0,0.2-0.1,0.4,0,0.5c0,0.2,0.1,0.4,0.2,0.5c0.4,0.6,0.7,1.3,0.9,2l2.6-1.1c-0.3-0.4-0.7-0.7-1.1-0.9c-0.5-0.2-1-0.3-1.5-0.2
		c-0.5,0.1-1,0.3-1.3,0.6c-0.4,0.3-0.7,0.8-0.8,1.2c-0.2,0.5-0.2,1-0.1,1.5c0.1,0.5,0.3,1,0.6,1.4c0.8,0.8,2.3,0.4,3.2,0.1
		c0.6-0.1,1.1-0.4,1.5-0.8c0.4-0.4,0.8-0.8,1-1.4c0.2-1.1,0.2-2.3-0.1-3.4c-0.2-1-0.6-2-1-3c-0.4-1-0.9-1.9-1.5-2.8
		c-1.4-1.8-3.1-3.4-4.9-4.7c-0.2-0.1-0.3-0.2-0.5-0.2c-0.2,0-0.4,0-0.6,0c-0.2,0-0.4,0.1-0.5,0.2c-0.2,0.1-0.3,0.3-0.4,0.4
		s-0.2,0.3-0.2,0.5c0,0.2,0,0.4,0,0.6c0.1,0.2,0.1,0.4,0.3,0.5C104.3,127.7,104.5,127.8,104.6,127.9z"/>
	<path class="st3" d="M62.4,61.6c0.6,1.5,1.3,3,2.2,4.4c0.8,1.2,1.8,3.2,3.5,3c0.8-0.1,1.2-0.7,1.6-1.2c0.5-0.6,1.1-1.1,1.7-1.5
		c1.2-0.7,2.9-0.8,3.5-2.1c0.3-0.7,0.4-1.5,0.4-2.3c0-0.2,0-0.4,0-0.5c0,0,0-0.1,0-0.2c-1,0.4-1.2,0.6-0.7,0.6c0.3,0,0.7-0.1,1,0
		c0.6,0.1,0.8,0.6,1,1.1c0.3,0.7,0.8,1.2,1.3,1.7c1.4,1,2.8,1.8,4.3,2.5c1.5,0.8,3.1,1.7,4.7,2.4c3.7,1.7,7.7,2.7,11.5,4.2
		c1.7,0.6,2.4-2.1,0.8-2.7c-3.2-1.2-6.6-2.1-9.8-3.4c-3.1-1.4-6.1-2.9-9-4.7c-0.5-0.2-0.9-0.6-1.2-1.1c-0.3-0.5-0.6-1.1-1-1.6
		c-0.5-0.5-1.1-0.9-1.7-1.1c-0.7-0.2-1.4-0.3-2-0.2c-1.8,0.1-2,1.2-2.1,2.8c-0.1,0.4-0.1,0.7-0.1,1.1c0.2,0.4-0.1,0,0.2-0.1
		c-0.2,0.1-0.4,0.1-0.6,0.2c-0.7,0.2-1.4,0.5-2,0.9c-0.7,0.4-1.4,0.9-2,1.5c-0.2,0.2-0.7,0.6-0.8,0.9c0,0-0.1,0.1-0.1,0.1h0.9
		c0,0-0.4-0.5-0.5-0.6c-1.1-1.5-2-3.1-2.6-4.8c-0.6-1.7-3.4-1-2.7,0.7L62.4,61.6z"/>
</g>
</svg>
