<svg width="1269" height="426" viewBox="0 0 1269 426" fill="none" xmlns="http://www.w3.org/2000/svg">
    <g id="easytext-text">
        <path d="M99.5301 297.61L96.7801 323.08L45.6901 317.53L42.9101 343.14L81.2101 347.33L78.4401 372.78L40.1501 368.62L37.3601 394.24L88.4401 399.79L85.6801 425.14L9.07007 416.83L22.9101 289.33L99.5301 297.61Z" fill="#ED9232"/>
        <path d="M144.06 282.59L232.56 394.76L205.56 401.57L192.43 384.85L150 395.57L146.38 416.52L119.49 423.33L144.06 282.59ZM177.06 365.35L159.14 341.98L154.3 371.09L177.06 365.35Z" fill="#ED9232"/>
        <path d="M269.45 350.08C276.02 347.4 281.04 338.99 278.36 332.42C273.95 321.62 258.83 326.02 249.49 326.53C233.06 327.53 215.49 320.86 208.9 304.74C205.207 295.604 205.109 285.409 208.626 276.204C212.142 266.999 219.013 259.467 227.857 255.121C236.701 250.775 246.862 249.938 256.298 252.778C265.733 255.618 273.744 261.925 278.72 270.43L257.14 285.06C255.695 282.084 253.169 279.77 250.078 278.591C246.986 277.412 243.561 277.457 240.501 278.715C237.441 279.974 234.976 282.351 233.608 285.364C232.241 288.377 232.073 291.798 233.14 294.93C237.48 305.58 252.14 302.93 261.35 302C278.04 300.22 295.86 306.22 302.58 322.69C310.72 342.69 299.39 366.07 279.47 374.2C261.17 381.67 239.15 375 229.27 358.47L250.83 343.81C253.53 350.41 262.9 352.87 269.58 350.14L269.45 350.08Z" fill="#ED9232"/>
        <path d="M291.67 229.18L331.26 259.84L334.08 209.84L360.56 197.78L354.78 280.66L377.51 330.51L354.28 341.1L331.56 291.25L265.27 241.25L291.67 229.18Z" fill="#ED9232"/>
        <path d="M477.04 138.46L488.66 161.33L442.89 184.65L454.59 207.65L488.92 190.16L500.55 212.98L466.21 230.47L477.91 253.47L523.68 230.03L535.27 252.78L466.61 287.78L408.38 173.45L477.04 138.46Z" fill="#ED9232"/>
        <path d="M533.99 106.81L644.58 197.26L619.71 209.73L603.28 196.23L564.16 215.84L565.16 237.08L540.36 249.51L533.99 106.81ZM584.05 180.5L561.52 161.55L563.07 191.02L584.05 180.5Z" fill="#ED9232"/>
        <path d="M670.27 159.06C676.78 156.33 681.7 147.81 678.94 141.33C674.37 130.59 659.33 135.21 650 135.84C633.58 137.04 615.91 130.65 609.11 114.63C605.296 105.55 605.058 95.3626 608.445 86.1144C611.832 76.8662 618.592 69.2418 627.369 64.7726C636.145 60.3033 646.288 59.3201 655.759 62.0204C665.231 64.7207 673.33 70.9046 678.43 79.3301L657.06 94.2601C655.554 91.3372 652.997 89.0935 649.903 87.9809C646.809 86.8682 643.408 86.9693 640.386 88.2637C637.363 89.5581 634.943 91.9498 633.614 94.9569C632.284 97.9641 632.143 101.363 633.22 104.47C637.72 115.07 652.33 112.19 661.53 111.15C678.19 109.15 696.09 114.88 703.04 131.25C711.47 151.09 700.46 174.67 680.66 183.07C662.47 190.8 640.35 184.44 630.24 168.07L651.59 153.07C654.38 159.63 663.79 161.96 670.43 159.14L670.27 159.06Z" fill="#ED9232"/>
        <path d="M705.66 35.8401L740.2 72.1001L750.51 23.1001L778.51 15.1001L760.34 96.1801L775.34 148.88L750.79 155.88L735.79 103.19L677.78 43.7701L705.66 35.8401Z" fill="#ED9232"/>
        <path d="M942.46 5.94006L942.18 31.5401L890.78 30.9701L890.49 56.7301L929.02 57.1601L928.74 82.7601L890.24 82.3301L889.96 108.09L941.33 108.67L941.05 134.19L863.99 133.33L865.42 5.06006L942.46 5.94006Z" fill="#ED9232"/>
        <path d="M1021.78 14.8999L1058.19 153.05L1030.78 148.54L1025.41 127.97L982.23 120.86L970.55 138.62L943.17 134.12L1021.78 14.8999ZM1019.03 103.95L1011.92 75.3799L995.92 100.14L1019.03 103.95Z" fill="#ED9232"/>
        <path d="M1101.15 138.55C1108.04 140.21 1117.03 136.32 1118.7 129.43C1121.44 118.09 1106.6 112.83 1098.7 107.78C1084.81 98.9599 1074.43 83.2899 1078.51 66.3699C1080.84 56.7851 1086.72 48.4407 1094.96 43.0176C1103.2 37.5946 1113.19 35.4958 1122.92 37.1441C1132.65 38.7924 1141.39 44.0652 1147.38 51.9005C1153.37 59.7358 1156.17 69.5514 1155.22 79.3699L1129.16 78.6199C1129.69 75.3758 1128.97 72.0514 1127.15 69.3157C1125.33 66.58 1122.54 64.6363 1119.34 63.8758C1116.14 63.1153 1112.77 63.5944 1109.91 65.2169C1107.06 66.8393 1104.92 69.4845 1103.93 72.6199C1101.23 83.8099 1114.68 90.2099 1122.69 94.8599C1137.28 103.17 1148.22 118.45 1144.04 135.75C1138.98 156.75 1116.04 169.08 1095.17 164.02C1075.96 159.38 1061.99 141.09 1063.63 121.91L1089.7 122.63C1088.03 129.56 1094.2 137.03 1101.21 138.72L1101.15 138.55Z" fill="#ED9232"/>
        <path d="M1196.03 57.2001L1205.97 106.28L1240.76 70.2801L1268.69 78.4401L1210.17 137.44L1194.78 189.98L1170.28 182.82L1185.64 130.24L1168.15 49.0601L1196.03 57.2001Z" fill="#ED9232"/>
        <path d="M80.33 423.99L0 415.27L14.24 284.03L94.56 292.74L91.4 321.93L40.33 316.38L37.96 338.27L76.26 342.43L73.09 371.61L34.78 367.45L32.42 389.33L83.49 394.88L80.33 423.99ZM4.13 411.99L77.01 419.89L79.36 398.24L28.29 392.69L31.48 363.33L69.78 367.48L72.13 345.75L33.83 341.59L37.02 312.25L88.09 317.8L90.44 296.07L17.56 288.16L4.13 411.99Z" fill="white"/>
        <path d="M110.09 422.62L135.89 274.94L228.78 392.66L197.78 400.48L184.68 383.76L144.6 393.88L140.98 414.83L110.09 422.62ZM138.14 283.84L114.78 417.58L137.7 411.79L141.32 390.84L186.12 379.53L199.25 396.25L222.25 390.45L138.14 283.84ZM144.94 370.41L150.94 334.22L173.22 363.22L144.94 370.41ZM153.24 343.35L149.57 365.35L166.78 361.03L153.24 343.35Z" fill="white"/>
        <path d="M256.94 375.88C242.33 375.88 228.1 368.66 220.67 356.22L219.76 354.71L244.7 337.71L245.57 339.85C247.35 344.2 253.85 347.37 260.18 345.72L261.72 345.09C264.723 343.77 267.191 341.472 268.72 338.57C269.496 337.273 269.979 335.823 270.136 334.321C270.293 332.818 270.121 331.299 269.63 329.87C266.81 322.97 258.74 323.35 248.48 324.57C246.39 324.82 244.42 325.05 242.6 325.15C227.72 326.03 207.67 320.55 200.18 302.2C196.259 292.618 196.121 281.905 199.793 272.225C203.464 262.546 210.673 254.62 219.963 250.049C229.252 245.479 239.93 244.604 249.84 247.602C259.749 250.6 268.152 257.247 273.35 266.2L274.22 267.71L249.29 284.61L248.41 282.47C247.593 280.431 246.183 278.683 244.363 277.452C242.544 276.221 240.397 275.563 238.2 275.563C236.003 275.563 233.857 276.221 232.037 277.452C230.217 278.683 228.808 280.431 227.99 282.47C227.415 283.809 227.112 285.25 227.098 286.707C227.084 288.164 227.36 289.61 227.91 290.96C231.35 299.39 242.62 298.15 251.67 297.15L254.2 296.88C269.32 295.26 289.7 300.01 297.35 318.73C299.37 323.798 300.318 329.229 300.134 334.682C299.95 340.135 298.638 345.49 296.28 350.41C291.665 360.471 283.428 368.423 273.21 372.68C268.045 374.789 262.519 375.875 256.94 375.88V375.88ZM224.83 355.79C234.55 370.26 254.83 376.18 271.78 369.25C281.114 365.351 288.639 358.083 292.86 348.89C295.001 344.435 296.196 339.585 296.368 334.645C296.54 329.705 295.686 324.783 293.86 320.19C287.01 303.4 268.42 299.19 254.57 300.65L252.07 300.92C242.85 301.92 228.93 303.47 224.42 292.43C222.969 288.772 223.013 284.691 224.544 281.066C226.074 277.441 228.967 274.562 232.6 273.05C235.869 271.765 239.485 271.667 242.818 272.775C246.151 273.882 248.99 276.124 250.84 279.11L269.18 266.68C264.148 258.942 256.414 253.355 247.487 251.01C238.56 248.665 229.079 249.729 220.893 253.994C212.708 258.26 206.405 265.422 203.213 274.083C200.021 282.744 200.17 292.283 203.63 300.84C210.37 317.35 228.72 322.26 242.37 321.46C244.07 321.37 246 321.14 248.03 320.9C256.86 319.85 268.97 318.42 273.09 328.51C273.798 330.447 274.069 332.516 273.884 334.57C273.699 336.623 273.062 338.611 272.02 340.39C270.715 342.845 268.88 344.98 266.65 346.64L267.47 346.99L263.31 348.69C256.62 351.42 247.24 349.59 243.17 343.34L224.83 355.79Z" fill="white"/>
        <path d="M346.32 340.38L323.02 289.26L254.61 237.62L284.9 223.81L322.57 252.97L325.26 205.41L355.63 191.56L349.63 277.11L372.94 328.23L346.32 340.38ZM261.88 238.38L326.03 286.79L326.23 287.23L348.18 335.37L368 326.37L345.86 277.8V277.32L351.42 197.59L328.84 207.88L325.84 260.3L284.33 228.16L261.88 238.38Z" fill="white"/>
        <path d="M458.78 287.06L398.84 169.42L470.84 132.74L484.16 158.9L438.38 182.22L448.38 201.84L482.72 184.33L496.04 210.49L461.71 227.97L471.71 247.6L517.48 224.33L530.78 250.38L458.78 287.06ZM403.89 171.06L460.42 282.06L525.78 248.75L515.85 229.33L470.07 252.65L456.68 226.33L491.01 208.84L481.09 189.36L446.78 206.88L433.39 180.58L479.16 157.26L469.24 137.77L403.89 171.06Z" fill="white"/>
        <path d="M531.56 249.27L524.92 99.5L640.99 194.43L612.44 208.74L596.01 195.24L559.01 213.76L560.01 235L531.56 249.27ZM529.03 107.7L535.03 243.33L556.17 232.74L555.17 211.5L596.47 190.8L612.94 204.33L634.14 193.7L529.03 107.7ZM554.33 190.77L552.4 154.13L580.4 177.7L554.33 190.77ZM556.6 162.56L557.78 184.85L573.66 176.85L556.6 162.56Z" fill="white"/>
        <path d="M657.54 184.94C643.15 184.94 629.12 177.94 621.62 165.79L620.69 164.28L645.39 146.98L646.3 149.11C646.951 150.474 647.898 151.674 649.073 152.624C650.248 153.574 651.621 154.249 653.09 154.6C655.696 155.363 658.46 155.408 661.09 154.73L662.51 154.13C667.95 151.82 672.58 144.46 670.17 138.8C667.26 131.94 659.17 132.43 648.95 133.8C646.86 134.07 644.89 134.34 643.08 134.46C628.22 135.55 608.08 130.35 600.35 112.11C596.316 102.587 596.042 91.8883 599.584 82.1712C603.126 72.4541 610.22 64.4412 619.437 59.748C628.653 55.0548 639.306 54.0304 649.248 56.8812C659.19 59.7321 667.681 66.2462 673.01 75.1102L673.91 76.6102L649.21 93.8602L648.31 91.7402C647.137 89.0708 644.968 86.9652 642.265 85.8724C639.562 84.7795 636.539 84.7859 633.84 85.8902C631.137 87.0601 629.002 89.2449 627.895 91.9739C626.788 94.703 626.797 97.7578 627.92 100.48C631.48 108.86 642.72 107.48 651.77 106.33L654.3 106.02C669.38 104.18 689.84 108.66 697.74 127.26C699.833 132.298 700.859 137.715 700.754 143.169C700.649 148.623 699.415 153.997 697.13 158.95C692.647 169.07 684.523 177.133 674.37 181.54C669.044 183.789 663.321 184.945 657.54 184.94V184.94ZM625.78 165.33C635.7 179.66 656.02 185.33 672.91 178.13C682.187 174.093 689.611 166.72 693.71 157.47C695.786 152.985 696.91 148.118 697.012 143.177C697.113 138.236 696.19 133.327 694.3 128.76C687.21 112.07 668.55 108.1 654.73 109.76L652.24 110.06C643.04 111.2 629.14 112.93 624.48 101.95C622.975 98.3134 622.96 94.2308 624.438 90.5829C625.916 86.935 628.768 84.0142 632.38 82.4502C635.631 81.1207 639.245 80.9741 642.593 82.0358C645.941 83.0975 648.81 85.3003 650.7 88.2602L668.87 75.5702C663.755 67.8513 655.94 62.3229 646.958 60.0702C637.976 57.8174 628.477 59.0031 620.324 63.3943C612.172 67.7855 605.955 75.0653 602.894 83.8047C599.833 92.544 600.149 102.112 603.78 110.63C610.78 127.05 629.17 131.7 642.78 130.7C644.47 130.59 646.39 130.34 648.42 130.06C657.24 128.89 669.32 127.28 673.58 137.32C676.3 143.72 672.77 151.32 667.4 155.51L668.27 155.85L664.08 157.63C660.223 159.198 655.945 159.395 651.96 158.19C648.698 157.313 645.842 155.33 643.88 152.58L625.78 165.33Z" fill="white"/>
        <path d="M742.45 154.99L727.09 100.99L667.2 39.62L699.2 30.52L732.06 65.02L741.87 18.4L773.97 9.27002L755.21 92.95L770.58 146.95L742.45 154.99ZM674.27 41.5L730.43 99.01L730.57 99.47L745.04 150.33L766.04 144.38L751.45 93.02L768.98 14.58L745.11 21.33L734.3 72.75L698.09 34.75L674.27 41.5Z" fill="white"/>
        <path d="M935.87 132.89L855.06 132L856.54 0L937.34 0.9L937.02 30.25L885.65 29.67L885.4 51.67L923.93 52.1L923.6 81.45L885.08 81.02L884.84 103.02L936.21 103.59L935.87 132.89ZM858.87 128.29L932.18 129.11L932.42 107.33L881.05 106.75L881.39 77.24L919.91 77.68L920.16 55.81L881.64 55.38L881.97 25.87L933.34 26.45L933.58 4.59L860.27 3.78L858.87 128.29Z" fill="white"/>
        <path d="M1053.78 152.17L1022.27 146.98L1016.9 126.41L976.12 119.7L964.44 137.46L932.99 132.33L1015.56 7.16016L1053.78 152.17ZM1025.27 143.68L1048.68 147.52L1014.06 16.2102L939.29 129.52L962.62 133.33L974.3 115.57L1019.88 123.07L1025.27 143.68ZM1014.58 103.05L985.78 98.3302L1005.72 67.5502L1014.58 103.05ZM992.05 95.5402L1009.56 98.4302L1004.19 76.8102L992.05 95.5402Z" fill="white"/>
        <path d="M1097.83 163.81C1094.43 163.81 1091.04 163.407 1087.74 162.61C1067.55 157.73 1053.07 138.36 1054.74 118.52L1054.89 116.75L1085.04 117.57L1084.5 119.82C1084.21 121.301 1084.25 122.829 1084.63 124.291C1085 125.753 1085.7 127.113 1086.67 128.27C1088.31 130.445 1090.51 132.134 1093.03 133.16L1094.53 133.52C1100.28 134.9 1108.38 131.76 1109.82 125.78C1111.57 118.53 1104.82 114.13 1095.82 109.12C1093.98 108.12 1092.24 107.12 1090.71 106.12C1078.12 98.1203 1065.06 81.9603 1069.71 62.7003C1070.97 57.4844 1073.25 52.5688 1076.42 48.2346C1079.58 43.9005 1083.57 40.2329 1088.15 37.4418C1092.74 34.6508 1097.83 32.7909 1103.13 31.9687C1108.43 31.1465 1113.85 31.3781 1119.06 32.6503C1128.6 35.0037 1136.98 40.7054 1142.67 48.717C1148.36 56.7285 1150.98 66.5171 1150.06 76.3003L1149.88 78.0403L1119.77 77.1703L1120.31 74.9203C1120.96 72.0783 1120.47 69.0955 1118.95 66.6086C1117.43 64.1218 1115 62.3281 1112.17 61.6103C1109.31 60.9547 1106.3 61.4484 1103.8 62.9854C1101.29 64.5223 1099.49 66.98 1098.78 69.8303C1096.64 78.6703 1106.51 84.2503 1114.44 88.7403L1116.65 90.0103C1129.87 97.5303 1143.65 113.3 1138.88 132.95C1134.44 151.24 1116.85 163.81 1097.83 163.81ZM1058.4 120.6C1057.83 138.02 1070.79 154.66 1088.62 158.97C1109.16 163.97 1130.5 151.61 1135.22 132.08C1139.48 114.45 1126.86 100.15 1114.77 93.2503C1114.07 92.8503 1113.34 92.4303 1112.58 92.0103C1104.51 87.4403 1092.32 80.5503 1095.12 68.9503C1096.01 65.3345 1098.22 62.1848 1101.33 60.1252C1104.43 58.0656 1108.19 57.2466 1111.87 57.8303C1115.55 58.4141 1118.87 60.3581 1121.18 63.277C1123.49 66.196 1124.62 69.8769 1124.35 73.5903L1146.5 74.2303C1146.83 67.4917 1145.32 60.7908 1142.12 54.8469C1138.93 48.9029 1134.18 43.9402 1128.38 40.4915C1122.59 37.0428 1115.96 35.2383 1109.21 35.2715C1102.46 35.3048 1095.85 37.1746 1090.09 40.6803C1085.92 43.2026 1082.29 46.5286 1079.42 50.465C1076.54 54.4014 1074.48 58.8698 1073.35 63.6103C1069.17 80.9503 1081.17 95.6703 1092.72 103C1094.15 103.92 1095.84 104.85 1097.63 105.84C1105.42 110.16 1116.07 116.07 1113.51 126.67C1111.88 133.43 1104.51 137.47 1097.69 137.59L1098.17 138.37L1093.78 137.37C1089.75 136.323 1086.19 133.927 1083.71 130.58C1081.61 127.93 1080.5 124.631 1080.57 121.25L1058.4 120.6Z" fill="white"/>
        <path d="M1189.07 189.09L1160.97 180.89L1176.72 126.97L1158.66 43.1802L1190.66 52.5202L1200.11 99.2102L1233.23 64.9502L1265.23 74.3102L1204.78 135.18L1189.07 189.09ZM1165.62 178.33L1186.53 184.44L1201.53 133.2L1201.86 132.86L1258.16 76.1302L1234.34 69.1302L1197.86 106.88L1187.43 55.4202L1163.69 48.4902L1180.62 127.05L1180.49 127.51L1165.62 178.33Z" fill="white"/>
    </g>
    <path id="easytext-motionpath" d="M1 413C37 427.666 150.6 437.8 317 361C525 265 653 153 845 137C998.6 124.2 1151.67 174.333 1209 201" stroke="black"/>
</svg>
