<svg width="1152" height="426" viewBox="0 0 1152 426" fill="none" xmlns="http://www.w3.org/2000/svg">
<path d="M55.75 298.28L53 323.75L1.90998 318.2L-0.870022 343.81L37.43 348L34.66 373.45L-3.63002 369.29L-6.42002 394.91L44.66 400.46L41.9 425.81L-34.71 417.5L-20.87 290L55.75 298.28Z" fill="#ED9232"/>
<path d="M100.28 283.26L188.78 395.43L161.78 402.24L148.65 385.52L106.22 396.24L102.6 417.19L75.71 424L100.28 283.26ZM133.28 366.02L115.36 342.65L110.52 371.76L133.28 366.02Z" fill="#ED9232"/>
<path d="M225.67 350.75C232.24 348.07 237.26 339.66 234.58 333.09C230.17 322.29 215.05 326.69 205.71 327.2C189.28 328.2 171.71 321.53 165.12 305.41C161.427 296.274 161.329 286.079 164.846 276.874C168.362 267.669 175.233 260.137 184.077 255.791C192.921 251.445 203.082 250.608 212.518 253.448C221.953 256.288 229.964 262.595 234.94 271.1L213.36 285.73C211.915 282.753 209.389 280.44 206.298 279.261C203.206 278.082 199.781 278.127 196.721 279.385C193.661 280.644 191.196 283.021 189.828 286.034C188.461 289.047 188.293 292.468 189.36 295.6C193.7 306.25 208.36 303.6 217.57 302.67C234.26 300.89 252.08 306.89 258.8 323.36C266.94 343.36 255.61 366.74 235.69 374.87C217.39 382.34 195.37 375.67 185.49 359.14L207.05 344.48C209.75 351.08 219.12 353.54 225.8 350.81L225.67 350.75Z" fill="#ED9232"/>
<path d="M247.89 229.85L287.48 260.51L290.3 210.51L316.78 198.45L311 281.33L333.73 331.18L310.5 341.77L287.78 291.92L221.49 241.92L247.89 229.85Z" fill="#ED9232"/>
<path d="M433.26 139.13L444.88 162L399.11 185.32L410.81 208.32L445.14 190.83L456.77 213.65L422.43 231.14L434.13 254.14L479.9 230.7L491.49 253.45L422.83 288.45L364.6 174.12L433.26 139.13Z" fill="#ED9232"/>
<path d="M490.21 107.48L600.8 197.93L575.93 210.4L559.5 196.9L520.38 216.51L521.38 237.75L496.58 250.18L490.21 107.48ZM540.27 181.17L517.74 162.22L519.29 191.69L540.27 181.17Z" fill="#ED9232"/>
<path d="M626.49 159.73C633 157 637.92 148.48 635.16 142C630.59 131.26 615.55 135.88 606.22 136.51C589.8 137.71 572.13 131.32 565.33 115.3C561.516 106.22 561.278 96.0325 564.665 86.7843C568.052 77.5361 574.812 69.9117 583.589 65.4425C592.365 60.9732 602.508 59.99 611.979 62.6903C621.451 65.3907 629.55 71.5745 634.65 80L613.28 94.93C611.774 92.0071 609.217 89.7634 606.123 88.6508C603.029 87.5381 599.628 87.6392 596.606 88.9336C593.583 90.2281 591.163 92.6197 589.834 95.6269C588.504 98.634 588.364 102.033 589.44 105.14C593.94 115.74 608.55 112.86 617.75 111.82C634.41 109.82 652.31 115.55 659.26 131.92C667.69 151.76 656.68 175.34 636.88 183.74C618.69 191.47 596.57 185.11 586.46 168.74L607.81 153.74C610.6 160.3 620.01 162.63 626.65 159.81L626.49 159.73Z" fill="#ED9232"/>
<path d="M661.88 36.51L696.42 72.77L706.73 23.77L734.73 15.77L716.56 96.85L731.56 149.55L707.01 156.55L692.01 103.86L634 44.44L661.88 36.51Z" fill="#ED9232"/>
<path d="M898.68 6.60998L898.4 32.21L847 31.64L846.71 57.4L885.24 57.83L884.96 83.43L846.46 83L846.18 108.76L897.55 109.34L897.27 134.86L820.21 134L821.64 5.72998L898.68 6.60998Z" fill="#ED9232"/>
<path d="M978 15.5698L1014.41 153.72L987 149.21L981.63 128.64L938.45 121.53L926.77 139.29L899.39 134.79L978 15.5698ZM975.25 104.62L968.14 76.0498L952.14 100.81L975.25 104.62Z" fill="#ED9232"/>
<path d="M1057.37 139.22C1064.26 140.88 1073.25 136.99 1074.92 130.1C1077.66 118.76 1062.82 113.5 1054.92 108.45C1041.03 99.6298 1030.65 83.9598 1034.73 67.0398C1037.06 57.455 1042.94 49.1106 1051.18 43.6875C1059.42 38.2645 1069.41 36.1657 1079.14 37.814C1088.87 39.4623 1097.61 44.7352 1103.6 52.5705C1109.59 60.4058 1112.39 70.2213 1111.44 80.0398L1085.38 79.2898C1085.91 76.0458 1085.19 72.7213 1083.37 69.9856C1081.55 67.2499 1078.76 65.3062 1075.56 64.5457C1072.36 63.7852 1068.99 64.2644 1066.13 65.8868C1063.27 67.5092 1061.14 70.1544 1060.15 73.2898C1057.45 84.4798 1070.9 90.8798 1078.91 95.5298C1093.5 103.84 1104.44 119.12 1100.26 136.42C1095.2 157.42 1072.26 169.75 1051.39 164.69C1032.18 160.05 1018.21 141.76 1019.85 122.58L1045.92 123.3C1044.25 130.23 1050.42 137.7 1057.43 139.39L1057.37 139.22Z" fill="#ED9232"/>
<path d="M1152.25 57.87L1162.19 106.95L1196.98 70.95L1224.91 79.11L1166.39 138.11L1151 190.65L1126.5 183.49L1141.86 130.91L1124.37 49.73L1152.25 57.87Z" fill="#ED9232"/>
<path d="M36.55 424.66L-43.78 415.94L-29.54 284.7L50.78 293.41L47.62 322.6L-3.45003 317.05L-5.82003 338.94L32.48 343.1L29.31 372.28L-9.00003 368.12L-11.36 390L39.71 395.55L36.55 424.66ZM-39.65 412.66L33.23 420.56L35.58 398.91L-15.49 393.36L-12.3 364L26 368.15L28.35 346.42L-9.95003 342.26L-6.76003 312.92L44.31 318.47L46.66 296.74L-26.22 288.83L-39.65 412.66Z" fill="white"/>
<path d="M66.31 423.29L92.11 275.61L185 393.33L154 401.15L140.9 384.43L100.82 394.55L97.2 415.5L66.31 423.29ZM94.36 284.51L71 418.25L93.92 412.46L97.54 391.51L142.34 380.2L155.47 396.92L178.47 391.12L94.36 284.51ZM101.16 371.08L107.16 334.89L129.44 363.89L101.16 371.08ZM109.46 344.02L105.79 366.02L123 361.7L109.46 344.02Z" fill="white"/>
<path d="M213.16 376.55C198.55 376.55 184.32 369.33 176.89 356.89L175.98 355.38L200.92 338.38L201.79 340.52C203.57 344.87 210.07 348.04 216.4 346.39L217.94 345.76C220.943 344.44 223.411 342.142 224.94 339.24C225.716 337.943 226.199 336.493 226.356 334.99C226.513 333.488 226.341 331.969 225.85 330.54C223.03 323.64 214.96 324.02 204.7 325.24C202.61 325.49 200.64 325.72 198.82 325.82C183.94 326.7 163.89 321.22 156.4 302.87C152.479 293.288 152.34 282.575 156.012 272.895C159.684 263.215 166.893 255.29 176.183 250.719C185.472 246.149 196.15 245.274 206.06 248.272C215.969 251.27 224.372 257.917 229.57 266.87L230.44 268.38L205.51 285.28L204.63 283.14C203.812 281.101 202.403 279.353 200.583 278.122C198.764 276.891 196.617 276.233 194.42 276.233C192.223 276.233 190.076 276.891 188.257 278.122C186.437 279.353 185.028 281.101 184.21 283.14C183.635 284.479 183.332 285.919 183.318 287.377C183.304 288.834 183.58 290.28 184.13 291.63C187.57 300.06 198.84 298.82 207.89 297.82L210.42 297.55C225.54 295.93 245.92 300.68 253.57 319.4C255.59 324.468 256.538 329.899 256.354 335.352C256.17 340.805 254.858 346.16 252.5 351.08C247.885 361.141 239.647 369.093 229.43 373.35C224.265 375.459 218.739 376.545 213.16 376.55ZM181.05 356.46C190.77 370.93 211.05 376.85 228 369.92C237.334 366.021 244.859 358.753 249.08 349.56C251.221 345.105 252.415 340.254 252.588 335.315C252.76 330.375 251.906 325.453 250.08 320.86C243.23 304.07 224.64 299.86 210.79 301.32L208.29 301.59C199.07 302.59 185.15 304.14 180.64 293.1C179.189 289.442 179.233 285.361 180.764 281.736C182.294 278.11 185.187 275.232 188.82 273.72C192.089 272.435 195.705 272.337 199.038 273.445C202.371 274.552 205.21 276.794 207.06 279.78L225.4 267.35C220.368 259.612 212.634 254.025 203.707 251.68C194.78 249.335 185.299 250.399 177.113 254.664C168.928 258.93 162.625 266.092 159.433 274.753C156.241 283.413 156.39 292.953 159.85 301.51C166.59 318.02 184.94 322.93 198.59 322.13C200.29 322.04 202.22 321.81 204.25 321.57C213.08 320.52 225.19 319.09 229.31 329.18C230.018 331.117 230.288 333.186 230.104 335.24C229.919 337.293 229.282 339.281 228.24 341.06C226.934 343.515 225.1 345.65 222.87 347.31L223.69 347.66L219.53 349.36C212.84 352.09 203.46 350.26 199.39 344.01L181.05 356.46Z" fill="white"/>
<path d="M302.54 341.05L279.24 289.93L210.83 238.29L241.12 224.48L278.79 253.64L281.48 206.08L311.85 192.23L305.85 277.78L329.16 328.9L302.54 341.05ZM218.1 239.05L282.25 287.46L282.45 287.9L304.4 336.04L324.22 327.04L302.08 278.47V277.99L307.64 198.26L285.06 208.55L282.06 260.97L240.55 228.83L218.1 239.05Z" fill="white"/>
<path d="M415 287.73L355.06 170.09L427.06 133.41L440.38 159.57L394.6 182.89L404.6 202.51L438.94 185L452.26 211.16L417.93 228.64L427.93 248.27L473.7 225L487 251.05L415 287.73ZM360.11 171.73L416.64 282.73L482 249.42L472.07 230L426.29 253.32L412.9 227L447.23 209.51L437.31 190.03L403 207.55L389.61 181.25L435.38 157.93L425.46 138.44L360.11 171.73Z" fill="white"/>
<path d="M487.78 249.94L481.14 100.17L597.21 195.1L568.66 209.41L552.23 195.91L515.23 214.43L516.23 235.67L487.78 249.94ZM485.25 108.37L491.25 244L512.39 233.41L511.39 212.17L552.69 191.47L569.16 205L590.36 194.37L485.25 108.37ZM510.55 191.44L508.62 154.8L536.62 178.37L510.55 191.44ZM512.82 163.23L514 185.52L529.88 177.52L512.82 163.23Z" fill="white"/>
<path d="M613.76 185.61C599.37 185.61 585.34 178.61 577.84 166.46L576.91 164.95L601.61 147.65L602.52 149.78C603.171 151.144 604.118 152.344 605.293 153.294C606.468 154.244 607.84 154.919 609.31 155.27C611.916 156.033 614.68 156.078 617.31 155.4L618.73 154.8C624.17 152.49 628.8 145.13 626.39 139.47C623.48 132.61 615.39 133.1 605.17 134.47C603.08 134.74 601.11 135.01 599.3 135.13C584.44 136.22 564.3 131.02 556.57 112.78C552.536 103.257 552.262 92.5582 555.804 82.8411C559.346 73.124 566.44 65.1111 575.657 60.4179C584.873 55.7247 595.526 54.7003 605.468 57.5511C615.41 60.402 623.901 66.9161 629.23 75.7801L630.13 77.2801L605.43 94.5301L604.53 92.4102C603.357 89.7407 601.188 87.6351 598.485 86.5423C595.782 85.4494 592.759 85.4558 590.06 86.5601C587.357 87.73 585.222 89.9148 584.115 92.6439C583.007 95.3729 583.017 98.4277 584.14 101.15C587.7 109.53 598.94 108.15 607.99 107L610.52 106.69C625.6 104.85 646.06 109.33 653.96 127.93C656.053 132.968 657.079 138.385 656.974 143.839C656.869 149.293 655.635 154.667 653.35 159.62C648.867 169.739 640.743 177.803 630.59 182.21C625.264 184.459 619.541 185.615 613.76 185.61ZM582 166C591.92 180.33 612.24 186 629.13 178.8C638.407 174.763 645.831 167.39 649.93 158.14C652.006 153.655 653.13 148.788 653.232 143.847C653.333 138.906 652.41 133.997 650.52 129.43C643.43 112.74 624.77 108.77 610.95 110.43L608.46 110.73C599.26 111.87 585.36 113.6 580.7 102.62C579.195 98.9833 579.18 94.9007 580.658 91.2528C582.136 87.605 584.988 84.6841 588.6 83.1202C591.851 81.7907 595.465 81.644 598.813 82.7057C602.161 83.7674 605.03 85.9702 606.92 88.9301L625.09 76.2401C619.975 68.5212 612.16 62.9928 603.178 60.7401C594.196 58.4874 584.697 59.673 576.544 64.0642C568.392 68.4555 562.175 75.7352 559.114 84.4746C556.053 93.2139 556.369 102.782 560 111.3C567 127.72 585.39 132.37 599 131.37C600.69 131.26 602.61 131.01 604.64 130.73C613.46 129.56 625.54 127.95 629.8 137.99C632.52 144.39 628.99 151.99 623.62 156.18L624.49 156.52L620.3 158.3C616.443 159.868 612.165 160.065 608.18 158.86C604.918 157.983 602.062 156 600.1 153.25L582 166Z" fill="white"/>
<path d="M698.67 155.66L683.31 101.66L623.42 40.2899L655.42 31.1899L688.28 65.6899L698.09 19.0699L730.19 9.93994L711.43 93.6199L726.8 147.62L698.67 155.66ZM630.49 42.1699L686.65 99.6799L686.79 100.14L701.26 151L722.26 145.05L707.67 93.6899L725.2 15.2499L701.33 21.9999L690.52 73.4199L654.31 35.4199L630.49 42.1699Z" fill="white"/>
<path d="M892.09 133.56L811.28 132.67L812.76 0.669922L893.56 1.56992L893.24 30.9199L841.87 30.3399L841.62 52.3399L880.15 52.7699L879.82 82.1199L841.3 81.6899L841.06 103.69L892.43 104.26L892.09 133.56ZM815.09 128.96L888.4 129.78L888.64 108L837.27 107.42L837.61 77.9099L876.13 78.3499L876.38 56.4799L837.86 56.0499L838.19 26.5399L889.56 27.1199L889.8 5.25992L816.49 4.44992L815.09 128.96Z" fill="white"/>
<path d="M1010 152.84L978.49 147.65L973.12 127.08L932.34 120.37L920.66 138.13L889.21 133L971.78 7.83008L1010 152.84ZM981.49 144.35L1004.9 148.19L970.28 16.8801L895.51 130.19L918.84 134L930.52 116.24L976.1 123.74L981.49 144.35ZM970.8 103.72L942 99.0001L961.94 68.2201L970.8 103.72ZM948.27 96.2101L965.78 99.1001L960.41 77.4801L948.27 96.2101Z" fill="white"/>
<path d="M1054.05 164.48C1050.65 164.48 1047.26 164.077 1043.96 163.28C1023.77 158.4 1009.29 139.03 1010.96 119.19L1011.11 117.42L1041.26 118.24L1040.72 120.49C1040.43 121.971 1040.47 123.499 1040.85 124.961C1041.22 126.423 1041.92 127.783 1042.89 128.94C1044.53 131.115 1046.73 132.804 1049.25 133.83L1050.75 134.19C1056.5 135.57 1064.6 132.43 1066.04 126.45C1067.79 119.2 1061.04 114.8 1052.04 109.79C1050.2 108.79 1048.46 107.79 1046.93 106.79C1034.34 98.7902 1021.28 82.6302 1025.93 63.3702C1027.19 58.1544 1029.47 53.2387 1032.64 48.9046C1035.8 44.5704 1039.79 40.9029 1044.37 38.1118C1048.96 35.3207 1054.05 33.4608 1059.35 32.6386C1064.65 31.8164 1070.07 32.0481 1075.28 33.3202C1084.82 35.6737 1093.2 41.3753 1098.89 49.3869C1104.58 57.3985 1107.2 67.1871 1106.28 76.9702L1106.1 78.7102L1075.99 77.8402L1076.53 75.5902C1077.18 72.7482 1076.69 69.7654 1075.17 67.2786C1073.65 64.7918 1071.22 62.998 1068.39 62.2802C1065.53 61.6246 1062.52 62.1183 1060.02 63.6553C1057.51 65.1923 1055.71 67.6499 1055 70.5002C1052.86 79.3402 1062.73 84.9202 1070.66 89.4102L1072.87 90.6802C1086.09 98.2002 1099.87 113.97 1095.1 133.62C1090.66 151.91 1073.07 164.48 1054.05 164.48ZM1014.62 121.27C1014.05 138.69 1027.01 155.33 1044.84 159.64C1065.38 164.64 1086.72 152.28 1091.44 132.75C1095.7 115.12 1083.08 100.82 1070.99 93.9202C1070.29 93.5202 1069.56 93.1002 1068.8 92.6802C1060.73 88.1102 1048.54 81.2202 1051.34 69.6202C1052.23 66.0045 1054.44 62.8547 1057.55 60.7951C1060.65 58.7355 1064.41 57.9165 1068.09 58.5002C1071.77 59.084 1075.09 61.028 1077.4 63.947C1079.71 66.8659 1080.84 70.5468 1080.57 74.2602L1102.72 74.9002C1103.05 68.1616 1101.54 61.4607 1098.34 55.5168C1095.15 49.5728 1090.4 44.6101 1084.6 41.1614C1078.81 37.7127 1072.18 35.9082 1065.43 35.9414C1058.68 35.9747 1052.07 37.8445 1046.31 41.3502C1042.14 43.8725 1038.51 47.1985 1035.64 51.135C1032.76 55.0714 1030.7 59.5397 1029.57 64.2802C1025.39 81.6202 1037.39 96.3402 1048.94 103.67C1050.37 104.59 1052.06 105.52 1053.85 106.51C1061.64 110.83 1072.29 116.74 1069.73 127.34C1068.1 134.1 1060.73 138.14 1053.91 138.26L1054.39 139.04L1050 138.04C1045.97 136.993 1042.41 134.597 1039.93 131.25C1037.83 128.6 1036.72 125.301 1036.79 121.92L1014.62 121.27Z" fill="white"/>
<path d="M1145.29 189.76L1117.19 181.56L1132.94 127.64L1114.88 43.8501L1146.88 53.1901L1156.33 99.8801L1189.45 65.6201L1221.45 74.9801L1161 135.85L1145.29 189.76ZM1121.84 179L1142.75 185.11L1157.75 133.87L1158.08 133.53L1214.38 76.8001L1190.56 69.8001L1154.08 107.55L1143.65 56.0901L1119.91 49.1601L1136.84 127.72L1136.71 128.18L1121.84 179Z" fill="white"/>
</svg>
