<svg width="1152" height="700" viewBox="0 0 1152 700" fill="none" xmlns="http://www.w3.org/2000/svg">
<path d="M573.03 -46.4701L672.58 811.84L1159.44 803.69L1152.43 -73.1201L573.03 -46.4701Z" fill="#426A1C" stroke="#695444" stroke-width="1.4" stroke-miterlimit="10"/>
<path d="M-178.7 -30.62L-79.15 827.69L407.71 819.55L400.7 -57.27L-178.7 -30.62Z" fill="#426A1C" stroke="#695444" stroke-width="1.4" stroke-miterlimit="10"/>
<path d="M652.52 753.91C652.52 753.91 637.09 700.6 663.74 689.38C690.39 678.16 719.86 575.75 771.74 579.95C823.62 584.15 916.24 624.84 935.88 694.95C955.52 765.06 990.59 835.24 938.68 832.44C886.77 829.64 825.05 838.05 834.87 853.44C844.69 868.83 820.87 878.69 801.2 868.86C781.53 859.03 799.8 823.97 774.55 829.58C749.3 835.19 781.55 767.85 749.29 779.08C717.03 790.31 724.04 807.13 694.58 805.73C665.12 804.33 632.86 800.12 641.27 777.67C649.68 755.22 652.52 753.91 652.52 753.91Z" fill="#3A5B1A"/>
<path d="M653.92 441.19C653.92 441.19 638.5 387.88 665.15 376.66C691.8 365.44 721.26 263.02 773.15 267.23C825.04 271.44 917.64 312.12 937.29 382.23C956.94 452.34 992 522.52 940.09 519.71C888.18 516.9 826.46 525.32 836.28 540.71C846.1 556.1 822.28 565.97 802.61 556.14C782.94 546.31 801.21 511.25 775.95 516.86C750.69 522.47 782.95 455.13 750.7 466.35C718.45 477.57 725.47 494.49 696 493.09C666.53 491.69 634.28 487.47 642.7 465C651.12 442.53 653.92 441.19 653.92 441.19Z" fill="#3A5B1A"/>
<path d="M1025.69 149.38C1025.69 149.38 1010.27 96.0702 1036.92 84.8502C1063.57 73.6302 1093.03 -28.7898 1144.92 -24.5798C1196.81 -20.3698 1289.42 20.3102 1309.06 90.4202C1328.7 160.53 1363.77 230.71 1311.86 227.91C1259.95 225.11 1198.23 233.52 1208.05 248.91C1217.87 264.3 1194.05 274.16 1174.38 264.33C1154.71 254.5 1172.98 219.44 1147.72 225.05C1122.46 230.66 1154.72 163.32 1122.47 174.55C1090.22 185.78 1097.22 202.6 1067.76 201.2C1038.3 199.8 1006.03 195.59 1014.45 173.14C1022.87 150.69 1025.69 149.38 1025.69 149.38Z" fill="#3A5B1A"/>
<path d="M632.88 53.6201C632.88 53.6201 617.45 0.310074 644.1 -10.9199C670.75 -22.1499 700.22 -124.55 752.1 -120.35C803.98 -116.15 896.6 -75.4499 916.24 -5.34992C935.88 64.7501 971 135 919.06 132.18C867.12 129.36 805.43 137.79 815.25 153.18C825.07 168.57 801.25 178.43 781.58 168.61C761.91 158.79 780.18 123.71 754.93 129.33C729.68 134.95 761.93 67.6001 729.67 78.8201C697.41 90.0401 704.42 106.92 675 105.51C645.58 104.1 613.27 99.9001 621.69 77.4501C630.11 55.0001 632.88 53.6201 632.88 53.6201Z" fill="#3A5B1A"/>
<path d="M443.49 278.45C443.49 278.45 428.06 225.14 454.71 213.92C481.36 202.7 510.83 100.28 562.71 104.49C614.59 108.7 707.21 149.38 726.85 219.49C746.49 289.6 781.56 359.78 729.65 356.97C677.74 354.16 616.02 362.59 625.85 377.97C635.68 393.35 611.85 403.23 592.18 393.4C572.51 383.57 590.78 348.51 565.52 354.12C540.26 359.73 572.52 292.39 540.27 303.61C508.02 314.83 515 331.75 485.58 330.35C456.16 328.95 423.85 324.73 432.27 302.29C440.69 279.85 443.49 278.45 443.49 278.45Z" fill="#3A5B1A"/>
<path d="M969.58 205.5C969.58 205.5 933.1 170.43 882.58 212.5C832.06 254.57 752.13 264.41 783 305.1C813.87 345.79 778.8 456.62 914.88 379.45C1050.96 302.28 1129.51 364 1126.7 336C1123.89 308 1132.32 292.51 1098.7 286.9C1065.08 281.29 1076.2 278.45 1058 249C1039.8 219.55 989.22 164.82 969.58 205.5Z" fill="#4C7422"/>
<path d="M975.19 521.15C975.19 521.15 938.71 486.08 888.19 528.15C837.67 570.22 757.72 580.06 788.58 620.75C819.44 661.44 784.38 772.26 920.46 695.1C1056.54 617.94 1135.1 679.67 1132.3 651.61C1129.5 623.55 1137.91 608.12 1104.24 602.51C1070.57 596.9 1081.79 594.09 1063.56 564.64C1045.33 535.19 994.83 480.47 975.19 521.15Z" fill="#4C7422"/>
<path d="M1128.1 421.55C1128.1 421.55 1091.63 386.48 1041.1 428.55C990.57 470.62 910.63 480.45 941.5 521.14C972.37 561.83 937.29 672.66 1073.37 595.49C1209.45 518.32 1288 580.07 1285.23 552C1282.46 523.93 1290.84 508.51 1257.17 502.9C1223.5 497.29 1234.73 494.48 1216.49 465.02C1198.25 435.56 1147.74 380.86 1128.1 421.55Z" fill="#4C7422"/>
<path d="M1128.32 656.17C1128.32 656.17 1091.84 621.1 1041.32 663.17C990.8 705.24 910.85 715.08 941.72 755.77C972.59 796.46 937.51 907.28 1073.59 830.12C1209.67 752.96 1288.23 814.69 1285.43 786.63C1282.63 758.57 1291.04 743.14 1257.37 737.53C1223.7 731.92 1234.92 729.12 1216.69 699.66C1198.46 670.2 1148 615.49 1128.32 656.17Z" fill="#4C7422"/>
<path d="M694.35 361.14C694.35 361.14 697.21 310.61 632.35 299.7C567.49 288.79 508 234.5 497.25 284.42C486.5 334.34 379.53 379.91 526.72 432.92C673.91 485.93 678.23 585.74 697.72 565.35C717.21 544.96 734.37 541.28 716.72 512.08C699.07 482.88 708.48 489.56 718.97 456.53C729.46 423.5 738 349.55 694.35 361.14Z" fill="#4C7422"/>
<path d="M960.29 747.32C954.59 790.64 908.41 834.67 923.65 849.72C938.89 864.77 966.75 881.28 960.45 852.47C954.15 823.66 1010.52 816.47 1016 780.36C1021.48 744.25 1005.07 777.82 1005.42 701.59C1005.77 625.36 973.62 558.89 946.69 594.41C919.76 629.93 879.91 627.92 886.52 655.41C893.13 682.9 897.02 672.24 908.68 715.25C920.34 758.26 960.29 747.32 960.29 747.32Z" fill="#588B23"/>
<path d="M1134.49 408.49C1128.79 451.81 1082.61 495.84 1097.86 510.89C1113.11 525.94 1140.95 542.45 1134.66 513.63C1128.37 484.81 1184.73 477.69 1190.21 441.52C1195.69 405.35 1179.27 438.99 1179.62 362.76C1179.97 286.53 1147.83 220.05 1120.89 255.58C1093.95 291.11 1054.11 289.09 1060.72 316.58C1067.33 344.07 1071.23 333.41 1082.88 376.42C1094.53 419.43 1134.49 408.49 1134.49 408.49Z" fill="#588B23"/>
<path d="M761.32 150.35C755.63 193.67 709.44 237.7 724.69 252.75C739.94 267.8 767.78 284.31 761.49 255.5C755.2 226.69 811.56 219.55 817.04 183.38C822.52 147.21 806.11 180.85 806.46 104.62C806.81 28.3898 774.66 -38.0901 747.72 -2.56015C720.78 32.9698 680.94 30.9998 687.55 58.3998C694.16 85.7999 698.06 75.2299 709.72 118.24C721.38 161.25 761.32 150.35 761.32 150.35Z" fill="#588B23"/>
<path d="M1032.08 64.77C1026.39 108.09 980.2 152.13 995.45 167.17C1010.7 182.21 1038.54 198.74 1032.25 169.92C1025.96 141.1 1082.32 133.98 1087.8 97.81C1093.28 61.64 1076.87 95.28 1077.21 19.05C1077.55 -57.18 1045.42 -123.66 1018.48 -88.13C991.54 -52.6 951.7 -54.62 958.31 -27.13C964.92 0.360023 968.82 -10.3 980.48 32.71C992.14 75.72 1032.08 64.77 1032.08 64.77Z" fill="#588B23"/>
<path d="M954.78 478.05C997.1 467.19 1055.18 493.63 1063.46 473.88C1071.74 454.13 1076.69 422.12 1052.3 438.7C1027.91 455.28 1000.3 405.64 964.67 414.03C929.04 422.42 966.4 425.12 895.53 453.21C824.66 481.3 775 535.91 818 547.66C861 559.41 874 597.14 897 580.78C920 564.42 908.7 564.78 944.26 537.91C979.82 511.04 954.78 478.05 954.78 478.05Z" fill="#588B23"/>
<path d="M670.76 629.18C627.27 633.39 573.96 598.32 562.76 616.56C551.56 634.8 541.76 665.66 568.37 653.03C594.98 640.4 614.66 693.72 651.14 690.91C687.62 688.1 651.14 679.69 725.49 662.85C799.84 646.01 857.36 599.72 816.67 581.48C775.98 563.24 769 524 743.7 536.59C718.4 549.18 729.7 550.59 690.39 571.66C651.08 592.73 670.76 629.18 670.76 629.18Z" fill="#588B23"/>
<path d="M529.77 804.79L430.21 -53.5098L367.75 -52.4598L-56.65 -45.3698L-49.63 831.45L529.77 804.79Z" fill="#426A1C" stroke="#695444" stroke-width="1.4" stroke-miterlimit="10"/>
<path d="M450.5 13C450.5 13 465.92 66.31 439.27 77.53C412.62 88.75 383.16 191.19 331.25 187C279.34 182.81 186.76 142.11 167.11 72C147.46 1.88995 112.4 -68.35 164.31 -65.54C216.22 -62.73 277.94 -71.16 268.12 -86.54C258.3 -101.92 282.12 -111.8 301.79 -101.97C321.46 -92.14 303.19 -57.08 328.45 -62.69C353.71 -68.3 321.44 -1.00005 353.7 -12.22C385.96 -23.44 379 -40.28 408.41 -38.88C437.82 -37.48 470.14 -33.26 461.72 -10.82C453.3 11.62 450.5 13 450.5 13Z" fill="#3A5B1A"/>
<path d="M449.1 339.9C449.1 339.9 464.53 393.22 437.87 404.44C411.21 415.66 381.76 518.07 329.87 513.87C277.98 509.67 185.38 468.97 165.74 398.87C146.1 328.77 111 258.53 162.91 261.34C214.82 264.15 276.54 255.73 266.73 240.34C256.92 224.95 280.73 215.09 300.4 224.91C320.07 234.73 301.79 269.81 327.05 264.19C352.31 258.57 320.05 325.92 352.3 314.7C384.55 303.48 377.55 286.6 407 288C436.45 289.4 468.73 293.61 460.31 316.06C451.89 338.51 449.1 339.9 449.1 339.9Z" fill="#3A5B1A"/>
<path d="M77.33 631.7C77.33 631.7 92.76 685 66.1 696.24C39.44 707.48 10 809.87 -41.92 805.67C-93.84 801.47 -186.41 760.77 -206.05 690.67C-225.69 620.57 -260.76 550.37 -208.86 553.18C-156.96 555.99 -95.23 547.57 -105.04 532.18C-114.85 516.79 -91.04 506.93 -71.37 516.75C-51.7 526.57 -70 561.57 -44.72 556C-19.44 550.43 -51.72 617.73 -19.47 606.51C12.78 595.29 5.78003 578.4 35.24 579.81C64.7 581.22 97 585.42 88.55 607.87C80.1 630.32 77.33 631.7 77.33 631.7Z" fill="#3A5B1A"/>
<path d="M470.14 694.17C470.14 694.17 485.56 747.48 458.91 758.7C432.26 769.92 402.8 872.33 350.91 868.13C299.02 863.93 206.42 823.23 186.78 753.13C167.14 683.03 132.05 612.8 184 615.6C235.95 618.4 297.63 609.99 287.82 594.6C278.01 579.21 301.82 569.35 321.49 579.17C341.16 588.99 322.88 624.07 348.14 618.46C373.4 612.85 341.14 680.18 373.39 668.96C405.64 657.74 398.64 640.9 428.1 642.31C457.56 643.72 489.83 647.92 481.41 670.37C472.99 692.82 470.14 694.17 470.14 694.17Z" fill="#3A5B1A"/>
<path d="M659.54 502.64C659.54 502.64 675 556 648.31 567.17C621.62 578.34 592.2 680.8 540.29 676.6C488.38 672.4 395.79 631.7 376.15 561.6C356.51 491.5 321.44 421.31 373.35 424.11C425.26 426.91 487 418.46 477.16 403C467.32 387.54 491.16 377.75 510.83 387.57C530.5 397.39 512.23 432.47 537.49 426.86C562.75 421.25 530.49 488.58 562.74 477.36C594.99 466.14 587.99 449.3 617.45 450.71C646.91 452.12 679.18 456.32 670.76 478.77C662.34 501.22 659.54 502.64 659.54 502.64Z" fill="#3A5B1A"/>
<path d="M133.44 575.59C133.44 575.59 169.92 610.66 220.44 568.59C270.96 526.52 350.89 516.67 320 476C289.11 435.33 324.2 324.49 188.12 401.65C52.04 478.81 -26.49 417.06 -23.68 445.12C-20.87 473.18 -29.29 488.61 4.38 494.22C38.05 499.83 26.82 502.64 45.06 532.09C63.3 561.54 113.8 616.28 133.44 575.59Z" fill="#4C7422"/>
<path d="M127.83 259.93C127.83 259.93 164.31 295 214.83 252.93C265.35 210.86 345.3 201.03 314.44 160.34C283.58 119.65 318.62 8.80998 182.54 86C46.46 163.19 -32.1 101.41 -29.29 129.47C-26.48 157.53 -34.91 173 -1.24001 178.56C32.43 184.12 21.21 187 39.44 216.44C57.67 245.88 108.19 300.62 127.83 259.93Z" fill="#4C7422"/>
<path d="M-25.08 359.55C-25.08 359.55 11.39 394.61 61.92 352.55C112.45 310.49 192.39 300.64 161.52 259.95C130.65 219.26 165.73 108.44 29.65 185.6C-106.43 262.76 -185 201 -182.21 229.07C-179.42 257.14 -187.82 272.56 -154.15 278.17C-120.48 283.78 -131.7 286.59 -113.47 316.04C-95.24 345.49 -44.72 400.23 -25.08 359.55Z" fill="#4C7422"/>
<path d="M-19.47 133.24C-19.47 133.24 17.01 168.31 67.53 126.24C118.05 84.1698 198 74.3198 167.11 33.6298C136.22 -7.06021 171.32 -117.88 35.24 -40.7202C-100.84 36.4398 -179.4 -25.3002 -176.6 2.7598C-173.8 30.8198 -182.21 46.2498 -148.54 51.8598C-114.87 57.4698 -126.09 60.2798 -107.86 89.7298C-89.63 119.18 -39.11 173.92 -19.47 133.24Z" fill="#4C7422"/>
<path d="M408.66 420C408.66 420 405.8 470.52 470.66 481.44C535.52 492.36 595 546.59 605.76 496.67C616.52 446.75 723.47 401.18 576.29 348.17C429.11 295.16 424.79 195.34 405.29 215.75C385.79 236.16 368.63 239.82 386.29 269.02C403.95 298.22 394.53 291.53 384.05 324.56C373.57 357.59 365 431.55 408.66 420Z" fill="#4C7422"/>
<path d="M105.27 22.9399C111 -20.3801 157.15 -64.4101 141.9 -79.4601C126.65 -94.5101 98.81 -111 105.1 -82.2001C111.39 -53.4001 55 -46.2601 49.55 -10.0901C44.1 26.0799 60.48 -7.56014 60.13 68.6699C59.78 144.9 91.93 211.38 118.87 175.85C145.81 140.32 185.65 142.34 179.04 114.85C172.43 87.3598 168.53 98.0199 156.87 55.0099C145.21 11.9999 105.27 22.9399 105.27 22.9399Z" fill="#588B23"/>
<path d="M-31.48 372.6C-25.78 329.28 20.4 285.24 5.15999 270.2C-10.08 255.16 -37.94 238.64 -31.64 267.45C-25.34 296.26 -81.72 303.4 -87.19 339.56C-92.66 375.72 -76.26 342.09 -76.61 418.33C-76.96 494.57 -44.81 561 -17.88 525.51C9.04999 490.02 48.9 491.99 42.29 464.51C35.68 437.03 31.79 447.68 20.14 404.67C8.48998 361.66 -31.48 372.6 -31.48 372.6Z" fill="#588B23"/>
<path d="M341.7 630.74C347.4 587.42 393.58 543.38 378.34 528.34C363.1 513.3 335.24 496.77 341.53 525.59C347.82 554.41 291.46 561.53 286 597.7C280.54 633.87 296.94 600.23 296.59 676.46C296.24 752.69 328.38 819.17 355.32 783.64C382.26 748.11 422.1 750.13 415.49 722.64C408.88 695.15 405 705.85 393.31 662.84C381.62 619.83 341.7 630.74 341.7 630.74Z" fill="#588B23"/>
<path d="M290 423.45C312.58 460.85 304 524.08 325.27 526.32C346.54 528.56 378.65 524.09 355.75 505.51C332.85 486.93 372.44 446.18 354.15 414.51C335.86 382.84 344.02 419.35 296.72 359.57C249.42 299.79 182.83 267.9 184 312.47C185.17 357.04 152.74 380.34 175 397.65C197.26 414.96 193.72 404.25 229.66 430.58C265.6 456.91 290 423.45 290 423.45Z" fill="#588B23"/>
<path d="M70.94 716.31C76.64 672.99 122.82 628.96 107.58 613.91C92.34 598.86 64.48 582.35 70.77 611.16C77.06 639.97 20.7 647.16 15.22 683.27C9.73999 719.38 26.16 685.81 25.81 762C25.46 838.19 57.6 904.74 84.54 869.22C111.48 833.7 151.32 835.71 144.71 808.22C138.1 780.73 134.2 791.39 122.55 748.38C110.9 705.37 70.94 716.31 70.94 716.31Z" fill="#588B23"/>
<path d="M148.23 303C105.91 313.85 47.83 287.42 39.55 307.17C31.27 326.92 26.32 359 50.72 342.39C75.12 325.78 102.72 375.45 138.34 367.06C173.96 358.67 136.61 355.97 207.49 327.87C278.37 299.77 328.05 245.18 285.05 233.42C242.05 221.66 229.05 183.94 206.05 200.3C183.05 216.66 194.36 216.3 158.79 243.17C123.22 270.04 148.23 303 148.23 303Z" fill="#588B23"/>
<path d="M432.26 151.91C475.75 147.71 529.06 182.78 540.26 164.54C551.46 146.3 561.26 115.44 534.65 128.06C508.04 140.68 488.38 87.38 451.9 90.18C415.42 92.98 451.9 101.41 377.55 118.24C303.2 135.07 245.68 181.37 286.37 199.61C327.06 217.85 334.07 257.13 359.32 244.51C384.57 231.89 373.32 230.51 412.63 209.44C451.94 188.37 432.26 151.91 432.26 151.91Z" fill="#588B23"/>
<path opacity="0.23" d="M375.45 -39.3099L409.12 822.08L399.8 822.38L358.43 -44.8999L375.45 -39.3099Z" fill="#1E2B13"/>
<path opacity="0.23" d="M592.45 -38.8998L689.67 825.57L680.4 826.55L575.07 -43.2798L592.45 -38.8998Z" fill="#1E2B13"/>
</svg>
