<svg width="308" height="700" viewBox="0 0 308 700" fill="none" xmlns="http://www.w3.org/2000/svg">
<path d="M0.130005 -47.4501L18.57 219.43L30.86 572.9L41.1 825.58L307.37 824.17L239.77 183.93L202.9 -57.3901L0.130005 -47.4501Z" fill="#85633E"/>
<path d="M141.83 -41.4199L157.25 174.93L165.67 340.18H169.88L160.06 168.91L150.24 29.2001L146.03 -41.4199H141.83Z" fill="#B5883E"/>
<path d="M174.09 340.18L167.08 215.37L164.27 158.91L158.66 86.1098L150.24 -37.2002H154.45L162.87 100.97L169.88 199.03L178.3 340.18" fill="#B5883E"/>
<path d="M174.29 459.06L182.92 661.48L186.14 815.99L190.35 816.13L185.91 655.97L180.48 525.24L178.49 459.2L174.29 459.06Z" fill="#B5883E"/>
<path d="M182.39 461.59L192.78 663.93L197.34 818.41L201.56 818.51L195.73 658.39L189.17 527.71L186.6 461.7L182.39 461.59Z" fill="#B5883E"/>
<path d="M170 340H166L174.5 461L178.5 460.5L170 340Z" fill="#B5883E"/>
<path d="M178.16 340H174L182.5 463L186.5 462L178.16 340Z" fill="#B5883E"/>
</svg>
