<svg width="28" height="29" viewBox="0 0 28 29" fill="none" xmlns="http://www.w3.org/2000/svg">
<path d="M20.8864 16.6852C21.2795 16.7133 21.558 16.7875 21.7219 16.9079C21.9118 17.0267 22.0392 17.1885 22.1039 17.3932C22.1671 17.572 22.1928 17.7791 22.1812 18.0147C22.1955 18.2486 22.2099 18.4825 22.2243 18.7165C21.8503 19.0003 21.37 19.2516 20.7833 19.4702C20.2211 19.6612 19.5922 19.8303 18.8968 19.9773C18.1998 20.0984 17.463 20.2088 16.6864 20.3086C15.9342 20.3809 15.182 20.4531 14.4298 20.5254C14.3445 21.2611 14.2364 22.0505 14.1055 22.8934C13.9729 23.7104 13.7346 24.7164 13.3905 25.9116C13.0761 26.7397 12.6953 27.3371 12.2481 27.7037C11.7994 28.0443 11.3151 28.2306 10.7953 28.2625C10.3014 28.2928 9.78736 28.2069 9.25315 28.0049C8.71734 27.7768 8.20593 27.5212 7.71893 27.238C7.64621 26.9033 7.60849 26.5012 7.60577 26.0318C7.60306 25.5623 7.61174 25.066 7.63183 24.543C7.65032 23.994 7.68261 23.4571 7.72869 22.9325C7.79917 22.3802 7.85745 21.8418 7.90353 21.3172C7.07973 21.4982 6.4111 21.6566 5.89762 21.7925C5.41014 21.9267 5.06482 22.0393 4.86166 22.13C4.3662 22.1343 3.97073 22.0673 3.67524 21.9288C3.37975 21.7904 3.13465 21.6228 2.93994 21.4261C2.74364 21.2033 2.57173 20.9529 2.42422 20.675C2.27671 20.397 2.10242 20.1077 1.90133 19.8069C1.99254 19.5926 1.98719 19.2929 1.88529 18.9078C1.80938 18.5211 1.64808 18.2309 1.40139 18.0374C1.60773 17.9986 1.75492 17.8461 1.84294 17.5798C1.92937 17.2875 1.91661 17.0795 1.80466 16.9559C2.21417 16.8265 2.65206 16.7344 3.11833 16.6797C3.60901 16.5974 4.08748 16.5289 4.55375 16.4742C5.02003 16.4195 5.45951 16.3534 5.87221 16.2759C6.28331 16.1724 6.64003 16.0331 6.94237 15.858C7.30627 15.8356 7.64418 15.8149 7.95609 15.7958C8.2924 15.749 8.64251 15.7145 9.00641 15.6922C9.06365 15.3495 9.03311 15.0644 8.91479 14.8368C8.79646 14.6093 8.75771 14.4029 8.79853 14.2178C8.84254 14.0846 8.92873 14.0011 9.0571 13.9671C9.20987 13.9055 9.29526 13.809 9.31328 13.6774C9.39652 13.3331 9.40656 13.0716 9.34341 12.8929C9.27866 12.6881 9.3147 12.425 9.45152 12.1035C9.56872 11.8876 9.71774 11.5523 9.89857 11.0977C10.1054 10.6414 10.1677 10.168 10.0854 9.67732C10.3341 9.47942 10.5553 9.25712 10.7489 9.01043C10.9685 8.76214 11.1897 8.53984 11.4124 8.34354C11.6596 8.11965 11.9221 7.93395 12.2001 7.78644C12.5024 7.61134 12.8745 7.51024 13.3164 7.48313C13.5679 7.75469 13.7536 8.01725 13.8735 8.2708C13.9934 8.52435 14.1126 8.7649 14.2309 8.99245C14.3492 9.22001 14.4927 9.43297 14.6615 9.63134C14.8562 9.82812 15.1281 10.0071 15.4771 10.1683C15.4915 10.4023 15.47 10.6906 15.4128 11.0333C15.3555 11.376 15.3113 11.7179 15.28 12.059C15.2488 12.4 15.2541 12.6998 15.2961 12.9581C15.338 13.2164 15.4791 13.3904 15.7195 13.48C15.633 13.7723 15.5466 14.0646 15.4602 14.3569C15.3982 14.6216 15.3361 14.8863 15.2741 15.1511C15.7208 15.2019 16.2308 15.2228 16.8042 15.2137C17.3761 15.1786 17.9251 15.1971 18.4514 15.2692C18.976 15.3153 19.4534 15.4425 19.8837 15.6509C20.3383 15.8318 20.6726 16.1765 20.8864 16.6852Z" fill="#FAEB9D"/>
</svg>
