<svg width="31" height="38" viewBox="0 0 31 38" fill="none" xmlns="http://www.w3.org/2000/svg">
<path d="M26.0143 13.0168C26.3976 13.0728 26.6577 13.1709 26.7946 13.3109C26.9315 13.451 27 13.619 27 13.8151C27 14.0112 26.9589 14.2353 26.8768 14.4874C26.7946 14.7115 26.7125 14.9496 26.6304 15.2017C25.8363 15.6499 24.8095 15.972 23.55 16.1681C22.3179 16.3361 21.0446 16.4622 19.7304 16.5462C18.4161 16.6022 17.1429 16.6303 15.9107 16.6303C14.706 16.6022 13.7339 16.6303 12.9946 16.7143C11.5161 16.8824 10.3524 17.0504 9.50357 17.2185C8.65476 17.3585 8.05238 17.4986 7.69643 17.6387C7.20357 17.6106 6.82024 17.5126 6.54643 17.3445C6.3 17.1765 6.10833 16.9804 5.97143 16.7563C5.8619 16.5042 5.77976 16.2381 5.725 15.958C5.69762 15.6499 5.62917 15.3277 5.51964 14.9916C5.71131 14.7675 5.83452 14.4594 5.88929 14.0672C5.94405 13.6751 5.8756 13.381 5.68393 13.1849C5.90298 13.1289 6.09464 12.9748 6.25893 12.7227C6.4506 12.4426 6.51905 12.2325 6.46429 12.0924C6.95714 11.9804 7.45 11.9104 7.94286 11.8824C8.4631 11.8263 8.96964 11.7843 9.4625 11.7563C9.95536 11.7283 10.4208 11.6863 10.8589 11.6303C11.3244 11.5742 11.7488 11.4622 12.1321 11.2941C13.4738 11.2381 14.8839 11.1961 16.3625 11.1681C17.8411 11.112 19.2238 11.056 20.5107 11C20.9214 11.1401 21.428 11.2241 22.0304 11.2521C22.6601 11.2521 23.2625 11.2941 23.8375 11.3782C24.4125 11.4342 24.9054 11.5742 25.3161 11.7983C25.7542 12.0224 25.9869 12.4286 26.0143 13.0168ZM23.6321 21.1261C24.125 21.2381 24.4125 21.4062 24.4946 21.6303C24.5768 21.8543 24.5494 22.1064 24.4125 22.3866C24.2756 22.6387 24.0565 22.9048 23.7554 23.1849C23.4815 23.465 23.2214 23.7171 22.975 23.9412C22.7286 23.8852 22.4685 23.9412 22.1946 24.1092C21.9208 24.2493 21.6744 24.4034 21.4554 24.5714C20.6887 24.4874 19.8946 24.4874 19.0732 24.5714C18.2792 24.6275 17.5399 24.6835 16.8554 24.7395C16.7185 24.7395 16.6363 24.7955 16.6089 24.9076C16.6089 25.0196 16.5679 25.0896 16.4857 25.1176C15.6917 24.8655 14.8429 24.7675 13.9393 24.8235C13.0357 24.8796 12.0911 24.9916 11.1054 25.1597C10.1196 25.3277 9.12024 25.5098 8.10714 25.7059C7.09405 25.874 6.08095 25.972 5.06786 26C4.76667 25.7759 4.53393 25.5098 4.36964 25.2017C4.23274 24.8655 4.1369 24.5154 4.08214 24.1513C4.02738 23.7591 4 23.3669 4 22.9748C4.02738 22.5826 4.04107 22.1905 4.04107 21.7983C4.12321 21.4902 4.27381 21.2521 4.49286 21.084C4.7119 20.916 4.93095 20.7619 5.15 20.6218C5.83452 20.5938 6.4506 20.5518 6.99821 20.4958C7.54583 20.4398 8.06607 20.3838 8.55893 20.3277C9.07917 20.2717 9.58571 20.2157 10.0786 20.1597C10.5988 20.1036 11.1601 20.0616 11.7625 20.0336C12.1185 19.9496 12.7345 19.8655 13.6107 19.7815C14.35 19.7255 15.3905 19.6695 16.7321 19.6134C18.1012 19.5574 19.9357 19.5294 22.2357 19.5294C22.2083 19.7815 22.2768 19.9636 22.4411 20.0756C22.6327 20.1877 22.8244 20.2857 23.0161 20.3697C23.2077 20.4258 23.372 20.5098 23.5089 20.6218C23.6732 20.7059 23.7143 20.8739 23.6321 21.1261Z" fill="#FAEB9D"/>
<g filter="url(#filter0_d)">
<path d="M26 5L5 33" stroke="#FAEB9D" stroke-width="3" stroke-linecap="round"/>
</g>
<defs>
<filter id="filter0_d" x="0.5" y="0.5" width="30.0002" height="37.0002" filterUnits="userSpaceOnUse" color-interpolation-filters="sRGB">
<feFlood flood-opacity="0" result="BackgroundImageFix"/>
<feColorMatrix in="SourceAlpha" type="matrix" values="0 0 0 0 0 0 0 0 0 0 0 0 0 0 0 0 0 0 127 0"/>
<feOffset/>
<feGaussianBlur stdDeviation="1.5"/>
<feColorMatrix type="matrix" values="0 0 0 0 0 0 0 0 0 0 0 0 0 0 0 0 0 0 0.15 0"/>
<feBlend mode="normal" in2="BackgroundImageFix" result="effect1_dropShadow"/>
<feBlend mode="normal" in="SourceGraphic" in2="effect1_dropShadow" result="shape"/>
</filter>
</defs>
</svg>
