<svg width="468" height="375" viewBox="0 0 468 375" fill="none" xmlns="http://www.w3.org/2000/svg">
<path d="M181.589 344.522C173.524 337.4 171.688 330.612 165.331 322.08C161.401 316.793 151.924 310.403 149.65 304.129C145.592 292.927 147.198 278.415 144.668 266.802C142.33 256.114 130.323 247.632 129.539 236.739C128.217 218.467 134.74 199.541 135.704 181.218C153.477 181.153 171.251 181.731 188.974 182.924C190.322 183.014 191.799 183.168 192.762 184.117C193.841 185.182 193.905 186.863 193.905 188.377C193.828 228.296 193.764 268.214 193.687 308.119C193.661 320.938 192.698 335.732 182.386 343.354" fill="#6D6E71"/>
<path d="M96.9582 138.117C94.9677 135.641 94.8778 132.189 96.4445 129.418C98.3452 126.056 101.312 123.438 103.662 120.384C107.117 115.893 110.057 109.863 111.149 104.307C111.997 99.9697 110.481 97.3778 109.402 92.3351C106.41 78.2591 111.098 55.6632 118.533 43.3323C123.324 35.3769 130.901 37.9688 138.722 32.9389C142.51 30.501 147.454 29.3462 150.973 26.6901C154.903 23.7389 156.855 22.1221 162.249 22.2633C171.251 22.4943 180.215 23.7132 188.948 25.8945C192.929 26.8954 196.872 28.0887 200.558 29.8979C209.701 34.3889 215.429 42.0877 222.544 48.9781C229.145 55.3681 232.201 63.8752 235.515 72.3439C237.685 77.8742 239.855 83.4301 241.165 89.2299C242.809 96.5181 243.066 104.037 242.976 111.505C242.719 133.01 239.586 154.747 230.956 174.455C228.862 179.229 226.268 184.092 221.863 186.863C219.205 188.544 216.084 189.327 213.028 190.071C206.915 191.585 200.802 193.087 194.689 194.601L183.85 227.77L178.636 209.228C177.069 203.66 171.367 200.349 165.755 201.735C165.716 201.748 165.691 201.748 165.652 201.76C162.056 202.646 158.46 203.531 154.852 204.429C147.005 206.367 139.081 208.317 131.003 208.497C124.197 208.651 114.372 206.739 112.626 200.169C111.663 196.551 113.782 192.483 112.626 188.916C111.997 186.979 109.724 183.604 108.465 181.987C107.579 180.845 105.678 175.456 109.12 175.071C112.189 168.078 108.426 165.717 105.909 162.843C103.855 160.495 101.183 160.995 101.517 158.147C101.748 156.145 102.352 154.593 103.328 152.822C104.985 149.845 107.232 146.214 106.115 144.918C103.675 142.108 99.4753 141.261 96.9582 138.117Z" fill="#D1D3D4"/>
<path d="M144.667 116.201C144.667 116.201 141.457 115.136 136.705 116.638C130.348 118.652 128.73 120.628 120.716 115.149C120.716 115.149 124.222 116.522 128.923 116.394C133.289 116.265 137.142 112.763 144.667 116.201Z" fill="#414042"/>
<path d="M116.689 99.9686C118.671 99.2963 120.642 98.6253 122.622 97.9419C124.358 97.3464 126.106 96.7605 127.86 96.3087C131.089 95.4752 134.387 95.0938 137.625 95.2825C142.432 95.5609 146.335 98.1381 149.185 99.1081C144.995 94.1385 138.72 91.4518 134.052 91.3017C129.395 91.1502 124.69 92.4333 120.098 93.9042C118.839 94.3145 117.52 94.7774 116.582 95.866C115.656 96.9642 115.349 98.8934 116.29 99.8065" fill="#939598"/>
<path d="M181.589 5.64672C162.852 0.206247 157.125 -2.46267 140.468 8.5466C133.674 13.0376 127.806 19.2607 120.087 21.8527C117.609 22.6867 114.809 23.1615 113.05 25.1118C111.919 26.3565 111.406 28.0502 111.123 29.7054C109.634 38.4436 113.717 47.2843 119.381 54.0977C125.044 60.9112 132.249 66.249 138.593 72.4465C150.768 84.354 159.706 99.5334 164.188 115.958C172.099 116.638 179.149 110.081 181.859 102.626C184.569 95.1708 184.017 86.9844 183.708 79.0675C182.797 55.7145 184.415 32.2589 188.499 9.25232" fill="#939598"/>
<path d="M229.029 1.27087C254.098 6.49321 279.975 16.2065 295.103 36.8393C301.255 45.2309 303.566 58.9604 309.255 67.6857C319.144 82.8395 335.711 90.7821 343.108 107.296C349.452 121.462 349.632 137.501 352.958 152.655C356.284 167.808 356.464 179.382 375.163 186.529C379.619 188.236 388.775 189.994 393.283 191.534C405.445 195.678 412.521 208.266 416.682 220.404C420.843 232.542 423.514 250.635 431.451 260.733C439.978 271.575 454.31 272.525 468 270.78C459.832 288.384 446.399 296.07 427.315 299.676C418.968 301.254 401.245 300.613 394.208 295.878C386.836 290.925 380.954 286.601 377.461 278.44C367.804 255.87 348.489 237.136 326.182 226.858C303.875 216.58 283.673 202.928 274.812 200.182C263.511 204.429 249.359 203.223 241.242 212.153C238.507 215.169 236.85 218.993 235.489 222.829C228.593 242.294 228.002 263.402 222.865 283.393C214.402 316.357 193.918 344.996 171.046 370.21C174.899 354.786 178.751 339.35 182.591 323.927C184.351 316.895 187.574 304.308 186.251 297.187C185.622 293.761 183.375 289.616 183.336 291.733C182.617 331.485 175.464 279.518 175.875 252.085C176.311 223.432 192.75 184.13 176.054 143.596C168.978 126.402 191.375 126.453 194.124 108.079C195.947 95.8505 191.671 79.9011 192.724 67.8654C194.008 53.1607 190.566 42.9726 196.063 27.2158C198.13 21.2749 194.586 9.61122 198.156 4.4402C201.726 -0.730817 219.346 -0.782142 229.029 1.27087Z" fill="#939598"/>
<path d="M121.821 169.746C118.79 165.474 115.965 163.023 112.934 158.737C112.356 157.916 110.789 156.376 109.852 156.017C108.311 155.427 105.858 157.005 104.419 156.171C103.842 155.837 103.906 155.516 103.61 155.042C103.238 154.426 103.045 153.836 102.506 154.233C101.517 154.952 101.196 155.76 100.888 156.44C100.04 158.262 99.6163 159.725 100.734 161.406C101.08 161.919 101.966 162.997 102.865 163.395C103.61 163.741 106.384 164.165 107.437 164.409C112.78 165.679 113.871 167.565 117.262 169.798C115.297 171.491 106.898 173.352 105.357 175.443C103.816 177.535 104.15 179.537 104.265 179.832C104.496 180.448 105.627 181.846 106.23 182.077C107.579 182.616 109.055 182.642 110.288 181.872C111.521 181.102 113.293 179.832 114.18 178.69C116.658 175.456 119.612 173.095 121.769 169.644" fill="#AA1D42"/>
<path d="M179.637 57.4981L195.883 56.4331C195.857 64.1318 195.96 76.7963 196.075 86.2402L179.534 84.5978C179.521 75.4747 179.521 66.326 179.637 57.4981Z" fill="#6D6E71"/>
<path d="M176.003 102.241C136.513 113.032 141.945 192.073 201.572 177.368C241.897 167.424 234.269 84.3283 176.003 102.241Z" fill="#414042"/>
<path d="M166.191 122.065C170.956 113.763 174.731 104.101 174.706 94.5164C174.693 89.7816 174.654 84.9057 174.628 80.017L200.57 81.0948C200.673 84.6876 200.776 88.537 200.865 92.7072C201.071 102.305 205.977 113.314 210.716 121.655C219.448 137.027 214.825 162.06 197.359 166.359C164.817 174.378 155.506 140.696 166.191 122.065Z" fill="#58595B"/>
<path d="M181.782 117.78C160.785 123.515 163.572 167.616 195.266 159.802C216.713 154.516 212.758 108.259 181.782 117.78Z" fill="#6D6E71"/>
<path d="M184.376 125.889C170.699 129.623 172.523 158.326 193.16 153.245C207.12 149.806 204.539 119.691 184.376 125.889Z" fill="#414042"/>
<path d="M201.251 63.7982L175.9 62.823C175.9 62.823 175.964 47.3485 175.579 29.6028C175.348 19.1837 173.922 3.41406 173.922 3.41406H198.772C198.772 3.41406 199.402 12.7296 200.557 29.9107C201.893 49.6838 201.251 63.7982 201.251 63.7982Z" fill="#58595B"/>
<path d="M396.982 297.905C388.211 290.104 379.825 277.388 373.506 267.495C363.168 251.328 351.584 240.614 336.212 229.117C325.309 220.956 314.251 212.808 301.859 207.175C289.466 201.542 275.467 198.54 262.111 201.209C248.755 203.878 236.26 212.898 231.701 225.717C229.684 231.375 229.261 237.457 228.631 243.424C224.881 278.736 206.966 314.163 188.512 344.522C260.416 346.562 338.588 340.274 410.325 334.975C415.064 334.629 419.97 334.231 424.144 331.947C415.218 320.219 396.982 297.905 396.982 297.905Z" fill="#414042"/>
<path d="M13.0461 178.895C11.916 178.6 10.9785 177.484 10.8116 176.213C10.6446 174.943 11.2482 173.634 12.2499 173.07C11.184 173.006 10.4263 171.71 10.4391 170.542C10.452 169.374 11.0042 168.322 11.5692 167.347C10.5419 167.09 9.89974 165.82 9.92543 164.652C9.95111 163.498 10.4905 162.458 11.0556 161.509C10.2337 160.572 10.041 159.173 10.0539 157.89C10.1951 146.971 21.2909 138.772 29.9081 136.488C33.2857 135.589 40.0151 132.856 51.7145 136.128C54.8866 137.014 58.1357 139.336 60.5372 141.761C62.7332 143.968 63.8248 146.56 64.7366 149.653C64.955 150.384 65.1604 151.102 65.3788 151.834C65.5457 152.424 65.7255 153.078 65.4815 153.617C65.3531 153.9 65.1348 154.105 64.955 154.349C64.6981 154.695 64.4669 155.17 64.056 155.157C63.7735 155.157 63.5295 154.901 63.4139 154.618C63.2983 154.336 63.2726 154.015 63.2341 153.707C63.1827 153.168 63.08 152.629 62.9644 152.103C62.9387 152.001 62.913 151.911 62.8617 151.821C62.7974 151.706 62.6947 151.629 62.592 151.564C61.937 151.115 61.2178 150.769 60.4858 150.538C60.5757 151.359 60.6399 152.18 60.7042 153.002C60.717 153.232 60.6656 153.694 60.8197 153.887C60.9738 154.079 61.449 154.105 61.6673 154.169C62.9516 154.567 64.1844 155.26 65.2504 156.171C65.5586 156.427 65.8539 156.723 66.0337 157.082C66.3676 157.749 66.3034 158.583 65.9823 159.238C65.6741 159.892 65.1476 160.38 64.5954 160.803C64.3899 160.752 64.1844 160.533 63.9789 160.482C63.9147 159.61 63.8248 158.878 63.7093 158.006C63.6964 157.89 63.6707 157.775 63.6194 157.672C63.5551 157.557 63.4396 157.48 63.324 157.415C62.6177 157.018 61.8471 156.787 61.0637 156.723C61.1922 157.762 61.3206 158.801 61.449 159.841C63.1057 159.789 64.6853 160.752 66.0851 161.791C66.3676 161.996 66.6501 162.227 66.8171 162.548C66.9455 162.792 66.9969 163.074 67.0483 163.344C67.1125 163.69 67.1638 164.024 67.2281 164.37C67.2666 164.601 67.3051 164.845 67.2281 165.063C67.1767 165.217 67.0611 165.332 66.9584 165.435C66.3676 166 65.6099 166.346 64.8137 166.41C64.6596 165.409 64.5055 164.409 64.3385 163.408C63.568 162.907 62.7204 162.574 61.8343 162.42C61.9113 163.074 61.9884 163.741 62.0654 164.396C62.0911 164.652 62.0654 165.114 62.181 165.345C62.2966 165.589 62.4764 165.602 62.7332 165.692C63.8762 166.115 65.0063 166.526 66.1493 166.949C66.4832 167.077 66.8299 167.206 67.1125 167.45C67.7418 168.001 67.883 168.989 67.9729 169.862C68.0115 170.272 68.05 170.683 67.9344 171.068C67.6904 171.825 66.8942 172.133 66.2007 172.364C66.008 172.428 65.7769 172.479 65.6099 172.351C65.4687 172.236 65.4301 172.03 65.3916 171.838C65.2632 171.029 65.1348 170.208 64.9935 169.4C64.1587 169.092 63.3368 168.72 62.5406 168.284C62.6947 169.259 62.8103 170.234 62.9002 171.222C63.9019 171.645 64.9036 172.082 65.9053 172.505C66.5346 172.775 67.1638 173.044 67.7417 173.442C67.9087 173.557 68.0757 173.686 68.1912 173.852C68.3967 174.148 68.4609 174.532 68.5123 174.905C68.615 175.636 68.7049 176.419 68.371 177.047C68.2298 177.304 68.0243 177.509 67.8316 177.715C67.4464 178.1 66.9584 178.523 66.4447 178.343C66.3419 178.305 66.2392 178.241 66.1878 178.138C66.1621 178.074 66.1493 178.01 66.1493 177.933C66.0979 177.176 66.0337 176.431 65.9823 175.674C65.9695 175.559 65.9567 175.431 65.9053 175.341C65.8539 175.264 65.764 175.212 65.687 175.161C64.9036 174.725 64.056 174.417 63.2084 174.237C63.324 174.956 63.4396 175.674 63.5552 176.393C63.6194 176.816 63.5937 177.381 63.9789 177.612C64.4669 177.92 65.2247 177.958 65.764 178.138C66.3805 178.343 66.984 178.574 67.5876 178.857C67.8702 178.985 68.1399 179.139 68.371 179.357C69.0132 179.96 69.1801 180.961 69.1544 181.859C69.1416 182.244 69.1031 182.642 68.8847 182.924C68.7691 183.078 68.6022 183.194 68.4481 183.309C68.0628 183.579 67.6647 183.861 67.2024 183.938C67.1767 183.104 66.9712 182.27 66.6373 181.513C66.5859 181.397 66.5346 181.295 66.4575 181.192C66.3548 181.076 66.2263 180.987 66.0979 180.91C65.4301 180.525 64.711 180.268 63.9789 180.153C64.0175 180.82 64.0817 181.474 64.1844 182.129C64.2358 182.449 64.2872 182.77 64.3385 183.091C64.377 183.386 64.4284 183.399 64.6981 183.502C65.9053 183.925 67.0996 184.348 68.3068 184.772C68.5251 184.849 68.7306 184.926 68.9233 185.067C69.1159 185.221 69.27 185.439 69.3856 185.67C69.7066 186.35 69.7066 187.184 69.3856 187.839C69.0645 188.493 68.4481 188.942 67.7675 189.006C67.7161 189.006 67.6775 189.006 67.6262 188.981C67.5748 188.942 67.5491 188.865 67.5363 188.801C67.4207 188.275 67.3565 187.723 67.3436 187.184C67.3436 187.12 67.3436 187.043 67.3051 186.992C67.2666 186.94 67.2152 186.927 67.1639 186.915C66.3805 186.697 65.5971 186.504 64.8009 186.337C64.955 187.454 65.1091 188.557 65.2632 189.673C65.276 189.725 65.276 189.763 65.3017 189.802C65.3402 189.866 65.4173 189.879 65.4943 189.879C66.419 189.956 67.3436 190.02 68.2426 190.276C68.6279 190.379 69.0003 190.533 69.3214 190.803C69.8094 191.239 70.0662 191.945 70.0534 192.625C70.0277 193.715 69.3214 194.716 68.371 194.986C68.2811 194.382 68.2041 193.767 68.1142 193.164C68.1013 193.099 68.0885 193.022 68.05 192.971C67.9986 192.907 67.9216 192.881 67.8445 192.868C67.0354 192.676 66.2135 192.483 65.4045 192.304C65.5329 193.382 65.6613 194.459 65.8026 195.537C67.4079 195.743 68.9875 196.256 70.4515 197.051C70.4515 197.051 71.6073 210.781 63.2598 214.566C55.3232 218.172 45.2163 221.38 32.2968 218.21C19.3646 215.041 16.7576 210.563 15.8458 208.664C14.934 206.765 14.2405 203.865 14.2405 203.865L15.4605 202.261C14.3304 202.479 13.2388 201.247 13.1489 199.977C13.059 198.707 13.7396 197.526 14.6001 196.731C13.3929 196.679 12.815 194.832 12.815 193.51C12.815 192.188 13.2002 190.777 14.1762 190.046C13.136 189.763 12.2756 188.737 12.1215 187.582C11.9545 186.414 12.5068 185.208 13.4314 184.669C11.8004 183.463 11.6078 180.499 13.059 179.165L13.0461 178.895Z" fill="#939598"/>
<path d="M12.9564 179.203C10.1439 178.202 9.60448 174.494 12.0831 172.787C12.1087 172.98 12.1344 173.172 12.1601 173.378C9.10362 172.736 10.2466 169.002 11.2868 167.18C11.351 167.334 11.4152 167.488 11.4795 167.655C10.375 167.231 9.74577 166.269 9.61734 165.089C9.52744 164.255 9.74577 163.446 10.0668 162.689C10.4136 161.855 10.5291 161.688 10.2337 160.803C9.2192 157.736 9.88702 154.285 11.1327 151.359C13.7397 145.2 19.3775 140.517 25.3492 137.784C36.6248 132.638 52.7677 132.138 61.4491 142.262C62.6691 143.686 63.5424 145.341 64.2102 147.073C64.6597 148.228 64.9936 149.434 65.3532 150.628C65.5843 151.423 66.0338 152.398 65.8797 153.245C65.7385 154.041 64.8266 155.581 63.8635 155.401C63.2085 155.285 63.0929 154.657 62.9388 154.144C62.759 153.54 62.9517 152.706 62.6178 152.155C62.1683 151.423 61.1023 151.077 60.3575 150.807C60.4987 150.705 60.6272 150.602 60.7684 150.499C60.8455 151.308 60.7428 152.36 60.9868 153.117C61.2179 153.823 61.7958 153.848 62.4251 154.092C63.5681 154.541 64.6854 155.209 65.5843 156.055C67.2924 157.672 66.3806 159.712 64.7881 161.008C64.6725 161.098 64.5313 161.124 64.4029 161.06C63.6452 160.662 63.6837 160.764 63.5809 159.956C63.5296 159.507 63.5809 158.93 63.4268 158.506C63.3369 158.275 62.1298 156.658 61.4234 157.351C61.3721 157.403 61.5262 159.045 61.6546 159.225C61.9885 159.661 62.194 159.558 62.7205 159.687C63.6708 159.918 64.5441 160.392 65.3403 160.918C66.7401 161.842 67.3823 162.638 67.4979 164.383C67.6006 165.858 66.1751 166.526 64.8523 166.731C64.6982 166.757 64.4927 166.693 64.4542 166.513C64.3386 165.782 64.3515 164.793 64.0818 164.101C63.6837 163.087 62.6563 162.933 61.7188 162.74C61.8601 162.638 61.9885 162.535 62.1297 162.433C62.2068 163.074 62.194 163.793 62.3609 164.409C62.5792 165.281 62.8361 165.409 63.6452 165.705C64.7625 166.115 66.3292 166.385 67.2539 167.18C68.1657 167.976 68.6152 170.016 68.217 171.158C67.9217 172.005 66.4062 173.147 65.4944 172.659C65.0193 172.402 65.0321 171.774 64.9551 171.312C64.7753 170.285 64.7753 169.888 63.8891 169.31C63.4397 169.015 62.8361 168.823 62.3609 168.566C62.515 168.45 62.6691 168.322 62.8361 168.207C63.0287 169.49 62.8489 170.696 64.0433 171.376C65.122 171.979 66.3677 172.261 67.4465 172.89C68.6922 173.621 69.0903 174.879 68.8977 176.316C68.7693 177.266 67.5492 179.139 66.342 178.651C65.9568 178.497 65.9439 178.266 65.8155 177.933C65.6229 177.419 65.854 176.765 65.6871 176.239C65.2761 174.982 64.1974 174.815 63.0929 174.545C63.2213 174.417 63.3626 174.276 63.491 174.148C63.6066 174.853 63.6323 175.713 63.8506 176.393C64.0818 177.137 64.2102 177.355 65.1477 177.663C65.5201 177.792 65.9054 177.856 66.2778 177.984C67.2924 178.331 68.4482 178.728 69.0004 179.703C70.1177 181.667 69.3215 183.579 67.2667 184.246C67.0484 184.31 66.8814 184.13 66.8558 183.938C66.7016 181.872 65.9439 180.897 63.8635 180.473C64.0047 180.371 64.1332 180.268 64.2744 180.165C64.313 180.794 64.3772 181.436 64.4671 182.064C64.6083 183.027 64.7111 183.142 65.6614 183.527C66.6246 183.925 67.8189 184.105 68.7179 184.618C69.7324 185.195 70.1049 186.414 69.8095 187.531C69.604 188.313 68.6023 189.596 67.652 189.34C67.3438 189.25 67.3823 189.199 67.2025 188.916C66.8814 188.403 67.1768 187.941 66.7401 187.428C66.2521 186.851 65.4046 186.838 64.6854 186.671C64.8138 186.543 64.9551 186.401 65.0835 186.273C65.1991 187.107 65.3147 187.941 65.4302 188.775C65.533 189.519 65.4559 189.417 66.021 189.622C66.3292 189.738 66.7915 189.699 67.1254 189.738C68.0886 189.879 69.1802 190.084 69.8095 190.905C71.0038 192.471 70.1048 194.613 68.4225 195.306C68.2812 195.371 68.0501 195.242 68.0244 195.088C67.9216 194.344 67.9987 193.561 67.4465 193.151C66.9456 192.791 65.8797 192.753 65.289 192.612C65.4303 192.509 65.5586 192.406 65.6999 192.304C65.8026 193.112 65.6742 194.832 66.3934 195.306C66.753 195.537 67.5492 195.55 67.973 195.678C68.5124 195.845 69.0389 196.038 69.5526 196.269C70.4002 196.641 70.6057 196.628 70.7598 197.334C71.1065 198.925 70.7598 200.991 70.5543 202.582C70.2333 205.122 69.6168 207.676 68.384 209.947C66.9713 212.564 64.9166 214.168 62.2325 215.349C54.8995 218.544 47.0785 220.353 39.052 219.66C34.4288 219.262 29.8184 218.133 25.4905 216.452C22.9605 215.464 20.4435 214.233 18.3758 212.449C17.1943 211.435 16.1926 210.229 15.5248 208.818C15.1267 207.984 14.8185 207.111 14.5359 206.226C14.3433 205.623 13.881 204.673 13.9195 204.019C13.9581 203.3 14.7158 202.659 15.1524 202.081C15.2423 202.248 15.3322 202.402 15.4349 202.569C14.0736 202.62 13.0848 201.581 12.8536 200.285C12.5839 198.822 13.3545 197.488 14.3562 196.487C14.4075 196.666 14.4461 196.846 14.4974 197.026C11.4795 196.474 12.2628 191.29 13.9324 189.802C13.9837 189.981 14.0223 190.161 14.0736 190.341C11.4666 189.391 10.9658 185.978 13.2517 184.374C13.226 184.541 13.2132 184.708 13.1875 184.874C12.25 184.079 11.762 182.963 11.7492 181.744C11.7363 181.128 11.8391 180.512 12.0959 179.96C12.25 179.614 12.7252 179.177 12.7894 178.805C12.8665 178.395 13.4829 178.574 13.4058 178.972C13.2774 179.678 12.6353 180.101 12.4683 180.845C12.173 182.167 12.6224 183.54 13.6498 184.413C13.8168 184.554 13.7397 184.81 13.5856 184.913C11.762 186.196 12.1858 188.955 14.2534 189.712C14.4589 189.789 14.5873 190.071 14.3947 190.251C13.1233 191.38 12.1344 195.948 14.6772 196.41C14.9212 196.448 14.9726 196.782 14.8185 196.949C14.2663 197.501 13.7782 198.116 13.5728 198.899C13.2389 200.182 13.7654 201.991 15.4477 201.927C15.6661 201.914 15.8715 202.21 15.7303 202.415C15.4606 202.761 15.2037 203.108 14.9341 203.454C14.6901 203.762 14.5745 203.967 14.5745 203.916C14.5231 205.058 15.3579 206.726 15.7817 207.766C16.2954 209.023 17.0017 210.152 17.952 211.14C22.023 215.362 28.6497 217.171 34.1976 218.3C41.9672 219.878 49.8653 219.185 57.3396 216.606C60.1135 215.644 63.414 214.656 65.61 212.616C67.5364 210.832 68.6537 208.369 69.3215 205.867C69.9122 203.647 70.1562 201.35 70.1819 199.053C70.1819 198.553 70.3103 197.783 70.1434 197.308C69.8609 196.461 66.6888 195.999 65.7128 195.858C65.5587 195.832 65.4945 195.678 65.4816 195.55C65.3532 194.472 65.2248 193.394 65.0835 192.317C65.0578 192.099 65.3146 191.97 65.4944 192.009C66.1237 192.15 67.7676 192.24 68.2556 192.74C68.7051 193.202 68.6023 194.331 68.6793 194.921C68.5509 194.844 68.4097 194.767 68.2812 194.703C70.503 193.779 69.8609 191.072 67.8831 190.546C67.2667 190.379 65.777 190.546 65.2119 190.148C64.4799 189.635 64.6083 187.287 64.4927 186.453C64.4542 186.209 64.6211 186.004 64.8908 186.055C65.6485 186.222 67.1254 186.222 67.6006 186.902C67.8189 187.21 67.6648 188.634 68.3711 188.506C69.0133 188.39 69.4627 186.735 69.2187 186.196C68.872 185.413 68.0501 185.041 67.3181 184.772C66.4962 184.49 64.7111 184.246 64.146 183.54C63.6066 182.86 63.7093 180.999 63.658 180.153C63.6451 179.934 63.8763 179.806 64.0689 179.845C64.9165 180.024 66.1494 180.294 66.7401 181.025C67.3566 181.782 67.4593 183.001 67.5364 183.938C67.3951 183.835 67.2667 183.733 67.1254 183.63C69.1802 182.963 69.4114 180.461 67.6263 179.229C66.5989 178.523 65.3917 178.574 64.3001 178.1C62.8874 177.484 63.1186 175.636 62.9003 174.314C62.8618 174.071 63.0415 173.852 63.2984 173.917C64.0818 174.109 65.61 174.404 66.1494 175.097C66.2778 175.264 66.265 175.469 66.3292 175.662C66.3549 176.034 66.3806 176.419 66.4063 176.791C66.265 177.343 66.4705 177.548 67.0355 177.407C68.2812 177.689 68.3454 176.201 68.2684 175.328C68.1785 174.212 67.6391 173.673 66.7016 173.185C65.4302 172.544 64.069 172.043 62.759 171.479C62.6563 171.427 62.6049 171.312 62.6049 171.196C62.515 170.247 62.3994 169.297 62.2582 168.348C62.2196 168.078 62.4636 167.847 62.7333 167.988C63.3241 168.296 64.8138 168.643 65.1862 169.105C65.4944 169.477 65.4559 170.042 65.533 170.516C65.6742 171.376 65.9824 172.736 67.0997 171.633C68.4353 170.311 67.4722 168.014 66.098 167.257C64.9679 166.641 62.9902 166.641 62.0912 165.692C61.4748 165.037 61.6417 163.254 61.539 162.42C61.5133 162.202 61.7573 162.073 61.95 162.112C62.5792 162.24 64.1588 162.561 64.5955 163.177C65.0835 163.87 65.0193 165.486 65.1477 166.32C65.0193 166.243 64.878 166.166 64.7496 166.102C65.9953 165.91 67.0869 165.358 66.8429 163.947C66.7016 163.1 66.4961 162.587 65.8283 161.996C64.6468 160.957 63.0416 160.2 61.4619 160.149C61.2693 160.149 61.1666 160.007 61.1409 159.828C61.0125 158.788 60.8841 157.749 60.7556 156.71C60.7299 156.556 60.9226 156.376 61.0767 156.389C61.9371 156.492 63.4782 156.697 63.9534 157.569C64.3258 158.262 63.9277 159.289 64.2873 159.943C64.5698 160.457 64.5313 160.277 64.9936 160.033C66.0467 159.481 66.1109 157.954 65.6229 157.095C65.0835 156.12 63.9277 155.465 62.9388 154.978C62.3224 154.67 61.3335 154.618 60.7942 154.195C59.9851 153.553 60.2804 151.398 60.1777 150.487C60.152 150.281 60.396 150.114 60.5887 150.179C61.3849 150.461 62.682 150.859 63.17 151.616C63.4397 152.039 63.3369 152.591 63.5039 153.04C63.5681 153.207 63.4782 153.515 63.5809 153.669C64.7881 155.465 65.2248 152.912 65.2248 152.334C65.2248 151.641 64.7367 150.641 64.5441 149.973C64.3258 149.216 64.0946 148.459 63.8249 147.715C63.2727 146.201 62.5792 144.725 61.616 143.417C57.1854 137.411 49.7112 135.192 42.5708 134.884C33.7738 134.499 24.0521 137.745 17.5539 143.699C15.3193 145.739 13.3801 148.138 12.0831 150.884C10.7346 153.733 9.27059 158.545 11.3767 161.329C11.4409 161.419 11.4281 161.56 11.3767 161.65C10.5035 163.151 9.29628 166.102 11.6978 167.013C11.8904 167.09 12.006 167.296 11.8904 167.488C11.0685 168.938 9.73293 172.197 12.3913 172.749C12.6867 172.813 12.6738 173.185 12.4683 173.339C10.4393 174.725 10.9016 177.766 13.1875 178.574C13.5214 178.728 13.3545 179.344 12.9564 179.203Z" fill="black"/>
<path d="M62.6047 191.765C62.7716 192.92 63.0157 194.331 63.1826 195.486C61.7057 195.05 60.1775 195.088 58.6749 195.127C57.4549 195.165 56.2349 195.191 55.002 195.229C53.538 195.268 52.0611 195.306 50.6099 195.46C45.4216 195.999 41.4276 197.205 35.9696 197.449C35.6614 197.462 34.2102 196.795 34.1588 196.166C34.0946 195.435 34.5313 194.639 35.2376 194.267C35.8283 193.946 36.188 193.844 36.8301 193.677C38.7179 193.164 44.1502 192.355 44.9464 192.201C47.5149 191.739 53.3454 191.508 56.0166 191.444C58.1998 191.38 60.4215 191.316 62.6047 191.765Z" fill="white"/>
<path d="M62.913 191.675C63.0928 192.92 63.3111 194.164 63.4909 195.396C63.5294 195.627 63.3496 195.858 63.0928 195.794C60.4986 195.114 57.6476 195.473 55.0021 195.55C52.0869 195.627 49.2487 195.897 46.372 196.371C44.0604 196.756 41.7616 197.205 39.4372 197.475C37.7676 197.68 35.7386 198.245 34.3387 197C33.4269 196.192 33.8636 194.909 34.724 194.203C35.8798 193.253 37.8318 193.087 39.2573 192.817C42.1597 192.278 45.0878 191.752 48.0287 191.508C52.7804 191.11 57.9815 190.584 62.6947 191.444C63.1056 191.521 62.9258 192.137 62.5277 192.06C58.7264 191.354 54.6811 191.739 50.8412 191.957C48.1058 192.111 45.4217 192.432 42.7119 192.868C41.2864 193.099 39.8609 193.33 38.4483 193.613C37.8575 193.728 37.2668 193.856 36.6761 194.023C36.0853 194.19 35.4303 194.37 35.0322 194.87C34.9166 194.986 34.801 195.101 34.6726 195.217C34.7753 195.704 34.8781 196.179 34.9809 196.666C35.0964 196.82 35.5202 196.987 35.7 197.039C36.5605 197.295 37.7805 197 38.6666 196.91C39.9765 196.769 41.2736 196.577 42.5707 196.358C44.6126 196.025 46.6417 195.627 48.6836 195.358C51.1365 195.024 53.5766 194.934 56.0423 194.87C58.4439 194.806 60.9096 194.562 63.2597 195.165C63.1313 195.294 62.9901 195.435 62.8616 195.563C62.6818 194.318 62.4635 193.074 62.2837 191.842C62.2323 191.444 62.8488 191.264 62.913 191.675Z" fill="black"/>
<path d="M61.7829 185.17C61.9627 186.35 62.1425 187.839 62.3223 189.032C60.9224 188.583 49.6597 189.288 46.462 189.699C45.5373 189.815 38.4355 191.098 35.7257 191.277C35.3533 191.303 34.968 191.316 34.5956 191.187C33.5682 190.828 33.0674 189.25 33.6838 188.313C34.1846 187.531 35.1607 187.389 36.034 187.21C38.0374 186.786 39.7069 186.247 41.6204 185.965C48.4011 184.939 54.9636 183.874 61.7829 185.17Z" fill="white"/>
<path d="M62.0911 185.08C62.2709 186.363 62.4379 187.646 62.6305 188.942C62.6691 189.173 62.4893 189.404 62.2324 189.34C61.1537 189.045 59.8437 189.199 58.7393 189.224C56.8386 189.263 54.9251 189.365 53.0244 189.481C50.0964 189.661 47.194 189.892 44.3045 190.366C42.3139 190.7 40.3362 191.021 38.3328 191.29C37.0999 191.457 35.1992 192.009 34.0819 191.252C32.8105 190.392 32.772 188.39 34.0177 187.518C34.8397 186.94 36.0468 186.876 36.9972 186.645C38.4997 186.286 39.9894 185.888 41.5177 185.632C48.2342 184.541 55.1049 183.63 61.86 184.849C62.2709 184.926 62.0911 185.542 61.693 185.465C55.9397 184.425 50.1606 185.003 44.4329 185.837C41.7874 186.222 39.2446 186.786 36.6504 187.377C35.3919 187.659 33.2215 188.018 33.8379 189.853C34.3003 191.226 35.8799 190.944 36.9972 190.803C40.0794 190.443 43.1101 189.84 46.1795 189.391C48.7736 189.019 51.4191 188.904 54.039 188.75C55.8369 188.647 57.6348 188.57 59.4328 188.544C60.3831 188.531 61.4619 188.442 62.3994 188.698C62.271 188.827 62.1297 188.968 62.0012 189.096C61.8214 187.813 61.6545 186.53 61.4619 185.234C61.4234 184.849 62.0398 184.682 62.0911 185.08Z" fill="black"/>
<path d="M61.0638 179.524C61.0638 180.768 61.1794 182.09 61.4619 183.309C59.3172 183.194 57.4936 183.155 55.3489 183.04C54.1289 182.975 49.5955 183.091 48.5296 183.219C44.0219 183.758 39.2317 184.605 34.7241 185.144C34.1975 185.208 33.1059 184.823 32.8748 184.156C32.528 183.155 32.8876 181.936 33.7609 181.513C34.6213 181.102 35.8414 180.768 36.7917 180.614C45.2548 179.293 52.2539 178.369 61.1409 179.383" fill="white"/>
<path d="M61.3848 179.524C61.3977 180.768 61.5132 181.987 61.7701 183.219C61.8086 183.412 61.6802 183.643 61.4619 183.63C57.8018 183.437 54.1545 183.283 50.4945 183.425C46.1152 183.591 41.7745 184.515 37.4338 185.118C36.0597 185.311 34.1975 185.927 33.016 184.887C32.1556 184.13 32.2583 182.565 32.9775 181.744C34.1205 180.422 36.6761 180.319 38.2686 180.076C40.4646 179.742 42.6735 179.421 44.8824 179.177C50.3018 178.561 55.7085 178.472 61.1408 179.075C61.5518 179.113 61.5518 179.768 61.1408 179.716C56.0552 179.152 50.9568 179.19 45.8712 179.716C43.2128 179.986 40.5673 180.371 37.9218 180.781C36.7274 180.961 35.379 181.089 34.2874 181.654C33.3242 182.154 32.2968 183.655 33.6838 184.579C34.3131 184.99 35.0708 184.797 35.7515 184.708C40.4389 184.117 45.1264 183.052 49.8524 182.821C53.7179 182.629 57.5706 182.796 61.4362 183.001C61.3334 183.142 61.2307 183.271 61.1279 183.412C60.8583 182.129 60.7298 180.845 60.717 179.549C60.7427 179.113 61.3848 179.113 61.3848 179.524Z" fill="black"/>
<path d="M60.306 173.249C60.4601 174.404 60.7041 175.816 60.8711 176.983C59.3942 176.547 57.866 176.765 56.3634 176.611C54.3985 176.419 48.4525 176.547 46.9885 176.701C41.8002 177.214 39.2574 178.138 33.6452 178.857C33.337 178.895 31.8858 178.202 31.8344 177.561C31.7702 176.829 32.2069 176.047 32.9132 175.662C33.504 175.341 33.8636 175.251 34.5057 175.071C36.3935 174.558 41.8772 173.378 42.6863 173.288C45.6914 172.954 50.4431 172.736 53.384 172.685C55.7084 172.659 58.1228 172.8 60.306 173.249Z" fill="white"/>
<path d="M60.6143 173.159C60.7941 174.404 60.9996 175.649 61.1794 176.893C61.2179 177.124 61.0381 177.355 60.7813 177.291C58.6623 176.765 56.2094 176.868 54.0133 176.842C52.0998 176.816 50.1863 176.855 48.2728 176.945C43.8165 177.15 39.4758 178.343 35.0709 178.985C33.9022 179.152 32.1556 179.28 31.5906 177.869C30.9741 176.329 32.8234 175.264 33.9793 174.892C36.9844 173.955 40.2977 173.198 43.4441 172.89C48.9791 172.351 54.8994 171.876 60.396 172.941C60.8069 173.018 60.6272 173.634 60.229 173.557C55.7214 172.685 51.0211 173.006 46.462 173.301C43.2643 173.506 40.272 174.058 37.1513 174.776C36.445 174.943 35.7386 175.097 35.0452 175.277C34.7498 175.354 34.4544 175.418 34.1719 175.508C33.8251 175.623 33.4014 175.739 33.0931 175.944C32.3868 176.419 32.1428 177.355 32.6822 178.1C33.3371 178.998 35.2635 178.318 36.1368 178.177C37.1513 178.01 38.1659 177.817 39.1804 177.625C42.4937 176.983 45.7942 176.367 49.1846 176.265C51.0596 176.2 52.9474 176.175 54.8352 176.213C56.8515 176.265 59.009 176.188 60.961 176.675C60.8326 176.804 60.6913 176.945 60.5629 177.073C60.3831 175.828 60.1776 174.584 59.9979 173.339C59.9336 172.929 60.5501 172.749 60.6143 173.159Z" fill="black"/>
<path d="M59.7155 166.872C59.8953 168.053 60.0751 169.541 60.2549 170.734C57.6479 170.26 47.3997 170.17 43.8038 170.94C42.892 171.132 37.1514 172.03 33.6583 172.967C33.2987 173.07 32.9006 173.005 32.5282 172.877C31.5008 172.518 31 170.94 31.6164 170.003C32.1172 169.22 33.1318 168.912 33.9922 168.733C35.9956 168.309 37.9862 167.758 39.8869 167.475C46.6805 166.462 52.8833 165.576 59.7155 166.872Z" fill="white"/>
<path d="M60.0238 166.782C60.2036 168.065 60.3705 169.349 60.5632 170.645C60.6017 170.901 60.4219 171.081 60.165 171.042C56.9159 170.491 53.4485 170.645 50.1737 170.722C47.0145 170.799 43.9837 171.222 40.8887 171.787C38.7954 172.159 36.702 172.556 34.6344 173.057C33.2474 173.39 31.8348 173.48 31.2184 171.902C30.6405 170.401 31.5522 169.195 32.9649 168.681C35.5334 167.745 38.4871 167.347 41.184 166.962C47.3869 166.051 53.5898 165.435 59.8055 166.564C60.2164 166.641 60.0366 167.257 59.6385 167.18C54.6043 166.256 49.5572 166.487 44.5102 167.142C41.9289 167.475 39.3476 167.834 36.8176 168.425C35.6746 168.694 34.4546 168.874 33.3373 169.233C32.5411 169.503 31.7449 170.029 31.6935 170.965C31.6165 172.223 32.8622 172.8 33.9409 172.569C39.7072 171.286 45.3835 170.144 51.3038 170.054C54.2832 170.016 57.4039 169.913 60.3577 170.414C60.2293 170.542 60.088 170.683 59.9596 170.811C59.7798 169.528 59.6128 168.245 59.4202 166.949C59.3432 166.551 59.9596 166.385 60.0238 166.782Z" fill="black"/>
<path d="M58.9066 161.06C59.035 162.33 59.1762 163.78 59.3945 165.012C57.2499 164.896 55.529 164.563 53.3843 164.447C52.1643 164.383 46.7063 164.434 45.6532 164.563C41.1455 165.101 37.5368 165.807 32.6567 166.846C32.1302 166.962 31.0258 166.539 30.8074 165.858C30.4864 164.845 30.8845 163.754 31.6936 163.215C32.5026 162.676 33.7868 162.548 34.7243 162.317C43.6626 160.161 50.7645 160.161 58.9066 161.06Z" fill="white"/>
<path d="M59.2275 161.06C59.356 162.356 59.4972 163.639 59.7027 164.922C59.7284 165.114 59.6256 165.345 59.3944 165.332C57.2241 165.191 55.0666 164.806 52.8834 164.755C51.4065 164.716 49.9296 164.742 48.4528 164.781C44.523 164.858 40.6574 165.563 36.8047 166.32C35.5462 166.577 34.2876 166.898 33.0162 167.103C32.3998 167.206 31.8604 167.18 31.3082 166.846C30.1524 166.154 30.1652 164.563 30.9101 163.549C31.8861 162.227 34.0051 162.15 35.4691 161.817C37.8707 161.265 40.3107 160.841 42.7636 160.559C48.1446 159.943 53.5512 160.161 58.9193 160.739C59.3302 160.777 59.3302 161.419 58.9193 161.38C53.7952 160.829 48.6454 160.598 43.4956 161.124C40.5547 161.419 37.6909 161.996 34.827 162.625C33.6327 162.894 31.9118 162.959 31.2697 164.178C30.4477 165.73 31.7577 166.628 33.119 166.423C33.8124 166.32 34.4931 166.128 35.1737 165.987C39.2705 165.14 43.4699 164.255 47.6565 164.139C49.326 164.088 50.9955 164.062 52.6651 164.101C54.9125 164.139 57.147 164.55 59.3944 164.691C59.2917 164.832 59.189 164.96 59.0862 165.101C58.8679 163.767 58.7267 162.42 58.5854 161.072C58.5469 160.649 59.189 160.649 59.2275 161.06Z" fill="black"/>
<path d="M58.444 155.837C58.5724 157.108 58.5981 158.108 58.8164 159.34C54.2574 158.314 46.1923 158.442 45.1264 158.557C40.6188 159.096 37.0101 159.802 32.13 160.841C31.6034 160.957 30.499 160.533 30.2807 159.853C29.9596 158.84 30.3577 157.749 31.1668 157.21C31.9758 156.671 33.2601 156.543 34.1976 156.312C43.1359 154.169 51.3807 154.246 58.444 155.837Z" fill="white"/>
<path d="M58.7651 155.837C58.8678 156.979 58.9449 158.121 59.1247 159.263C59.1632 159.507 58.9834 159.712 58.7266 159.661C51.278 158.044 43.6496 158.853 36.2653 160.328C35.0838 160.559 33.9151 160.816 32.7464 161.06C32.0273 161.214 31.4237 161.252 30.7687 160.854C29.6258 160.174 29.6129 158.557 30.3706 157.557C31.3852 156.184 33.6839 156.107 35.1993 155.76C37.6779 155.208 40.1822 154.811 42.7121 154.58C48.0032 154.092 53.3328 154.387 58.5339 155.529C58.9321 155.619 58.7651 156.235 58.367 156.145C49.8525 154.285 41.3637 154.99 32.9263 156.915C31.5521 157.223 29.9853 158.07 30.7944 159.687C31.2824 160.662 31.8475 160.533 32.8492 160.367C33.4528 160.264 34.0435 160.11 34.6471 159.995C36.6762 159.571 38.7182 159.186 40.7601 158.853C43.3029 158.442 45.7815 158.147 48.3628 158.16C51.8816 158.173 55.4774 158.288 58.9192 159.032C58.7908 159.161 58.6495 159.302 58.5211 159.43C58.3285 158.237 58.2514 157.043 58.1486 155.837C58.0844 155.427 58.7266 155.427 58.7651 155.837Z" fill="black"/>
<path d="M57.6221 149.768C57.7505 151.038 57.8276 152.065 58.0459 153.284C55.8627 152.745 54.0263 152.45 51.8816 152.334C50.6616 152.27 45.2035 152.321 44.1504 152.45C39.6428 152.989 36.0341 153.694 31.154 154.734C30.6274 154.849 29.523 154.426 29.3047 153.746C28.9836 152.732 29.202 151.783 30.011 151.244C30.8201 150.705 32.2841 150.435 33.2216 150.217C42.1599 148.061 48.3756 147.51 57.6221 149.768Z" fill="white"/>
<path d="M57.9432 149.768C58.0588 150.923 58.1615 152.065 58.3542 153.207C58.3927 153.451 58.2129 153.669 57.9561 153.605C50.2121 151.731 42.2627 152.796 34.5701 154.362C33.0933 154.657 30.8202 155.722 29.4846 154.516C28.5214 153.656 28.7012 151.949 29.6387 151.141C30.9101 150.05 33.1575 149.883 34.7242 149.524C37.0102 149.011 39.309 148.562 41.6334 148.292C47.0657 147.651 52.421 148.177 57.7249 149.447C58.123 149.55 57.9561 150.166 57.558 150.063C53.397 149.062 49.159 148.472 44.8697 148.664C40.7216 148.844 36.6634 149.717 32.6309 150.666C31.8347 150.859 30.4606 151.038 29.9469 151.706C29.3176 152.527 29.5359 154.182 30.6917 154.387C31.3596 154.503 32.2585 154.169 32.9135 154.028C34.9682 153.605 37.023 153.194 39.0906 152.848C41.9416 152.373 44.7413 152.039 47.618 152.001C51.201 151.949 54.6299 152.116 58.1359 152.976C58.0075 153.104 57.8662 153.245 57.7378 153.374C57.5451 152.18 57.4167 150.974 57.3011 149.768C57.2626 149.357 57.9047 149.37 57.9432 149.768Z" fill="black"/>
<path d="M16.0637 202.017C16.4361 201.94 16.7957 201.812 17.1553 201.683C19.7366 200.76 22.472 200.413 25.0919 199.605C25.6441 199.438 26.1835 199.246 26.6587 198.912C27.1338 198.578 27.8402 197.796 27.9686 197.18C28.0328 196.897 28.0328 196.589 27.9172 196.32C27.7631 195.974 27.4549 195.768 27.1338 195.627C25.978 195.14 24.4112 195.807 23.2426 196.14C21.9327 196.512 20.5971 196.846 19.2614 197.103C19.0945 197.141 18.9147 197.167 18.7606 197.244C18.5937 197.321 18.4524 197.449 18.3111 197.565C17.5663 198.206 16.7058 198.732 15.961 199.374C15.9096 199.425 15.8454 199.464 15.8197 199.541C15.7812 199.643 15.8069 199.759 15.8197 199.874C15.8582 200.58 15.9481 201.388 16.0637 202.017Z" fill="white"/>
<path d="M15.974 201.709C16.8987 201.504 17.7849 201.106 18.6967 200.862C19.647 200.593 20.6102 200.388 21.5733 200.169C22.498 199.964 23.4226 199.746 24.3473 199.489C25.2334 199.246 26.1709 198.989 26.8515 198.322C27.468 197.719 28.2257 196.564 27.1341 195.986C26.3122 195.55 25.2462 195.884 24.4115 196.128C23.5767 196.384 22.742 196.628 21.8944 196.846C20.9954 197.077 20.0579 197.205 19.1718 197.462C18.671 197.603 18.2985 198.014 17.8876 198.322C17.4766 198.63 17.0528 198.925 16.6419 199.246C16.5006 199.361 16.1667 199.528 16.1153 199.72C16.064 199.874 16.1539 200.208 16.1667 200.375C16.2181 200.901 16.2823 201.427 16.3722 201.94C16.4492 202.338 15.8328 202.518 15.7557 202.107C15.6659 201.632 15.6016 201.157 15.5503 200.67C15.5117 200.298 15.3705 199.746 15.5374 199.387C15.6915 199.04 16.1667 198.796 16.4492 198.578C16.9373 198.206 17.4381 197.873 17.9133 197.488C18.26 197.205 18.5554 196.949 19.0049 196.833C19.5699 196.679 20.1607 196.602 20.7386 196.461C21.8944 196.192 23.0245 195.871 24.1547 195.524C25.0408 195.255 26.0425 194.973 26.98 195.229C27.7762 195.447 28.3926 196.051 28.3412 196.91C28.2899 197.731 27.6863 198.476 27.0699 198.989C26.2608 199.656 25.1949 199.926 24.1932 200.182C22.8704 200.541 21.522 200.811 20.1992 201.132C19.5314 201.286 18.8764 201.465 18.2215 201.658C17.528 201.863 16.8602 202.158 16.1539 202.312C15.7429 202.428 15.5759 201.812 15.974 201.709Z" fill="black"/>
<path d="M15.178 196.038C15.5504 195.961 15.91 195.832 16.2696 195.704C18.8509 194.78 21.5863 194.434 24.2061 193.625C24.7584 193.459 25.2977 193.266 25.7729 192.933C26.2481 192.599 26.9544 191.816 27.0828 191.2C27.1471 190.918 27.147 190.61 27.0315 190.341C26.8774 189.994 26.5691 189.789 26.2481 189.648C25.0923 189.16 23.5255 189.827 22.3568 190.161C21.0469 190.533 19.7113 190.867 18.3757 191.123C18.2088 191.162 18.029 191.187 17.8749 191.264C17.7079 191.341 17.5666 191.47 17.4254 191.585C16.6805 192.227 15.8201 192.753 15.0752 193.394C15.0239 193.446 14.9596 193.484 14.934 193.561C14.8954 193.664 14.9211 193.779 14.934 193.895C14.9725 194.588 15.0624 195.396 15.178 196.038Z" fill="white"/>
<path d="M15.101 195.73C16.0256 195.524 16.9118 195.127 17.8236 194.883C18.7739 194.613 19.7371 194.408 20.7003 194.19C21.6249 193.985 22.5496 193.767 23.4742 193.51C24.3603 193.266 25.2978 193.01 25.9785 192.342C26.5949 191.739 27.3526 190.584 26.261 190.007C25.4391 189.571 24.3732 189.904 23.5384 190.148C22.7037 190.405 21.8689 190.649 21.0213 190.867C20.1224 191.098 19.1849 191.226 18.2987 191.483C17.7979 191.624 17.4255 192.034 17.0145 192.342C16.6035 192.65 16.1797 192.945 15.7688 193.266C15.6275 193.382 15.2937 193.548 15.2423 193.741C15.1909 193.895 15.2808 194.229 15.2936 194.395C15.345 194.921 15.4092 195.447 15.4991 195.961C15.5762 196.359 14.9598 196.538 14.8827 196.128C14.7928 195.653 14.7286 195.178 14.6772 194.69C14.6387 194.318 14.4974 193.767 14.6644 193.407C14.8185 193.061 15.2936 192.817 15.5762 192.599C16.0642 192.227 16.565 191.893 17.0402 191.508C17.387 191.226 17.6823 190.969 18.1318 190.854C18.6969 190.7 19.2876 190.623 19.8655 190.482C21.0213 190.212 22.1514 189.892 23.2816 189.545C24.1677 189.276 25.1694 188.993 26.1069 189.25C26.9031 189.468 27.5196 190.071 27.4682 190.931C27.4168 191.752 26.8133 192.496 26.1968 193.01C25.3877 193.677 24.3218 193.946 23.3201 194.203C21.9973 194.562 20.6489 194.832 19.3261 195.152C18.6583 195.306 18.0034 195.486 17.3484 195.678C16.6549 195.884 15.9871 196.179 15.2808 196.333C14.8699 196.435 14.69 195.82 15.101 195.73Z" fill="black"/>
<path d="M14.7415 190.046C15.1139 189.969 15.4735 189.84 15.8331 189.712C18.4144 188.788 21.1498 188.442 23.7696 187.633C24.3219 187.466 24.8612 187.274 25.3364 186.94C25.8116 186.607 26.5179 185.824 26.6463 185.208C26.7105 184.926 26.7105 184.618 26.595 184.348C26.4409 184.002 26.1326 183.797 25.8116 183.656C24.6558 183.168 23.089 183.835 21.9203 184.169C20.6104 184.541 17.5925 185.195 17.4255 185.272C17.2586 185.349 15.3708 186.761 14.6259 187.402C14.5745 187.454 14.5103 187.492 14.4846 187.569C14.4461 187.672 14.4718 187.787 14.4846 187.903C14.536 188.596 14.6259 189.404 14.7415 190.046Z" fill="white"/>
<path d="M14.6513 189.738C15.8328 189.468 16.9629 188.98 18.1444 188.685C19.2874 188.39 20.4432 188.159 21.5862 187.877C22.7035 187.608 24.0005 187.389 24.9894 186.773C25.7985 186.273 27.134 184.708 25.8113 184.015C24.8481 183.502 23.5767 184.002 22.6135 184.297C21.8944 184.528 21.1623 184.708 20.4303 184.887C19.6983 185.067 18.9535 185.234 18.2214 185.413C17.8233 185.503 17.605 185.542 17.3353 185.734C16.6804 186.196 16.0382 186.697 15.409 187.184C15.2677 187.3 15.1008 187.415 14.9723 187.543C14.7669 187.736 14.7925 187.826 14.8182 188.108C14.8696 188.737 14.9338 189.353 15.0494 189.968C15.1264 190.366 14.51 190.546 14.433 190.135C14.3302 189.558 14.2532 188.98 14.2018 188.403C14.1633 187.954 14.0605 187.543 14.4073 187.197C15.0237 186.594 15.7943 186.093 16.4878 185.58C16.873 185.298 17.1941 185.016 17.6564 184.9C18.4526 184.695 19.2617 184.528 20.0579 184.336C20.9954 184.105 21.9072 183.861 22.8318 183.579C23.8721 183.258 25.1178 182.924 26.1452 183.476C27.0442 183.951 27.224 184.964 26.7616 185.824C26.2351 186.812 25.3105 187.454 24.2702 187.826C22.7805 188.352 21.2009 188.647 19.6598 189.006C18.8508 189.199 18.0288 189.391 17.2326 189.622C16.4364 189.853 15.653 190.199 14.8439 190.379C14.4201 190.443 14.2532 189.827 14.6513 189.738Z" fill="black"/>
<path d="M14.241 183.989C14.6134 183.912 14.9729 183.784 15.3325 183.656C17.9139 182.732 20.6236 182.077 23.2435 181.269C23.7957 181.102 24.3351 180.91 24.8102 180.576C25.2854 180.242 26.0175 179.755 26.1587 179.152C26.2229 178.869 26.0688 178.215 25.9532 177.958C25.7991 177.612 25.4652 177.471 25.1442 177.33C23.9883 176.842 22.6014 177.779 21.4199 178.125C20.1099 178.497 17.1433 179.319 16.9892 179.396C16.8223 179.472 14.8831 180.73 14.1382 181.372C14.0868 181.423 14.0226 181.461 13.9969 181.538C13.9584 181.641 13.9841 181.756 13.9969 181.872C14.0355 182.539 14.1254 183.348 14.241 183.989Z" fill="white"/>
<path d="M14.1509 183.681C15.3324 183.412 16.4754 182.911 17.6312 182.565C18.7741 182.218 19.9171 181.91 21.0601 181.577C22.2031 181.256 23.5387 181.012 24.5532 180.358C25.3623 179.832 26.1585 179.19 25.6833 178.138C25.4136 177.561 24.566 177.458 24.0138 177.548C23.513 177.638 23.0378 177.843 22.5626 178.035C21.8178 178.331 21.0601 178.549 20.2895 178.767C19.519 178.985 18.7613 179.19 17.9907 179.408C17.6312 179.511 17.2202 179.614 17.0019 179.742C16.3213 180.153 15.6534 180.614 15.0113 181.076C14.6646 181.32 14.2921 181.487 14.3307 181.936C14.382 182.59 14.4463 183.245 14.5619 183.886C14.6389 184.284 14.0225 184.464 13.9454 184.053C13.8427 183.476 13.7656 182.898 13.7143 182.321C13.6757 181.833 13.573 181.436 13.9583 181.076C14.6004 180.486 15.3837 180.024 16.1029 179.549C17.2459 178.792 18.5943 178.561 19.9042 178.189C20.8803 177.92 21.8178 177.612 22.7552 177.24C23.757 176.855 24.8229 176.611 25.7861 177.253C26.4282 177.676 26.6978 178.818 26.3639 179.498C25.9273 180.409 24.7458 181.051 23.8469 181.372C22.3186 181.923 20.7133 182.308 19.1466 182.757C18.3375 182.988 17.5284 183.232 16.7322 183.489C15.936 183.745 15.1526 184.079 14.3435 184.271C13.9197 184.387 13.7528 183.771 14.1509 183.681Z" fill="black"/>
<path d="M13.5341 178.472C13.9065 178.395 15.1907 177.689 15.5503 177.573C18.1316 176.65 19.7626 176.393 22.3824 175.585C22.9347 175.418 23.474 175.225 23.9492 174.892C24.4244 174.558 25.1307 173.775 25.2591 173.159C25.3233 172.877 25.3233 172.569 25.2077 172.3C25.0536 171.953 24.7454 171.748 24.4244 171.607C23.2686 171.119 21.7018 171.787 20.5331 172.12C19.2232 172.492 14.189 175.046 13.4441 175.687C13.3928 175.739 13.3286 175.777 13.3029 175.854C13.2644 175.957 13.2901 176.072 13.3029 176.188C13.3414 176.881 13.4185 177.843 13.5341 178.472Z" fill="white"/>
<path d="M13.4571 178.164C14.1505 177.997 14.7541 177.548 15.4091 177.278C16.4621 176.855 17.5923 176.56 18.6968 176.265C19.8269 175.957 20.957 175.674 22.0871 175.328C23.1915 174.994 24.2189 174.532 24.8097 173.467C25.1821 172.8 24.9638 172.094 24.2061 171.851C23.6282 171.658 22.9861 171.761 22.4082 171.902C21.6248 172.094 20.8157 172.325 20.0709 172.633C18.6454 173.198 17.2584 173.917 15.8971 174.635C15.2421 174.982 14.5872 175.328 13.9707 175.726C13.6497 175.931 13.6369 176.021 13.6625 176.431C13.7011 177.086 13.7524 177.74 13.868 178.382C13.9451 178.78 13.3158 178.959 13.2516 178.549C13.1488 177.971 13.0846 177.381 13.0461 176.791C13.0076 176.329 12.8663 175.816 13.2388 175.469C13.6626 175.071 14.2661 174.789 14.7798 174.52C16.3851 173.634 18.0289 172.8 19.7241 172.107C20.5846 171.748 21.522 171.453 22.4338 171.26C23.4227 171.055 24.8097 171.004 25.439 171.992C26.0683 172.967 25.3105 174.109 24.6042 174.802C23.6795 175.687 22.344 175.97 21.1368 176.303C19.6728 176.714 18.183 177.06 16.7318 177.535C16.1154 177.74 15.5247 177.958 14.9468 178.241C14.5358 178.446 14.112 178.69 13.6625 178.805C13.2259 178.882 13.0461 178.266 13.4571 178.164Z" fill="black"/>
<path d="M13.0074 172.415C13.3927 172.236 13.7395 172.21 14.099 172.082C16.6804 171.158 19.3387 170.414 21.9586 169.605C22.5108 169.438 23.0502 169.246 23.5253 168.912C24.0005 168.579 24.7069 167.796 24.8353 167.18C24.8995 166.898 24.8995 166.59 24.7839 166.32C24.6298 165.974 24.3216 165.769 24.0005 165.628C22.8447 165.14 21.2779 165.807 20.1093 166.141C18.7993 166.513 13.611 169.22 12.8662 169.862C12.8148 169.913 12.7506 169.952 12.7249 170.029C12.6864 170.131 12.7121 170.247 12.7249 170.362C12.7506 171.042 12.879 171.774 13.0074 172.415Z" fill="white"/>
<path d="M12.8405 172.133C13.8808 171.684 15.0366 171.389 16.1154 171.042C17.3097 170.657 18.5169 170.298 19.7112 169.926C20.8799 169.567 22.3311 169.349 23.3456 168.617C24.0905 168.078 25.2334 166.628 23.9749 165.974C22.9989 165.461 21.7146 165.961 20.7514 166.269C20.2121 166.436 19.6855 166.603 19.1719 166.834C17.8234 167.424 16.5263 168.104 15.2292 168.797C14.6385 169.118 14.0349 169.451 13.457 169.811C13.2515 169.939 13.046 170.029 13.0075 170.272C12.9561 170.555 13.0845 171.042 13.1231 171.312C13.1744 171.645 13.2387 171.992 13.3029 172.325C13.3799 172.723 12.7635 172.903 12.6864 172.492C12.5709 171.851 12.4553 171.209 12.3911 170.555C12.3526 170.118 12.3397 169.849 12.6864 169.567C13.1102 169.207 13.6368 168.951 14.1248 168.669C15.6402 167.809 17.207 167 18.7994 166.295C19.4415 166.012 20.0965 165.794 20.7643 165.589C21.8045 165.268 22.9989 164.896 24.0648 165.307C25.0151 165.679 25.4132 166.616 25.0151 167.552C24.617 168.489 23.7437 169.22 22.8319 169.605C21.278 170.247 19.5828 170.632 17.9647 171.119C17.1813 171.363 16.385 171.607 15.6145 171.876C14.8183 172.146 13.9321 172.351 13.1616 172.685C12.7892 172.852 12.4681 172.3 12.8405 172.133Z" fill="black"/>
<path d="M12.4556 166.859C12.8666 166.718 13.1748 166.667 13.5472 166.526C16.3469 165.371 18.5814 164.447 21.2013 163.639C21.7535 163.472 22.2929 163.279 22.768 162.946C23.2432 162.612 23.9495 161.829 24.0779 161.214C24.1422 160.931 24.1422 160.623 24.0266 160.354C23.8725 160.007 23.5643 159.802 23.2432 159.661C22.0874 159.173 20.5206 159.841 19.352 160.174C18.0421 160.546 13.6243 163.113 12.3015 164.293C12.2502 164.344 12.1859 164.383 12.1603 164.46C12.1217 164.563 12.1474 164.678 12.1603 164.793C12.2116 165.486 12.3401 166.218 12.4556 166.859Z" fill="white"/>
<path d="M12.3785 166.551C14.4975 165.897 16.5137 164.935 18.5942 164.178C19.6087 163.805 20.649 163.523 21.6635 163.151C22.524 162.83 23.5 162.137 23.7568 161.201C24.2063 159.622 22.0102 159.776 21.1113 159.995C20.4049 160.174 19.6729 160.379 18.9923 160.649C17.6438 161.201 16.3724 161.971 15.1267 162.728C14.4332 163.151 13.7269 163.6 13.072 164.088C12.8408 164.255 12.5197 164.434 12.4684 164.716C12.417 165.012 12.5454 165.461 12.5839 165.756C12.6353 166.089 12.6995 166.436 12.7637 166.769C12.8408 167.167 12.2244 167.347 12.1473 166.936C12.0317 166.333 11.929 165.717 11.8648 165.101C11.8134 164.601 11.7877 164.319 12.173 163.985C12.7509 163.472 13.4058 163.061 14.0608 162.638C15.5248 161.701 17.0531 160.777 18.6712 160.084C19.506 159.725 20.4306 159.456 21.3168 159.276C22.2799 159.084 23.5385 159.071 24.1806 159.956C24.7585 160.752 24.3347 161.714 23.7953 162.394C23.0762 163.267 22.1515 163.664 21.0985 163.998C18.1961 164.909 15.4478 166.256 12.5582 167.154C12.1473 167.296 11.9803 166.68 12.3785 166.551Z" fill="black"/>
<path d="M11.813 160.957C12.224 160.816 12.5579 160.803 12.9046 160.623C15.7428 159.109 17.4508 158.545 20.5587 157.736C21.1109 157.595 21.6503 157.377 22.1255 157.043C22.6006 156.71 23.3069 155.927 23.4354 155.311C23.4996 155.029 23.4996 154.721 23.384 154.451C23.2299 154.105 22.9217 153.9 22.6006 153.759C21.4448 153.271 19.878 153.938 18.7094 154.272C18.0031 154.477 16.2565 155.196 14.7282 156.094C13.4055 156.877 12.2754 157.839 11.6589 158.378C11.6076 158.429 11.5433 158.468 11.5176 158.545C11.4791 158.647 11.5048 158.763 11.5176 158.878C11.5562 159.584 11.6975 160.315 11.813 160.957Z" fill="white"/>
<path d="M11.7233 160.649C13.4442 160.136 14.9981 159.161 16.6933 158.545C17.5024 158.249 18.3372 158.006 19.1719 157.775C20.1094 157.518 21.1496 157.351 21.9587 156.761C22.6265 156.273 23.6796 155.067 22.8577 154.297C22.1256 153.605 20.8414 153.977 20.0067 154.22C18.35 154.708 16.7704 155.324 15.255 156.171C14.2918 156.71 13.38 157.364 12.5324 158.07C12.3655 158.211 12.1857 158.352 12.0316 158.506C11.8389 158.686 11.8261 158.724 11.8518 159.007C11.9031 159.635 12.0187 160.251 12.1343 160.867C12.2113 161.265 11.5949 161.444 11.5178 161.034C11.4151 160.456 11.3124 159.892 11.2482 159.315C11.1968 158.865 11.1197 158.506 11.4536 158.173C12.1471 157.467 13.0204 156.851 13.8552 156.299C15.6402 155.106 17.618 154.285 19.6727 153.656C20.6359 153.361 21.7275 153.078 22.7036 153.463C23.5512 153.797 23.9878 154.58 23.7438 155.465C23.153 157.621 20.6231 158.019 18.8123 158.545C17.6694 158.878 16.5392 159.25 15.4476 159.738C14.8697 159.995 14.3046 160.264 13.7396 160.559C13.1232 160.88 12.5838 161.072 11.916 161.278C11.505 161.38 11.3381 160.764 11.7233 160.649Z" fill="black"/>
<path d="M42.4164 211.897C41.4275 212.269 40.0663 212.988 39.9378 213.411C39.8094 213.835 40.2717 214.091 40.5928 214.207C40.8368 214.297 41.0937 214.284 41.3505 214.245C43.02 214.04 44.7023 213.86 46.2306 213.116C48.3753 212.064 50.7254 210.794 52.4206 209.01C54.1158 207.227 55.0148 204.365 55.0405 201.735C55.0533 200.862 54.835 199.823 54.103 199.438C53.4609 199.092 52.6903 199.438 52.2409 200.003C51.7914 200.567 51.5859 201.337 51.3547 202.056C50.6356 204.301 49.5953 206.431 48.1569 208.189C46.7186 209.947 44.5097 211.268 42.4164 211.897Z" fill="white"/>
<path d="M42.5065 212.205C41.9286 212.423 41.3764 212.693 40.8499 213.014C40.7472 213.078 40.6316 213.142 40.5417 213.219C40.2977 213.411 40.2592 213.386 40.3619 213.629C40.5545 214.066 41.248 213.925 41.6204 213.886C43.2386 213.706 44.8182 213.45 46.2822 212.731C48.7865 211.512 51.5604 210.037 53.0887 207.612C53.8207 206.444 54.283 205.109 54.527 203.749C54.7197 202.71 55.1563 200.311 53.9491 199.707C52.2924 198.873 51.6375 202.299 51.2779 203.249C50.7771 204.558 50.1734 205.841 49.4029 207.021C47.7591 209.536 45.3704 211.32 42.5065 212.205C42.1084 212.333 41.9415 211.705 42.3396 211.589C44.1118 211.037 45.7814 210.114 47.1298 208.831C48.4397 207.586 49.4029 205.969 50.1478 204.327C50.5716 203.403 50.8798 202.453 51.2009 201.478C51.4449 200.747 51.7145 199.964 52.331 199.464C53.3198 198.63 54.6041 198.963 55.1049 200.144C55.67 201.491 55.3489 203.262 55.015 204.635C54.6555 206.11 54.039 207.547 53.0887 208.741C52.0099 210.101 50.5074 211.14 49.0176 212.013C47.5408 212.872 45.9997 213.732 44.3302 214.117C43.367 214.335 42.3525 214.502 41.3636 214.566C40.7728 214.605 39.9894 214.489 39.6941 213.886C39.129 212.706 41.6333 211.872 42.3396 211.589C42.7249 211.435 42.8918 212.064 42.5065 212.205Z" fill="black"/>
<path d="M46.5646 216.362C45.9996 216.388 44.0989 216.568 44.0604 216.196C43.9962 215.67 45.3189 215.567 46.0381 215.426C49.0047 214.836 52.5749 212.731 54.6296 210.345C56.6844 207.958 57.4036 205.52 57.8017 202.21C57.8788 201.517 57.9301 200.785 58.264 200.208C58.5851 199.618 59.3043 199.233 59.8693 199.566C60.3702 199.861 60.6527 200.567 60.6142 201.183C60.3573 205.225 59.2144 208.664 56.4147 211.243C53.6279 213.835 50.0834 215.233 46.5646 216.362Z" fill="white"/>
<path d="M46.5648 216.683C45.9997 216.709 43.9193 217.12 43.7395 216.234C43.6496 215.747 44.2018 215.49 44.5743 215.387C45.3576 215.144 46.2052 215.092 46.9886 214.861C50.9441 213.681 54.8224 210.794 56.3892 206.893C57.1469 205.007 57.2497 203.069 57.6221 201.093C57.8533 199.861 59.2402 198.27 60.4217 199.643C60.9354 200.246 60.9482 201.003 60.884 201.748C60.7941 202.736 60.6657 203.737 60.4346 204.699C60.0108 206.495 59.2916 208.24 58.2 209.729C55.4517 213.45 50.8927 215.298 46.6419 216.67C46.2437 216.799 46.0768 216.183 46.4749 216.055C49.9552 214.925 53.4611 213.54 56.1837 211.025C58.6623 208.741 59.8438 205.584 60.2034 202.287C60.2804 201.542 60.4859 199.284 59.0476 199.874C58.1101 200.259 58.1615 201.953 58.0587 202.787C57.8533 204.327 57.5322 205.854 56.9286 207.291C55.7343 210.127 53.4612 212.308 50.8413 213.848C49.3645 214.72 47.7335 215.439 46.0383 215.759C45.6787 215.824 45.3062 215.862 44.9467 215.952C44.5871 216.042 44.2147 216.055 44.7669 216.093C45.3705 216.132 45.9741 216.067 46.5648 216.029C46.9758 216.029 46.9758 216.67 46.5648 216.683Z" fill="black"/>
<path d="M51.2651 216.529C50.5845 216.645 48.3371 217.351 48.2857 217.184C48.1958 216.927 50.4561 216.132 51.111 215.978C53.8336 215.336 57.1212 213.168 59.0347 210.755C60.9483 208.343 61.6418 205.892 62.0399 202.582C62.1298 201.889 62.1811 201.17 62.4893 200.567C62.7976 199.964 63.4525 199.579 63.9662 199.9C64.4286 200.182 64.6725 200.888 64.6212 201.504C64.3386 205.546 62.759 209.177 60.075 211.679C56.9158 214.643 52.2283 216.363 51.2651 216.529Z" fill="white"/>
<path d="M51.3552 216.837C50.6874 216.966 50.0196 217.171 49.3518 217.338C49.0564 217.415 48.3244 217.71 48.0547 217.402C47.4126 216.683 50.0067 215.965 50.3406 215.862C51.1754 215.593 52.023 215.4 52.832 215.054C53.9236 214.579 54.951 213.963 55.9142 213.27C57.7378 211.936 59.2789 210.242 60.2678 208.202C61.2823 206.097 61.475 203.865 61.8602 201.594C61.9886 200.849 62.2584 199.977 63.0032 199.605C63.671 199.271 64.326 199.566 64.6856 200.195C65.1222 200.952 64.9552 201.876 64.8397 202.697C64.6984 203.775 64.4544 204.853 64.1076 205.879C63.4527 207.83 62.4381 209.652 61.0383 211.166C59.5101 212.834 57.5452 214.117 55.5418 215.156C54.2318 215.836 52.7935 216.555 51.3552 216.837C50.9571 216.914 50.7773 216.298 51.1882 216.221C52.1899 216.029 53.166 215.58 54.0906 215.156C55.6317 214.451 57.1342 213.604 58.4955 212.59C61.5263 210.332 63.427 207.06 64.0948 203.352C64.2361 202.582 64.6984 200.849 63.915 200.246C63.1573 199.669 62.6436 200.978 62.528 201.478C62.3996 202.043 62.3739 202.633 62.284 203.198C62.0528 204.866 61.7061 206.534 61.0255 208.086C59.6385 211.256 56.9288 213.732 53.8723 215.285C52.4468 216.003 50.8928 216.298 49.416 216.901C49.2747 216.953 49.1334 217.017 48.9922 217.081C48.7353 217.209 48.6839 217.363 48.5298 217.094C48.35 216.786 48.9023 216.812 49.1848 216.747C49.8526 216.581 50.5076 216.375 51.1882 216.247C51.5863 216.144 51.7533 216.76 51.3552 216.837Z" fill="black"/>
<path d="M61.2308 212.564C62.2967 211.949 63.0801 210.884 63.7608 209.793C64.2488 209.01 64.6983 208.202 64.9679 207.291C65.1606 206.624 65.2633 205.931 65.3532 205.225C65.5458 203.775 65.7513 202.325 65.9439 200.875C65.9953 200.542 66.0338 200.195 66.2265 199.938C66.4191 199.682 66.7787 199.553 67.0356 199.759C67.1897 199.887 67.2539 200.105 67.3052 200.298C67.5749 201.568 67.2539 202.877 66.8815 204.096C66.2008 206.354 65.366 208.612 63.902 210.345C63.2085 211.166 62.3866 211.846 61.4748 212.359" fill="white"/>
<path d="M61.0637 212.282C62.0269 211.705 62.7075 210.819 63.3111 209.896C63.9019 208.985 64.4412 208.035 64.7238 206.97C65.0063 205.905 65.0962 204.776 65.2503 203.685C65.4044 202.582 65.4429 201.363 65.7383 200.285C65.8924 199.72 66.4318 199.092 67.0739 199.399C67.7931 199.733 67.7546 200.978 67.716 201.619C67.6004 203.634 66.7914 205.751 65.9695 207.586C65.032 209.677 63.645 211.487 61.6544 212.641C61.2949 212.847 60.9738 212.295 61.3334 212.09C63.4138 210.884 64.7495 208.933 65.6484 206.739C66.0979 205.636 66.4831 204.481 66.7785 203.326C66.9326 202.736 67.0611 202.12 67.0868 201.504C67.0996 201.196 67.1381 200.657 66.9969 200.388C66.9712 200.08 66.7657 200.08 66.3804 200.375C66.3419 200.503 66.3162 200.631 66.2905 200.772C66.0722 201.953 65.9695 203.172 65.8025 204.365C65.6356 205.597 65.5328 206.842 65.0705 208.009C64.3513 209.831 63.1056 211.833 61.3976 212.86C61.038 213.052 60.717 212.5 61.0637 212.282Z" fill="black"/>
<path d="M66.573 209.588C67.1637 208.51 67.6774 207.368 67.9728 206.136C68.1012 205.61 68.1783 205.084 68.2553 204.545C68.448 203.236 68.6406 201.94 68.8332 200.631C68.846 200.567 68.8589 200.49 68.8974 200.439C68.9745 200.362 69.1158 200.4 69.18 200.503C69.2442 200.606 69.257 200.734 69.2698 200.849C69.3597 202.222 69.0002 203.57 68.5379 204.84C68.0755 206.11 67.5618 207.445 67.0096 208.715" fill="white"/>
<path d="M66.2906 209.434C67.1126 207.894 67.6519 206.354 67.9088 204.622C68.0372 203.736 68.1656 202.851 68.294 201.979C68.3583 201.517 68.3968 201.016 68.4995 200.554C68.5509 200.323 68.6665 200.118 68.9362 200.092C70.2589 199.951 69.3343 203.39 69.1545 203.967C68.6536 205.648 67.973 207.278 67.2795 208.882C67.1125 209.254 66.5603 208.933 66.7273 208.561C67.2795 207.291 67.7803 205.995 68.2427 204.673C68.461 204.057 68.6536 203.441 68.7821 202.8C68.8591 202.441 68.9105 202.068 68.9362 201.709C68.949 201.581 69.0132 200.747 68.8848 200.708C68.9618 200.695 69.0517 200.683 69.1288 200.67C69.0132 200.721 68.9747 201.619 68.949 201.773C68.8848 202.184 68.8206 202.607 68.7692 203.018C68.6536 203.839 68.538 204.673 68.3968 205.494C68.1399 207.008 67.5492 208.394 66.8171 209.729C66.6502 210.114 66.098 209.793 66.2906 209.434Z" fill="black"/>
<path d="M23.9878 138.99C24.9124 147.972 25.9269 156.941 26.98 165.91C28.4954 178.818 29.754 191.945 32.4509 204.673C32.9774 207.162 33.7094 209.357 35.045 211.564C37.9474 216.337 42.622 218.197 47.9901 218.775C48.4011 218.813 48.4011 219.455 47.9901 219.416C43.9319 218.98 39.8737 217.954 36.8943 214.99C34.801 212.911 33.1957 210.114 32.4123 207.265C31.0639 202.402 30.4603 197.282 29.7411 192.317C27.6863 178.164 26.0682 163.947 24.5143 149.73C24.1162 146.15 23.7309 142.582 23.3584 139.003C23.3071 138.579 23.9492 138.579 23.9878 138.99Z" fill="black"/>
<path d="M47.9263 221.726V232.517V362.255L39.0265 361.626V233.595C39.0265 233.595 41.3638 233.582 42.327 232.889C44.9854 230.965 44.3304 221.803 44.3304 221.803L47.9263 221.726Z" fill="#939598"/>
<path d="M48.2471 221.726C48.2471 227.256 48.2471 232.787 48.2471 238.317C48.2471 247.94 48.2471 257.577 48.2471 267.2C48.2471 280.506 48.2471 293.825 48.2471 307.131C48.2471 319.359 48.2471 331.588 48.2471 343.816C48.2471 347.909 48.2471 352.002 48.2471 356.095C48.2471 357.956 48.581 360.163 48.2471 361.998C48.2343 362.075 48.2471 362.178 48.2471 362.267C48.2471 362.434 48.1058 362.601 47.9261 362.588C44.9595 362.383 41.9929 362.165 39.0263 361.959C38.8594 361.947 38.7053 361.818 38.7053 361.639C38.7053 357.391 38.7053 353.144 38.7053 348.897C38.7053 338.696 38.7053 328.495 38.7053 318.294C38.7053 305.951 38.7053 293.62 38.7053 281.276C38.7053 270.652 38.7053 260.027 38.7053 249.416C38.7053 245.9 38.7053 242.372 38.7053 238.856C38.7053 237.765 38.7053 236.675 38.7053 235.584C38.7053 235.058 38.5897 234.352 38.7053 233.839C38.7181 233.775 38.7053 233.685 38.7053 233.621C38.7053 233.441 38.8465 233.3 39.0263 233.3C40.4133 233.287 42.0186 233.146 42.8148 231.863C43.5597 230.657 43.7651 229.053 43.9064 227.667C44.1119 225.729 44.1247 223.753 43.9963 221.816C43.9835 221.636 44.1504 221.495 44.3174 221.495C45.5245 221.469 46.7189 221.444 47.9261 221.418C48.337 221.405 48.337 222.047 47.9261 222.06C47.3738 222.072 46.8345 222.085 46.2822 222.098C45.8841 222.111 45.4732 222.111 45.0751 222.124C45.0494 222.124 44.6898 222.162 44.6256 222.137C44.0605 221.867 44.7925 222.74 44.6513 221.842C44.8182 222.919 44.7412 224.1 44.7155 225.178C44.6641 227.628 44.6898 232.35 41.9159 233.492C41.2609 233.762 40.3876 233.941 39.6813 233.916C38.8722 233.89 39.3346 234.031 39.3603 233.659C39.3474 233.813 39.3346 234.018 39.3603 234.172C39.4758 235.019 39.3603 235.969 39.3603 236.828C39.3603 245.964 39.3603 255.1 39.3603 264.236C39.3603 278.094 39.3603 291.939 39.3603 305.797C39.3603 318.513 39.3603 331.228 39.3603 343.944C39.3603 348.102 39.3603 352.259 39.3603 356.416C39.3603 358.02 39.6942 360.035 39.3603 361.613C39.3603 361.613 38.9236 361.433 39.1676 361.343C39.5529 361.202 40.4133 361.433 40.7986 361.459C42.5066 361.574 44.2018 361.703 45.9098 361.818C46.3721 361.857 47.1684 361.754 47.5922 361.934C48.1701 362.19 47.5023 361.793 47.6178 362.255C47.5793 362.113 47.6435 361.947 47.6178 361.805C47.2968 359.573 47.6178 357.058 47.6178 354.812C47.6178 344.124 47.6178 333.448 47.6178 322.76C47.6178 308.645 47.6178 294.544 47.6178 280.429C47.6178 268.599 47.6178 256.768 47.6178 244.938C47.6178 239.78 47.6178 234.609 47.6178 229.45C47.6178 226.884 47.6178 224.318 47.6178 221.739C47.605 221.303 48.2471 221.303 48.2471 221.726Z" fill="black"/>
<path d="M38.2939 233.005C44.3812 233.39 41.9668 221.816 41.9668 221.816L49.8263 221.739C50.7382 229.001 48.4008 230.079 47.9257 230.22V232.132C47.9257 232.132 51.7655 231.94 51.9453 227.192C52.1123 222.445 51.9453 218.711 51.9453 218.711C51.9453 218.711 40.6826 217.184 39.3469 217.209C39.3469 217.209 40.6569 233.005 38.2939 233.005Z" fill="#939598"/>
<path d="M38.2942 232.684C43.2385 232.928 42.301 224.972 41.6589 221.905C41.6203 221.7 41.7488 221.508 41.9671 221.495C44.587 221.469 47.2068 221.444 49.8267 221.418C50.0193 221.418 50.122 221.572 50.1477 221.739C50.4302 224.023 50.6614 226.704 49.6468 228.86C49.3258 229.566 48.7864 230.284 48.003 230.528C48.0801 230.425 48.1572 230.323 48.2342 230.22C48.2342 230.862 48.2342 231.49 48.2342 232.132C48.1315 232.029 48.0159 231.914 47.9132 231.811C49.9166 231.696 51.2521 229.861 51.5347 228.026C51.8557 225.934 51.7016 223.689 51.676 221.585C51.6631 220.622 51.6503 219.673 51.6117 218.71C51.6888 218.813 51.7659 218.916 51.8429 219.018C49.9166 218.762 47.9773 218.505 46.051 218.261C43.8549 217.979 41.5561 217.517 39.3344 217.53C39.4371 217.427 39.5527 217.312 39.6555 217.209C39.8096 219.095 39.9123 220.982 39.9637 222.868C40.0536 225.691 40.2205 228.706 39.5913 231.478C39.4372 232.171 39.1546 233.274 38.2685 233.312C37.8832 233.351 37.8832 232.709 38.2942 232.684C38.8336 232.658 39.0005 231.311 39.0647 230.952C39.2959 229.694 39.3472 228.385 39.3729 227.115C39.4371 224.433 39.3216 221.751 39.1546 219.07C39.1161 218.454 39.0776 217.825 39.0262 217.209C39.0134 217.03 39.1803 216.888 39.3473 216.888C41.6204 216.876 43.9833 217.35 46.2308 217.633C48.17 217.876 50.0963 218.133 52.0355 218.39C52.1768 218.402 52.2667 218.569 52.2667 218.698C52.3181 219.878 52.3309 221.059 52.3437 222.239C52.3437 223.381 52.3438 224.536 52.3181 225.678C52.2924 226.781 52.3181 227.911 51.997 228.988C51.4705 230.798 49.878 232.337 47.926 232.453C47.7462 232.466 47.6049 232.299 47.6049 232.132C47.6049 231.49 47.6049 230.862 47.6049 230.22C47.6049 230.079 47.7076 229.951 47.8361 229.912C48.4268 229.733 48.902 229.014 49.146 228.411C49.9936 226.358 49.7624 223.881 49.5056 221.739C49.6083 221.841 49.7239 221.957 49.8267 222.059C47.2068 222.085 44.587 222.111 41.9671 222.136C42.0699 221.995 42.1726 221.867 42.2753 221.726C42.5579 223.099 42.712 224.523 42.7505 225.922C42.8147 227.949 42.712 230.438 41.3507 232.081C40.5801 233.005 39.4757 233.377 38.2942 233.312C37.8832 233.312 37.8832 232.671 38.2942 232.684Z" fill="black"/>
<path d="M47.8491 229.925C47.8234 229.925 47.7977 229.938 47.772 229.938C47.7849 229.938 47.8106 229.925 47.8234 229.925C47.7977 229.938 47.772 229.951 47.7464 229.964C47.7592 229.964 47.7592 229.964 47.772 229.951C47.8106 229.925 47.8491 229.912 47.8876 229.912C47.9261 229.9 47.9775 229.9 48.016 229.912C48.0546 229.925 48.0931 229.938 48.1316 229.964C48.1702 229.989 48.1958 230.015 48.2087 230.054C48.2215 230.079 48.2344 230.105 48.2472 230.131C48.26 230.182 48.26 230.246 48.2472 230.297C48.2344 230.323 48.2215 230.349 48.2087 230.374C48.183 230.426 48.1445 230.464 48.0931 230.49C48.0546 230.503 48.0161 230.528 47.9904 230.541C47.9775 230.541 47.9775 230.541 47.9647 230.554C47.9518 230.554 47.9262 230.554 47.9133 230.567C47.9005 230.567 47.8748 230.567 47.8619 230.567C47.8234 230.567 47.772 230.554 47.7335 230.541C47.695 230.528 47.6565 230.503 47.6308 230.477C47.6051 230.451 47.5794 230.413 47.5665 230.374C47.5408 230.336 47.5409 230.297 47.5409 230.246C47.5409 230.22 47.5537 230.195 47.5537 230.156C47.5665 230.105 47.5922 230.054 47.6308 230.015C47.6565 230.002 47.6693 229.977 47.695 229.964C47.7335 229.938 47.7849 229.925 47.8491 229.925Z" fill="black"/>
<path d="M38.2943 232.992C40.6573 232.992 39.3474 217.197 39.3474 217.197L34.0435 218.441C34.0435 218.441 32.3354 233.826 38.2943 232.992Z" fill="#939598"/>
<path d="M38.2942 232.671C38.8336 232.645 39.0005 231.298 39.0648 230.939C39.2959 229.681 39.3473 228.373 39.373 227.102C39.4372 224.421 39.3216 221.739 39.1547 219.057C39.1161 218.441 39.0776 217.812 39.0262 217.197C39.1675 217.299 39.2959 217.402 39.4372 217.504C37.6649 217.915 35.9055 218.339 34.1333 218.749C34.2103 218.646 34.2874 218.544 34.3644 218.441C34.1846 220.045 34.1333 221.675 34.1333 223.279C34.1461 225.819 34.2103 228.796 35.4817 231.08C36.0853 232.171 37.01 232.838 38.2942 232.671C38.7052 232.62 38.7052 233.261 38.2942 233.313C35.6872 233.633 34.5185 231.016 34.0305 228.886C33.4141 226.153 33.4141 223.266 33.5682 220.481C33.6067 219.801 33.6453 219.121 33.7223 218.441C33.7352 218.3 33.8122 218.172 33.9535 218.133C35.7257 217.723 37.4851 217.299 39.2574 216.889C39.4757 216.837 39.6427 216.991 39.6684 217.197C39.8225 219.083 39.9252 220.969 39.9766 222.855C40.0665 225.678 40.2334 228.693 39.6042 231.465C39.45 232.158 39.1675 233.261 38.2814 233.3C37.8833 233.338 37.8832 232.697 38.2942 232.671Z" fill="black"/>
<path d="M26.2868 137.771C27.5197 137.334 27.9435 137.296 29.0736 136.873C31.2954 136.064 33.5942 135.153 35.9058 135.615C37.7551 135.974 39.4246 137.026 40.8886 138.284C41.7748 139.041 42.6095 139.901 43.0847 141.004C43.3929 141.736 43.5084 142.659 43.059 143.288C42.7636 143.699 42.3013 143.904 41.8261 144.02C40.94 144.225 39.9896 144.122 39.1677 143.737C37.5239 142.955 36.4965 141.184 35.0967 139.965C34.4032 139.362 33.6198 138.887 32.8236 138.464C31.244 137.591 28.0334 137.322 26.2868 137.771Z" fill="white"/>
<path d="M26.2096 137.463C27.5709 137.001 28.9451 136.565 30.3192 136.09C31.7832 135.577 33.3114 135.127 34.8782 135.179C37.7035 135.269 40.5032 137.116 42.314 139.195C43.0973 140.093 43.8422 141.299 43.7009 142.544C43.5725 143.647 42.6736 144.225 41.6462 144.392C38.6796 144.866 37.1256 142.326 35.2892 140.529C33.0032 138.31 29.523 137.322 26.4023 138.079C25.9785 138.181 25.7987 137.565 26.2096 137.463C28.1103 137.001 30.3834 137.168 32.2199 137.835C34.493 138.656 35.9313 140.388 37.5495 142.069C38.5255 143.083 39.6941 143.891 41.171 143.801C42.0828 143.737 43.0075 143.352 43.046 142.313C43.0717 141.607 42.7378 140.914 42.3653 140.337C40.8628 138.092 37.8833 136.064 35.1608 135.833C33.5041 135.705 31.8731 136.205 30.332 136.757C29.0221 137.219 27.6865 137.63 26.3766 138.079C25.9913 138.22 25.8115 137.604 26.2096 137.463Z" fill="black"/>
<path d="M38.6155 134.64C40.0025 134.358 42.3141 134.73 43.6497 135.243C45.5119 135.974 47.6951 137.886 47.9391 138.181C48.3757 138.707 49.4416 139.811 49.7498 141.21C49.8654 141.723 49.9553 142.364 49.5572 142.698C49.1463 143.044 47.6693 142.172 47.2327 141.877C44.0992 139.811 44.0735 136.039 38.6155 134.64Z" fill="white"/>
<path d="M38.5253 134.332C40.8241 133.908 43.4182 134.563 45.3703 135.782C46.9499 136.77 48.4653 137.989 49.4285 139.618C49.9037 140.414 50.5586 141.89 49.9165 142.762C49.4028 143.468 48.3497 142.878 47.759 142.57C46.2179 141.748 45.1905 140.478 44.1888 139.092C43.5723 138.245 42.9431 137.411 42.1468 136.731C41.0938 135.833 39.8352 135.294 38.5125 134.948C38.1143 134.845 38.2813 134.229 38.6794 134.332C40.5544 134.82 42.2239 135.731 43.5081 137.193C44.5355 138.348 45.2932 139.747 46.4105 140.825C46.9627 141.363 47.6177 141.8 48.3112 142.133C48.5809 142.262 49.1973 142.634 49.4285 142.326C49.711 141.941 49.3643 141.004 49.2101 140.619C48.568 139.041 47.1939 137.848 45.8455 136.885C43.8292 135.448 41.1837 134.486 38.6794 134.948C38.2941 135.025 38.1143 134.409 38.5253 134.332Z" fill="black"/>
<path d="M45.5764 134.845C46.6423 134.743 49.6217 135.615 50.5849 136.116C51.4197 136.552 52.8966 137.809 53.3717 138.669C54.0909 139.926 54.4376 140.452 54.7458 141.902C54.7972 142.133 54.8358 142.377 54.7715 142.608C54.6817 142.916 54.0138 143.442 53.2048 142.672C52.781 142.275 52.4214 141.8 52.1388 141.274C51.0858 139.272 49.8401 136.398 45.5764 134.845Z" fill="white"/>
<path d="M45.5762 134.524C46.3467 134.46 47.1686 134.678 47.9135 134.871C48.7482 135.076 49.583 135.333 50.3663 135.666C51.1369 136 51.8175 136.526 52.434 137.091C53.1917 137.784 53.7054 138.566 54.1934 139.464C54.63 140.286 55.0281 141.235 55.1052 142.159C55.1694 142.955 54.4887 143.532 53.7054 143.314C52.755 143.057 52.1258 141.915 51.702 141.107C51.3681 140.465 51.0213 139.811 50.6232 139.195C49.3903 137.283 47.6181 135.923 45.4734 135.14C45.0881 134.999 45.2551 134.383 45.6404 134.524C47.3484 135.153 48.9152 136.103 50.1223 137.476C51.0213 138.489 51.6506 139.67 52.2799 140.85C52.5367 141.325 53.5898 143.263 54.3347 142.608C54.63 142.339 54.3475 141.633 54.2576 141.312C54.142 140.889 53.9879 140.491 53.7953 140.093C53.0247 138.541 51.9203 137.103 50.315 136.321C49.5701 135.962 48.7482 135.731 47.9648 135.525C47.2071 135.32 46.3595 135.089 45.5633 135.14C45.1652 135.204 45.1781 134.563 45.5762 134.524Z" fill="black"/>
<path d="M54.2062 137.296C55.2721 138.143 57.0572 139.349 57.6223 139.991C58.3928 140.863 59.4844 141.941 59.5229 143.134C59.5229 143.288 59.5101 143.455 59.3945 143.532C59.3303 143.583 59.2533 143.583 59.1762 143.583C58.8423 143.57 58.2644 143.301 58.0204 143.044C56.5949 141.517 56.3637 139.58 54.2062 137.296Z" fill="white"/>
<path d="M54.4243 137.078C55.3489 137.809 56.3378 138.464 57.2496 139.221C57.6349 139.529 57.9559 139.888 58.277 140.26C58.7136 140.748 59.1503 141.248 59.4457 141.825C59.6897 142.3 59.9851 143.006 59.7796 143.532C59.5484 144.122 58.8292 143.891 58.3926 143.686C57.4422 143.237 56.8901 142.108 56.4149 141.222C55.7214 139.901 55.0022 138.63 53.962 137.527C53.6923 137.232 54.1418 136.77 54.4243 137.078C55.259 137.963 55.9397 138.951 56.5176 140.029C56.9671 140.863 57.3652 141.748 57.9559 142.493C58.0972 142.672 58.2385 142.852 58.4183 142.98C58.5596 143.083 58.9448 143.327 59.1246 143.275C59.4457 143.198 58.8678 142.082 58.7522 141.902C58.2385 141.068 57.5193 140.273 56.7745 139.657C55.8755 138.913 54.8995 138.258 53.9877 137.54C53.6538 137.27 54.1032 136.821 54.4243 137.078Z" fill="black"/>
<rect width="468" height="372" transform="matrix(-1 0 0 1 468 3)" fill="url(#paint0_linear)"/>
<defs>
<linearGradient id="paint0_linear" x1="234" y1="380.293" x2="234" y2="119.656" gradientUnits="userSpaceOnUse">
<stop stop-color="#F2F2F2"/>
<stop offset="0.213542" stop-color="#F2F2F2"/>
<stop offset="0.338542" stop-color="#F2F2F2" stop-opacity="0.83"/>
<stop offset="1" stop-color="#F2F2F2" stop-opacity="0"/>
</linearGradient>
</defs>
</svg>
