<svg width="775" height="494" viewBox="0 0 775 494" fill="none" xmlns="http://www.w3.org/2000/svg">
<path d="M221.619 144.693C224.728 223.248 220.207 301.824 223.317 380.379C248.193 380.399 263.823 380.42 288.7 380.44C290.766 297.796 293.753 228.38 283.258 146.39C256.192 138.743 242.486 139.642 222.232 143.323" fill="#FACDD2"/>
<path d="M282.869 146.41C291.093 225.886 287.247 299.391 289.15 379.663C318.936 379.847 330.454 381.217 355.31 379.663C355.228 308.367 350.809 144.57 346.615 142.996C329.431 136.473 297.885 140.808 282.869 146.41Z" fill="#F6B1C3"/>
<path d="M659.21 143.466C667.434 222.941 660.335 299.391 662.258 379.643C692.045 379.827 708.922 381.197 733.799 379.643C738.361 300.086 727.723 144.529 723.529 142.975C697.057 133.12 672.569 143.834 659.21 143.466Z" fill="#F6B1C3"/>
<path d="M473.106 144.693C476.215 223.248 479.325 301.824 482.414 380.379C507.291 380.399 515.29 380.42 540.166 380.44C542.232 297.796 545.219 228.38 534.724 146.39C507.659 138.743 493.952 139.642 473.699 143.323" fill="#FACDD2"/>
<path d="M346.616 142.975C344.979 222.021 343.751 294.974 343.751 378.232C359.995 382.199 411.119 379.663 411.119 379.663C411.119 379.663 413.103 210.101 410.894 143.936C382.13 135.165 369.099 144.509 349.03 143.916" fill="#FACDD2"/>
<path d="M598.471 142.975C596.834 222.021 594.911 299.186 593.274 378.232C609.518 382.199 668.436 379.663 668.436 379.663C668.436 379.663 673.141 222.185 660.417 143.936C631.653 135.144 618.09 141.38 598.471 142.975Z" fill="#FACDD2"/>
<path d="M35.5556 142.975C33.919 222.021 31.996 299.186 30.3594 378.232C46.6028 382.199 105.521 379.663 105.521 379.663C105.521 379.663 110.226 222.185 97.5017 143.936C68.7381 135.144 55.1951 141.38 35.5556 142.975Z" fill="#F6B1C3"/>
<path d="M95.7627 142.975C94.1261 222.021 92.203 299.186 90.5664 378.232C106.81 382.199 165.728 379.663 165.728 379.663C165.728 379.663 170.433 222.185 157.709 143.936C128.966 135.144 115.402 141.38 95.7627 142.975Z" fill="#FACDD2"/>
<path d="M408.091 143.466C416.315 222.941 409.216 299.391 411.139 379.643C440.926 379.827 457.803 381.197 482.68 379.643C482.598 308.346 476.604 144.55 472.41 142.975C455.226 136.473 421.43 143.834 408.091 143.466Z" fill="#F6B1C3"/>
<path d="M157.525 143.466C165.749 222.941 158.65 299.391 160.573 379.643C190.359 379.827 207.237 381.197 232.114 379.643C232.032 308.346 226.038 144.55 221.844 142.975C204.659 136.473 170.884 143.834 157.525 143.466Z" fill="#F6B1C3"/>
<path d="M534.704 146.41C542.928 225.886 538.223 299.391 540.146 379.663C569.932 379.847 582.289 381.217 607.145 379.663C607.063 308.367 602.644 144.57 598.45 142.996C581.286 136.473 549.72 140.808 534.704 146.41Z" fill="#F6B1C3"/>
<path d="M532.055 129.051C529.887 136.187 527.739 143.302 525.57 150.438C524.875 152.728 524.179 155.1 524.343 157.492C524.67 161.99 527.984 165.65 529.519 169.883C529.866 170.844 530.132 171.927 529.723 172.868C529.375 173.686 528.578 174.238 527.759 174.626C525.427 175.71 522.768 175.751 520.19 175.546C504.724 174.299 489.074 183.602 480.277 170.823C477.372 166.611 474.958 162.093 472.789 157.472C471.05 153.75 472.953 130.789 471.541 126.945C471.296 126.27 470.6 122.283 470.723 121.588C470.846 120.975 472.933 118.992 473.301 118.48C476.267 114.207 475.858 113.573 476.022 108.359C476.185 103.166 475.735 97.9112 476.492 92.7792C479.295 92.3907 480.481 94.0264 481.668 96.5822C482.384 98.1361 482.466 99.915 482.875 101.592C483.652 104.863 485.616 107.705 487.621 110.404C493.288 118.01 500.305 125.493 509.572 127.518C516.958 129.133 524.731 127.007 532.199 128.336" fill="#F6B1C3"/>
<path d="M547.624 135.594C540.873 134.981 534.122 128.581 527.391 127.968C527.145 137.618 526.798 153.423 522.358 162.011C517.919 170.578 508.079 177.182 498.75 174.688C491.099 172.643 484.102 166.53 480.665 159.394C473.464 144.468 471.357 134.94 472.176 118.399C458.51 121.895 454.991 114.473 453.6 133.284C452.7 145.429 455.257 164.403 456.403 176.528C459.001 204.233 456.853 232.367 450.081 259.356C449.038 263.507 447.974 268.189 450.265 271.808C451.963 274.487 455.093 275.816 458.019 277.002C473.464 283.238 489.36 289.576 506.013 289.781C522.665 289.985 549.322 289.638 556.789 274.753C561.678 265.041 552.738 246.68 552.513 235.802C552.145 219.036 551.797 202.29 551.429 185.524C551.183 174.299 550.958 163.074 550.713 151.849C550.631 147.555 550.488 143.077 548.381 139.336C546.273 135.594 541.261 129.767 537.333 131.484" fill="#F2F8EE"/>
<path d="M0 275.187V494H765.038C767.677 493.914 770.295 493.829 772.873 493.743C773.446 420.169 774.039 346.574 774.612 273C508.968 277.223 265.419 271.071 0 275.187Z" fill="#7F1335"/>
<path d="M531.258 128.663C541.527 142.525 539.973 165.834 528.434 178.654C524.343 183.214 514.319 192.088 514.319 192.088C514.319 192.088 516.487 203.272 517.694 208.424C520.19 219.097 522.706 229.791 525.202 240.464C527.33 249.542 529.457 258.62 531.585 267.678C532.015 269.539 534.326 279.312 535.738 280.621C537.518 282.277 540.218 282.379 542.653 282.277C550.611 281.991 556.727 272.933 564.399 270.766C570.639 268.987 582.034 284.465 585.389 278.924C588.785 273.342 589.808 248.704 589.337 242.181C587.619 218.668 582.668 194.357 587.455 171.273C589.153 163.115 591.076 153.955 586.514 146.983C583.302 142.055 577.574 139.499 572.173 137.168C559.121 131.648 545.128 125.964 531.258 128.663Z" fill="#374527"/>
<path d="M486.782 183.275C474.978 179.125 465.343 167.245 461.926 155.202C458.53 143.159 459.246 132.241 459.819 119.748C439.75 122.202 424.079 128.356 407.059 136.126C419.967 148.578 417.247 172.377 415.712 190.227C414.178 208.077 414.055 220.058 407.57 236.763C405.197 242.897 402.844 249.869 405.545 255.881C408.511 262.464 416.305 265.143 423.302 266.922C430.974 268.864 438.686 270.541 446.481 271.951C449.938 272.565 453.661 273.117 456.791 271.563C459.942 270.009 461.803 266.738 463.399 263.609C476.533 237.888 484.368 212.064 486.782 183.275Z" fill="#374527"/>
<path d="M542.448 31.9714C544.31 41.9697 546.171 51.968 548.033 61.9664C548.913 66.6895 550.386 78.712 550.795 83.4965C551.777 95.4372 548.81 96.8685 546.744 108.687C546.294 111.283 540.852 129.031 537.334 131.464C529.56 136.821 520.272 131.587 504.765 127.845C487.335 123.633 479.479 115.434 475.96 100.426C475.285 102.266 472.81 102.859 470.969 102.164C469.127 101.469 467.818 99.8741 466.611 98.3406C462.745 93.3926 459.533 90.1825 457.282 84.3348C456.628 82.6173 456.157 80.4295 456.914 78.7529C457.917 76.5651 460.187 75.0521 462.581 74.8272C467.184 74.3978 467.879 76.6674 469.475 78.4871C471.071 80.2864 471.378 82.9035 473.485 84.0485C469.823 74.4796 469.271 63.7452 471.93 53.8696C473.117 49.4531 474.999 45.098 478.211 41.847C481.116 38.9028 484.921 37.0421 488.726 35.386C498.505 31.1536 508.754 28.0048 519.208 26.0215C522.379 25.4285 525.611 24.9378 528.803 25.4285C534.101 26.2464 538.602 29.6814 543.716 31.3376" fill="#FACDD2"/>
<path d="M541.323 41.1928C541.425 43.5441 538.397 44.7096 537.395 46.8564C536.72 48.2877 537.047 49.9643 536.945 51.5387C536.781 53.8082 535.635 56.0164 533.856 57.4477C527.882 55.4644 521.847 53.4606 516.487 50.1688C513.828 48.533 509.143 49.5145 506.34 48.1241C499.937 44.9549 494.209 42.1333 487.867 45.4456C488.849 45.8341 489.708 46.5293 490.26 47.4289C487.948 48.1037 485.637 48.7579 483.325 49.4327C483.898 50.6595 484.859 51.6818 486.025 52.3565C483.141 52.2338 482.527 52.9086 479.643 53.0926C478.968 53.1335 478.129 53.3175 478.006 53.9718C477.904 54.483 478.313 54.9328 478.702 55.3008C480.972 57.4272 480.972 58.8994 483.243 61.0258C482.098 61.3325 480.911 61.6597 479.99 62.4162C479.07 63.1727 478.517 64.5017 479.029 65.5854C478.395 65.6876 477.781 65.7694 477.147 65.8716C477.392 66.894 477.638 67.9572 477.433 68.9795C477.229 70.0018 476.41 70.9832 475.347 71.0446C473.955 76.1358 473.546 80.225 473.526 85.5002C471.746 81.9017 470.825 80.7362 468.309 77.6488C465.772 74.5409 461.006 72.9257 456.873 78.7733C448.342 67.5482 444.435 50.2096 449.304 37.0012C449.529 36.3878 449.795 35.754 450.306 35.3655C450.797 34.9975 451.452 34.9157 451.943 34.5681C453.334 33.5253 452.495 31.0718 453.661 29.7836C454.07 29.3338 454.684 29.0885 455.032 28.5977C455.503 27.9639 455.441 27.0847 455.482 26.2873C455.605 22.6887 457.917 19.4377 460.842 17.3113C463.747 15.1849 464.831 11.7703 468.248 10.6253C469.332 10.2573 472.257 3.59173 473.383 3.67351C474.344 3.73485 476.165 6.18842 477.126 6.20887C478.374 6.22931 479.54 5.67727 480.666 5.14566C491.079 0.238508 501.819 3.1419 513.152 1.15859C516.61 0.545196 520.231 0.0953718 523.545 1.21993C526.123 2.07868 528.291 3.81664 530.357 5.59548C538.827 12.8335 546.58 21.2984 550.979 31.542C551.511 32.7688 551.981 34.0569 551.899 35.3655C551.818 36.5105 551.327 37.5737 550.897 38.6165C548.565 44.3824 548.197 50.7413 547.849 56.957C546.499 51.3138 544.351 45.875 541.486 40.8247" fill="#7F1335"/>
<path d="M538.357 105.517C538.438 104.883 538.929 103.861 536.863 102.655C535.738 102.001 534.224 101.653 533.078 102.307C532.71 102.512 532.383 102.839 531.974 102.921C531.258 103.064 530.623 102.43 529.969 102.123C528.578 101.489 525.816 101.919 524.568 102.798C518.083 107.419 518.103 106.212 514.564 107.562C513.971 107.787 514.114 108.727 514.687 108.973C515.976 109.504 519.433 111.917 521.09 112.796C525.611 115.229 527.616 116.313 533.201 114.902C536.924 113.962 538.766 109.729 536.393 107.214C536.372 107.214 538.275 106.131 538.357 105.517Z" fill="#D16987"/>
<path d="M532.321 94.1491C533.037 93.7401 533.897 93.5357 534.674 93.2494C535.431 92.9836 536.372 92.7178 536.965 92.1453C538.745 90.4278 538.09 87.4631 536.72 85.7251C536.106 84.9277 535.185 84.2939 534.776 83.3533C534.51 82.7604 533.631 83.2716 533.897 83.8645C534.326 84.8255 535.247 85.4798 535.881 86.2976C536.802 87.4222 537.313 89.017 536.822 90.4278C536.679 90.8367 536.454 91.2866 536.065 91.5319C535.635 91.7977 535.145 91.9817 534.694 92.1453C533.753 92.4929 532.69 92.7383 531.81 93.2494C531.237 93.597 531.749 94.4762 532.321 94.1491Z" fill="#D16987"/>
<path d="M531.032 72.4145C530.889 74.4182 531.032 76.422 531.544 78.3439C532.055 80.2864 532.915 82.1265 533.917 83.8645C534.244 84.437 535.124 83.9258 534.797 83.3533C533.835 81.6767 533.017 79.9388 532.526 78.0781C532.035 76.2175 531.912 74.316 532.055 72.4145C532.096 71.7398 531.073 71.7602 531.032 72.4145Z" fill="#D16987"/>
<path d="M520.558 65.4014C515.485 64.8902 510.411 64.3586 505.338 63.8474C504.622 63.7656 503.906 63.7043 503.19 63.7452C502.126 63.8065 501.082 64.1337 500.08 64.5017C498.791 64.972 497.543 65.4831 496.316 66.0761C497.42 64.4608 498.771 63.0091 500.325 61.8232C500.837 61.4348 501.369 61.0667 501.983 60.9031C502.494 60.76 503.005 60.7805 503.537 60.8009C508.918 60.944 514.298 61.4347 519.638 62.273C520.047 62.3344 520.497 62.4571 520.66 62.8251C520.763 63.05 520.722 63.3363 520.66 63.5816C520.538 64.1746 520.415 64.7675 520.292 65.3605" fill="#7F1335"/>
<path d="M533.303 64.3586C533.058 63.8883 533.303 63.2954 533.712 62.9682C534.122 62.6411 534.653 62.5184 535.185 62.4162C538.643 61.7414 542.182 61.4552 545.721 61.4756C546.458 61.4756 548.074 61.128 548.237 61.8641C548.299 62.1095 548.626 64.3586 548.462 64.3586C543.368 64.563 539.031 65.0947 533.692 65.4627" fill="#7F1335"/>
<path d="M514.482 107.93C517.653 108.053 518.083 108.523 522.502 107.521C523.074 107.398 526.798 105.722 528.455 105.579C528.884 105.538 529.866 105.865 530.296 105.926C531.032 106.049 531.953 105.722 532.689 105.722C533.712 105.701 534.674 106.519 535.553 107.194C535.206 107.48 534.592 108.175 532.996 108.789C531.523 109.361 530.869 109.32 529.232 109.443C526.941 109.607 522.215 109.259 519.903 109.034C517.858 108.85 515.116 108.012 514.482 107.93Z" fill="#7F1335"/>
<path d="M528.966 92.6565C527.739 91.8182 526.163 91.6342 524.65 91.6342C524.056 91.6342 523.381 91.6955 523.074 92.1862C522.972 92.3498 522.931 92.5747 523.033 92.7383C523.095 92.8201 523.156 92.861 523.238 92.9018C523.954 93.2903 524.834 93.1472 525.591 92.8814C526.347 92.6156 527.084 92.2271 527.882 92.1453" fill="#D16987"/>
<path d="M529.232 92.2271C528.475 91.716 527.616 91.4297 526.716 91.2866C525.877 91.1435 524.957 91.0617 524.097 91.1639C523.32 91.2661 522.236 91.8182 522.502 92.7792C522.624 93.2494 523.136 93.4743 523.566 93.597C524.036 93.7197 524.507 93.6993 524.977 93.6175C526.041 93.4334 526.961 92.8201 528.025 92.6769C528.291 92.636 528.455 92.2885 528.373 92.0431C528.291 91.7569 528.025 91.6546 527.739 91.6955C526.757 91.8386 525.918 92.3498 524.977 92.5747C524.568 92.6769 524.138 92.7178 523.729 92.5951C523.647 92.5747 523.566 92.5134 523.504 92.4929C523.402 92.4111 523.402 92.4316 523.484 92.5338C523.484 92.5134 523.504 92.4929 523.504 92.4929C523.606 92.4316 523.668 92.3293 523.791 92.2884C524.118 92.1453 524.507 92.1658 524.854 92.1862C525.304 92.1862 525.775 92.2067 526.225 92.268C527.105 92.3907 527.964 92.636 528.7 93.1268C529.253 93.4743 529.764 92.5747 529.232 92.2271Z" fill="#D16987"/>
<path d="M534.858 73.8253C536.617 71.9647 538.07 70.8401 541.65 70.7379C543.716 70.6765 544.821 71.3717 546.13 72.619C546.642 73.1097 546.539 73.9684 545.926 74.316C542.345 76.3811 538.622 76.238 534.878 73.9684" fill="white"/>
<path d="M540.484 70.7788C540.668 70.5743 540.954 70.4925 541.159 70.4312C541.691 70.2881 542.243 70.329 542.775 70.3699C543.348 70.4312 544.003 70.697 544.371 71.1264C544.657 71.474 544.719 71.9851 544.739 72.4349C544.78 73.1506 544.759 73.948 544.248 74.4387C543.9 74.7658 543.102 75.0112 542.632 75.0725C541.507 75.1952 541.016 75.0521 540.382 74.5205C539.747 73.9889 539.604 72.7212 539.604 72.2714C539.604 71.8215 540.054 71.249 540.484 70.7788Z" fill="#AA1D42"/>
<path d="M502.494 73.948C503.946 72.4145 504.99 72.21 507.301 71.5762C508.938 71.1264 510.882 70.6356 512.559 70.7788C514.769 70.9832 516.282 72.8439 517.98 74.2547C518.083 74.3365 518.185 74.4387 518.144 74.5614C518.103 74.6432 518.001 74.6841 517.919 74.7249C514.359 75.7882 511.413 76.1562 507.69 76.0335C506.176 75.9722 503.435 75.1134 502.371 74.0707" fill="white"/>
<path d="M511.025 75.4406C510.431 75.277 509.961 74.8067 509.695 74.2547C509.45 73.7026 509.388 73.0688 509.47 72.4554C509.511 72.1078 509.593 71.7602 509.818 71.4944C510.104 71.1468 510.779 70.5334 511.229 70.4312C512.273 70.2063 513.418 70.4107 514.339 70.8606C515.28 71.3513 515.71 72.21 515.464 73.2323C515.341 73.7435 514.891 75.0112 513.377 75.3179" fill="#AA1D42"/>
<path d="M502.862 74.316C504.785 72.6394 507.445 71.5966 509.981 71.2899C512.927 70.9423 515.648 72.3736 517.817 74.2342C518.308 74.6636 519.044 73.948 518.533 73.5186C516.18 71.4944 513.234 69.9405 510.043 70.2472C507.22 70.5334 504.274 71.6989 502.146 73.5799C501.635 74.0298 502.351 74.7454 502.862 74.316Z" fill="#AA1D42"/>
<path d="M535.288 74.0911C535.84 73.355 536.474 72.6598 537.252 72.1487C538.049 71.6375 538.888 71.4535 539.809 71.2695C542.1 70.8197 544.269 71.6784 546.069 73.0892C546.58 73.4982 547.317 72.7825 546.785 72.3736C544.78 70.7788 542.325 69.736 539.727 70.2472C538.622 70.4516 537.599 70.6765 536.658 71.3104C535.758 71.9033 535.042 72.7007 534.387 73.5799C534.019 74.0911 534.899 74.6023 535.288 74.0911Z" fill="#AA1D42"/>
<path d="M585.506 145.731C603.821 178.69 615.615 209.894 635.037 245.052C638.338 251.022 643.551 255.924 644.738 262.883C645.1 264.96 645.08 267.119 644.617 269.176C642.544 278.152 634.675 281.258 627.349 283.558C602.956 291.243 569.566 292.675 571.216 291.646C576.59 288.358 579.086 276.498 576.167 270.729C573.873 266.191 563.991 266.13 564.333 265.908C576.167 257.699 586.693 261.148 590.96 257.517C595.328 253.806 590.658 245.939 585.949 234.906C583.513 229.218 583.091 225.143 581.521 219.152C576.228 198.78 575.322 164.147 585.506 145.731Z" fill="#F2F8EE"/>
<path d="M566.95 265.364C551.009 268.712 517.338 274.562 518.123 280.371C518.445 282.69 531.728 280.169 545.615 278.636C537.786 279.503 516.895 281.642 516.895 284.97C517.116 290.537 538.229 285.898 549.58 284.768C534.405 286.2 518.626 289.306 518.626 290.819C518.666 294.934 536.901 292.655 552.136 290.476C538.149 292.493 529.836 294.45 529.856 296.185C529.836 298.444 542.536 297.576 556.041 295.479C570.431 293.401 574.98 291.263 578.059 283.84C580.173 278.656 579.448 274.057 577.375 270.406C576.671 269.216 575.121 263.79 566.95 265.364Z" fill="#FACDD2" stroke="#D16987" stroke-miterlimit="10"/>
<path d="M410.386 135C395.493 142.947 387.764 158.116 382.008 174.01C371.2 203.742 362.626 227.644 351.839 257.376C349.423 264.012 346.968 275.51 351.657 280.774C354.958 284.486 360.251 286.16 365.182 286.583C393.661 288.964 415.941 291.465 448.808 290.416C442.327 288.459 437.618 278.878 437.779 272.081C437.94 265.283 445.829 265.041 452.411 263.387C446.735 259.03 436.611 257.074 429.507 256.166C422.422 255.258 409.783 254.35 406.985 247.734C405.214 243.559 410.326 232.768 411.393 228.35C415.358 211.891 422.865 196.279 424.958 179.477C427.071 162.674 426.85 143.068 411.997 135" fill="#F2F8EE"/>
<path d="M454.259 263.672C470.521 266.819 502.737 265.493 502.938 271C502.978 273.38 488.91 273.582 474.359 273.663C482.59 273.824 504.448 272.17 505.132 275.317C506.058 281.045 482.993 280.42 470.937 280.299C487.099 280.137 504.166 279.996 504.528 281.469C505.374 285.604 485.489 287.056 468.884 286.31C484.12 286.814 493.338 287.137 493.62 288.932C494.062 291.191 480.135 292.623 465.201 291.756C449.301 291.09 437.889 288.649 436.38 280.621C434.247 268.983 441.217 262.321 454.259 263.672Z" fill="#FACDD2"/>
<path d="M453.259 263.172C469.521 266.319 502.736 265.495 502.938 271.002C502.978 273.382 488.909 273.584 474.358 273.664C482.59 273.826 504.447 272.172 505.131 275.318C506.057 281.047 482.992 280.421 470.937 280.3C487.098 280.139 504.165 279.998 504.528 281.47C505.373 285.605 485.488 287.058 468.884 286.311C484.119 286.816 493.337 287.138 493.619 288.933C494.062 291.193 480.134 292.625 465.2 291.757C449.301 291.092 438.11 288.167 436.601 280.139C434.467 268.521 440.217 261.821 453.259 263.172Z" stroke="#D16987" stroke-miterlimit="10"/>
<path d="M295.61 208.813C294.39 208.793 293.13 208.853 292.05 209.423C290.97 209.993 290.14 211.193 290.37 212.393C290.64 213.753 292.08 214.523 293.39 214.973C294.4 215.313 295.49 215.583 296.53 215.363C298.18 215.013 299.43 213.303 299.26 211.623C299.09 209.943 297.54 208.513 295.85 208.493" fill="#7F1335"/>
<path d="M308.26 223.153C308.51 222.023 314.38 197.653 315.29 196.923C316.2 196.193 317.88 196.403 318.15 197.533C315.7 206.673 313.25 215.813 310.79 224.953C310.53 225.913 310.03 227.073 309.04 227.103C308.12 227.123 307.51 226.043 307.63 225.133" fill="#7F1335"/>
<path d="M308.74 223.283C309.92 218.043 311.27 212.843 312.62 207.643C313.38 204.703 314.13 201.753 315.05 198.863C315.22 198.333 315.45 197.413 315.76 197.193C316.44 196.733 317.48 196.943 317.53 197.873C317.57 198.533 317.06 199.633 316.88 200.283C316.41 202.043 315.93 203.813 315.46 205.573C314.43 209.423 313.39 213.273 312.36 217.123C311.84 219.043 311.33 220.973 310.81 222.893C310.6 223.683 310.44 224.493 310.16 225.263C310.04 225.593 309.9 226.003 309.64 226.263C308.78 227.123 308.08 225.963 308.12 225.133C308.15 224.493 307.15 224.493 307.12 225.133C307.01 227.553 309.69 228.473 310.84 226.233C311.64 224.663 311.91 222.693 312.36 221.003C312.92 218.923 313.48 216.833 314.04 214.753C315.14 210.663 316.23 206.573 317.33 202.483C317.59 201.523 317.85 200.563 318.1 199.593C318.28 198.913 318.75 197.983 318.57 197.283C318.35 196.353 317.27 195.963 316.42 196.003C315.16 196.073 314.73 196.723 314.37 197.763C313.89 199.113 313.52 200.503 313.13 201.873C312 205.923 310.97 210.003 309.95 214.083C309.21 217.053 308.45 220.023 307.77 223.013C307.63 223.643 308.6 223.913 308.74 223.283Z" fill="white"/>
<path d="M278.67 228.193C278.51 226.673 278.36 225.133 278.65 223.633C278.94 222.133 279.74 220.663 281.07 219.923C282.41 219.183 284.18 219.223 285.25 218.113C286.47 216.843 286.33 214.473 287.9 213.673C289.83 212.683 291.91 215.193 294.07 215.033C295.23 214.943 296.17 214.113 297.14 213.473C298.11 212.833 299.44 212.383 300.39 213.053C301.23 213.643 301.41 214.883 302.23 215.503C303.41 216.403 305.55 215.763 306.25 217.073C306.73 217.993 306.04 219.143 306.32 220.133C306.68 221.393 308.28 221.693 309.49 222.193C311.89 223.193 313.43 225.943 313.02 228.513C301.51 231.003 289.22 233.603 278.18 229.503" fill="#FACDD2"/>
<path d="M279.17 228.193C278.95 226.053 278.69 223.663 279.9 221.753C281.05 219.933 282.96 220.073 284.67 219.163C285.95 218.483 286.39 217.293 286.88 216.003C287.21 215.133 287.56 214.233 288.56 213.993C289.49 213.773 290.47 214.403 291.28 214.773C292.63 215.403 293.94 215.833 295.37 215.193C296.17 214.833 296.82 214.243 297.57 213.813C298.05 213.533 298.76 213.143 299.35 213.233C300.23 213.373 300.58 214.003 300.98 214.683C301.76 216.033 302.67 216.363 304.16 216.603C305.24 216.783 306 217.053 305.9 218.343C305.84 219.103 305.64 219.823 305.96 220.553C306.59 221.983 308.33 222.163 309.58 222.783C311.72 223.843 312.83 226.213 312.54 228.523C312.66 228.363 312.78 228.203 312.91 228.043C301.64 230.473 289.56 233.093 278.34 229.023C277.73 228.803 277.47 229.773 278.07 229.983C289.45 234.123 301.73 231.473 313.17 229.003C313.4 228.953 313.51 228.733 313.54 228.523C313.77 226.733 313.24 224.933 312.09 223.543C311.54 222.873 310.86 222.313 310.08 221.923C309.25 221.503 308.22 221.373 307.46 220.813C305.91 219.673 307.8 217.373 306.09 216.173C305.47 215.743 304.71 215.693 303.99 215.583C302.7 215.373 302.25 214.813 301.59 213.733C300.67 212.213 299.18 211.923 297.59 212.673C296.53 213.173 295.66 214.153 294.51 214.463C293.31 214.773 292.22 214.113 291.16 213.633C289.84 213.023 288.29 212.553 287.09 213.663C285.77 214.883 286 217.113 284.47 218.143C283.52 218.773 282.29 218.843 281.26 219.303C280.43 219.673 279.76 220.233 279.24 220.973C277.74 223.083 277.93 225.763 278.18 228.213C278.23 228.823 279.23 228.833 279.17 228.193Z" fill="white"/>
<path d="M295.95 208.783C296.97 204.843 297.05 200.743 296.19 196.753C296.05 196.123 295.09 196.393 295.23 197.023C296.05 200.833 295.96 204.753 294.99 208.513C294.83 209.143 295.79 209.403 295.95 208.783Z" fill="#7F1335"/>
<path d="M277.13 228.983C275.02 247.313 278.1 265.743 286.03 283.063C286.75 284.633 288.09 286.483 287.03 287.923C285.33 290.263 277.6 292.913 276.93 297.353C276.47 300.383 295.52 302.563 305.02 300.993C307.14 300.643 313.45 298.703 310.09 295.543C306.76 292.413 301.16 289.783 301.19 288.093C301.23 286.413 317.28 265.683 314.93 230.763C314.89 230.243 315.03 229.653 314.6 229.253C314.12 228.803 313.25 228.613 312.53 228.773C297.79 232.123 288.61 230.563 277.13 228.983Z" fill="#D16987"/>
<path d="M276.63 228.983C275.42 239.743 275.96 250.653 278.23 261.243C279.39 266.663 280.99 271.973 283 277.143C283.95 279.583 284.95 282.013 286.13 284.353C286.73 285.543 287.37 286.823 286.36 287.963C285.9 288.483 285.28 288.873 284.7 289.253C282.37 290.813 272.27 296.773 278.5 299.463C281.14 300.603 284.13 300.993 286.96 301.363C290.78 301.853 294.64 302.073 298.49 302.013C301.53 301.963 304.74 301.863 307.63 300.823C309.69 300.083 312.93 298.253 310.96 295.733C309.76 294.203 307.86 293.053 306.28 291.963C305.52 291.433 304.75 290.923 303.99 290.383C303.31 289.893 302.34 289.303 301.9 288.553C301.64 288.103 301.7 288.113 301.91 287.683C302.13 287.223 302.38 286.793 302.63 286.353C308.48 275.863 312.71 264.763 314.55 252.833C315.26 248.223 315.64 243.563 315.7 238.893C315.73 236.263 315.62 233.633 315.49 231.003C315.45 230.273 315.55 229.483 315 228.913C314.46 228.353 313.56 228.193 312.82 228.253C311.44 228.373 310.04 228.833 308.68 229.083C307.27 229.343 305.84 229.563 304.42 229.743C302.02 230.043 299.61 230.223 297.2 230.263C292.83 230.353 288.47 229.983 284.13 229.443C281.85 229.153 279.58 228.833 277.3 228.513C276.67 228.423 276.4 229.393 277.03 229.473C285.45 230.633 293.82 231.773 302.33 230.963C304.7 230.743 307.06 230.393 309.4 229.953C310.62 229.723 312.34 229.013 313.57 229.273C314.89 229.553 314.56 231.963 314.61 233.013C314.83 237.813 314.72 242.623 314.25 247.403C312.99 260.213 309.08 272.593 302.88 283.863C302.29 284.943 301.64 285.993 301.1 287.103C300.47 288.393 301.05 289.243 302.13 290.173C303.55 291.393 305.18 292.373 306.71 293.453C307.59 294.073 308.45 294.713 309.26 295.413C309.87 295.943 310.78 296.663 310.57 297.583C310.27 298.863 308.21 299.573 307.15 299.933C305.88 300.363 304.58 300.593 303.25 300.733C296.35 301.473 288.93 301.073 282.16 299.523C281.1 299.283 277.49 298.733 277.51 297.233C277.53 295.683 279.41 294.143 280.5 293.283C281.82 292.243 283.28 291.383 284.69 290.473C285.66 289.843 286.86 289.153 287.51 288.163C288.61 286.513 287.41 284.653 286.67 283.133C284.33 278.333 282.52 273.203 281.03 268.073C278.04 257.913 276.67 247.303 277.05 236.703C277.14 234.123 277.34 231.543 277.63 228.973C277.7 228.343 276.7 228.343 276.63 228.983Z" fill="white"/>
<path d="M294.91 286.423C290.71 278.843 289.81 270.093 289.22 261.593C288.57 252.153 288.3 242.693 288.41 233.233C288.2 233.393 287.99 233.553 287.78 233.713C292.57 234.433 297.5 234.553 302.33 234.283C302.16 234.113 302 233.953 301.83 233.783C301.96 251.653 300.27 269.683 293.99 286.533C293.77 287.133 294.73 287.393 294.95 286.803C301.26 269.873 302.96 251.743 302.82 233.793C302.82 233.533 302.59 233.283 302.32 233.293C297.58 233.553 292.73 233.453 288.03 232.753C287.71 232.703 287.4 232.883 287.4 233.233C287.29 243.013 287.57 252.793 288.27 262.543C288.87 270.903 289.9 279.463 294.03 286.913C294.36 287.483 295.22 286.983 294.91 286.423Z" fill="white"/>
<path d="M298.84 286.803C301.41 278.153 303.94 269.333 305.19 260.373C305.8 255.993 306.12 251.583 306.37 247.173C306.5 244.843 306.62 242.503 306.75 240.173C306.88 237.973 307.33 235.613 306.87 233.443C306.75 233.653 306.64 233.853 306.52 234.063C308.46 233.603 310.39 233.093 312.34 232.623C312.13 232.463 311.92 232.303 311.71 232.143C312.04 234.913 311.73 237.793 311.46 240.553C311.09 244.303 310.57 248.043 309.99 251.773C308.98 258.203 307.79 264.503 305.55 270.643C303.55 276.113 300.56 281.233 297.94 286.423C297.65 286.993 298.51 287.503 298.8 286.923C301.11 282.333 303.63 277.823 305.65 273.093C307.2 269.443 308.4 265.533 309.23 261.663C310.6 255.233 311.57 248.673 312.29 242.143C312.65 238.873 313.1 235.433 312.71 232.143C312.67 231.813 312.42 231.583 312.08 231.663C310.14 232.123 308.21 232.633 306.26 233.103C305.99 233.173 305.86 233.463 305.91 233.723C306.4 236.043 305.84 238.783 305.7 241.143C305.58 243.313 305.47 245.493 305.35 247.663C305.09 252.143 304.76 256.623 304.1 261.063C302.81 269.703 300.37 278.203 297.89 286.563C297.69 287.153 298.65 287.423 298.84 286.803Z" fill="white"/>
<path d="M291.09 286.883C289.05 278.293 287.06 269.553 286.28 260.743C285.9 256.383 285.82 252.003 285.81 247.633C285.81 245.453 285.82 243.283 285.82 241.103C285.82 238.743 285.41 235.983 286.03 233.693C286.1 233.433 285.94 233.153 285.68 233.073C283.77 232.503 281.87 231.883 279.95 231.313C279.71 231.243 279.38 231.403 279.33 231.663C278.84 234.463 278.98 237.383 279.1 240.203C279.26 244.013 279.58 247.823 279.96 251.623C280.63 258.273 281.48 264.823 283.48 271.233C285.2 276.753 287.86 281.983 290.17 287.263C290.43 287.853 291.29 287.343 291.03 286.763C288.96 282.023 286.65 277.343 284.93 272.463C283.65 268.813 282.7 264.953 282.1 261.133C281.13 254.743 280.53 248.253 280.19 241.803C280.02 238.563 279.74 235.143 280.31 231.923C280.1 232.043 279.9 232.153 279.69 232.273C281.6 232.843 283.5 233.463 285.42 234.033C285.3 233.823 285.19 233.623 285.07 233.413C284.49 235.553 284.81 237.943 284.82 240.143C284.83 242.483 284.81 244.823 284.81 247.163C284.81 251.693 284.88 256.223 285.28 260.743C286.06 269.643 288.06 278.473 290.13 287.153C290.28 287.773 291.24 287.513 291.09 286.883Z" fill="white"/>
</svg>
