<svg width="287" height="609" viewBox="0 0 287 609" fill="none" xmlns="http://www.w3.org/2000/svg">
<path d="M267.48 514.433C263.097 521.2 252.692 525.188 248.309 526.701C204.496 541.831 87.3982 505.968 88.9548 493.005C90.1633 482.986 199.499 490.408 200.154 490.408C221.108 490.245 246.527 515.046 267.48 514.433Z" fill="#7F1335"/>
<path d="M159.824 608H211C205.111 588.5 208.286 598.979 204.189 579.493C203.657 576.999 206.217 568.064 205.111 560.192C201.977 537.864 206.115 512.347 198.311 486.605C191.797 465.116 166.153 442.829 159.824 421.279C153.495 399.728 120.826 477.098 125.025 486.605C139.731 520.035 147.719 566.637 159.824 608Z" fill="#F6B1C3"/>
<path d="M124.984 582.172C133.074 598.038 132 594.5 136.5 604.131C137.34 605.419 138.159 606.728 138.978 608.037H187.5C184.5 601 183.993 600 182.5 597C177.564 587.083 177.112 581.783 177.153 576.14C177.193 570.292 191.183 535.82 196.078 527.518C210.375 503.249 224.692 478.979 239.01 454.709L141.021 448.207C127.913 470.616 120.764 507.501 117.794 538.58C116.77 549.294 116.524 553.874 115.439 562.277C114.927 566.305 115.848 568.595 117.692 572.746C119.044 575.793 123.325 578.941 124.984 582.172Z" fill="#FACDD2"/>
<path d="M122.587 108.182C122.587 108.182 112.51 114.132 108.126 110.901C108.126 110.901 110.543 110.881 112.059 110.533C115.316 109.818 118.101 107.814 122.587 108.182Z" fill="#7F1335"/>
<path d="M0.921143 187.964C2.92843 193.301 6.79961 193.894 11.2443 197.472C15.7095 201.03 22.3663 214.279 25.6435 218.941C26.4218 220.045 42.2343 245.726 53.8274 260.161C74.9243 286.434 95.0996 306.636 97.2093 307.924C101.449 310.5 107.184 309.191 109.54 308.353C119.023 304.979 116.033 300.338 119.351 295.86C120.334 294.552 120.232 292.691 121.256 291.423C124.553 287.375 101.347 257.646 78.6521 235.236C67.6735 224.4 43.7705 207.409 40.2065 202.584C36.3558 197.329 34.9016 195.08 33.1401 188.803C31.6244 183.446 32.2184 180.992 31.0918 175.533C29.2484 166.72 30.6412 157.049 22.3663 148.871C21.7928 148.319 20.6253 145.027 19.9903 144.556C17.7168 142.839 15.648 145.62 16.3444 147.317C16.8565 148.544 16.4878 151.263 17.2866 152.326C18.0855 153.389 20.8301 157.397 20.912 158.726C21.1373 162.018 20.953 164.267 20.8096 165.943C20.6867 167.518 20.0313 167.6 18.7614 166.659C14.9516 163.878 11.0805 160.668 6.67672 160.014C5.28391 159.81 3.64531 159.748 2.7236 160.811C2.12961 161.507 2.0272 162.488 1.94527 163.388C1.10548 173.774 1.76092 177.577 0.921143 187.964Z" fill="#FACDD2"/>
<path d="M99.8515 210.292C98.9707 236.647 98.09 270.752 97.2093 297.107C97.0659 301.381 97.2912 306.411 100.814 308.823C103.334 310.541 106.836 310.255 109.499 308.762C112.161 307.269 114.128 304.795 115.787 302.26C122.034 292.732 125.209 281.466 126.52 270.159C127.831 258.852 127.4 247.423 126.95 236.054C126.868 234.194 126.765 232.21 125.618 230.759C124.615 229.471 123.038 228.837 121.522 228.264C114.927 225.729 108.331 215.444 101.736 212.909" fill="#FACDD2"/>
<path d="M279.749 241.554C279.749 241.554 287.389 286.516 286.447 299.766C285.607 311.563 286.385 321.153 277.783 326.673C271.351 330.803 225.307 371.328 225.307 371.328L219.244 335.056L248.452 297.598C248.452 297.598 245.666 271.284 239.808 259.016C233.93 246.748 279.749 241.554 279.749 241.554Z" fill="#FACDD2"/>
<path d="M113.288 177.537C119.515 172.405 133.32 165.31 144.852 167.272C146.203 167.497 149.009 166.127 150.341 166.741C151.857 167.456 152.758 170.483 153.557 171.873C156.178 176.412 159.066 180.808 162.2 185.02C165.252 184.693 168.12 183.425 170.885 182.096C183.83 175.901 196.037 168.336 208.491 161.261C211.645 159.462 214.82 157.704 218.035 155.986C220.473 154.677 224.324 151.713 226.863 152.51C229.608 153.348 232.824 157.049 235.282 158.685C238.006 160.484 240.853 162.14 243.864 163.449C248.145 165.31 252.794 166.496 256.522 169.297C260.618 172.405 263.138 177.107 265.35 181.749C275.755 203.524 281.777 220.883 284.747 244.805C283.149 240.614 278.295 246.237 273.85 246.911C260.352 248.956 247.51 255.172 237.555 264.495C238.497 263.616 236.868 278.323 236.5 280C235.148 286.032 233.5 289 231 295.5C225.5 306.5 224.815 320.907 226.904 332.562C229.403 346.465 234.831 359.653 239.44 373.005C255.129 418.58 261.458 466.731 267.705 514.515C257.608 514.617 247.694 518.379 237.617 517.623C215.741 516.007 168.079 495.54 161.647 495.029C138.789 493.25 109.642 485.726 88.9548 492.964C92.2525 477.527 93.5839 455.281 96.4719 441.01C99.3599 426.738 97.5575 412.323 99.0732 397.868C99.9949 389.137 99.7081 380.284 101.019 371.614C102.862 359.469 109.089 349.614 112.448 338.123C115.48 327.716 114.005 312.994 112.674 302.321C111.936 296.433 110.687 290.626 109.642 284.778C107.758 274.248 105.341 268 105.341 253.004C105.341 242.5 107.041 241.146 107.573 233.723C107.819 230.452 109.212 228.591 108.372 225.422C106.549 218.593 100.958 210.169 94.6899 213.481C97.2093 211.11 96.308 208.615 98.4382 205.875C101.142 202.399 99.5238 199.905 102.023 196.266C106.611 189.661 106.672 182.996 113.288 177.537Z" fill="#AA1D42"/>
<path d="M163.921 184.55C163.429 172.057 162.794 158.889 163.921 146.438C162.364 146.887 161.524 148.503 160.828 149.954C155.728 160.546 148.764 170.237 140.345 178.436C143.049 178.927 145.835 178.6 148.538 179.009C154.704 179.929 160.091 184.836 161.565 190.909" fill="#F6B1C3"/>
<path d="M102.023 90.7822C102.002 95.5666 103.395 100.78 106.631 104.297C109.314 107.201 110.646 106.874 112.387 110.411C114.046 113.784 113.022 116.054 112.735 119.509C112.551 121.718 110.421 127.238 111.076 129.181C111.527 130.571 113.268 131.614 115.541 131.021C117.118 130.612 119.044 130.898 120.129 132.125C120.846 132.922 120.887 135.764 121.215 136.787C121.542 137.809 127.585 139.036 128.445 138.402C127.585 139.711 129.817 142.307 131.251 141.694C132.89 142.818 131.517 143.943 132.05 145.436C132.623 147.051 133.832 148.666 134.385 152.387C135.102 157.049 141.964 155.965 147.862 152.796C154.355 149.32 154.273 147.746 157.735 145.476C160.807 150.527 159.312 158.071 160.766 163.858C162.282 169.869 162.385 180.849 160.254 187.351C159.947 188.291 159.456 189.559 160.377 189.927C161.729 190.479 171.643 180.399 172.81 179.499C176.005 177.005 179.139 174.449 182.293 171.873C192.699 163.347 203.083 154.841 213.488 146.315C203.862 138.954 197.389 127.647 195.914 115.625C195.628 113.253 195.505 110.82 194.726 108.571C193.948 106.301 192.33 104.175 190.036 103.5C190.323 91.9476 186.329 80.3545 178.955 71.4398C176.395 68.3524 173.384 65.5308 169.738 63.8951C166.071 62.2594 161.688 61.9322 158.104 63.7315C153.557 66.0011 151.017 71.1536 146.511 73.4845C143.192 75.202 139.178 75.1406 135.634 73.9956C132.091 72.8711 128.937 70.7446 126.008 68.4342C122.894 65.9806 119.699 63.0772 115.848 61.8709C111.486 60.501 109.724 62.7501 107.225 66.1442C102.268 72.8302 102.064 82.6854 102.023 90.7822Z" fill="#FACDD2"/>
<path d="M182.806 87.4904C182.294 83.8713 178.177 80.2932 174.531 80.1296C170.864 79.9661 168.57 84.0963 167.997 87.7357C168.099 96.7731 171.008 97.7749 163.306 98.3883C159.701 98.6746 150.792 94.8102 147.228 94.0946C145.446 93.7265 143.602 94.0128 141.82 93.6448C139.485 93.154 137.519 91.6206 135.655 90.128C130.145 85.6911 126.131 86.5907 120.621 82.1538C118.716 80.6204 116.524 79.0051 114.087 79.2709C110.789 79.6389 106.754 82.0312 103.723 83.3602C103.231 83.5851 102.658 83.7282 102.166 83.5442C101.449 83.2784 99.0323 81.9085 98.848 81.152C97.148 74.5478 97.0455 63.4658 101.326 57.7203C105.853 51.6682 112.141 41.997 118.204 37.5192C121.952 34.759 129.715 33.614 132.337 29.77C128.978 27.0098 129.039 21.5914 131.272 17.8497C133.504 14.108 137.355 11.6954 141.062 9.4258C144.585 7.27893 148.272 3.63946 152.123 2.14687C158.944 -0.511173 166.256 0.38847 173.568 -0.0204586C178.894 -0.306709 185.243 4.96848 189.667 7.93321C195.054 11.5318 196.324 13.2288 196.304 19.6899C196.283 25.8034 194.665 32.3463 190.056 36.3742C189.299 37.0285 188.418 37.7237 188.274 38.7051C188.152 39.5639 188.623 40.3613 189.114 41.0769C191.224 44.2257 194.337 44.7573 197.266 47.17C199.048 48.6217 202.121 52.8122 202.817 55C203.882 58.3737 204.23 62.0037 204.742 65.5C205.091 67.9331 205.746 69.4975 206.074 71.9306C206.647 76.2653 204.742 78 205 83.5C205.328 84.0929 205.541 85.7729 205.767 86.4067C206.012 87.1632 205.869 87.9811 205.664 88.758C204.824 91.825 203.042 94.6466 202.817 97.8158C202.633 100.413 203.534 102.968 203.78 105.545C204.443 112.5 198.315 116.314 196 117.5C194.177 118.441 193.026 104.727 185.571 101.005C182.171 99.3698 183.584 93.0927 182.806 87.4904Z" fill="#7F1335"/>
<path d="M282.166 225.974C278.664 223.725 276.41 221.108 272.908 218.859C258.959 227.119 245.625 236.443 233.09 246.707C232.598 247.116 232.086 247.545 231.861 248.159C231.513 249.079 231.943 250.081 232.373 250.96C234.462 255.356 236.552 259.772 238.641 264.168C245.81 261.02 252.958 257.871 260.127 254.722C268.668 250.96 277.885 247.136 287.02 248.997C285.607 240.573 284.235 233.703 282.166 225.974Z" fill="#F6B1C3"/>
<path d="M112.223 207.184C108.987 204.689 105.587 202.42 102.043 200.375C99.319 198.821 98.9298 198.76 97.8442 201.704C97.1683 203.504 96.4105 205.998 96.1852 207C94.7104 213.768 94.6899 214.074 93.1128 218.348C102.576 219.043 103.067 218.879 108.782 226.445C110.605 220.024 111.772 213.441 112.264 206.775" fill="#F6B1C3"/>
<path d="M155.052 199.128C158.145 189.6 164.023 181.156 170.926 173.897C177.828 166.639 185.775 160.443 193.682 154.309C201.813 147.991 209.986 141.633 218.998 136.664C219.49 136.398 220.043 136.112 220.575 136.276C221.046 136.419 221.354 136.828 221.64 137.237C224.795 141.694 227.928 146.151 231.083 150.629C226.187 158.91 222.173 167.702 219.1 176.801C215.496 175.042 211.686 173.713 207.774 172.875C207.671 175.083 207.036 177.271 205.951 179.193C187.619 174.511 166.768 182.607 156.363 198.412" fill="#F6B1C3"/>
<path d="M112.858 103.909C114.005 103.111 115.172 102.294 116.32 101.496C117.344 100.78 118.347 100.085 119.412 99.4719C123.161 97.2841 127.38 96.2005 131.579 96.364C128.896 94.5239 125.557 94.3194 122.505 95.0964C119.453 95.8733 116.647 97.5704 113.944 99.3901C113.206 99.8808 112.428 100.433 112.039 101.312C111.629 102.191 111.793 103.479 112.571 103.888" fill="#7F1335"/>
<path d="M125.782 139.506C123.038 139.527 120.785 138.075 120.498 137.727C120.15 137.257 119.924 136.255 120.354 135.846C121.727 134.497 126.54 136.644 128.609 136.95C131.005 137.318 133.463 138.791 136.822 138.402C134.836 141.305 136.556 143.289 134.037 145.763C133.033 146.744 131.476 147.112 130.063 147.133C129.285 147.133 128.732 146.601 128.302 145.947C126.192 142.737 129.858 140.631 130.002 139.956" fill="#D16987"/>
<path d="M130.985 104.543C130.985 104.543 131.292 110.677 126.315 111.985C124.574 112.455 121.358 111.597 121.051 107.671C121.051 107.671 123.017 105.913 130.985 104.543Z" fill="white"/>
<path d="M126.643 111.515C127.749 110.717 127.769 109.082 126.827 107.671C125.905 106.24 123.632 106.137 122.915 106.526C121.706 107.18 121.194 108.571 122.382 110.452C123.611 112.333 125.537 112.312 126.643 111.515Z" fill="#AA1D42"/>
<path d="M131.149 104.379C131.149 104.379 121.071 110.329 116.688 107.098C116.688 107.098 119.105 107.078 120.621 106.73C123.878 106.015 126.684 104.011 131.149 104.379Z" fill="#7F1335"/>
</svg>
