<svg width="100" height="120" viewBox="0 0 100 120" fill="none" xmlns="http://www.w3.org/2000/svg">
<path d="M44.1855 92.8339C43.2719 93.1579 42.5085 93.6687 41.7827 94.3167C41.1194 94.9147 40.356 95.5876 40.1182 96.4723C39.8304 97.5438 40.4436 98.6902 41.5199 99.0017C42.446 99.2758 43.4847 98.9892 44.2481 98.441C45.9376 97.2572 46.3005 95.3508 46.3255 93.4195C46.3506 91.3511 46.3756 89.2828 46.4006 87.2144C45.6247 87.4262 44.8488 87.638 44.0729 87.8374C44.6611 88.6971 45.462 89.3949 46.5383 89.532C47.0514 89.5943 47.5395 89.507 48.015 89.3326C48.2028 89.2578 48.403 89.1706 48.5907 89.1083C48.6283 89.0959 48.841 89.046 48.7784 89.046C48.7033 89.046 48.5782 88.9962 48.8285 89.0834C49.4667 89.3202 50.2051 88.8217 50.3678 88.2112C50.5555 87.5134 50.13 86.9153 49.4918 86.6786C48.6783 86.3796 47.965 86.7035 47.2016 86.9652C46.751 87.1147 46.5383 87.0026 46.2379 86.554C45.5496 85.5697 43.9227 85.8812 43.9102 87.177C43.8977 88.6722 43.8726 90.1674 43.8601 91.6627C43.8476 92.8464 44.0103 94.4662 43.5723 95.463C43.3846 95.8742 43.1468 96.1732 42.8089 96.385C42.5961 96.5221 42.446 96.5096 42.2708 96.5844C42.3709 96.547 42.2833 96.6093 42.1957 96.5595C42.4084 96.6218 42.5211 96.7339 42.5336 96.9208C42.5711 96.9831 42.5711 97.0454 42.5461 97.0953C42.496 97.0579 43.4221 96.1732 43.5723 96.0362C43.9602 95.6873 44.3732 95.3758 44.8613 95.2013C45.4996 94.977 45.9251 94.354 45.7373 93.6687C45.5496 93.0956 44.8238 92.6096 44.1855 92.8339Z" fill="#739E5A"/>
<path d="M89.6715 61.875C88.2072 62.498 87.0434 63.5945 86.0046 64.7782C85.0535 65.8498 83.9147 67.021 83.8521 68.5412C83.7895 69.9616 84.6405 71.2076 86.0547 71.5067C87.4814 71.8057 88.9581 71.0207 89.9593 70.0613C92.3496 67.7562 92.4372 64.2923 92.4748 61.2022C92.5123 57.4143 92.5499 53.6264 92.5874 49.8385C91.8115 50.0504 91.0356 50.2622 90.2597 50.4615C90.973 51.6702 91.9992 52.829 93.4259 53.1405C94.1392 53.29 94.8401 53.1778 95.5033 52.9162C95.8287 52.7916 96.8424 52.0938 97.1678 52.2309C97.7935 52.4925 98.5069 52.4178 98.8823 51.7823C99.1952 51.259 99.0575 50.3369 98.4318 50.0753C97.1928 49.5519 96.2667 49.8635 95.0903 50.3868C94.5647 50.6235 94.1267 50.8478 93.5886 50.5488C93.063 50.2622 92.7125 49.689 92.4122 49.1906C91.7865 48.119 90.097 48.5925 90.0844 49.8136C90.0594 52.4925 90.0344 55.1715 90.0094 57.8504C89.9843 60.3923 90.2471 63.1584 89.6214 65.638C89.3711 66.6099 88.9331 67.5693 88.1947 68.2795C87.8568 68.6035 86.2925 69.6875 86.3425 68.591C86.3801 67.6939 87.6441 66.6348 88.2072 66.0367C89.0082 65.1894 89.8467 64.4792 90.9229 64.0182C92.4122 63.3951 91.1357 61.2395 89.6715 61.875Z" fill="#739E5A"/>
<path d="M72.5634 112.976C71.5497 113.4 70.5735 113.873 69.6599 114.484C68.8465 115.032 67.8703 115.667 67.6325 116.689C67.3697 117.835 68.1206 118.932 69.1969 119.281C70.1856 119.605 71.3745 119.268 72.2129 118.695C73.0639 118.122 73.6897 117.337 74.0276 116.378C74.378 115.406 74.403 114.322 74.4531 113.3C74.5907 110.982 74.6408 108.677 74.6408 106.36C74.2278 106.771 73.8023 107.194 73.3893 107.606C75.8798 107.332 78.3702 107.182 80.8732 107.17C80.4602 106.758 80.0347 106.335 79.6217 105.924C79.4214 107.506 79.3088 109.088 79.2713 110.683C79.2588 111.443 79.2587 112.191 79.2963 112.951C79.3213 113.586 79.3839 114.259 79.2838 114.882C79.1837 115.468 78.9083 115.904 78.4828 116.315C78.2951 116.502 78.0198 116.664 77.8446 116.864C77.8196 116.901 77.6819 116.938 77.6694 116.963C77.6694 116.963 78.2701 117.499 78.2701 117.511C78.3076 117.499 78.5204 117.063 78.5704 116.988C78.7582 116.739 78.9959 116.515 79.2212 116.303C79.6592 115.904 80.1848 115.617 80.723 115.368C81.3362 115.094 81.4864 114.197 81.1735 113.661C80.7981 113.026 80.0847 112.939 79.459 113.213C77.8946 113.91 75.8923 115.493 75.7671 117.337C75.692 118.446 76.518 119.443 77.6694 119.455C78.658 119.468 79.4965 118.782 80.1723 118.147C80.8857 117.462 81.4488 116.614 81.6616 115.642C81.8868 114.633 81.7992 113.611 81.7742 112.59C81.7116 110.359 81.8368 108.129 82.1121 105.911C82.1997 105.238 81.4739 104.665 80.8606 104.665C78.3577 104.677 75.8673 104.827 73.3768 105.101C72.701 105.176 72.1253 105.612 72.1253 106.347C72.1379 107.942 72.1128 109.537 72.0503 111.132C72.0252 111.929 71.9752 112.727 71.9376 113.524C71.9001 114.209 71.9001 114.945 71.6498 115.605C71.4871 116.029 71.1867 116.39 70.7988 116.627C70.586 116.751 70.3983 116.826 70.1605 116.888C70.123 116.901 70.0729 116.901 70.0229 116.901C69.8977 116.888 69.8852 116.901 69.9978 116.926C70.0229 116.826 70.0479 117.25 70.0479 117.25C70.1105 117.287 69.8852 117.387 70.1856 117.15C70.2857 117.075 70.3733 117.001 70.4734 116.926C70.7612 116.714 71.0491 116.527 71.3494 116.34C71.9376 115.979 72.5634 115.63 73.2141 115.368C73.8399 115.107 74.2779 114.546 74.0902 113.836C73.94 113.263 73.1891 112.714 72.5634 112.976Z" fill="#739E5A"/>
<path d="M72.5472 63.5062C72.5472 65.749 72.5597 67.9918 72.5597 70.2346C72.5597 71.3311 72.5597 72.4152 72.5597 73.5117C72.5597 74.5334 72.7099 75.6797 72.4471 76.689C72.2343 77.5487 71.6586 78.3462 71.1956 79.0813C70.9328 79.4925 70.6575 79.9162 70.3446 80.29C70.1944 80.4644 69.9441 80.6264 69.819 80.8133C69.7439 80.8507 69.6813 80.8881 69.6062 80.9254C69.7564 81.0376 69.9191 81.1373 70.0693 81.2494C70.1068 81.2245 70.3947 80.3149 70.4447 80.2152C70.6449 79.8663 70.8702 79.5548 71.1455 79.2682C71.7212 78.6577 72.422 78.1967 73.223 77.9101C72.7099 77.3992 72.1968 76.8884 71.6837 76.3775C71.2081 77.9101 70.1318 79.044 68.6926 79.7293C67.2409 80.4146 68.5049 82.5577 69.9566 81.8849C71.984 80.9379 73.4482 79.1561 74.099 77.0503C74.3743 76.1781 73.4608 75.2062 72.5597 75.5177C70.3321 76.3027 68.0043 78.2216 67.6164 80.6887C67.4161 81.9472 68.0419 83.2306 69.4185 83.3801C70.8702 83.5421 71.934 82.3584 72.7099 81.2992C73.5108 80.2152 74.3493 78.9318 74.7748 77.636C75.2253 76.2778 75.0627 74.7452 75.0627 73.3372C75.0627 70.0602 75.0501 66.7832 75.0501 63.5062C75.0501 61.8988 72.5472 61.8988 72.5472 63.5062Z" fill="#739E5A"/>
<path d="M5.86944 31.2127C5.86944 33.8667 5.88195 36.5207 5.88195 39.1747C5.88195 40.4705 5.88195 41.7539 5.88195 43.0498C5.88195 44.2833 6.05716 45.6664 5.74429 46.8626C5.48148 47.8968 4.79317 48.8562 4.23001 49.7533C3.90462 50.2642 3.57924 50.7626 3.17877 51.2236C2.96602 51.4604 2.72823 51.6473 2.51548 51.884C2.41537 51.9339 2.31525 51.9837 2.20262 52.0335C2.29022 52.0834 2.37782 52.1457 2.46543 52.1955C2.51548 52.1332 2.55303 51.6847 2.59057 51.5601C2.67818 51.3108 2.80332 51.0741 2.94099 50.8623C3.19128 50.4386 3.46661 50.0524 3.8045 49.691C4.51785 48.9434 5.38136 48.3703 6.35751 48.0338C5.84441 47.523 5.3313 47.0121 4.8182 46.5012C4.24252 48.3703 2.94099 49.7783 1.16389 50.6006C-0.287822 51.2859 0.976169 53.4291 2.42788 52.7562C4.76814 51.6597 6.47015 49.6163 7.22103 47.1616C7.49636 46.2894 6.58278 45.3175 5.68172 45.629C3.11619 46.5262 0.425519 48.7565 1.73375e-05 51.585C-0.200219 52.9307 0.450549 54.3013 1.90226 54.4757C3.52918 54.6751 4.7306 53.3045 5.60663 52.1332C6.54524 50.8623 7.5339 49.3671 8.02198 47.8594C8.5476 46.277 8.34736 44.4702 8.34736 42.838C8.34736 38.9629 8.33485 35.0878 8.33485 31.2127C8.37239 29.6053 5.86944 29.6053 5.86944 31.2127Z" fill="#739E5A"/>
<path d="M89.3005 21.9761C87.5859 22.4122 86.1092 23.4339 85.0705 24.8544C84.2195 26.0132 82.8804 28.8167 84.9328 29.5519C85.8339 29.8758 86.6473 29.34 87.4107 28.8915C88.1741 28.4429 88.9125 27.957 89.6133 27.4212C91.04 26.3122 92.1789 24.9541 92.692 23.1972C92.9798 22.2253 92.0537 21.4902 91.1526 21.6646C88.6747 22.1505 86.5097 23.8327 85.4334 26.1129C84.9078 27.2218 85.984 28.4429 87.1479 27.8199C88.6372 27.01 90.0388 26.0506 91.3278 24.9416C91.8535 24.4806 92.3666 23.9822 92.5543 23.2844C92.7796 22.4247 92.4291 21.5026 92.2665 20.6553C91.5656 17.1291 91.4154 13.5157 91.7283 9.92716C90.9149 10.0393 90.0889 10.1514 89.2754 10.2636C90.7021 14.2508 96.096 13.7524 99.1496 12.1326C100.576 11.3725 99.3123 9.22939 97.8856 9.977C96.7968 10.5502 95.6204 10.8492 94.394 10.8367C93.4053 10.8243 92.0662 10.6748 91.6908 9.60319C91.2027 8.2575 89.363 8.51916 89.2379 9.93962C88.9626 13.0546 89.0627 16.1697 89.5132 19.2723C89.6258 20.0199 89.751 20.755 89.9012 21.4902C89.9512 21.7518 90.2266 22.3873 90.1389 22.6365C90.0764 22.8109 89.6884 23.0726 89.5633 23.1723C88.4369 24.1442 87.198 24.9541 85.8964 25.6518C86.4721 26.225 87.0353 26.7857 87.611 27.3589C88.4369 25.602 89.9137 24.4432 91.8284 24.0569C91.3153 23.5461 90.8022 23.0352 90.2891 22.5243C89.6759 24.6052 87.6986 25.8263 85.9215 26.8605C85.8464 26.9103 85.7588 26.9477 85.6837 26.9975C85.108 27.2218 85.3333 27.5458 86.347 27.9445C86.4721 27.8199 86.5222 27.3464 86.5848 27.1844C86.7725 26.7359 87.0603 26.2998 87.3857 25.9384C88.074 25.141 88.9626 24.6301 89.9888 24.3684C91.5281 23.9822 90.8648 21.5774 89.3005 21.9761Z" fill="#739E5A"/>
<path d="M31.2223 79.056C29.658 79.4547 28.3189 80.3767 27.3803 81.6726C26.5669 82.7815 25.403 85.3608 27.3303 86.0461C28.1813 86.3451 28.9321 85.8841 29.658 85.4605C30.3338 85.0617 30.9971 84.6256 31.6228 84.1397C32.9118 83.1429 33.9506 81.9093 34.4136 80.3144C34.7014 79.3425 33.7754 78.6074 32.8743 78.7818C30.6341 79.2304 28.6818 80.7381 27.7057 82.794C27.1801 83.903 28.2563 85.124 29.4202 84.501C30.7593 83.7784 32.0108 82.9186 33.1621 81.9218C33.6377 81.5106 34.1383 81.0247 34.2885 80.3892C34.4887 79.5918 34.1883 78.7694 34.0382 77.9844C33.4124 74.8569 33.2873 71.6671 33.5626 68.4898C32.7491 68.6019 31.9232 68.7141 31.1097 68.8262C32.4112 72.4646 37.2795 72.0658 40.0953 70.5706C41.522 69.8106 40.258 67.6674 38.8313 68.415C37.8927 68.9134 36.8665 69.1751 35.8027 69.1626C34.9893 69.1502 33.8504 69.0505 33.5376 68.1658C33.0495 66.8201 31.2098 67.0818 31.0847 68.5022C30.8344 71.2808 30.9345 74.0719 31.335 76.8256C31.4351 77.486 31.5477 78.1464 31.6854 78.7943C31.7229 78.9937 31.9732 79.6042 31.8981 79.7787C31.8731 79.841 31.4726 80.1275 31.4351 80.1649C30.4464 81.0247 29.3451 81.7349 28.2063 82.3454C28.782 82.9186 29.3451 83.4793 29.9208 84.0525C30.6467 82.5199 31.9232 81.5106 33.5876 81.1866C33.0745 80.6758 32.5614 80.1649 32.0483 79.6541C31.7605 80.6509 31.1097 81.3985 30.3213 82.0464C29.9333 82.3704 29.5078 82.6445 29.0823 82.9186C28.8696 83.0557 28.6693 83.1803 28.4566 83.3049C28.3189 83.3921 28.1813 83.4669 28.0311 83.5541C27.7933 83.6538 27.7432 83.6911 27.8809 83.6662C28.0937 83.7285 28.3064 83.7784 28.5066 83.8407C28.5692 83.903 28.6193 83.9653 28.6818 84.0276C28.7444 84.2394 28.7945 84.4512 28.8571 84.6506C28.807 83.9528 29.4077 83.1304 29.8707 82.6445C30.4464 82.0464 31.1473 81.6601 31.9607 81.4608C33.45 81.062 32.7867 78.6572 31.2223 79.056Z" fill="#739E5A"/>
<path d="M27.1696 16.4972C24.9294 17.4691 23.1023 19.2883 22.1261 21.5187C21.7382 22.4158 22.2012 23.3129 23.2024 23.3877C25.868 23.612 28.0581 21.4938 28.2959 18.927C28.3334 18.5282 28.0331 18.0174 27.6701 17.8554C26.4687 17.2947 25.1547 17.4567 24.1535 18.3538C23.3651 19.064 22.4014 20.5219 22.439 21.6308C22.489 23.151 24.0033 23.6244 25.2423 23.1883C26.3436 22.8021 27.4449 22.2663 28.3585 21.5436C30.6987 19.6995 30.3358 16.8461 30.3733 14.1672C30.4109 10.965 30.4609 7.7627 30.4985 4.54798C30.1981 4.94671 29.8853 5.34543 29.5849 5.74416C32.5008 5.24575 35.4168 4.75981 38.3327 4.2614C38.6456 4.21156 38.971 4.14926 39.2838 4.09942C39.4716 4.06204 39.6593 4.03712 39.8595 3.99974C40.2224 4.0122 40.235 3.91252 39.8971 3.67578C39.5341 2.86587 39.6968 3.97482 39.7093 4.17418C39.7344 4.56044 39.7719 4.94671 39.7969 5.33297C39.9096 6.80327 40.0097 8.28602 40.1223 9.75632C40.2224 11.1643 40.3351 12.5848 40.4352 13.9928C40.4602 14.379 40.4978 14.7653 40.5228 15.1516C40.5353 15.3135 40.5478 15.4631 40.5478 15.625C40.5979 15.5503 40.6479 15.4631 40.6855 15.3883C40.2099 15.6624 39.6092 15.7621 39.1086 16.0238C37.1939 17.0455 35.7922 18.9519 35.3292 21.0452C35.0914 22.1043 36.1927 22.989 37.1688 22.4532C38.7332 21.5934 39.9972 20.3723 40.9608 18.8771C41.6992 17.7308 40.2975 16.7091 39.2463 17.1701C37.9698 17.7433 36.8685 18.7276 36.1927 19.9487C35.8548 20.5592 35.5294 21.2695 35.7797 21.9797C36.005 22.6401 36.6557 23.0637 37.3566 23.0388C38.6331 23.0139 39.9346 21.743 40.6855 20.8209C41.574 19.7369 42.1998 18.4909 42.5001 17.1327C41.6992 17.1327 40.8857 17.1327 40.0848 17.1327C40.31 17.9302 39.6968 18.7276 38.8708 18.7276C37.2564 18.7276 37.2564 21.2196 38.8708 21.2196C41.3112 21.2196 43.1634 18.8148 42.5001 16.4723C42.1747 15.326 40.3601 15.2388 40.0848 16.4723C39.8845 17.3819 39.5466 18.2043 38.996 18.9519C38.6831 19.3755 37.6945 20.5842 37.1438 20.5219C37.4442 20.6465 37.732 20.7711 38.0324 20.8832C38.0824 21.4938 38.1575 21.6433 38.2827 21.3318C38.3452 21.1947 38.4203 21.0701 38.4954 20.9455C38.6581 20.6963 38.8333 20.4845 39.0335 20.2727C39.459 19.849 39.9471 19.5624 40.4978 19.3132C39.9221 18.7401 39.3589 18.1794 38.7832 17.6062C38.0449 18.7525 37.0812 19.6247 35.8923 20.2851C36.5056 20.7586 37.1188 21.2196 37.732 21.6931C37.9948 20.5343 38.5705 19.5251 39.4841 18.7401C40.3851 17.98 41.7993 17.9052 42.5502 17.0081C43.4763 15.9116 42.9256 13.918 42.8255 12.6221C42.7004 10.9525 42.5752 9.28283 42.4626 7.61318C42.4 6.84065 42.35 6.06812 42.2874 5.30805C42.2248 4.5106 42.2874 3.53871 42.0621 2.77865C41.6241 1.24605 40.0973 1.47033 38.8208 1.68216C35.5294 2.24286 32.2255 2.79111 28.9341 3.35181C28.396 3.43903 28.0206 4.04958 28.0206 4.54798C27.9705 8.57261 27.9204 12.5972 27.8579 16.6094C27.8454 17.4068 27.9204 18.279 27.4449 18.9644C27.0569 19.5375 26.4312 19.8989 25.8305 20.2228C25.5176 20.3848 25.1922 20.5468 24.8543 20.6838C24.6916 20.7586 24.5289 20.8209 24.3537 20.8708C24.6791 21.7803 24.9294 21.9548 25.0921 21.3816C25.3549 21.095 25.7554 19.687 26.4312 20.011C26.2184 19.6497 26.0182 19.2883 25.8054 18.9394C25.6803 20.2353 24.4163 20.9954 23.2149 20.9081C23.5778 21.5311 23.9407 22.1541 24.2912 22.7772C25.1296 20.8708 26.5188 19.4752 28.4335 18.6404C29.8978 18.0049 28.6213 15.8618 27.1696 16.4972Z" fill="#739E5A"/>
<path d="M41.136 4.22398C43.9518 3.7505 46.7676 3.27701 49.5834 2.79107C49.9464 2.72877 50.3218 2.66647 50.6847 2.60417C50.7849 2.59171 51.6108 2.52941 51.6859 2.42973C51.3105 1.7818 51.1478 1.6572 51.2229 2.06838C51.2354 2.25528 51.2479 2.44219 51.2604 2.62909C51.2855 3.00289 51.3105 3.3767 51.348 3.7505C51.4481 5.18341 51.5608 6.61633 51.6609 8.03678C51.761 9.4697 51.8736 10.9026 51.9738 12.3231C51.9988 12.6969 52.0363 13.0707 52.0614 13.4445C52.0739 13.5691 52.0739 13.6937 52.0864 13.8183C52.0489 14.1796 52.0989 14.1921 52.2366 13.8557C51.7986 14.1049 51.2354 14.2045 50.7849 14.4288C48.8075 15.4381 47.3558 17.3694 46.8803 19.5126C46.6425 20.5717 47.7438 21.4563 48.7199 20.9206C50.2843 20.0608 51.5483 18.8397 52.5119 17.3445C53.2503 16.1982 51.8486 15.1764 50.7974 15.6375C49.5209 16.2106 48.3945 17.2074 47.7313 18.441C47.4059 19.0515 47.093 19.7368 47.3433 20.4346C47.5686 21.095 48.2193 21.5186 48.9202 21.4937C50.1716 21.4688 51.4106 20.2602 52.174 19.3755C53.1126 18.279 53.7509 16.9956 54.0637 15.5876C53.2628 15.5876 52.4493 15.5876 51.6484 15.5876C51.8736 16.3851 51.2604 17.1825 50.4345 17.1825C48.82 17.1825 48.82 19.6745 50.4345 19.6745C52.8748 19.6745 54.727 17.2697 54.0637 14.9272C53.7383 13.7809 51.9237 13.6937 51.6484 14.9272C51.4481 15.8368 51.1102 16.6716 50.5471 17.4193C50.2342 17.8429 49.2455 19.0391 48.7074 18.9768C49.0078 19.1014 49.2956 19.226 49.596 19.3381C49.646 20.011 49.7461 20.1231 49.8963 19.687C49.9464 19.6122 49.9839 19.525 50.034 19.4503C50.1967 19.1886 50.3844 18.9519 50.6097 18.7276C51.0352 18.3039 51.5232 18.0173 52.0614 17.7681C51.4857 17.195 50.9225 16.6343 50.3468 16.0611C49.6085 17.2074 48.6448 18.0796 47.4559 18.74C48.0692 19.2135 48.6824 19.6745 49.2956 20.148C49.5584 18.9519 50.1716 17.9052 51.1353 17.1202C52.0864 16.3601 53.6507 16.2978 54.3015 15.2138C54.6394 14.6531 54.6019 14.0176 54.5518 13.3946C54.4892 12.5224 54.4267 11.6502 54.3641 10.778C54.2389 9.15819 54.1263 7.53838 54.0012 5.93102C53.9386 5.12111 53.876 4.3112 53.8259 3.5013C53.7759 2.76615 53.8134 1.93132 53.6257 1.20863C53.2002 -0.361342 51.6234 -0.13706 50.3844 0.074762C47.0805 0.635468 43.7766 1.19617 40.4727 1.74442C38.8833 2.0933 39.5591 4.48565 41.136 4.22398Z" fill="#739E5A"/>
<path d="M41.2236 8.87161C44.7528 9.17065 48.1068 7.7502 51.5984 7.66297C53.2128 7.62559 53.2128 5.13357 51.5984 5.17095C48.0942 5.24571 44.7278 6.67862 41.2236 6.37958C40.5478 6.31728 39.9722 6.99013 39.9722 7.62559C39.9722 8.34828 40.5478 8.82177 41.2236 8.87161Z" fill="#739E5A"/>
<path d="M32.574 74.7822C32.6616 74.7822 32.7617 74.7822 32.8493 74.7946C32.7242 74.7697 32.8994 74.8071 32.9369 74.8195C33.1246 74.8694 33.2998 74.9068 33.4876 74.9566C33.838 75.0563 34.1884 75.1435 34.5388 75.2183C35.2772 75.3678 36.028 75.455 36.7789 75.455C38.2432 75.455 39.7449 75.0937 40.9589 74.2588C41.497 73.885 41.7974 73.1499 41.4094 72.5518C41.059 72.016 40.2706 71.7045 39.6949 72.1032C38.6937 72.801 37.7301 72.9879 36.5286 72.9505C36.366 72.9505 36.2033 72.9381 36.0281 72.9256C35.978 72.9256 35.5024 72.8633 35.7402 72.9007C35.4524 72.8633 35.1645 72.801 34.8892 72.7387C34.1133 72.5643 33.3749 72.3026 32.574 72.2652C31.9232 72.2403 31.2975 72.8508 31.3225 73.5112C31.3475 74.2339 31.8732 74.7572 32.574 74.7822Z" fill="#739E5A"/>
</svg>
