<svg width="206" height="41" viewBox="0 0 206 41" fill="none" xmlns="http://www.w3.org/2000/svg">
<g clip-path="url(#clip0)">
<path d="M139.641 3.4584C136.521 3.42061 133.438 3.29777 130.393 2.66467C129.331 14.2966 129.416 26.0042 130.64 37.6266C130.906 37.6266 131.162 37.6172 131.427 37.6266C133.334 37.74 135.212 38.0991 137.099 38.3259C139.139 38.5621 141.14 38.4771 143.179 38.392C143.995 38.3542 144.82 38.3164 145.646 38.2786C144.251 26.7506 144.147 15.0998 145.351 3.54345C143.445 3.50565 141.538 3.4773 139.641 3.4584Z" fill="#8B181A"/>
<path d="M204.805 19.4181C201.182 16.3849 196.923 13.9848 192.702 11.8871C186.546 8.83498 180.067 6.70891 173.257 5.7451C166.001 4.71514 158.707 4.03479 151.375 3.73242C149.838 3.66628 148.301 3.62848 146.765 3.59068C145.57 15.1092 145.674 26.7223 147.059 38.2125C153.993 37.9007 160.936 37.551 167.831 36.8518C174.86 36.1431 181.632 34.3572 188.196 31.7776C192.929 29.9161 197.245 27.2892 201.371 24.3316C202.86 23.2639 204.596 22.13 205.725 20.6654C205.763 20.6181 205.829 20.5236 205.877 20.448C205.507 20.2212 205.137 19.7015 204.805 19.4181Z" fill="#8B181A"/>
<path d="M205.924 20.4764C205.963 20.5336 206.069 20.5431 205.924 20.4764V20.4764Z" fill="#8B181A"/>
<path d="M119.789 0.160641C116.63 -0.170081 113.405 0.122844 110.237 0.141742C102.042 0.198437 93.8562 0.0566995 85.661 0.103945C69.4603 0.198437 53.2595 0.519709 37.0493 0.755939C32.9611 0.812634 28.873 0.869329 24.7849 0.916575C22.6792 0.944923 20.5734 0.97327 18.4582 0.992169C17.5192 1.00162 16.5802 1.01107 15.6411 1.01107C14.0476 7.35147 14.4365 14.2116 14.6167 20.6937C14.8064 27.4121 15.2902 34.121 16.0395 40.8016C16.4284 40.7732 16.8173 40.7354 17.1493 40.7354C18.1737 40.726 19.1981 40.7071 20.2225 40.6976C28.5695 40.6031 36.9165 40.537 45.2635 40.4709C62.0333 40.3386 78.8127 40.2063 95.5826 39.885C99.7371 39.8094 103.892 39.7149 108.046 39.611C111.717 39.5165 115.426 39.5543 119.096 39.3275C117.446 26.3349 117.076 13.0588 119.779 0.179539C119.779 0.17009 119.789 0.160641 119.789 0.160641Z" fill="#8B181A"/>
<path d="M12.9473 1.18115C12.0652 1.70085 11.6384 2.8442 10.6993 3.32611C9.64647 14.8919 9.83617 26.5333 11.259 38.0519C11.4487 38.1369 11.6384 38.2408 11.8376 38.392C12.7292 39.044 13.488 40.1874 14.5029 40.6409C14.5314 40.6504 14.5693 40.6504 14.6072 40.6693C13.8484 33.8848 13.3647 27.0625 13.1845 20.2307C13.0232 13.8714 12.7007 7.20973 14.1994 0.982715C13.7346 0.963817 13.2793 0.982715 12.9473 1.18115Z" fill="#8B181A"/>
<path d="M6.03257 1.50241C6.03257 1.48351 6.03257 1.47406 6.03257 1.45517C6.03257 1.33233 6.0136 1.17169 6.0136 1.02995C5.86184 1.0583 5.66265 1.06775 5.67213 1.0583C5.46346 1.0961 5.20736 1.0583 4.9892 1.0583C4.18295 1.0583 3.36722 1.0583 2.56098 1.0583C-1.47024 14.0887 0.0379119 27.6577 1.79268 40.9433C2.59892 40.9338 3.41465 40.915 4.22089 40.9055C4.59082 40.8961 5.18839 41.0094 5.52985 40.8866C5.74801 40.811 5.55831 41.1417 5.72904 40.915C5.79544 40.8299 5.71956 40.5653 5.71007 40.4519C5.6911 39.97 5.65316 39.4125 5.77647 38.9212C4.82795 32.7036 4.42957 26.4577 4.47699 20.174C4.52442 14.0415 4.52442 7.71997 5.92823 1.71974C5.9472 1.6347 5.98515 1.56856 6.03257 1.50241Z" fill="#8B181A"/>
<path d="M9.52316 37.7211C9.61801 37.7306 9.70338 37.74 9.79823 37.7495C8.42288 26.3821 8.24266 14.9108 9.25758 3.51509C9.13427 3.51509 9.00147 3.50565 8.87817 3.50565C8.36596 3.50565 7.58818 3.62849 7.00958 3.53399C5.93775 8.97672 5.93775 14.6557 5.89981 20.174C5.86187 26.0514 6.19385 31.9004 7.02855 37.7117C7.82531 37.5132 8.80229 37.655 9.52316 37.7211Z" fill="#8B181A"/>
<path d="M129.227 37.6928C127.975 25.9475 127.899 14.1076 128.999 2.3434C128.952 2.33395 128.904 2.3245 128.866 2.31505C126.315 1.63471 123.773 0.793732 121.164 0.35907C121.164 0.425214 121.174 0.481909 121.164 0.557503C118.489 13.2761 118.888 26.4105 120.519 39.2425C123.488 38.9779 126.286 37.9763 129.227 37.6928Z" fill="#8B181A"/>
<path d="M6.01422 0.860563C6.03357 0.727074 5.93684 0.793818 6.01422 0.860563V0.860563Z" fill="#8B181A"/>
</g>
<defs>
<clipPath id="clip0">
<rect width="206" height="41" fill="white"/>
</clipPath>
</defs>
</svg>
