<svg width="673" height="454" viewBox="0 0 673 454" fill="none" xmlns="http://www.w3.org/2000/svg">
<g clip-path="url(#clip0)">
<path d="M670.602 20.6981C670.183 19.4414 669.577 18.1848 668.421 17.5493C667.497 17.0438 666.385 17.0293 665.33 17.0293C665.013 17.0293 664.695 17.0293 664.363 17.0293C658.354 11.2518 649.356 7.23637 641.065 7.40969C640.675 7.42414 640.271 7.43858 639.939 7.65524C639.664 7.84301 639.505 8.13189 639.346 8.40632C637.714 11.324 636.068 14.2416 634.436 17.1738H635.374C632.356 17.1882 629.294 17.2026 626.145 17.2171C626.636 18.6759 627.026 19.9325 627.257 21.5214C627.026 21.348 626.506 21.3625 626.232 21.3769C597.965 21.7236 569.67 23.2257 541.477 21.1458L541.52 20.8281C541.462 21.0158 541.39 21.2036 541.332 21.3914C540.668 20.1348 540.047 18.907 539.498 17.7515C522.093 17.7804 506.104 17.3182 488.7 17.1304C469.793 16.9282 450.886 16.7549 431.979 16.6249C394.166 16.3649 356.353 16.2638 318.539 16.3216C263.235 16.4082 207.916 16.8415 152.611 17.5926C151.196 13.0717 149.708 7.68413 146.949 3.87094C146.155 2.77321 145.245 1.73325 144.075 1.05439C142.905 0.36108 141.461 0.0722024 140.19 0.505519C138.485 1.09772 137.46 2.8021 136.651 4.41981C134.643 8.44965 133.069 13.505 131.971 17.8959C124.591 18.0115 117.21 18.0982 109.829 18.2282C100.715 18.387 93.8835 20.4236 87.1961 26.4323C83.4407 29.8121 80.032 34.1742 77.1866 36.0808C74.3412 37.9874 66.4262 36.9763 61.4864 36.0663C55.6079 34.9975 50.9282 30.1732 44.3563 36.3408C42.4931 38.0885 40.4999 41.6706 40.6299 44.2271C40.8754 48.9647 44.2263 54.3667 45.9884 58.5844C48.7183 65.0985 52.5747 75.137 52.5458 78.2714C52.4447 88.8443 43.8797 97.6261 39.3733 107.332C37.7267 110.886 35.9646 114.482 33.1192 117.183C28.4106 121.661 21.5932 122.888 15.6424 125.474C9.69166 128.059 3.78422 133.62 4.99748 140.004C13.057 142.691 21.0877 145.493 29.0605 148.425C37.2789 151.444 45.5985 154.694 52.387 160.24C75.1645 178.859 66.4262 205.406 58.1355 228.661C47.4906 258.545 36.4123 288.285 24.9008 317.852C21.9254 325.493 18.9211 333.134 15.6713 340.673C12.4215 348.227 8.9117 355.709 6.44184 363.552C1.09771 380.567 0.837723 398.637 1.16993 416.518C1.24214 420.216 4.18864 423.177 7.87176 423.336C17.8812 423.769 35.9501 440.105 36.0079 444.958C36.0079 444.958 133.372 451.27 160.541 453.726C169.669 454.549 180.155 453.393 189.182 451.747C190.858 445.175 190.959 439.426 191.551 431.872C191.609 431.179 189.905 429.604 189.948 428.911C189.991 428.319 192.808 426.037 192.837 425.444C193.241 417.775 193.097 411.001 192.533 404.14C191.956 397.091 190.815 390.071 191.002 382.994C191.204 375.266 192.967 367.683 194.729 360.158C194.729 350.813 199.582 339.402 201.719 330.259C204.319 319.123 206.934 307.987 209.533 296.851C213.635 279.316 212.653 253.866 233.784 249.258C253.269 244.997 204.709 188.406 220.669 176.432C249.34 154.939 232.759 160.399 264.159 148.945C265.474 148.469 266.846 147.934 267.756 146.865C268.897 145.536 269.07 143.659 269.229 141.911C270.442 127.843 269.648 116.764 271.121 102.71C272.666 87.9921 410.646 170.958 418.258 162.739C427.372 152.917 438.392 148.136 451.565 145.666C464.969 143.153 483.124 145.118 496.759 144.872C536.349 144.164 621.812 144.699 624.932 144.757C634.999 144.959 629.669 137.953 632.428 136.365C638.278 132.999 667.02 137.636 667.584 135.007C668.522 130.616 671.743 63.813 672.249 31.6899C672.307 27.9778 671.787 24.2368 670.602 20.6981Z" fill="#260D0D"/>
<path d="M332.651 221.584C330.369 220.226 328.159 218.767 326.05 217.164C317.514 210.664 310.566 201.969 307.476 191.569C304.11 180.245 306.594 168.647 310.48 157.814C307.793 157.713 305.107 157.597 302.42 157.482C298.752 157.279 295.068 157.106 291.385 157.077C286.272 157.034 281.145 157.395 276.118 158.276C276.61 161.179 277.924 163.88 279.96 166.032C280.986 167.116 282.156 168.04 283.47 168.762C284.554 169.369 285.926 169.629 286.865 170.467C288.006 171.478 287.731 172.98 287.688 174.367C287.616 176.259 287.543 178.136 287.471 180.029C287.341 183.654 287.197 187.279 287.067 190.905C292.555 191.844 294.375 199.08 296.484 203.399C299.199 208.96 302.521 214.058 307.23 218.131C314.986 224.833 324.88 228.473 334.456 231.738C336.218 232.344 339.844 234.28 340.811 231.709C341.62 229.571 340.277 227.361 338.833 225.888C337.027 224.082 334.788 222.869 332.651 221.584Z" fill="#8B181A"/>
<path d="M613.305 54.3523C582.641 54.6701 551.977 54.9589 521.313 55.19C465.879 55.5945 410.444 55.8256 355.009 55.7245C338.789 55.6956 322.584 55.6378 306.363 55.5511C301.669 68.9117 298.795 82.8356 294.101 96.1962C309.223 96.3406 324.331 96.4706 339.454 96.5862C355.385 96.7018 371.331 96.4706 387.262 96.3551C414.763 96.1529 442.263 95.9362 469.778 95.7773C498.406 95.604 527.047 95.4596 555.675 95.474C574.913 95.4885 594.181 95.3874 613.42 96.0518C612.756 82.1568 613.969 68.2473 613.305 54.3523Z" fill="#8B181A"/>
<path d="M149.939 163.014C151.21 163.808 152.756 164.111 154.2 164.429C155.702 164.761 157.219 165.05 158.764 165.151C161.74 165.354 164.744 164.877 167.098 162.913C169.366 161.02 170.781 158.247 171.446 155.402C172.789 149.566 170.565 143.601 166.015 139.831C161.335 136.942 154.547 137.852 150.56 141.564C146.646 145.219 145.173 151.054 146.126 156.239C146.574 158.782 147.643 161.584 149.939 163.014ZM150.604 159.114C155.558 153.668 160.339 148.064 164.96 142.33C165.813 141.276 167.3 142.778 166.448 143.818C161.826 149.552 157.045 155.156 152.091 160.602C151.167 161.627 149.679 160.125 150.604 159.114Z" fill="#8B181A"/>
<path d="M271.338 59.1477C267.597 71.3094 263.423 83.4423 260.548 95.8495C261.906 95.864 263.264 95.8784 264.621 95.8929C269.373 82.4745 273.288 68.7817 278.011 55.3634C276.162 55.3489 274.327 55.3489 272.479 55.3345C272.19 56.62 271.713 57.9055 271.338 59.1477Z" fill="#8B181A"/>
<path d="M135.337 154.896C133.806 154.838 132.188 154.867 130.787 155.561C129.473 156.211 128.49 157.337 127.537 158.42C124.432 161.945 121.297 165.469 117.889 168.719C115.982 170.539 113.96 172.214 112.039 174.005C108.89 176.923 105.987 180.101 103.142 183.307C101.423 185.257 99.7043 187.207 97.8555 189.042C96.83 190.067 95.7612 191.064 94.8079 192.161C89.276 198.546 87.0661 206.634 85.0007 214.622C82.863 222.941 81.3176 231.507 78.2555 239.552C69.1271 263.557 59.3921 287.332 50.336 311.367C41.4243 335.141 33.2203 359.219 27.0096 383.861C25.4208 390.173 23.7887 396.528 22.6332 402.941C22.2576 405.035 23.2398 406.017 25.2763 406.003C26.764 406.003 28.2517 405.945 29.7394 405.931C32.5993 405.887 35.4591 405.887 38.3189 405.916C47.0429 406.017 55.7235 406.653 64.433 407.187C75.8723 407.895 87.3117 408.097 98.751 408.82C111.086 409.585 123.421 410.567 135.784 410.524C138.37 410.509 142.573 411.261 143.858 408.415C144.494 407.014 144.754 405.396 145.144 403.923C145.592 402.219 146.025 400.529 146.473 398.824C148.206 392.195 149.939 385.565 151.672 378.921C155.182 365.488 158.692 352.055 162.187 338.608C169.221 311.656 176.255 284.689 183.289 257.737C184.156 254.414 185.023 251.107 185.889 247.785C186.308 246.196 187.189 244.203 186.611 242.571C186.164 241.314 185.08 240.389 184.214 239.436C180.762 235.609 178.812 230.597 178.624 225.455C178.263 215.214 185.745 205.782 195.798 203.731C197.256 203.428 198.874 203.471 199.495 201.868C200.001 200.553 200.304 199.138 200.694 197.78C201.431 195.209 202.167 192.638 202.861 190.053C203.828 186.499 204.738 182.946 205.533 179.35C207.251 171.564 208.725 163.721 210.415 155.936C198.065 156.167 185.716 156.326 173.367 156.225C173.15 157.106 172.861 157.987 172.5 158.839C171.229 161.858 169.062 164.646 166.044 166.076C162.967 167.535 159.53 167.491 156.237 166.986C153.088 166.495 149.477 165.902 147.18 163.49C145.115 161.324 144.176 158.319 143.829 155.387C141.013 155.228 138.182 154.997 135.337 154.896ZM112.935 385.666C111.043 388.295 108.313 389.999 105.164 390.707C101.943 391.415 98.2888 391.675 95.039 391.27C91.0526 390.779 87.1528 389.046 84.6974 385.767C82.473 382.806 81.7075 378.964 82.1842 375.339C83.123 368.03 89.276 361.863 96.7289 361.501C103.012 361.328 109.771 362.686 113.021 368.68C114.437 371.28 114.856 374.053 114.928 376.971C114.986 380.062 114.798 383.095 112.935 385.666Z" fill="#8B181A"/>
<path d="M266.846 95.9218C268.752 95.9362 270.644 95.9651 272.551 95.9795C272.551 95.9218 272.536 95.864 272.565 95.8062C275.887 82.229 280.235 68.9262 283.831 55.4067C282.633 55.3923 281.448 55.3923 280.249 55.3778C275.483 68.7962 271.583 82.5034 266.846 95.9218Z" fill="#8B181A"/>
<path d="M291.01 63.8275C288.121 74.6749 284.554 85.3056 281.419 96.0663C282.618 96.0807 283.817 96.0951 285.016 96.0951C289.248 82.6046 293.927 69.2295 297.322 55.479C295.877 55.4645 294.433 55.4645 292.989 55.4501C292.483 58.2811 291.746 61.0687 291.01 63.8275Z" fill="#8B181A"/>
<path d="M287.226 96.124C288.785 96.1384 290.345 96.1529 291.905 96.1673C291.92 96.1384 291.905 96.124 291.92 96.0951C296.643 82.7778 299.517 68.8828 304.153 55.5367C302.608 55.5223 301.063 55.5223 299.517 55.5078C296.137 69.2584 291.472 82.6334 287.226 96.124Z" fill="#8B181A"/>
<path d="M274.689 95.994C276.205 96.0084 277.722 96.0229 279.238 96.0373C279.715 94.4196 280.221 92.8163 280.726 91.2131C282.705 84.8289 284.669 78.4447 286.532 72.0316C288.121 66.5718 289.811 61.0543 290.865 55.45C289.248 55.4356 287.63 55.4356 286.027 55.4211C282.416 68.9984 278.054 82.359 274.689 95.994Z" fill="#8B181A"/>
<path d="M198.412 95.214C200.03 95.2285 201.662 95.2429 203.279 95.2574C203.785 93.5674 204.319 91.8775 204.839 90.1876C206.818 83.8034 208.782 77.4192 210.646 71.0061C212.205 65.633 213.867 60.2165 214.921 54.6989C213.39 54.6845 211.873 54.6556 210.342 54.6412C210.342 54.6556 210.342 54.6556 210.342 54.6701C210.082 56.1867 209.49 57.6888 209.042 59.1477C205.374 71.1072 201.286 83.0378 198.412 95.214Z" fill="#8B181A"/>
<path d="M72.5936 36.9041C71.6836 37.0341 70.7304 37.0774 69.7626 37.0774C66.3251 37.0774 62.7864 36.6441 59.4066 35.9508C56.229 35.3009 53.2681 33.4954 50.0182 33.2209C44.9485 32.8021 39.7344 38.0596 39.7922 43.1439C39.8355 47.4048 42.522 51.5358 44.2552 55.2912C47.1006 61.4587 50.0182 68.1896 51.4193 74.8626C56.7201 61.2998 63.8552 48.5314 72.5936 36.9041Z" fill="#8B181A"/>
<path d="M556.873 33.7698C561.539 35.2142 566.782 35.4019 571.635 35.7775C576.343 36.153 581.066 36.3408 585.789 36.3408C595.784 36.3552 605.794 35.5753 615.659 33.9864C620.266 33.2354 626.232 33.0765 627.517 27.6311C627.979 25.6523 627.979 23.558 627.705 21.4925C627.618 21.3625 627.56 21.2036 627.531 21.0158C627.575 21.3914 626.867 21.2036 626.535 21.2036C626.188 21.2036 625.842 21.2181 625.495 21.2181C624.715 21.2325 623.921 21.2469 623.141 21.2614C621.566 21.2903 620.006 21.3192 618.432 21.348C615.384 21.4058 612.322 21.478 609.275 21.5358C587.479 22.0125 565.655 22.5469 543.889 21.0592C546.907 26.5623 550.894 31.921 556.873 33.7698Z" fill="#8B181A"/>
<path d="M146.964 6.77418C145.707 4.2465 143.699 0.361095 140.522 0.0144422C137.344 -0.317767 135.9 4.13095 134.903 6.41308C133.603 9.37407 132.578 12.4362 131.755 15.5561C137.893 15.4694 144.046 15.3683 150.185 15.2816C149.26 12.3928 148.321 9.48963 146.964 6.77418Z" fill="#8B181A"/>
<path d="M663.352 14.7328C659.524 11.4396 654.96 9.1141 650.035 7.95859C648.605 7.62638 647.16 7.38083 645.701 7.26528C644.575 7.16417 642.481 6.75974 641.701 7.65526C641.181 8.24746 640.848 9.17187 640.458 9.85073C640.04 10.5874 639.635 11.324 639.216 12.0462C638.696 12.9851 638.162 13.9239 637.642 14.8628C642.278 14.8339 646.929 14.8194 651.566 14.7905C655.494 14.7761 659.423 14.7617 663.352 14.7328Z" fill="#8B181A"/>
<path d="M214.199 222.696C213.462 218.131 207.656 216.485 203.669 216.124C203.612 216.124 203.568 216.095 203.525 216.08C203.482 216.08 203.438 216.095 203.395 216.08C199.495 215.474 195.046 218.926 194.021 222.551C192.894 226.48 194.295 232.099 197.892 234.381C201.431 236.634 206.37 235.955 209.663 233.572C212.971 231.203 214.863 226.74 214.199 222.696Z" fill="#8B181A"/>
<path d="M150.098 433.201C126.483 432.724 102.853 432.031 79.2377 431.078C67.365 430.586 55.4924 430.009 43.6342 429.258C37.7267 428.882 31.8049 428.478 25.8974 428.015C22.6476 427.755 19.3978 427.467 16.1769 426.99C20.5966 429.489 24.6697 432.753 28.2951 436.234C30.6349 438.487 34.1447 441.636 34.968 445.088C49.9894 446.056 65.0107 447.067 80.0176 448.078C101.726 449.537 123.435 451.01 145.115 452.686C156.367 453.552 167.344 454.635 178.639 453.292C180.357 453.09 182.062 452.844 183.766 452.584C184.488 452.469 186.12 452.512 186.684 452.108C188.099 451.053 188.07 448.035 188.301 446.345C188.836 442.402 189.414 438.17 189.341 434.183C189.312 432.811 188.561 431.901 188.186 430.976C175.62 433.287 162.823 433.461 150.098 433.201Z" fill="#8B181A"/>
<path d="M88.6693 171.795C90.417 171.925 92.338 171.55 93.8835 170.727C95.5734 169.831 96.9022 168.185 98.2743 166.885C100.99 164.328 103.748 161.815 106.522 159.33C111.346 154.997 116.213 150.722 120.835 146.172C125.443 141.622 129.53 136.61 133.921 131.858C136.073 129.533 138.254 127.077 139.41 124.073C140.551 121.126 140.926 117.27 139.294 114.424C137.417 111.131 133.141 110.149 129.689 109.586C125.587 108.921 121.399 108.589 117.239 108.358C100.86 107.39 84.4518 108.748 68.145 110.149C66.4695 114.193 64.924 118.281 63.5086 122.426C62.0787 126.601 60.4465 130.948 59.6377 135.296C59.161 137.852 60.3454 139.643 61.8187 141.593C63.1041 143.283 64.4618 144.944 65.8195 146.576C68.2027 149.436 70.6004 152.282 72.8825 155.228C72.998 155.315 73.0991 155.431 73.1858 155.589C73.1858 155.604 73.2002 155.618 73.2002 155.633C73.4024 155.893 73.6047 156.138 73.7924 156.398C76.0312 159.374 77.8511 162.609 79.9743 165.657C82.0108 168.546 84.914 171.507 88.6693 171.795Z" fill="#8B181A"/>
<path d="M631.922 97.8139C631.345 97.8428 630.753 97.8284 630.16 97.8428C629.193 97.8573 628.21 97.8717 627.243 97.8862C623.155 97.9439 619.053 98.0162 614.966 98.0739C614.821 98.1462 614.677 98.1895 614.518 98.1895C612.958 98.1317 611.413 98.0884 609.853 98.045C588.664 97.4817 567.461 97.5684 546.272 97.5828C517.24 97.5973 488.209 97.7562 459.177 97.9439C432.5 98.1173 405.837 98.3339 379.159 98.5217C361.177 98.6517 343.209 98.7384 325.241 98.565C310.335 98.4206 295.415 98.2762 280.509 98.1317C280.206 98.2762 279.859 98.2617 279.556 98.1173C244.718 97.7851 209.88 97.4384 175.042 97.1062C174.334 100.587 174.883 104.27 174.941 107.78C175.085 116.244 183.939 119.87 191.031 121.04C199.798 122.484 208.826 122.86 217.694 122.831C218.416 122.831 218.85 123.51 218.72 124.174C216.697 134.386 213.91 144.482 212.798 154.853C212.798 154.896 212.769 154.925 212.769 154.968C212.769 155.026 212.783 155.084 212.769 155.142C211.671 160.125 210.617 165.108 209.606 170.106C208.19 177.111 206.717 184.058 204.825 190.963C204.103 193.577 203.366 196.191 202.615 198.806C201.893 201.29 201.546 204.366 198.744 205.291C197.43 205.724 196.014 205.811 194.685 206.201C193.487 206.562 192.331 207.039 191.219 207.631C188.865 208.887 186.77 210.592 185.066 212.657C181.585 216.86 180.126 222.392 180.964 227.766C181.368 230.438 182.307 233.009 183.737 235.305C185.124 237.558 187.623 239.263 188.576 241.762C189.63 244.52 188.056 247.958 187.348 250.645C186.438 254.126 185.528 257.621 184.618 261.102C182.842 267.905 181.065 274.708 179.289 281.511C172.125 308.983 164.946 336.441 157.782 363.914C154.214 377.606 150.632 391.299 147.065 404.992C146.415 407.476 145.967 410.639 143.411 411.91C142.14 412.532 140.695 412.546 139.323 412.589C137.85 412.618 136.391 412.633 134.918 412.633C128.721 412.633 122.525 412.373 116.343 412.026C103.734 411.333 91.1392 410.452 78.5155 410.004C68.9827 409.657 59.4788 408.892 49.946 408.401C45.1363 408.155 40.3266 408.025 35.5169 408.011C32.4548 407.996 29.3928 408.04 26.3163 408.097C23.8753 408.141 21.0444 407.736 20.4811 404.862C20.1777 403.36 20.7555 401.67 21.0732 400.211C21.391 398.752 21.7088 397.279 22.0265 395.82C22.7631 392.512 23.5287 389.219 24.3375 385.926C25.9119 379.513 27.6162 373.143 29.4505 366.788C36.5857 341.988 45.5263 317.78 54.8713 293.745C59.6377 281.497 64.4907 269.292 69.2716 257.043C71.7125 250.789 74.1391 244.535 76.5078 238.266C77.9089 234.569 78.8766 230.727 79.8299 226.899C82.0108 218.074 83.7007 208.902 87.2105 200.495C88.6982 196.928 90.8503 193.49 93.3924 190.573C94.389 189.431 95.5012 188.42 96.5555 187.352C98.4477 185.459 100.181 183.437 101.957 181.444C104.817 178.223 107.749 175.06 110.927 172.142C112.906 170.322 114.971 168.589 116.907 166.726C120.503 163.245 123.594 159.33 127.089 155.777C129.256 153.553 131.812 152.715 134.889 152.773C137.835 152.831 140.782 153.091 143.728 153.264C143.685 147.732 146.01 142.012 150.632 138.806C155.327 135.541 162.216 134.964 167.127 138.055C167.156 138.083 167.185 138.112 167.214 138.127C167.257 138.156 167.3 138.185 167.344 138.213C172.125 142.084 174.479 148.165 173.771 154.102C186.12 154.203 198.47 154.044 210.819 153.813C211.96 144.063 214.444 134.545 216.409 124.94C211.137 124.925 205.865 124.708 200.622 124.261C192.447 123.553 182.452 123.12 176.515 116.634C173.959 113.847 172.933 110.712 172.818 106.986C172.717 103.707 172.327 100.342 172.89 97.1062C165.524 97.1062 158.172 97.164 150.806 97.2506C123.334 97.554 95.8767 98.2617 68.405 98.2762C68.405 101.526 68.405 104.761 68.405 108.011C70.1093 107.867 71.8136 107.722 73.5324 107.578C91.5003 106.076 109.67 104.935 127.638 107.188C131.321 107.65 135.308 108.214 138.413 110.423C141.259 112.446 142.53 115.638 142.501 119.075C142.443 126.355 137.373 131.136 132.838 136.177C130.455 138.82 128.245 141.579 125.804 144.164C123.464 146.634 121.023 149.017 118.539 151.343C113.137 156.384 107.547 161.223 102.131 166.235C100.542 167.708 98.9676 169.196 97.3933 170.698C96.1078 171.94 94.7501 172.85 93.0313 173.384C89.6371 174.424 86.1417 173.948 83.1952 171.954C80.8842 170.394 79.1799 168.228 77.6489 165.946C79.6132 170.929 81.462 176.172 82.2131 181.444C82.9786 186.803 82.2131 192.349 81.1442 197.621C79.8876 203.861 78.0677 210.014 75.7712 215.95C71.2503 227.65 66.5417 239.263 61.9053 250.919C54.5391 269.378 47.1729 287.838 39.8355 306.326C33.1192 323.254 26.6774 340.327 19.7444 357.168C15.7436 366.874 12.0749 376.653 10.3994 387.067C8.46397 399.128 8.65174 411.78 10.645 423.827C16.6679 425.314 22.8643 425.748 29.0317 426.21C35.5746 426.701 42.1031 427.134 48.6461 427.51C72.117 428.897 95.6167 429.691 119.116 430.355C130.744 430.673 142.371 431.078 153.998 431.222C165.509 431.366 177.064 431.049 188.402 428.868C188.446 428.795 188.475 428.723 188.532 428.665C189.5 427.25 190.439 427.134 190.815 425.257C191.277 422.96 190.988 420.23 190.988 417.89C190.988 408.978 189.76 400.24 189.125 391.371C188.46 382.185 189.789 373.345 191.811 364.405C192.808 359.999 192.938 355.478 193.949 351.058C194.888 346.942 196.159 342.927 197.386 338.882C200.03 330.201 201.893 321.29 203.958 312.464C205.778 304.679 207.786 296.937 209.115 289.051C210.111 283.071 210.935 277.048 212.48 271.184C215.34 260.351 221.218 251.063 232.701 248.362C239.634 246.933 246.668 246.817 253.702 247.496C268.824 248.955 283.47 253.49 298.622 254.761C313.773 256.032 329.083 254.776 344.047 252.161C358.909 249.561 373.526 245.589 387.811 240.779C391.451 239.552 398.716 238.281 400.42 234.525C401.142 232.922 400.969 230.77 401.099 229.037C401.244 226.942 401.359 224.833 401.446 222.739C401.749 215.344 401.72 207.92 402.139 200.524C402.803 188.623 404.667 177.631 412.177 168.04C419.558 158.623 428.6 151.285 439.967 147.284C452.879 142.749 466.326 142.648 479.846 143.038C490.693 143.355 501.497 143.269 512.358 143.168C549.161 142.821 585.977 142.937 622.78 143.211C623.921 143.226 625.076 143.254 626.217 143.24C628.297 143.225 631.056 143.283 631.735 140.886C632.067 139.745 631.72 138.488 631.922 137.318C631.922 137.275 631.894 137.246 631.894 137.202C631.807 132.566 631.749 127.929 631.778 123.307C631.807 116.707 632.024 110.12 632.327 103.534C632.399 101.844 632.486 100.139 632.572 98.4495C632.587 97.684 632.601 97.7851 631.922 97.8139ZM194.917 234.612C191.566 230.813 190.323 224.472 192.822 219.908C194.815 216.268 199.452 213.524 203.64 214.001C203.655 214.001 203.669 214.001 203.684 214.001C206.833 214.289 210.025 215.185 212.697 216.918C215.282 218.594 216.409 221.15 216.438 224.198C216.466 229.138 213.693 234.005 209.273 236.302C204.854 238.613 198.426 238.598 194.917 234.612ZM224.035 239.35C220.222 245.329 213.737 249.272 206.688 249.937C205.33 250.067 205.345 247.944 206.688 247.828C214.993 247.048 222.475 240.924 224.627 232.821C225.71 228.69 225.45 224.285 224.006 220.269C222.374 215.719 219.11 212.455 215.441 209.48C214.387 208.627 215.889 207.14 216.929 207.992C220.496 210.881 223.659 214.058 225.494 218.348C228.382 225.05 228.007 233.124 224.035 239.35ZM392.678 211.227C390.989 217.655 387.782 223.288 383.088 227.997C372.14 238.988 357.234 244.203 342.111 246.08C333.445 247.164 324.678 247.265 315.94 247.236C307.115 247.207 298.275 246.961 289.479 246.268C274.414 245.084 258.815 241.848 247.722 230.813C236.976 220.125 232.47 204.28 235.705 189.489C237.179 182.744 240.342 176.576 245.079 171.535C249.643 166.668 255.377 162.985 261.487 160.385C267.525 157.814 273.938 156.167 280.452 155.445C287.746 154.636 295.112 154.968 302.42 155.373C306.508 155.546 310.581 155.719 314.669 155.893C321.746 156.182 328.809 156.456 335.886 156.673C341.216 156.846 346.546 156.875 351.846 157.482C362.029 158.652 372.14 161.728 380.156 168.358C384.72 172.142 388.374 176.966 390.916 182.311C392.837 186.355 393.877 190.197 394.181 194.646C394.556 200.192 394.094 205.854 392.678 211.227Z" fill="#8B181A"/>
<path d="M264.188 59.1477C260.462 71.295 256.287 83.3989 253.413 95.7774C255.089 95.7918 256.779 95.8062 258.454 95.8351C258.44 95.7196 258.44 95.5896 258.468 95.4452C259.205 92.2531 260.086 89.1043 260.982 85.9555C262.917 79.1524 265.011 72.3927 267.106 65.6474C267.914 63.0331 268.723 60.4332 269.532 57.8188C269.778 56.9955 270.081 56.1578 270.312 55.3056C268.666 55.2912 267.005 55.2767 265.358 55.2623C265.069 56.5767 264.578 57.8766 264.188 59.1477Z" fill="#8B181A"/>
<path d="M109.468 367.366C106.175 363.957 101.192 363.495 96.7144 363.61C89.1604 363.971 83.5274 371.294 84.1918 378.632C84.5096 382.171 86.3295 385.348 89.3915 387.226C92.7135 389.248 96.6278 389.523 100.412 389.19C102.622 389.003 104.861 388.829 106.926 387.934C109.439 386.85 111.866 384.539 112.472 381.795C113.007 379.397 112.906 376.725 112.631 374.299C112.357 371.757 111.259 369.214 109.468 367.366ZM106.045 385.218C101.062 379.99 95.3423 375.44 90.7492 369.836C89.897 368.796 91.3847 367.293 92.2369 368.348C96.83 373.966 102.55 378.502 107.533 383.731C108.486 384.713 106.984 386.215 106.045 385.218Z" fill="#8B181A"/>
<path d="M640.993 95.113C638.884 96.124 636.848 96.8751 634.652 97.3951C634.797 98.2184 634.623 99.2006 634.58 99.9806C634.537 100.891 634.493 101.8 634.45 102.696C634.291 106.148 634.147 109.586 634.045 113.038C633.829 120.216 633.829 127.409 633.944 134.603C634.869 134.155 635.995 133.967 637.108 133.808C641.051 133.245 645.124 133.418 649.096 133.577C653.4 133.75 657.69 134.054 661.994 134.184C663.568 134.227 665.2 134.328 666.775 134.169C667.612 134.083 668.262 133.851 668.205 133.953C668.883 132.826 668.58 130.038 668.667 128.753C668.912 125.416 669.115 122.08 669.302 118.743C669.895 108.459 670.415 98.1751 670.877 87.8766C664.059 88.0932 657.3 89.2054 650.786 91.2565C647.435 92.3109 644.156 93.5964 640.993 95.113Z" fill="#8B181A"/>
<path d="M138.774 80.0914C138.688 80.1058 138.601 80.1347 138.529 80.1491C138.283 80.2069 138.052 80.2791 137.821 80.3658C137.373 80.5247 136.94 80.7558 136.55 81.0158C135.813 81.4924 135.236 82.0557 135.12 82.8212C134.99 83.659 135.236 84.5401 135.712 85.2334C136.29 86.0567 137.2 86.4467 138.124 86.7355C139.15 87.0677 140.19 87.2266 141.172 86.6633C142.038 86.1578 142.761 85.3778 143.136 84.439C143.483 83.5868 143.598 82.7201 143.266 81.9113C143.078 81.478 142.645 81.0302 142.154 80.7413C141.634 80.4236 141.201 80.2647 140.493 80.1202C140.406 80.1058 140.305 80.0769 140.219 80.0625C140.19 80.0625 140.175 80.048 140.161 80.048C140.146 80.048 140.146 80.048 140.132 80.048C140.016 80.0336 139.901 80.0191 139.785 80.0191C139.54 80.0047 139.309 80.0047 139.063 80.0336C138.962 80.0625 138.976 80.0625 138.774 80.0914Z" fill="#8B181A"/>
<path d="M188.634 54.2801C185.124 67.9296 181.224 81.4635 176.92 94.8818C176.905 94.9252 176.876 94.954 176.848 94.9974C178.436 95.0118 180.011 95.0263 181.6 95.0407C181.585 94.9107 181.6 94.7807 181.643 94.6363C185.788 81.3479 189.515 67.9151 192.808 54.3812C191.508 54.3668 190.222 54.3523 188.922 54.3234C188.821 54.3523 188.735 54.309 188.634 54.2801Z" fill="#8B181A"/>
<path d="M665.59 16.8416C664.724 16.8416 663.857 16.856 662.976 16.856C659.177 16.8704 655.364 16.8993 651.566 16.9138C644.012 16.9571 636.472 16.986 628.918 17.0293C630.391 22.1858 631.157 29.6244 626.607 33.1487C623.256 35.7486 617.695 35.8353 613.666 36.4275C609.318 37.063 604.956 37.5685 600.58 37.9007C590.296 38.6951 579.954 38.6374 569.699 37.7274C561.322 36.9908 553.32 36.413 547.442 29.7977C544.712 26.7212 542.56 23.1535 540.682 19.5137C540.133 18.4304 540.119 18.0404 539.021 17.5493C538.169 17.1593 535.973 17.5493 535.02 17.5349C532.825 17.5204 530.629 17.506 528.434 17.4915C486.085 17.0871 443.737 16.4227 401.373 16.2349C315.333 15.8449 229.292 16.2638 143.266 17.4771C132.506 17.636 121.745 17.7949 110.985 17.9682C101.712 18.1271 93.4213 19.5714 86.2861 25.9556C83.0219 28.8733 80.3931 32.5421 76.8978 35.1853C76.6522 35.3731 76.4067 35.5319 76.1611 35.6764C65.8195 48.8203 57.63 63.6108 51.9537 79.3402C51.8814 79.528 51.7803 79.6724 51.6503 79.7735C51.1159 84.9011 48.3717 89.942 45.844 94.1885C43.4753 98.1606 40.8754 102.003 38.81 106.148C37.1779 109.427 35.7479 112.807 33.3647 115.638C27.9195 122.123 19.3833 122.773 12.3348 126.572C10.0528 127.799 7.9151 129.388 6.28297 131.41C5.04082 132.956 2.51319 136.87 4.37642 138.777C5.45969 139.889 8.91171 140.308 10.4427 140.828C12.8693 141.666 15.2813 142.503 17.7079 143.355C33.6103 148.989 51.607 154.463 60.8076 169.831C68.2461 182.253 66.8017 197.173 63.2197 210.592C58.3955 228.675 51.1159 246.254 44.6452 263.803C37.2934 283.721 29.7683 303.581 22.0121 323.355C14.6603 342.089 4.82417 360.144 1.74768 380.235C0.187771 390.461 -0.0866579 400.847 3.70946e-06 411.174C0.0433345 416.677 -0.519965 422.296 6.3263 423.292C7.04849 423.393 7.75622 423.552 8.46396 423.711C8.03065 421.039 7.64067 418.353 7.39513 415.666C6.31186 403.865 6.88961 391.602 9.56167 380.047C11.8438 370.168 15.9313 360.953 19.6722 351.564C26.4607 334.535 33.0759 317.433 39.8499 300.404C47.0717 282.233 54.3224 264.077 61.5731 245.907C65.8051 235.291 70.1382 224.718 74.1968 214.029C76.9989 206.62 79.2088 198.704 80.0754 190.833C80.3642 188.247 80.4942 185.618 80.2631 183.018C80.0176 180.144 79.1799 177.327 78.3566 174.583C76.5222 168.473 74.1679 162.479 71.4092 156.731C70.5859 155.647 69.7482 154.578 68.896 153.524C66.2817 150.332 63.5808 147.212 61.0387 143.962C59.9121 142.518 58.6555 141.059 57.9478 139.355C57.1823 137.52 57.3556 135.642 57.8178 133.75C59.8399 125.633 62.7719 117.645 65.964 109.903C65.6029 109.441 65.704 108.618 66.2817 108.271C66.2817 104.689 66.2817 101.107 66.2817 97.5395C66.2817 97.4384 66.3106 97.3662 66.3395 97.2795C66.2962 96.7162 66.6284 96.124 67.3506 96.124C75.1501 96.124 82.9497 96.0662 90.7492 95.9796C118.221 95.6762 145.678 94.9685 173.15 94.954C173.179 94.954 173.193 94.9396 173.222 94.9396C173.554 94.9396 173.887 94.9396 174.219 94.954C174.464 94.954 174.71 94.954 174.941 94.954C174.869 94.7663 174.825 94.5496 174.912 94.2896C179.289 80.6402 183.26 66.8607 186.814 52.9657C187.016 52.1713 187.825 52.0702 188.359 52.3879C188.518 52.2724 188.706 52.2002 188.951 52.2002C190.583 52.2291 192.201 52.2435 193.833 52.2724C194.05 52.2146 194.281 52.2146 194.498 52.2868C223.645 52.7346 252.806 53.0668 281.954 53.269C337.388 53.6735 392.823 53.6879 448.257 53.4712C503.446 53.2546 558.621 52.7924 613.796 52.2146C613.824 52.2002 613.839 52.1857 613.868 52.1857C621.205 50.4236 623.675 41.9883 627.907 36.7308C630.709 33.2498 634.493 30.6355 638.942 29.9277C642.856 29.3066 646.843 29.1911 650.8 29.1189C658.152 28.9889 665.504 29.2488 672.856 29.4511C672.798 28.5555 672.754 27.66 672.668 26.7789C672.379 23.6013 671.989 20.4525 669.577 18.2859C667.728 16.6249 667.815 16.8416 665.59 16.8416ZM172.991 60.8376C168.947 72.1616 161.768 82.8067 152.178 90.1587C149.939 91.8775 147.469 93.2208 144.682 93.7841C141.923 94.333 139.092 94.2174 136.319 93.8419C130.888 93.0908 125.602 91.4731 121.673 87.4432C118.178 83.8467 116.04 79.2102 114.032 74.6893C111.664 69.3451 109.15 64.073 105.987 59.1332C105.308 58.0933 104.658 56.8222 103.633 56.0711C102.68 55.3778 101.423 54.9734 100.311 54.6267C97.581 53.7601 94.6056 53.4712 91.7458 53.4568C85.9106 53.4279 79.8298 55.6811 76.06 60.3176C74.2257 62.5709 72.9547 65.2719 71.6836 67.8573C70.2826 70.7028 68.9971 73.606 67.8127 76.5526C65.5162 82.3157 63.6385 88.2376 62.1797 94.2607C61.862 95.5896 59.8254 95.0263 60.1432 93.6974C61.8042 86.8799 63.9852 80.2068 66.715 73.736C68.015 70.645 69.4304 67.5973 70.9615 64.6219C72.3192 61.9787 73.8357 59.3066 76.0456 57.2555C80.1909 53.4279 85.6795 51.4058 91.2836 51.3624C94.1723 51.3335 97.1621 51.6224 99.9498 52.3302C100.369 52.4457 100.816 52.5613 101.264 52.7057C102.102 47.7948 103.344 42.9994 108.269 40.6451C110.898 39.3885 113.845 39.374 116.69 39.4462C119.478 39.5184 122.251 39.4607 125.038 39.4607C125.212 39.4029 125.399 39.3885 125.616 39.4607C125.631 39.4607 125.631 39.4607 125.645 39.4751C126.223 39.4751 126.786 39.4751 127.364 39.4896C133.632 39.5907 139.901 39.9518 146.169 40.154C149.275 40.2551 152.366 40.3129 155.471 40.284C157.854 40.2551 160.339 39.9229 162.635 40.7751C165.943 42.0028 167.979 44.9493 169.178 48.127C170.29 51.0302 171.475 55.2478 170.203 58.1799C169.236 60.4187 166.997 61.1409 164.744 61.3432C161.595 61.6176 158.389 61.5742 155.225 61.6465C148.61 61.8054 141.981 61.8776 135.351 61.8776C129.054 61.8631 122.713 61.762 116.488 60.6498C113.642 60.1443 110.739 59.4366 108.038 58.3099C108.89 59.6677 109.67 61.0976 110.421 62.4409C111.909 65.113 113.267 67.8573 114.538 70.645C116.603 75.2093 118.438 80.0046 121.5 84.02C125.009 88.6276 129.935 90.6931 135.524 91.6175C138.485 92.1086 141.62 92.3397 144.581 91.6753C147.541 91.0109 150.026 89.3354 152.308 87.3855C160.772 80.1924 167.228 70.7461 170.969 60.3032C171.417 59.0032 173.453 59.5521 172.991 60.8376ZM144.191 86.7933C143.338 87.8765 142.096 88.8298 140.724 89.0898C139.135 89.3932 137.46 88.8732 136.03 88.1943C133.733 87.0966 132.275 84.1356 133.257 81.6801C134.123 79.4847 136.853 78.1558 139.077 77.9536C140.897 77.7803 143.078 78.488 144.335 79.8313C146.184 81.7668 145.765 84.8 144.191 86.7933Z" fill="#8B181A"/>
<path d="M183.723 95.0696C185.572 95.084 187.42 95.0985 189.284 95.1274C192.634 81.4779 197.011 68.1029 200.607 54.5112C198.73 54.4823 196.866 54.4679 194.989 54.439C191.667 68.0884 187.911 81.6512 183.723 95.0696Z" fill="#8B181A"/>
<path d="M124.981 59.4943C125.009 59.4799 125.024 59.4654 125.038 59.451C127.667 58.4977 130.455 57.5155 132.607 55.6522C134.456 54.049 135.914 51.6802 135.582 49.1525C135.264 46.8126 133.56 44.646 131.48 43.5916C129.559 42.6094 127.407 42.1617 125.342 41.555C124.735 41.555 124.128 41.5406 123.522 41.5406C120.879 41.5406 118.235 41.5406 115.592 41.5117C113.036 41.4828 110.421 41.6272 108.226 43.0716C104.745 45.3682 103.994 49.0803 103.358 52.8935C107.663 56.9522 114.061 58.281 119.738 59.0177C121.471 59.2343 123.218 59.3932 124.981 59.4943Z" fill="#8B181A"/>
<path d="M245.772 95.7051C247.621 95.7196 249.47 95.7485 251.304 95.7629C251.304 95.6618 251.29 95.5607 251.319 95.4451C252.055 92.253 252.936 89.1043 253.832 85.9555C255.767 79.1524 257.862 72.3927 259.956 65.6474C260.765 63.0331 261.574 60.4332 262.383 57.8188C262.643 56.9666 262.946 56.1145 263.191 55.2334C261.27 55.2189 259.364 55.19 257.443 55.1756C253.962 68.8106 250.062 82.3156 245.772 95.7051Z" fill="#8B181A"/>
<path d="M649.529 31.271C645.803 31.3577 641.961 31.4299 638.306 32.1954C626.694 34.6364 626.102 50.4669 615.399 53.9623C616.107 67.9585 614.864 81.969 615.514 95.9507C620.31 95.8785 625.105 95.7918 629.9 95.7196C630.637 95.7051 631.619 95.5751 632.515 95.6618C633.916 95.4307 635.317 95.1418 636.674 94.7085C638.191 94.2174 639.563 93.423 641.007 92.7586C644.142 91.3142 647.377 90.072 650.67 89.061C657.242 87.0533 664.074 85.9555 670.949 85.7533C671.368 76.0759 671.743 66.413 672.09 56.7356C672.379 48.5025 673.202 39.9084 672.942 31.5599C669.591 31.4732 666.24 31.3432 662.89 31.2855C658.441 31.2132 653.978 31.1699 649.529 31.271Z" fill="#8B181A"/>
<path d="M137.691 49.1669C137.994 52.1279 136.449 54.9878 134.326 56.9377C133.069 58.0933 131.61 58.9743 130.079 59.6965C133.055 59.7543 136.015 59.7399 138.976 59.7254C144.898 59.711 150.835 59.6243 156.757 59.4654C159.515 59.3932 162.361 59.5088 165.105 59.1621C166.419 58.9888 167.734 58.5555 168.283 57.2411C168.716 56.23 168.6 54.9734 168.456 53.919C168.109 51.3913 167.416 48.7914 166.145 46.5815C165.394 45.2671 164.397 44.0683 163.068 43.2883C161.22 42.1906 159.255 42.2917 157.175 42.335C148.914 42.5083 140.681 41.9739 132.433 41.6995C132.708 41.8439 132.968 41.9883 133.213 42.1472C135.611 43.6494 137.402 46.3504 137.691 49.1669Z" fill="#8B181A"/>
<path d="M225.609 95.4885C227.429 95.503 229.249 95.5318 231.069 95.5463C231.069 95.503 231.069 95.4741 231.069 95.4452C231.805 92.2531 232.687 89.1043 233.582 85.9555C235.532 79.1525 237.612 72.3927 239.706 65.6475C240.515 63.0331 241.324 60.4332 242.133 57.8189C242.407 56.9089 242.754 55.9701 242.999 55.0456C241.656 55.0312 240.327 55.0168 238.984 55.0023C234.261 68.4062 230.347 82.0846 225.609 95.4885Z" fill="#8B181A"/>
<path d="M243.938 59.1477C240.226 71.2228 236.095 83.2545 233.221 95.5752C234.506 95.5896 235.792 95.604 237.077 95.6185C241.309 82.1568 245.96 68.8251 249.326 55.1179C247.939 55.1034 246.538 55.089 245.151 55.0745C244.877 56.4467 244.357 57.8189 243.938 59.1477Z" fill="#8B181A"/>
<path d="M231.632 55.06C228.036 68.6806 222.764 81.7812 219.312 95.4307C220.669 95.4451 222.027 95.4596 223.385 95.474C228.137 82.0701 232.051 68.3918 236.76 54.9878C235.055 54.9734 233.337 54.9589 231.632 54.9301C231.632 54.9734 231.647 55.0167 231.632 55.06Z" fill="#8B181A"/>
<path d="M239.302 95.6329C240.732 95.6474 242.147 95.6618 243.577 95.6763C247.867 82.2868 251.767 68.7818 255.262 55.1612C254.02 55.1467 252.763 55.1323 251.521 55.1179C248.185 68.8395 243.534 82.1857 239.302 95.6329Z" fill="#8B181A"/>
<path d="M215.138 62.802C212.22 73.7215 208.623 84.4389 205.475 95.2863C206.861 95.3007 208.262 95.3151 209.649 95.3296C213.881 81.8679 218.546 68.5217 221.897 54.8001C220.28 54.7856 218.676 54.7567 217.059 54.7278C216.539 57.4577 215.845 60.1299 215.138 62.802Z" fill="#8B181A"/>
<path d="M224.006 55.0456C220.698 68.6951 216.076 81.969 211.859 95.3585C213.621 95.3729 215.383 95.3874 217.131 95.4162C220.54 81.709 225.84 68.5651 229.48 54.9156C227.66 54.9012 225.84 54.8578 224.02 54.8434C224.02 54.9012 224.035 54.9734 224.006 55.0456Z" fill="#8B181A"/>
<path d="M202.788 54.5545C199.221 68.1462 194.844 81.5068 191.464 95.1418C191.551 95.1418 191.623 95.1418 191.71 95.1418C193.227 95.1563 194.743 95.1707 196.26 95.1852C196.982 92.0797 197.834 89.0176 198.715 85.9555C200.665 79.1525 202.745 72.3927 204.839 65.6474C205.648 63.0331 206.457 60.4332 207.266 57.8189C207.584 56.7645 207.974 55.6956 208.219 54.6123C206.414 54.5834 204.608 54.569 202.803 54.5401C202.774 54.5401 202.788 54.5545 202.788 54.5545Z" fill="#8B181A"/>
</g>
<defs>
<clipPath id="clip0">
<rect width="673" height="454" fill="white"/>
</clipPath>
</defs>
</svg>
