<svg width="645" height="747" viewBox="0 0 645 747" fill="none" xmlns="http://www.w3.org/2000/svg">
<g clip-path="url(#clip0)">
<path d="M288.33 344.74C292.498 357.265 296.685 369.789 300.854 382.314C302.2 386.352 303.564 390.501 303.508 394.782C303.415 402.82 298.461 409.662 296.386 417.345C295.919 419.083 295.601 421.046 296.349 422.672C297.003 424.112 298.33 425.028 299.695 425.626C303.546 427.346 307.845 427.196 311.939 426.598C336.669 422.99 362.745 438.188 375.625 414.634C379.868 406.877 390.915 397.941 393.943 389.492C396.392 382.706 394.336 343.694 396.261 336.684C396.598 335.469 386.279 331.263 383.999 326.739C383.494 325.729 383.046 324.739 382.429 323.86C377.232 316.495 377.101 312.046 376.335 302.793C375.568 293.54 375.774 284.156 374.036 275.033C369.493 274.603 367.736 277.594 366.091 282.286C365.101 285.128 365.138 288.287 364.652 291.315C363.717 297.222 360.857 302.475 357.885 307.466C349.53 321.542 338.968 335.487 324.276 339.918C312.555 343.451 299.844 340.366 288.012 343.376" fill="#73ADDE"/>
<path d="M303.733 495.931C327.715 547.88 354.838 598.37 384.896 647.047C387.812 651.777 391.102 656.768 396.243 658.843C399.963 660.338 418.973 661.572 422.861 660.581C431.759 658.338 439.348 652.637 446.451 646.842C470.49 627.233 478.603 612.39 497.482 587.771C505.109 577.826 511.203 558.385 516.381 546.964C522.194 534.103 525.316 520.176 527.297 506.213C533.559 462.078 546.401 424.878 525.26 385.641C520.287 376.407 503.688 365.471 498.884 363.322C486.921 357.975 479.668 359.209 471.574 362.2C463.48 365.21 456.751 371.042 450.9 377.379C412.019 419.532 408.225 482.248 386.803 535.449C385.85 537.785 384.616 540.384 382.223 541.169C379.55 542.066 376.802 540.328 374.522 538.701C357.979 526.812 341.436 514.924 324.874 503.035" fill="#0077BF"/>
<path d="M140.677 463.891C141.125 482.397 143.144 571.732 151.088 588.444C158.584 604.24 176.623 638.075 192.287 641.234C196.269 642.038 204.213 650.038 208.176 649.216C225.485 645.645 233.448 632.504 240.178 623.008C261.263 593.304 264.889 550.945 280.797 518.176C284.274 511.035 287.788 503.726 288.891 495.856C290.199 486.622 288.087 477.275 285.676 468.265C280.89 450.338 274.815 432.767 267.525 415.719C264.235 408.017 260.59 400.259 254.664 394.334C249.356 389.025 242.533 385.529 235.729 382.351C226.569 378.07 214.681 374.556 207.185 381.36C203.091 385.08 201.689 390.838 200.53 396.24C192.1 435.178 192.1 430.056 186.249 469.462C183.782 470.452 172.903 434.356 170.547 433.103C165.388 430.393 154.883 441.048 150.191 444.487C145.499 447.927 143.013 454.152 144.06 459.891" fill="#0077BF"/>
<path d="M484.771 451.684C482.285 422.523 477.855 383.641 498.903 363.322C471.126 350.61 445.535 340.572 412.786 336.572C408.299 336.011 401.888 336.702 392.635 334.328C393.944 361.34 388.803 365.06 377.064 389.417C371.456 401.063 360.203 402.82 347.717 406.166C332.501 410.26 316.257 407.699 309.004 393.698C301.751 379.697 302.91 365.733 302.499 349.975C300.293 350.18 298.106 350.76 295.9 351.564C296.013 351.414 296.087 351.264 296.2 351.115C273.544 346.685 250.702 355.975 229.485 365.06C220.662 368.836 211.335 373.042 206.082 381.08C198.642 392.464 201.783 407.438 204.531 420.747C212.325 458.433 204.25 498.156 201.446 536.533C200.867 544.608 201.671 678.732 204.531 746.963H478.733C489.388 691.631 501.239 535.972 498.024 527.672C487.482 500.399 487.257 480.846 484.771 451.684Z" fill="#0077BF"/>
<path d="M218.886 198.989C222.232 216.841 225.597 234.712 228.943 252.564C230.532 260.995 235.822 281.987 238.252 290.231C244.327 310.756 250.197 311.242 261.244 329.58C263.674 333.599 279.338 361.695 286.759 363.471C303.134 367.397 320.088 350.685 343.51 334.441C369.83 316.196 377.587 297.465 373.811 270.211C376.129 272.828 380.634 272.229 383.232 269.893C385.831 267.556 386.99 264.042 388.018 260.696C391.27 249.966 394.541 242.563 394.504 231.347C394.504 228.076 393.868 224.094 391.513 221.814C388.429 218.823 383.681 217.757 379.55 218.916C371.605 221.141 371.905 225.422 370.428 229.441C368.951 233.478 370.11 238.002 367.325 241.292C367.25 222.991 361.25 204.766 350.445 189.998C345.623 183.399 339.678 177.361 332.239 173.997C325.509 170.968 317.957 170.295 310.574 169.996C291.563 169.23 272.478 170.594 253.767 174.053C248.122 175.099 242.383 176.371 237.411 179.249C229.13 184.035 223.84 192.671 216.4 198.69" fill="#AADBF6"/>
<path d="M225.391 219.645C226.737 223.627 233.841 217.627 236.887 220.543C238.925 222.487 244.701 224.861 245.897 227.422C247.636 231.123 263.73 228.095 267.637 229.328C276.31 222.188 277.544 218.879 284.348 209.944C287.732 205.513 298.742 206.747 302.517 202.635C311.153 193.232 303.041 189.699 315.733 191.138C314.331 192.409 316.07 189.288 315.733 191.138C320.014 190.764 321.36 192.204 325.64 191.83C325.472 194.223 328.407 195.55 329.192 197.924C333.921 195.868 330.052 197.943 334.949 196.372C336.089 196.017 337.604 195.774 338.239 196.784C338.744 197.569 338.333 198.597 337.94 199.438C335.529 204.448 340.688 204.037 338.277 209.046C340.389 208.803 340.464 208.822 342.482 209.495C344.501 210.168 346.277 212.019 346.146 214.15C347.249 213.907 348.352 213.645 349.473 213.402C349.716 215.253 349.997 217.197 351.025 218.767C352.053 220.337 354.034 221.459 355.81 220.86C361.399 228.469 364.708 234.993 368.147 243.778C368.783 236.638 369.568 234.114 371.774 227.328C373.998 220.505 380.896 214.766 391.532 221.833C398.486 197.643 393.85 166.239 377.213 147.34C376.447 146.48 375.606 145.583 374.484 145.284C373.437 145.003 372.279 145.284 371.232 145.003C368.241 144.162 368.054 139.545 365.287 138.143C364.315 137.638 363.138 137.62 362.222 137.04C361.007 136.274 360.539 134.778 359.979 133.47C357.455 127.544 351.492 123.637 345.268 121.973C339.043 120.31 335.061 115.319 328.612 115.599C326.594 115.674 319.303 109.879 317.453 110.739C315.901 111.449 312.537 113.318 310.967 113.973C308.91 114.814 306.611 114.646 304.405 114.477C283.9 113.001 267.899 124.759 247.729 128.778C241.598 129.993 235.28 131.582 230.476 135.582C226.756 138.685 224.251 142.984 221.952 147.247C212.531 164.781 205.054 183.867 204.325 203.756C204.231 206.13 204.269 208.579 205.278 210.729C206.138 212.579 207.652 214.019 209.054 215.514C216.662 223.627 222.868 234.563 227.448 244.694C226.064 234.432 223.69 232.245 225.205 221.982" fill="#0061AA"/>
<path d="M274.479 319.953C274.03 318.925 273.17 316.869 274.852 314.27C276.123 312.308 278.871 311.224 281.152 311.747C281.9 311.915 282.61 312.308 283.376 312.233C284.685 312.102 285.152 311.037 286.143 310.177C288.218 308.382 293.059 307.952 295.713 308.588C309.172 311.784 307.677 311.672 314.593 314.383C315.658 314.794 315.976 316.14 315.079 316.85C313.154 318.42 308.518 319.449 306.144 321.823C299.639 328.29 293.9 330.795 286.685 331.244C279.862 331.655 276.161 328.515 276.965 322.309C276.946 322.309 274.927 320.981 274.479 319.953Z" fill="#73ADDE"/>
<path d="M279.955 296.774C278.198 296.232 276.235 296.25 274.422 296.026C273.544 295.914 272.609 295.82 271.768 295.502C271.114 295.259 270.553 294.605 270.16 294.026C268.721 291.857 268.87 288.997 269.88 286.698C270.684 284.885 272.123 283.296 272.516 281.296C272.74 280.118 270.945 279.613 270.721 280.791C270.403 282.399 269.282 283.726 268.553 285.165C267.543 287.147 267.039 289.334 267.338 291.577C267.599 293.502 268.478 295.353 270.011 296.587C271.188 297.54 272.777 297.671 274.235 297.877C275.955 298.101 277.806 298.082 279.469 298.587C280.609 298.923 281.114 297.129 279.955 296.774Z" fill="#4D90CD"/>
<path d="M271.039 260.658C272.067 263.93 272.628 267.276 272.535 270.697C272.441 274.136 271.712 277.482 270.74 280.772C270.404 281.931 272.198 282.417 272.535 281.277C273.544 277.837 274.292 274.304 274.404 270.715C274.497 267.126 273.918 263.593 272.852 260.172C272.478 259.032 270.684 259.518 271.039 260.658Z" fill="#4D90CD"/>
<path d="M288.012 239.367C297.508 239.554 301.003 240.675 314.556 237.647C315.808 237.367 317.116 237.348 318.388 237.404C320.294 237.497 322.145 238.058 323.958 238.675C326.257 239.479 328.519 240.376 330.725 241.404C328.706 238.544 326.369 235.815 323.453 233.89C321.322 232.506 317.92 232.095 317.004 232.226C309.284 233.291 308.929 233.759 305.415 234.189C299.003 234.974 294.461 234.525 289.134 233.834C288.423 233.74 287.601 234.17 287.302 234.824C287.115 235.236 287.208 235.722 287.32 236.17C287.545 237.273 287.788 238.32 288.012 239.367Z" fill="#0061AA"/>
<path d="M263.001 245.367C257.524 248.433 255.823 250.545 247 251.816C246.178 251.929 245.411 252.321 244.682 252.77C243.598 253.443 242.682 254.527 241.822 255.667C240.72 257.107 239.673 258.658 238.701 260.303C239 256.994 239.542 253.723 240.663 251.013C241.486 249.05 243.336 247.648 243.916 247.48C248.739 246.134 249.094 246.47 251.262 245.816C255.244 244.62 257.749 242.788 260.646 240.526C261.038 240.227 261.637 240.376 262.01 240.918C262.253 241.255 262.328 241.741 262.422 242.189C262.646 243.236 262.833 244.302 263.001 245.367Z" fill="#0061AA"/>
<path d="M314.911 315.598C308.649 315.205 309.097 315.186 301.004 315.112C297.938 315.093 292.573 314.831 289.676 315.429C288.928 315.579 287.395 316.626 286.704 316.962C285.507 317.523 283.732 316.869 282.442 317.168C279.077 317.953 278.797 320.421 277.638 322.047C278.367 322.383 279.451 320.738 283.47 321.71C286.236 322.383 287.395 321.561 290.255 320.907C294.255 320.009 299.62 318.046 305.228 317.691C308.78 317.448 310.406 316.401 314.911 315.598Z" fill="#0061AA"/>
<path d="M282.778 294.886C284.704 293.016 287.414 292.231 290.031 291.764C291.059 291.577 292.274 291.483 292.985 292.269C293.228 292.53 293.358 292.923 293.209 293.241C293.134 293.39 293.022 293.502 292.891 293.596C291.751 294.493 290.181 294.53 288.741 294.287C287.321 294.063 285.919 293.614 284.479 293.689" fill="#4D90CD"/>
<path d="M283.432 295.54C284.535 294.493 285.9 293.82 287.339 293.353C288.087 293.11 288.853 292.923 289.62 292.773C290.274 292.642 291.003 292.456 291.676 292.586C291.994 292.642 292.106 292.755 292.33 292.942C292.349 292.979 292.349 292.979 292.33 292.942C292.386 292.811 292.367 292.792 292.293 292.867C292.199 292.867 291.919 293.091 291.825 293.147C291.19 293.446 290.479 293.484 289.806 293.446C288.012 293.372 286.311 292.661 284.479 292.736C283.283 292.773 283.283 294.643 284.479 294.605C286.255 294.549 287.956 295.222 289.713 295.316C291.115 295.39 293.171 295.091 293.975 293.764C294.442 292.979 294.124 292.026 293.489 291.446C292.891 290.923 292.124 290.717 291.339 290.698C289.825 290.661 288.199 291.128 286.76 291.596C285.04 292.156 283.432 292.979 282.124 294.231C281.245 295.054 282.554 296.381 283.432 295.54Z" fill="#4D90CD"/>
<path d="M265.487 261.313C261.861 258.546 258.963 256.995 252.608 257.854C248.944 258.34 247.224 259.911 245.28 262.472C244.514 263.481 244.963 264.958 246.14 265.388C253.057 267.986 259.58 266.64 265.487 261.537" fill="white"/>
<path d="M249.617 260.434C249.748 261.687 250.308 263.948 251.355 264.659C252.066 265.145 253.542 265.332 254.402 265.276C256.44 265.145 257.262 264.752 258.197 263.631C259.131 262.509 258.982 260.247 258.907 259.425C258.571 255.611 249.299 257.331 249.617 260.434Z" fill="#0061AA"/>
<path d="M322.743 252.209C321.154 254.377 316.574 256.714 313.938 257.256C307.433 258.565 302.143 258.752 295.545 257.948C295.377 257.929 295.171 257.892 295.096 257.742C294.984 257.537 295.152 257.312 295.302 257.144C297.9 254.191 300.031 250.433 303.844 249.442C306.779 248.676 310.331 248.975 313.34 249.293C317.602 249.723 319.49 249.76 322.5 252.041" fill="white"/>
<path d="M304.442 258.06C301.751 257.537 300.517 255.312 300.311 254.377C298.984 248.134 309.116 249.106 309.751 249.629C310.218 250.041 310.461 250.639 310.648 251.237C310.947 252.284 311.06 253.424 310.761 254.471C310.461 255.518 310.312 256.714 309.321 257.163C309.321 257.181 306.087 258.378 304.442 258.06Z" fill="#0061AA"/>
<path d="M299.059 258.284C299.059 258.284 302.891 256.845 308.443 256.508C310.461 256.378 312.779 256.228 314.349 255.499C316.518 254.508 316.948 253.761 317.359 253.293C317.77 252.826 318.387 251.405 320.331 250.938C320.929 250.788 322.799 252.228 322.799 252.228C322.799 252.228 318.051 259.63 299.059 258.284Z" fill="#73ADDE"/>
<path d="M322.743 251.611C318.406 248.938 312.443 247.592 307.358 248.246C302.143 248.919 297.825 252.228 294.554 256.172C294.18 256.639 294.834 257.294 295.208 256.826C298.423 252.975 302.648 249.648 307.807 249.125C312.63 248.639 318.163 249.872 322.257 252.415C322.78 252.732 323.247 251.929 322.743 251.611Z" fill="#0061AA"/>
<path d="M262.533 263.743C262.533 263.743 259.374 266.173 254.664 266.584C251.374 266.865 246.196 266.659 245.093 264.453C244.271 262.789 244.514 262.789 244.514 262.789C244.514 262.789 246.495 262.659 248.047 264.173C249.598 265.706 252.776 264.565 254.626 264.883C256.477 265.201 258.309 265.126 258.982 264.565C259.673 264.005 262.533 263.743 262.533 263.743Z" fill="#73ADDE"/>
<path d="M265.823 260.976C264.478 259.668 262.963 258.49 261.225 257.761C259.337 256.957 257.393 256.882 255.374 256.864C251.056 256.826 247.243 259.369 244.439 262.453C244.028 262.902 244.701 263.556 245.093 263.107C247.729 260.191 251.281 257.761 255.374 257.798C257.169 257.817 258.945 257.836 260.646 258.509C262.384 259.2 263.861 260.359 265.169 261.63C265.58 262.06 266.253 261.387 265.823 260.976Z" fill="#0061AA"/>
<path d="M315.079 372.537C312.78 372.724 308.574 369.472 306.873 367.92C305.172 366.369 302.424 363.583 298.199 365.752C296.012 366.873 296.124 370.93 296.835 373.285C300.199 384.165 297.583 410.391 297.769 416.074C297.994 422.822 305.77 434.842 309.434 440.506C313.116 446.151 338.65 464.115 343.08 463.891" fill="#4D90CD"/>
<path d="M187.221 446.525C194.979 433.889 198.923 418.953 198.399 404.129L173.052 398.857V445.217" fill="#4D90CD"/>
<path d="M176.623 394.595C178.922 394.857 179.744 390.24 189.408 391.174C191.708 391.399 194.194 391.81 195.764 393.53C197.633 395.567 197.764 398.614 197.783 401.381C197.783 402.334 197.783 403.306 197.353 404.148C196.68 405.437 195.184 406.036 193.764 406.316C189.689 407.138 184.941 405.83 182.772 402.297" fill="#73ADDE"/>
<path d="M20 24H1V747H20V24Z" fill="#939598"/>
<path d="M332.5 24H312.5V747H332.5V24Z" fill="#939598"/>
<path d="M488.5 24H468.5V747H488.5V24Z" fill="#939598"/>
<path d="M644.5 24H624.5V747H644.5V24Z" fill="#939598"/>
<path d="M176 24H157V747H176V24Z" fill="#939598"/>
<path d="M135.068 398.876C134.059 395.81 135.349 392.427 137.256 389.81C139.143 387.193 141.63 385.043 143.48 382.407C144.733 380.613 145.686 378.613 147.125 376.986C149.817 373.958 154.004 372.556 158.042 372.537C162.098 372.519 166.042 373.734 169.799 375.248C174.005 376.949 178.323 379.286 180.38 383.323C182.436 387.361 180.996 393.399 176.622 394.595C179.987 397.044 182.155 401.063 182.342 405.213C182.529 409.363 180.753 413.569 177.632 416.317C182.193 415.438 186.754 419.345 187.595 423.925C188.436 428.505 186.23 433.216 182.94 436.487C185.931 439.366 186.81 444.17 185.184 447.983C183.576 451.815 179.65 454.507 175.519 454.806C172.865 455.012 170.248 454.32 167.594 454.245C164.939 454.171 161.986 454.918 160.565 457.162C159.631 458.657 159.537 460.508 159.481 462.265C159.369 465.536 159.275 468.826 159.163 472.097C159.051 475.724 158.173 480.322 154.64 481.089C153.051 481.444 151.406 480.827 149.985 480.042C144.92 477.294 141.125 472.284 139.872 466.639C139.031 462.9 139.256 458.919 137.798 455.386C136.358 451.927 133.405 449.198 132.246 445.628C130.769 441.104 132.414 436.15 131.704 431.458C130.732 425.047 125.442 419.495 126.04 413.027C126.545 407.643 130.956 403.568 135.068 400.072" fill="#AADBF6"/>
<path d="M351.081 381.66C354.67 384.127 354.614 383.529 358.203 385.996C359.269 386.725 360.353 390.501 361.026 391.604C362.502 394.053 361.437 397.212 360.11 399.755C359.231 401.418 358.24 403.101 358.128 404.989C358.054 406.11 358.053 407.307 358.483 408.353C360.371 412.989 359.941 416.111 356.652 419.644C355.866 420.485 355.53 421.682 355.474 422.822C355.418 423.813 355.81 424.785 356.091 425.738C358.895 434.804 354.278 444.319 349.791 452.675C345.623 460.433 342.333 468.564 334.65 472.845C334.65 472.845 335.024 474.191 334.65 472.845C333.398 468.396 333.622 465.667 332.164 459.629C330.8 454.021 331.809 447.665 327.659 443.646C323.734 439.852 317.49 440.412 312.182 439.048C308.256 438.038 304.48 435.646 302.798 431.963C301.116 428.28 302.162 423.271 305.714 421.289C302.293 420.504 300.087 416.878 299.957 413.382C299.826 409.886 301.321 406.522 303.134 403.512C299.901 402.783 299.209 398.857 299.097 395.53C298.891 388.595 304.798 385.604 307.602 385.174C312.499 384.407 315.789 383.828 311.789 380.893C309.826 379.454 308.256 378.669 308.294 373.958C308.312 370.855 312.144 369.64 313.528 368.724C319.061 365.041 332.426 367.284 339.137 367.21C340.389 367.191 345.006 368.686 346.015 369.509C354.408 376.239 351.081 381.66 351.081 381.66Z" fill="#AADBF6"/>
<path d="M355.81 401.923C356.483 411.419 358.932 420.785 362.988 429.402C363.736 430.991 364.54 432.58 365.101 434.262C366.932 439.926 367.325 450.114 367.549 456.059C368.204 472.658 345.585 482.51 340.183 479.893C339.66 479.631 334.688 474.49 334.632 472.864C334.501 467.948 338.763 446.207 340.856 441.74C345.473 431.888 349.268 421.644 352.203 411.158" fill="#AADBF6"/>
</g>
<defs>
<clipPath id="clip0">
<rect x="0.5" width="644" height="747" fill="white"/>
</clipPath>
</defs>
</svg>
