<svg width="685" height="381" viewBox="0 0 685 381" fill="none" xmlns="http://www.w3.org/2000/svg">
<path d="M519.561 280.282C519.458 281.952 519.299 283.671 519.086 285.481C518.97 286.486 518.836 287.492 518.435 288.419C517.96 289.522 517.527 290.113 515.439 290.028C510.385 289.9 505.247 289.772 500.047 289.644C488.795 289.369 477.232 289.095 465.512 288.821C421.21 287.779 374.565 286.736 333.216 285.7C322.342 285.426 311.035 285.603 300.697 282.22C300.581 280.196 300.435 277.886 300.209 275.345C300.209 275.339 300.209 275.339 300.209 275.332C299.728 269.725 298.882 263.027 297.281 255.926C307.619 259.309 319.523 259.613 330.397 259.888C373.383 260.966 422.105 262.045 467.959 263.13C478.694 263.386 489.27 263.636 499.578 263.892H499.584C503.98 264.002 508.327 264.105 512.62 264.215C514.751 264.215 516.486 264.172 518.264 265.001C518.703 265.209 519.147 265.458 519.403 265.873C519.671 266.3 519.689 266.836 519.701 267.342C519.732 268.768 519.756 270.133 519.774 271.462C471.996 270.578 412.436 269.695 364.658 268.811C347.336 268.488 330.008 268.171 312.685 267.848C310.932 267.817 309.068 267.811 307.583 268.75C306.103 269.682 305.318 271.938 306.493 273.236C321.441 274.881 491.723 280.714 519.561 280.282Z" fill="#004E86"/>
<path d="M519.561 280.282C491.724 280.714 321.441 274.881 306.493 273.236C305.318 271.937 306.103 269.682 307.583 268.75C309.069 267.811 310.932 267.817 312.685 267.848C330.008 268.171 347.336 268.488 364.658 268.811C412.437 269.694 471.996 270.578 519.774 271.462C519.799 274.479 519.756 277.313 519.561 280.282Z" fill="#0061AA"/>
<path d="M640.075 197.017H508.638L522.399 212.431L640.075 208.921V197.017Z" fill="#004E86"/>
<path d="M136.49 157.966C132.514 169.595 128.952 181.523 128.24 193.799C127.936 198.992 125.841 259.04 125.616 283.866C125.61 285.182 125.628 286.541 125.184 287.785C122.9 294.215 125.622 301.943 124.544 307.204C87.0987 301.675 36.6538 294.014 1.12622 288.998V118.5C1.43066 118.543 1.73509 118.58 2.04561 118.622H2.06997C3.37295 118.799 4.68811 118.97 5.99718 119.134C7.31234 119.299 8.62141 119.469 9.91831 119.628C10.5698 119.707 11.2091 119.786 11.8545 119.866C12.4938 119.945 13.1271 120.018 13.7542 120.091C15.0146 120.237 16.2445 120.384 17.4318 120.518C17.6997 120.548 17.9676 120.579 18.2355 120.609C18.5095 120.64 18.7835 120.67 19.0574 120.701C19.3375 120.731 19.6176 120.762 19.8916 120.792C24.1232 121.255 27.6791 121.597 29.871 121.731C29.9867 122.645 30.2363 123.541 30.6321 124.406C31.3871 126.046 32.5622 127.375 33.9869 128.441H33.993C36.3128 130.178 39.2963 131.221 42.1823 131.769C45.9695 132.495 49.8419 132.641 53.6961 132.775C82.1547 133.805 110.406 134.896 138.865 135.926C141.544 142.984 138.932 150.822 136.49 157.966Z" fill="#4D90CD"/>
<path d="M138.865 135.926C110.406 134.896 82.1547 133.805 53.6961 132.775C49.842 132.641 45.9696 132.495 42.1824 131.769C39.2963 131.221 36.3129 130.178 33.9931 128.441H33.987C32.5622 127.375 31.3871 126.046 30.6321 124.406C30.2363 123.541 29.9867 122.645 29.871 121.731C27.6791 121.597 24.1233 121.255 19.8916 120.792C19.6177 120.762 19.3376 120.731 19.0575 120.701C18.7835 120.67 18.5095 120.64 18.2355 120.609C17.9676 120.579 17.6997 120.548 17.4318 120.518C16.2445 120.384 15.0146 120.237 13.7542 120.091C13.1271 120.018 12.4939 119.939 11.8546 119.866C11.2092 119.786 10.5698 119.707 9.91835 119.628C8.62146 119.469 7.31239 119.299 5.99723 119.134C4.68816 118.97 3.373 118.799 2.07002 118.622H2.04566C1.73514 118.58 1.4307 118.543 1.12627 118.5C0.827924 118.458 0.535666 118.421 0.243408 118.378C0.541755 118.415 0.834012 118.458 1.12627 118.494V33.9373C13.8882 35.8573 26.3761 39.1303 38.3587 44.2319C61.7941 54.2095 81.8685 70.6479 100.591 87.9274C115.332 101.538 130.584 117.641 138.865 135.926Z" fill="#0077BF"/>
<path d="M16.5002 9.15478C16.2871 9.57534 16.074 10.0142 15.867 10.4591C10.6002 11.0808 4.83424 14.2076 1.12622 18.2791V9.09993C2.56924 8.69156 4.02444 8.399 5.4492 8.29538C9.13286 8.60013 12.8165 8.8866 16.5002 9.15478Z" fill="#0061AA"/>
<path d="M23.6362 18.5229C23.5083 19.7236 23.4901 20.9305 23.5814 22.1068C23.6058 22.4055 23.6058 22.7773 23.3439 22.9296C23.2222 23.0028 23.076 23.0028 22.936 23.0028C19.2828 23.0211 15.6296 22.8931 11.9824 22.6188C12.1955 21.4059 12.4817 20.1381 12.8288 18.8581C13.602 15.9934 14.6615 13.0617 15.867 10.4591C16.074 10.0142 16.2871 9.57534 16.5002 9.15478C19.8003 9.40468 23.0943 9.64239 26.3944 9.8679C24.9087 12.4461 23.9467 15.4876 23.6362 18.5229Z" fill="#0061AA"/>
<path d="M1.12612 0C29.9866 2.1028 53.8604 1.71881 81.637 4.58959C97.5042 6.23525 194.296 9.28279 199.934 9.8801C202.589 10.1605 205.408 10.5079 207.484 12.1962C209.561 13.8785 210.358 17.4136 208.361 19.1934C202.108 18.8033 195.861 18.4437 189.614 18.1023C182.204 17.694 174.8 17.3161 167.402 16.9626H167.396C120.27 14.6708 73.3564 13.1288 26.3942 9.86791C23.0942 9.6424 19.8002 9.40469 16.5001 9.15479C12.8164 8.88661 9.13276 8.60014 5.4491 8.29539C4.00607 8.17958 2.56914 8.05768 1.12612 7.94187C1.11394 7.93578 1.09567 7.93578 1.0835 7.93578C1.10785 7.6554 1.12003 7.37503 1.12612 7.10685C1.13221 6.87524 1.13221 6.64972 1.12612 6.4242" fill="#8B181A"/>
<path d="M490.822 243.614C487.187 245.54 483.692 247.74 481.02 249.879C476.441 253.549 471.826 258.62 467.959 263.13C422.105 262.045 373.383 260.966 330.397 259.888C319.523 259.613 307.619 259.309 297.281 255.926C294.583 243.973 289.737 230.887 280.817 220.02C280.811 220.014 280.805 220.008 280.805 220.008C276.202 214.394 270.503 209.372 263.452 205.404C251.165 198.486 223.364 190.209 197.651 207.36C178.447 220.172 167.591 243.205 165.765 266.239C164.876 277.508 165.935 288.778 168.377 299.816V299.835C170.916 311.348 174.947 322.606 179.805 333.345C178.533 333.168 177.248 332.986 175.945 332.803C126.048 325.848 59.3342 317.394 1.12622 310.221V288.998C36.6538 294.014 87.0987 301.675 124.544 307.204C125.622 301.943 122.9 294.215 125.184 287.785C125.628 286.541 125.61 285.182 125.616 283.866C125.841 259.04 127.936 198.992 128.24 193.799C128.952 181.523 132.514 169.595 136.49 157.966C138.932 150.822 141.544 142.984 138.865 135.926C130.584 117.641 115.332 101.538 100.591 87.9274C81.8685 70.6479 61.7941 54.2095 38.3586 44.2319C26.3761 39.1303 13.8881 35.8573 1.12622 33.9373V24.4046C32.5987 28.2811 55.1087 39.8313 62.0863 43.2993C62.4334 43.47 62.7804 43.6468 63.1275 43.8235C89.2845 57.0864 104.531 74.3293 132.575 98.1854C147.444 110.827 159.688 128.338 178.697 132.732C184.591 139.065 191.715 144.782 199.807 147.854C210.638 151.962 228.789 154.284 240.345 155.162C304.13 159.983 364.817 189.953 370.668 197.2C353.766 193.689 336.76 190.635 319.535 189.922C314.487 189.715 309.409 189.721 304.344 189.977C316.077 203.746 328.364 217.899 344.803 225.426C356.098 230.595 368.64 232.283 381.007 233.429C384.246 233.734 387.54 233.996 390.736 233.362C392.636 232.99 394.463 232.301 396.35 231.887C402.207 230.607 408.266 232.021 414.159 233.136C431.92 236.495 452.811 235.806 469.494 228.815C471.028 229.619 472.611 230.528 474.212 231.503C480.185 235.135 486.365 239.701 490.822 243.614Z" fill="#0077BF"/>
<path d="M138.865 135.926C110.406 134.896 82.1547 133.805 53.6961 132.775C49.8419 132.641 45.9695 132.495 42.1823 131.769C39.2963 131.221 36.3128 130.178 33.993 128.441H33.9869C23.143 125.723 12.1711 123.681 1.12622 122.005V144.776C2.13086 145.044 3.10505 145.398 4.03053 145.879C6.72174 147.263 8.96238 150 8.7919 153.023C6.27117 152.511 3.70783 152.06 1.12622 151.627V288.998C36.6538 294.014 87.0987 301.675 124.544 307.204C125.622 301.943 122.9 294.215 125.184 287.785C125.628 286.541 125.61 285.182 125.616 283.866C125.841 259.04 127.936 198.992 128.24 193.799C128.952 181.523 132.514 169.595 136.49 157.966C138.932 150.822 141.544 142.984 138.865 135.926Z" fill="#0061AA"/>
<path d="M33.9869 128.441C23.143 125.723 12.1711 123.681 1.12622 122.005V118.5C1.43066 118.543 1.73509 118.58 2.04561 118.622H2.06997C7.27581 119.317 12.6704 119.981 17.4318 120.518C17.6997 120.548 17.9676 120.579 18.2355 120.609C18.5156 120.646 18.7895 120.676 19.0574 120.701C19.3375 120.737 19.6176 120.768 19.8916 120.792C24.1232 121.255 27.6791 121.597 29.871 121.731C29.9867 122.645 30.2363 123.541 30.6321 124.406C31.3871 126.046 32.5622 127.375 33.9869 128.441Z" fill="#0061AA"/>
<path d="M469.494 228.815C452.811 235.806 431.921 236.495 414.16 233.136C408.266 232.021 402.208 230.607 396.35 231.887C394.463 232.301 392.636 232.99 390.737 233.362C387.54 233.996 384.246 233.734 381.007 233.429C368.641 232.283 356.098 230.595 344.803 225.426C328.364 217.899 316.077 203.746 304.344 189.977C309.41 189.721 314.488 189.715 319.535 189.922C336.76 190.635 353.766 193.689 370.668 197.2C374.888 198.077 379.095 198.98 383.296 199.888C396.679 202.771 410.117 205.666 422.952 210.432C429.278 212.785 435.44 215.576 441.748 217.984C449.974 221.129 458.467 223.61 466.468 227.303C467.448 227.754 468.459 228.26 469.494 228.815Z" fill="#4D90CD"/>
<path d="M535.319 256.102C535.312 259.004 535.264 261.899 535.203 264.794C534.947 277.368 534.497 289.936 533.851 302.492C533.809 303.351 533.76 304.205 533.711 305.064C533.528 308.02 533.248 310.976 532.573 313.859C531.945 316.511 530.947 319.162 529.065 321.137C525.485 324.904 519.732 325.336 514.538 325.525C510.239 325.684 503.463 325.842 499.164 326.001C498.08 326.037 496.856 326.019 496.12 325.227C495.432 324.477 495.212 323.288 495.523 322.319C497.362 316.572 498.33 310.714 498.933 304.918C499.481 299.731 499.724 294.599 500.047 289.644C505.247 289.772 510.385 289.9 515.439 290.028C517.527 290.113 517.96 289.522 518.435 288.419C518.836 287.492 518.97 286.486 519.086 285.481C519.299 283.67 519.458 281.952 519.561 280.282C519.756 277.313 519.798 274.479 519.774 271.462C519.756 270.133 519.731 268.768 519.701 267.342C519.689 266.836 519.671 266.3 519.403 265.873C519.147 265.458 518.703 265.209 518.264 265.001C516.486 264.172 514.751 264.215 512.62 264.215C508.327 264.105 503.98 264.002 499.584 263.892C500.26 255.914 500.284 247.746 499.791 239.603C499.273 230.948 498.165 222.311 496.643 213.943C495.815 209.39 494.829 204.654 496.095 200.205C497.362 195.767 500.966 192.068 505.368 190.684C509.77 189.307 514.836 190.282 518.41 193.207C520.054 194.555 521.333 196.212 522.398 198.041C523.823 200.491 524.858 203.234 525.826 205.91C526.466 207.671 527.099 209.439 527.72 211.212C529.9 217.466 531.897 223.786 533.212 230.266C533.328 230.845 533.443 231.424 533.547 232.003C534.99 239.938 535.331 248.02 535.319 256.102Z" fill="#004E86"/>
<path d="M632.787 290.777C623.635 297.848 611.799 302.474 600.322 303.443C600.279 301.121 600.242 299.31 600.261 298.463C600.285 297.25 600.297 295.982 599.755 294.891C598.519 292.362 596.656 291.972 593.843 291.917C584.881 291.917 558.973 290.911 555.034 292.118C553.737 292.514 552.422 293.16 551.728 294.325C551.32 294.995 551.094 295.787 551.052 296.574C550.997 297.701 550.875 301.041 550.796 305.284C541.158 305.253 533.711 305.064 533.711 305.064C533.76 304.205 533.809 303.351 533.851 302.492C534.497 289.936 534.947 277.368 535.203 264.794C568.179 266.787 608.931 265.385 633.182 263.794C633.481 273.053 633.542 281.982 632.787 290.777Z" fill="#004E86"/>
<path d="M654.219 261.606C654.079 262.076 645.902 262.966 633.183 263.794C608.931 265.385 568.18 266.787 535.203 264.794C535.264 261.899 535.313 259.004 535.319 256.103C552.221 256.505 570.043 256.078 587.383 255.822C609.205 255.499 647.929 253.86 654.219 251.373C654.219 251.373 654.627 260.235 654.219 261.606Z" fill="#0061AA"/>
<path d="M666.335 297.915C665.946 299.323 665.294 300.645 664.643 301.956C661.732 307.844 658.816 313.731 655.905 319.619C655.406 320.625 654.876 321.673 653.969 322.344C652.958 323.087 651.637 323.246 650.383 323.374C644.769 323.947 639.009 324.459 633.462 323.66C631.776 323.416 630.101 323.057 628.464 322.539C627.873 322.35 627.252 322.112 626.887 321.612C626.302 320.796 626.625 319.668 626.96 318.723C630.278 309.398 631.989 300.164 632.787 290.777C633.542 281.982 633.481 273.053 633.182 263.794C645.902 262.966 654.079 262.076 654.219 261.606C654.627 260.235 654.219 251.373 654.219 251.373C647.929 253.86 609.205 255.499 587.383 255.822C570.042 256.078 552.221 256.505 535.319 256.103C535.331 248.02 534.99 239.938 533.547 232.003C533.443 231.424 533.328 230.845 533.212 230.266C549.353 226.103 572.381 226.261 582.147 226.164C590.525 226.078 598.787 226.535 606.118 227.663C617.954 229.479 627.343 233.039 630.826 238.853C631.112 240.133 631.417 241.407 631.788 242.657C631.8 242.127 631.818 241.596 631.831 241.066C631.873 239.506 631.916 237.951 631.959 236.391C632.001 234.953 632.007 233.392 631.155 232.234C630.796 231.741 630.296 231.344 630.053 230.784C629.87 230.345 629.864 229.851 629.858 229.376C629.809 222.842 629.754 215.71 629.706 209.158C632.36 209.158 634.607 207.923 636.269 207.965C637.304 206.807 636.574 206.419 636.976 204.913C637.377 203.414 638.166 201.919 637.411 200.554C636.949 199.725 636.951 199.162 636.269 198.504C635.405 197.669 634.669 198.297 633.488 198.504C632.976 198.51 632.123 197.011 631.611 197.017C632.269 192.616 636.976 188.587 641.414 188.715C645.914 188.843 649.993 191.69 652.678 195.304C655.363 198.925 656.867 203.27 658.237 207.561C659.808 212.486 661.257 217.448 662.585 222.446C663.754 226.846 664.831 231.277 665.41 235.794C665.879 239.463 666.013 243.163 666.134 246.862C666.159 247.685 666.189 248.502 666.214 249.325C666.232 249.928 666.25 250.538 666.268 251.141C666.305 252.287 666.335 253.439 666.366 254.585C666.39 255.523 666.421 256.462 666.439 257.401C666.488 259.333 666.536 261.265 666.573 263.197C666.621 265.269 666.658 267.342 666.695 269.414C666.755 272.986 666.798 276.551 666.828 280.123C666.865 283.994 666.883 287.87 666.889 291.74C666.895 293.813 666.889 295.915 666.335 297.915Z" fill="#004E86"/>
<path d="M681.277 254.664C681.198 254.853 681.088 255.024 680.954 255.17C680.583 255.572 670.135 257.218 666.439 257.401C666.421 256.462 666.39 255.523 666.366 254.585C667.651 254.53 671.206 253.677 671.413 253.506C671.919 253.085 671.919 252.299 671.091 251.927C670.841 251.812 667.59 251.08 666.268 251.141C666.25 250.538 666.232 249.928 666.214 249.325C669.897 249.319 679.578 251.111 681.094 252.854C681.508 253.323 681.533 254.067 681.277 254.664Z" fill="#0061AA"/>
<path d="M682.879 267.573C682.306 267.994 681.655 268.262 680.967 268.445C680.291 268.628 679.572 268.725 678.878 268.805C674.835 269.274 670.762 269.475 666.695 269.414C666.658 267.342 666.622 265.269 666.573 263.197C671.322 263.362 677.228 263.404 681.265 260.942C681.271 260.942 681.271 260.936 681.277 260.936C681.557 260.759 681.856 260.57 682.185 260.558C682.592 260.54 682.964 260.784 683.256 261.064C685.064 262.758 684.87 266.098 682.879 267.573Z" fill="#0061AA"/>
<path d="M681.277 254.664V260.936C681.271 260.936 681.271 260.942 681.265 260.942C677.228 263.404 671.322 263.362 666.573 263.197C666.536 261.265 666.488 259.333 666.439 257.401C670.135 257.218 680.583 255.572 680.954 255.17C681.088 255.024 681.198 254.853 681.277 254.664Z" fill="#004E86"/>
<path d="M681.076 277.77C680.96 277.965 680.735 278.063 680.516 278.142C677.757 279.172 674.786 279.44 671.851 279.703C670.256 279.843 668.442 279.983 666.828 280.123C666.798 276.551 666.755 272.986 666.694 269.414C670.762 269.475 674.835 269.274 678.878 268.805C679.572 268.725 680.29 268.628 680.966 268.445C681.015 271.102 681.118 274.613 681.167 277.216C681.173 277.405 681.173 277.606 681.076 277.77Z" fill="#004E86"/>
<path d="M599.615 326.257C599.402 326.939 599.146 327.646 598.641 328.152C597.789 329 596.474 329.091 595.28 329.201C584.193 330.237 558.821 331.194 552.787 331.139C552.355 331.133 551.916 330.913 551.624 330.584C551.314 330.243 551.253 328.524 551.204 328.061C550.644 322.173 550.668 312.445 550.796 305.284C550.875 301.041 550.997 297.701 551.052 296.574C551.094 295.787 551.32 294.995 551.728 294.325C552.422 293.161 553.737 292.514 555.034 292.118C558.973 290.911 584.881 291.917 593.843 291.917C596.656 291.972 598.519 292.362 599.755 294.892C600.297 295.983 600.285 297.25 600.261 298.463C600.242 299.31 600.279 301.121 600.322 303.443C600.462 310.672 600.669 322.844 599.615 326.257Z" fill="#73ADDE"/>
<path d="M633.462 323.66C630.205 337.228 617.236 339.672 604.645 342.567C595.542 344.658 413.727 351.594 314.828 340.092C308.91 339.404 303.284 338.648 298.011 337.825C298.846 331.279 299.564 324.422 300.088 317.48C300.989 305.613 301.324 293.49 300.697 282.22C311.035 285.603 322.342 285.426 333.216 285.7C374.565 286.736 421.21 287.779 465.512 288.821C466.65 291.472 469.104 294.892 471.156 296.757C474.085 299.408 476.952 301.212 480.599 302.73C483.291 303.851 486.213 304.278 489.111 304.558C492.296 304.875 495.657 305.29 498.933 304.918C498.33 310.714 497.362 316.572 495.523 322.319C495.212 323.288 495.432 324.477 496.12 325.227C496.856 326.019 498.08 326.037 499.164 326.001C503.463 325.842 510.239 325.684 514.538 325.525C519.732 325.336 525.485 324.904 529.066 321.137C530.947 319.162 531.945 316.511 532.573 313.859C533.248 310.976 533.529 308.02 533.711 305.064C533.711 305.064 541.158 305.253 550.796 305.284C550.668 312.445 550.644 322.173 551.204 328.061C551.253 328.524 551.314 330.243 551.624 330.584C551.916 330.913 552.355 331.133 552.787 331.139C558.821 331.194 584.193 330.237 595.28 329.201C596.474 329.091 597.789 329 598.641 328.152C599.147 327.646 599.402 326.939 599.615 326.257C600.669 322.843 600.462 310.672 600.322 303.443C611.799 302.474 623.635 297.848 632.787 290.777C631.989 300.164 630.278 309.398 626.96 318.723C626.625 319.668 626.302 320.796 626.887 321.612C627.252 322.112 627.873 322.35 628.464 322.539C630.102 323.057 631.776 323.416 633.462 323.66Z" fill="#0061AA"/>
<path d="M196.519 28.726C192.02 27.8666 187.35 27.1048 182.85 26.2453C182.838 26.2453 182.82 26.2393 182.807 26.2393C182.728 25.1543 182.223 24.1243 181.577 23.2405C181.182 22.7041 180.713 22.1982 180.122 21.8874C179.379 21.4973 178.503 21.4485 177.669 21.54C175.434 21.7899 173.333 23.0272 172.03 24.8496C171.963 24.9471 171.896 25.0446 171.829 25.1421C167.482 25.709 162.916 23.9414 158.532 23.978C158.794 23.6854 159.068 23.3868 159.372 23.0881C161.588 20.8329 164.73 18.4437 167.397 16.9626H167.403C174.801 17.3161 182.205 17.694 189.615 18.1023C191.989 21.3022 194.601 25.2823 196.519 28.726Z" fill="#0061AA"/>
<path d="M474.213 231.503C472.611 230.528 471.028 229.619 469.494 228.815C468.459 228.26 467.448 227.754 466.468 227.303C458.467 223.61 449.974 221.129 441.748 217.984C435.44 215.576 429.278 212.785 422.952 210.432C410.117 205.666 396.679 202.771 383.296 199.888C379.095 198.98 374.888 198.077 370.668 197.2C364.817 189.953 304.131 159.983 240.346 155.162C228.789 154.284 210.639 151.962 199.807 147.854C191.715 144.782 184.591 139.065 178.698 132.732C178.698 132.732 237.076 141.954 273.888 147.836C310.694 153.718 365.803 171.125 385.847 179.384C416.528 192.025 457.956 215.686 474.213 231.503Z" fill="#0061AA"/>
<path d="M608.042 197.358C601.138 197.462 594.306 197.565 587.493 197.657C565.939 197.943 544.64 198.151 522.398 198.041C521.333 196.212 520.054 194.555 518.41 193.208C514.836 190.282 509.77 189.307 505.368 190.684C500.966 192.068 497.362 195.767 496.095 200.205C494.829 204.654 495.815 209.39 496.643 213.943C498.165 222.311 499.274 230.948 499.791 239.603C496.972 240.615 493.849 242.017 490.822 243.614C486.366 239.701 480.185 235.135 474.212 231.503C457.956 215.686 416.528 192.025 385.847 179.384C365.803 171.125 310.694 153.718 273.888 147.836C237.076 141.954 178.697 132.732 178.697 132.732C159.688 128.338 147.444 110.827 132.575 98.1854C104.531 74.3293 89.2847 57.0864 63.1277 43.8235C84.0363 41.0015 106.753 40.6785 127.826 40.5809C178.752 40.3371 225.459 39.4168 277.724 49.7479C283.228 51.6618 288.647 53.6975 293.835 55.843C226.561 46.9381 153.715 45.6642 85.9116 48.4436C112.519 69.5935 128.697 86.6292 149.532 104.671C156.102 110.357 162.818 116.013 170.538 119.987C182.813 126.314 196.89 128.033 210.657 128.984C230.336 130.343 250.081 130.343 269.809 130.343C317.782 130.337 366.729 130.349 414.708 130.343C421.095 133.165 427.08 134.987 430.599 135.451C447.995 137.742 548.361 157.387 580.582 175.867C599.682 186.82 604.632 193.701 608.042 197.358Z" fill="#0077BF"/>
<path d="M277.724 49.7479C225.458 39.4168 178.752 40.3372 127.826 40.581C106.753 40.6785 84.0361 41.0015 63.1275 43.8235C62.7804 43.6468 62.4334 43.47 62.0863 43.2994C55.1087 39.8313 32.5987 28.2811 1.12622 24.4046V19.3031C4.749 19.2177 9.40686 18.8947 12.8287 18.8581C12.4817 20.1381 12.1955 21.4059 11.9824 22.6188C15.6295 22.8931 19.2827 23.0211 22.936 23.0028C23.076 23.0028 23.2221 23.0028 23.3439 22.9296C23.6057 22.7773 23.6057 22.4055 23.5814 22.1068C23.49 20.9305 23.5083 19.7236 23.6362 18.5229C26.2726 18.4559 105.955 16.5054 159.372 23.0881C159.067 23.3868 158.793 23.6854 158.531 23.978C162.915 23.9414 167.482 25.709 171.829 25.1422C171.896 25.0446 171.963 24.9471 172.03 24.8496C173.583 24.6302 175.72 24.8984 177.211 25.1787C179.081 25.5383 180.938 25.8857 182.807 26.2393C182.819 26.2393 182.837 26.2454 182.85 26.2454C187.349 27.1048 192.019 27.8666 196.519 28.7261C196.519 28.7261 239.316 36.3815 277.724 49.7479Z" fill="#0061AA"/>
<path d="M414.708 130.343C366.729 130.349 317.782 130.337 269.809 130.343C250.081 130.343 230.336 130.343 210.657 128.984C196.89 128.033 182.813 126.314 170.538 119.987C162.818 116.014 156.102 110.357 149.532 104.671C128.697 86.6292 112.519 69.5935 85.9116 48.4436C153.715 45.6642 226.561 46.9381 293.835 55.843C304.557 60.2741 314.299 65.1806 321.831 70.5138C349.485 90.0973 364.299 94.693 398.749 121.152C403.498 124.803 409.252 127.942 414.708 130.343Z" fill="#4D90CD"/>
<path d="M630.826 238.853C627.343 233.039 617.954 229.479 606.118 227.663C604.023 221.708 599.743 214.656 595.536 209.682C603.031 209.518 610.216 209.378 616.53 209.286C621.729 215.692 624.92 220.416 627.501 226.121C629.212 229.9 629.852 234.41 630.826 238.853Z" fill="#0061AA"/>
<path d="M606.118 227.663C598.787 226.535 590.525 226.078 582.147 226.164C572.38 226.261 549.353 226.103 533.212 230.266C531.897 223.786 529.899 217.466 527.72 211.212C535.714 211.194 567.765 210.286 595.536 209.682C599.743 214.656 604.023 221.708 606.118 227.663Z" fill="#0061AA"/>
<path d="M300.696 282.22C300.581 280.196 300.435 277.886 300.209 275.345C300.209 275.339 300.209 275.339 300.209 275.332C296.641 264.465 292.605 255.694 285.785 246.46C272.055 227.87 249.649 226.157 241.058 226.566C232.588 226.968 210.492 233.148 199.508 250.678C177.455 285.883 184.524 322.167 209.737 345.566C222.725 357.622 235.127 359.408 252.827 359.883C260.438 360.09 273.407 353.605 276.829 350.802C286.479 342.896 294.906 333.059 300.088 317.48C300.989 305.613 301.324 293.49 300.696 282.22ZM279.678 248.094C288.756 258.303 293.28 269.225 295.472 281.391C295.838 283.402 296.051 285.45 295.892 287.48C286.607 287.529 277.322 287.571 268.037 287.62C267.836 283.987 263.933 280.58 260.925 278.538C265.723 269.329 271.264 260.534 276.798 251.751C277.626 250.428 278.479 249.087 279.678 248.094ZM258.782 289.223C258.045 288.961 257.363 288.559 256.773 288.041C256.468 287.779 256.182 287.474 256.024 287.102C255.859 286.694 255.853 286.243 255.896 285.804C255.975 284.981 256.231 284.158 256.73 283.494C257.229 282.835 257.996 282.354 258.818 282.305C259.372 282.519 260.621 282.927 261.12 283.238C261.436 283.427 261.747 283.64 261.978 283.933C262.386 284.457 262.478 285.17 262.447 285.84C262.411 286.572 262.24 287.303 261.948 287.98C261.753 288.443 261.485 288.894 261.065 289.168C260.401 289.601 259.525 289.491 258.782 289.223ZM260.292 303.918C260.03 304.936 259.531 305.893 258.849 306.692C258.666 306.905 258.465 307.112 258.222 307.24C257.899 307.405 257.521 307.435 257.162 307.411C256.024 307.35 254.922 306.832 254.106 306.027C253.807 305.729 253.533 305.381 253.412 304.973C253.32 304.686 253.308 304.382 253.314 304.083C253.351 302.931 253.728 301.785 254.386 300.834C254.928 300.048 255.835 299.347 256.76 299.585C257.869 299.975 259.238 300.859 259.914 301.822C260.134 302.132 260.328 302.48 260.383 302.858C260.444 303.211 260.377 303.571 260.292 303.918ZM264.353 235.422C264.517 235.337 264.712 235.385 264.889 235.434C268.012 236.312 270.941 237.884 273.395 240.005C273.614 240.188 273.839 240.408 273.882 240.694C273.912 240.944 273.79 241.182 273.675 241.407C268.932 250.398 264.189 259.388 259.354 268.323C258.794 269.371 258.222 270.42 257.82 271.535C257.601 272.139 257.412 272.791 256.937 273.23C256.468 273.668 255.597 273.748 255.25 273.205L255.019 272.541C255.183 259.82 258.301 247.143 264.049 235.794C264.122 235.647 264.207 235.489 264.353 235.422ZM257.467 233.283C251.433 243.766 248.157 255.816 248.047 267.915C248.047 268.11 248.035 268.329 247.895 268.469C247.792 268.567 247.646 268.603 247.506 268.634C245.21 269.109 242.921 269.591 240.625 270.066L240.985 269.743C232.132 260.912 223.985 249.361 218.828 237.964C229.714 230.253 250.27 230.448 257.467 233.283ZM237.885 292.38C237.745 293.081 237.471 293.788 236.923 294.245C236.107 294.934 234.902 294.904 233.855 294.672C233.203 294.526 232.546 294.306 232.059 293.849C231.291 293.136 231.103 291.99 231.163 290.942C231.218 289.961 231.462 288.973 231.992 288.144C232.521 287.315 233.349 286.651 234.311 286.45C236.369 286.45 236.929 288.041 237.459 289.052C237.989 290.058 238.098 291.259 237.885 292.38ZM209.914 244.79C210.036 244.668 210.17 244.54 210.34 244.528C210.535 244.516 210.699 244.668 210.833 244.814C214.572 248.801 216.77 253.957 219.863 258.461C221.123 260.302 222.536 262.039 224.015 263.715C227.413 267.58 231.151 271.133 235.17 274.339C235.31 274.449 235.462 274.577 235.493 274.753C235.523 274.948 235.401 275.125 235.292 275.284C234.719 276.07 234.141 276.856 233.568 277.642C233.428 277.844 233.264 278.051 233.027 278.118C232.74 278.203 232.436 278.045 232.18 277.892C230.287 276.777 228.393 275.662 226.5 274.546C224.904 273.614 223.315 272.675 221.793 271.621C214.712 266.696 209.597 259.491 204.629 252.433L204.331 252.445C205.828 249.654 207.716 247.07 209.914 244.79ZM193.249 281.159C194.211 273.973 197.152 267.189 200.775 260.912C202.059 261.777 203.003 263.045 204.063 264.172C206.078 266.306 208.52 267.982 210.815 269.804C216.325 274.18 221.093 279.514 227.035 283.28C227.358 283.488 227.705 283.707 227.876 284.048C228.034 284.378 228.01 284.768 227.979 285.133C227.821 287.139 227.656 289.144 227.498 291.149C227.48 291.411 227.455 291.679 227.321 291.905C227.151 292.204 226.828 292.38 226.524 292.539C216.039 297.909 205.737 299.883 193.986 306.253C192.537 302.285 192.64 285.706 193.249 281.159ZM201.055 323.508C200.909 323.471 200.811 323.349 200.72 323.234C199.143 321.173 197.773 318.949 196.647 316.608C195.989 315.237 195.405 313.762 195.52 312.25L195.508 312.049C206.492 306.429 218.048 301.937 229.934 298.652C230.037 298.628 230.147 298.597 230.238 298.652C230.329 298.713 230.36 298.835 230.372 298.939C230.609 300.389 230.847 301.834 231.09 303.284C231.121 303.504 231.157 303.729 231.078 303.937C230.944 304.278 230.561 304.436 230.214 304.558C226.731 305.82 223.613 307.898 220.533 309.959C217.921 311.702 215.315 313.445 212.794 315.31C209.068 318.065 205.524 321.094 201.493 323.386C201.359 323.459 201.207 323.538 201.055 323.508ZM238.519 351.076C234.116 351.911 226.019 346.681 219.82 342.799C214.84 339.672 208.227 333.382 206.803 329.444L206.827 328.871C215.223 323.002 223.613 317.126 232.01 311.251C232.686 310.781 233.489 310.288 234.281 310.525C234.829 310.69 238.86 314.03 240.851 314.262C239.091 326.446 238.312 338.764 238.519 351.076ZM244.51 307.271C244.248 308.154 243.682 308.965 242.866 309.404C242.014 309.861 240.942 309.855 240.053 309.465C239.164 309.075 238.458 308.325 238.038 307.447C237.514 306.362 237.429 305.07 237.794 303.924C238.086 303.028 238.762 302.145 239.7 302.065C241.058 301.943 242.726 301.822 243.682 302.791C244.23 303.345 244.449 303.772 244.589 304.534C244.753 305.442 244.778 306.393 244.51 307.271ZM243.578 281.22C242.921 280.983 242.269 280.605 241.959 279.983C241.66 279.38 241.74 278.666 241.855 278.008C242.014 277.1 242.348 276.247 242.829 275.46C243.524 274.321 244.662 273.632 245.521 273.955C246.574 274.028 247.761 274.351 248.23 275.302C248.437 275.723 248.468 276.216 248.449 276.686C248.413 277.557 248.23 278.417 247.901 279.221C247.554 280.08 246.994 280.916 246.148 281.287C245.344 281.641 244.406 281.519 243.578 281.22ZM257.4 350.338C257.333 350.6 257.138 350.814 256.925 350.978C255.938 351.765 254.593 351.85 253.339 351.886C251.731 351.935 250.124 351.953 248.516 351.935C248.346 351.935 248.169 351.935 248.023 351.85C247.719 351.673 247.682 351.265 247.676 350.917C247.463 338.55 244.157 326.19 245.843 313.939L246.093 313.932C247.499 313.945 248.912 313.951 250.319 313.963C251.366 326.007 253.71 337.941 257.296 349.491C257.381 349.765 257.467 350.058 257.4 350.338ZM292.739 318.583C289.98 325.385 285.389 331.279 280.537 336.789C275.982 341.964 270.959 347.017 264.621 349.711C261.229 338.8 258.459 324.983 257.388 313.603C257.357 313.311 261.12 309.05 262.715 307.514C262.91 307.325 263.129 307.124 263.403 307.1C263.586 307.076 263.768 307.136 263.945 307.197C273.322 310.477 282.692 313.75 292.069 317.023C292.367 317.126 292.684 317.254 292.83 317.529C293.006 317.846 292.879 318.242 292.739 318.583ZM296.258 310.647C287.009 306.917 276.786 306.058 267.592 302.199C267.294 302.071 266.977 301.931 266.801 301.657C266.636 301.395 266.63 301.06 266.63 300.743C266.63 298.798 266.63 296.86 266.636 294.916L266.746 294.087C270.369 293.66 274.016 294.447 277.596 295.147C284.513 296.513 291.484 297.598 298.492 298.402C298.73 302.583 297.957 306.82 296.258 310.647Z" fill="#4D90CD"/>
<path d="M262.447 285.84C262.411 286.572 262.24 287.303 261.948 287.98C261.753 288.443 261.485 288.894 261.065 289.168C260.402 289.601 259.525 289.491 258.782 289.223C258.045 288.961 257.363 288.559 256.773 288.041C256.468 287.779 256.182 287.474 256.024 287.102C255.859 286.694 255.853 286.243 255.896 285.804C255.975 284.981 256.231 284.158 256.73 283.494C257.229 282.835 257.996 282.354 258.818 282.305C259.373 282.519 260.621 282.927 261.12 283.238C261.437 283.427 261.747 283.64 261.978 283.933C262.386 284.457 262.478 285.17 262.447 285.84Z" fill="#0061AA"/>
<path d="M260.292 303.918C260.03 304.936 259.531 305.893 258.849 306.692C258.666 306.905 258.465 307.112 258.222 307.24C257.899 307.405 257.521 307.435 257.162 307.411C256.024 307.35 254.921 306.832 254.106 306.027C253.807 305.729 253.533 305.381 253.411 304.973C253.32 304.686 253.308 304.382 253.314 304.083C253.351 302.931 253.728 301.785 254.386 300.834C254.928 300.048 255.835 299.347 256.76 299.585C257.868 299.975 259.238 300.859 259.914 301.822C260.133 302.132 260.328 302.48 260.383 302.858C260.444 303.211 260.377 303.571 260.292 303.918Z" fill="#0061AA"/>
<path d="M244.51 307.271C244.248 308.154 243.682 308.965 242.866 309.404C242.014 309.861 240.942 309.855 240.053 309.465C239.164 309.075 238.458 308.325 238.038 307.447C237.514 306.362 237.429 305.07 237.794 303.924C238.087 303.028 238.762 302.145 239.7 302.065C241.058 301.943 242.726 301.822 243.682 302.791C244.23 303.345 244.449 303.772 244.589 304.534C244.754 305.442 244.778 306.393 244.51 307.271Z" fill="#0061AA"/>
<path d="M237.886 292.38C237.746 293.081 237.472 293.788 236.924 294.245C236.108 294.934 234.902 294.904 233.855 294.672C233.204 294.526 232.546 294.306 232.059 293.849C231.292 293.136 231.103 291.99 231.164 290.942C231.219 289.961 231.462 288.973 231.992 288.144C232.522 287.315 233.35 286.651 234.312 286.45C236.37 286.45 236.93 288.041 237.46 289.052C237.989 290.058 238.099 291.259 237.886 292.38Z" fill="#0061AA"/>
<path d="M248.449 276.686C248.413 277.557 248.23 278.417 247.901 279.221C247.554 280.08 246.994 280.915 246.148 281.287C245.344 281.641 244.407 281.519 243.578 281.22C242.921 280.983 242.269 280.605 241.959 279.983C241.661 279.38 241.74 278.666 241.855 278.008C242.014 277.1 242.349 276.247 242.83 275.46C243.524 274.321 244.662 273.632 245.521 273.955C246.574 274.028 247.761 274.351 248.23 275.302C248.437 275.723 248.468 276.216 248.449 276.686Z" fill="#0061AA"/>
<path d="M296.258 310.647C287.009 306.917 276.786 306.058 267.592 302.199C267.294 302.071 266.977 301.931 266.801 301.657C266.636 301.395 266.63 301.06 266.63 300.743C266.63 298.798 266.63 296.86 266.636 294.916L266.746 294.087C270.369 293.66 274.016 294.447 277.596 295.147C284.513 296.513 291.484 297.598 298.493 298.402C298.73 302.583 297.957 306.82 296.258 310.647Z" fill="#004E86"/>
<path d="M292.739 318.583C289.98 325.385 285.39 331.279 280.537 336.789C275.983 341.964 270.959 347.017 264.621 349.711C261.23 338.8 258.459 324.983 257.388 313.603C257.357 313.311 261.12 309.05 262.715 307.514C262.91 307.325 263.129 307.124 263.403 307.1C263.586 307.076 263.769 307.136 263.945 307.197C273.322 310.477 282.692 313.75 292.069 317.023C292.367 317.126 292.684 317.254 292.83 317.529C293.007 317.846 292.879 318.242 292.739 318.583Z" fill="#004E86"/>
<path d="M231.078 303.937C230.944 304.278 230.561 304.436 230.214 304.558C226.731 305.82 223.614 307.898 220.533 309.958C217.921 311.702 215.315 313.445 212.794 315.31C209.068 318.065 205.524 321.094 201.493 323.386C201.359 323.459 201.207 323.538 201.055 323.508C200.909 323.471 200.811 323.349 200.72 323.234C199.143 321.173 197.773 318.949 196.647 316.608C195.989 315.237 195.405 313.762 195.52 312.25L195.508 312.049C206.492 306.429 218.049 301.937 229.934 298.652C230.037 298.628 230.147 298.597 230.238 298.652C230.329 298.713 230.36 298.835 230.372 298.939C230.61 300.389 230.847 301.834 231.091 303.284C231.121 303.504 231.157 303.729 231.078 303.937Z" fill="#004E86"/>
<path d="M257.4 350.338C257.333 350.6 257.138 350.814 256.925 350.978C255.939 351.765 254.593 351.85 253.339 351.886C251.731 351.935 250.124 351.953 248.516 351.935C248.346 351.935 248.169 351.935 248.023 351.85C247.719 351.673 247.682 351.265 247.676 350.917C247.463 338.55 244.157 326.19 245.844 313.939L246.093 313.932C247.5 313.945 248.912 313.951 250.319 313.963C251.366 326.007 253.71 337.941 257.296 349.491C257.382 349.765 257.467 350.058 257.4 350.338Z" fill="#004E86"/>
<path d="M238.519 351.076C234.117 351.911 226.019 346.681 219.821 342.799C214.84 339.672 208.228 333.382 206.803 329.444L206.827 328.872C215.224 323.002 223.614 317.126 232.01 311.251C232.686 310.781 233.49 310.288 234.281 310.525C234.829 310.69 238.86 314.03 240.851 314.262C239.091 326.446 238.312 338.764 238.519 351.076Z" fill="#004E86"/>
<path d="M227.979 285.133C227.821 287.139 227.657 289.144 227.498 291.149C227.48 291.411 227.456 291.679 227.322 291.905C227.151 292.204 226.828 292.38 226.524 292.539C216.039 297.909 205.737 299.883 193.986 306.253C192.537 302.285 192.64 285.706 193.249 281.159C194.211 273.973 197.152 267.189 200.775 260.911C202.06 261.777 203.003 263.045 204.063 264.172C206.078 266.306 208.52 267.982 210.815 269.804C216.325 274.18 221.093 279.514 227.036 283.28C227.358 283.488 227.705 283.707 227.876 284.048C228.034 284.377 228.01 284.768 227.979 285.133Z" fill="#004E86"/>
<path d="M235.493 274.753C235.523 274.948 235.401 275.125 235.292 275.284C234.72 276.07 234.141 276.856 233.569 277.642C233.429 277.844 233.264 278.051 233.027 278.118C232.741 278.203 232.436 278.045 232.181 277.892C230.287 276.777 228.393 275.662 226.5 274.546C224.905 273.614 223.315 272.675 221.793 271.621C214.712 266.696 209.598 259.491 204.629 252.433L204.331 252.445C205.829 249.654 207.716 247.07 209.914 244.79C210.036 244.668 210.17 244.54 210.34 244.528C210.535 244.516 210.7 244.668 210.834 244.814C214.572 248.801 216.77 253.957 219.863 258.461C221.123 260.302 222.536 262.039 224.016 263.715C227.413 267.58 231.152 271.133 235.17 274.339C235.31 274.449 235.462 274.577 235.493 274.753Z" fill="#004E86"/>
<path d="M295.893 287.48C286.608 287.529 277.322 287.571 268.037 287.62C267.836 283.987 263.933 280.58 260.926 278.538C265.723 269.329 271.264 260.534 276.799 251.751C277.627 250.428 278.479 249.087 279.679 248.094C288.757 258.303 293.281 269.225 295.473 281.391C295.838 283.402 296.051 285.45 295.893 287.48Z" fill="#004E86"/>
<path d="M273.882 240.694C273.913 240.944 273.791 241.182 273.675 241.407C268.932 250.398 264.189 259.388 259.354 268.323C258.794 269.371 258.222 270.42 257.82 271.535C257.601 272.139 257.412 272.791 256.937 273.23C256.468 273.668 255.598 273.748 255.251 273.205L255.019 272.541C255.184 259.82 258.301 247.143 264.049 235.794C264.122 235.647 264.207 235.489 264.353 235.422C264.518 235.337 264.713 235.385 264.889 235.434C268.013 236.312 270.941 237.884 273.395 240.005C273.614 240.188 273.84 240.408 273.882 240.694Z" fill="#004E86"/>
<path d="M257.467 233.283C251.433 243.766 248.157 255.816 248.048 267.915C248.048 268.11 248.036 268.329 247.896 268.469C247.792 268.567 247.646 268.603 247.506 268.634C245.21 269.109 242.921 269.591 240.626 270.066L240.985 269.743C232.132 260.911 223.985 249.361 218.828 237.964C229.715 230.253 250.27 230.448 257.467 233.283Z" fill="#004E86"/>
<path d="M499.584 263.892H499.578C489.27 263.636 478.694 263.386 467.959 263.13C471.826 258.62 476.441 253.549 481.02 249.879C483.693 247.74 487.188 245.54 490.823 243.614C493.849 242.017 496.972 240.615 499.791 239.603C500.284 247.746 500.26 255.914 499.584 263.892Z" fill="#004E86"/>
<path d="M500.047 289.644C499.724 294.599 499.481 299.731 498.933 304.918C495.657 305.29 492.296 304.875 489.112 304.558C486.213 304.278 483.291 303.851 480.6 302.73C476.952 301.212 474.085 299.408 471.156 296.757C469.104 294.891 466.65 291.472 465.512 288.821C477.232 289.095 488.795 289.369 500.047 289.644Z" fill="#004E86"/>
<path d="M280.805 220.007C265.272 206.988 239.718 200.887 213.129 214.473C203.831 219.227 191.995 227.803 185.967 236.33C172.846 254.896 165.819 269.353 168.377 299.816C165.935 288.778 164.876 277.508 165.765 266.239C167.591 243.205 178.447 220.172 197.651 207.36C223.364 190.209 251.165 198.486 263.452 205.404C270.502 209.372 276.201 214.394 280.805 220.007Z" fill="#004E86"/>
<path d="M314.828 340.092C309.282 356.488 293.664 377.528 256.858 380.021C243.828 380.899 226.853 378.053 217.007 374.085C196.823 365.954 185.912 356.354 175.945 332.803C177.248 332.986 178.533 333.168 179.805 333.345C174.947 322.606 170.916 311.348 168.377 299.835V299.816C165.82 269.353 172.846 254.896 185.967 236.33C191.995 227.803 203.831 219.227 213.129 214.473C239.718 200.887 265.272 206.988 280.805 220.007C280.805 220.007 280.811 220.014 280.817 220.02C289.737 230.887 294.583 243.973 297.281 255.926C298.882 263.026 299.728 269.725 300.209 275.332C296.641 264.465 292.605 255.694 285.785 246.46C272.055 227.87 249.649 226.157 241.058 226.566C232.588 226.968 210.492 233.148 199.508 250.678C177.455 285.883 184.524 322.167 209.737 345.566C222.725 357.622 235.127 359.408 252.827 359.883C260.438 360.09 273.407 353.605 276.829 350.802C286.479 342.896 294.906 333.059 300.088 317.48C299.564 324.422 298.846 331.279 298.011 337.825C303.284 338.648 308.91 339.404 314.828 340.092Z" fill="#0061AA"/>
<path d="M128.989 128.344H128.959C127.814 128.344 126.742 128.332 125.719 128.301C125.263 128.289 124.812 128.277 124.374 128.258C123.6 128.228 122.852 128.191 122.115 128.149C121.89 128.137 121.658 128.118 121.433 128.106C120.976 128.076 120.526 128.045 120.075 128.015C119.631 127.978 119.186 127.948 118.736 127.911C118.516 127.893 118.291 127.874 118.066 127.856C117.621 127.814 117.177 127.777 116.72 127.74C116.495 127.716 116.27 127.698 116.044 127.679C115.728 127.649 115.411 127.618 115.088 127.594C114.126 127.503 113.134 127.411 112.093 127.326C111.837 127.302 111.575 127.277 111.313 127.259C110.534 127.192 109.718 127.125 108.866 127.064C108.586 127.039 108.293 127.021 108.001 127.003C107.782 126.985 107.563 126.972 107.338 126.954C106.662 126.905 105.961 126.863 105.237 126.82C105.152 126.814 105.06 126.808 104.969 126.802C102.893 121.926 99.3918 117.799 95.9273 113.783C92.2924 109.559 88.4017 105.201 83.1837 103.257C82.6113 103.043 82.0329 102.866 81.4484 102.72C81.2535 102.665 81.0648 102.617 80.87 102.58C80.6751 102.525 80.4864 102.489 80.2915 102.452C80.0967 102.409 79.9018 102.373 79.7009 102.342C79.5061 102.306 79.3112 102.275 79.1164 102.251C78.9459 102.22 78.7754 102.196 78.5989 102.178C78.3797 102.147 78.1544 102.123 77.9291 102.098C77.6977 102.074 77.4603 102.05 77.2289 102.037C77.0645 102.019 76.9001 102.007 76.7357 102.001C76.1329 101.958 75.5363 101.934 74.9335 101.922C74.7326 101.916 74.5377 101.916 74.3368 101.916C73.6 101.903 72.8633 101.916 72.1266 101.928C68.2785 102.001 64.4244 102.251 60.5946 102.671C59.8761 102.751 59.1576 102.836 58.4392 102.921C57.7268 103.013 57.0083 103.11 56.2899 103.208C55.6932 103.293 55.1026 103.385 54.5059 103.476C53.3186 103.659 52.1313 103.866 50.944 104.085C50.3534 104.195 49.7628 104.305 49.1722 104.427C44.0211 105.451 38.7422 106.889 34.7541 110.308C31.4845 113.112 29.3534 117.586 29.9014 121.731H29.871C27.6791 121.597 24.1232 121.255 19.8916 120.792C19.6176 120.762 19.3375 120.731 19.0574 120.701C18.7835 120.67 18.5095 120.64 18.2355 120.609C17.9676 120.579 17.6997 120.548 17.4318 120.518C16.2445 120.384 15.0146 120.237 13.7542 120.091C13.1271 120.018 12.4938 119.939 11.8545 119.866C11.2091 119.786 10.5698 119.707 9.91831 119.628C8.62141 119.469 7.31234 119.299 5.99718 119.134C4.68811 118.97 3.37295 118.799 2.06997 118.622H2.04561C1.74118 118.579 1.43066 118.537 1.12622 118.494V38.3014C4.09142 38.722 7.52545 39.2644 11.1726 39.9288C12.5425 40.1726 13.9369 40.4408 15.3494 40.7272C15.8243 40.8187 16.2993 40.9162 16.7803 41.0198C17.724 41.2148 18.68 41.4221 19.6359 41.6354C22.0348 42.1718 24.452 42.7569 26.8205 43.403C32.9701 45.073 38.8031 47.1149 43.2722 49.5834C59.0359 58.2871 72.8694 70.0384 86.5385 81.7531C91.4582 85.9709 125.251 119.61 128.989 128.344Z" fill="#4D90CD"/>
</svg>
