<svg width="639" height="452" viewBox="0 0 639 452" fill="none" xmlns="http://www.w3.org/2000/svg">
<rect width="639" height="452" fill="#E6F4FC"/>
<g clip-path="url(#clip0)">
<path d="M67.6604 66.9064C122.809 68.2354 169.183 65.3222 226.233 66.1495C337.877 67.7601 458.429 64.0988 570.02 68.1386C571.375 170.066 572 281.27 572 383.744C498.325 386.102 405.295 386.217 331.576 385.39C233.151 384.281 165.451 389.156 72.6859 384.483C71.3217 384.413 69.8167 384.281 68.8662 383.295C67.8716 382.265 67.8452 380.663 67.8716 379.237C70.2304 273.921 65.3017 172.223 67.6604 66.9064Z" fill="#AADBF6"/>
<path d="M536.918 90.4764C530.15 90.4764 520.486 91.2949 513.868 90.9428C501.326 90.2828 491.063 90.7844 478.495 90.7844C473.734 90.7844 468.972 90.7844 464.211 90.7844C462.257 90.7844 459.15 90.2828 457.399 91.0485C457.363 97.5438 457.046 118.2 457.407 125.268C458.103 139.121 458.331 152.992 458.587 166.863C458.631 169.045 458.235 169.459 460.497 169.644C462.318 169.785 482.077 170.163 489.928 170.163C500.032 170.163 510.118 169.204 520.187 169.23C523.963 169.239 527.774 169.353 531.541 169.177C534.991 169.019 537.297 169.89 537.2 166C536.804 149.955 537.305 151.223 536.636 132.819C536.346 124.749 536.293 93.7241 536.927 91.2421" fill="white"/>
<path d="M360.567 85.178C359.493 121.967 358.798 158.766 358.49 195.572C358.181 232.186 358.261 268.808 358.718 305.421C358.974 326.078 359.361 346.726 359.863 367.382C359.889 368.509 361.649 368.518 361.623 367.382C360.725 330.584 360.215 293.786 360.091 256.979C359.968 220.366 360.232 183.744 360.875 147.13C361.235 126.474 361.72 105.826 362.327 85.178C362.362 84.0426 360.602 84.0426 360.567 85.178Z" fill="#4D90CD"/>
<path d="M91.3004 112.752C93.8088 112.752 96.2908 112.304 98.5791 111.256C99.3096 110.922 102.945 108.123 101.255 107.472C99.2304 106.697 96.37 113.712 96.0707 114.372C93.5536 120.04 91.1068 126.034 89.7866 132.098" stroke="#0061AA" stroke-width="1.5" stroke-miterlimit="10" stroke-linecap="round" stroke-linejoin="round"/>
<path d="M108.885 108.105C109.053 109.602 107.909 111.529 107.38 112.902C106.668 114.75 105.884 116.572 105.277 118.456C103.842 122.856 102.663 127.503 100.964 131.807C101.695 129.827 101.906 128.146 100.735 126.28C99.7409 124.696 98.5704 122.671 96.9421 121.651C95.4459 120.718 91.6702 120.005 90.4908 121.659C88.2377 124.81 97.6902 125.048 98.8168 125.057C101.501 125.074 104.37 125.083 106.949 124.238C109.088 123.543 112.52 122.24 113.128 119.776C111.552 118.024 108.489 121.07 107.724 122.346C106.826 123.833 105.708 128.401 107.38 129.686C108.621 130.637 111.394 129.73 112.538 129.088C114.087 128.207 115.75 126.755 116.692 125.259C117.898 123.34 118.268 120.999 119.447 119.081C118.664 120.788 116.305 125.708 117.687 127.495C118.928 129.105 121.973 126.465 122.836 125.435C124.2 123.807 124.957 121.888 126.11 120.145C126.69 121.21 125.546 123.068 125.229 124.141C124.341 127.16 123.249 130.17 122.131 133.11C120.6 137.15 119.447 142.325 115.847 145.071C113.682 146.725 107.926 149.119 105.664 146.303C104.511 144.868 104.802 141.682 105.497 140.124" stroke="#0061AA" stroke-width="1.5" stroke-miterlimit="10" stroke-linecap="round" stroke-linejoin="round"/>
<path d="M146.423 106.178C146.652 111.52 144.012 117.197 142.762 122.328C141.926 125.743 141.125 129.176 140.262 132.573C140.28 131.455 140.958 130.461 141.239 129.396C141.688 127.715 141.908 126.095 142.515 124.441C144.188 119.899 145.939 113.668 149.688 110.341C151.475 108.748 154.494 108.105 154.89 111.001C155.356 114.425 152.566 118.42 149.151 119.221C147.418 116.273 153.587 116.722 154.784 117.391C157.073 118.658 157.733 121.122 157.838 123.578C157.997 127.327 156.668 129.369 153.552 131.473C152.241 132.362 148.007 134.553 146.678 132.467C145.508 130.637 148.166 128.621 149.336 127.697C155.11 123.147 161.737 121.263 168.629 124.397C168.532 122.346 164.563 123.965 163.858 124.564C162.125 126.025 159.748 129.994 161.376 132.265C163.471 135.187 168.074 127.081 168.171 125.048C168.338 126.65 166.428 135.671 170.811 132.476C173.408 130.584 175.564 126.79 176.964 123.983C178.011 121.897 178.829 119.855 179.269 117.549C179.542 116.106 180.396 113.008 179.666 111.547C178.433 109.082 176.374 113.175 175.802 114.187C173.725 117.875 172.66 122.258 173.936 126.438C174.587 128.586 176.744 131.763 179.498 130.769C181.399 130.082 181.461 126.755 179.886 125.814C181.408 127.336 185.774 124.344 186.953 123.112C186.979 124.854 184.321 129.616 186.953 130.399C190.121 131.341 192.691 126.597 193.484 124.379C191.574 130.628 189.136 138.1 183.82 142.342C182.605 143.31 180.44 144.666 178.777 144.419C176.62 144.111 176.664 141.48 176.374 139.799" stroke="#0061AA" stroke-width="1.5" stroke-miterlimit="10" stroke-linecap="round" stroke-linejoin="round"/>
<path d="M94.5833 181.182C93.888 181.182 91.2476 180.751 90.6931 181.191C90.1122 181.64 90.5083 184.263 90.5083 184.993C90.4995 186.234 90.4203 186.921 91.6525 187.238C92.4622 187.449 94.1696 187.414 94.9441 187.22C97.0828 186.683 98.7023 184.157 99.7232 182.432C101.395 179.616 103.332 175.99 103.543 172.628C103.657 170.779 103.358 169.38 101.668 171.079C100.251 172.504 99.3184 174.361 98.9311 176.333C98.447 178.753 97.8222 182.723 99.3976 184.923C100.973 187.114 103.895 187.202 106.175 186.182" stroke="#0061AA" stroke-width="1.5" stroke-miterlimit="10" stroke-linecap="round" stroke-linejoin="round"/>
<path d="M123.997 178.234C120.265 175.62 117.22 179.114 116.305 182.555C115.698 184.853 115.689 186.657 118.382 186.507C121.04 186.366 122.651 184.509 124.736 182.978C126.268 181.851 127.694 180.249 129.34 179.317C130.088 178.894 131.153 178.621 131.998 178.727C132.71 178.815 133.335 179.343 134.004 179.352C133.511 177.961 130.765 178.489 129.832 178.92C127.606 179.968 126.33 182.309 126.162 184.668C126.021 186.657 127.412 187.158 129.234 186.437C131.778 185.425 132.182 182.388 133.555 180.329C133.001 181.842 131.54 186.938 135.131 186.023C136.31 185.724 137.102 183.972 137.692 183.022C138.484 181.746 139.091 180.329 139.989 179.114C139.487 180.654 137.604 184.148 138.387 185.548C139.98 183.647 141.063 179.739 144.064 179.484C144.821 181.13 142.401 190.072 146.493 186.498" stroke="#0061AA" stroke-width="1.5" stroke-miterlimit="10" stroke-linecap="round" stroke-linejoin="round"/>
<path d="M148.377 171.281C148.482 172.513 147.585 173.886 146.836 174.81" stroke="#0061AA" stroke-width="1.5" stroke-miterlimit="10" stroke-linecap="round" stroke-linejoin="round"/>
<path d="M154.89 169.406C155.075 171.272 154.001 173.587 153.534 175.391C153.006 177.442 152.689 179.519 152.408 181.605C152.302 182.397 151.669 184.826 152.117 185.609C153.385 187.81 156.184 183.814 156.756 182.978" stroke="#0061AA" stroke-width="1.5" stroke-miterlimit="10" stroke-linecap="round" stroke-linejoin="round"/>
<path d="M147.831 178.12C149.53 176.896 152.478 175.858 154.67 176.262C156.36 176.571 157.856 177.248 159.634 176.791" stroke="#0061AA" stroke-width="1.5" stroke-miterlimit="10" stroke-linecap="round" stroke-linejoin="round"/>
<path d="M216.103 177.046C215.46 179.625 212.582 185.222 215.751 186.956C219.667 189.095 222.457 181.411 223.293 179.141C223.504 180.408 222.431 181.939 222.167 183.18C221.999 183.972 221.304 187.264 222.633 187.493C223.619 187.66 224.719 187.731 225.124 187.176C226.347 185.486 227.403 183.682 228.486 181.913C229.093 180.918 229.569 179.704 230.413 178.885C230.528 180.654 229.34 182.969 228.952 184.685C228.768 185.521 228.451 186.507 228.521 187.379C229.516 185.724 229.85 183.876 231.294 182.494C231.663 182.142 233.705 180.249 234.444 180.822C234.964 181.218 234.629 183.11 234.629 183.62C234.629 184.465 234.26 186.842 234.788 187.59C236.205 189.614 238.643 184.333 238.933 183.691C240.984 179.273 241.846 174.265 243.211 169.618C242.744 171.07 242.515 172.733 242.198 174.229C241.653 176.799 241.054 180.205 241.336 182.872C241.45 183.999 242.172 185.372 243.475 185.477C245.816 185.68 246.722 181.306 248.06 180.17C248.236 182.503 246.925 188.866 251.158 185.099C253.71 182.828 255.039 179.246 256.052 176.069C256.544 174.511 258.12 169.811 256.492 168.5C255.541 168.729 255.075 170.181 254.731 170.964C253.394 174.062 252.645 177.398 252.364 180.76C252.267 181.887 251.862 188.417 254.863 187.194" stroke="#0061AA" stroke-width="1.5" stroke-miterlimit="10" stroke-linecap="round" stroke-linejoin="round"/>
<path d="M235.236 175.682C235.492 174.256 237.938 173.112 239.276 172.971C240.544 172.839 241.212 173.587 242.154 174.335C244.31 176.042 246.748 176.993 248.87 174.881" stroke="#0061AA" stroke-width="1.5" stroke-miterlimit="10" stroke-linecap="round" stroke-linejoin="round"/>
<path d="M248.209 178.859C249.345 178.859 249.345 177.099 248.209 177.099C247.074 177.099 247.074 178.859 248.209 178.859Z" fill="#0061AA"/>
<path d="M168.021 179.66C168.056 181.024 165.97 186.736 167.299 187.704C168.901 188.875 172.598 183.022 173.663 182.203C174.34 183.84 171.682 189.614 175.088 188.1C178.415 186.622 179.207 181.358 180.51 178.296C180.774 180.1 179.771 182.08 182.71 181.684C185.28 181.341 186.847 178.34 189.716 178.516C187.569 178.111 186.592 178.938 185.588 180.707C184.911 181.904 182.957 185.24 184.057 186.472C186.196 188.866 189.725 182.089 190.403 180.98C190.13 182.538 188.123 186.982 191.063 186.912C193.43 186.85 194.935 182.52 195.622 180.742C196.027 182.388 193.765 185.909 196.669 186.428C198.685 186.789 199.794 183.735 200.507 182.353C202.733 178.023 203.402 172.944 205.761 168.72C204.177 172.32 202.117 175.418 201.774 179.44C201.712 180.179 201.158 187.977 204.045 185.442" stroke="#0061AA" stroke-width="1.5" stroke-miterlimit="10" stroke-linecap="round" stroke-linejoin="round"/>
<path d="M196.203 175.127C198.544 174.467 200.066 175.074 202.188 175.717C203.886 176.227 206.87 176.28 207.944 174.661" stroke="#0061AA" stroke-width="1.5" stroke-miterlimit="10" stroke-linecap="round" stroke-linejoin="round"/>
<path d="M195.886 178.762C197.021 178.762 197.021 177.002 195.886 177.002C194.759 177.002 194.759 178.762 195.886 178.762Z" fill="#0061AA"/>
<path d="M273.258 169.38C273.135 171.246 271.7 173.411 271.155 175.242C270.609 177.055 270.134 178.885 269.764 180.742C269.456 182.283 268.963 184.897 269.834 186.366C270.371 187.282 270.732 186.991 271.551 186.463C272.959 185.557 274.42 184.465 275.617 183.233C278.116 180.681 279.701 176.914 280.722 173.525C280.889 172.98 282.191 168.658 280.546 169.265C279.754 169.556 279.463 171.404 279.261 172.038C278.451 174.581 277.844 177.169 277.219 179.765C276.682 181.992 276.268 184.236 275.802 186.446C276.585 183.189 276.708 178.868 280.167 177.072C282.341 175.937 281.699 178.12 281.487 179.651C281.215 181.658 280.854 188.672 284.471 186.384C287.006 184.791 289.224 180.751 289.215 177.759C289.197 174.185 286.31 177.16 285.73 178.841C284.867 181.35 285.29 182.987 287.516 184.368C290.429 186.182 291.899 183.673 293.422 181.376" stroke="#0061AA" stroke-width="1.5" stroke-miterlimit="10" stroke-linecap="round" stroke-linejoin="round"/>
<path d="M265.751 174.986C265.478 173.736 267.801 172.434 268.761 172.179C270.054 171.827 270.371 172.689 271.278 173.384C272.651 174.432 274.772 175.03 276.057 173.481" stroke="#0061AA" stroke-width="1.5" stroke-miterlimit="10" stroke-linecap="round" stroke-linejoin="round"/>
<path d="M307.917 179.607C306.703 179.651 305.444 179.501 304.379 180.135C303.341 180.76 302.54 181.754 302.232 182.925C301.668 185.029 302.769 187.757 305.004 188.408C307.16 189.033 307.556 188.012 308.595 186.375C310.505 183.365 311.649 179.748 312.547 176.342C312.952 174.801 313.251 173.226 313.33 171.633C313.357 171.105 313.7 169.485 313.216 169.098C311.922 168.068 310.522 172.856 310.135 173.851C308.938 176.931 308.428 180.654 309.299 183.884C309.792 185.689 310.144 188.144 312.397 187.167C314.518 186.252 316.551 173.49 320.908 176.254C320.873 175.787 319.843 175.576 319.429 175.655C318.646 175.805 317.872 176.905 317.475 177.503C316.402 179.114 315.214 183.119 316.736 184.817C318.188 186.428 320.107 184.5 320.794 183.198C321.85 181.2 321.955 178.876 321.876 176.659C321.92 177.899 321.894 179.14 321.938 180.381C321.982 181.429 321.612 183.911 322.325 184.738C324.517 187.299 328.081 177.512 328.671 176.852C328.389 179.202 327.738 181.482 327.896 183.893C327.949 184.729 328.151 185.433 329.093 185.601C330.009 185.759 330.739 185.099 331.267 184.439C332.429 182.995 333.186 181.191 333.987 179.545C334.348 178.806 334.673 177.873 335.219 177.257C334.726 179.378 334.735 182.327 334.638 184.5C334.427 189.544 334.594 191.761 332.235 194.754C330.748 196.646 330.035 196.426 327.518 196.057C325.529 195.766 324.877 194.349 324.191 192.65" stroke="#0061AA" stroke-width="1.5" stroke-miterlimit="10" stroke-linecap="round" stroke-linejoin="round"/>
<path d="M88.3167 213.087C88.3167 215.058 88.1231 217.004 88.1142 218.966C88.1142 219.679 87.8854 220.955 88.2111 221.598C88.9064 222.962 89.9009 221.343 90.429 220.55C91.5291 218.922 92.2685 217.092 93.3774 215.49C93.4654 217.232 93.0078 219.952 94.7064 221.158C98.2885 223.701 98.755 214.865 99.0454 213.342C98.9134 214.689 100.568 214.715 101.563 214.46C102.531 214.214 103.156 213.333 103.798 212.629C105.277 211.001 106.632 209.267 107.724 207.349C108.216 206.486 109.281 204.796 108.199 204.004C106.931 203.08 106.227 204.779 105.946 205.668C104.872 209.1 104.018 212.594 103.437 216.141C103.138 217.998 102.575 220.128 102.575 222.02C103.103 221.202 103.393 219.952 103.719 219.028C104.397 217.1 106.051 213.985 108.269 213.386C110.038 212.911 109.563 214.733 109.642 215.991C109.721 217.162 109.774 219.309 110.522 220.322C111.587 221.756 113.656 220.163 114.694 219.204C116.234 217.778 117.255 215.49 117.396 213.386C117.484 212.066 117.167 210.763 115.689 211.837C114.412 212.761 114.386 215.34 114.65 216.704C114.923 218.13 116.006 220.216 117.625 220.313C119.772 220.445 120.802 218.781 121.594 217.056C122.193 215.763 122.65 214.398 123.187 213.078C123.416 212.524 123.724 211.38 124.261 211.019C124.279 213.518 123.68 216.071 123.883 218.588C124.437 216.581 125.907 213.809 127.826 212.779C128.908 212.198 129.155 212.445 129.251 213.571C129.331 214.469 128.697 224.414 130.044 224.124" stroke="#0061AA" stroke-width="1.5" stroke-miterlimit="10" stroke-linecap="round" stroke-linejoin="round"/>
<path d="M141.459 216.423C141.45 218.72 140.887 218.658 140.878 220.973C140.878 222.029 141.08 223.094 142.304 223.358C144.689 223.869 146.317 219.811 146.951 218.236C147.884 215.921 148.597 213.457 149.01 211.001C149.318 209.179 149.248 209.646 149.389 207.806C149.433 207.278 149.618 206.653 149.134 206.319C148.271 206.97 148.35 209.743 148.209 210.781C147.743 214.108 147.761 215.138 147.761 218.491C147.761 220.014 147.752 221.431 148.852 222.548C149.362 223.068 150.022 223.473 150.744 223.613C151.976 223.851 152.381 223.261 152.962 222.276" stroke="#0061AA" stroke-width="1.5" stroke-miterlimit="10" stroke-linecap="round" stroke-linejoin="round"/>
<path d="M139.206 212.797C139.663 211.397 141.247 211.036 142.497 211.036C143.914 211.036 145.014 211.784 146.352 212.251C149.239 213.272 154.177 213.703 155.752 210.359" stroke="#0061AA" stroke-width="1.5" stroke-miterlimit="10" stroke-linecap="round" stroke-linejoin="round"/>
<path d="M141.635 214.698C142.77 214.698 142.77 212.937 141.635 212.937C140.508 212.937 140.508 214.698 141.635 214.698Z" fill="#0061AA"/>
<path d="M160.531 204.004C160.593 204.567 160.346 205.289 159.941 205.685" stroke="#0061AA" stroke-width="1.5" stroke-miterlimit="10" stroke-linecap="round" stroke-linejoin="round"/>
<path d="M155.743 219.644C157.679 219.01 159.616 217.444 160.971 216.15C161.402 215.736 163.691 212.788 161.79 212.99C159.897 213.193 160.918 217.276 161.006 217.998C161.279 220.392 162.872 225.558 158.806 226.456C156.562 226.949 156.474 224.687 157.53 223.605C159.044 222.064 162.309 220.929 164.729 221.219" stroke="#0061AA" stroke-width="1.5" stroke-miterlimit="10" stroke-linecap="round" stroke-linejoin="round"/>
<path d="M172.844 221.325C174.059 220.929 175.256 221.255 176.514 220.691C177.5 220.26 178.363 219.635 179.172 218.931C180.167 218.069 181.522 216.009 181.681 214.654C181.971 215.428 181.734 217.074 181.54 217.875C180.818 220.894 180.325 223.939 179.269 226.87C178.486 229.044 177.843 232.978 174.833 232.793C174.305 231.2 174.886 229.721 176.004 228.595C177.958 226.623 180.994 224.802 182.966 222.839C185.615 220.207 186.213 217.602 187.595 214.143C187.032 215.736 185.624 220.524 187.666 221.536C189.391 222.399 191.82 220.26 192.77 219.09C193.818 217.796 193.809 216.264 194.311 214.706C193.756 216.071 192.145 220.366 194.592 221.043C196.872 221.677 199.327 219.547 200.595 217.928C201.343 216.977 202.302 215.789 202.241 214.486C202.188 213.342 201.264 212.788 200.375 213.853C199.829 214.504 199.908 215.956 199.935 216.713C200.014 219.31 200.621 222.196 200.251 224.766C200.093 225.858 199.556 226.808 198.456 227.125C197.567 227.38 197.021 227.16 197.013 226.166C196.986 224.194 200.348 223.235 201.642 222.469C204.062 221.043 206.544 219.67 207.75 216.951C209.598 212.779 209.255 208.106 209.651 203.67C209.431 205.738 208.613 207.903 208.261 209.989C207.847 212.453 207.169 215.525 207.592 218.033C207.829 219.424 208.384 221.043 209.854 221.316C211.57 221.642 211.992 220.128 212.274 218.79" stroke="#0061AA" stroke-width="1.5" stroke-miterlimit="10" stroke-linecap="round" stroke-linejoin="round"/>
<path d="M200.462 209.584C202.874 208.581 204.916 208.484 207.451 209.038C209.405 209.461 213.18 210.922 214.782 209.206" stroke="#0061AA" stroke-width="1.5" stroke-miterlimit="10" stroke-linecap="round" stroke-linejoin="round"/>
<path d="M181.971 212.999C183.107 212.999 183.107 211.239 181.971 211.239C180.836 211.239 180.836 212.999 181.971 212.999Z" fill="#0061AA"/>
<path d="M223.98 213.782C224.077 215.226 221.251 222.487 224.499 222.24C227.791 221.994 229.181 216.678 230.933 214.706C230.783 216.775 228.292 221.466 231.707 222.108C235.025 222.724 238.924 218.359 239.884 215.631C240.104 215.014 240.658 213.052 240.174 212.436C238.757 210.623 237.824 214.24 237.736 214.97C237.314 218.253 238.396 221.668 238.863 224.907C239.303 227.97 239.303 227.97 238.986 229.827C238.801 230.91 237.393 231.332 236.284 231.306C234.603 231.262 234.383 230.082 234.242 228.56C233.688 222.628 238.713 223.974 243.633 225.928" stroke="#0061AA" stroke-width="1.5" stroke-miterlimit="10" stroke-linecap="round" stroke-linejoin="round"/>
<path d="M249.274 220.603C249.274 222.76 249.178 224.493 247.91 226.333" stroke="#0061AA" stroke-width="1.5" stroke-miterlimit="10" stroke-linecap="round" stroke-linejoin="round"/>
<path d="M259.572 216.088C259.572 214.9 259.343 213.862 260.699 213.439C262.362 212.92 262.424 214.258 262.459 215.569C262.494 217.197 262.609 218.949 262.397 220.559C262.239 221.756 261.781 222.962 261.544 224.106C262.529 220.612 263.594 216.176 266.578 213.862C267.141 214.777 266.71 216.608 266.569 217.584C266.27 219.574 266.041 221.624 265.654 223.587C266.569 221.765 266.622 219.609 267.599 217.769C268.057 216.907 269.738 214.046 270.908 213.985C272.413 213.897 272.026 218.051 272.026 219.116C272.026 220.471 271.181 224.52 273.663 223.622C276.409 222.636 276.611 218.491 278.011 216.467C278.24 217.637 275.643 225.646 279.437 224.159C282.121 223.103 283.142 218.535 283.837 216.053C284.207 216.854 283.723 218.13 283.679 218.975C283.617 220.119 283.573 221.184 284.066 222.232C285.008 224.221 286.935 224.062 288.52 222.821C290.289 221.439 292.058 219.521 292.507 217.25C292.656 216.511 292.876 214.029 291.688 213.694C289.681 213.122 290.72 215.903 290.984 216.555C292.128 219.398 293.888 222.144 294.337 225.215C294.557 226.72 294.39 227.9 292.612 227.873C291.926 227.864 289.963 226.043 291.389 224.916C292.911 223.71 294.293 222.452 295.816 221.299C297.699 219.864 298.94 217.884 299.988 215.789C299.627 217.215 297.682 225.778 301.299 224.634C302.276 224.326 302.892 222.953 303.42 222.144C304.45 220.533 305.339 218.834 306.307 217.188C307.513 215.138 308.622 213.791 310.857 214.979C309.678 214.266 307.909 213.87 306.668 214.689C304.908 215.851 304.397 219.072 305.233 220.876C306.721 224.097 311.297 223.2 312.987 220.507" stroke="#0061AA" stroke-width="1.5" stroke-miterlimit="10" stroke-linecap="round" stroke-linejoin="round"/>
<path d="M300.419 212.119C301.554 212.119 301.554 210.359 300.419 210.359C299.284 210.359 299.284 212.119 300.419 212.119Z" fill="#0061AA"/>
<path d="M317.291 222.892C317.397 224.045 316.446 225.33 316.244 226.474" stroke="#0061AA" stroke-width="1.5" stroke-miterlimit="10" stroke-linecap="round" stroke-linejoin="round"/>
<path d="M97.4086 252.367C97.0566 251.205 95.2259 251.249 94.2753 251.329C92.1982 251.487 90.7636 253.846 89.8219 255.509C88.8098 257.296 87.956 259.426 90.4644 260.218C91.4501 260.535 92.0574 260.227 92.7967 259.54C94.6626 257.798 96.2028 255.28 96.9949 252.86C97.2062 254.075 94.513 260.315 97.303 260.447C98.4032 260.5 99.3097 259.417 99.8202 258.581C100.727 257.129 101.316 255.412 102.02 253.863C102.355 253.115 102.645 252.086 103.165 251.461C103.173 251.945 102.927 252.297 102.777 252.737C102.452 253.67 102.364 254.664 102.249 255.641C102.091 257.023 102.073 258.493 101.756 259.839C102.584 258.422 103.077 256.865 104.071 255.536C104.582 254.858 107.38 251.258 108.595 251.795C109.326 252.121 109.017 253.987 109.017 254.603C109.017 255.808 109 257.014 109.009 258.229C109.009 258.625 108.912 259.778 109.202 260.156C110.355 261.653 112.415 257.754 112.811 257.041C113.823 255.219 116.164 249.516 118.998 252.006C118.488 251.267 117.581 250.924 116.727 251.223C114.941 251.848 114.281 253.96 114.14 255.65C114.017 257.093 114.853 259.091 116.455 259.294C118.373 259.531 120.037 257.164 120.811 255.738C121.568 254.347 122.017 252.807 122.395 251.276C122.642 250.299 123.689 245.863 123.416 244.807C122.994 243.196 121.85 245.669 121.612 246.259C121.049 247.658 118.426 261.82 121.559 261.388" stroke="#0061AA" stroke-width="1.5" stroke-miterlimit="10" stroke-linecap="round" stroke-linejoin="round"/>
<path d="M138.942 245.74C139.144 248.169 137.375 250.73 136.891 253.124C136.548 254.805 136.187 257.085 136.53 258.836C136.829 260.367 138.361 260.42 139.655 259.672C141.723 258.475 143.21 255.201 144.135 253.133C145.12 250.932 145.243 247.738 146.528 245.784C146.432 247.192 145.921 248.583 145.701 249.982C145.393 251.927 145.393 253.899 145.279 255.861C145.182 257.525 145.006 259.127 144.971 260.79C145.428 258.924 145.508 256.592 146.37 254.867C147.021 253.564 150.031 250.413 150.595 253.036C150.964 254.779 149.935 258.889 151.642 260.13C153.473 261.468 156.553 258.915 157.583 257.709C158.507 256.636 161.165 253.133 160.373 251.513C159.572 249.868 157.389 251.399 156.8 252.508C155.594 254.787 156.219 257.877 158.56 259.126C162.644 261.318 165.055 254.963 167.176 252.385" stroke="#0061AA" stroke-width="1.5" stroke-miterlimit="10" stroke-linecap="round" stroke-linejoin="round"/>
<path d="M171.515 261.019C173.619 261.292 175.942 257.745 176.998 256.301C177.852 255.131 178.609 253.819 179.19 252.49C179.489 251.804 180.387 249.56 179.656 248.908C178.803 248.142 177.658 249.26 177.535 250.123C177.13 252.992 183.018 252.526 184.462 252.578C184.383 253.177 183.582 253.626 183.256 254.127C182.71 254.946 182.376 256.046 182.209 256.997C182.077 257.745 181.716 258.889 182.473 259.417C182.948 259.743 183.907 259.637 184.453 259.567C185.817 259.391 186.583 258.695 187.393 257.648C188.73 255.923 190.121 252.728 192.7 252.807C190.042 251.601 188.141 257.102 190.376 258.581C191.556 259.355 193.615 259.769 194.962 259.338C197.1 258.66 197.567 255.65 197.092 253.723C196.704 252.129 194.61 250.712 193.281 252.261C192.515 253.168 192.999 253.802 194.029 254.039C196.036 254.506 197.224 253.511 198.843 252.631C201.017 251.452 203.367 252.209 205.629 252.684C202.328 250.994 199.468 256.275 200.718 258.959C201.448 260.526 203.543 258.968 204.274 258.185C205.506 256.873 205.805 255.087 206.791 253.643C206.553 255.157 206.377 256.733 206.421 258.255C206.447 259.082 206.527 259.892 207.495 259.866C207.908 259.857 208.172 259.725 208.489 259.452C209.537 258.554 210.294 256.979 211.103 255.861C212.071 254.523 213.004 253.406 214.791 253.362C215.504 253.344 216.182 253.511 216.868 253.67C216.261 252.235 213.128 253.705 212.432 254.092C210.892 254.937 209.845 257.261 210.258 259.065C210.478 260.015 211.359 260.323 212.247 260.332C214.527 260.35 216.146 257.657 217.018 255.932C217.502 254.963 220.538 244.508 218.866 244.138C218.312 244.015 217.396 245.37 217.185 245.687C216.287 247.042 215.777 251.513 215.469 253.089C215.073 255.087 213.832 259.866 216.877 260.429" stroke="#0061AA" stroke-width="1.5" stroke-miterlimit="10" stroke-linecap="round" stroke-linejoin="round"/>
<path d="M221.278 260.526C222.413 260.526 222.413 258.766 221.278 258.766C220.142 258.766 220.142 260.526 221.278 260.526Z" fill="#0061AA"/>
<path d="M131.944 252.332C131.672 251.082 133.995 249.78 134.955 249.524C136.248 249.172 136.565 250.035 137.472 250.73C138.845 251.777 140.966 252.376 142.251 250.827" stroke="#0061AA" stroke-width="1.5" stroke-miterlimit="10" stroke-linecap="round" stroke-linejoin="round"/>
<path d="M193.166 305.157C193.65 299.234 188.818 287.872 180.158 288.039C174.103 288.153 169.596 290.133 168.98 296.277C167.59 310.024 172.246 325.391 174.446 338.963C175.247 343.874 178.38 352.596 178.89 357.481" stroke="#0061AA" stroke-width="1.5" stroke-miterlimit="10" stroke-linecap="round" stroke-linejoin="round"/>
<path d="M188.396 340.398C181.54 345.432 174.384 350.088 167.563 355.342" stroke="#0061AA" stroke-width="1.5" stroke-miterlimit="10" stroke-linecap="round" stroke-linejoin="round"/>
<path d="M186.53 303.811C192.454 300.959 206.712 288.945 214.818 300.915C217.256 304.515 216.534 308.775 214.562 312.885" stroke="#0061AA" stroke-width="1.5" stroke-miterlimit="10" stroke-linecap="round" stroke-linejoin="round"/>
<path d="M197.91 319.908C196.432 319.882 194.495 320.885 194.231 318.958C193.967 317.057 195.965 316.097 197.497 315.675C203.675 313.976 210.663 315.842 213.075 322.311C214.096 325.039 215.02 329.704 213.462 332.468C212.072 334.923 208.727 336.226 206.104 336.305C202.161 336.428 197.065 335.152 193.342 336.983C192.726 337.282 191.01 338.391 191.864 339.262C192.445 339.861 194.082 339.095 194.654 338.813C196.15 338.074 197.118 336.525 197.708 334.994C198.641 332.564 199.53 329.924 200.155 327.398C201.554 321.756 203.446 316.291 205.013 310.711" stroke="#0061AA" stroke-width="1.5" stroke-miterlimit="10" stroke-linecap="round" stroke-linejoin="round"/>
<path d="M210.514 330.575C213.101 330.663 219.06 329.678 221.392 328.604C222.211 328.234 224.974 326.932 223.284 325.814C220.873 324.221 214.193 330.373 217.528 331.948C220.318 333.269 224.376 331.403 226.664 329.889C229.093 328.278 231.038 325.99 232.411 323.42C233.027 322.267 233.397 321.14 233.564 319.838C233.643 319.23 234.11 317.47 233.863 316.916C233.388 315.842 232.667 317.18 232.297 317.761C230.484 320.674 229.084 324.388 228.231 327.715C227.799 329.396 227.166 333.462 227.641 333.937C228.389 334.686 230.097 334.774 230.774 334.325C232.464 333.207 232.35 331.596 231.294 329.607C231.672 330.435 234.506 330.787 235.333 330.663C236.284 330.514 236.935 330.126 237.49 329.607" stroke="#0061AA" stroke-width="1.5" stroke-miterlimit="10" stroke-linecap="round" stroke-linejoin="round"/>
<path d="M241.142 325.875C238.792 325.796 237.067 327.433 237.604 329.871C238.176 332.476 241.512 333.048 243.562 331.737C245.261 330.655 246.317 327.442 245.059 325.699C244.231 324.546 241.688 324.353 241.239 325.981C240.887 327.248 243.025 327.433 244.055 327.574C245.921 327.829 247.937 327.407 249.336 326.087C249.89 325.559 250.647 324.546 250.471 323.693C250.234 322.54 248.896 323.094 248.623 324.098C248.051 326.227 253.446 325.779 254.538 326.113C253.543 327.354 252.513 328.384 251.968 329.968C251.704 330.734 251.008 332.749 251.809 333.295C253.112 334.184 255.831 332.124 256.597 331.464C258.683 329.678 261.042 326.122 264.113 326.175C262.705 323.728 256.351 328.454 257.592 331.015C259.229 334.404 263.031 328.12 264.175 327.671C263.92 328.947 262.344 333.233 265.214 332.459" stroke="#0061AA" stroke-width="1.5" stroke-miterlimit="10" stroke-linecap="round" stroke-linejoin="round"/>
<path d="M395.041 229.677C414.263 229.677 433.485 229.677 452.707 229.677C462.142 229.677 471.577 229.572 481.003 229.739C490.227 229.915 499.442 230.355 508.657 230.522C518.91 230.707 529.199 230.531 539.373 229.185C540.482 229.035 540.491 227.275 539.373 227.424C521.19 229.836 502.795 228.524 484.524 228.058C475.159 227.82 465.786 227.917 456.421 227.917C446.775 227.917 437.129 227.917 427.474 227.917C416.657 227.917 405.84 227.917 395.024 227.917C393.906 227.917 393.906 229.677 395.041 229.677Z" fill="#4D90CD"/>
<path d="M395.499 251.654C413.814 251.654 432.13 251.584 450.454 251.487C468.84 251.399 487.226 251.285 505.612 251.223C515.936 251.188 526.26 251.161 536.583 251.161C537.719 251.161 537.719 249.401 536.583 249.401C518.277 249.401 499.97 249.472 481.655 249.568C463.269 249.656 444.883 249.771 426.488 249.832C416.155 249.868 405.823 249.894 395.49 249.894C394.372 249.894 394.372 251.654 395.499 251.654Z" fill="#4D90CD"/>
<path d="M535.65 273.429C516.754 273.429 497.849 273.587 478.953 273.728C469.544 273.798 460.135 273.86 450.727 273.895C441.309 273.93 431.927 273.93 422.519 273.429C417.687 273.173 412.855 272.927 408.014 272.892C403.614 272.857 399.037 272.901 394.812 271.51C393.73 271.158 393.272 272.856 394.346 273.209C398.025 274.423 401.994 274.564 405.84 274.634C409.977 274.705 414.105 274.766 418.241 274.969C422.959 275.206 427.668 275.497 432.394 275.62C437.12 275.743 441.855 275.682 446.581 275.664C465.548 275.611 484.515 275.435 503.482 275.312C514.211 275.242 524.939 275.189 535.659 275.189C536.786 275.189 536.786 273.429 535.65 273.429Z" fill="#4D90CD"/>
<path d="M396.405 297.192C414.51 298.213 432.623 297.298 450.727 296.902C459.696 296.699 468.673 296.629 477.633 296.998C486.724 297.368 495.79 297.747 504.89 297.835C515.152 297.931 525.424 297.949 535.668 298.53C536.804 298.591 536.795 296.831 535.668 296.77C517.494 295.74 499.275 296.382 481.1 295.405C463.084 294.437 445.05 295.379 427.043 295.766C416.833 295.986 406.606 296.013 396.405 295.441C395.279 295.37 395.279 297.13 396.405 297.192Z" fill="#4D90CD"/>
<path d="M461.922 95.8891C461.922 101.76 462.644 110.13 462.336 115.877C461.755 126.755 462.195 135.645 462.195 146.541C462.195 150.668 462.195 154.796 462.195 158.915C462.195 160.614 461.746 163.298 462.433 164.821C468.18 164.856 486.443 165.12 492.683 164.812C504.934 164.205 517.194 164.011 529.455 163.791C531.391 163.756 531.752 164.099 531.91 162.136C532.042 160.561 532.368 143.425 532.368 136.621C532.368 127.855 531.523 119.125 531.54 110.394C531.549 107.12 531.646 103.819 531.496 100.554C531.356 97.5614 532.13 95.5635 528.689 95.6427C514.501 95.986 515.628 95.5547 499.354 96.1268C492.225 96.382 464.792 96.426 462.6 95.8804" fill="#0077BF"/>
<path d="M495.913 125.347C495.508 122.627 492.718 120.013 491.204 117.796C489.664 115.542 487.877 113.219 486.134 111.195C486.759 110.631 488.828 109.417 489.681 109.276C491.107 109.038 494.152 111.969 495.349 112.946C497.136 114.398 498.835 115.965 500.604 117.435C501.572 118.244 502.936 120.057 504.247 120.181C505.444 120.286 507.257 119.292 508.384 118.931C510.787 118.148 513.075 115.93 515.548 115.41C516.816 115.146 519.746 114.451 521.014 116.282C521.859 117.496 521.577 119.151 520.688 120.093C518.417 122.504 514.818 124.37 512.098 126.139C510.021 127.486 508.947 128.014 509.088 130.601C509.308 134.967 509.819 139.315 510.461 143.636C510.567 144.367 511.139 146.461 510.708 147.095C510.514 147.377 508.63 148.274 508.19 148.09C507.046 147.614 505.761 143.31 505.224 142.21C504.124 139.957 503.332 136.666 501.572 134.764C501.167 134.324 501.563 134.245 500.833 134.052C500.296 133.911 498.755 134.782 498.298 134.967C495.904 135.953 493.51 136.93 491.107 137.906C489.347 138.628 485.545 139.482 484.647 141.295C483.758 143.09 484.339 146.188 484.339 148.16C484.339 149.067 484.805 151.469 483.239 151.337C482.165 151.249 481.795 149.023 481.391 148.23C480.898 147.253 480.141 144.842 479.313 144.085C478.477 143.319 477.289 143.777 476.523 142.756C475.784 141.779 476.383 141.119 476.409 140.098C476.427 139.359 476.726 140.063 476.303 139.095C476.092 138.628 475.423 138.083 475.08 137.678C474.059 136.463 472.308 135.072 471.648 133.638C471.084 132.414 471.603 131.895 472.616 130.997C474.807 132.406 477.192 133.427 479.569 134.509C481.487 135.381 482.139 134.131 483.908 133.215C486.249 132.001 488.546 130.795 490.79 129.387C492.313 128.436 494.865 126.922 495.957 125.461" fill="#E7DFA9"/>
<path d="M397.207 339.579C403.561 339.201 410.004 339.421 416.367 339.623C421.789 339.799 427.202 340.125 432.614 340.336C438.053 340.547 443.501 340.662 448.941 340.838C459.96 341.198 470.979 341.586 482.007 341.577C493.088 341.568 504.125 340.978 515.17 340.239C519.272 339.966 523.311 339.597 527.422 339.773C528.98 339.843 530.529 339.922 532.086 339.966C532.87 339.993 534.278 340.257 534.604 339.289C534.964 338.215 533.266 337.748 532.905 338.822V338.831C533.037 338.655 533.178 338.479 533.31 338.303C533.591 338.153 533.671 338.259 533.363 338.224C533.213 338.206 533.046 338.224 532.887 338.224C532.298 338.215 531.708 338.197 531.109 338.171C529.728 338.118 528.337 338.048 526.955 337.995C523.443 337.845 519.985 338.153 516.473 338.391C505.647 339.113 494.822 339.755 483.97 339.808C462.503 339.913 441.011 338.857 419.571 337.977C415.601 337.81 411.632 337.74 407.654 337.704C404.177 337.678 400.674 337.608 397.198 337.81C396.08 337.889 396.071 339.649 397.207 339.579Z" fill="#4D90CD"/>
<path d="M397.215 318.65C414.879 319.098 432.579 319.855 450.252 319.759C468.338 319.653 486.416 318.729 504.503 318.87C514.677 318.949 524.79 319.952 534.955 320.225C536.091 320.251 536.091 318.491 534.955 318.465C525.96 318.227 517.001 317.294 507.997 317.153C498.914 317.004 489.831 317.162 480.748 317.373C471.744 317.585 462.75 317.857 453.746 317.963C444.795 318.06 435.853 317.866 426.911 317.646C417.018 317.391 407.117 317.145 397.224 316.889C396.08 316.854 396.08 318.614 397.215 318.65Z" fill="#4D90CD"/>
</g>
<path d="M100.644 370.851C100.778 366.553 100.644 360.769 100.533 355C95.7056 358.186 92.0086 360.232 88.8768 362.349C88.712 362.46 88.5303 362.592 88.4933 362.792C88.4496 363.035 88.6178 363.282 88.823 363.418C92.4829 365.842 97.2766 368.67 100.644 370.851Z" fill="white"/>
<path d="M91.1575 370.851C91.2921 366.553 91.1575 360.769 91.0465 355C86.2193 358.186 82.5223 360.232 79.3905 362.349C79.2256 362.46 79.044 362.592 79.007 362.792C78.9632 363.035 79.1314 363.282 79.3366 363.418C82.9966 365.842 87.7902 368.67 91.1575 370.851Z" fill="white"/>
<defs>
<clipPath id="clip0">
<rect x="67" y="66" width="505" height="320.551" fill="white"/>
</clipPath>
</defs>
</svg>
