<svg width="224" height="225" viewBox="0 0 224 225" fill="none" xmlns="http://www.w3.org/2000/svg">
<g clip-path="url(#clip0)">
<path d="M0 224.25C2.43 218.97 8.66 216.89 14.03 214.66C20.1 212.13 25.81 208.73 30.92 204.59C33.47 202.52 35.88 200.28 38.28 198.03C41.67 194.86 45.05 191.69 48.44 188.53C49.39 187.64 50.35 186.74 51.3 185.85C55.38 182.04 59.45 178.22 63.69 174.59C70.62 168.65 77.98 163.2 85.77 158.45C91.61 154.9 97.85 151.6 102.1 146.26C103.33 144.71 104.4 142.99 105.96 141.79C107.8 140.37 110.14 139.82 112.39 139.22C125.1 135.85 137.18 130.1 147.8 122.35C151.8 119.43 156.19 116.05 161.11 116.63C164.91 117.07 168.05 119.87 170.17 123.05C172.29 126.23 173.62 129.86 175.48 133.2C181.55 144.11 192.61 151.1 202.53 158.68C212.45 166.26 222.22 176 223.53 188.42C223.65 189.53 223.68 190.7 223.21 191.7C222.7 192.79 221.29 193.17 220.66 194.2C215.26 202.84 202.62 209.24 195.14 212.12C167.32 222.83 145.06 220.77 115.37 223.5C96.67 225.22 72.99 220.69 54.21 220.78C35.62 220.87 18.68 227.02 0.34 224.02" fill="#D1D3D4"/>
<path d="M101.88 146.59C100.78 150.25 99.66 153.98 99.66 157.81C99.66 158.82 99.74 159.85 99.53 160.84C99.28 162.04 98.64 163.12 97.96 164.14C96.55 166.28 94.95 168.38 94.31 170.86C93.64 173.46 94.1 176.25 93.48 178.86C92.87 181.47 91.25 183.71 89.85 186C85.28 193.49 82.82 202.26 82.85 211.04C78.18 211.99 73.3 210.95 68.6 211.71C66.54 212.04 64.55 212.72 62.49 213.08C56.21 214.21 49.5 212.47 43.49 214.61C42.96 211.17 45.47 208.11 46.74 204.87C48 201.65 48.04 198.06 49.14 194.78C50.17 191.71 52.1 189.03 53.39 186.07C55.07 182.22 55.63 177.99 56.93 173.99C61.22 160.85 74.21 151.05 88.03 150.53C90.03 150.46 92.05 150.56 94.02 150.24C96.42 149.86 98.7 148.87 100.77 147.59" fill="#414042"/>
<path d="M100.91 146.32C100.22 148.61 99.53 150.91 99.1 153.27C98.9 154.37 98.75 155.49 98.69 156.61C98.62 157.82 98.77 159.07 98.6 160.27C98.3 162.4 96.68 164.2 95.55 165.96C94.37 167.8 93.41 169.73 93.09 171.91C92.77 174.12 93.03 176.41 92.52 178.6C92.02 180.73 90.82 182.59 89.67 184.42C87.33 188.15 85.43 192.1 84.11 196.31C82.61 201.07 81.87 206.06 81.86 211.05C82.1 210.73 82.35 210.41 82.59 210.09C79.07 210.76 75.48 210.34 71.92 210.44C68.64 210.53 65.64 211.49 62.45 212.09C56.08 213.29 49.48 211.53 43.23 213.66C43.65 213.98 44.07 214.3 44.5 214.62C44.09 211.27 46.35 208.47 47.56 205.52C48.88 202.31 48.96 198.78 49.98 195.49C51.02 192.14 53.16 189.27 54.5 186.05C55.84 182.81 56.46 179.35 57.4 175.99C60.51 164.89 69.48 156 80.53 152.78C83.77 151.84 87 151.55 90.36 151.5C94.37 151.44 97.85 150.55 101.3 148.47C102.4 147.81 101.4 146.08 100.29 146.74C98.77 147.66 97.17 148.44 95.45 148.92C93.48 149.47 91.47 149.48 89.43 149.51C86.47 149.55 83.55 149.89 80.69 150.66C75.19 152.13 70.09 154.98 65.86 158.78C61.63 162.58 58.3 167.37 56.34 172.72C55.13 176.02 54.56 179.51 53.52 182.87C52.44 186.37 50.41 189.34 48.93 192.66C47.29 196.36 47.29 200.43 45.94 204.2C44.7 207.66 42.03 210.73 42.5 214.63C42.57 215.23 43.09 215.83 43.77 215.59C49.98 213.47 56.63 215.22 62.99 214.02C64.53 213.73 66.03 213.28 67.56 212.94C69.32 212.56 71.09 212.43 72.88 212.42C76.31 212.4 79.73 212.66 83.12 212.01C83.55 211.93 83.85 211.46 83.85 211.05C83.87 202.09 86.43 193.39 91.16 185.79C92.25 184.04 93.38 182.3 94.08 180.34C94.82 178.28 94.79 176.11 94.9 173.96C95.02 171.56 95.67 169.56 96.93 167.51C98 165.78 99.36 164.17 100.12 162.26C101.06 159.9 100.51 157.22 100.87 154.74C101.25 152.05 102.05 149.44 102.83 146.84C103.21 145.62 101.28 145.09 100.91 146.32Z" fill="#414042"/>
<path d="M87.52 112.39C88.49 119.02 88.21 125.74 87.82 132.4C87.43 139.05 87.03 145.71 86.63 152.36C86.24 158.81 85.64 165.29 85.85 171.76C85.96 175.04 86.17 178.34 85.68 181.6C85.21 184.77 84.23 187.84 83.63 190.99C82.3 198.03 82.16 205.21 83.12 212.31C83.25 213.26 84.69 212.86 84.57 211.91C83.68 205.34 83.79 198.62 84.95 192.09C85.52 188.86 86.51 185.71 87.05 182.47C87.56 179.4 87.51 176.3 87.4 173.19C87.17 166.72 87.65 160.29 88.04 153.84C88.43 147.26 88.83 140.68 89.22 134.11C89.66 126.73 90.04 119.34 88.97 111.99C88.83 111.04 87.39 111.45 87.52 112.39Z" fill="white"/>
<path d="M101.79 127.6C103.91 134.6 106.03 141.6 108.15 148.61C108.83 150.87 109.52 153.19 109.35 155.54C109.03 159.95 105.78 163.55 104.26 167.71C103.91 168.65 103.66 169.72 104.06 170.64C104.41 171.45 105.19 171.99 105.99 172.36C108.28 173.42 110.9 173.46 113.41 173.26C128.59 172.03 142.24 162.34 150.88 149.8C153.73 145.66 156.1 141.22 158.23 136.68C159.94 133.03 159.77 129.3 161.17 125.51C161.41 124.86 161.65 124.16 161.52 123.48C161.4 122.87 161.01 122.36 160.66 121.85C157.75 117.65 156.92 112.36 156.77 107.25C156.62 102.14 157.05 97.0001 156.3 91.9401C153.55 91.5601 152.38 93.1601 151.22 95.6801C150.52 97.2101 150.43 98.9501 150.04 100.59C149.28 103.8 147.35 106.6 145.38 109.25C139.82 116.72 132.93 124.06 123.83 126.05C116.58 127.63 108.94 125.56 101.63 126.85" fill="#BCBEC0"/>
<path d="M75.24 42.84C75.95 52.8 76.67 62.77 77.38 72.73C77.72 77.43 78.06 82.15 78.87 86.79C80.9 98.38 85.84 109.24 90.73 119.94C91.8 122.29 92.9 124.68 94.63 126.59C96.23 128.37 100.56 133.79 102.63 134.78C113.69 140.11 123.24 137.39 135.74 129.79C147.52 122.62 157.19 105.07 155.4 91.4C156.5 92.98 159 92.93 160.57 91.82C162.14 90.71 162.99 88.86 163.75 87.1C166.2 81.44 168.45 77.6 169.13 71.47C169.33 69.68 169.23 67.47 168.09 66.08C166.59 64.25 163.74 62.49 161.74 63.75C159.74 65 157.16 66.82 156.1 68.93C155.04 71.04 155.39 73.59 153.67 75.21C154.77 65.21 152.63 54.88 147.65 46.14C145.43 42.24 142.56 38.56 138.7 36.26C135.21 34.18 131.13 33.35 127.12 32.73C116.79 31.12 106.27 30.67 95.84 31.39C92.69 31.61 89.48 31.95 86.58 33.21C81.75 35.31 78.33 39.69 73.89 42.51" fill="#E6E7E8"/>
<path d="M74.24 42.84C74.76 50.15 75.29 57.46 75.81 64.76C76.33 71.95 76.61 79.22 77.79 86.34C78.9 93.07 81.01 99.59 83.53 105.92C84.8 109.1 86.16 112.24 87.56 115.37C88.9 118.36 90.14 121.48 91.78 124.32C92.94 126.33 94.54 128.02 96.05 129.77C97.52 131.47 99 133.23 100.72 134.68C102.52 136.18 104.95 136.99 107.18 137.61C109.72 138.33 112.39 138.66 115.03 138.56C120.79 138.33 126.25 136.16 131.29 133.5C136.27 130.87 140.79 127.83 144.57 123.62C152.14 115.16 157.84 103 156.41 91.42C155.84 91.66 155.27 91.89 154.7 92.13C155.78 93.49 157.57 93.87 159.21 93.51C161.03 93.11 162.38 91.77 163.33 90.23C164.52 88.31 165.3 86.09 166.23 84.04C167.09 82.15 167.94 80.25 168.62 78.28C169.36 76.15 169.85 73.96 170.11 71.72C170.33 69.84 170.29 67.71 169.27 66.04C168.32 64.49 166.6 63.19 164.88 62.62C163.01 62 161.59 62.63 160.05 63.68C158.3 64.88 156.48 66.27 155.41 68.15C154.28 70.12 154.59 72.86 152.97 74.53C153.54 74.77 154.11 75 154.68 75.24C155.46 67.83 154.55 60.25 152.01 53.24C149.69 46.84 146.09 40.21 140.41 36.21C137.45 34.12 133.93 33.02 130.41 32.32C126.45 31.53 122.4 31.05 118.38 30.68C110.18 29.93 101.8 29.77 93.6 30.61C89.5 31.03 85.75 32.11 82.38 34.54C79.28 36.78 76.62 39.59 73.4 41.67C72.32 42.37 73.32 44.1 74.41 43.4C77.1 41.66 79.41 39.45 81.88 37.43C84.6 35.22 87.49 33.64 90.96 32.98C94.8 32.25 98.82 32.19 102.72 32.11C106.64 32.03 110.57 32.12 114.48 32.37C118.47 32.62 122.45 33.04 126.4 33.64C129.89 34.17 133.48 34.79 136.7 36.33C142.94 39.31 146.86 45.74 149.4 51.93C152.42 59.29 153.54 67.32 152.71 75.23C152.62 76.11 153.85 76.52 154.42 75.94C156.64 73.64 156.01 70.13 158.21 67.79C159.31 66.62 160.64 65.65 162 64.81C163.54 63.86 165.19 64.7 166.44 65.79C169.26 68.23 168.23 72.49 167.37 75.65C166.45 79.03 164.9 82.18 163.48 85.37C162.72 87.08 162.07 89 160.76 90.38C159.56 91.65 157.38 92.27 156.15 90.72C155.63 90.07 154.34 90.59 154.44 91.43C155.68 101.44 151.34 111.78 145.35 119.61C142.27 123.63 138.57 127.01 134.22 129.59C129.21 132.56 123.86 135.29 118.05 136.27C115.5 136.7 112.84 136.72 110.29 136.28C107.81 135.85 105.03 135.11 102.86 133.79C101.19 132.77 99.83 131.03 98.55 129.58C97.18 128.03 95.67 126.47 94.47 124.78C92.73 122.33 91.62 119.44 90.38 116.72C89.04 113.76 87.71 110.79 86.46 107.79C83.97 101.79 81.78 95.65 80.41 89.29C78.78 81.74 78.51 73.96 77.96 66.28C77.4 58.47 76.84 50.67 76.28 42.86C76.15 41.56 74.15 41.55 74.24 42.84Z" fill="#E6E7E8"/>
<path d="M110.77 72.3201C116.45 71.4501 122.14 70.5701 127.82 69.7001C128.62 69.5801 129.43 69.4501 130.24 69.4601C131.45 69.4701 132.63 69.7801 133.79 70.1301C135.26 70.5801 136.71 71.1001 138.13 71.7001C136.79 69.9401 135.18 68.3901 133.36 67.1301C132.77 66.7201 132.15 66.3401 131.44 66.1901C130.87 66.0701 130.27 66.1101 129.69 66.1501C123.63 66.6201 117.59 67.4901 111.64 68.7401C111.19 68.8301 110.68 68.9901 110.51 69.4101C110.4 69.6801 110.48 69.9801 110.55 70.2601C110.72 70.9201 110.89 71.5801 111.06 72.2401" fill="#58595B"/>
<path d="M96.36 71.89C96.61 71.35 96.31 70.68 95.83 70.34C95.35 70 94.74 69.89 94.15 69.81C90.21 69.26 86.21 69.14 82.23 69.34C81.4 69.38 79.56 69.09 79.41 69.91C79.36 70.18 79.11 72.75 79.31 72.75C85.06 72.68 89.98 73.04 96.02 73.16" fill="#58595B"/>
<path d="M68.86 73.64C76.79 71.86 85.06 71.59 93.09 72.86C95.91 73.31 98.74 73.94 101.59 73.79C105.52 73.58 109.2 71.91 112.99 70.86C117.82 69.52 122.87 69.2 127.87 68.89C130.53 68.72 133.2 68.56 135.86 68.39C137.05 68.32 138.32 68.26 139.33 68.89C140.34 69.52 140.8 71.12 139.91 71.91C139.59 72.19 139.15 72.32 138.8 72.56C138.28 72.92 137.96 73.52 137.73 74.11C136.69 76.69 136.67 79.55 136.3 82.31C135.93 85.07 135.08 87.98 132.9 89.71C131.89 90.51 130.67 90.99 129.44 91.36C125.67 92.49 121.61 92.61 117.78 91.72C116.14 91.34 114.5 90.75 113.27 89.6C112.43 88.81 111.83 87.8 111.24 86.8C109.94 84.59 108.64 82.38 107.34 80.17C107 79.59 106.62 78.97 106.01 78.67C105.53 78.43 104.97 78.43 104.44 78.43C102.9 78.43 101.35 78.44 99.81 78.44C99.36 78.44 98.86 78.46 98.52 78.76C98.22 79.03 98.12 79.46 98.06 79.86C97.61 82.8 97.99 85.93 96.74 88.63C95.47 91.38 92.63 93.2 89.66 93.77C86.69 94.35 83.59 93.82 80.72 92.86C79.07 92.31 77.4 91.56 76.3 90.21C75.62 89.36 75.2 88.33 74.8 87.32C73.61 84.33 72.42 81.33 71.24 78.34C71.07 77.91 70.89 77.47 70.54 77.17C70.21 76.89 69.77 76.77 69.39 76.56C68.46 76.07 67.85 75.02 67.88 73.96" fill="black"/>
<path d="M69.12 74.6C75.58 73.18 82.22 72.74 88.81 73.33C92.14 73.63 95.41 74.41 98.73 74.71C101.77 74.99 104.69 74.48 107.59 73.6C110.69 72.66 113.7 71.57 116.9 70.99C120.05 70.42 123.25 70.18 126.45 69.97C129.71 69.76 132.98 69.49 136.25 69.36C137.16 69.32 139.52 69.26 139.37 70.76C139.31 71.32 138.7 71.41 138.29 71.69C137.72 72.08 137.31 72.63 137.01 73.24C134.64 78.02 136.9 85.6 132.05 89.08C129.59 90.85 125.9 91.28 122.96 91.28C120.16 91.28 116.55 90.95 114.28 89.12C113.09 88.16 112.39 86.72 111.63 85.44C110.82 84.06 110 82.68 109.19 81.29C108.56 80.23 108 78.9 107.02 78.1C105.91 77.2 104.4 77.39 103.06 77.4C100.87 77.4 97.64 76.71 97.11 79.56C96.57 82.48 97.15 85.7 95.73 88.42C94.32 91.14 91.29 92.66 88.33 92.93C85.09 93.22 81.06 92.45 78.31 90.63C76.84 89.66 76.23 88.15 75.61 86.57C74.93 84.85 74.24 83.13 73.56 81.41C72.99 79.97 72.56 78.16 71.66 76.88C70.79 75.65 68.97 75.75 68.91 73.93C68.86 72.65 66.86 72.64 66.91 73.93C66.95 75.16 67.43 76.28 68.41 77.05C68.89 77.43 69.54 77.56 69.96 77.99C70.59 78.66 70.85 79.96 71.19 80.81C71.78 82.31 72.38 83.8 72.97 85.3C73.59 86.86 74.1 88.57 74.99 90.01C76.55 92.53 79.48 93.6 82.22 94.31C85.29 95.1 88.68 95.33 91.7 94.21C94.08 93.33 96.27 91.71 97.46 89.42C98.88 86.7 98.65 83.61 98.97 80.66C99.11 79.37 99.56 79.4 100.75 79.39C101.52 79.39 102.29 79.39 103.07 79.39C103.78 79.39 104.71 79.23 105.39 79.45C106.28 79.75 106.79 81.13 107.23 81.87C108.04 83.25 108.86 84.63 109.67 86.02C110.53 87.48 111.33 89.09 112.59 90.27C114.68 92.23 117.73 92.84 120.49 93.14C123.83 93.5 127.37 93.16 130.55 92.02C133.26 91.05 135.19 89.3 136.27 86.62C137.42 83.77 137.38 80.71 137.84 77.72C138.06 76.3 138.33 74.1 139.61 73.23C140.59 72.56 141.41 72.11 141.41 70.75C141.41 67.76 138.21 67.23 135.89 67.36C129.04 67.74 121.99 67.86 115.26 69.26C111.51 70.04 107.99 71.61 104.25 72.39C100.17 73.25 96.24 72.25 92.2 71.68C84.34 70.58 76.37 70.92 68.62 72.63C67.33 72.95 67.87 74.88 69.12 74.6Z" fill="black"/>
<path d="M78.58 51.32C79.07 53.58 82.24 53.94 83.72 55.72C84.71 56.91 84.82 58.59 85.31 60.06C86.02 62.19 87.66 63.99 89.7 64.9C94.88 61.54 100.11 58.14 104.38 53.69C106.5 51.48 108.38 49.02 110.7 47C116 42.4 123.55 40.52 130.39 42.09C129.55 42.7 128.91 43.58 128.61 44.57C130.97 44.63 133.33 44.69 135.69 44.75C135.44 46.05 134.79 47.27 133.85 48.2C136.56 47.38 139.31 46.69 142.09 46.14C142.73 46.01 143.57 45.98 143.86 46.57C144.08 47.03 143.8 47.57 143.53 48C141.9 50.58 140.27 53.16 138.63 55.75C139.8 55.75 141.01 55.76 142.06 56.26C143.12 56.76 143.97 57.88 143.77 59.03C144.39 58.96 145.01 58.9 145.63 58.83C145.65 59.86 145.68 60.93 146.14 61.86C146.6 62.79 147.62 63.52 148.62 63.3C151.2 67.8 152.84 69.63 154.17 74.65C154.97 70.79 154.45 70.89 156.94 67.83C159.43 64.77 161.54 62.12 169.16 65.05C174.47 52.27 172.81 35.84 164.91 24.48C164.55 23.96 164.14 23.42 163.55 23.18C162.99 22.96 162.35 23.05 161.79 22.82C160.21 22.17 160.4 19.64 158.97 18.7C158.47 18.37 157.83 18.28 157.36 17.91C156.75 17.42 156.59 16.57 156.36 15.82C155.35 12.42 152.34 9.92004 149.04 8.62004C145.74 7.32004 143.88 4.35004 140.35 4.09004C139.24 4.01004 134.44 0.620042 133.39 0.970042C132.5 1.26004 131.72 1.84004 130.82 2.10004C129.65 2.44004 128.4 2.19004 127.2 1.97004C116.09 -0.119958 106.61 5.31004 95.35 6.24004C91.93 6.52004 88.37 6.99004 85.5 8.87004C83.27 10.33 81.64 12.52 80.11 14.71C73.86 23.7 68.6 33.65 66.95 44.47C66.75 45.76 66.62 47.1 67.03 48.34C67.39 49.4 68.13 50.29 68.79 51.18C72.44 56.09 74.37 62.03 76.24 67.85C76.13 62.15 76.82 56.44 78.28 50.94" fill="#414042"/>
<path d="M77.62 51.59C78.07 53.22 79.4 54.08 80.8 54.86C81.56 55.28 82.39 55.69 82.95 56.37C83.68 57.27 83.83 58.49 84.12 59.57C84.67 61.58 85.75 63.35 87.39 64.65C88.01 65.14 89 65.98 89.83 65.88C90.78 65.77 92 64.6 92.79 64.07C96.9 61.36 100.97 58.51 104.47 55.02C107.96 51.53 110.76 47.49 115.21 45.11C119.75 42.69 125.1 41.95 130.12 43.05C129.97 42.49 129.83 41.94 129.68 41.38C128.69 42.15 128.06 43.13 127.65 44.3C127.43 44.93 128 45.55 128.61 45.57C130.97 45.63 133.33 45.69 135.69 45.75C135.37 45.33 135.05 44.91 134.73 44.48C134.47 45.65 133.98 46.62 133.15 47.49C132.48 48.19 133.14 49.46 134.12 49.16C135.63 48.71 137.14 48.29 138.67 47.91C139.29 47.76 142.69 46.73 142.93 47.11C142.99 47.2 141.88 48.75 141.77 48.92C141.34 49.6 140.91 50.28 140.48 50.96C139.58 52.39 138.68 53.81 137.77 55.24C137.36 55.89 137.9 56.74 138.63 56.74C140.16 56.75 142.96 56.82 142.77 59.02C142.73 59.52 143.27 60.07 143.77 60.02C144.39 59.95 145.01 59.89 145.63 59.82C145.3 59.49 144.96 59.15 144.63 58.82C144.69 61.2 145.51 64.64 148.62 64.29C148.33 64.12 148.04 63.96 147.76 63.79C149.86 67.44 152.09 70.79 153.21 74.9C153.46 75.81 154.94 75.89 155.14 74.9C155.43 73.48 155.47 71.81 156.2 70.53C156.96 69.18 158.08 67.9 159.16 66.78C161.92 63.91 165.51 64.72 168.91 66C169.46 66.21 169.95 65.76 170.14 65.3C175.07 53.27 174.11 38.74 167.88 27.35C167.12 25.96 166.31 24.52 165.29 23.3C164.85 22.78 164.32 22.36 163.66 22.16C162.85 21.92 162.12 22.09 161.63 21.29C160.99 20.26 160.86 19.03 159.93 18.16C159.37 17.64 158.54 17.57 158.01 17.07C157.46 16.54 157.39 15.56 157.12 14.86C156.04 12.04 153.73 9.83005 151.09 8.44005C149.67 7.69005 148.22 7.16005 146.89 6.23005C145.66 5.37005 144.5 4.41005 143.12 3.79005C142.12 3.35005 141.04 3.35005 140.06 2.94005C139.05 2.52005 138.1 1.89005 137.14 1.37005C136.25 0.880046 135.31 0.320046 134.32 0.0600456C133.17 -0.249954 132.3 0.400046 131.27 0.860046C129.37 1.72005 127.24 0.900046 125.27 0.670046C123.44 0.460046 121.6 0.440046 119.77 0.570046C116.28 0.810046 112.85 1.56005 109.46 2.39005C105.93 3.26005 102.42 4.21005 98.83 4.80005C95.29 5.38005 91.63 5.31005 88.2 6.48005C84.79 7.65005 82.36 9.97005 80.26 12.82C78.06 15.8 76.05 18.95 74.21 22.16C70.52 28.6 67.55 35.57 66.23 42.9C65.93 44.56 65.6 46.29 65.94 47.97C66.3 49.77 67.59 51.1 68.6 52.57C70.74 55.68 72.25 59.16 73.51 62.71C74.15 64.5 74.73 66.31 75.31 68.12C75.65 69.17 77.29 69.02 77.27 67.85C77.18 62.22 77.85 56.65 79.28 51.2C79.61 49.95 77.68 49.42 77.35 50.67C75.88 56.28 75.18 62.05 75.27 67.85C75.92 67.76 76.58 67.67 77.23 67.58C76.13 64.16 75.02 60.74 73.56 57.46C72.91 56 72.19 54.58 71.37 53.21C70.42 51.63 69.08 50.24 68.25 48.6C67.38 46.88 67.89 44.8 68.23 43.01C68.55 41.3 68.97 39.6 69.46 37.93C70.5 34.38 71.9 30.94 73.54 27.63C75.1 24.48 76.88 21.44 78.79 18.49C80.64 15.64 82.53 12.46 85.21 10.32C87.96 8.12005 91.55 7.58005 94.95 7.27005C98.51 6.95005 101.99 6.30005 105.46 5.46005C112.02 3.87005 118.65 1.85005 125.47 2.71005C127.18 2.92005 128.92 3.51005 130.65 3.17005C131.77 2.95005 133 1.82005 133.93 2.05005C135.89 2.52005 137.56 4.13005 139.43 4.86005C140.34 5.22005 141.32 5.19005 142.23 5.60005C143.6 6.21005 144.76 7.23005 145.99 8.07005C148.49 9.79005 151.39 10.48 153.49 12.8C154.56 13.98 155.1 15.27 155.58 16.75C155.77 17.34 155.99 17.93 156.41 18.39C156.95 18.98 157.66 19.07 158.3 19.48C159.25 20.11 159.36 21.5 159.93 22.43C160.21 22.88 160.57 23.29 161.02 23.56C161.77 24.01 162.75 23.8 163.45 24.3C164.13 24.78 164.63 25.87 165.06 26.57C165.46 27.22 165.84 27.87 166.2 28.54C167.07 30.15 167.83 31.82 168.46 33.54C169.69 36.86 170.52 40.33 170.91 43.85C171.7 50.94 170.87 58.17 168.16 64.79C168.57 64.56 168.98 64.32 169.39 64.09C165.49 62.63 161.24 61.95 158 65.07C156.74 66.29 155.52 67.76 154.6 69.24C153.63 70.79 153.52 72.63 153.16 74.38C153.8 74.38 154.45 74.38 155.09 74.38C153.93 70.1 151.63 66.59 149.44 62.79C149.28 62.51 148.91 62.26 148.58 62.29C146.71 62.5 146.62 60.14 146.59 58.82C146.58 58.32 146.14 57.76 145.59 57.82C144.97 57.89 144.35 57.95 143.73 58.02C144.06 58.35 144.4 58.69 144.73 59.02C145.03 55.58 141.22 54.76 138.59 54.74C138.88 55.24 139.17 55.74 139.45 56.24C140.65 54.34 141.86 52.43 143.06 50.53C143.84 49.29 145.74 47.23 144.45 45.73C143.41 44.52 141.45 45.21 140.16 45.49C137.93 45.98 135.72 46.56 133.54 47.22C133.86 47.78 134.19 48.33 134.51 48.89C135.56 47.78 136.27 46.49 136.6 45C136.74 44.36 136.31 43.75 135.64 43.73C133.28 43.67 130.92 43.61 128.56 43.55C128.88 43.97 129.2 44.39 129.52 44.82C129.82 43.96 130.33 43.34 131.04 42.78C131.63 42.32 131.28 41.26 130.6 41.11C123.05 39.45 114.96 41.57 109.29 46.86C106.07 49.86 103.47 53.41 100.09 56.26C96.67 59.15 92.9 61.58 89.15 64.01C89.49 64.01 89.82 64.01 90.16 64.01C88.61 63.27 87.32 62.12 86.56 60.56C85.85 59.11 85.79 57.43 85.05 55.99C84.44 54.81 83.42 54.04 82.3 53.4C81.26 52.8 79.85 52.29 79.5 51.02C79.21 49.82 77.28 50.34 77.62 51.59Z" fill="#414042"/>
<path d="M97.03 115.34C98.87 114.31 100.72 113.28 102.56 112.24C103.55 111.68 104.73 111.11 105.78 111.55C106.12 111.69 106.43 111.94 106.8 111.96C107.44 112 107.9 111.4 108.45 111.07C109.59 110.38 111.02 110.92 112.3 111.28C116.01 112.33 120.08 111.75 123.68 113.14C123.31 113.5 122.93 113.86 122.56 114.22C121.36 115.37 120.15 116.53 118.76 117.43C114.75 120.02 109.65 120.21 104.91 119.69C101.96 119.37 98.75 118.64 96.96 116.27" fill="#808285"/>
<path d="M176.91 136.26C170.71 140.5 164.52 144.73 158.32 148.97C154.37 151.67 150.41 154.38 146.13 156.52C136.45 161.37 125.51 163.13 114.7 163.76C113.73 163.82 112.71 163.88 111.86 164.34C111.12 164.74 110.56 165.41 110.09 166.11C106.79 171 107.26 177.5 105.12 183C103.48 187.21 100.39 190.65 97.69 194.28C93.84 199.45 90.71 205.15 88.4 211.17C91.69 211.13 94.98 211.09 98.28 211.05C113.6 210.86 129.51 210.54 143.24 203.74C143.77 203.48 144.31 203.19 144.73 202.76C145.37 202.09 145.62 201.15 145.92 200.28C148.24 193.67 154.76 189.4 157.91 183.14C158.95 181.07 159.61 178.81 160.87 176.87C162.11 174.96 163.88 173.45 165.71 172.09C175.41 164.88 187.58 161.08 199.66 161.48C202.35 161.57 205.09 161.87 207.56 162.97C210.31 164.19 212.56 166.31 215.26 167.63C215.45 165.14 213.6 162.95 211.56 161.51C209.52 160.07 207.17 159.03 205.46 157.2C202.02 153.52 201.76 147.19 197.39 144.68C195.72 143.72 193.73 143.53 191.84 143.12C186.52 141.96 181.81 138.98 177.22 136.06" fill="#414042"/>
<path d="M176.41 135.4C169 140.46 161.65 145.61 154.18 150.58C150.61 152.96 146.93 155.19 142.98 156.9C139.14 158.56 135.11 159.77 131.02 160.67C126.83 161.58 122.58 162.15 118.31 162.51C116.38 162.67 114.23 162.53 112.36 163.07C110.71 163.55 109.63 164.85 108.79 166.28C106.93 169.44 106.38 173.12 105.72 176.66C104.98 180.62 103.81 184.13 101.54 187.48C99.01 191.2 96.04 194.58 93.65 198.41C91.17 202.36 89.11 206.55 87.44 210.9C87.2 211.51 87.81 212.17 88.4 212.17C98.71 212.04 109.1 212.2 119.37 211.11C124.27 210.59 129.15 209.77 133.89 208.4C136.2 207.73 138.48 206.93 140.7 206C142.54 205.22 144.99 204.48 146.05 202.64C146.55 201.77 146.77 200.77 147.15 199.85C147.59 198.79 148.16 197.78 148.78 196.82C149.96 195 151.39 193.35 152.81 191.72C155.65 188.45 158.17 185.25 159.86 181.23C160.88 178.8 161.99 176.66 163.95 174.84C165.71 173.21 167.72 171.83 169.75 170.56C173.9 167.97 178.4 165.96 183.09 164.59C188.33 163.06 193.79 162.33 199.25 162.47C202.1 162.54 205.06 162.82 207.65 164.11C210.15 165.35 212.28 167.23 214.77 168.5C215.45 168.85 216.25 168.42 216.27 167.64C216.4 164.09 213.62 161.59 210.86 159.86C209.24 158.84 207.51 157.93 206.18 156.51C205.17 155.42 204.47 154.07 203.85 152.74C202.63 150.12 201.71 147.2 199.6 145.12C197 142.57 193.29 142.63 190 141.6C185.57 140.22 181.62 137.68 177.74 135.2C176.65 134.51 175.65 136.24 176.73 136.93C179.9 138.95 183.09 140.97 186.56 142.44C188.26 143.16 190 143.75 191.8 144.13C193.56 144.5 195.47 144.67 197.04 145.63C199.43 147.08 200.46 149.93 201.52 152.37C202.68 155.05 203.98 157.5 206.36 159.31C209.23 161.49 214.43 163.26 214.27 167.63C214.77 167.34 215.27 167.05 215.77 166.77C213.59 165.66 211.71 164.1 209.59 162.89C207.49 161.68 205.21 161.02 202.81 160.72C197.97 160.12 192.94 160.48 188.15 161.35C179 163 169.39 167.03 162.52 173.43C160.67 175.15 159.43 177.15 158.44 179.46C157.53 181.59 156.63 183.62 155.29 185.52C152.83 189.02 149.64 191.94 147.25 195.5C146.7 196.32 146.2 197.17 145.77 198.06C145.27 199.1 144.99 200.23 144.5 201.28C143.99 202.38 142.97 202.78 141.94 203.27C140.69 203.86 139.43 204.4 138.14 204.89C133.49 206.66 128.63 207.8 123.72 208.55C112.07 210.33 100.16 210.03 88.41 210.17C88.73 210.59 89.05 211.01 89.37 211.44C90.85 207.6 92.66 203.9 94.79 200.38C96.88 196.92 99.37 193.79 101.79 190.56C104.04 187.57 105.93 184.42 106.89 180.77C107.83 177.19 108.09 173.44 109.32 169.93C109.87 168.36 110.73 166.2 112.22 165.3C113.09 164.77 114.18 164.8 115.16 164.74C116.21 164.67 117.26 164.6 118.32 164.51C122.31 164.18 126.3 163.66 130.23 162.87C138.33 161.24 145.88 158.25 152.86 153.82C161.21 148.52 169.26 142.71 177.42 137.12C178.47 136.4 177.47 134.67 176.41 135.4Z" fill="#414042"/>
<path d="M158.23 71.3301C157.46 74.0701 157.48 76.9601 156.91 79.7401C156.78 80.3701 156.61 81.0001 156.53 81.6401C156.46 82.1701 156.43 82.7201 156.41 83.2501C156.35 84.6601 156.29 86.0601 156.23 87.4701C156.23 87.5501 156.22 87.6401 156.27 87.7101C156.31 87.7701 156.37 87.81 156.44 87.84C156.92 88.03 158.31 88.7001 158.74 88.4401C159.12 88.2101 159.49 87.9701 159.87 87.7401C160.16 87.5601 160.46 87.3801 160.73 87.1601C161.36 86.6601 161.82 85.9801 162.27 85.3101C163.13 84.0101 163.94 82.6601 164.42 81.1701C164.89 79.6901 164.14 77.0901 163.61 75.6201C162.83 73.4801 160.8 72.0201 158.68 71.1801" fill="#D1D3D4"/>
<path d="M156.94 82.04C156.7 79.52 157.57 77.04 157.75 74.52C158.28 74.51 158.8 74.66 159.31 74.8C160.25 75.07 161.22 75.35 161.97 75.96C162.69 76.55 163.16 77.43 163.25 78.36C163.31 78.95 163.2 79.58 162.83 80.05C162.63 80.3 162.37 80.49 162.1 80.67C160.8 81.53 159.33 82.15 157.8 82.46" fill="#BCBEC0"/>
<path d="M162.73 67.8001C164.02 70.0301 166.17 71.9601 166.4 74.5301C166.77 73.2801 166.88 71.9601 166.92 70.6501C166.95 69.7501 166.93 68.8101 166.52 68.0101C166.11 67.2101 165.21 66.5801 164.33 66.7801" fill="#D1D3D4"/>
<path d="M158.78 84.3501C159.06 82.4101 159.24 80.4601 159.32 78.4901C158.82 78.7801 158.32 79.0701 157.82 79.3501C160.18 80.4801 158.66 83.9101 158.09 85.6801C157.25 88.2801 156.36 90.8601 155.42 93.4301C155.91 93.2301 156.4 93.0301 156.89 92.8301C156.79 92.7801 156.72 92.7101 156.66 92.6101C156.75 92.9301 156.83 93.2601 156.92 93.5801C158.07 90.5901 159.07 87.5401 159.91 84.4501C160.25 83.2101 158.32 82.6801 157.98 83.9201C157.46 85.8401 156.88 87.7401 156.23 89.6301C155.92 90.5501 155.59 91.4601 155.25 92.3701C155.08 92.8101 154.84 93.2301 155.04 93.7001C155.2 94.0801 155.54 94.3501 155.88 94.5601C156.47 94.9201 157.13 94.5501 157.35 93.9601C158.46 90.9301 159.51 87.8801 160.47 84.8001C161.23 82.3701 161.61 78.9601 158.83 77.6301C158.14 77.3001 157.36 77.7001 157.33 78.4901C157.26 80.2701 157.12 82.0501 156.86 83.8201C156.78 84.3601 156.99 84.8901 157.56 85.0501C158.02 85.1801 158.7 84.8901 158.78 84.3501Z" fill="white"/>
<path d="M154.62 94.2201C153.61 102.87 152.09 111.62 148.62 119.66C146.92 123.6 144.67 127.2 142.22 130.71C139.77 134.23 137.26 137.74 135.53 141.68C132.04 149.66 131.29 158.54 127.58 166.44C123.97 174.13 118.37 180.48 113.85 187.59C109.22 194.88 105.65 203.46 104.8 212.11C104.71 213.07 106.21 213.06 106.3 212.11C107.08 204.16 110.33 196.3 114.43 189.5C118.75 182.33 124.4 176.08 128.2 168.58C132.13 160.83 133.07 152.16 136.15 144.11C139.26 135.96 145.62 129.68 149.3 121.81C153.35 113.14 155.04 103.65 156.14 94.2101C156.23 93.2601 154.73 93.2701 154.62 94.2201Z" fill="white"/>
<path d="M85.87 144.12C85.6 147.26 85.34 150.41 85.07 153.55C84.94 155.09 84.81 156.64 84.68 158.18C84.58 159.35 84.15 160.93 84.87 161.98C85.51 162.92 86.81 162.91 87.65 162.24C88.72 161.39 88.66 159.87 88.76 158.63C89.01 155.52 89.25 152.41 89.5 149.3C89.57 148.44 89.64 147.57 89.71 146.71C89.77 145.97 89.91 145.16 89.68 144.43C89.25 143.08 87.76 142.63 86.67 143.48C85.65 144.27 87.08 145.67 88.08 144.89C87.76 144.86 87.66 144.99 87.8 145.26C87.8 145.36 87.8 145.46 87.8 145.55C87.8 145.93 87.74 146.32 87.71 146.71C87.66 147.4 87.6 148.09 87.55 148.78C87.44 150.22 87.32 151.66 87.21 153.1C87.1 154.48 86.99 155.86 86.88 157.25C86.83 157.94 86.77 158.63 86.72 159.32C86.7 159.61 86.7 159.94 86.62 160.23C86.6 160.41 86.53 160.56 86.42 160.7C86.28 160.74 86.27 160.75 86.41 160.73C86.51 160.85 86.54 160.15 86.54 160.07C86.57 159.73 86.6 159.38 86.63 159.04C86.69 158.3 86.76 157.55 86.82 156.81C86.94 155.44 87.05 154.07 87.17 152.69C87.41 149.83 87.66 146.97 87.9 144.11C87.98 142.84 85.98 142.85 85.87 144.12Z" fill="white"/>
<path d="M101.67 102.76C100.89 102.31 99.94 102.17 99.1 101.88C98.75 101.76 98.36 101.62 98.11 101.33C97.8 100.96 97.62 100.49 97.52 100.03C97.26 98.7602 97.81 97.3502 98.32 96.2002C98.72 95.3002 99.22 94.4602 99.62 93.5602C99.88 92.9802 99.01 92.4702 98.76 93.0602C97.77 95.3202 96.02 97.7102 96.56 100.3C96.77 101.31 97.32 102.22 98.28 102.64C99.2 103.04 100.29 103.14 101.17 103.64C101.73 103.94 102.23 103.08 101.67 102.76Z" fill="#BCBEC0"/>
<path d="M101.44 82.3301C101.58 84.2001 101.46 86.0701 100.98 87.8801C100.5 89.7001 99.69 91.4101 98.76 93.0401C98.44 93.6001 99.3 94.1001 99.62 93.5401C100.59 91.8401 101.44 90.0401 101.94 88.1401C102.44 86.2401 102.58 84.2801 102.43 82.3201C102.39 81.6901 101.39 81.6801 101.44 82.3301Z" fill="#BCBEC0"/>
<path d="M104.46 102.17C105.67 101.34 107.21 101.17 108.68 101.16C109.25 101.16 109.92 101.22 110.23 101.71C110.33 101.87 110.38 102.1 110.26 102.25C110.21 102.32 110.13 102.37 110.06 102.41C109.36 102.79 108.5 102.66 107.76 102.4C107.01 102.14 106.29 101.77 105.51 101.67" fill="#BCBEC0"/>
<path d="M104.71 102.61C105.44 102.12 106.27 101.87 107.13 101.76C107.58 101.7 108.03 101.68 108.48 101.67C108.82 101.66 109.2 101.65 109.52 101.78C109.63 101.83 109.69 101.91 109.78 101.97C109.8 101.99 109.81 102.01 109.81 102.03C109.89 101.93 109.88 101.92 109.79 101.99C109.71 102.02 109.65 102.06 109.56 102.08C109.16 102.2 108.73 102.16 108.33 102.06C107.4 101.83 106.57 101.33 105.62 101.2C105.35 101.16 105.08 101.26 105 101.55C104.94 101.78 105.08 102.13 105.35 102.17C106.29 102.3 107.11 102.79 108.01 103.02C108.8 103.22 109.99 103.3 110.59 102.61C110.91 102.24 110.83 101.71 110.55 101.35C110.31 101.03 109.94 100.83 109.55 100.75C108.74 100.58 107.84 100.66 107.02 100.77C106.02 100.9 105.03 101.18 104.19 101.74C103.67 102.1 104.17 102.96 104.71 102.61Z" fill="#BCBEC0"/>
</g>
<defs>
<clipPath id="clip0">
<rect width="223.61" height="224.83" fill="white"/>
</clipPath>
</defs>
</svg>
