<svg width="298" height="392" viewBox="0 0 298 392" fill="none" xmlns="http://www.w3.org/2000/svg">
<path d="M33.19 274.04L48.99 279.78L57.6 282.66L77.09 326.24H83.65L96.38 325.74L110.74 261.11L73.4 212.28L38.94 225.21L33.19 274.04Z" fill="#1B2217"/>
<path d="M250.45 154.99L235.69 146.22L176.8 199.36L97.82 291.27L94.94 332.92L142.34 368.83L189.73 377.44L242.87 345.85L278.77 210.85L250.45 154.99Z" fill="#2B3323"/>
<path d="M258.67 152C258.67 152 215.58 154.87 206.97 186.47C198.36 218.07 173.97 275.47 173.97 275.47L99.29 291.27H89.2C89.2 291.27 93.52 318.56 79.2 325.74C112.2 332.92 116.54 331.49 116.54 331.49C116.54 331.49 125.15 367.4 165.37 364.49C205.59 361.58 221.37 348.69 235.74 315.66C250.11 282.63 273 216.61 275.9 210.86C278.8 205.11 293.13 176.38 258.67 152Z" fill="#2B3323"/>
<path d="M61.91 275.47C61.91 275.47 46.11 268.29 50.42 276.91C54.73 285.53 67.66 298.46 60.42 304.2C53.18 309.94 34.58 318.56 38.88 324.31C43.18 330.06 63.29 340.1 74.79 328.62C86.29 317.14 96.33 298.46 89.15 291.28C81.97 284.1 61.91 275.47 61.91 275.47Z" fill="white"/>
<path d="M69.24 243.12C69.669 242.75 70.1645 242.465 70.7 242.28C72.47 239.63 73.38 236.21 70.53 235.28C66.22 233.84 53.3 238.15 53.3 238.15C53.3 238.15 48.99 236.71 46.11 243.9C44.9065 247.331 43.9933 250.856 43.38 254.44C44.04 254.17 44.77 253.9 45.56 253.62C53.63 250.79 60.83 245.79 68.95 243.2L69.24 243.12Z" fill="white"/>
<path d="M35.71 274.2C35.23 276.94 35.61 279.32 36.71 280.56C36.1039 278.492 35.7678 276.354 35.71 274.2Z" fill="white"/>
<path d="M199.79 120.37C186.86 144.79 155.26 180.69 133.73 174.94C119.92 171.27 104.34 155.78 94.94 145.14C88.94 146.82 82.88 148.43 77.43 151.27C71.1 154.57 65.76 159.5 60.1 163.79C48.9 172.26 39.7 182.44 33.57 195.2C27.57 207.78 24.67 221.74 22.64 235.46C21.09 246.03 18.77 257.3 20.64 267.86C24.4896 270.528 28.7117 272.614 33.17 274.05C33.17 274.05 36.04 243.89 46.09 239.57C56.14 235.25 66.2 229.52 66.2 229.52C66.2 229.52 97.8 263.99 97.8 268.3V291.3C97.8 291.3 152.37 292.74 168.17 289.87C183.97 287 183.97 239.6 189.71 235.29C195.45 230.98 218.44 150.56 241.41 153.44C264.38 156.32 273 166.33 273 166.33C273 166.33 248.61 129 199.79 120.37Z" fill="#1B2217"/>
<path d="M102.12 355.9C102.12 355.9 102.12 356.53 102.18 357.7C102.79 375.83 107.77 525.55 106.43 528.24L105 531.11L250 532.55C250 532.55 307.45 397.55 296 367.39C284.55 337.23 281.64 289.84 281.64 269.73C281.64 249.62 283.07 192.18 281.64 189.31C280.21 186.44 255.79 274 250 285.53C244.21 297.06 227 355.9 208.35 358.77C189.7 361.64 161 376 142.33 361.64C123.66 347.28 110.74 332.92 103.56 332.92H94.94L102.12 355.9Z" fill="#1B2217"/>
<path d="M108.28 143.64C108.12 143.64 107.96 143.64 107.8 143.64C102.616 143.708 97.471 144.558 92.54 146.16C93.2 147.39 93.99 148.82 94.95 150.49C100.7 160.54 93.52 169.16 102.14 177.78C106.836 182.329 111.064 187.338 114.76 192.73L159.58 163.42L108.28 143.64Z" fill="white"/>
<path d="M192.6 133.3C192.6 133.3 176.8 163.46 143.77 169.2C115.05 192.2 69.09 222.34 69.09 222.34L82 246.75C82 246.75 122.21 212.28 135.14 205.1C148.07 197.92 182.53 173.51 188.27 154.84C194.01 136.17 192.6 133.3 192.6 133.3Z" fill="black"/>
<path d="M53.3 238.14C53.3 238.14 48.99 236.7 46.11 243.89C43.23 251.08 43.24 261.12 38.93 266.89C34.62 272.66 34.62 279.82 37.49 281.25C40.36 282.68 46.11 288.44 51.85 288.44C57.59 288.44 63.34 275.51 66.21 265.44C69.08 255.37 64.78 246.77 67.65 245.33C70.52 243.89 74.84 236.72 70.53 235.28C66.22 233.84 53.3 238.14 53.3 238.14Z" fill="white"/>
<path d="M76.68 234.31C76.68 234.31 67.63 241.77 62.3 249.31C56.97 256.85 0.159973 354.31 0.159973 355.77C0.159973 357.23 5.47997 364.77 9.02997 360.27C12.58 355.77 60.39 284.91 60.39 284.91C60.39 284.91 71.17 282.3 71.17 279.3C71.17 276.3 69.39 264.3 72.95 259.81C76.51 255.32 97.81 223.81 97.81 223.81L76.68 234.31Z" fill="black"/>
<path d="M86 23.38C86 23.38 82 39.94 74.81 44.26C67.62 48.58 61.92 65.8 67.66 83C73.4 100.2 79.48 107.79 79.48 107.79L203.23 78.7C203.23 78.7 215.58 67.22 198.35 41.37C181.12 15.52 165.35 -3.14999 138.03 1.16001C110.71 5.47001 91.48 11.12 86 23.38Z" fill="#513D1B"/>
<path d="M149.52 35.6299C149.52 35.6299 133.72 35.6299 133.72 41.3799C133.72 47.1299 130.84 68.6699 116.48 70.0999C102.12 71.5299 90.63 65.7899 84.89 68.6699C79.15 71.5499 79.14 106 79.14 106C79.14 106 110.74 152 110.74 159.14C110.74 166.28 119.65 182.39 165.46 162.87C195.46 140.47 199.78 120.37 199.78 120.37C199.78 120.37 194.03 107.44 195.47 103.13C196.91 98.8199 202.65 91.6399 202.65 87.3299C202.65 83.0199 205.53 74.4099 198.34 74.4099C191.15 74.4099 191.16 83.0199 191.16 83.0199C191.16 83.0199 186.85 65.7899 182.54 64.3499C178.23 62.9099 165.31 59.9999 165.31 54.2999C165.31 48.5999 168.19 37.0699 149.52 35.6299Z" fill="#E1BF98"/>
<path d="M86.32 87.34C86.32 87.34 96.37 72.98 110.74 75.85C125.11 78.72 120.74 81.6 130.84 78.73C139.46 68.67 143.77 61.49 155.26 62.93C166.75 64.37 171.06 61.49 171.06 71.54C171.06 81.59 166.74 96 156.69 96C146.64 96 136.58 93.13 133.69 84.52C133.69 84.52 127.94 84.52 126.5 87.39C125.06 90.26 122.19 106.06 110.71 107.5C99.23 108.94 93.47 107.5 89.16 100.31C84.85 93.12 86.32 87.34 86.32 87.34Z" fill="#2B2B2B"/>
<path d="M107.87 83.0001C107.87 83.0001 90.63 81.5601 92.07 88.7501C93.51 95.9401 93.51 105.98 102.12 104.54C110.73 103.1 120.79 97.3601 120.79 93.0601C120.79 88.7601 125.1 80.1601 107.87 83.0001Z" fill="#E1BF98"/>
<path d="M163.88 70.1C163.88 70.1 155.26 65.79 149.52 68.67C143.78 71.55 135.16 77.28 136.59 81.59C138.02 85.9 140.9 91.64 149.52 91.64C158.14 91.64 163.88 88.77 165.31 84.46C166.74 80.15 168.19 70.1 163.88 70.1Z" fill="#E1BF98"/>
<path d="M116.48 84.47C116.48 84.47 97.81 87.34 99.25 91.65C100.69 95.96 105 95.96 110.74 93.09C113.874 91.602 116.775 89.6649 119.35 87.34L116.48 84.47Z" fill="#5A3628"/>
<path d="M156.7 75.8501C156.7 75.8501 143.78 77.2901 143.78 80.1601C143.78 83.0301 145.21 85.9101 152.39 84.4701C159.57 83.0301 162.44 78.7301 162.44 78.7301L156.7 75.8501Z" fill="#5A3628"/>
</svg>
