<svg width="432" height="527" viewBox="0 0 432 527" fill="none" xmlns="http://www.w3.org/2000/svg">
<path d="M197.22 228.19C197.22 228.19 216 236.52 257.29 242C298.58 247.48 209.07 291.61 209.07 291.61L182.89 239.25L197.22 228.19Z" fill="white"/>
<path d="M196.66 180C196.66 180 187 207.58 188.4 213.1C189.8 218.62 199.4 236.52 209.07 237.9L218.71 239.28C218.71 239.28 273.83 204.83 279.34 199.28C284.85 193.73 196.66 180 196.66 180Z" fill="#5A3628"/>
<path d="M196.66 174.51L197.55 180.68L218.71 200.69L236.63 207.58L273.83 202.07L286.22 193.81L258.35 192.1L196.66 174.51Z" fill="#42261E"/>
<path d="M120.88 412.9C120.88 412.9 130.52 445.97 130.52 480.41C130.52 514.85 108.47 605.8 109.85 632C111.23 658.2 111.23 654 111.23 654L362 652.65L363.38 524.51L229.73 403.25L142.92 386.72L126.8 386.11L120.88 412.9Z" fill="#0F1827"/>
<path d="M195.28 169C195.28 169 147.06 199.31 129.14 206.21C111.22 213.11 89.14 218.61 64.38 255.81C39.62 293.01 3.75 338.49 2.38 350.89C1.01 363.29 -7.26001 408.76 25.81 422.54C58.88 436.32 74 408.76 74 408.76C74 408.76 47.82 393.61 47.82 389.48C47.82 385.35 43.69 352.27 62.97 346.76C82.25 341.25 91.91 327.47 98.8 326.09C105.69 324.71 149.8 323.34 149.8 326.09C149.8 328.84 152.56 338.5 145.67 341.25C149.8 349.51 232.48 477.67 232.48 477.67C232.48 477.67 246.26 472.15 253.15 477.67C260.04 483.19 260.04 484.56 260.04 484.56C260.04 484.56 287.61 468 295.88 468C302.77 462.49 316.54 451.47 328.95 451.47C339.95 437.69 341.35 436.31 339.95 422.53C338.55 408.75 327.55 372.92 331.69 360.53C335.83 348.14 344.09 332.98 344.09 323.33C344.09 313.68 344.09 277.86 355.09 268.21C366.09 258.56 384.03 248.93 393.68 248.93H403.32C403.32 248.93 364.74 211.72 322.02 191.05C287.57 218.61 229.7 255.82 222.81 266.84C215.92 277.86 211.81 284.76 211.81 284.76C211.81 284.76 203.54 246.17 200.81 237.91C198.08 229.65 192.55 218.62 191.17 211.73C189.79 204.84 199.43 185.55 198.06 177.28C196.69 169.01 195.28 169 195.28 169Z" fill="#0F1827"/>
<path d="M402.35 247.93C402.35 247.93 370.66 243.8 354.13 267.22C337.6 290.64 334.84 326.47 334.84 326.47L322.43 374.69L315.54 449.1L259 483.55C259 483.55 272.78 491.81 272.78 516.62C272.78 541.43 271.4 560.72 276.91 560.72C282.42 560.72 332.03 540.05 347.19 530.41C362.35 520.77 384.39 504.23 391.28 497.33C398.17 490.43 411.95 482.18 420.22 465.64C428.49 449.1 434 394 431.28 362.3C428.56 330.6 418.88 270 402.35 247.93Z" fill="#172334"/>
<rect x="46" y="311" width="137" height="97" fill="#0F1827"/>
<path d="M303.76 174.51C303.76 174.51 265.18 207.59 204.55 250.3C143.92 293.01 146.68 293 146.68 293C146.68 293 143.92 286.1 138.41 290.24C132.9 294.38 131.52 298.51 132.9 302.65C134.28 306.79 109.47 313.65 109.47 321.93C109.47 330.21 103.96 349.49 112.22 361.93C120.48 374.37 194.9 481.8 215.57 517.62C236.24 553.44 248.64 586.52 256.91 587.9C265.18 589.28 292.73 574.12 280.33 556.2C267.93 538.28 210 440.68 177.63 391C145.26 341.32 123.25 337.15 127.39 334.4C131.53 331.65 143.92 319.24 143.92 319.24C143.92 319.24 159.08 321.99 163.21 313.73C167.34 305.47 323.05 191.06 323.05 191.06L303.76 174.51Z" fill="#09090A"/>
<path d="M55.7193 353.251C55.7193 353.251 40.5693 375.251 50.2093 386.321C59.8493 397.391 77.7193 407.011 77.7193 407.011C77.7193 407.011 106.719 423.551 124.599 411.151L142.509 398.741C142.509 398.741 105.309 357.411 108.059 350.521C110.809 343.631 108.059 327.091 116.319 328.521C124.579 329.951 139.719 342.251 143.879 340.871C148.039 339.491 159.039 332.611 152.149 328.471C145.259 324.331 107.149 323.781 104.819 324.061C102.489 324.341 81.8193 343.621 73.5993 345.001C65.3793 346.381 62.5893 343.631 55.7193 353.251Z" fill="white"/>
<path d="M187 479C187 479 180.11 484.51 180.11 499.67C180.11 514.83 170.46 529.98 174.59 534.12C178.72 538.26 196.59 557.54 202.15 558.92C207.71 560.3 220.07 565.81 224.2 565.81C228.33 565.81 233.85 563.06 232.47 554.81C231.09 546.56 218.03 521.44 216.3 519.52C214.57 517.6 204.91 523.11 203.53 512.09C202.15 501.07 199.41 477.66 187 479Z" fill="white"/>
<path d="M232.49 477.66C232.49 477.66 252.91 467.66 263.36 486.45C273.81 505.24 276.58 517.62 269.69 523.13C262.8 528.64 262.44 529.42 262.44 529.42L232.49 477.66Z" fill="white"/>
<path d="M182.88 101.49C182.88 101.49 175.99 111.13 180.13 119.4C184.27 127.67 192.53 134.56 192.53 145.58C192.53 156.6 196.91 174.58 196.91 174.58C196.91 174.58 222.84 202.06 229.73 202.06C236.62 202.06 255.91 207.57 276.58 195.17C297.25 182.77 302.76 174.5 302.76 174.5C302.76 174.5 298.63 145.56 301.38 141.43C304.13 137.3 319.3 116.63 317.92 111.12C316.54 105.61 306.92 75.3001 306.92 75.3001L302.79 46.3601L284.87 32.5801L258.69 35.3301L228.38 57.3301L189.8 64.2201L182.88 101.49Z" fill="#E1BF98"/>
<path d="M225.6 0.900108C225.6 0.900108 196.66 10.5501 185.6 33.9701C174.54 57.3901 176 62.9101 176 76.6901C176 90.4701 181.52 100.11 184.27 105.63C187.02 111.15 188.4 124.91 189.78 124.91C191.16 124.91 189.78 108.38 191.16 100.11C192.54 91.8401 195.29 68.4201 202.16 67.0401C209.03 65.6601 249.01 67.0401 255.9 57.4001C262.79 47.7601 264.17 31.2201 279.33 35.3501C294.49 39.4801 298.62 42.2401 301.33 62.9101C304.04 83.5801 312.33 87.7101 312.33 93.2201C312.33 98.7301 306.82 109.76 310.95 109.76C315.08 109.76 319.22 109.76 319.22 78.0701C319.22 46.3801 316.46 17.4401 280.63 7.79011C244.8 -1.85989 225.6 0.900108 225.6 0.900108Z" fill="#513D1B"/>
<path d="M196.66 75.31C196.66 75.31 199.41 75.31 206.31 71.18C213.21 67.05 225.59 62.91 238 71.18C250.41 79.45 257.28 76.69 257.28 76.69C257.28 76.69 265.55 60.15 279.33 62.91C293.11 65.67 290.33 71.18 295.87 71.18H305.51V80.82C305.51 80.82 300 80.82 298.62 84.95C297.24 89.08 298.62 104.24 297.24 104.24C295.86 104.24 283.46 113.88 272.44 105.62C261.42 97.36 257.28 85 257.28 85H247.64C247.64 85 239.38 111.18 222.84 108.43C206.3 105.68 204.93 101.54 203.55 91.89C202.17 82.24 198.04 80.89 198.04 80.89H193.91V75.38L196.66 75.31Z" fill="#2B2B2B"/>
<path d="M218.71 73.9301C218.71 73.9301 207.71 73.9301 207.71 83.5701C207.71 93.2101 207.71 104.24 217.35 102.86C226.99 101.48 242.15 100.11 240.78 89.0801C239.41 78.0501 236.62 71.1801 218.71 73.9301Z" fill="#E1BF98"/>
<path d="M279.34 75.3101C279.34 75.3101 261.42 75.3101 261.42 82.2001C261.42 89.0901 264.18 100.11 276.58 102.87C288.98 105.63 291.74 102.87 293.12 98.7301C294.5 94.5901 298.63 79.4501 294.5 78.0701C290.37 76.6901 290.36 75.3101 279.34 75.3101Z" fill="#E1BF98"/>
<path d="M232.49 79.4399C232.49 79.4399 217.33 83.5699 215.95 86.3299C215.758 86.6895 215.642 87.0844 215.608 87.4904C215.574 87.8965 215.623 88.3052 215.752 88.6916C215.881 89.0781 216.088 89.4342 216.359 89.7382C216.63 90.0422 216.961 90.2878 217.33 90.4599C217.33 90.4599 232.49 93.2199 236.62 90.4599C240.75 87.6999 242.13 80.8199 232.49 79.4399Z" fill="#5A3628"/>
<path d="M264.18 83.5699C264.18 83.5699 266.93 94.5699 276.58 94.5699C286.23 94.5699 293.12 94.5699 291.74 90.4299C290.36 86.2899 288.98 82.1699 283.47 82.1699C277.96 82.1699 266.94 82.1899 264.18 83.5699Z" fill="#5A3628"/>
</svg>
