<svg width="288" height="401" viewBox="0 0 288 401" fill="none" xmlns="http://www.w3.org/2000/svg">
<path d="M188.91 101.91H183.25L111.06 161.36L120.97 200.99L211.56 128.8L210.15 106.15L188.91 101.91Z" fill="white"/>
<path d="M176.17 100.49C176.17 100.49 193.17 107.57 186.08 128.8C178.99 150.03 152.08 159.94 152.08 159.94L149.25 138.71L176.14 100.49H176.17Z" fill="#CBAE8E"/>
<path d="M53 257.61C53 257.61 50.17 293 48.76 297.25C47.35 301.5 36.01 331.25 36.01 348.25C36.01 365.25 41.67 399.25 41.67 417.61C41.67 435.97 36 455.79 36 491.18V532.23L211.53 530.81L184.63 479.86C184.63 479.86 171.89 482.69 167.63 474.19C163.37 465.69 160.56 468.53 159.14 460.04C157.72 451.55 156.31 445.88 150.65 440.22C144.99 434.56 137.91 414.74 140.75 410.49C143.59 406.24 149.24 394.92 153.49 396.34C157.74 397.76 95.49 273.19 95.49 273.19C95.49 273.19 81.33 276.02 72.84 273.19C64.35 270.36 55.84 253.37 55.84 253.37L53 257.61Z" fill="#3E5162"/>
<path d="M207.11 351C207.11 351 200.23 368 193.11 372.28L186.03 376.53L208.68 394.93C208.68 394.93 242.68 379.36 244.07 376.53C245.46 373.7 246.9 355.29 246.9 355.29L225.66 341.14L207.11 351Z" fill="#D2AE98"/>
<path d="M214.39 308.57L272.39 318.48C272.39 318.48 273.8 346.79 268.14 353.86C262.48 360.93 244.08 379.34 244.08 379.34C244.08 379.34 235.59 346.79 220.01 348.2L204.44 349.62L214.39 308.57Z" fill="#B9B9B9"/>
<path d="M13.72 175.19C13.72 175.19 17.63 186.84 30.37 195.33C43.11 203.82 46 205.24 46 205.24C46 205.24 37.51 223.64 40.34 229.3L43.17 234.96L16.27 232.13L7.78003 185.42L13.72 175.19Z" fill="#B9B9B9"/>
<path d="M46 205.24L44.11 204.1C44.11 204.1 34.67 223.64 34.67 225.05C34.67 226.46 40.33 234.96 40.33 234.96H43.16L46 205.24Z" fill="#D2AE98"/>
<path d="M75.67 89.1701C75.67 89.1701 41.67 101.92 28.96 121.73C16.25 141.54 2.06 145.79 2.06 145.79C2.06 145.79 10.55 162.79 11.97 165.61C13.39 168.43 13.38 179.77 14.8 181.18C16.22 182.59 28.96 196.76 31.8 196.76C34.64 196.76 48.8 192.51 48.8 192.51V202.42C48.8 202.42 47.38 199.59 60.12 203.83C72.86 208.07 91.26 209.49 91.26 212.32C91.26 215.15 96.92 220.81 96.92 220.81C96.92 220.81 105.41 225.06 111.07 232.13C116.73 239.2 118.15 237.79 118.15 244.88C118.15 251.97 125.23 270.36 128.06 274.6C130.89 278.84 171.94 382.18 171.94 382.18C171.94 382.18 183.26 377.93 186.1 376.52C188.94 375.11 200.25 362.36 201.67 358.11C203.09 353.86 214.41 345.37 214.41 339.71C214.41 334.05 210.17 315.65 213 311.4C213 311.4 227.16 328.4 254 324.14C280.84 319.88 288 312.82 288 312.82L283.75 199.58C283.75 199.58 268.18 152.87 225.75 128.8C224.34 113.23 224.34 111.8 224.34 111.8C224.34 111.8 222.92 97.6501 190.34 86.3301L188.92 101.9C188.92 101.9 204.49 108.97 204.49 113.22V120.29C204.49 120.29 173.36 148.61 155 164.19C136.64 179.77 125.28 188.25 125.28 188.25C125.28 188.25 126.69 162.77 123.86 162.77C121.03 162.77 115.37 151.45 112.54 148.61C109.71 145.77 105.47 134.46 105.47 134.46C105.47 134.46 95.56 127.38 94.15 120.3C92.74 113.22 88.49 101.89 85.66 101.89C82.83 101.89 75.67 94.8301 75.67 89.1701Z" fill="#3E5162"/>
<path d="M17.11 135.83L67.62 181.3L44.11 189.05L25.21 191.44L0.0800171 177.22L17.11 135.83Z" fill="#3E5162"/>
<path d="M190.33 86.3401H187.5L181.84 101.91H188.91C188.91 101.91 204.49 108.98 204.49 113.23C204.49 117.48 224.31 110.4 224.31 110.4C224.31 110.4 217.22 93.4201 190.33 86.3401Z" fill="#313D48"/>
<path d="M186.08 376.52C186.08 376.52 208.73 386.42 208.73 390.68V394.92C208.73 394.92 198.83 400.58 200.24 404.83C201.65 409.08 207.32 420.4 203.07 437.38L198.83 454.38L171.93 386.38C171.93 386.38 170.51 380.76 186.08 376.52Z" fill="white"/>
<path d="M154.94 396.34C154.94 396.34 157.77 397.75 157.77 400.58V403.41C157.77 403.41 163.43 404.83 164.84 409.07C166.25 413.31 162.01 416.15 162.01 416.15C162.01 416.15 164.84 417.56 164.84 420.39C164.84 423.22 163.43 443.04 164.84 444.46C166.25 445.88 169.09 444.46 169.09 448.7C169.09 452.94 169.09 457.19 170.5 458.61C171.91 460.03 180.41 464.27 180.41 467.1C180.41 469.93 181.82 479.84 181.82 479.84L177.58 481.26L154.93 465.68L132.28 428.88L135.11 407.65L149.27 393.49L154.94 396.34Z" fill="white"/>
<path d="M89.83 215.15C89.83 215.15 71.42 212.32 74.25 222.23C77.08 232.14 85.58 253.37 88.41 257.61C91.24 261.85 95.49 276 95.49 276L151.16 397.21L211.56 535.04C211.56 535.04 234.21 540.7 231.38 532.21C228.55 523.72 170.52 382.16 170.52 382.16C170.52 382.16 133.72 280.25 129.52 273.16C125.32 266.07 116.77 232.11 116.77 232.11L96.9 212.32L89.83 215.15Z" fill="#09090A"/>
<path d="M54.44 201L46 205.24C46 205.24 36.09 220.81 37.51 226.47C38.2667 229.734 40.0129 232.685 42.51 234.92C42.51 234.92 51.69 233.55 51.69 234.92C51.69 236.29 54.52 260.4 57.35 263.23C60.18 266.06 71.51 278.81 71.51 278.81C71.51 278.81 96.99 274.56 96.99 271.73C96.99 268.9 89.92 257.57 85.67 251.91C81.42 246.25 75.76 236.34 77.18 229.26C78.6 222.18 82.84 219.36 87.09 219.36C89.7118 219.305 92.2241 218.299 94.16 216.53L91.33 206.62L54.44 201Z" fill="white"/>
<path d="M127 0.159949C127 0.159949 76.05 2.98995 71.8 38.38C67.55 73.77 74.67 94.9999 74.67 94.9999L86.31 106.27L141.19 65.2699L188.77 85.0799C188.77 85.0799 202.06 32.71 173.77 15.73C145.48 -1.25004 127 0.159949 127 0.159949Z" fill="#513D1B"/>
<path d="M153.52 35.3799C153.52 35.3799 139.36 36.7899 137.95 45.2799C136.54 53.7699 120.95 69.3499 112.47 67.9299C103.99 66.5099 88.41 65.0999 88.41 69.3499V107.57L94.07 130.22L116.72 158.53C116.72 158.53 147.85 172.69 160.6 151.45C173.35 130.21 177.6 116.07 181.83 110.4C186.06 104.73 191.74 84.9199 188.91 80.6699C186.08 76.4199 184.66 79.2599 179 70.7699C173.34 62.2799 171.93 60.8599 169.1 49.5399C166.27 38.2199 153.52 35.3799 153.52 35.3799Z" fill="#E1BF98"/>
<path d="M89.83 77.8399H92.66C92.66 77.8399 99.73 66.5199 109.66 70.7699C119.59 75.0199 119.56 77.8399 123.82 77.8399C127.159 77.6995 130.475 77.2272 133.72 76.4299C133.72 76.4299 140.8 59.4299 150.72 59.4299C160.64 59.4299 164.88 63.6799 167.72 63.6799C170.56 63.6799 176.21 89.1599 164.89 93.3999C153.57 97.6399 139.41 91.9899 136.58 86.3299C133.75 80.6699 126.67 83.4899 126.67 83.4899C126.67 83.4899 122.43 103.31 111.1 103.31C99.77 103.31 95.53 99.0699 94.1 93.4099C92.9254 89.0842 91.5098 84.8276 89.86 80.6599H87L89.83 77.8399Z" fill="#2B2B2B"/>
<path d="M102.56 76.43C102.56 76.43 94.07 80.67 96.9 87.75C99.73 94.83 99.73 99.0701 106.81 99.0701C113.89 99.0701 119.55 93.41 120.97 87.75C122.39 82.09 116.72 73.6 102.56 76.43Z" fill="#E1BF98"/>
<path d="M136.54 79.26C137.521 76.3055 139.429 73.7458 141.979 71.9607C144.53 70.1756 147.588 69.2601 150.7 69.35C162.03 69.35 163.44 70.77 163.44 75.01C163.44 79.25 167.69 87.76 159.2 90.59C150.71 93.42 143.62 94.83 136.54 79.26Z" fill="#E1BF98"/>
<path d="M116.72 79.26C116.72 79.26 103.98 80.67 102.56 83.5C101.14 86.33 101.15 89.17 105.39 89.17C109.63 89.17 118.14 84.92 119.55 82.09C120.96 79.26 116.72 79.26 116.72 79.26Z" fill="#5A3628"/>
<path d="M147.86 76.4301C147.86 76.4301 142.2 76.4301 142.2 79.2601C142.2 82.0901 145.03 84.9201 149.28 84.9201C153.53 84.9201 159.18 80.6701 160.6 79.2601C162.02 77.8501 162 73.6001 147.86 76.4301Z" fill="#5A3628"/>
</svg>
