<svg width="632" height="417" viewBox="0 0 632 417" fill="none" xmlns="http://www.w3.org/2000/svg">
<path d="M485.732 213.232C484.756 214.209 484.756 215.791 485.732 216.768L501.642 232.678C502.618 233.654 504.201 233.654 505.178 232.678C506.154 231.701 506.154 230.118 505.178 229.142L491.036 215L505.178 200.858C506.154 199.882 506.154 198.299 505.178 197.322C504.201 196.346 502.618 196.346 501.642 197.322L485.732 213.232ZM626.958 166.558C623.797 171.033 617.636 176.202 608.908 181.461C600.235 186.687 589.224 191.885 576.584 196.492C551.298 205.709 519.669 212.5 487.5 212.5V217.5C520.331 217.5 552.539 210.579 578.296 201.19C591.178 196.494 602.49 191.166 611.489 185.744C620.432 180.355 627.29 174.755 631.042 169.442L626.958 166.558Z" fill="#FAEB9D"/>
<path d="M140.956 91.1451C142.297 90.8134 143.114 89.4581 142.783 88.1178L137.378 66.2764C137.047 64.9361 135.691 64.1185 134.351 64.4501C133.011 64.7817 132.193 66.1371 132.525 67.4774L137.329 86.8919L117.914 91.6956C116.574 92.0272 115.756 93.3826 116.088 94.7229C116.419 96.0632 117.775 96.8809 119.115 96.5493L140.956 91.1451ZM20.8906 52.4458C32.5969 52.9586 52.1492 56.5185 73.8482 63.0099C95.5242 69.4944 119.159 78.8501 139.064 90.8589L141.647 86.5776C121.275 74.287 97.2199 64.7828 75.2813 58.2196C53.3657 51.6634 33.379 47.988 21.1094 47.4506L20.8906 52.4458Z" fill="#FAEB9D"/>
<path d="M164.214 328.827C163.751 327.526 162.322 326.846 161.021 327.309L139.821 334.846C138.52 335.309 137.84 336.738 138.303 338.039C138.765 339.34 140.195 340.02 141.496 339.557L160.34 332.858L167.04 351.702C167.502 353.003 168.932 353.683 170.233 353.22C171.534 352.758 172.214 351.328 171.751 350.027L164.214 328.827ZM92.5017 407.791C113.876 398.443 126.941 389.587 137.122 377.701C147.227 365.904 154.363 351.252 164.116 330.738L159.6 328.591C149.78 349.246 142.916 363.25 133.325 374.448C123.809 385.557 111.481 394.034 90.4983 403.209L92.5017 407.791Z" fill="#FAEB9D"/>
<path d="M484.792 289.441C483.416 289.557 482.394 290.765 482.509 292.141L484.386 314.563C484.501 315.939 485.71 316.961 487.085 316.846C488.461 316.73 489.483 315.522 489.368 314.146L487.7 294.215L507.63 292.547C509.006 292.432 510.028 291.223 509.913 289.847C509.798 288.471 508.589 287.449 507.213 287.565L484.792 289.441ZM600.926 341.951C577.577 337.149 522.065 319.998 486.614 290.024L483.386 293.842C519.777 324.611 576.253 341.982 599.918 346.849L600.926 341.951Z" fill="#FAEB9D"/>
<path d="M466.03 93.51C465.18 94.5977 465.372 96.1689 466.46 97.0193L484.186 110.878C485.273 111.728 486.845 111.536 487.695 110.448C488.545 109.36 488.353 107.789 487.265 106.939L471.509 94.6201L483.828 78.864C484.678 77.7763 484.486 76.2051 483.398 75.3547C482.31 74.5043 480.739 74.6967 479.889 75.7844L466.03 93.51ZM583.468 43.9847C564.08 57.8524 513.776 86.9261 467.696 92.5683L468.304 97.5313C515.606 91.7394 566.726 62.1073 586.377 48.0515L583.468 43.9847Z" fill="#FAEB9D"/>
<path d="M138.418 224.393C139.663 224.992 140.187 226.485 139.588 227.73L129.839 248.008C129.241 249.252 127.747 249.776 126.503 249.178C125.259 248.58 124.735 247.086 125.333 245.842L133.999 227.817L115.974 219.151C114.729 218.553 114.206 217.059 114.804 215.814C115.402 214.57 116.896 214.046 118.14 214.645L138.418 224.393ZM2.24034 232.323C16.7899 233.727 41.0238 235.011 66.3354 234.285C91.7056 233.556 117.897 230.813 136.508 224.287L138.162 229.006C118.792 235.798 91.9595 238.551 66.4789 239.283C40.9398 240.016 16.4966 238.722 1.75978 237.299L2.24034 232.323Z" fill="#FAEB9D"/>
</svg>
