<svg width="118" height="118" viewBox="0 0 118 118" fill="none" xmlns="http://www.w3.org/2000/svg">
<path d="M54.4956 115.678C53.9074 116.613 52.6726 116.894 51.7377 116.306C50.8028 115.718 50.5219 114.483 51.1101 113.548L54.4956 115.678ZM58.8801 7.55118C59.3419 6.54775 60.5296 6.1086 61.533 6.57032L77.885 14.0945C78.8884 14.5563 79.3276 15.744 78.8658 16.7475C78.4041 17.7509 77.2164 18.19 76.2129 17.7283L61.6779 11.0401L54.9897 25.5752C54.528 26.5786 53.3402 27.0178 52.3368 26.556C51.3333 26.0943 50.8942 24.9066 51.3559 23.9031L58.8801 7.55118ZM51.1101 113.548C64.0374 93.0042 67.2007 70.1954 66.4933 50.795C65.7857 31.3903 61.2091 15.5395 58.8211 9.08078L62.5729 7.69364C65.08 14.4745 69.7648 30.7463 70.4906 50.6493C71.2165 70.5567 67.9852 94.2409 54.4956 115.678L51.1101 113.548Z" fill="#D86B8C"/>
</svg>
