<svg width="67" height="46" viewBox="0 0 67 46" fill="none" xmlns="http://www.w3.org/2000/svg">
<path d="M65 46C65.8284 46 66.5 45.3284 66.5 44.5C66.5 43.6716 65.8284 43 65 43V46ZM9.83205 0.751925C9.14276 0.292396 8.21145 0.478657 7.75192 1.16795L0.263472 12.4006C-0.196056 13.0899 -0.00979614 14.0212 0.679497 14.4808C1.36879 14.9403 2.30009 14.754 2.75962 14.0647L9.41603 4.08013L19.4006 10.7365C20.0899 11.1961 21.0212 11.0098 21.4808 10.3205C21.9403 9.63121 21.754 8.69991 21.0647 8.24038L9.83205 0.751925ZM65 43C36.1859 43 14.825 23.4765 10.4709 1.70583L7.52913 2.29417C12.175 25.5235 34.8141 46 65 46V43Z" fill="#D86B8C"/>
</svg>
