<svg width="241" height="146" viewBox="0 0 241 146" fill="none" xmlns="http://www.w3.org/2000/svg">
<path fill-rule="evenodd" clip-rule="evenodd" d="M19.5719 81.032C23.5603 74.3644 54.9123 73.9557 54.9123 73.9557C54.651 69.8972 67.95 60.426 69.1021 59.6055C69.1542 59.5684 69.1815 59.549 69.1815 59.5486L69.6732 70.1495L75.1914 70.1404C75.1914 70.1404 76.7941 41.6442 81.857 31.8972C86.92 22.1502 85.9365 36.8025 85.9365 36.8025L79.7353 68.905L85.3629 69.8043L93.2578 15.7733C104.649 -0.359754 104.64 17.7172 104.64 17.7172L97.3008 70.7218L100.706 74.2009C100.706 74.2009 109.712 19.2161 113.082 6.99821C116.46 -5.21964 126.44 2.27458 126.44 2.27458C126.44 2.27458 113.528 46.6676 113.018 61.7741C112.508 76.8807 115.595 71.1033 115.595 71.1033L134.016 1.73863C144.506 -1.72234 146.182 9.97773 146.182 9.97773L126.64 73.0836L132.523 76.3901C132.523 76.3901 150.043 10.9406 155.142 13.2661C160.233 15.5916 161.899 29.599 161.899 29.599L146.273 77.026L152.365 80.3689C152.365 80.3689 161.781 33.2507 167.108 46.0408C172.435 58.8219 167.016 81.4771 167.016 81.4771L172.143 87.1727L176.878 74.1646C176.878 74.1646 184.882 77.9072 190.92 84.3476C196.957 90.7881 238.089 114.824 238.089 114.824C244.827 121.019 237.233 122.291 237.233 122.291C237.233 122.291 181.85 110.5 176.359 108.157C170.868 105.813 169.411 118.703 169.411 118.703L166.998 138.115C158.894 149.697 159.112 137.071 159.112 137.071L157.938 122.509C147.448 111.372 145.007 126.188 145.007 126.188L143.887 141.395C143.887 141.395 138.515 152.232 136.575 138.115C134.636 123.999 127.214 116.859 127.214 116.859C127.214 116.859 104.995 108.62 100.533 113.48C96.8527 117.481 95.6382 131.497 95.0088 138.76C94.8753 140.302 94.768 141.539 94.6692 142.312C94.1046 146.727 85.9274 143.811 85.9274 143.811C85.9274 143.811 85.5359 129.213 83.1319 128.686C80.7279 128.159 80.8554 139.551 80.8554 139.551C74.7635 152.586 69.5366 138.215 69.5366 138.215C69.5366 138.215 66.6318 129.813 62.8073 117.431C58.9827 105.05 48.7112 110.319 48.7112 110.319C48.7112 110.319 31.1183 122.137 12.5876 117.213C-1.64177 113.433 -0.590233 110.396 0.693474 106.69C1.08152 105.57 1.49079 104.388 1.50558 103.106C1.56022 97.5829 19.5719 81.032 19.5719 81.032ZM119.937 94.8239C119.937 93.4559 119.661 92.2199 119.109 91.1159C118.653 90.2039 118.029 89.4959 117.237 88.9919C117.141 88.9199 117.141 88.8359 117.237 88.7399C117.813 88.3079 118.305 87.7799 118.713 87.1559C119.337 86.1719 119.649 85.0559 119.649 83.8079C119.649 82.1759 119.169 80.7359 118.209 79.4879C117.513 78.5759 116.601 77.8559 115.473 77.3279C114.345 76.7999 113.049 76.5359 111.585 76.5359C110.169 76.5359 108.873 76.7999 107.697 77.3279C106.545 77.8319 105.621 78.5519 104.925 79.4879C103.965 80.6639 103.485 82.1039 103.485 83.8079C103.485 85.0079 103.761 86.0879 104.313 87.0479C104.721 87.7679 105.213 88.3439 105.789 88.7759C105.885 88.8719 105.885 88.9559 105.789 89.0279C104.997 89.5559 104.397 90.2399 103.989 91.0799C103.437 92.2319 103.161 93.4679 103.161 94.7879C103.161 96.1319 103.449 97.3679 104.025 98.4959C104.697 99.7919 105.705 100.788 107.049 101.484C108.393 102.156 109.905 102.492 111.585 102.492C113.361 102.492 114.885 102.144 116.157 101.448C117.453 100.728 118.413 99.7559 119.037 98.5319C119.637 97.4999 119.937 96.2639 119.937 94.8239ZM108.525 83.9879C108.525 83.4599 108.645 82.9559 108.885 82.4759C109.125 81.9719 109.473 81.5879 109.929 81.3239C110.409 81.0359 110.937 80.8919 111.513 80.8919C112.161 80.8919 112.725 81.0359 113.205 81.3239C113.685 81.5879 114.045 81.9599 114.285 82.4399C114.525 82.9199 114.645 83.4239 114.645 83.9519C114.645 84.6959 114.489 85.3319 114.177 85.8599C113.577 86.7239 112.701 87.1559 111.549 87.1559C110.397 87.1559 109.545 86.7239 108.993 85.8599C108.681 85.3079 108.525 84.6839 108.525 83.9879ZM114.825 94.3559C114.825 95.3879 114.597 96.2279 114.141 96.8759C113.589 97.7159 112.737 98.1359 111.585 98.1359C110.385 98.1359 109.509 97.6799 108.957 96.7679C108.549 96.1439 108.345 95.3639 108.345 94.4279C108.345 93.4679 108.525 92.6879 108.885 92.0879C109.413 91.1039 110.301 90.6119 111.549 90.6119C112.869 90.6119 113.793 91.1159 114.321 92.1239C114.657 92.7239 114.825 93.4679 114.825 94.3559Z" fill="#043A2E"/>
</svg>
