<svg width="420" height="423" viewBox="0 0 420 423" fill="none" xmlns="http://www.w3.org/2000/svg">
<path d="M280.804 35.825L388.568 118.412V208.96H419.322L414.362 260.705L304.225 352.251C304.225 352.251 294.412 371.157 293.363 382.103C292.315 393.05 222.86 421.904 219.891 422.902C216.914 423.901 123.647 416.93 123.647 416.93L107.186 389.422C107.186 389.422 72.5653 364.195 74.2897 371.157C76.0318 378.119 55.1973 342.294 55.1973 342.294C55.1973 342.294 15.5104 321.4 13.5282 315.427C11.5461 309.455 23.4477 300.505 18.8524 279.584C8.71957 233.509 0 247.263 0 247.263L25.4299 190.044C25.4299 190.044 13.5193 79.5922 22.4522 77.6044C31.3851 75.6166 84.9647 68.6459 84.9647 68.6459L121.674 40.7811L183.333 0C183.333 0 222.878 9.94791 222.878 12.9341C222.878 15.9202 280.804 35.825 280.804 35.825Z" fill="#A99803"/>
<path d="M132.374 312.84C132.374 312.84 173.056 301.925 187.935 245.368C187.935 245.368 154.204 296.965 120.463 299.943" stroke="#766A00" stroke-miterlimit="10"/>
<path d="M202.815 279.108C202.815 279.108 213.73 267.198 222.663 240.417C222.663 240.417 227.622 269.189 218.689 279.108" stroke="#766A00" stroke-miterlimit="10"/>
<path d="M274.26 285.064C274.26 285.064 247.47 268.194 256.403 245.377C256.403 245.377 274.26 284.068 287.157 279.109" stroke="#766A00" stroke-miterlimit="10"/>
<path d="M171.065 226.524C171.065 226.524 136.338 259.269 136.338 265.216C136.338 265.216 204.797 237.43 222.663 240.408C222.663 240.408 219.685 257.278 256.394 245.368C256.394 245.368 279.211 243.386 263.336 231.475C263.336 231.475 254.51 209.645 236.6 211.627C236.6 211.627 160.15 215.6 146.257 219.565C132.365 223.529 115.503 228.506 136.338 229.502C157.181 230.489 171.065 226.524 171.065 226.524Z" fill="#766A00"/>
<path d="M101.278 117V56L85.2783 68L72.2783 71V137L120.278 180L101.278 117Z" fill="#F0E68B"/>
<path d="M299.278 154L281.278 38L387.278 119L299.278 154Z" fill="#F0E68B"/>
<path d="M227.278 131L183.278 11L219.278 82L227.278 131Z" fill="#F0E68B"/>
<path d="M112.278 241L10.2783 250L17.2783 271V301L99.2783 264L112.278 241Z" fill="#918414"/>
<path d="M153.278 330L55.2783 342L74.2783 373L108.278 391L153.278 330Z" fill="#F0E68B"/>
<path d="M232.278 321L304.278 347L295.278 385L232.278 321Z" fill="#F0E68B"/>
<path d="M36.2783 132L57.2783 149L25.2783 85L36.2783 132Z" fill="#F0E68B"/>
<path d="M325.278 162L379.278 149L343.278 175L325.278 162Z" fill="#F0E68B"/>
<path d="M213.278 106L177.278 11V129L213.278 106Z" fill="#908414"/>
<path d="M335.278 240L307.278 348L415.278 261V211H389.278L335.278 240Z" fill="#908414"/>
<path d="M228.278 421L233.278 325L290.278 386L228.278 421Z" fill="#908414"/>
</svg>
