<svg width="331" height="205" viewBox="0 0 331 205" fill="none" xmlns="http://www.w3.org/2000/svg">
<path d="M224.149 182.06C218.95 162.023 211.508 124.429 211.508 124.429C221.947 122.678 232.191 114.393 232.191 114.393C232.191 114.393 234.232 117.541 247.53 125.33C260.829 133.12 251.231 144.217 251.231 144.217C259.175 147.319 266.971 132.69 252.328 121.92C237.685 111.151 238.836 107.596 238.836 107.596C238.836 107.596 255.901 108.919 268.068 110.391C280.236 111.859 271.264 127.091 271.264 127.091C271.264 127.091 279.184 131.514 280.455 121.351C281.727 111.189 268.933 105.585 268.933 105.585L244.74 98.9935C262.015 84.1488 260.425 64.4458 261.429 51.7132C262.433 38.9805 270.643 40.3759 270.643 40.3759C270.643 40.3759 274.89 41.6986 287.274 39.8279C299.657 37.9573 289.959 32.9578 289.959 32.9578L276.972 25.096C276.972 25.096 277.236 23.3903 289.546 16.931C301.856 10.4716 292.782 5.32579 292.782 5.32579C273.222 4.5732 261.8 9.18527 261.8 9.18527C249.967 6.32326 248.554 15.8605 248.554 15.8605C234.776 24.499 238.553 40.8698 240.07 55.984C241.586 71.0983 224.523 69.7722 224.523 69.7722C197.406 70.4371 180.923 84.4388 180.923 84.4388C171.517 84.9644 154.438 93.8399 154.438 93.8399C154.438 93.8399 130.096 94.8514 99.8076 81.7709C69.5189 68.6905 45.7611 76.8045 45.7611 76.8045C11.1817 86.4288 0.342072 114.921 0.342072 114.921C18.5261 92.6293 37.5555 88.2382 52.3859 84.158C67.2162 80.0779 78.7129 88.6125 95.9229 99.1159C113.133 109.622 153.284 122.761 167.324 123.766C186.368 125.13 193.694 184.646 193.694 184.646C193.694 184.646 195.298 189.457 202.207 187.371C209.116 185.284 193.713 137.747 193.713 137.747C193.713 137.747 188.166 128.663 197.985 126.674C200.279 126.209 207.118 147.859 208.796 160.848C209.42 165.671 213.114 181.873 215.84 184.363C219.787 187.959 224.988 185.287 224.149 182.06Z" fill="#043A2E"/>
</svg>
