<svg width="567" height="351" viewBox="0 0 567 351" fill="none" xmlns="http://www.w3.org/2000/svg">
<path d="M400.474 238.715C400.474 238.715 411.679 239.442 400.474 273.989C389.269 308.536 449.064 370.057 467.81 345.228C467.81 345.228 435.084 297.54 490.61 227.471C490.61 227.471 517.858 241.18 531.997 254.729C546.137 268.278 509.374 209.914 509.374 209.914C509.374 209.914 528.707 180.51 524.687 160.187L536.995 148.234C536.995 148.234 557.661 157.899 558.853 155.611C560.045 153.323 553.891 130.144 553.891 130.144C553.891 130.144 577.421 127.591 561.432 94.6754C561.432 94.6754 555.065 71.3368 498.312 113.066C441.558 154.795 392.417 137.256 392.417 137.256C392.417 137.256 367.429 117.234 375.041 59.1355C382.653 1.03729 359.71 12.6357 359.71 12.6357C359.71 12.6357 344.486 8.98234 347.189 51.8644C349.892 94.7464 337.852 98.2578 337.852 98.2578C337.852 98.2578 330.755 92.7424 327.91 56.4576C325.082 20.1728 310.302 13.7352 310.302 13.7352C310.302 13.7352 298.386 9.40798 296.803 66.6017C295.22 123.795 239.036 107.515 239.036 107.515C239.036 107.515 199.161 105.458 197.4 82.9352C195.639 60.4124 198.005 -5.73724 173.817 1.53391C173.817 1.53391 161.918 3.11228 169.904 35.7792C177.89 68.4462 158.415 90.366 158.415 90.366C158.415 90.366 147.512 99.6589 148.579 54.2408C149.646 8.82277 140.86 5.6483 140.86 5.6483C140.86 5.6483 120.585 -18.4529 126.027 72.4187C126.027 72.4187 140.86 124.381 119.429 126.243C97.9976 128.105 14.4061 114.113 -3.58956e-05 145.68C-3.58956e-05 145.68 65.8237 145.237 112.226 198.706C158.628 252.176 187.28 276.33 187.28 276.33C187.28 276.33 240.014 310.575 293.779 284.984C347.545 259.393 376.126 242.209 376.197 238.378C376.268 234.53 400.474 238.715 400.474 238.715Z" fill="#043A2E"/>
</svg>
