<svg width="300" height="366" viewBox="0 0 300 366" fill="none" xmlns="http://www.w3.org/2000/svg">
<path d="M217.901 125.578C217.901 125.578 148.321 65.2975 134.931 167.998C121.541 270.698 158.371 315.348 158.371 315.348C158.371 315.348 229.671 423.808 286.161 321.348C338.101 227.158 217.901 125.578 217.901 125.578Z" fill="#C4C4C4"/>
<path d="M224.24 339.93C227.46 339.93 227.46 334.93 224.24 334.93C221.03 334.93 221.02 339.93 224.24 339.93Z" fill="#B1A9A9"/>
<path d="M252.18 332.61C255.4 332.61 255.4 327.61 252.18 327.61C248.96 327.61 248.95 332.61 252.18 332.61Z" fill="#B1A9A9"/>
<path d="M242.2 355.23C245.42 355.23 245.42 350.23 242.2 350.23C238.98 350.23 238.98 355.23 242.2 355.23Z" fill="#B1A9A9"/>
<path d="M236.221 341.26C239.441 341.26 239.441 336.26 236.221 336.26C233.001 336.26 232.991 341.26 236.221 341.26Z" fill="#B1A9A9"/>
<path d="M228.9 360.55C232.12 360.55 232.12 355.55 228.9 355.55C225.68 355.55 225.68 360.55 228.9 360.55Z" fill="#B1A9A9"/>
<path d="M205.62 353.9C208.84 353.9 208.84 348.9 205.62 348.9C202.4 348.9 202.4 353.9 205.62 353.9Z" fill="#B1A9A9"/>
<path d="M232.89 352.57C236.11 352.57 236.11 347.57 232.89 347.57C229.67 347.57 229.67 352.57 232.89 352.57Z" fill="#B1A9A9"/>
<path d="M218.26 351.9C221.48 351.9 221.48 346.9 218.26 346.9C215.04 346.9 215.04 351.9 218.26 351.9Z" fill="#B1A9A9"/>
<path d="M208.95 337.27C212.17 337.27 212.17 332.27 208.95 332.27C205.73 332.27 205.72 337.27 208.95 337.27Z" fill="#B1A9A9"/>
<path d="M190.99 344.59C194.21 344.59 194.21 339.59 190.99 339.59C187.77 339.59 187.77 344.59 190.99 344.59Z" fill="#B1A9A9"/>
<path d="M191.651 321.31C194.871 321.31 194.871 316.31 191.651 316.31C188.441 316.31 188.431 321.31 191.651 321.31Z" fill="#B1A9A9"/>
<path d="M222.25 287.39C225.47 287.39 225.47 282.39 222.25 282.39C219.03 282.39 219.03 287.39 222.25 287.39Z" fill="#B1A9A9"/>
<path d="M211.61 277.41C214.83 277.41 214.83 272.41 211.61 272.41C208.39 272.41 208.38 277.41 211.61 277.41Z" fill="#B1A9A9"/>
<path d="M179.68 267.44C182.9 267.44 182.9 262.44 179.68 262.44C176.47 262.44 176.46 267.44 179.68 267.44Z" fill="#B1A9A9"/>
<path d="M187 234.18C190.22 234.18 190.22 229.18 187 229.18C183.78 229.18 183.78 234.18 187 234.18Z" fill="#B1A9A9"/>
<path d="M257.5 220.88C260.72 220.88 260.72 215.88 257.5 215.88C254.28 215.88 254.28 220.88 257.5 220.88Z" fill="#B1A9A9"/>
<path d="M269.47 242.83C272.69 242.83 272.69 237.83 269.47 237.83C266.25 237.83 266.25 242.83 269.47 242.83Z" fill="#B1A9A9"/>
<path d="M256.17 349.91C259.39 349.91 259.39 344.91 256.17 344.91C252.95 344.91 252.95 349.91 256.17 349.91Z" fill="#B1A9A9"/>
<path d="M270.13 333.95C273.35 333.95 273.35 328.95 270.13 328.95C266.92 328.95 266.91 333.95 270.13 333.95Z" fill="#B1A9A9"/>
<path d="M250.85 357.89C254.07 357.89 254.07 352.89 250.85 352.89C247.63 352.89 247.62 357.89 250.85 357.89Z" fill="#B1A9A9"/>
<path d="M244.86 352.57C248.08 352.57 248.08 347.57 244.86 347.57C241.64 347.57 241.64 352.57 244.86 352.57Z" fill="#B1A9A9"/>
<path d="M258.83 349.91C262.05 349.91 262.05 344.91 258.83 344.91C255.61 344.91 255.61 349.91 258.83 349.91Z" fill="#B1A9A9"/>
<path d="M264.81 339.93C268.03 339.93 268.03 334.93 264.81 334.93C261.6 334.93 261.59 339.93 264.81 339.93Z" fill="#B1A9A9"/>
<path d="M254.84 341.93C258.06 341.93 258.06 336.93 254.84 336.93C251.62 336.93 251.61 341.93 254.84 341.93Z" fill="#B1A9A9"/>
<path d="M241.54 341.93C244.76 341.93 244.76 336.93 241.54 336.93C238.32 336.93 238.31 341.93 241.54 341.93Z" fill="#B1A9A9"/>
<path d="M246.86 333.28C250.08 333.28 250.08 328.28 246.86 328.28C243.64 328.28 243.63 333.28 246.86 333.28Z" fill="#B1A9A9"/>
<path d="M270.13 321.97C273.35 321.97 273.35 316.97 270.13 316.97C266.92 316.97 266.91 321.97 270.13 321.97Z" fill="#B1A9A9"/>
<path d="M262.82 329.29C266.04 329.29 266.04 324.29 262.82 324.29C259.6 324.29 259.6 329.29 262.82 329.29Z" fill="#B1A9A9"/>
<path d="M250.18 349.91C253.4 349.91 253.4 344.91 250.18 344.91C246.96 344.91 246.96 349.91 250.18 349.91Z" fill="#B1A9A9"/>
<path d="M248.85 356.56C252.07 356.56 252.07 351.56 248.85 351.56C245.63 351.56 245.63 356.56 248.85 356.56Z" fill="#B1A9A9"/>
<path d="M243.53 356.56C246.75 356.56 246.75 351.56 243.53 351.56C240.31 351.56 240.31 356.56 243.53 356.56Z" fill="#B1A9A9"/>
<path d="M234.22 358.55C237.44 358.55 237.44 353.55 234.22 353.55C231 353.55 231 358.55 234.22 358.55Z" fill="#B1A9A9"/>
<path d="M234.22 353.23C237.44 353.23 237.44 348.23 234.22 348.23C231 348.23 231 353.23 234.22 353.23Z" fill="#B1A9A9"/>
<path d="M240.21 353.23C243.43 353.23 243.43 348.23 240.21 348.23C236.99 348.23 236.98 353.23 240.21 353.23Z" fill="#B1A9A9"/>
<path d="M238.21 347.25C241.43 347.25 241.43 342.25 238.21 342.25C234.99 342.25 234.99 347.25 238.21 347.25Z" fill="#B1A9A9"/>
<path d="M228.9 352.57C232.12 352.57 232.12 347.57 228.9 347.57C225.68 347.57 225.68 352.57 228.9 352.57Z" fill="#B1A9A9"/>
<path d="M224.24 356.56C227.46 356.56 227.46 351.56 224.24 351.56C221.03 351.56 221.02 356.56 224.24 356.56Z" fill="#B1A9A9"/>
<path d="M216.93 358.55C220.15 358.55 220.15 353.55 216.93 353.55C213.71 353.55 213.71 358.55 216.93 358.55Z" fill="#B1A9A9"/>
<path d="M215.6 353.9C218.82 353.9 218.82 348.9 215.6 348.9C212.38 348.9 212.38 353.9 215.6 353.9Z" fill="#B1A9A9"/>
<path d="M227.57 345.92C230.79 345.92 230.79 340.92 227.57 340.92C224.35 340.92 224.35 345.92 227.57 345.92Z" fill="#B1A9A9"/>
<path d="M208.28 345.92C211.5 345.92 211.5 340.92 208.28 340.92C205.06 340.92 205.06 345.92 208.28 345.92Z" fill="#B1A9A9"/>
<path d="M196.98 345.25C200.2 345.25 200.2 340.25 196.98 340.25C193.76 340.25 193.75 345.25 196.98 345.25Z" fill="#B1A9A9"/>
<path d="M196.98 335.28C200.2 335.28 200.2 330.28 196.98 330.28C193.76 330.28 193.75 335.28 196.98 335.28Z" fill="#B1A9A9"/>
<path d="M188.33 335.28C191.55 335.28 191.55 330.28 188.33 330.28C185.11 330.28 185.11 335.28 188.33 335.28Z" fill="#B1A9A9"/>
<path d="M189.66 342.59C192.88 342.59 192.88 337.59 189.66 337.59C186.44 337.59 186.44 342.59 189.66 342.59Z" fill="#B1A9A9"/>
<path d="M224.91 323.97C228.13 323.97 228.13 318.97 224.91 318.97C221.69 318.97 221.69 323.97 224.91 323.97Z" fill="#B1A9A9"/>
<path d="M238.21 319.98C241.43 319.98 241.43 314.98 238.21 314.98C234.99 314.98 234.99 319.98 238.21 319.98Z" fill="#B1A9A9"/>
<path d="M285.43 290.71C288.65 290.71 288.65 285.71 285.43 285.71C282.21 285.71 282.21 290.71 285.43 290.71Z" fill="#B1A9A9"/>
<path d="M276.12 286.06C279.34 286.06 279.34 281.06 276.12 281.06C272.9 281.06 272.9 286.06 276.12 286.06Z" fill="#B1A9A9"/>
<path d="M262.82 301.36C266.04 301.36 266.04 296.36 262.82 296.36C259.6 296.36 259.6 301.36 262.82 301.36Z" fill="#B1A9A9"/>
<path d="M254.84 280.07C258.06 280.07 258.06 275.07 254.84 275.07C251.62 275.07 251.61 280.07 254.84 280.07Z" fill="#B1A9A9"/>
<path d="M226.24 269.43C229.46 269.43 229.46 264.43 226.24 264.43C223.02 264.43 223.02 269.43 226.24 269.43Z" fill="#B1A9A9"/>
<path d="M242.2 240.17C245.42 240.17 245.42 235.17 242.2 235.17C238.98 235.17 238.98 240.17 242.2 240.17Z" fill="#B1A9A9"/>
<path d="M281.44 270.76C284.66 270.76 284.66 265.76 281.44 265.76C278.22 265.76 278.22 270.76 281.44 270.76Z" fill="#B1A9A9"/>
<path d="M226.901 298.7C230.121 298.7 230.121 293.7 226.901 293.7C223.691 293.7 223.681 298.7 226.901 298.7Z" fill="#B1A9A9"/>
<path d="M200.971 317.32C204.191 317.32 204.191 312.32 200.971 312.32C197.751 312.32 197.741 317.32 200.971 317.32Z" fill="#B1A9A9"/>
<path d="M196.98 293.38C200.2 293.38 200.2 288.38 196.98 288.38C193.76 288.38 193.75 293.38 196.98 293.38Z" fill="#B1A9A9"/>
<path d="M165.721 298.03C168.941 298.03 168.941 293.03 165.721 293.03C162.501 293.03 162.491 298.03 165.721 298.03Z" fill="#B1A9A9"/>
<path d="M152.41 272.76C155.63 272.76 155.63 267.76 152.41 267.76C149.2 267.76 149.19 272.76 152.41 272.76Z" fill="#B1A9A9"/>
<path d="M152.41 249.48C155.63 249.48 155.63 244.48 152.41 244.48C149.2 244.48 149.19 249.48 152.41 249.48Z" fill="#B1A9A9"/>
<path d="M165.721 230.19C168.941 230.19 168.941 225.19 165.721 225.19C162.501 225.19 162.491 230.19 165.721 230.19Z" fill="#B1A9A9"/>
<path d="M284.1 318.65C287.32 318.65 287.32 313.65 284.1 313.65C280.88 313.65 280.88 318.65 284.1 318.65Z" fill="#B1A9A9"/>
<path d="M281.44 305.35C284.66 305.35 284.66 300.35 281.44 300.35C278.22 300.35 278.22 305.35 281.44 305.35Z" fill="#B1A9A9"/>
<path d="M267.47 315.99C270.69 315.99 270.69 310.99 267.47 310.99C264.26 310.99 264.25 315.99 267.47 315.99Z" fill="#B1A9A9"/>
<path d="M260.16 314.66C263.38 314.66 263.38 309.66 260.16 309.66C256.94 309.66 256.94 314.66 260.16 314.66Z" fill="#B1A9A9"/>
<path d="M256.83 323.3C260.05 323.3 260.05 318.3 256.83 318.3C253.62 318.3 253.61 323.3 256.83 323.3Z" fill="#B1A9A9"/>
<path d="M239.54 323.3C242.76 323.3 242.76 318.3 239.54 318.3C236.32 318.3 236.32 323.3 239.54 323.3Z" fill="#B1A9A9"/>
<path d="M246.86 306.68C250.08 306.68 250.08 301.68 246.86 301.68C243.64 301.68 243.63 306.68 246.86 306.68Z" fill="#B1A9A9"/>
<path d="M254.84 292.71C258.06 292.71 258.06 287.71 254.84 287.71C251.62 287.71 251.61 292.71 254.84 292.71Z" fill="#B1A9A9"/>
<path d="M243.53 292.71C246.75 292.71 246.75 287.71 243.53 287.71C240.31 287.71 240.31 292.71 243.53 292.71Z" fill="#B1A9A9"/>
<path d="M243.53 304.68C246.75 304.68 246.75 299.68 243.53 299.68C240.31 299.68 240.31 304.68 243.53 304.68Z" fill="#B1A9A9"/>
<path d="M219.59 313.33C222.81 313.33 222.81 308.33 219.59 308.33C216.37 308.33 216.37 313.33 219.59 313.33Z" fill="#B1A9A9"/>
<path d="M218.26 304.68C221.48 304.68 221.48 299.68 218.26 299.68C215.04 299.68 215.04 304.68 218.26 304.68Z" fill="#B1A9A9"/>
<path d="M203.63 304.68C206.85 304.68 206.85 299.68 203.63 299.68C200.41 299.68 200.4 304.68 203.63 304.68Z" fill="#B1A9A9"/>
<path d="M211.61 318.65C214.83 318.65 214.83 313.65 211.61 313.65C208.39 313.65 208.38 318.65 211.61 318.65Z" fill="#B1A9A9"/>
<path d="M215.6 331.95C218.82 331.95 218.82 326.95 215.6 326.95C212.38 326.95 212.38 331.95 215.6 331.95Z" fill="#B1A9A9"/>
<path d="M230.23 332.61C233.45 332.61 233.45 327.61 230.23 327.61C227.01 327.61 227.01 332.61 230.23 332.61Z" fill="#B1A9A9"/>
<path d="M228.9 326.63C232.12 326.63 232.12 321.63 228.9 321.63C225.68 321.63 225.68 326.63 228.9 326.63Z" fill="#B1A9A9"/>
<path d="M235.55 310.67C238.77 310.67 238.77 305.67 235.55 305.67C232.33 305.67 232.33 310.67 235.55 310.67Z" fill="#B1A9A9"/>
<path d="M176.36 324.63C179.58 324.63 179.58 319.63 176.36 319.63C173.14 319.63 173.14 324.63 176.36 324.63Z" fill="#B1A9A9"/>
<path d="M179.02 337.94C182.24 337.94 182.24 332.94 179.02 332.94C175.8 332.94 175.8 337.94 179.02 337.94Z" fill="#B1A9A9"/>
<path d="M179.68 296.7C182.9 296.7 182.9 291.7 179.68 291.7C176.47 291.7 176.46 296.7 179.68 296.7Z" fill="#B1A9A9"/>
<path d="M187 309.34C190.22 309.34 190.22 304.34 187 304.34C183.78 304.34 183.78 309.34 187 309.34Z" fill="#B1A9A9"/>
<path d="M165.05 309.34C168.27 309.34 168.27 304.34 165.05 304.34C161.83 304.34 161.83 309.34 165.05 309.34Z" fill="#B1A9A9"/>
<path d="M175.69 267.44C178.91 267.44 178.91 262.44 175.69 262.44C172.48 262.44 172.47 267.44 175.69 267.44Z" fill="#B1A9A9"/>
<path d="M243.53 268.1C246.75 268.1 246.75 263.1 243.53 263.1C240.31 263.1 240.31 268.1 243.53 268.1Z" fill="#B1A9A9"/>
<path d="M273.46 262.78C276.68 262.78 276.68 257.78 273.46 257.78C270.24 257.78 270.24 262.78 273.46 262.78Z" fill="#B1A9A9"/>
<path d="M283.44 244.16C286.66 244.16 286.66 239.16 283.44 239.16C280.22 239.16 280.21 244.16 283.44 244.16Z" fill="#B1A9A9"/>
<path d="M236.88 204.92C240.1 204.92 240.1 199.92 236.88 199.92C233.66 199.92 233.66 204.92 236.88 204.92Z" fill="#B1A9A9"/>
<path d="M221.58 174.99C224.8 174.99 224.8 169.99 221.58 169.99C218.37 169.99 218.36 174.99 221.58 174.99Z" fill="#B1A9A9"/>
<path d="M177.69 171C180.91 171 180.91 166 177.69 166C174.47 166 174.47 171 177.69 171Z" fill="#B1A9A9"/>
<path d="M201.63 206.91C204.85 206.91 204.85 201.91 201.63 201.91C198.41 201.91 198.41 206.91 201.63 206.91Z" fill="#B1A9A9"/>
<path d="M104.826 92.7778L94.2145 131.711C94.2145 131.711 92.9627 135.902 90.5781 135.359C88.1935 134.817 88.8254 132.13 89.3351 130.424C89.8448 128.717 97.7032 98.4277 97.7032 98.4277C97.7032 98.4277 98.52 95.1216 96.6496 94.5629C94.7792 94.0042 94.0838 96.3323 93.7124 97.5757C93.3418 98.8164 84.4381 128.624 84.4381 128.624C84.4381 128.624 83.65 132.967 81.2211 132.573C78.7923 132.179 80.323 127.054 80.323 127.054L88.2431 96.6163C88.2431 96.6163 83.1788 88.5075 68.3923 87.9808C53.6057 87.4541 49.493 100.089 4.19066 94.8442C4.19066 94.8442 41.4857 88.231 61.7461 71.285C82.0066 54.3391 110.011 51.5468 110.011 51.5468C110.011 51.5468 127.11 48.8769 138.443 58.6881C149.776 68.4994 150.061 63.0028 150.061 63.0028C150.061 63.0028 151.367 62.0414 150.87 56.3114C150.374 50.5815 155.976 47.1832 155.976 47.1832C155.976 47.1832 160.692 38.786 145.484 37.9635C145.484 37.9635 140.549 39.7022 142.829 35.4789C145.109 31.2555 161.613 40.2455 161.613 40.2455C161.613 40.2455 166.999 44.3902 173.476 56.8081C179.953 69.2261 161.799 60.0832 161.799 60.0832C161.799 60.0832 162.279 71.5568 150.921 78.3073C150.921 78.3073 148.199 86.286 142.457 90.1526C136.716 94.0191 139.822 102.384 139.822 102.384C139.822 102.384 138.368 112.94 131.512 112.584C131.512 112.584 128.649 114.573 136.253 101.826C136.253 101.826 134.118 94.7617 136.689 88.4296C136.689 88.4296 128.517 91.9073 121.596 89.5C114.675 87.0953 104.826 92.7778 104.826 92.7778Z" fill="#043A2E"/>
</svg>
