<svg width="351" height="355" viewBox="0 0 351 355" fill="none" xmlns="http://www.w3.org/2000/svg">
<path d="M64.1767 13.8784C64.1767 13.8784 119.114 -33.7158 129.686 47.3711C140.258 128.458 111.179 163.711 111.179 163.711C111.179 163.711 54.8837 249.346 10.282 168.449C-30.7273 94.0809 64.1767 13.8784 64.1767 13.8784Z" fill="#C4C4C4"/>
<path d="M59.1714 183.121C56.629 183.121 56.629 179.173 59.1714 179.173C61.7058 179.173 61.7137 183.121 59.1714 183.121Z" fill="#B1A9A9"/>
<path d="M37.1118 177.341C34.5694 177.341 34.5694 173.393 37.1118 173.393C39.6541 173.393 39.662 177.341 37.1118 177.341Z" fill="#B1A9A9"/>
<path d="M44.9917 195.201C42.4493 195.201 42.4493 191.253 44.9917 191.253C47.534 191.253 47.534 195.201 44.9917 195.201Z" fill="#B1A9A9"/>
<path d="M49.7133 184.171C47.171 184.171 47.171 180.223 49.7133 180.223C52.2557 180.223 52.2636 184.171 49.7133 184.171Z" fill="#B1A9A9"/>
<path d="M55.4922 199.401C52.9498 199.401 52.9498 195.453 55.4922 195.453C58.0345 195.453 58.0345 199.401 55.4922 199.401Z" fill="#B1A9A9"/>
<path d="M73.873 194.151C71.3307 194.151 71.3307 190.203 73.873 190.203C76.4154 190.203 76.4154 194.151 73.873 194.151Z" fill="#B1A9A9"/>
<path d="M52.3423 193.101C49.7999 193.101 49.7999 189.153 52.3423 189.153C54.8846 189.153 54.8846 193.101 52.3423 193.101Z" fill="#B1A9A9"/>
<path d="M63.893 192.572C61.3507 192.572 61.3507 188.624 63.893 188.624C66.4354 188.624 66.4354 192.572 63.893 192.572Z" fill="#B1A9A9"/>
<path d="M71.2441 181.021C68.7017 181.021 68.7017 177.073 71.2441 177.073C73.7864 177.073 73.7943 181.021 71.2441 181.021Z" fill="#B1A9A9"/>
<path d="M85.4243 186.8C82.8819 186.8 82.8819 182.852 85.4243 182.852C87.9666 182.852 87.9666 186.8 85.4243 186.8Z" fill="#B1A9A9"/>
<path d="M84.9033 168.419C82.361 168.419 82.361 164.471 84.9033 164.471C87.4378 164.471 87.4457 168.419 84.9033 168.419Z" fill="#B1A9A9"/>
<path d="M60.7431 141.638C58.2008 141.638 58.2008 137.69 60.7431 137.69C63.2855 137.69 63.2855 141.638 60.7431 141.638Z" fill="#B1A9A9"/>
<path d="M69.144 133.758C66.6016 133.758 66.6016 129.81 69.144 129.81C71.6863 129.81 71.6942 133.758 69.144 133.758Z" fill="#B1A9A9"/>
<path d="M94.354 125.886C91.8117 125.886 91.8117 121.938 94.354 121.938C96.8885 121.938 96.8964 125.886 94.354 125.886Z" fill="#B1A9A9"/>
<path d="M88.5747 99.6257C86.0323 99.6257 86.0323 95.678 88.5747 95.678C91.117 95.678 91.117 99.6257 88.5747 99.6257Z" fill="#B1A9A9"/>
<path d="M32.9111 89.1245C30.3688 89.1245 30.3688 85.1768 32.9111 85.1768C35.4535 85.1768 35.4535 89.1245 32.9111 89.1245Z" fill="#B1A9A9"/>
<path d="M23.4604 106.455C20.9181 106.455 20.9181 102.508 23.4604 102.508C26.0028 102.508 26.0028 106.455 23.4604 106.455Z" fill="#B1A9A9"/>
<path d="M33.9614 191C31.419 191 31.419 187.052 33.9614 187.052C36.5038 187.052 36.5038 191 33.9614 191Z" fill="#B1A9A9"/>
<path d="M22.9395 178.399C20.3971 178.399 20.3971 174.451 22.9395 174.451C25.4739 174.451 25.4818 178.399 22.9395 178.399Z" fill="#B1A9A9"/>
<path d="M38.162 197.301C35.6197 197.301 35.6197 193.353 38.162 193.353C40.7044 193.353 40.7123 197.301 38.162 197.301Z" fill="#B1A9A9"/>
<path d="M42.8911 193.101C40.3487 193.101 40.3487 189.153 42.8911 189.153C45.4334 189.153 45.4334 193.101 42.8911 193.101Z" fill="#B1A9A9"/>
<path d="M31.8613 191C29.3189 191 29.3189 187.052 31.8613 187.052C34.4037 187.052 34.4037 191 31.8613 191Z" fill="#B1A9A9"/>
<path d="M27.1397 183.121C24.5973 183.121 24.5973 179.173 27.1397 179.173C29.6741 179.173 29.682 183.121 27.1397 183.121Z" fill="#B1A9A9"/>
<path d="M35.0112 184.7C32.4688 184.7 32.4688 180.752 35.0112 180.752C37.5535 180.752 37.5614 184.7 35.0112 184.7Z" fill="#B1A9A9"/>
<path d="M45.5126 184.7C42.9703 184.7 42.9703 180.752 45.5126 180.752C48.055 180.752 48.0629 184.7 45.5126 184.7Z" fill="#B1A9A9"/>
<path d="M41.3124 177.87C38.7701 177.87 38.7701 173.922 41.3124 173.922C43.8548 173.922 43.8627 177.87 41.3124 177.87Z" fill="#B1A9A9"/>
<path d="M22.9395 168.94C20.3971 168.94 20.3971 164.992 22.9395 164.992C25.4739 164.992 25.4818 168.94 22.9395 168.94Z" fill="#B1A9A9"/>
<path d="M28.7109 174.72C26.1686 174.72 26.1686 170.772 28.7109 170.772C31.2533 170.772 31.2533 174.72 28.7109 174.72Z" fill="#B1A9A9"/>
<path d="M38.6904 191C36.148 191 36.148 187.052 38.6904 187.052C41.2328 187.052 41.2328 191 38.6904 191Z" fill="#B1A9A9"/>
<path d="M39.7407 196.251C37.1983 196.251 37.1983 192.303 39.7407 192.303C42.283 192.303 42.283 196.251 39.7407 196.251Z" fill="#B1A9A9"/>
<path d="M43.9414 196.251C41.399 196.251 41.399 192.303 43.9414 192.303C46.4837 192.303 46.4837 196.251 43.9414 196.251Z" fill="#B1A9A9"/>
<path d="M51.2925 197.822C48.7501 197.822 48.7501 193.874 51.2925 193.874C53.8348 193.874 53.8348 197.822 51.2925 197.822Z" fill="#B1A9A9"/>
<path d="M51.2925 193.622C48.7501 193.622 48.7501 189.674 51.2925 189.674C53.8348 189.674 53.8348 193.622 51.2925 193.622Z" fill="#B1A9A9"/>
<path d="M46.5624 193.622C44.0201 193.622 44.0201 189.674 46.5624 189.674C49.1048 189.674 49.1127 193.622 46.5624 193.622Z" fill="#B1A9A9"/>
<path d="M48.1416 188.9C45.5992 188.9 45.5992 184.952 48.1416 184.952C50.6839 184.952 50.6839 188.9 48.1416 188.9Z" fill="#B1A9A9"/>
<path d="M55.4922 193.101C52.9498 193.101 52.9498 189.153 55.4922 189.153C58.0345 189.153 58.0345 193.101 55.4922 193.101Z" fill="#B1A9A9"/>
<path d="M59.1714 196.251C56.629 196.251 56.629 192.303 59.1714 192.303C61.7058 192.303 61.7137 196.251 59.1714 196.251Z" fill="#B1A9A9"/>
<path d="M64.9433 197.822C62.401 197.822 62.401 193.874 64.9433 193.874C67.4857 193.874 67.4857 197.822 64.9433 197.822Z" fill="#B1A9A9"/>
<path d="M65.9936 194.151C63.4513 194.151 63.4513 190.203 65.9936 190.203C68.536 190.203 68.536 194.151 65.9936 194.151Z" fill="#B1A9A9"/>
<path d="M56.5425 187.85C54.0001 187.85 54.0001 183.902 56.5425 183.902C59.0848 183.902 59.0848 187.85 56.5425 187.85Z" fill="#B1A9A9"/>
<path d="M71.7729 187.85C69.2306 187.85 69.2306 183.902 71.7729 183.902C74.3153 183.902 74.3153 187.85 71.7729 187.85Z" fill="#B1A9A9"/>
<path d="M80.6953 187.321C78.1529 187.321 78.1529 183.373 80.6953 183.373C83.2376 183.373 83.2455 187.321 80.6953 187.321Z" fill="#B1A9A9"/>
<path d="M80.6953 179.449C78.1529 179.449 78.1529 175.501 80.6953 175.501C83.2376 175.501 83.2455 179.449 80.6953 179.449Z" fill="#B1A9A9"/>
<path d="M87.5244 179.449C84.982 179.449 84.982 175.501 87.5244 175.501C90.0667 175.501 90.0667 179.449 87.5244 179.449Z" fill="#B1A9A9"/>
<path d="M86.4746 185.221C83.9322 185.221 83.9322 181.273 86.4746 181.273C89.0169 181.273 89.0169 185.221 86.4746 185.221Z" fill="#B1A9A9"/>
<path d="M58.6426 170.519C56.1002 170.519 56.1002 166.572 58.6426 166.572C61.1849 166.572 61.1849 170.519 58.6426 170.519Z" fill="#B1A9A9"/>
<path d="M48.1416 167.369C45.5992 167.369 45.5992 163.421 48.1416 163.421C50.6839 163.421 50.6839 167.369 48.1416 167.369Z" fill="#B1A9A9"/>
<path d="M10.8593 144.259C8.31699 144.259 8.31699 140.311 10.8593 140.311C13.4017 140.311 13.4017 144.259 10.8593 144.259Z" fill="#B1A9A9"/>
<path d="M18.2099 140.588C15.6676 140.588 15.6676 136.64 18.2099 136.64C20.7523 136.64 20.7523 140.588 18.2099 140.588Z" fill="#B1A9A9"/>
<path d="M28.7109 152.668C26.1686 152.668 26.1686 148.72 28.7109 148.72C31.2533 148.72 31.2533 152.668 28.7109 152.668Z" fill="#B1A9A9"/>
<path d="M35.0112 135.858C32.4688 135.858 32.4688 131.91 35.0112 131.91C37.5535 131.91 37.5614 135.858 35.0112 135.858Z" fill="#B1A9A9"/>
<path d="M57.5927 127.457C55.0504 127.457 55.0504 123.51 57.5927 123.51C60.1351 123.51 60.1351 127.457 57.5927 127.457Z" fill="#B1A9A9"/>
<path d="M44.9917 104.355C42.4493 104.355 42.4493 100.407 44.9917 100.407C47.534 100.407 47.534 104.355 44.9917 104.355Z" fill="#B1A9A9"/>
<path d="M14.0093 128.507C11.4669 128.507 11.4669 124.56 14.0093 124.56C16.5516 124.56 16.5516 128.507 14.0093 128.507Z" fill="#B1A9A9"/>
<path d="M57.0718 150.567C54.5294 150.567 54.5294 146.62 57.0718 146.62C59.6062 146.62 59.6141 150.567 57.0718 150.567Z" fill="#B1A9A9"/>
<path d="M77.5444 165.269C75.002 165.269 75.002 161.321 77.5444 161.321C80.0867 161.321 80.0946 165.269 77.5444 165.269Z" fill="#B1A9A9"/>
<path d="M80.6953 146.367C78.1529 146.367 78.1529 142.419 80.6953 142.419C83.2376 142.419 83.2455 146.367 80.6953 146.367Z" fill="#B1A9A9"/>
<path d="M105.376 150.039C102.834 150.039 102.834 146.091 105.376 146.091C107.919 146.091 107.927 150.039 105.376 150.039Z" fill="#B1A9A9"/>
<path d="M115.885 130.086C113.343 130.086 113.343 126.139 115.885 126.139C118.42 126.139 118.428 130.086 115.885 130.086Z" fill="#B1A9A9"/>
<path d="M115.885 111.706C113.343 111.706 113.343 107.758 115.885 107.758C118.42 107.758 118.428 111.706 115.885 111.706Z" fill="#B1A9A9"/>
<path d="M105.376 96.4753C102.834 96.4753 102.834 92.5276 105.376 92.5276C107.919 92.5276 107.927 96.4753 105.376 96.4753Z" fill="#B1A9A9"/>
<path d="M11.9092 166.319C9.3668 166.319 9.3668 162.371 11.9092 162.371C14.4515 162.371 14.4515 166.319 11.9092 166.319Z" fill="#B1A9A9"/>
<path d="M14.0093 155.818C11.4669 155.818 11.4669 151.87 14.0093 151.87C16.5516 151.87 16.5516 155.818 14.0093 155.818Z" fill="#B1A9A9"/>
<path d="M25.0396 164.219C22.4972 164.219 22.4972 160.271 25.0396 160.271C27.574 160.271 27.5819 164.219 25.0396 164.219Z" fill="#B1A9A9"/>
<path d="M30.811 163.169C28.2687 163.169 28.2687 159.221 30.811 159.221C33.3534 159.221 33.3534 163.169 30.811 163.169Z" fill="#B1A9A9"/>
<path d="M33.4404 169.99C30.8981 169.99 30.8981 166.042 33.4404 166.042C35.9749 166.042 35.9828 169.99 33.4404 169.99Z" fill="#B1A9A9"/>
<path d="M47.0913 169.99C44.5489 169.99 44.5489 166.042 47.0913 166.042C49.6336 166.042 49.6336 169.99 47.0913 169.99Z" fill="#B1A9A9"/>
<path d="M41.3124 156.868C38.7701 156.868 38.7701 152.92 41.3124 152.92C43.8548 152.92 43.8627 156.868 41.3124 156.868Z" fill="#B1A9A9"/>
<path d="M35.0112 145.838C32.4688 145.838 32.4688 141.89 35.0112 141.89C37.5535 141.89 37.5614 145.838 35.0112 145.838Z" fill="#B1A9A9"/>
<path d="M43.9414 145.838C41.399 145.838 41.399 141.89 43.9414 141.89C46.4837 141.89 46.4837 145.838 43.9414 145.838Z" fill="#B1A9A9"/>
<path d="M43.9414 155.289C41.399 155.289 41.399 151.341 43.9414 151.341C46.4837 151.341 46.4837 155.289 43.9414 155.289Z" fill="#B1A9A9"/>
<path d="M62.8432 162.118C60.3009 162.118 60.3009 158.171 62.8432 158.171C65.3856 158.171 65.3856 162.118 62.8432 162.118Z" fill="#B1A9A9"/>
<path d="M63.893 155.289C61.3507 155.289 61.3507 151.341 63.893 151.341C66.4354 151.341 66.4354 155.289 63.893 155.289Z" fill="#B1A9A9"/>
<path d="M75.4443 155.289C72.9019 155.289 72.9019 151.341 75.4443 151.341C77.9866 151.341 77.9945 155.289 75.4443 155.289Z" fill="#B1A9A9"/>
<path d="M69.144 166.319C66.6016 166.319 66.6016 162.371 69.144 162.371C71.6863 162.371 71.6942 166.319 69.144 166.319Z" fill="#B1A9A9"/>
<path d="M65.9936 176.82C63.4513 176.82 63.4513 172.872 65.9936 172.872C68.536 172.872 68.536 176.82 65.9936 176.82Z" fill="#B1A9A9"/>
<path d="M54.4424 177.341C51.9 177.341 51.9 173.393 54.4424 173.393C56.9847 173.393 56.9847 177.341 54.4424 177.341Z" fill="#B1A9A9"/>
<path d="M55.4922 172.62C52.9498 172.62 52.9498 168.672 55.4922 168.672C58.0345 168.672 58.0345 172.62 55.4922 172.62Z" fill="#B1A9A9"/>
<path d="M50.2422 160.018C47.6998 160.018 47.6998 156.071 50.2422 156.071C52.7845 156.071 52.7845 160.018 50.2422 160.018Z" fill="#B1A9A9"/>
<path d="M96.9756 171.041C94.4332 171.041 94.4332 167.093 96.9756 167.093C99.5179 167.093 99.5179 171.041 96.9756 171.041Z" fill="#B1A9A9"/>
<path d="M94.8755 181.549C92.3331 181.549 92.3331 177.602 94.8755 177.602C97.4178 177.602 97.4178 181.549 94.8755 181.549Z" fill="#B1A9A9"/>
<path d="M94.354 148.988C91.8117 148.988 91.8117 145.041 94.354 145.041C96.8885 145.041 96.8964 148.988 94.354 148.988Z" fill="#B1A9A9"/>
<path d="M88.5747 158.968C86.0323 158.968 86.0323 155.021 88.5747 155.021C91.117 155.021 91.117 158.968 88.5747 158.968Z" fill="#B1A9A9"/>
<path d="M105.905 158.968C103.363 158.968 103.363 155.021 105.905 155.021C108.448 155.021 108.448 158.968 105.905 158.968Z" fill="#B1A9A9"/>
<path d="M97.5044 125.886C94.962 125.886 94.962 121.938 97.5044 121.938C100.039 121.938 100.047 125.886 97.5044 125.886Z" fill="#B1A9A9"/>
<path d="M43.9414 126.407C41.399 126.407 41.399 122.459 43.9414 122.459C46.4837 122.459 46.4837 126.407 43.9414 126.407Z" fill="#B1A9A9"/>
<path d="M20.3105 122.207C17.7682 122.207 17.7682 118.259 20.3105 118.259C22.8529 118.259 22.8529 122.207 20.3105 122.207Z" fill="#B1A9A9"/>
<path d="M12.4301 107.505C9.88776 107.505 9.88776 103.558 12.4301 103.558C14.9725 103.558 14.9804 107.505 12.4301 107.505Z" fill="#B1A9A9"/>
<path d="M49.1919 76.5234C46.6495 76.5234 46.6495 72.5757 49.1919 72.5757C51.7342 72.5757 51.7342 76.5234 49.1919 76.5234Z" fill="#B1A9A9"/>
<path d="M61.272 52.8921C58.7296 52.8921 58.7296 48.9443 61.272 48.9443C63.8064 48.9443 63.8143 52.8921 61.272 52.8921Z" fill="#B1A9A9"/>
<path d="M95.9253 49.7417C93.3829 49.7417 93.3829 45.7939 95.9253 45.7939C98.4676 45.7939 98.4676 49.7417 95.9253 49.7417Z" fill="#B1A9A9"/>
<path d="M77.0234 78.0945C74.4811 78.0945 74.4811 74.1467 77.0234 74.1467C79.5658 74.1467 79.5658 78.0945 77.0234 78.0945Z" fill="#B1A9A9"/>
<path d="M214.717 101.028L213.329 158.505C213.329 158.505 213.329 164.737 216.799 164.969C220.269 165.201 220.502 161.275 220.502 158.738C220.502 156.2 222.122 111.645 222.122 111.645C222.122 111.645 222.355 106.799 225.131 106.799C227.907 106.799 227.907 110.26 227.907 112.109C227.907 113.954 227.907 158.277 227.907 158.277C227.907 158.277 227.213 164.528 230.683 164.981C234.153 165.433 234.153 157.813 234.153 157.813L235.75 113.03C235.75 113.03 245.951 104.025 266.313 109.336C286.676 114.647 287.137 133.573 351 144.886C351 144.886 302.874 120.65 282.165 89.2536C261.455 57.8573 224.433 42.6254 224.433 42.6254C224.433 42.6254 202.221 32.0079 182.786 40.7804C163.35 49.5529 165.199 41.933 165.199 41.933C165.199 41.933 163.811 40.088 166.82 32.4681C169.829 24.8482 163.579 17.9246 163.579 17.9246C163.579 17.9246 160.57 4.53763 181.626 9.61626C181.626 9.61626 187.644 14.0025 186.256 7.30707C184.868 0.611623 158.721 6.15445 158.721 6.15445C158.721 6.15445 149.695 9.61626 135.815 23.9277C121.935 38.2391 150.393 33.1605 150.393 33.1605C150.393 33.1605 145.07 48.6285 157.798 62.4757C157.798 62.4757 158.259 74.4779 164.509 82.0979C170.759 89.7178 163.121 99.8711 163.121 99.8711C163.121 99.8711 160.807 114.875 170.294 117.184C170.294 117.184 173.385 121.067 168.212 100.563C168.212 100.563 173.996 91.7909 173.07 82.0979C173.07 82.0979 182.79 90.178 193.2 89.7138C203.609 89.2536 214.717 101.028 214.717 101.028Z" fill="#043A2E"/>
<path d="M179.596 240.299L154.928 292.232C154.928 292.232 152.391 297.924 155.466 299.548C158.541 301.173 160.352 297.682 161.385 295.364C162.418 293.047 182.037 253.011 182.037 253.011C182.037 253.011 184.223 248.679 186.759 249.809C189.294 250.94 187.885 254.101 187.132 255.79C186.381 257.475 168.336 297.959 168.336 297.959C168.336 297.959 165.157 303.386 168.142 305.212C171.127 307.037 174.23 300.078 174.23 300.078L193.921 259.824C193.921 259.824 206.904 255.752 223.34 268.893C239.776 282.034 232.493 299.508 286.217 335.842C286.217 335.842 252.128 294.112 245.994 257.004C239.861 219.896 212.248 190.911 212.248 190.911C212.248 190.911 196.283 172.17 174.959 172.27C153.635 172.37 158.427 166.163 158.427 166.163C158.427 166.163 157.91 163.913 163.76 158.178C169.611 152.443 166.721 143.575 166.721 143.575C166.721 143.575 169.423 130.123 186.588 143.334C186.588 143.334 190.298 149.79 191.756 143.109C193.214 136.429 167.076 130.846 167.076 130.846C167.076 130.846 157.422 130.334 138.918 137.755C120.414 145.175 148.475 152.123 148.475 152.123C148.475 152.123 137.315 164.083 143.303 181.913C143.303 181.913 138.838 193.063 141.445 202.568C144.051 212.072 132.941 218.236 132.941 218.236C132.941 218.236 124.718 230.998 132.444 236.97C132.444 236.97 133.686 241.775 137.309 220.941C137.309 220.941 146.164 215.284 149.263 206.053C149.263 206.053 154.852 217.39 164.549 221.205C174.244 225.022 179.596 240.299 179.596 240.299Z" fill="#043A2E"/>
</svg>
