<svg width="241" height="146" viewBox="0 0 241 146" fill="none" xmlns="http://www.w3.org/2000/svg">
<path fill-rule="evenodd" clip-rule="evenodd" d="M19.5719 81.032C23.5603 74.3644 54.9123 73.9557 54.9123 73.9557C54.651 69.8971 67.9502 60.4258 69.1021 59.6055C69.1542 59.5684 69.1815 59.549 69.1815 59.5486L69.6732 70.1495L75.1914 70.1404C75.1914 70.1404 76.7941 41.6442 81.857 31.8972C86.92 22.1502 85.9365 36.8025 85.9365 36.8025L79.7353 68.905L85.3628 69.8043L93.2578 15.7733C104.649 -0.359753 104.64 17.7172 104.64 17.7172L97.3008 70.7218L100.706 74.2009C100.706 74.2009 109.712 19.2161 113.082 6.99821C116.46 -5.21964 126.44 2.27458 126.44 2.27458C126.44 2.27458 113.528 46.6676 113.018 61.7741C112.508 76.8807 115.595 71.1033 115.595 71.1033L134.016 1.73863C144.506 -1.72234 146.182 9.97773 146.182 9.97773L126.64 73.0836L132.523 76.3901C132.523 76.3901 150.043 10.9406 155.142 13.2661C160.232 15.5916 161.899 29.599 161.899 29.599L146.273 77.026L152.365 80.3689C152.365 80.3689 161.781 33.2507 167.108 46.0408C172.435 58.8219 167.016 81.4771 167.016 81.4771L172.143 87.1727L176.878 74.1646C176.878 74.1646 184.882 77.9072 190.92 84.3476C196.957 90.7881 238.089 114.824 238.089 114.824C244.827 121.019 237.233 122.291 237.233 122.291C237.233 122.291 181.85 110.5 176.359 108.157C170.868 105.813 169.411 118.703 169.411 118.703L166.998 138.115C158.894 149.697 159.112 137.071 159.112 137.071L157.938 122.509C147.448 111.372 145.007 126.188 145.007 126.188L143.887 141.395C143.887 141.395 138.515 152.232 136.575 138.115C134.635 123.999 127.214 116.859 127.214 116.859C127.214 116.859 104.995 108.62 100.533 113.48C96.8527 117.481 95.6382 131.497 95.0088 138.76C94.8752 140.302 94.768 141.539 94.6692 142.312C94.1046 146.727 85.9274 143.811 85.9274 143.811C85.9274 143.811 85.5359 129.213 83.1319 128.686C80.7279 128.159 80.8554 139.551 80.8554 139.551C74.7635 152.586 69.5366 138.215 69.5366 138.215C69.5366 138.215 66.6318 129.813 62.8073 117.431C58.9827 105.05 48.7112 110.319 48.7112 110.319C48.7112 110.319 31.1183 122.137 12.5876 117.213C-1.64177 113.433 -0.590233 110.396 0.693473 106.69C1.08152 105.57 1.49079 104.388 1.50558 103.106C1.56022 97.5829 19.5719 81.032 19.5719 81.032ZM119.937 91.8238C119.937 90.4558 119.661 89.2198 119.109 88.1158C118.653 87.2038 118.029 86.4958 117.237 85.9918C117.141 85.9198 117.141 85.8358 117.237 85.7398C117.813 85.3078 118.305 84.7798 118.713 84.1558C119.337 83.1718 119.649 82.0558 119.649 80.8078C119.649 79.1758 119.169 77.7358 118.209 76.4878C117.513 75.5758 116.601 74.8558 115.473 74.3278C114.345 73.7998 113.049 73.5358 111.585 73.5358C110.169 73.5358 108.873 73.7998 107.697 74.3278C106.545 74.8318 105.621 75.5518 104.925 76.4878C103.965 77.6638 103.485 79.1038 103.485 80.8078C103.485 82.0078 103.761 83.0878 104.313 84.0478C104.721 84.7678 105.213 85.3438 105.789 85.7758C105.885 85.8718 105.885 85.9558 105.789 86.0278C104.997 86.5558 104.397 87.2398 103.989 88.0798C103.437 89.2318 103.161 90.4678 103.161 91.7878C103.161 93.1318 103.449 94.3678 104.025 95.4958C104.697 96.7918 105.705 97.7878 107.049 98.4838C108.393 99.1558 109.905 99.4918 111.585 99.4918C113.361 99.4918 114.885 99.1438 116.157 98.4478C117.453 97.7278 118.413 96.7558 119.037 95.5318C119.637 94.4998 119.937 93.2638 119.937 91.8238ZM108.525 80.9878C108.525 80.4598 108.645 79.9558 108.885 79.4758C109.125 78.9718 109.473 78.5878 109.929 78.3238C110.409 78.0358 110.937 77.8918 111.513 77.8918C112.161 77.8918 112.725 78.0358 113.205 78.3238C113.685 78.5878 114.045 78.9598 114.285 79.4398C114.525 79.9198 114.645 80.4238 114.645 80.9518C114.645 81.6958 114.489 82.3318 114.177 82.8598C113.577 83.7238 112.701 84.1558 111.549 84.1558C110.397 84.1558 109.545 83.7238 108.993 82.8598C108.681 82.3078 108.525 81.6838 108.525 80.9878ZM114.825 91.3558C114.825 92.3878 114.597 93.2278 114.141 93.8758C113.589 94.7158 112.737 95.1358 111.585 95.1358C110.385 95.1358 109.509 94.6798 108.957 93.7678C108.549 93.1438 108.345 92.3638 108.345 91.4278C108.345 90.4678 108.525 89.6878 108.885 89.0878C109.413 88.1038 110.301 87.6118 111.549 87.6118C112.869 87.6118 113.793 88.1158 114.321 89.1238C114.657 89.7238 114.825 90.4678 114.825 91.3558Z" fill="#043A2E"/>
</svg>
