<svg width="413" height="333" viewBox="0 0 413 333" fill="none" xmlns="http://www.w3.org/2000/svg">
<path d="M282.582 449.549C282.582 449.549 237.534 88.3386 1.6385 103.911C1.6385 103.911 6.15565 91.1869 44.046 87.5588C81.9363 83.9306 59.9526 108.138 59.9526 108.138L89.7566 117.441C89.7566 117.441 79.07 26.7926 112.656 128.592C146.242 230.392 112.656 128.592 112.656 128.592C112.656 128.592 139.293 40.3796 135.816 105.597L129.8 139.518C129.8 139.518 152.51 70.888 166.653 107.841L142.897 149.595L153.203 158.588C153.203 158.588 174.931 96.7844 192.002 110.644L169.103 163.439C169.103 163.439 194.517 119.097 204.656 143.459C214.794 167.821 176.838 183.591 176.838 183.591L189.587 199.932C189.587 199.932 218.664 120.804 238.344 135.181L189.587 199.932L201.173 216.933C201.173 216.933 269.655 130.937 267.446 178.128C267.446 178.128 197.008 218.717 205.954 229.331C214.901 239.946 205.954 229.331 205.954 229.331L214.901 239.946C214.901 239.946 277.385 167.245 294.556 187.336L214.901 239.946L225.04 259.348C225.04 259.348 289.47 178.28 306.152 217.407C306.152 217.407 228.702 262.967 233.983 276.66C239.251 290.323 233.983 276.66 233.983 276.66C233.983 276.66 302.57 199.941 320.147 229.264L233.971 276.63L246.102 308.088C246.102 308.088 305.736 228.55 358.173 258.602L246.102 308.088L248.873 321.155C248.873 321.155 336.035 241.985 362.922 291.313L248.873 321.155" fill="#006C53"/>
<path d="M24.2694 121.897L59.9225 108.149L89.7265 117.453C89.7265 117.453 45.8935 112.744 38.0973 137.361C38.0973 137.361 119.627 111.662 112.626 128.604L129.77 139.53C129.77 139.53 76.2057 144.313 65.5686 168.821C65.5686 168.821 124.943 145.111 142.867 149.607C142.867 149.607 83.4745 171.34 73.4773 189.331C73.4773 189.331 139.87 160.576 153.142 158.612L106.372 186.07C106.372 186.07 166.825 170.943 176.808 183.603C176.808 183.603 101.159 195.06 107.105 210.481C107.105 210.481 176.024 180.008 189.526 199.955C189.526 199.955 132.55 201.129 127.015 214.246C127.015 214.246 189.8 198.185 201.155 216.976L205.936 229.374C205.936 229.374 116.002 229.511 128.955 259.058C128.955 259.058 206.361 223.861 214.883 239.989C214.883 239.989 128.683 254.31 133.676 271.303C133.676 271.303 209.418 243.088 225.022 259.391C225.022 259.391 157.775 272.426 160.686 284.199C160.686 284.199 227.152 258.853 233.934 276.715C233.934 276.715 150.243 298.004 156.57 314.412C156.57 314.412 221.589 275.204 239.214 290.409L246.064 308.174C246.064 308.174 189.909 303.115 188.866 320.806C188.866 320.806 243.756 312.11 248.836 321.241C248.836 321.241 177.045 320.652 174.984 338.736C174.984 338.736 246.196 314.394 253.581 333.546L260.966 352.699C260.966 352.699 260.966 352.699 276.522 340.395C292.077 328.09 377.155 307.825 377.155 307.825C377.155 307.825 299.808 290.532 268.732 326.074" fill="#006C53"/>
</svg>
