<svg width="213" height="188" viewBox="0 0 213 188" fill="none" xmlns="http://www.w3.org/2000/svg">
<path fill-rule="evenodd" clip-rule="evenodd" d="M61.8053 174.634L74.7357 113.128C74.7357 113.128 65.1597 98.2645 53.8975 96.6907C42.6344 95.1211 33.8126 84.5043 33.8126 84.5043C32.8776 95.1074 24.9241 103.387 24.9241 103.387C26.3944 126.454 23.8499 121.667 23.8499 121.667C14.129 117.299 19.5993 101.632 19.5993 101.632C19.5993 101.632 29.8163 92.2357 24.6265 82.8032C19.4366 73.3706 21.3306 60.3778 21.3306 60.3778C10.4282 42.9642 19.2194 27.3956 19.2194 27.3956C19.2194 27.3956 -12.3288 27.1997 5.41403 14.5745C23.1569 1.94939 33.5314 0.0218793 33.5314 0.0218793C33.5314 0.0218793 62.6925 -0.740302 62.8492 6.7324C63.0059 14.2051 57.422 8.29463 57.422 8.29463C35.8377 -1.34854 36.4015 13.6389 36.4015 13.6389C36.4015 13.6389 41.73 22.323 36.9848 29.9157C32.2396 37.5084 33.3617 39.7674 33.3617 39.7674C33.3617 39.7674 29.8605 47.5905 52.4628 42.0231C75.065 36.4557 96.7866 52.2822 96.7866 52.2822C96.7866 52.2822 133.482 76.0117 149.456 113.875C165.429 151.737 212.248 187.352 212.248 187.352C168.664 171.01 155.155 156.578 145.102 145.836C139.867 140.243 135.568 135.651 128.449 132.311C107.655 122.556 94.9164 130.208 94.9164 130.208L84.2886 178.028C84.2886 178.028 82.7719 186.219 79.1384 185.043C75.5049 183.867 77.4939 177.286 77.4939 177.286L86.6836 127.66C87.0516 125.673 87.7407 121.952 84.7618 121.4C81.783 120.849 80.5686 126.012 80.5686 126.012C80.5686 126.012 69.9609 173.582 69.4558 176.309C68.9508 179.037 67.9197 183.21 64.2423 182.271C60.565 181.332 61.8053 174.634 61.8053 174.634ZM82.4559 74.3323C82.4559 73.2283 82.2759 72.0883 81.9159 70.9123C81.3879 69.4243 80.4879 68.2603 79.2159 67.4203C77.9678 66.5563 76.5039 66.1243 74.8239 66.1243C73.4079 66.1243 72.1599 66.4723 71.0799 67.1683C70.9359 67.2643 70.8639 67.2283 70.8639 67.0603L70.8999 61.7323C70.8999 61.6123 70.9599 61.5523 71.0799 61.5523H81.1239C81.2439 61.5523 81.3399 61.5163 81.4119 61.4443C81.5079 61.3483 81.5559 61.2403 81.5559 61.1203V57.6283C81.5559 57.5083 81.5079 57.4123 81.4119 57.3403C81.3399 57.2443 81.2439 57.1963 81.1239 57.1963H66.2559C66.1359 57.1963 66.0279 57.2443 65.9319 57.3403C65.8599 57.4123 65.8239 57.5083 65.8239 57.6283V72.1363C65.8239 72.2563 65.8599 72.3643 65.9319 72.4603C66.0279 72.5323 66.1359 72.5683 66.2559 72.5683H70.6839C70.9239 72.5683 71.0799 72.4483 71.1519 72.2083C71.3439 71.7043 71.7279 71.2963 72.3039 70.9843C72.8799 70.6723 73.5039 70.5163 74.1759 70.5163C74.8479 70.5163 75.4359 70.6843 75.9398 71.0203C76.4439 71.3563 76.7799 71.8363 76.9479 72.4603C77.1639 73.0123 77.2719 73.6363 77.2719 74.3323C77.2719 75.1003 77.1519 75.7243 76.9119 76.2043C76.6719 76.8523 76.2999 77.3563 75.7959 77.7163C75.2919 78.0763 74.7038 78.2563 74.0319 78.2563C73.3839 78.2563 72.8199 78.0883 72.3399 77.7523C71.8599 77.4163 71.4999 76.9363 71.2598 76.3123C71.2359 76.2403 71.1999 76.1563 71.1519 76.0603C71.1039 75.9643 71.0679 75.8443 71.0439 75.7003C70.9719 75.4363 70.8159 75.3043 70.5759 75.3043H66.2199C65.9319 75.3043 65.7878 75.4363 65.7878 75.7003V75.7723C65.9079 76.4683 66.0879 77.1283 66.3279 77.7523C66.9039 79.2643 67.8759 80.4643 69.2439 81.3523C70.6359 82.2163 72.2439 82.6483 74.0679 82.6483C75.9398 82.6483 77.5719 82.2043 78.9639 81.3163C80.3559 80.4043 81.3279 79.1803 81.8799 77.6443C82.2639 76.6603 82.4559 75.5563 82.4559 74.3323Z" fill="#043A2E"/>
</svg>
