<svg width="390" height="285" viewBox="0 0 390 285" fill="none" xmlns="http://www.w3.org/2000/svg">
<path fill-rule="evenodd" clip-rule="evenodd" d="M253.017 170.108C253.017 170.108 246.504 184.596 246.3 199.923C246.3 199.923 270.89 272.699 263.075 275.365C255.268 278.031 250.601 264.368 250.601 264.368C250.601 264.368 235.673 207.909 231.03 197.507C226.387 187.105 220.605 198.888 220.605 198.888L238.224 266.416C238.224 266.416 244.536 281.702 237.705 284.035C230.874 286.369 227.051 272.417 227.051 272.417C227.051 272.417 212.638 223.415 202 195.439C202 195.439 128.243 199.654 77.9256 198.312C27.6079 196.969 0.365234 231.624 0.365234 231.624C0.365234 231.624 6.57077 195.982 61.1955 174.052C115.82 152.123 149.809 117.621 149.809 117.621C149.809 117.621 190.04 67.9098 242.314 58.2263C242.314 58.2263 262.883 61.0083 282.621 18.297C282.621 18.297 290.639 0.300342 311.863 3.40368C311.863 3.40368 330.716 -5.21633 342.367 4.97943C342.367 4.97943 398.199 -8.64395 388.515 26.8181L387.161 41.9934C387.161 41.9934 382.01 50.8371 345.543 58.935C309.077 67.0328 291.814 113.803 291.814 113.803L291.09 126.038C291.09 126.038 320.67 134.464 304.009 152.689C304.009 152.689 306.483 134.403 283.642 132.942L281.469 136.954C281.469 136.954 304.338 142.49 288.857 165.764C288.857 165.764 287.651 146.285 276.38 143.596C276.38 143.596 260.724 164.751 253.017 170.108ZM214.944 135.891C214.872 135.795 214.776 135.747 214.656 135.747H213.108C212.988 135.747 212.928 135.687 212.928 135.567V131.103C212.928 130.983 212.88 130.887 212.784 130.815C212.712 130.719 212.616 130.671 212.496 130.671H208.284C208.164 130.671 208.056 130.719 207.96 130.815C207.888 130.887 207.852 130.983 207.852 131.103V135.567C207.852 135.687 207.792 135.747 207.672 135.747H202.2C202.152 135.747 202.116 135.723 202.092 135.675C202.068 135.627 202.068 135.579 202.092 135.531L208.104 122.031C208.176 121.863 208.176 121.743 208.104 121.671C208.056 121.575 207.948 121.527 207.78 121.527H203.28C203.04 121.527 202.872 121.635 202.776 121.851L196.296 136.395C196.224 136.611 196.188 136.791 196.188 136.935V139.815C196.188 139.935 196.224 140.043 196.296 140.139C196.392 140.211 196.5 140.247 196.62 140.247H207.672C207.792 140.247 207.852 140.307 207.852 140.427V146.295C207.852 146.415 207.888 146.523 207.96 146.619C208.056 146.691 208.164 146.727 208.284 146.727H212.496C212.616 146.727 212.712 146.691 212.784 146.619C212.88 146.523 212.928 146.415 212.928 146.295V140.427C212.928 140.307 212.988 140.247 213.108 140.247H214.656C214.776 140.247 214.872 140.211 214.944 140.139C215.04 140.043 215.088 139.935 215.088 139.815V136.179C215.088 136.059 215.04 135.963 214.944 135.891Z" fill="#043A2E"/>
</svg>
