<svg width="1391" height="668" viewBox="0 0 1391 668" fill="none" xmlns="http://www.w3.org/2000/svg">
<path d="M1209.33 337.518C1209.33 337.518 1209.17 308.632 1252.2 310.128C1295.21 311.626 1347.71 334.725 1362.34 361.594C1376.98 388.462 1375.94 411.526 1365.62 417.142C1355.3 422.758 1377.85 413.202 1377.85 413.202C1377.85 413.202 1412.98 349.666 1329.85 308.274C1246.72 266.882 1210.97 244.349 1165.7 253.487C1120.42 262.643 1090.27 264.483 1090.27 264.483C1090.27 264.483 1075.43 273.16 1050.29 206.822C1025.15 140.483 1004.81 97.7062 1004.81 97.7062C1004.81 97.7062 990.387 55.9862 958.576 61.2002C958.576 61.2002 936.822 39.2734 930.693 67.686C930.693 67.686 906.163 79.6096 919.958 92.5434C933.756 105.495 952.19 76.4458 952.19 76.4458C952.19 76.4458 984.348 71.4795 997.102 103.225C1009.86 134.97 1025.8 244.296 1025.8 244.296L1052.2 421.694C1052.2 421.694 1054.58 448.07 1072.9 445.605C1091.2 443.143 1071.11 398.766 1071.11 398.766L1059.66 343.995C1059.66 343.995 1062.44 323.217 1074.43 343.871L1090.73 417.393C1090.73 417.393 1097.97 442.17 1105.64 436.932C1113.32 431.693 1104.28 391.048 1104.28 391.048L1097.51 350.906C1097.51 350.906 1092.53 322.803 1115.32 314.485C1138.11 306.167 1156.39 326.262 1162.52 350.528C1168.64 374.812 1176.2 404.74 1176.2 404.74C1176.2 404.74 1175.35 417.504 1187.72 417.448C1200.08 417.392 1186.19 374.974 1186.19 374.974L1185.07 358.408L1181.72 349.675C1181.72 349.675 1186.66 325.308 1196.86 350.679C1207.06 376.05 1207.86 399.398 1207.86 399.398C1207.86 399.398 1213.42 415.971 1220.6 412.66C1227.77 409.349 1239.07 386.459 1209.33 337.518Z" fill="#043A2E"/>
<path d="M481.6 572.178C481.6 572.178 484.233 569.69 474.336 563.414C464.439 557.138 466.624 529.542 476.394 531.851C476.394 531.851 478.084 550.437 506.306 556.413C506.306 556.413 510.252 547.397 510.974 541.119C511.696 534.842 514.582 556.911 514.582 556.911C514.582 556.911 525.44 560.236 528.626 566.113L534.145 566.549C534.145 566.549 537.288 559.892 538.056 560.215C538.823 560.538 542.067 567.564 542.067 567.564C542.067 567.564 548.438 563.354 551.244 574.823C551.244 574.823 554.468 581.933 531.777 583.25C509.086 584.568 500.491 599.043 500.491 599.043C500.491 599.043 498.406 609.163 512.26 622.03C526.115 634.896 518.027 636.739 518.027 636.739C518.027 636.739 514.998 640.781 506.839 629.571C498.68 618.36 494.966 619.967 494.966 619.967C494.966 619.967 494.339 622.798 501.104 632.399C507.873 641.996 505.527 646.638 505.527 646.638C505.527 646.638 503.458 650.167 491.288 636.283C479.117 622.4 468.513 638.012 468.513 638.012C468.513 638.012 459.031 646.733 463.232 652.691C467.432 658.65 481.641 674.597 474.135 677.771C474.135 677.771 470.854 679.828 466.111 670.068C461.368 660.308 452.017 658.872 452.017 658.872C452.017 658.872 447.395 658.808 457.013 669.872C466.63 680.936 465.101 683.534 465.101 683.534C465.101 683.534 465.027 693.696 447.667 669.999C447.667 669.999 440.652 654.036 434.945 657.986C429.237 661.935 411.354 682.623 401.275 677.746C401.275 677.746 417.717 664.304 418.234 641.466C418.75 618.628 420.894 606.727 420.894 606.727C420.894 606.727 426.942 587.362 445.568 582.65C464.193 577.938 474.832 576.323 475.638 577.26C476.448 578.201 481.6 572.178 481.6 572.178Z" fill="#043A2E"/>
<path d="M1062.29 514.245C1062.29 514.245 1055.03 526.795 1022.9 513.799C1022.9 513.799 1000.04 507.463 990.125 518.349C980.206 529.234 1023.86 548.205 1023.86 548.205C1023.86 548.205 1041.88 564.896 1047.52 568.213C1053.16 571.53 1048.14 601.386 1048.14 601.386C1048.14 601.386 1054.83 613.525 1060.31 603.083C1065.78 592.637 1073.84 581.385 1073.84 581.385C1073.84 581.385 1082.27 571.422 1085.11 583.689L1080.59 599.57C1080.59 599.57 1075.68 613.956 1080.53 617.588C1085.38 621.22 1089 613.934 1089 613.934L1098.46 588.014C1098.46 588.014 1107.37 577.29 1116.52 583.02C1125.67 588.751 1132.19 592.553 1127.43 605.521C1122.66 618.489 1118.97 628.601 1127.73 633.82C1136.49 639.039 1141.2 608.969 1141.2 608.969C1141.2 608.969 1144.82 594.683 1152.93 596.439C1161.04 598.196 1148.73 622.155 1148.73 622.155C1148.73 622.155 1141.64 634.887 1151.62 642.295C1161.59 649.713 1167.74 618.619 1167.74 618.619C1167.74 618.619 1174.91 601.33 1179.79 606.936C1184.68 612.541 1202.36 634.883 1211.07 630.605L1201.81 618.412C1201.81 618.412 1220.52 613.072 1192.72 607.096C1192.72 607.096 1216.34 602.552 1221.21 592.602C1221.21 592.602 1203.31 582.476 1191.35 590.711L1189.17 586.895C1189.17 586.895 1197.8 586.884 1204.27 579.248C1210.74 571.616 1214.2 574.441 1214.2 574.441C1214.2 574.441 1233.12 561.975 1206.61 562.39C1206.61 562.39 1199.09 557.134 1192.54 563.17C1185.98 569.206 1186.13 554.26 1186.13 554.26C1186.13 554.26 1219.1 551.302 1216.24 532.584C1216.24 532.584 1200.1 511.273 1191.15 527.567C1182.2 543.848 1175.78 528.094 1175.78 528.094L1176.38 523.984C1176.38 523.984 1212.95 514.986 1205.67 504.635L1209.35 493.036C1209.35 493.036 1219.54 482.872 1197.28 483.477C1175.01 484.091 1172.12 495.763 1172.12 495.763L1165.41 513.847L1155.09 509.083C1155.09 509.083 1156.89 496.858 1165.3 489.856C1173.71 482.865 1183.77 478.788 1170.2 462.177C1170.2 462.177 1169.02 446.71 1141.26 457.332C1141.26 457.332 1137.31 480.641 1139.32 494.346C1139.32 494.346 1135.3 505.292 1125.66 499.588C1116.02 493.874 1130.88 485.328 1130.88 485.328C1130.88 485.328 1137.25 471.732 1128.36 452.247C1119.47 432.772 1105.72 469.064 1105.72 469.064C1105.72 469.064 1100.24 481.057 1108.52 490.796C1108.52 490.796 1117.85 496.723 1095.93 499.627C1095.93 499.627 1103.91 484.104 1088.28 478.182C1072.65 472.259 1079.53 501.677 1087.73 500.654L1076.77 505.861C1076.77 505.861 1075.3 489.911 1062.3 492.255C1062.3 492.255 1054.57 503.093 1066.29 511.566L1062.29 514.245Z" fill="#043A2E"/>
<path d="M975.782 423.911C975.782 423.911 965.629 424.043 964.338 426.199C964.338 426.199 958.505 431.55 958.488 433.336C958.467 435.121 956.076 436.305 962.076 437.897C968.077 439.489 973.773 435.668 973.773 435.668C973.773 435.668 977.1 433.964 978.338 437.967C979.576 441.97 980.517 444.687 980.517 444.687C980.517 444.687 982.21 449.333 984.182 445.119C984.182 445.119 984.141 441.436 984.92 441.606C985.698 441.777 985.825 446.496 985.825 446.496C985.825 446.496 988.473 447.439 988.655 446.012C988.838 444.584 989.11 438.258 990.554 436.69C991.999 435.118 999.194 437.782 999.194 437.782C999.194 437.782 1001.6 440.091 1002.23 444.655C1002.85 449.219 1004.59 445.715 1004.59 445.715L1004.96 440.799C1004.96 440.799 1005.75 436.008 1009.14 439.609L1009.52 444.317C1009.52 444.317 1009.45 448.399 1012.08 444.655L1012.86 438.379C1012.86 438.379 1013.33 434.211 1015.11 434.969C1016.89 435.726 1034.82 439.539 1034.82 439.539C1034.82 439.539 1037.28 439.127 1035.1 437.124C1035.1 437.124 1021.78 429.353 1019.82 427.271C1017.87 425.189 1015.28 423.979 1015.28 423.979L1013.74 428.184L1012.08 426.343C1012.08 426.343 1013.84 419.018 1012.11 414.886C1010.39 410.75 1007.34 425.985 1007.34 425.985L1005.37 424.904L1010.43 409.57C1010.43 409.57 1009.89 405.041 1008.24 404.289C1006.59 403.537 1000.91 424.698 1000.91 424.698L999.008 423.629L1005.34 403.226C1005.34 403.226 1004.79 399.443 1001.4 400.562L995.432 422.989C995.432 422.989 994.432 424.857 994.597 419.973C994.762 415.088 998.943 400.735 998.943 400.735C998.943 400.735 995.712 398.312 994.618 402.263C993.527 406.213 990.61 423.99 990.61 423.99L989.508 422.865L991.884 405.728C991.884 405.728 991.887 399.884 988.198 405.1L985.642 422.569L983.82 422.278L985.828 411.899C985.828 411.899 986.146 407.161 984.507 410.313C982.867 413.464 982.348 422.677 982.348 422.677L980.561 422.68L980.402 419.253C980.402 419.256 975.693 422.539 975.782 423.911Z" fill="#043A2E"/>
<path d="M919.742 675.86C929.635 663.89 946.626 640.698 946.626 640.698C940.086 636.194 935.752 627.311 935.752 627.311C935.752 627.311 933.366 628.803 921.854 629.878C910.342 630.952 913.344 641.541 913.344 641.541C906.96 641.128 906.303 628.71 919.675 626.037C933.046 623.364 933.393 620.582 933.393 620.582C933.393 620.582 921.373 616.065 912.635 613.204C903.898 610.34 905.162 623.541 905.162 623.541C905.162 623.541 898.375 624.034 900.736 616.723C903.097 609.411 913.572 609.663 913.572 609.663L932.109 612.86C925.079 597.287 932.413 584.399 935.771 575.425C939.13 566.451 933.107 564.794 933.107 564.794C933.107 564.794 929.8 564.345 921.976 559.143C914.152 553.941 922.331 553.621 922.331 553.621L933.654 552.399C933.654 552.399 934.016 551.156 927.699 542.858C921.381 534.56 929.183 533.942 929.183 533.942C942.717 539.639 949.017 546.399 949.017 546.399C957.969 548.209 955.903 555.141 955.903 555.141C962.527 565.386 954.763 575.315 948.935 585.107C943.107 594.9 955.127 599.414 955.127 599.414C973.348 608.473 980.109 623.222 980.109 623.222C986.336 626.565 995.128 638.018 995.128 638.018C995.128 638.018 1011.35 646.432 1036.09 647.154C1060.83 647.876 1074.41 660.932 1074.41 660.932C1094.86 678.449 1093.18 701.257 1093.18 701.257C1087.9 680.333 1076.36 671.308 1067.57 663.828C1058.78 656.347 1048.26 658.5 1033.23 660.177C1018.2 661.856 986.733 658.044 976.87 654.271C963.493 649.154 939.623 687.284 939.623 687.284C939.623 687.284 937.005 690.046 932.971 686.434C928.937 682.823 954.495 655.398 954.495 655.398C954.495 655.398 961.149 650.984 955.106 646.516C953.694 645.472 942.174 658.018 936.91 666.315C934.956 669.395 927.302 679.236 924.659 680.063C920.834 681.255 918.147 677.788 919.742 675.86Z" fill="#043A2E"/>
<path d="M565.286 119.653L570.563 110.86L567.926 95.4764L555.616 63.3865C555.616 63.3865 504.179 10.1983 480 8C480 8 506.377 8 516.047 11.5164C525.717 15.0328 552.095 22.5078 552.095 22.5078L550.776 17.2311L557.81 17.6691V26.4622L574.075 45.3623L585.506 63.8245H593.419C593.419 63.8245 600.015 47.5606 604.85 44.0442C604.85 44.0442 598.696 40.0898 599.134 34.3751C599.134 34.3751 616.28 40.97 618.916 44.9244C618.916 44.9244 636.942 52.8373 637.818 56.3537L614.077 50.2011L630.343 63.8287C630.343 63.8287 615.396 62.0684 612.317 55.9157C609.238 49.7631 600.006 66.9071 600.006 66.9071L610.118 73.527L654.968 71.7375L661.563 63.8245L665.96 69.9772L661.563 73.5186C661.563 73.5186 710.802 113.934 713 128L695.854 117.009C695.854 117.009 649.695 98.1085 625.074 97.2283C625.074 97.2283 604.85 106.021 600.457 107.34L589.026 117.009L588.588 128H579.795L582.873 116.133L591.225 106.902C591.225 106.902 587.708 101.625 583.311 104.265C583.311 104.265 578.914 98.9886 575.836 100.311L574.955 117.017L571.439 124.93L565.286 119.653Z" fill="#043A2E"/>
<path d="M312.321 390.235C318.938 371.671 332.88 356.751 332.88 356.751C344.48 353.436 372.315 334.205 372.315 334.205C384.907 342.161 378.28 366.362 378.28 366.362C406.782 344.479 381.264 328.238 381.264 328.238L385.575 324.26C412.752 335.531 402.143 356.751 402.143 356.751C429.983 341.503 397.504 318.956 397.504 318.956L403.468 304.37C403.468 304.37 443.9 254.641 491.622 259.945C539.343 265.249 549.284 256.63 549.284 256.63L557.237 238.729C583.751 199.608 510.178 192.978 510.178 192.978C500.242 175.731 473.728 178.383 473.728 178.383C449.202 165.786 431.971 184.349 431.971 184.349C390.214 228.112 366.35 216.178 366.35 216.178C298.742 206.233 229.15 249.995 229.15 249.995C229.15 249.995 173.471 277.846 97.9147 281.824C22.3584 285.802 0 326.588 0 326.588C0 326.588 47.5372 295.746 108.185 318.293C168.832 340.84 260.299 366.367 260.299 366.367C261.614 404.825 258.784 470.436 258.784 470.436C258.784 470.436 257.638 489 266.916 489C276.194 489 274.869 467.779 274.869 467.779L281.496 378.296C281.496 378.296 293.425 366.362 294.751 380.948C296.076 395.534 290.774 470.431 290.774 470.431C290.774 470.431 290.774 488.995 301.378 488.995C311.992 489 312.321 390.235 312.321 390.235Z" fill="#043A2E"/>
<path d="M431.084 486.204L444.186 553.273C444.186 553.273 445.43 560.574 441.41 561.538C437.39 562.503 436.334 557.95 435.827 554.977C435.32 552.004 424.525 500.123 424.525 500.123C424.525 500.123 423.285 494.491 420.032 495.045C416.779 495.6 417.47 499.656 417.839 501.822C418.207 503.984 427.057 555.916 427.057 555.916C427.057 555.916 429.118 563.102 425.142 564.325C421.166 565.548 419.645 556.62 419.645 556.62L408.832 504.467C408.832 504.467 395.079 495.954 372.277 506.242C349.474 516.531 352.712 538.799 280.129 564.808C280.129 564.808 331.69 526.8 349.691 485.878C367.692 444.956 408.037 419.715 408.037 419.715C408.037 419.715 431.947 402.839 456.476 409.237C481.004 415.634 477.315 407.075 477.315 407.075C477.315 407.075 478.574 404.636 473.526 396.309C468.479 387.982 474.421 378.621 474.421 378.621C474.421 378.621 475.274 362.335 451.612 372.491C451.612 372.491 445.436 378.832 445.726 370.71C446.016 362.588 477.764 363.86 477.764 363.86C477.764 363.86 489.033 366.114 508.156 380.111C527.28 394.107 492.916 393.84 492.916 393.84C492.916 393.84 502.243 410.9 490.091 429.667C490.091 429.667 491.946 443.822 486.143 453.998C480.341 464.174 491.319 474.545 491.319 474.545C491.319 474.545 497.027 491.663 486.37 496.263C486.37 496.263 483.522 501.43 485.491 476.373C485.491 476.373 476.961 467.25 476.111 455.707C476.111 455.707 466.334 467.116 454.042 468.651C441.75 470.19 431.084 486.204 431.084 486.204Z" fill="#043A2E"/>
</svg>
