<svg width="793" height="410" viewBox="0 0 793 410" fill="none" xmlns="http://www.w3.org/2000/svg">
<g clip-path="url(#clip0)">
<path d="M461.247 175.484C461.247 175.484 568.48 139.202 612.271 193.757C656.052 248.313 700.518 299.267 616.399 316.726C532.289 334.173 433.414 354.83 433.414 354.83C433.414 354.83 376.321 373.211 350.582 313.834C324.843 254.457 328.84 241.084 280.487 246.606C232.135 252.128 58.7329 274.919 58.7329 274.919C58.7329 274.919 50.1269 356.518 36.6146 309.442L30.9255 268.268L13.0895 198.466C13.0895 198.466 18.4302 177.912 36.267 213.909C54.1038 249.907 55.525 260.192 80.7688 256.704C106.013 253.216 412.161 184.114 412.161 184.114C412.161 184.114 425.149 77.6774 445.843 66.6538C466.536 55.6302 123.595 143.565 175.71 106.067L460.59 57.0157C460.59 57.0157 736.772 -5.2518 750.658 2.15266C764.544 9.5571 457.591 64.425 457.591 64.425C457.591 64.425 435.654 151.051 461.247 175.484Z" fill="#C4C4C4"/>
<path d="M656.711 256.755L354.675 321.876L348.748 310.308L652.892 248.947L656.711 256.755Z" fill="#6B93AE"/>
<path d="M346.495 304.346L649.339 243.923L643.951 235.254L343.005 295.759L346.495 304.346Z" fill="#6B93AE"/>
</g>
<defs>
<clipPath id="clip0">
<rect y="103.733" width="757.88" height="308.698" transform="rotate(-7.86694 0 103.733)" fill="white"/>
</clipPath>
</defs>
</svg>
