<svg width="27" height="274" viewBox="0 0 27 274" fill="none" xmlns="http://www.w3.org/2000/svg">
<path d="M14.4779 1C14.4779 1 0.288864 39.4641 14.4779 67.5783C28.667 95.6925 14.4779 141.795 14.4779 141.795C14.4779 141.795 -1.12684 183.642 14.4779 207.046C30.0827 230.449 12.7023 266.625 12.7023 266.625" stroke="#7FB800" stroke-width="2" stroke-miterlimit="10"/>
<path d="M10.934 13.7654L1.71191 26.5308" stroke="#7FB800" stroke-width="2" stroke-miterlimit="10"/>
<path d="M7.54332 26.8826L2.06445 42.1354" stroke="#7FB800" stroke-width="2" stroke-miterlimit="10"/>
<path d="M8.41453 44.2632L1.71191 57.7404" stroke="#7FB800" stroke-width="2" stroke-miterlimit="10"/>
<path d="M11.0937 59.0681L7.54248 75.5767" stroke="#7FB800" stroke-width="2" stroke-miterlimit="10"/>
<path d="M17.9969 76.7444L12.3501 86.1105" stroke="#7FB800" stroke-width="2" stroke-miterlimit="10"/>
<path d="M20.9794 88.95L14.2607 100.292" stroke="#7FB800" stroke-width="2" stroke-miterlimit="10"/>
<path d="M20.9794 104.41L14.2607 118.024" stroke="#7FB800" stroke-width="2" stroke-miterlimit="10"/>
<path d="M18.3401 125.046L9.50195 133.805" stroke="#7FB800" stroke-width="2" stroke-miterlimit="10"/>
<path d="M12.709 266.617L4.80664 273" stroke="#7FB800" stroke-width="2" stroke-miterlimit="10"/>
<path d="M16.8766 255.603L7.54248 260.594" stroke="#7FB800" stroke-width="2" stroke-miterlimit="10"/>
<path d="M20.9805 243.214L12.2144 249.949" stroke="#7FB800" stroke-width="2" stroke-miterlimit="10"/>
<path d="M20.9794 227.609L14.2607 239.671" stroke="#7FB800" stroke-width="2" stroke-miterlimit="10"/>
<path d="M17.6212 216.971L12.2144 227.257" stroke="#7FB800" stroke-width="2" stroke-miterlimit="10"/>
<path d="M12.2135 203.07L5.06299 222.114" stroke="#7FB800" stroke-width="2" stroke-miterlimit="10"/>
<path d="M8.63818 192.065L2.77539 198.176" stroke="#7FB800" stroke-width="2" stroke-miterlimit="10"/>
<path d="M7.54326 179.379L2.42432 190.017" stroke="#7FB800" stroke-width="2" stroke-miterlimit="10"/>
<path d="M8.63843 165.582L1 177.604" stroke="#7FB800" stroke-width="2" stroke-miterlimit="10"/>
<path d="M12.2134 152.073L2.77539 164.838" stroke="#7FB800" stroke-width="2" stroke-miterlimit="10"/>
<path d="M14.4772 141.787L6.31885 146.754" stroke="#7FB800" stroke-width="2" stroke-miterlimit="10"/>
<path d="M16.5967 131.861L6.31885 146.754" stroke="#7FB800" stroke-width="2" stroke-miterlimit="10"/>
<path d="M10.3979 20.1479L11.4617 30.9617" stroke="#7FB800" stroke-width="2" stroke-miterlimit="10"/>
<path d="M9.31836 36.1045L14.2613 44.2628" stroke="#7FB800" stroke-width="2" stroke-miterlimit="10"/>
<path d="M10.3979 51.0059L17.6205 59.868" stroke="#7FB800" stroke-width="2" stroke-miterlimit="10"/>
<path d="M14.4775 67.5703L25.4753 75.5767" stroke="#7FB800" stroke-width="2" stroke-miterlimit="10"/>
<path d="M20.98 88.95L25.1151 96.3964" stroke="#7FB800" stroke-width="2" stroke-miterlimit="10"/>
<path d="M23.0518 100.651L25.1153 111.217" stroke="#7FB800" stroke-width="2" stroke-miterlimit="10"/>
<path d="M19.6201 116.68L20.9798 129.43" stroke="#7FB800" stroke-width="2" stroke-miterlimit="10"/>
<path d="M16.5972 131.861V149.593" stroke="#7FB800" stroke-width="2" stroke-miterlimit="10"/>
<path d="M12.2144 152.073L16.5975 165.902" stroke="#7FB800" stroke-width="2" stroke-miterlimit="10"/>
<path d="M8.63867 165.582L12.2139 178.668" stroke="#7FB800" stroke-width="2" stroke-miterlimit="10"/>
<path d="M7.71094 184.698L16.5971 195.12" stroke="#7FB800" stroke-width="2" stroke-miterlimit="10"/>
<path d="M12.2144 203.07L20.3007 210.589" stroke="#7FB800" stroke-width="2" stroke-miterlimit="10"/>
<path d="M17.6211 216.971L25.8274 228.321" stroke="#7FB800" stroke-width="2" stroke-miterlimit="10"/>
<path d="M21.7241 233.64L25.8273 248.181" stroke="#7FB800" stroke-width="2" stroke-miterlimit="10"/>
<path d="M18.1807 251.061L24.0834 264.49" stroke="#7FB800" stroke-width="2" stroke-miterlimit="10"/>
<path d="M14.9175 261.298L16.5971 273" stroke="#7FB800" stroke-width="2" stroke-miterlimit="10"/>
</svg>
