<svg width="1200" height="678" viewBox="0 0 1200 678" fill="none" xmlns="http://www.w3.org/2000/svg">
<path d="M351.582 673.037C351.582 673.037 346.341 718.383 405.155 702.498C405.155 702.498 375.415 694.885 378.588 682.601C378.588 682.601 411.264 704.865 425.579 686.889C425.579 686.889 393.617 682.279 388.799 674.809C388.799 674.809 455.49 690.374 448.711 657.947C448.711 657.947 414.919 670.871 405.262 655.906C405.262 655.906 466.16 661.875 456.425 626.177C456.425 626.177 411.713 651.021 395.777 636.788C395.777 636.788 454.876 631.269 458.407 613.838C461.939 596.408 461.964 596.385 461.964 596.385C461.964 596.385 401.741 642.256 400.046 612.125C400.046 612.125 438.582 608.747 456.291 584.715L454.846 571.187C454.846 571.187 406.327 610.363 408.813 590.78C408.813 590.78 454.652 575.314 446.361 553.168C446.361 553.168 426.381 581.23 419.924 564.358C419.924 564.358 450.563 552.337 428.615 533.686C406.666 515.035 405.773 556.449 405.773 556.449C405.773 556.449 397.254 605.357 401.914 528.085C401.914 528.085 380.276 525.222 387.255 575.279C394.234 625.335 376.111 569.567 376.111 569.567C376.111 569.567 370.826 549.642 370.432 536.14C370.036 522.661 351.276 546.644 360.594 568.838C369.911 591.032 373.773 597.43 373.773 597.43C373.773 597.43 373.15 631.589 355.711 584.149L345.974 549.503C345.974 549.503 316.108 559.504 339.2 590.641C362.292 621.778 362.292 621.778 362.292 621.778C362.292 621.778 346.643 638.78 342.934 614.699L324.084 574.39C324.084 574.39 305.616 592.171 322.384 610.579C339.152 628.987 349.739 646.053 327.814 627.402C305.889 608.752 305.889 608.752 305.889 608.752C305.889 608.752 291.873 642.282 323.788 646.89C355.704 651.497 350.353 655.382 350.353 655.382L310.202 649.359C310.18 649.335 307.362 709.307 351.582 673.037Z" fill="#3FA34D"/>
<path d="M966.963 642.832C966.963 642.832 1015.8 674.734 1031.25 598.427C1031.25 598.427 1005.56 628.072 993.328 617.426C993.328 617.426 1037.45 592.795 1025.08 566.16C1025.08 566.16 1001.55 600.063 990.255 601.3C990.255 601.3 1046.16 533.96 1005.22 523.179C1005.22 523.179 1000.68 569.192 978.054 571.68C978.054 571.68 1019.68 505.478 973.306 496.208C973.306 496.208 976.156 561.515 950.781 571.598C950.781 571.598 978.242 500.888 960.335 486.89C942.427 472.893 942.416 472.852 942.416 472.852C942.416 472.852 960.439 567.905 925.027 552.625C925.027 552.625 943.186 506.645 925.834 472.668L909.543 466.59C909.543 466.59 926.602 544.439 905.637 530.406C905.637 530.406 914.15 469.17 884.098 465.992C884.098 465.992 904.758 504.868 881.782 502.608C881.782 502.608 885.549 460.715 851.687 475.146C817.824 489.578 864.655 514.264 864.655 514.264C864.655 514.264 915.695 551.949 830.026 502.468C830.026 502.468 814.39 525.567 875.598 546.192C936.807 566.818 862.701 555.667 862.701 555.667C862.701 555.667 836.905 550.323 821.245 543.058C805.611 535.808 822.306 570.957 853.001 572.989C883.695 575.021 893.215 574.261 893.215 574.261C893.215 574.261 931.908 594.493 867.713 587.319L822.544 578.653C822.544 578.653 816.91 618.508 865.699 609.903C914.488 601.298 914.488 601.298 914.488 601.298C914.488 601.298 924.981 628.902 895.334 619.382L838.486 617.896C838.486 617.896 848.258 649.168 878.882 640.518C909.506 631.869 935.064 629.519 901.216 643.924C867.368 658.33 867.368 658.33 867.368 658.33C867.368 658.33 897.687 693.513 921.192 659.662C944.696 625.811 946.08 634.148 946.08 634.148L916.251 676.604C916.211 676.616 983.156 714.106 966.963 642.832Z" fill="#3FA34D"/>
<path d="M577.668 -15.4869C577.668 -15.4869 560.586 -57.8185 516.529 -15.7428C516.529 -15.7428 546.289 -23.278 549.376 -10.973C549.376 -10.973 510.031 -14.8999 506.055 7.73264C506.055 7.73264 536.331 -3.50329 544.134 0.754193C544.134 0.754193 478.12 18.975 499.579 44.2128C499.579 44.2128 523.077 16.7027 538.715 25.2285C538.715 25.2285 482.377 49.107 507.997 75.8031C507.997 75.8031 535.386 32.603 556.187 37.4825C556.187 37.4825 506.923 70.5906 512.157 87.588C517.39 104.586 517.379 104.617 517.379 104.617C517.379 104.617 548.334 35.532 564.232 61.185C564.232 61.185 532.003 82.5786 527.942 112.154L535.681 123.344C535.681 123.344 559.559 65.735 566.739 84.1231C566.739 84.1231 533.878 119.626 551.749 135.111C551.749 135.111 555.878 100.911 569.616 112.641C569.616 112.641 548.456 137.85 576.651 143.735C604.846 149.62 585.827 112.821 585.827 112.821C585.827 112.821 569.921 65.7936 602.78 135.886C602.78 135.886 623.152 128.053 593.086 87.4281C563.019 46.8032 605.604 87.1151 605.604 87.1151C605.604 87.1151 619.773 102.087 626.577 113.757C633.37 125.406 638.377 95.3715 619.581 80.335C600.785 65.2985 594.334 61.5267 594.334 61.5267C594.334 61.5267 578.546 31.2285 616.547 64.5536L641.667 90.325C641.667 90.325 663.114 67.2599 627.944 50.9563C592.773 34.6528 592.773 34.6528 592.773 34.6528C592.773 34.6528 598.387 12.2377 613.16 31.6126L648.99 58C648.99 58 656.707 33.5526 633.178 25.4044C609.649 17.2562 592.19 7.33079 620.364 13.2258C648.538 19.1208 648.538 19.1208 648.538 19.1208C648.538 19.1208 644.814 -17.0297 614.581 -5.81422C584.347 5.40132 587.189 -0.569335 587.189 -0.569335L625.332 -14.4802C625.363 -14.4694 599.159 -68.4874 577.668 -15.4869Z" fill="#3FA34D"/>
<path d="M1180.24 289.908C1180.24 289.908 1211.6 256.743 1155 234.221C1155 234.221 1174.25 258.136 1164.35 266.069C1164.35 266.069 1151.52 228.666 1129.29 234.48C1129.29 234.48 1152.12 257.322 1151.5 266.19C1151.5 266.19 1107.43 213.768 1093.43 243.791C1093.43 243.791 1128.23 253.691 1126.99 271.459C1126.99 271.459 1081.82 230.192 1068.22 264.605C1068.22 264.605 1118.9 271.505 1123.13 292.448C1123.13 292.448 1072.51 261.457 1059.24 273.296C1045.97 285.135 1045.93 285.138 1045.93 285.138C1045.93 285.138 1121.63 284.497 1104.94 309.637C1104.94 309.637 1072.06 289.251 1043.48 297.881L1036.53 309.578C1036.53 309.578 1098.85 307.284 1085.13 321.472C1085.13 321.472 1039.16 306.39 1032.53 329.088C1032.53 329.088 1065.34 318.593 1060.4 335.969C1060.4 335.969 1028.67 327.235 1035.07 355.319C1041.46 383.402 1066.99 350.781 1066.99 350.781C1066.99 350.781 1103.12 316.728 1053.09 375.802C1053.09 375.802 1068.7 391.058 1093.1 346.8C1117.51 302.542 1098.6 358.05 1098.6 358.05C1098.6 358.05 1090.89 377.169 1083.12 388.215C1075.36 399.244 1104.75 391.283 1110.59 367.932C1116.43 344.58 1117.17 337.144 1117.17 337.144C1117.17 337.144 1138.13 310.169 1123.67 358.599L1110.71 392.172C1110.71 392.172 1140.61 402.06 1140.78 363.295C1140.95 324.529 1140.95 324.529 1140.95 324.529C1140.95 324.529 1163.66 320.294 1152.21 341.796L1143.14 385.362C1143.14 385.362 1168.58 382.192 1166.19 357.408C1163.79 332.623 1165.54 312.616 1171.92 340.685C1178.3 368.753 1178.3 368.753 1178.3 368.753C1178.3 368.753 1209.61 350.307 1186.82 327.495C1164.03 304.683 1170.64 304.779 1170.64 304.779L1199.18 333.658C1199.18 333.691 1237.37 287.365 1180.24 289.908Z" fill="#3FA34D"/>
<path d="M6.03953 236.924C6.03953 236.924 -38.6168 227.461 -28.3083 287.504C-28.3083 287.504 -17.9438 258.607 -6.01173 262.916C-6.01173 262.916 -31.2368 293.365 -14.6803 309.3C-14.6803 309.3 -7.09818 277.909 0.790695 273.812C0.790695 273.812 -20.9507 338.753 11.9687 335.04C11.9687 335.04 2.26508 300.186 18.0692 291.973C18.0692 291.973 6.42445 352.044 42.8766 345.694C42.8766 345.694 22.3287 298.852 37.9906 284.32C37.9906 284.32 37.9523 343.675 54.9758 348.823C71.9993 353.972 72.0192 353.998 72.0192 353.998C72.0192 353.998 31.9882 289.745 62.1464 290.879C62.1464 290.879 61.9009 329.561 84.1695 349.443L97.7737 349.271C97.7737 349.271 63.312 297.297 82.5762 301.606C82.5762 301.606 93.6829 348.691 116.508 342.511C116.508 342.511 90.4398 319.99 107.842 315.142C107.842 315.142 116.941 346.772 137.566 326.666C158.19 306.56 117.041 301.793 117.041 301.793C117.041 301.793 69.146 288.733 145.642 300.607C145.642 300.607 150.518 279.332 100.028 281.594C49.5379 283.856 106.758 271.034 106.758 271.034C106.758 271.034 127.09 267.638 140.57 268.509C154.027 269.377 131.906 248.454 108.937 255.653C85.9677 262.851 79.2367 266.097 79.2367 266.097C79.2367 266.097 45.2858 262.279 94.1502 249.358L129.556 242.907C129.556 242.907 122.395 212.236 89.2327 232.312C56.0702 252.387 56.0702 252.387 56.0702 252.387C56.0702 252.387 40.6084 235.215 64.9305 233.777L106.827 218.784C106.827 218.784 90.8538 198.732 70.9567 213.703C51.0597 228.674 33.0775 237.617 53.6986 217.534C74.3197 197.451 74.3197 197.451 74.3197 197.451C74.3197 197.451 42.2494 180.357 34.6738 211.701C27.0982 243.045 23.7314 237.354 23.7314 237.354L33.487 197.943C33.5134 197.923 -25.9314 189.503 6.03953 236.924Z" fill="#3FA34D"/>
<path d="M8.44292 557.967C8.44292 557.967 -25.5876 588.392 28.9354 615.57C28.9354 615.57 11.7546 590.128 22.2835 583.051C22.2835 583.051 31.9317 621.396 54.5715 617.462C54.5715 617.462 33.7344 592.79 35.0934 584.006C35.0934 584.006 74.6212 639.929 91.0861 611.183C91.0861 611.183 57.2377 598.407 59.9553 580.804C59.9553 580.804 101.524 625.706 117.95 592.551C117.95 592.551 68.0218 581.435 65.558 560.212C65.558 560.212 113.411 595.329 127.626 584.642C141.841 573.954 141.874 573.954 141.874 573.954C141.874 573.954 66.386 568.261 85.1279 544.606C85.1279 544.606 116.183 567.67 145.383 561.461L153.285 550.386C153.285 550.386 90.9931 547.459 105.857 534.468C105.857 534.468 150.4 553.343 158.907 531.279C158.907 531.279 125.333 538.993 131.709 522.091C131.709 522.091 162.6 533.448 158.575 504.928C154.549 476.408 126.381 506.78 126.381 506.78C126.381 506.78 87.5343 537.691 142.33 483.01C142.33 483.01 128.053 466.501 100.031 508.562C72.0095 550.624 95.4915 496.892 95.4915 496.892C95.4915 496.892 104.771 478.485 113.442 468.127C122.097 457.786 92.1448 463.261 84.3733 486.042C76.6019 508.824 75.2413 516.172 75.2413 516.172C75.2413 516.172 52.0924 541.299 70.5559 494.248L86.2816 461.877C86.2816 461.877 57.31 449.522 53.8995 488.138C50.489 526.753 50.489 526.753 50.489 526.753C50.489 526.753 27.4986 529.074 40.7155 508.606L53.3887 465.95C53.3887 465.95 27.7729 466.981 28.0867 491.879C28.4004 516.777 24.9839 536.568 20.9752 508.064C16.9665 479.56 16.9665 479.56 16.9665 479.56C16.9665 479.56 -15.7791 495.322 5.02457 519.961C25.8282 544.6 19.2477 543.951 19.2477 543.951L-6.77386 512.786C-6.77428 512.753 -48.7052 555.722 8.44292 557.967Z" fill="#3FA34D"/>
</svg>
