<svg width="525" height="318" viewBox="0 0 525 318" fill="none" xmlns="http://www.w3.org/2000/svg">
<path d="M285.214 42.7168C285.214 42.7168 365.924 48.7659 318.584 145.855C318.584 145.855 315.28 91.5249 292.831 92.9392C292.831 92.9392 320.661 157.285 284.572 176.194C284.572 176.194 287.241 118.999 275.845 108.112C275.845 108.112 280.631 229.44 226.438 206.786C226.438 206.786 260.249 152.274 237.423 130.451C237.423 130.451 227.438 238.482 168.54 209.585C168.54 209.585 226.759 140.048 207.31 107.539C207.31 107.539 177.924 208.593 146.392 208.909C114.86 209.225 114.813 209.261 114.813 209.261C114.813 209.261 214.835 119.753 162.938 106.719C162.938 106.719 144.162 172.685 96.3912 195.479L73.3198 188.434C73.3198 188.434 157.769 117.064 122.84 114.841C122.84 114.841 80.5708 189.478 44.7853 167.632C44.7853 167.632 100.332 142.233 73.116 125.344C73.116 125.344 41.9327 174.67 16.8022 130.212C-8.32822 85.755 64.0802 98.058 64.0802 98.058C64.0802 98.058 152.088 99.5919 15.9848 81.8471C15.9848 81.8471 18.2409 43.2139 103.063 72.1165C187.885 101.019 96.8474 50.8016 96.8474 50.8016C96.8474 50.8016 63.9232 34.9328 40.5454 29.7274C17.2085 24.5279 65.2447 -0.110776 100.771 23.5391C136.297 47.1889 146.143 56.0544 146.143 56.0544C146.143 56.0544 205.829 66.4009 129.063 20.1621L71.997 -8.38687C71.997 -8.38687 99.4043 -57.0423 145.892 -6.41491C192.38 44.2125 192.38 44.2125 192.38 44.2125C192.38 44.2125 227.22 22.6543 186.532 8.13723L122.656 -38.1717C122.656 -38.1717 159.795 -64.3785 186.235 -29.0223C212.675 6.3339 238.847 30.4788 213.711 -13.9376C188.574 -58.354 188.574 -58.354 188.574 -58.354C188.574 -58.354 251.646 -71.5392 248.989 -14.4263C246.331 42.6867 254.886 34.67 254.886 34.67L257.835 -37.2561C257.8 -37.3029 363.165 -22.1403 285.214 42.7168Z" fill="#006C53"/>
<path d="M292.701 35.0812C292.701 35.0812 240.532 -15.9776 202.973 73.9116C202.973 73.9116 241.737 43.7896 254.15 59.8358C254.15 59.8358 193.995 79.3128 202.684 115.017C202.684 115.017 239.83 79.1435 253.991 80.3765C253.991 80.3765 168.969 149.4 216.59 172.611C216.59 172.611 233.371 117.243 261.746 119.705C261.746 119.705 194.528 190.811 249.179 213.49C249.179 213.49 261.599 132.643 295.2 126.452C295.2 126.452 244.262 206.543 262.829 228.087C281.395 249.631 281.399 249.683 281.399 249.683C281.399 249.683 282.446 128.63 322.184 156.015C322.184 156.015 288.69 208.022 301.706 253.952L320.218 265.381C320.218 265.381 318.256 165.677 340.566 188.01C340.566 188.01 315.193 261.092 351.303 272.316C351.303 272.316 335.42 219.569 363.069 227.942C363.069 227.942 348.235 278.44 393.313 268.981C438.39 259.522 386.93 217.81 386.93 217.81C386.93 217.81 333.473 159.119 426.556 240.728C426.556 240.728 451.377 216.189 381.281 175.957C311.185 135.725 399.419 167.471 399.419 167.471C399.419 167.471 429.776 180.318 447.226 193.05C464.647 205.759 452.723 158.55 415.546 148.576C378.369 138.602 366.5 137.213 366.5 137.213C366.5 137.213 323.943 102.953 400.982 127.403L454.306 149.048C454.306 149.048 470.935 101.506 408.958 100.176C346.981 98.8456 346.981 98.8456 346.981 98.8456C346.981 98.8456 340.831 62.4096 374.897 81.3191L444.306 96.9985C444.306 96.9985 439.934 56.2362 400.241 59.3878C360.547 62.5395 328.606 59.1952 373.659 49.7642C418.713 40.3332 418.713 40.3332 418.713 40.3332C418.713 40.3332 390.076 -10.2366 352.978 25.5805C315.88 61.3975 316.215 50.8288 316.215 50.8288L363.171 5.99119C363.224 5.98702 290.198 -56.3419 292.701 35.0812Z" fill="#3FA34D"/>
</svg>
