<svg width="402" height="308" viewBox="0 0 402 308" fill="none" xmlns="http://www.w3.org/2000/svg">
<path d="M130.654 19.7456C130.654 19.7456 138.002 -60.856 234.316 -11.9584C234.316 -11.9584 179.94 -9.52988 180.992 12.9388C180.992 12.9388 245.778 -13.8507 264.103 22.5384C264.103 22.5384 206.959 18.948 195.889 30.1668C195.889 30.1668 317.279 27.3366 293.755 81.1577C293.755 81.1577 239.794 46.4724 217.607 68.9443C217.607 68.9443 325.462 80.6683 295.621 139.093C295.621 139.093 227.03 79.7613 194.212 98.6838C194.212 98.6838 294.779 129.694 294.588 161.227C294.396 192.76 294.43 192.807 294.43 192.807C294.43 192.807 206.545 91.3563 192.677 143.037C192.677 143.037 258.332 162.873 280.354 211.005L272.938 233.96C272.938 233.96 202.938 148.372 200.152 183.261C200.152 183.261 274.099 226.727 251.679 262.156C251.679 262.156 227.178 206.207 209.853 233.147C209.853 233.147 258.67 265.121 213.814 289.532C168.957 313.943 182.425 241.743 182.425 241.743C182.425 241.743 185.377 153.771 165.441 289.571C165.441 289.571 126.85 286.692 157.115 202.347C187.38 118.002 135.703 208.218 135.703 208.218C135.703 208.218 119.305 240.883 113.724 264.173C108.149 287.424 84.2878 238.997 108.507 203.856C132.726 168.716 141.749 159.013 141.749 159.013C141.749 159.013 153.056 99.502 105.586 175.513L76.1215 232.112C76.1215 232.112 27.914 203.924 79.2837 158.258C130.653 112.592 130.653 112.592 130.653 112.592C130.653 112.592 109.659 77.4096 94.4887 117.858L47.1567 180.98C47.1567 180.98 21.5516 143.423 57.3292 117.556C93.1068 91.6892 117.67 65.9097 72.8546 90.3273C28.039 114.745 28.039 114.745 28.039 114.745C28.039 114.745 15.8716 51.4685 72.9343 55.0459C129.997 58.6232 122.119 49.9403 122.119 49.9403L50.25 45.8325C50.2026 45.8669 67.0607 -59.24 130.654 19.7456Z" fill="#006C53"/>
<path d="M154.039 23.9018C154.039 23.9018 84.2686 2.43977 92.0964 99.5452C92.0964 99.5452 112.738 55.0043 131.126 63.5746C131.126 63.5746 86.5936 108.461 110.683 136.21C110.683 136.21 127.251 87.2988 140.402 81.9026C140.402 81.9026 96.4825 182.223 149.445 181.02C149.445 181.02 138.976 124.12 165.323 113.3C165.323 113.3 138.181 207.309 197.148 202.411C197.148 202.411 171.123 124.866 198.147 103.96C198.147 103.96 189.594 198.491 215.97 209.126C242.347 219.761 242.375 219.806 242.375 219.806C242.375 219.806 187.811 111.743 235.682 117.864C235.682 117.864 229.756 179.438 262.379 214.29L284.071 215.962C284.071 215.962 236.62 128.251 266.686 137.872C266.686 137.872 277.639 214.453 314.876 207.875C314.876 207.875 276.58 168.277 304.99 163.044C304.99 163.044 314.957 214.724 350.683 185.652C386.408 156.581 321.552 143.101 321.552 143.101C321.552 143.101 247.137 115.447 367.275 145.303C367.275 145.303 378.085 112.116 297.345 108.495C216.605 104.873 309.574 92.6379 309.574 92.6379C309.574 92.6379 342.443 90.1385 363.788 93.455C385.097 96.7629 352.858 60.2737 315.245 68.4522C277.632 76.6307 266.447 80.8378 266.447 80.8378C266.447 80.8378 212.919 69.8988 292.595 56.3118L349.909 51.1027C349.909 51.1027 342.893 1.22788 287.202 28.4576C231.511 55.6874 231.511 55.6874 231.511 55.6874C231.511 55.6874 209.342 26.1251 248.286 27.3138L317.16 9.42932C317.16 9.42932 294.588 -24.7932 260.756 -3.79558C226.924 17.2021 197.004 28.8725 232.721 -0.162805C268.437 -29.1981 268.437 -29.1981 268.437 -29.1981C268.437 -29.1981 219.804 -61.0132 203.254 -12.1748C186.704 36.6636 182.156 27.1177 182.156 27.1177L203.332 -34.257C203.377 -34.2848 109.904 -56.2013 154.039 23.9018Z" fill="#3FA34D"/>
</svg>
