<svg width="499" height="493" viewBox="0 0 499 493" fill="none" xmlns="http://www.w3.org/2000/svg">
<path d="M271.585 360.874C271.585 360.874 280.701 333.463 320.978 348.684C361.238 363.901 403.55 402.62 408.792 432.763C414.034 462.906 405.655 484.419 394.076 486.426C382.496 488.434 406.92 486.616 406.92 486.616C406.92 486.616 460.582 437.711 395.124 371.839C329.665 305.968 303.027 273.156 257.216 267.287C211.4 261.437 182.253 253.508 182.253 253.508C182.253 253.508 165.41 256.965 162.88 186.068C160.349 115.17 154.802 68.1279 154.802 68.1279C154.802 68.1279 154.528 23.9873 122.725 18.7211C122.725 18.7211 109.155 -9.02503 94.2361 15.9199C94.2361 15.9199 67.1771 19.3442 76.0943 36.0198C85.008 52.7133 111.787 31.1127 111.787 31.1127C111.787 31.1127 143.838 36.7246 145.735 70.8835C147.632 105.042 127.661 213.705 127.661 213.705L95.7601 390.197C95.7601 390.197 89.5515 415.941 107.693 419.484C125.816 423.022 121.03 374.548 121.03 374.548L127.749 318.997C127.749 318.997 137.049 300.209 141.777 323.617L133.63 398.482C133.63 398.482 132.543 424.273 141.486 421.772C150.447 419.275 154.918 377.878 154.918 377.878L161.386 337.686C161.386 337.686 165.678 309.468 189.933 308.901C214.188 308.333 225.058 333.232 223.075 358.18C221.088 383.146 218.643 413.915 218.643 413.915C218.643 413.915 213.746 425.733 225.476 429.647C237.207 433.561 237.66 388.93 237.66 388.93L241.911 372.879L241.534 363.531C241.534 363.531 254.035 342.038 255.554 369.339C257.073 396.641 250.348 419.014 250.348 419.014C250.348 419.014 250.299 436.494 258.156 435.66C266.013 434.826 284.055 416.769 271.585 360.874Z" fill="#043A2E"/>
</svg>
