<svg width="279" height="233" viewBox="0 0 279 233" fill="none" xmlns="http://www.w3.org/2000/svg">
<path fill-rule="evenodd" clip-rule="evenodd" d="M101.833 157.926C101.833 157.926 108.822 188.106 111.639 204.601C112.092 207.258 116.812 207.502 118.528 203.541C119.711 200.801 117.058 187.633 115.917 183.871C112.844 173.739 110.7 155.511 112.545 155.093C120.443 153.301 119.369 161.837 119.369 161.837C119.369 161.837 123.789 201.989 129.575 201.234C135.36 200.479 134.946 196.4 134.946 196.4C134.946 196.4 120.596 150.1 134.181 142.775C144.196 137.376 169.431 114.367 178.631 100.912C179.519 99.6133 180.374 98.3459 181.205 97.1141C188.982 85.5841 194.659 77.1681 205.759 75.439C206.299 75.3549 206.846 75.2685 207.398 75.1811C219.416 73.2806 234.443 70.9044 254.329 80.8447C254.329 80.8447 236.884 63.4397 208.202 67.8203C208.202 67.8203 187.997 69.7232 170.012 89.4158C152.027 109.108 133.748 116.44 133.748 116.44C133.748 116.44 118.215 115.565 111.107 118.299C111.107 118.299 94.3107 113.448 74.102 121.957C74.102 121.957 61.9645 128.596 58.0669 116.952C57.6277 115.64 57.2045 114.307 56.7804 112.972C53.4409 102.453 50.0541 91.7855 38.4986 90.1925C38.4986 90.1925 34.2922 83.6314 26.5198 89.6676C26.5198 89.6676 16.5699 90.0584 2.40237 97.1036C2.40237 97.1036 -2.57899 103.908 8.63835 104.584C19.8557 105.26 20.6159 106.43 20.6159 106.43L13.6522 116.535C13.6522 116.535 8.16288 123.438 17.9115 120.708C27.6602 117.977 30.3522 115.593 30.3522 115.593C30.3522 115.593 35.9402 111.84 40.9055 120.892C41.566 122.096 42.2337 123.407 42.9363 124.786C47.5161 133.774 53.5863 145.688 68.8962 150.205L53.2516 163.092C53.2516 163.092 45.6805 171.467 49.9898 178.536C54.2991 185.605 58.6691 179.717 58.6691 179.717C58.6691 179.717 47.0015 171.467 55.4836 166.347C63.9633 161.224 76.1031 154.586 76.1031 154.586C76.1031 154.586 78.1312 156.825 70.9113 169.622C63.6914 182.42 74.2929 190.615 79.1187 185.693C79.1187 185.693 68.3621 180.698 75.5796 170.544C82.797 160.389 83.2565 157.391 83.2565 157.391C83.2565 157.391 93.5566 160.099 101.833 157.926ZM86.1156 125.345C85.8968 125.444 85.7474 125.55 85.6676 125.665L82.9449 128.825C82.7873 129.002 82.7578 129.199 82.8564 129.418L84.2258 132.197C84.3341 132.438 84.4868 132.514 84.6838 132.425L84.8003 132.333L87.6511 129.984C87.6851 129.942 87.7338 129.933 87.7972 129.957C87.8607 129.981 87.9023 130.015 87.922 130.059L96.0205 148.048C96.0698 148.158 96.1469 148.241 96.252 148.299C96.3691 148.326 96.4823 148.314 96.5918 148.265L100.433 146.536C100.542 146.486 100.615 146.414 100.651 146.319C100.699 146.192 100.698 146.074 100.649 145.964L90.659 123.773C90.6097 123.664 90.5265 123.596 90.4094 123.57C90.3044 123.512 90.1971 123.508 90.0877 123.557L86.1156 125.345Z" fill="#043A2E"/>
</svg>
