<svg width="797" height="327" viewBox="0 0 797 327" fill="none" xmlns="http://www.w3.org/2000/svg">
<g clip-path="url(#clip0)">
<path d="M257 215.75C259.53 211.86 261.73 208.21 264.2 204.76C266.45 201.63 269.11 198.81 271.39 195.7C275.53 190.07 280.85 185.15 283.26 178.44C285.23 172.96 285.63 167.31 282.24 161.98C278.65 156.33 278.95 154.16 283.04 148.76C288.94 140.97 295.99 134.36 303.42 128.08C306.87 125.16 310.08 121.95 313.7 119C312.86 120.91 312.03 122.82 311.18 124.73C308.96 129.7 306.91 134.76 304.43 139.59C302.64 143.08 300.65 146.63 298.04 149.52C294.34 153.61 293.37 157.72 295.27 162.88C296.85 167.17 298.15 171.57 296.9 176.34C295.78 180.63 293.01 183.8 290.01 186.61C284.14 192.1 277.84 197.13 271.78 202.42C268.72 205.09 265.8 207.91 262.84 210.68C261.14 212.27 259.49 213.9 257.81 215.5C257.71 215.58 257.53 215.59 257 215.75Z" fill="#F0E68B"/>
</g>
<g clip-path="url(#clip1)">
<path d="M103.459 -26.7986C103.459 -26.7986 85.1171 -6.76132 96.208 6.87196C107.299 20.5052 103.459 -26.7986 103.459 -26.7986Z" fill="#C5DEEF"/>
<path d="M266.411 22.645C266.411 22.645 269.823 63.9881 260.017 60.1518C250.196 56.3156 266.411 22.645 266.411 22.645Z" fill="#C5DEEF"/>
<path d="M205.404 66.5405C205.404 66.5405 210.529 100.639 201.136 97.2307C191.743 93.8224 205.404 66.5405 205.404 66.5405Z" fill="#C5DEEF"/>
<path d="M145.253 22.645C145.253 22.645 144.396 60.5798 135.019 55.8876C125.641 51.1954 145.253 22.645 145.253 22.645Z" fill="#C5DEEF"/>
<path d="M82.134 34.9944C82.134 34.9944 85.5454 61.4203 76.1678 62.2763C66.7902 63.1322 82.134 34.9944 82.134 34.9944Z" fill="#C5DEEF"/>
<path d="M115.407 118.964C115.407 118.964 119.246 151.779 107.299 151.779C95.3513 151.779 115.407 118.964 115.407 118.964Z" fill="#C5DEEF"/>
<path d="M151.662 84.866C151.662 84.866 154.646 113.416 147.394 112.988C140.143 112.56 151.662 84.866 151.662 84.866Z" fill="#C5DEEF"/>
<path d="M177.546 170.104C177.546 170.104 180.667 210.592 168.72 206.755C156.772 202.919 177.546 170.104 177.546 170.104Z" fill="#C5DEEF"/>
<path d="M230.094 139.842C230.094 139.842 235.755 174.369 225.689 173.513C215.623 172.657 230.094 139.842 230.094 139.842Z" fill="#C5DEEF"/>
<path d="M280.057 97.46C280.057 97.46 286.023 128.762 277.074 129.189C268.125 129.617 280.057 97.46 280.057 97.46Z" fill="#C5DEEF"/>
<path d="M57.4585 116.825C57.4585 116.825 55.0874 149.211 46.8572 143.679C38.6116 138.131 57.4585 116.825 57.4585 116.825Z" fill="#C5DEEF"/>
<path d="M41.61 73.7852C41.61 73.7852 39.0553 100.257 31.8041 97.46C24.5377 94.663 41.61 73.7852 41.61 73.7852Z" fill="#C5DEEF"/>
<path d="M10.4636 156.685C10.4636 156.685 13.4467 189.958 3.21247 188.552C-7.02177 187.146 10.4636 156.685 10.4636 156.685Z" fill="#C5DEEF"/>
</g>
<g clip-path="url(#clip2)">
<path d="M506.644 58.6152C506.644 58.6152 490.175 81.6115 498.575 88.7591C506.975 95.9068 506.644 58.6152 506.644 58.6152Z" fill="#C5DEEF"/>
<path d="M551.992 96.3291C551.992 96.3291 533.91 116.098 544.843 129.549C555.777 143 551.992 96.3291 551.992 96.3291Z" fill="#C5DEEF"/>
<path d="M633.564 86.6631C633.564 86.6631 636.082 118.617 627.682 119.039C619.267 119.461 633.564 86.6631 633.564 86.6631Z" fill="#C5DEEF"/>
<path d="M680.661 102.858C680.661 102.858 683.602 121.572 675.202 121.994C666.802 122.416 680.661 102.858 680.661 102.858Z" fill="#C5DEEF"/>
<path d="M667.209 32C667.209 32 667.631 61.2844 659.216 58.6153C650.801 55.9462 667.209 32 667.209 32Z" fill="#C5DEEF"/>
<path d="M712.633 145.111C712.633 145.111 715.996 185.901 706.329 182.116C696.647 178.331 712.633 145.111 712.633 145.111Z" fill="#C5DEEF"/>
<path d="M652.49 188.419C652.49 188.419 657.542 222.062 648.283 218.699C639.023 215.336 652.49 188.419 652.49 188.419Z" fill="#C5DEEF"/>
<path d="M593.192 145.111C593.192 145.111 592.348 182.539 583.103 177.909C573.859 173.28 593.192 145.111 593.192 145.111Z" fill="#C5DEEF"/>
<path d="M530.969 157.295C530.969 157.295 534.332 183.368 525.087 184.212C515.843 185.057 530.969 157.295 530.969 157.295Z" fill="#C5DEEF"/>
<path d="M563.77 240.142C563.77 240.142 567.555 272.518 555.777 272.518C543.999 272.518 563.77 240.142 563.77 240.142Z" fill="#C5DEEF"/>
<path d="M599.511 206.5C599.511 206.5 602.452 234.668 595.304 234.246C588.155 233.824 599.511 206.5 599.511 206.5Z" fill="#C5DEEF"/>
<path d="M625.028 290.598C625.028 290.598 628.104 330.544 616.326 326.759C604.548 322.974 625.028 290.598 625.028 290.598Z" fill="#C5DEEF"/>
<path d="M676.831 260.741C676.831 260.741 682.41 294.805 672.487 293.961C662.564 293.116 676.831 260.741 676.831 260.741Z" fill="#C5DEEF"/>
<path d="M726.085 218.925C726.085 218.925 731.966 249.808 723.144 250.23C714.322 250.653 726.085 218.925 726.085 218.925Z" fill="#C5DEEF"/>
<path d="M506.644 238.031C506.644 238.031 504.306 269.984 496.193 264.526C488.064 259.052 506.644 238.031 506.644 238.031Z" fill="#C5DEEF"/>
<path d="M491.02 195.567C491.02 195.567 488.501 221.685 481.353 218.925C474.189 216.166 491.02 195.567 491.02 195.567Z" fill="#C5DEEF"/>
<path d="M460.315 277.358C460.315 277.358 463.256 310.186 453.167 308.799C443.078 307.412 460.315 277.358 460.315 277.358Z" fill="#C5DEEF"/>
</g>
<g clip-path="url(#clip3)">
<path d="M455.493 164.414C449.524 157.407 446.373 149.598 447.744 140.156C449.284 129.469 447.003 119.214 443.182 109.266C442.611 107.779 441.472 106.417 440.31 105.282C436.827 101.887 433.17 98.6627 429.635 95.3266C423.562 89.5839 422.993 82.7347 424.592 74.8462C425.868 68.5521 429.136 63.1436 430.834 57.0733C431.823 53.564 430.103 51.5688 428.111 49.6491C423.703 45.3837 419.068 41.3384 414.52 37.2078C414.322 37.3013 414.123 37.3851 413.926 37.4787C414.973 39.7578 415.782 42.1881 417.131 44.2653C419.256 47.5413 420.402 51.0207 421.1 54.8582C421.947 59.5325 420.531 63.4575 418.226 67.216C415.583 71.5069 414.911 76.3728 413.74 81.0985C413.517 82.0174 413.676 83.096 413.271 83.8931C412.259 85.8554 412.991 86.9705 414.475 88.3358C417.487 91.0896 420.148 94.2361 423.152 97.0014C426.727 100.28 430.423 103.427 434.243 106.411C436.643 108.284 435.456 110.539 435.098 112.473C433.898 118.917 431.744 125.235 431.107 131.717C430.647 136.396 431.631 141.341 432.756 145.98C433.179 147.734 435.769 148.987 437.407 150.428C441.003 153.581 444.573 156.77 448.244 159.829C450.444 161.664 452.814 163.298 455.116 165.014C455.246 164.82 455.365 164.618 455.493 164.414Z" fill="#F0E68B"/>
</g>
<g clip-path="url(#clip4)">
<path d="M797 169.766C795.698 166.046 794.551 162.474 793.206 158.963C791.344 154.088 789.541 149.178 787.334 144.459C785.498 140.531 783.385 136.655 780.893 133.118C776.901 127.46 776.935 118.926 780.979 112.921C781.729 111.809 782.678 110.757 783.739 109.94C785.204 108.802 785.403 107.359 784.808 105.89C782.807 100.946 780.746 96.0093 778.548 91.1513C776.289 86.1716 773.762 81.3223 771.495 76.3427C770.796 74.8044 770.718 72.9968 770.115 71.3978C768.951 68.3387 768.399 68.1475 765.295 68.1996C764.269 68.217 763.225 67.6174 762.217 67.2524C760.552 66.644 759.837 67.1307 759.966 68.8949C760.432 75.0652 761.898 80.9834 764.424 86.6235C765.579 89.2133 767.33 91.6553 767.925 94.3668C769.072 99.6246 767.709 104.561 764.64 109.019C762.484 112.139 759.785 114.798 758.121 118.37C756.181 122.541 756.922 126.035 759.13 129.642C762.794 135.629 768.028 140.27 772.615 145.476C774.642 147.779 776.444 150.273 778.427 152.611C780.186 154.679 782.092 156.608 783.859 158.668C786.567 161.814 789.188 165.038 791.878 168.201C793.103 169.635 794.586 170.426 797 169.766Z" fill="#F0E68B"/>
</g>
<defs>
<clipPath id="clip0">
<rect x="257" y="119" width="56.7" height="96.75" fill="white"/>
</clipPath>
<clipPath id="clip1">
<rect y="-92" width="282" height="299" fill="white"/>
</clipPath>
<clipPath id="clip2">
<rect x="450" y="32" width="278" height="295" fill="white"/>
</clipPath>
<clipPath id="clip3">
<rect width="29.23" height="132.74" transform="matrix(-0.986489 0.163828 0.163828 0.986489 433.835 34)" fill="white"/>
</clipPath>
<clipPath id="clip4">
<rect width="40" height="103" transform="matrix(-1 9.76491e-09 9.76491e-09 1 797 67)" fill="white"/>
</clipPath>
</defs>
</svg>
