<svg width="998" height="166" viewBox="0 0 998 166" fill="none" xmlns="http://www.w3.org/2000/svg">
<path d="M253.528 193.154C243.891 174.833 228.061 139.932 228.061 139.932C237.825 135.844 245.906 125.438 245.906 125.438C245.906 125.438 248.611 128.037 263.337 132.584C278.063 137.131 271.253 150.127 271.253 150.127C279.695 151.332 283.945 135.309 267.23 128.168C250.514 121.028 250.823 117.303 250.823 117.303C250.823 117.303 267.739 114.695 279.921 113.349C292.103 112 286.846 128.878 286.846 128.878C286.846 128.878 295.567 131.376 294.484 121.192C293.401 111.007 279.665 108.473 279.665 108.473L254.607 107.58C268.035 89.1829 261.988 70.3636 260.058 57.738C258.128 45.1125 266.439 44.5964 266.439 44.5964C266.439 44.5964 270.877 44.9142 282.506 40.2651C294.135 35.6161 283.551 32.9632 283.551 32.9632L269.113 28.2747C269.113 28.2747 268.98 26.5539 279.489 17.4542C289.999 8.35446 279.989 5.41681 279.989 5.41681C260.775 9.15056 250.708 16.2491 250.708 16.2491C238.534 16.1648 239.336 25.7728 239.336 25.7728C227.894 37.3293 235.311 52.405 240.238 66.7735C245.166 81.1421 228.251 83.7476 228.251 83.7476C202.002 90.5872 189.152 107.983 189.152 107.983C180.114 110.643 165.514 123.183 165.514 123.183C165.514 123.183 142.046 129.727 109.571 123.909C77.0953 118.09 55.8181 131.415 55.8181 131.415C24.3502 148.681 20.3033 178.896 20.3033 178.896C32.9164 153.041 50.4403 144.42 63.9471 137.062C77.4539 129.703 90.5957 135.386 109.75 141.682C128.904 147.981 170.995 151.604 184.893 149.376C203.745 146.356 224.468 202.626 224.468 202.626C224.468 202.626 227.129 206.944 233.379 203.335C239.629 199.726 213.777 156.962 213.777 156.962C213.777 156.962 206.302 149.384 215.408 145.206C217.535 144.229 229.137 163.746 233.737 176.009C235.446 180.562 242.742 195.492 245.965 197.294C250.629 199.893 255.082 196.105 253.528 193.154Z" fill="#043A2E"/>
<path d="M738.763 202.911C750.559 185.9 770.521 153.186 770.521 153.186C761.327 147.939 754.573 136.627 754.573 136.627C754.573 136.627 751.572 138.877 736.402 141.597C721.232 144.318 726.409 158.046 726.409 158.046C717.883 158.215 715.615 141.793 733.075 136.741C750.536 131.688 750.683 127.954 750.683 127.954C750.683 127.954 734.21 123.305 722.283 120.487C710.356 117.665 713.518 135.057 713.518 135.057C713.518 135.057 704.559 136.474 706.874 126.498C709.188 116.521 723.13 115.678 723.13 115.678L748.111 117.842C737.023 97.9471 745.316 80.004 748.768 67.7073C752.221 55.4106 744.035 53.8866 744.035 53.8866C744.035 53.8866 739.592 53.6617 728.615 47.6315C717.639 41.6013 728.466 40.2566 728.466 40.2566L743.368 37.3608C743.368 37.3608 743.71 35.669 734.386 25.3575C725.062 15.0459 735.355 13.3487 735.355 13.3487C753.972 19.394 763.1 27.6654 763.1 27.6654C775.194 29.0638 773.228 38.5026 773.228 38.5026C783.178 51.3662 773.981 65.4268 767.341 79.0886C760.7 92.7503 777.173 97.3958 777.173 97.3958C802.393 107.38 813.03 126.211 813.03 126.211C821.677 129.951 834.641 144.176 834.641 144.176C834.641 144.176 857.138 153.528 890.08 151.707C923.023 149.886 942.519 165.702 942.519 165.702C971.651 186.671 971.989 217.154 971.989 217.154C962.618 189.955 946.274 179.265 933.763 170.316C921.253 161.368 907.517 165.409 887.739 169.327C867.96 173.246 825.741 171.718 812.217 167.815C793.874 162.522 766.454 215.85 766.454 215.85C766.454 215.85 763.288 219.812 757.523 215.469C751.759 211.126 782.625 171.827 782.625 171.827C782.625 171.827 790.967 165.216 782.437 159.96C780.445 158.732 766.554 176.691 760.495 188.303C758.244 192.614 749.185 206.545 745.767 207.941C740.821 209.953 736.862 205.65 738.763 202.911Z" fill="#043A2E"/>
</svg>
