<svg width="349" height="269" viewBox="0 0 349 269" fill="none" xmlns="http://www.w3.org/2000/svg">
<path d="M90.5091 194.864C102.95 178.318 124.152 146.395 124.152 146.395C115.167 140.798 108.852 129.236 108.852 129.236C108.852 129.236 105.766 131.369 90.5025 133.505C75.2392 135.641 79.8855 149.558 79.8855 149.558C71.3596 149.399 69.7237 132.903 87.3653 128.524C105.007 124.145 105.297 120.42 105.297 120.42C105.297 120.42 89.0147 115.142 77.2049 111.868C65.3945 108.59 67.8873 126.091 67.8873 126.091C67.8873 126.091 58.8798 127.164 61.5758 117.283C64.2719 107.403 78.2358 107.096 78.2358 107.096L103.115 110.217C92.7983 89.9108 101.774 72.2992 105.696 60.1441C109.618 47.989 101.496 46.1519 101.496 46.1519C101.496 46.1519 97.0653 45.7567 86.3282 39.3096C75.5912 32.8626 86.4624 31.9344 86.4624 31.9344L101.465 29.6127C101.465 29.6127 101.871 27.9353 92.9497 17.2735C84.0285 6.61163 94.3791 5.31079 94.3791 5.31079C112.75 12.0661 121.554 20.6817 121.554 20.6817C133.585 22.5433 131.258 31.8997 131.258 31.8997C140.707 45.1357 130.978 58.833 123.818 72.2298C116.658 85.6266 132.94 90.9009 132.94 90.9009C157.759 101.846 167.665 121.071 167.665 121.071C176.162 125.14 188.571 139.853 188.571 139.853C188.571 139.853 210.692 150.061 243.68 149.505C276.668 148.95 295.543 165.502 295.543 165.502C323.849 187.574 323.017 218.048 323.017 218.048C314.696 190.509 298.774 179.2 286.617 169.778C274.459 160.356 260.578 163.867 240.664 167.022C220.749 170.179 178.62 167.033 165.256 162.613C147.129 156.62 117.683 208.857 117.683 208.857C117.683 208.857 114.367 212.694 108.774 208.133C103.18 203.572 135.532 165.487 135.532 165.487C135.532 165.487 144.121 159.201 135.8 153.621C133.856 152.318 119.285 169.73 112.785 181.101C110.371 185.322 100.783 198.895 97.3143 200.159C92.295 201.98 88.5043 197.529 90.5091 194.864Z" fill="#043A2E"/>
</svg>
