<svg width="444" height="292" viewBox="0 0 444 292" fill="none" xmlns="http://www.w3.org/2000/svg">
<path d="M340.837 261.385C333.124 242.175 320.945 205.838 320.945 205.838C331.076 202.769 340.179 193.244 340.179 193.244C340.179 193.244 342.604 196.106 356.788 202.135C370.972 208.165 362.869 220.395 362.869 220.395C371.143 222.458 377.01 206.954 361.112 198.141C345.214 189.328 345.902 185.655 345.902 185.655C345.902 185.655 362.997 184.79 375.252 184.697C387.508 184.601 380.553 200.853 380.553 200.853C380.553 200.853 388.973 204.229 388.937 193.988C388.901 183.746 375.496 179.821 375.496 179.821L350.661 176.37C365.9 159.442 361.809 140.103 361.18 127.346C360.551 114.59 368.871 114.926 368.871 114.926C368.871 114.926 373.253 115.696 385.297 112.26C397.34 108.825 387.084 105.104 387.084 105.104L373.2 98.9633C373.2 98.9633 373.244 97.238 384.629 89.2607C396.014 81.2834 386.357 77.3375 386.357 77.3375C366.862 79.0869 356.121 85.1187 356.121 85.1187C344.02 83.79 343.835 93.4296 343.835 93.4296C331.272 103.756 337.108 119.511 340.54 134.308C343.973 149.105 326.88 149.967 326.88 149.967C300.069 154.087 285.508 170.077 285.508 170.077C276.245 171.799 260.439 182.781 260.439 182.781C260.439 182.781 236.425 186.89 204.715 177.781C173.005 168.673 150.477 179.752 150.477 179.752C117.408 193.71 110.293 223.353 110.293 223.353C125.484 198.923 143.797 192.139 157.986 186.2C172.174 180.261 184.666 187.259 203.075 195.48C221.486 203.704 262.985 211.613 277.039 210.818C296.1 209.741 310.961 267.835 310.961 267.835C310.961 267.835 313.166 272.403 319.752 269.452C326.339 266.501 304.995 221.317 304.995 221.317C304.995 221.317 298.335 213.015 307.82 209.79C310.035 209.036 319.581 229.637 322.903 242.306C324.137 247.009 329.868 262.608 332.89 264.729C337.264 267.792 342.081 264.479 340.837 261.385Z" fill="#043A2E"/>
<path d="M303.016 126.985C299.39 113.009 294.199 86.7878 294.199 86.7878C301.48 85.5664 308.625 79.7875 308.625 79.7875C308.625 79.7875 310.049 81.9831 319.324 87.4164C328.6 92.8497 321.906 100.59 321.906 100.59C327.446 102.753 332.884 92.5494 322.671 85.038C312.457 77.5265 313.26 75.0468 313.26 75.0468C313.26 75.0468 325.163 75.9696 333.649 76.9961C342.136 78.0205 335.878 88.6443 335.878 88.6443C335.878 88.6443 341.402 91.7293 342.289 84.6411C343.176 77.5529 334.252 73.6445 334.252 73.6445L317.378 69.0467C329.427 58.6927 328.318 44.9502 329.018 36.0693C329.719 27.1884 335.445 28.1617 335.445 28.1617C335.445 28.1617 338.407 29.0842 347.045 27.7795C355.682 26.4748 348.918 22.9876 348.918 22.9876L339.86 17.5041C339.86 17.5041 340.044 16.3144 348.63 11.8091C357.216 7.30384 350.886 3.71468 350.886 3.71468C337.244 3.18975 329.277 6.40661 329.277 6.40661C321.024 4.41039 320.038 11.0625 320.038 11.0625C310.428 17.0877 313.063 28.5062 314.121 39.0482C315.178 49.5901 303.277 48.6652 303.277 48.6652C284.363 49.129 272.866 58.895 272.866 58.895C266.306 59.2616 254.394 65.4522 254.394 65.4522C254.394 65.4522 237.416 66.1577 216.29 57.0342C195.163 47.9107 178.593 53.5702 178.593 53.5702C154.474 60.283 146.914 80.1562 146.914 80.1562C159.597 64.6078 172.869 61.545 183.213 58.6992C193.557 55.8533 201.576 61.8061 213.58 69.1321C225.584 76.4598 253.589 85.6246 263.382 86.3253C276.664 87.2766 281.774 128.788 281.774 128.788C281.774 128.788 282.893 132.144 287.712 130.689C292.531 129.233 281.787 96.0765 281.787 96.0765C281.787 96.0765 277.918 89.7406 284.767 88.3534C286.367 88.0291 291.137 103.13 292.307 112.19C292.743 115.554 295.319 126.854 297.221 128.591C299.974 131.099 303.601 129.236 303.016 126.985Z" fill="#043A2E"/>
<path d="M207.342 249.923C202.738 232.18 196.148 198.89 196.148 198.89C205.393 197.34 214.464 190.003 214.464 190.003C214.464 190.003 216.271 192.79 228.047 199.688C239.823 206.586 231.324 216.413 231.324 216.413C238.358 219.159 245.262 206.205 232.295 196.669C219.329 187.132 220.348 183.984 220.348 183.984C220.348 183.984 235.459 185.156 246.233 186.459C257.008 187.759 249.064 201.247 249.064 201.247C249.064 201.247 256.077 205.164 257.202 196.165C258.328 187.166 246.999 182.204 246.999 182.204L225.576 176.366C240.873 163.221 239.465 145.774 240.354 134.499C241.244 123.224 248.513 124.46 248.513 124.46C248.513 124.46 252.274 125.631 263.24 123.975C274.206 122.318 265.618 117.891 265.618 117.891L254.118 110.929C254.118 110.929 254.352 109.419 265.252 103.699C276.153 97.9791 268.118 93.4224 268.118 93.4224C250.797 92.7559 240.683 96.84 240.683 96.84C230.205 94.3056 228.953 102.751 228.953 102.751C216.752 110.401 220.097 124.897 221.44 138.281C222.783 151.665 207.673 150.491 207.673 150.491C183.661 151.079 169.065 163.478 169.065 163.478C160.736 163.944 145.613 171.803 145.613 171.803C145.613 171.803 124.057 172.699 97.2362 161.116C70.415 149.533 49.3771 156.718 49.3771 156.718C18.7566 165.24 9.15789 190.471 9.15789 190.471C25.2601 170.731 42.111 166.843 55.2434 163.23C68.3759 159.616 78.5565 167.174 93.7962 176.475C109.036 185.778 144.591 197.413 157.023 198.303C173.886 199.511 180.374 252.213 180.374 252.213C180.374 252.213 181.794 256.474 187.912 254.626C194.031 252.778 180.391 210.683 180.391 210.683C180.391 210.683 175.479 202.639 184.174 200.878C186.205 200.466 192.261 219.638 193.747 231.14C194.299 235.411 197.571 249.758 199.985 251.963C203.48 255.147 208.085 252.781 207.342 249.923Z" fill="#043A2E"/>
</svg>
