<svg width="189" height="185" viewBox="0 0 189 185" fill="none" xmlns="http://www.w3.org/2000/svg">
<path d="M173.76 174.594C173.44 170.061 173.376 165.494 172.704 161.007C172.332 158.52 171.196 156.119 169.124 154.164C167.504 152.636 166.36 150.658 165.008 148.876C164.648 148.405 164.348 147.884 163.932 147.461C162.256 145.759 161.72 143.608 161.32 141.437C161.008 139.743 161.968 138.067 163.328 137.573C164.764 137.052 167.608 137.867 168.384 139.222C169.352 140.92 170.128 142.717 170.936 144.491C171.876 146.552 172.74 148.642 173.708 150.692C173.832 150.952 174.456 151.262 174.692 151.175C176.364 150.545 178.252 150.356 178.792 148.099C179.479 145.208 180.615 142.407 181.583 139.577C181.831 138.845 182.131 138.124 182.467 137.425C182.931 136.467 184.587 135.652 185.767 135.75C187.159 135.863 187.967 136.467 188.391 137.826C189.043 139.905 188.587 141.973 188.291 144.057C187.663 148.488 185.319 152.213 182.955 155.934C182.367 156.863 181.759 157.78 181.159 158.701C180.039 160.418 180.275 162.313 180.535 164.139C181.151 168.517 181.047 172.899 180.803 177.285C180.699 179.142 180.511 180.972 179.487 182.667C178.696 183.98 177.98 184.354 176.444 183.833C175.168 183.399 174.316 182.569 174.136 181.323C173.816 179.097 173.62 176.855 173.376 174.617C173.5 174.613 173.628 174.605 173.76 174.594ZM187.719 140.728C187.719 138.222 187.167 136.95 186.239 136.784C184.999 136.561 183.767 137.584 183.115 139.418C182.543 141.034 182.023 142.668 181.439 144.279C180.763 146.155 179.999 148.001 179.359 149.888C178.767 151.624 176.484 152.805 174.624 152.319C173.092 151.915 172.572 150.696 172.036 149.544C170.688 146.642 169.324 143.736 168.188 140.758C167.568 139.131 166.488 138.652 164.844 138.66C163.208 138.667 162.284 139.23 162.432 140.762C162.588 142.343 162.936 144.072 163.796 145.393C165.608 148.171 167.784 150.745 169.868 153.356C171.38 155.255 173.22 157.078 173.532 159.474C174.14 164.204 174.424 168.974 174.796 173.73C174.904 175.081 174.748 176.455 174.912 177.798C175.076 179.131 175.312 180.504 175.844 181.735C176.396 183.007 177.744 182.965 178.448 181.75C178.831 181.086 179.175 180.338 179.263 179.599C179.447 178.096 179.523 176.575 179.507 175.062C179.455 170.593 179.331 166.128 179.251 161.66C179.227 160.305 179.095 158.905 180.035 157.731C182.151 155.077 183.903 152.217 185.343 149.201C186.711 146.34 187.607 143.355 187.719 140.728Z" fill="#043A2E"/>
<path d="M187.72 140.728C187.608 143.355 186.712 146.34 185.348 149.19C183.904 152.205 182.156 155.066 180.04 157.719C179.104 158.893 179.236 160.293 179.256 161.648C179.332 166.117 179.46 170.582 179.512 175.051C179.528 176.564 179.452 178.085 179.268 179.587C179.176 180.327 178.836 181.074 178.452 181.739C177.752 182.954 176.404 182.995 175.848 181.723C175.312 180.497 175.08 179.119 174.916 177.787C174.752 176.447 174.904 175.073 174.8 173.718C174.424 168.963 174.145 164.196 173.537 159.463C173.229 157.066 171.389 155.244 169.873 153.345C167.789 150.73 165.617 148.159 163.801 145.382C162.941 144.064 162.593 142.332 162.437 140.751C162.285 139.222 163.213 138.66 164.849 138.648C166.493 138.641 167.573 139.12 168.193 140.747C169.329 143.725 170.693 146.631 172.041 149.533C172.577 150.684 173.097 151.907 174.628 152.307C176.488 152.794 178.772 151.613 179.364 149.877C180.004 147.993 180.768 146.144 181.444 144.268C182.028 142.657 182.548 141.022 183.12 139.407C183.772 137.576 185.004 136.55 186.244 136.773C187.168 136.954 187.716 138.222 187.72 140.728Z" fill="#043A2E"/>
<path d="M125.533 172.875C126.049 167.508 126.531 162.137 127.095 156.769C127.424 153.592 127.828 150.42 128.288 147.259C128.795 143.771 130.14 140.549 132.102 137.564C133.568 135.337 135.321 135.149 137.876 137.012C140.523 138.94 142.705 141.298 143.912 144.25C146.38 150.28 148.68 156.38 150.042 162.738C150.923 166.853 151.695 170.992 152.459 175.127C152.888 177.456 152.172 179.581 151.023 181.649C150.168 183.188 149.105 183.994 147.521 183.372C146.298 182.889 144.844 181.968 144.389 180.904C143.374 178.517 142.909 175.917 142.241 173.399C141.469 170.488 141.261 167.426 139.304 164.859C137.976 163.115 136.531 163.037 134.917 164.552C133.282 166.091 133.473 168.003 133.403 169.866C133.286 172.892 133.295 175.921 133.16 178.942C133.121 179.851 132.778 180.748 132.57 181.645C132.31 182.762 131.867 183.798 130.47 183.913C129.09 184.027 127.902 183.503 127.112 182.426C125.932 180.822 125.476 179.012 125.593 177.047C125.676 175.663 125.611 174.275 125.611 172.887C125.585 172.887 125.559 172.883 125.533 172.875ZM126.661 175.323C126.661 176.412 126.526 177.28 126.691 178.095C126.96 179.397 127.134 180.846 127.876 181.907C129.008 183.52 129.854 183.601 130.839 182.009C131.195 181.436 131.676 180.834 131.741 180.212C131.98 177.956 132.132 175.688 132.184 173.424C132.236 171.164 132.193 168.9 132.071 166.644C131.924 163.934 136.536 161.052 139.109 163.14C139.794 163.696 140.475 164.396 140.818 165.166C142.601 169.17 143.773 173.346 144.384 177.653C144.636 179.434 145.17 181.002 146.957 181.968C148.298 182.693 149.187 182.693 149.786 181.337C150.537 179.634 151.222 177.751 151.227 175.942C151.231 173.403 150.741 170.832 150.181 168.331C149.487 165.211 148.55 162.141 147.647 159.066C146.51 155.197 145.504 151.279 144.072 147.505C142.749 144.021 140.575 140.921 137.898 138.174C136.41 136.647 135.078 136.68 133.568 138.195C131.72 140.049 131.221 142.51 130.219 144.725C129.568 146.166 129.312 147.808 129.112 149.388C128.704 152.606 128.435 155.84 128.136 159.07C127.624 164.56 127.138 170.063 126.661 175.323Z" fill="#043A2E"/>
<path d="M126.662 175.323C127.139 170.063 127.625 164.56 128.137 159.062C128.436 155.832 128.705 152.598 129.113 149.38C129.313 147.803 129.568 146.162 130.219 144.717C131.222 142.498 131.721 140.037 133.569 138.187C135.079 136.672 136.415 136.639 137.899 138.166C140.576 140.917 142.75 144.012 144.073 147.496C145.505 151.271 146.511 155.189 147.648 159.058C148.55 162.133 149.488 165.203 150.182 168.323C150.737 170.824 151.232 173.395 151.227 175.933C151.223 177.743 150.542 179.626 149.787 181.329C149.188 182.684 148.299 182.684 146.958 181.96C145.171 180.994 144.637 179.426 144.385 177.645C143.778 173.338 142.602 169.162 140.819 165.158C140.476 164.388 139.795 163.688 139.109 163.131C136.536 161.044 131.924 163.926 132.072 166.636C132.198 168.892 132.237 171.156 132.185 173.416C132.133 175.68 131.976 177.948 131.742 180.203C131.677 180.826 131.196 181.428 130.84 182.001C129.855 183.593 129.009 183.516 127.876 181.898C127.134 180.838 126.957 179.393 126.692 178.087C126.527 177.284 126.662 176.417 126.662 175.323Z" fill="#043A2E"/>
<path d="M103.868 142.212C103.645 145.485 103.52 148.766 103.177 152.025C102.777 155.823 101.975 159.595 101.762 163.397C101.61 166.04 102.136 168.72 102.434 171.379C102.461 171.61 102.99 171.929 103.315 171.971C105.711 172.261 108.115 172.53 110.523 172.727C112.46 172.887 114.232 173.244 115.763 174.542C116.8 175.424 117.032 176.353 116.734 177.521C116.061 180.163 114.187 181.843 111.565 182.604C107.3 183.843 102.897 184.465 98.4539 183.671C95.1016 183.07 93.5479 181.196 93.6102 177.924C93.6859 173.908 93.9352 169.892 94.1578 165.88C94.3937 161.608 94.6698 157.335 94.9547 153.063C95.1639 149.912 95.2841 146.753 95.6893 143.624C95.9653 141.469 96.6197 139.347 97.1762 137.23C97.479 136.071 98.6231 135.634 99.6248 135.764C100.6 135.89 101.673 136.428 102.372 137.096C103.832 138.486 103.916 140.347 103.868 142.212ZM99.5714 136.747C97.3988 139.654 97.1406 143.002 96.9046 146.304C96.5708 150.963 96.455 155.634 96.219 160.297C95.9208 166.212 95.6225 172.122 95.2663 178.033C95.0615 181.419 97.7283 182.814 100.408 182.826C104.522 182.839 108.506 182.066 112.366 180.726C114.236 180.079 115.643 177.806 115.371 175.945C115.265 175.227 114.966 174.803 114.08 174.731C111.632 174.542 109.192 174.206 106.743 174.034C102.461 173.731 101.504 173.345 100.894 170.072C100.368 167.262 100.244 164.326 100.435 161.473C100.671 157.923 101.584 154.42 101.891 150.87C102.216 147.131 102.216 143.363 102.256 139.608C102.265 138.2 101.241 137.222 99.5714 136.747Z" fill="#043A2E"/>
<path d="M99.5711 136.747C101.241 137.222 102.265 138.2 102.247 139.608C102.207 143.363 102.207 147.131 101.882 150.87C101.575 154.42 100.662 157.923 100.426 161.473C100.234 164.326 100.359 167.262 100.884 170.072C101.499 173.345 102.452 173.731 106.734 174.034C109.187 174.206 111.623 174.546 114.071 174.731C114.957 174.798 115.255 175.223 115.362 175.945C115.634 177.806 114.227 180.079 112.357 180.726C108.497 182.066 104.513 182.839 100.399 182.826C97.7191 182.818 95.0524 181.419 95.2572 178.033C95.6133 172.122 95.9116 166.208 96.2099 160.297C96.4459 155.634 96.5572 150.958 96.8955 146.304C97.1404 143.002 97.3986 139.654 99.5711 136.747Z" fill="#043A2E"/>
<path d="M63.4463 170.864C63.7094 166.031 64.036 159.961 64.3717 153.887C64.4625 152.26 64.5487 150.629 64.6757 149.003C64.898 146.152 65.1339 143.305 65.4015 140.459C65.6148 138.198 68.441 136.045 71.0586 135.788C74.4338 135.459 77.1467 136.923 79.4649 138.763C82.0688 140.827 83.6929 143.772 84.7862 146.79C85.2172 147.971 84.5685 149.504 84.4097 150.873C84.4052 150.912 84.3326 150.95 84.3371 150.98C84.6637 153.236 82.6132 154.234 81.4065 155.569C80.3223 156.768 78.6982 157.526 77.3372 158.51C75.9037 159.542 74.4474 160.548 73.1046 161.674C72.2245 162.41 71.7028 163.36 71.8661 164.602C72.2472 167.521 72.6555 170.445 72.8052 173.377C72.9322 175.877 72.7417 178.394 72.6419 180.902C72.6101 181.75 71.1675 182.769 70.0878 182.675C67.8876 182.486 66.1319 181.69 65.0795 179.661C63.8183 177.26 63.5416 174.713 63.4463 170.864ZM65.0749 173.309C65.1883 174.666 65.2654 175.941 65.4061 177.208C65.6238 179.164 66.6808 180.56 68.618 181.339C69.743 181.793 71.2083 181.108 71.2855 180.016C71.3943 178.437 71.535 176.84 71.4352 175.265C71.1993 171.626 70.8182 167.996 70.5052 164.362C70.3918 163.035 70.5732 161.759 71.7028 160.852C73.4948 159.409 75.3729 158.061 77.192 156.644C78.9114 155.308 80.853 154.204 81.9736 152.256C83.9878 148.767 83.5977 144.457 80.6444 141.661C79.0248 140.125 77.183 138.695 75.196 137.633C72.3833 136.131 67.7696 137.299 67.13 140.741C66.7534 142.774 66.3542 144.816 66.1728 146.871C65.896 150.03 65.7509 153.198 65.6284 156.366C65.4152 162.033 65.2564 167.714 65.0749 173.309Z" fill="#043A2E"/>
<path d="M65.0747 173.309C65.2562 167.714 65.4149 162.038 65.6327 156.361C65.7552 153.194 65.9004 150.026 66.1771 146.867C66.3586 144.812 66.7578 142.77 67.1343 140.737C67.7694 137.295 72.3876 136.122 75.2003 137.629C77.1873 138.695 79.0291 140.125 80.6487 141.657C83.602 144.452 83.9921 148.763 81.9779 152.252C80.8528 154.2 78.9157 155.304 77.1964 156.64C75.3772 158.052 73.4991 159.405 71.7072 160.847C70.5821 161.755 70.3961 163.035 70.5095 164.358C70.8271 167.992 71.2036 171.622 71.4395 175.261C71.5438 176.836 71.3987 178.433 71.2898 180.012C71.2127 181.108 69.7474 181.789 68.6223 181.335C66.6852 180.556 65.6282 179.16 65.4104 177.204C65.2652 175.937 65.1881 174.666 65.0747 173.309Z" fill="#043A2E"/>
<path d="M35.6399 161.68C35.7173 162.013 35.7689 162.236 35.8335 162.516C35.9152 162.406 35.984 162.354 35.9883 162.301C36.2593 157.337 36.3927 152.365 36.84 147.413C37.1454 144.032 38.2208 140.809 40.4145 138.005C41.9931 135.979 45.6967 135.115 48.1227 136.239C49.839 137.039 51.1595 138.228 52.179 139.738C53.8737 142.254 53.3791 145.412 50.7939 148.062C49.1937 149.702 47.3097 150.368 45.0213 150.311C43.9202 150.283 42.6943 150.14 42.0878 151.289C41.4813 152.434 42.0921 153.452 42.961 154.175C43.7137 154.8 44.6858 155.527 45.5977 155.575C48.3292 155.713 50.4283 159.147 50.3207 161.229C50.2304 162.966 48.5743 164.363 46.5871 164.428C44.9138 164.484 43.7266 165.203 43.4126 166.351C42.9825 167.926 44.5439 169.846 46.4537 170.017C48.5614 170.203 50.6605 170.301 52.5704 171.368C53.9597 172.148 54.8717 173.069 54.7598 174.717C54.5921 177.168 53.4522 179.072 51.3015 180.411C47.7829 182.607 43.9374 183.634 39.7951 182.571C37.2529 181.917 35.713 180.253 35.7474 177.534C35.7861 174.701 35.6657 171.867 35.6442 169.034C35.627 166.615 35.6399 164.2 35.6399 161.68ZM36.9949 173.406C37.111 175.098 37.1712 176.892 37.3734 178.678C37.5282 180.034 38.7498 181.377 39.9069 181.381C42.0577 181.389 44.2729 181.503 46.3462 181.077C49.426 180.444 52.1574 179.104 53.4307 176.028C54.0329 174.571 53.8264 173.394 52.4069 172.708C51.2799 172.164 50.0454 171.807 48.8238 171.466C47.3527 171.056 45.7999 170.881 44.3718 170.378C42.5007 169.716 41.8641 168.373 41.9243 166.157C41.9716 164.375 43.4341 164.103 44.7461 163.656C45.3655 163.445 46.0408 163.38 46.6516 163.149C47.1592 162.958 47.7313 162.715 48.0539 162.329C49.6583 160.426 48.4496 157.166 45.8386 156.72C43.2449 156.273 41.7566 154.889 40.836 152.698C40.2295 151.261 40.707 150.128 42.2641 149.682C42.8104 149.528 43.404 149.418 43.9675 149.45C46.1913 149.568 47.9764 148.704 49.6368 147.417C51.1036 146.281 51.809 144.771 51.9381 143.086C52.1445 140.395 50.51 138.731 48.1356 137.497C46.3376 136.564 44.0922 136.491 42.7416 137.915C41.4038 139.324 40.1177 140.931 39.3994 142.664C38.6423 144.487 38.4272 146.557 38.2595 148.541C37.9799 151.78 37.9412 155.035 37.782 158.287C37.5196 163.291 37.2572 168.296 36.9949 173.406Z" fill="#043A2E"/>
<path d="M36.9941 173.406C37.2565 168.296 37.5189 163.291 37.7641 158.287C37.9233 155.04 37.9663 151.78 38.2416 148.541C38.4136 146.557 38.6244 144.487 39.3814 142.664C40.0998 140.927 41.3902 139.324 42.7237 137.915C44.0743 136.491 46.3197 136.564 48.1177 137.497C50.4964 138.731 52.1266 140.395 51.9202 143.086C51.7911 144.771 51.09 146.281 49.6189 147.417C47.9585 148.704 46.1734 149.572 43.9496 149.45C43.3861 149.422 42.7925 149.528 42.2462 149.682C40.6891 150.128 40.2159 151.261 40.8181 152.698C41.7429 154.885 43.2269 156.273 45.8207 156.72C48.4317 157.166 49.6404 160.426 48.0359 162.329C47.7133 162.715 47.1412 162.954 46.6337 163.149C46.0272 163.38 45.3475 163.449 44.7281 163.656C43.4162 164.099 41.9494 164.371 41.9064 166.157C41.8505 168.377 42.4828 169.72 44.3539 170.378C45.782 170.881 47.3348 171.06 48.8059 171.466C50.0232 171.807 51.262 172.164 52.389 172.708C53.8085 173.394 54.015 174.571 53.4128 176.028C52.1395 179.104 49.4124 180.444 46.3283 181.077C44.255 181.503 42.0397 181.389 39.889 181.381C38.7319 181.377 37.5103 180.034 37.3555 178.678C37.1705 176.892 37.1103 175.098 36.9941 173.406Z" fill="#043A2E"/>
<path d="M11.8977 135.801C17.2646 135.289 20.254 138.183 22.4537 141.86C23.2738 143.227 23.3952 145.147 23.2911 146.785C23.1045 149.696 22.6924 152.619 22.0242 155.464C21.4905 157.744 22.1544 159.738 23.0351 161.675C24.4279 164.749 25.6557 167.848 26.2761 171.144C26.5538 172.618 26.9703 174.108 26.9573 175.586C26.9356 178.21 25.7729 180.278 23.0091 181.318C21.829 181.76 20.3061 181.301 19.3646 180.564C16.5531 178.362 16.7613 175.074 15.7634 172.221C15.5552 171.623 15.4597 170.915 15.0519 170.481C14.579 169.977 13.6114 169.277 13.2123 169.441C12.1363 169.879 10.6698 170.051 10.4355 171.586C10.0494 174.125 9.69358 176.675 9.10786 179.172C8.88224 180.122 8.26181 181.232 7.45047 181.764C5.84081 182.82 4.53051 183.381 2.91651 181.195C2.08348 180.065 1.62791 178.681 1.05954 177.392C-0.563136 173.699 0.109365 169.838 0.304607 166.047C0.590962 160.541 1.10293 155.038 1.58019 149.544C1.74506 147.62 1.92729 145.675 2.39587 143.804C2.85577 141.974 3.4415 140.091 4.43072 138.482C5.43731 136.849 7.15544 135.78 9.3595 135.801C10.3053 135.809 11.2425 135.801 11.8977 135.801ZM1.424 170.284C1.51077 170.288 1.59754 170.293 1.67998 170.297C1.67998 171.476 1.56717 172.671 1.70167 173.838C1.99237 176.339 2.27438 178.849 4.25718 180.851C4.80819 181.408 5.25508 181.608 5.81044 181.207C6.37013 180.802 7.05565 180.27 7.2075 179.684C7.68042 177.854 7.98413 175.983 8.24011 174.112C8.50478 172.192 9.08183 170.44 10.5136 168.978C12.0191 167.439 14.7308 167.496 15.7374 169.318C16.5618 170.812 16.9913 172.499 17.6074 174.096C18.2322 175.709 18.7572 177.371 19.5381 178.915C20.1455 180.114 21.6207 180.581 22.5796 180.081C24.5233 179.066 26.0419 177.604 25.7251 175.394C25.339 172.708 24.6405 170.051 23.9029 167.423C23.3822 165.572 22.7575 163.705 21.8376 162.01C20.4709 159.488 20.0588 157.061 20.8267 154.248C22.1153 149.528 23.5037 144.742 19.8462 140.218C18.64 138.728 17.1518 137.639 15.4033 137.283C13.4032 136.873 11.2512 137.078 9.16426 137.119C8.57853 137.131 7.84095 137.34 7.44179 137.717C5.81911 139.256 4.65634 141.123 4.31792 143.276C3.72351 147.059 3.22456 150.862 2.8254 154.67C2.29174 159.869 1.88824 165.081 1.424 170.284Z" fill="#043A2E"/>
<path d="M1.42383 170.284C1.88807 165.081 2.29157 159.869 2.82957 154.67C3.22439 150.862 3.72335 147.059 4.32209 143.276C4.66051 141.123 5.82328 139.26 7.44596 137.716C7.84079 137.34 8.57837 137.131 9.16843 137.119C11.2554 137.082 13.4074 136.873 15.4075 137.282C17.156 137.639 18.6442 138.728 19.8503 140.218C23.5079 144.738 22.1195 149.528 20.8309 154.248C20.0629 157.061 20.4751 159.492 21.8418 162.01C22.7616 163.705 23.3864 165.572 23.907 167.422C24.6446 170.047 25.3432 172.708 25.7293 175.393C26.046 177.604 24.5275 179.066 22.5837 180.081C21.6249 180.581 20.1497 180.114 19.5423 178.914C18.7613 177.371 18.2363 175.709 17.6116 174.096C16.9955 172.499 16.5659 170.812 15.7416 169.318C14.7393 167.496 12.0276 167.439 10.5178 168.978C9.086 170.44 8.51329 172.192 8.24429 174.112C7.9883 175.983 7.68025 177.854 7.21167 179.684C7.05982 180.269 6.37864 180.802 5.81461 181.207C5.25925 181.608 4.81236 181.408 4.26135 180.851C2.27855 178.849 2.00088 176.339 1.70584 173.838C1.57134 172.671 1.68415 171.48 1.68415 170.296C1.59738 170.296 1.5106 170.292 1.42383 170.284Z" fill="#043A2E"/>
<path d="M112.545 38.1259C113.011 44.1726 113.355 49.2714 113.814 54.3549C114.287 59.683 113.791 64.8582 111.772 69.8423C111.008 71.7305 109.678 72.8313 107.53 72.0592C104.556 70.9966 101.514 70.3239 99.1669 67.6713C96.6519 64.8276 93.3266 62.7101 90.5517 60.0652C86.6073 56.3042 82.6169 52.5431 79.1158 48.3923C77.9003 46.9475 77.6939 44.3255 77.7016 42.2386C77.7092 37.2468 80.6982 33.287 82.8921 29.0826C85.537 24.0068 88.0826 18.8774 90.934 13.9086C93.105 10.117 95.5282 6.44002 98.1502 2.9389C99.1593 1.58585 100.902 0.507999 102.53 0.0264045C103.303 -0.202926 105.282 1.1119 105.504 2.02158C107.033 8.4352 108.218 14.9253 109.601 21.3695C109.724 21.9351 110.458 22.6384 111.023 22.776C112.155 23.0436 113.37 23.0589 114.54 23.0053C123.193 22.6078 131.579 23.7698 139.063 28.3335C142.939 30.6956 146.233 33.845 149.13 37.5449C154.459 44.3484 154.374 52.1151 154.634 60.0576C154.856 66.8916 152.479 72.8619 149.589 78.7327C147.563 82.853 145.721 87.2103 142.916 90.7649C139.285 95.3592 135.531 100.007 130.386 103.202C126.679 105.511 123.109 108.049 119.493 110.503C114.54 113.866 108.715 114.814 103.096 115.984C96.5831 117.329 89.9173 118.606 83.1979 117.528C77.3346 116.588 71.5631 115.005 65.677 114.279C60.5553 113.644 56.7102 110.64 52.651 108.148C49.8685 106.444 47.6439 103.722 45.4271 101.23C43.1108 98.631 40.9704 95.8484 38.96 93.0047C32.7451 84.229 31.6443 74.6736 35.2524 64.6518C36.7813 60.4168 38.5166 56.1589 40.8405 52.3291C44.5556 46.206 49.6468 41.3059 56.6108 38.9362C58.9423 38.1412 61.5643 37.9348 64.0564 37.9271C68.4978 37.9118 73.7571 43.7674 73.0003 48.0712C72.771 49.3784 71.1045 50.5785 69.8737 51.5341C67.9168 53.0477 65.547 54.0797 63.7353 55.7385C59.7144 59.4384 58.2314 64.239 58.9652 69.5977C60.2342 78.7939 64.0793 86.6293 72.3352 91.43C76.7078 93.9756 81.4167 96.5135 86.2862 97.4614C90.8652 98.3481 95.9792 97.706 100.627 96.6893C104.518 95.8331 108.287 93.7921 111.727 91.667C115.426 89.3813 118.538 86.163 122.161 83.7398C127.008 80.4986 129.53 75.6215 131.709 70.6221C134.683 63.7956 135.371 56.5717 130.86 50.2193C128.261 46.5576 124.554 43.5152 120.869 40.8396C118.767 39.3108 115.709 39.0967 112.545 38.1259ZM88.419 115.15C91.6372 114.875 94.1828 114.845 96.6443 114.401C101.797 113.476 107.079 112.827 111.979 111.122C116.581 109.524 120.831 106.849 125.112 104.433C132.343 100.351 137.939 94.4189 142.503 87.6231C145.094 83.7704 147.044 79.4513 149.008 75.2163C151.263 70.3621 152.838 65.3398 153.021 59.8512C153.365 49.6612 150.231 40.9084 142.61 34.1661C138.061 30.1452 132.703 27.2709 126.373 26.904C121.267 26.6058 116.16 26.2389 111.054 25.9943C109.066 25.9026 107.889 25.3827 107.706 23.0589C107.507 20.498 106.796 17.9754 106.314 15.4374C105.649 11.8904 105.068 8.32053 104.304 4.78884C103.723 2.06745 102.607 1.7311 100.719 3.77214C99.1364 5.47683 97.5769 7.29619 96.4455 9.30665C93.319 14.8412 90.3912 20.4904 87.4481 26.1242C85.0478 30.7109 82.7163 35.3357 80.3847 39.9682C79.2151 42.2921 78.9705 44.5854 80.8434 46.7411C82.4793 48.6216 83.9164 50.6932 85.7205 52.3903C89.879 56.2965 94.1064 60.1416 98.4866 63.788C100.925 65.8214 103.624 67.6025 106.406 69.139C108.837 70.4845 109.961 69.7735 110.626 67.0904C110.756 66.5553 110.763 65.9972 110.855 65.4545C112.3 57.0304 110.825 48.6445 110.526 40.251C110.435 37.6978 111.268 36.3677 113.676 36.9257C117.383 37.7819 121.068 38.9209 124.584 40.358C125.968 40.9237 126.725 42.8807 128.063 43.7521C134.56 47.9948 138.39 59.1555 135.409 66.5553C134.537 68.7263 133.658 70.9049 132.626 73.0071C131.289 75.7285 130.195 78.7098 128.3 81.0031C120.548 90.3827 110.358 96.2001 98.9988 100.099C97.3093 100.68 95.4823 100.924 93.7012 101.161C86.4238 102.132 80.293 98.5775 73.9941 95.8867C72.0906 95.0764 70.4088 93.6239 68.8265 92.2327C66.4949 90.1916 63.8653 88.2499 62.2447 85.7044C60.2266 82.5396 58.82 78.9009 57.6733 75.3004C56.1751 70.5915 55.6094 65.4927 57.6657 60.9672C60.1043 55.6162 64.064 51.3124 69.8661 49.1261C70.3018 48.9579 70.8293 47.8419 70.6611 47.4596C69.8508 45.6479 68.773 43.9509 67.8633 42.1774C67.0836 40.6715 65.8681 40.1975 64.2169 40.0828C58.5601 39.6777 54.2028 42.9036 49.5168 45.1969C48.5154 45.6862 47.6745 46.657 46.956 47.559C44.0893 51.1595 41.001 54.5842 39.6021 59.1708C38.6465 62.2821 36.9495 65.1716 36.0169 68.2829C34.6944 72.7013 35.306 77.2115 36.4373 81.5917C37.6528 86.293 40.5882 90.0769 43.2561 94.0444C48.4848 101.803 55.1736 107.804 63.8423 111.237C71.9224 114.424 80.5988 114.462 88.419 115.15Z" fill="#043A2E"/>
<path d="M88.4191 115.151C80.599 114.47 71.9226 114.424 63.8578 111.237C55.1891 107.804 48.5003 101.804 43.2716 94.0446C40.596 90.0848 37.6606 86.3008 36.4528 81.5919C35.3214 77.2117 34.7099 72.7015 36.0324 68.2831C36.965 65.1642 38.662 62.2823 39.6176 59.171C41.0241 54.5844 44.1048 51.1521 46.9714 47.5592C47.69 46.6572 48.5309 45.6864 49.5323 45.1971C54.2106 42.9038 58.5756 39.6779 64.2324 40.083C65.8759 40.1977 67.099 40.6717 67.8788 42.1776C68.7961 43.9511 69.8663 45.6405 70.6766 47.4599C70.8448 47.8421 70.3173 48.9581 69.8816 49.1263C64.0795 51.3126 60.1121 55.6164 57.6812 60.9674C55.6248 65.4929 56.1829 70.5917 57.6888 75.3006C58.8355 78.9011 60.242 82.5475 62.2601 85.7046C63.8808 88.2501 66.5104 90.1842 68.8419 92.2329C70.4243 93.6241 72.1061 95.0766 74.0095 95.8869C80.3085 98.57 86.4393 102.125 93.7167 101.161C95.4978 100.924 97.3248 100.672 99.0142 100.099C110.381 96.2003 120.571 90.3829 128.315 81.0033C130.211 78.71 131.304 75.7363 132.642 73.0073C133.674 70.9051 134.553 68.7265 135.424 66.5555C138.406 59.1557 134.568 47.995 128.078 43.7523C126.74 42.8809 125.991 40.9239 124.6 40.3582C121.076 38.9211 117.399 37.7744 113.691 36.9259C111.283 36.3755 110.45 37.698 110.542 40.2512C110.848 48.6524 112.323 57.0382 110.871 65.4547C110.779 65.9974 110.771 66.5631 110.641 67.0906C109.976 69.7737 108.853 70.4847 106.422 69.1392C103.639 67.6027 100.941 65.8216 98.5021 63.7882C94.1218 60.1418 89.8869 56.2967 85.736 52.3905C83.9319 50.6934 82.4948 48.6218 80.8589 46.7413C78.986 44.5932 79.2306 42.2923 80.4002 39.9684C82.7317 35.3435 85.0633 30.7187 87.4636 26.1244C90.4143 20.4906 93.3421 14.8414 96.461 9.30686C97.6 7.29639 99.1518 5.47704 100.734 3.77234C102.622 1.73894 103.738 2.0753 104.319 4.78904C105.076 8.32074 105.657 11.8907 106.33 15.4376C106.804 17.9756 107.522 20.4982 107.721 23.0591C107.905 25.3829 109.082 25.8951 111.069 25.9945C116.176 26.2391 121.282 26.6137 126.389 26.9042C132.726 27.2711 138.077 30.1454 142.625 34.1663C150.247 40.9086 153.389 49.6614 153.037 59.8514C152.853 65.3476 151.279 70.37 149.024 75.2165C147.051 79.4515 145.11 83.7706 142.518 87.6233C137.955 94.4191 132.359 100.351 125.127 104.433C120.847 106.849 116.596 109.532 111.994 111.122C107.087 112.819 101.804 113.469 96.6598 114.401C94.1753 114.845 91.6374 114.868 88.4191 115.151Z" fill="#043A2E"/>
</svg>
