<svg width="1477" height="670" viewBox="0 0 1477 670" fill="none" xmlns="http://www.w3.org/2000/svg">
<path d="M790.194 487.501C776.968 451.304 751.664 421.46 745.513 414.542C744.668 413.585 743.575 412.875 742.359 412.481C719.567 405.068 673.534 374.638 659.283 365.006C656.511 363.135 652.782 363.361 650.349 365.648C637.562 377.624 636.604 398.838 638.069 414.621C638.711 421.55 630.07 425.29 625.439 420.097C597.229 388.394 617.08 363.71 628.38 353.582C631.579 350.709 631.658 345.729 628.504 342.811C626.363 340.84 623.243 340.31 620.595 341.527C587.495 356.871 582.02 379.145 583.057 394.737C583.507 401.609 574.945 405.135 570.382 399.975C546.228 372.7 581.029 340.975 593.714 330.869C596.238 328.853 597.15 325.428 595.922 322.442L584.87 295.415C584.656 294.886 584.386 294.39 584.048 293.928C576.365 283.282 482.023 156.043 385.236 194.224C319.115 220.316 311.917 236.404 293.913 231.717C288.021 230.185 286.545 222.513 291.424 218.874L346.424 136.068C350.976 132.677 350.052 125.613 344.78 123.507L217.023 108.827C211.649 106.686 212.178 100.805 215.569 96.1188C239.96 62.3657 317.888 51.877 337.817 40.3744C340.746 38.6845 344.509 40.5997 346.503 37.8733C368.303 8.13095 413.964 9.16742 423.8 9.76452C425.073 9.84339 426.335 9.573 427.472 9.0097C481.966 -17.6683 520.102 23.3964 520.102 23.3964C608.169 115.654 661.018 98.3833 667.732 95.6456C668.284 95.4203 668.848 95.2626 669.445 95.1837C818.213 73.812 970.913 166.948 978.382 171.579C978.585 171.703 978.788 171.815 979.002 171.917C986.178 175.443 1109.62 234.962 1275.39 243.682C1385.79 249.495 1445.95 290.041 1474.7 318.004C1480.43 323.58 1474.27 332.987 1466.88 329.912C1425.69 312.787 1345.85 291.281 1252.16 326.093C1127.75 372.317 945.981 424.096 913.343 433.3C910.29 434.157 908.161 436.894 908.06 440.06C905.513 527.563 911.653 669.932 911.653 669.932C911.653 669.932 914.245 711.887 893.267 711.887C873.45 711.887 875.027 669.11 875.264 664.356C875.275 664.052 875.275 663.77 875.253 663.466L860.517 464.575C860.37 462.648 859.48 460.868 858.016 459.607C851.436 453.974 832.802 440.612 830.335 467.684C827.406 499.871 838.762 661.956 839.303 669.628C839.314 669.831 839.325 670.023 839.314 670.225C839.258 674.056 838.097 711.876 815.34 711.876C792.414 711.876 790.724 507.882 790.622 489.924C790.622 489.112 790.476 488.29 790.194 487.501Z" fill="#043A2E"/>
<path d="M217.034 108.838L224.481 128.317L238.417 111.294L242.968 130.818L253.378 113.007L258.448 132.812L270.48 114.978L273.432 134.806L286.917 116.86L291.424 137.307L304.954 118.933L307.906 139.809L318.429 120.487L323.633 142.062L333.829 122.256L336.499 143.188L344.791 123.507L217.034 108.838Z" fill="#E5E5E5"/>
<path d="M291.435 218.873L280.912 199.744L301.304 204.014L291.108 186.258L310.125 190.742L298.915 170.779L319.622 176.434L305.405 156.786L329.131 162.115L318.394 145.306L337.873 148.968L291.435 218.873Z" fill="#E5E5E5"/>
<path d="M351.9 133C351.99 133.29 349.65 152.96 351.9 159.11C354.15 165.26 358.56 169.48 357.47 176.07C355.71 186.71 351.15 187.38 351.15 187.38C351.15 187.38 346.16 188.71 345 172.91C345 172.91 346.16 162.43 347.99 153.96C349.82 145.49 351.9 133 351.9 133Z" fill="#FF4700"/>
<path d="M430.831 585.122C430.831 585.122 447.139 584.4 436.266 575L429.379 580.061C429.379 580.061 422.129 563.796 337.686 578.613C337.686 578.613 323.914 564.155 318.839 563.793C313.765 563.43 330.073 543.189 337.686 544.637C337.686 544.637 318.479 538.42 308.33 564.842C308.33 564.842 299.996 564.518 292.382 581.145C284.772 597.773 292.382 594.159 292.382 594.159C292.382 594.159 302.531 592.712 304.703 591.268C304.703 591.268 300.716 595.607 309.778 607.895C309.778 607.895 307.603 594.159 311.953 592.352C316.304 590.545 322.102 601.39 322.102 601.39C322.102 601.39 326.813 624.885 337.686 623.078C337.686 623.078 337.686 626.332 337.686 630.668C337.686 635.004 337.686 662.475 337.686 662.475C337.686 662.475 338.05 667.896 339.498 666.814C340.949 665.729 343.121 666.092 343.121 648.743C343.121 648.743 341.31 624.525 346.384 622.356C351.459 620.186 350.735 639.705 350.735 639.705C350.735 639.705 349.647 666.018 352.186 666.957C354.725 667.896 356.537 654.523 356.537 654.523L356.173 624.885C356.173 624.885 382.63 633.56 397.127 626.332C397.127 626.332 398.214 667.196 401.114 667.005C404.013 666.814 404.377 653.8 404.377 653.8C404.377 653.8 402.565 623.437 406.552 621.993C410.539 620.546 407.64 667.196 411.626 667.005C415.613 666.814 414.162 625.966 414.162 625.966C414.162 625.966 435.503 592.958 430.831 585.122Z" fill="#E5E5E5"/>
<path d="M209.611 187.109C208.863 188.794 208.222 190.541 207.338 192.153C206.097 194.396 204.231 196.074 201.968 197.29C201.728 197.416 201.319 197.492 201.275 197.661C200.907 199.148 199.771 199.28 198.566 199.21C196.676 199.104 195.043 198.518 193.763 196.942C190.783 193.267 191.987 189.757 193.917 186.171C195.491 183.243 196.844 180.199 198.49 177.308C200.266 174.194 202.235 171.184 204.168 168.156C205.883 165.474 207.713 162.86 209.407 160.166C211.854 156.261 214.214 152.308 216.646 148.391C217.069 147.714 217.636 147.13 218.182 146.535C220.982 143.469 223.685 140.292 226.662 137.407C228.19 135.924 230.35 135.123 232.497 136.164C233.638 136.714 234.709 137.669 235.489 138.693C238.297 142.365 238.961 146.873 239.896 151.21C240.48 153.93 240.5 156.77 240.826 159.549C241.087 161.766 241.477 163.968 241.703 166.187C241.948 168.571 242.103 170.975 242.231 173.366C242.417 176.72 242.713 180.08 242.664 183.435C242.616 186.694 242.341 189.962 241.897 193.193C241.458 196.382 240.804 199.557 240.002 202.681C239.286 205.461 237.753 207.883 235.623 209.834C232.498 212.688 227.523 211.238 226.243 207.807C224.979 204.43 224.685 201.201 225.31 197.703C225.634 195.867 225.455 193.934 225.437 192.045C225.417 189.508 225.39 186.964 225.26 184.435C225.115 181.679 224.276 179.073 222.829 176.75C221.358 174.387 218.708 174.166 216.343 175.602C214.329 176.829 213.201 178.602 212.274 180.603C211.294 182.725 210.399 184.889 209.461 187.036C209.511 187.067 209.561 187.084 209.611 187.109ZM227.871 165.441C228.084 164.005 228.434 162.954 228.332 161.954C228.227 160.919 227.698 159.927 227.333 158.924C227.07 158.19 226.663 157.997 226.05 158.618C225.075 159.595 224.055 160.526 223.109 161.528C222.253 162.441 222.331 163.388 223.45 163.912C224.739 164.522 226.163 164.867 227.871 165.441Z" fill="#FF4700"/>
<path d="M33.9342 185.461C32.7358 189.07 31.8042 192.796 30.2472 196.24C28.7763 199.501 25.6036 200.617 22.058 200.316C15.7023 199.771 10.3535 197.229 6.75375 192.014C4.61611 188.916 2.83809 185.347 3.55415 181.239C5.08795 172.459 6.59683 163.671 8.20502 154.898C10.6567 141.493 12.8929 128.044 15.7758 114.737C17.7772 105.516 20.6987 96.4881 23.2556 87.3863C24.826 81.789 26.4296 76.1992 28.0912 70.6245C29.3103 66.5121 30.354 62.3133 32.0146 58.3799C33.488 54.8881 35.273 51.3228 37.7446 48.5159C39.5983 46.4087 42.5925 44.7354 45.365 44.1151C52.9526 42.4202 60.5997 42.8271 67.6263 46.5234C73.9677 49.857 80.4237 53.1549 86.2166 57.3267C92.6891 61.9768 97.3808 68.3364 99.1695 76.3918C100.134 80.7559 101.552 85.1255 101.734 89.5335C102.039 96.9488 100.879 104.128 96.4095 110.579C93.9399 114.145 92.0321 118.085 88.6299 120.947C86.0034 123.156 83.4365 125.437 80.7165 127.533C76.758 130.582 72.5022 133.276 68.722 136.535C65.0792 139.676 64.3427 144.972 66.2755 149.478C68.9339 155.656 71.829 161.738 74.2095 168.022C77.5688 176.897 80.9782 185.795 82.5859 195.216C83.7403 201.951 81.9268 207.727 76.2533 211.808C70.4745 215.966 63.1748 214.932 58.4642 207.121C55.765 202.643 54.3162 197.359 52.6589 192.319C51.0639 187.467 50.2297 182.357 48.4798 177.575C47.5343 175 45.5724 172.681 43.6741 170.6C42.0723 168.841 40.1168 169.483 38.4475 171.033C35.8264 173.464 34.7569 176.608 34.1552 179.996C33.8435 181.752 33.5235 183.508 33.2118 185.264C33.444 185.316 33.6933 185.393 33.9342 185.461ZM60.4194 89.422C59.5526 90.0617 58.4346 90.5509 57.8535 91.4064C56.7945 92.9581 55.6891 94.6346 55.2708 96.4181C54.8152 98.3591 56.5852 99.2396 58.1983 99.4393C59.1911 99.5635 60.7431 99.2864 61.2461 98.606C63.4252 95.6414 63.0444 92.5496 60.4194 89.422Z" fill="#FF4700"/>
<path d="M265.58 179.696C264.901 178.407 264.141 177.153 263.559 175.819C262.496 173.386 261.536 170.907 260.524 168.448C259.765 166.597 258.995 164.754 258.225 162.911C257.635 161.502 256.957 160.123 256.474 158.678C255.986 157.216 255.567 155.703 255.372 154.182C255.263 153.344 255.573 152.394 255.885 151.565C256.819 149.06 259.011 148.274 261.365 147.759C263.253 147.349 265.125 147.599 266.995 147.914C268.09 148.096 269.193 148.256 270.267 148.547C271.762 148.949 273.043 149.8 274.118 150.887C274.85 151.628 275.449 152.496 276.109 153.308C276.225 153.45 276.336 153.601 276.467 153.732C277.224 154.519 277.526 155.408 277.482 156.537C277.391 159.195 276.342 161.557 275.47 163.988C274.812 165.821 274.763 167.652 276.047 169.254C276.482 169.799 277.128 170.198 277.736 170.574C278.859 171.263 280.067 171.819 281.162 172.547C282.379 173.351 283.617 174.182 284.653 175.196C286.116 176.628 287.268 178.362 287.158 180.517C287.111 181.397 286.915 182.439 285.915 182.976C284.792 183.579 283.78 183.324 282.838 182.613C281.082 181.285 279.255 180.079 277.218 179.211C276.361 178.843 275.834 179.223 275.903 180.154C275.926 180.431 275.984 180.717 276.092 180.978C276.509 182.009 276.996 183.009 277.36 184.055C277.504 184.472 277.504 185.025 277.35 185.432C276.795 186.885 275.762 187.971 274.373 188.658C273.585 189.049 272.886 188.575 272.176 188.251C270.523 187.499 269.442 186.125 268.474 184.695C267.393 183.103 266.448 181.423 265.442 179.778C265.487 179.753 265.53 179.722 265.58 179.696ZM266.941 156.343C266.529 156.46 266.283 156.525 266.039 156.597C265.409 156.785 265.084 157.348 265.267 157.96C265.425 158.477 265.583 158.993 265.757 159.499C266.029 160.274 266.731 160.497 267.674 160.135C268.35 159.877 268.561 159.345 268.19 158.584C267.824 157.815 267.366 157.09 266.941 156.343Z" fill="#FF4700"/>
<path d="M135.453 116.257C137.228 115.967 139.029 115.349 140.775 115.458C145.006 115.72 149.285 115.999 153.416 116.873C159.179 118.093 164.35 120.932 168.721 124.827C172.427 128.13 175.717 131.923 179.034 135.636C183.344 140.473 185.918 146.381 188.866 152.068C191.93 157.973 193.688 164.213 194.573 170.759C195.16 175.104 194.173 179.052 191.972 182.777C191.154 184.165 190.378 185.577 189.594 186.984C187.114 191.396 183.527 194.601 179.097 197.028C176.414 198.502 173.89 200.304 171.424 202.133C167.193 205.276 162.251 206.401 157.247 207.378C154.437 207.925 151.606 208.42 148.758 208.72C145.035 209.105 141.376 209.009 137.83 207.316C134.44 205.702 130.709 204.778 127.393 203.038C124.607 201.576 122.055 199.552 119.673 197.468C117.227 195.331 114.771 193.054 112.917 190.415C110.241 186.623 107.542 182.665 105.86 178.384C102.824 170.67 101.237 162.566 101.908 154.143C102.211 150.379 101.93 146.564 102.367 142.827C102.626 140.628 103.552 138.42 104.567 136.41C106.445 132.679 109.045 129.432 112.107 126.552C114.269 124.519 116.235 122.283 118.41 120.268C120.247 118.564 122.161 116.904 124.217 115.484C127.017 113.544 129.969 114.748 132.827 115.55C133.714 115.804 134.532 116.304 135.385 116.695C135.396 116.55 135.427 116.399 135.453 116.257ZM146.804 156.092C146.559 156.642 146.472 157.328 146.093 157.615C144.432 158.858 144.741 161.048 145.642 162.524C146.579 164.054 148.227 164.247 149.817 163.934C150.4 163.821 151.159 163.147 151.315 162.585C152.18 159.404 151.379 156.177 146.804 156.092Z" fill="#FF4700"/>
</svg>
