<svg width="253" height="187" viewBox="0 0 253 187" fill="none" xmlns="http://www.w3.org/2000/svg">
<path fill-rule="evenodd" clip-rule="evenodd" d="M222.233 108.631C186.868 109.049 184.626 94.4227 184.626 94.4227L181.824 90.3916C196.11 86.691 192.792 73.5183 192.792 73.5183C181.296 66.4585 173.977 81.0739 173.977 81.0739L165.493 72.0536C172.911 76.0736 190.374 50.6646 173.318 50.4884C156.262 50.3121 158.086 68.0335 158.086 68.0335C138.327 57.1297 149.393 54.96 149.393 54.96C160.889 48.7812 160.13 35.3443 160.13 35.3443C160.13 35.3443 160.537 -4.26169 144.855 10.9485C129.172 26.1697 130.173 41.457 130.173 41.457C130.173 41.457 141.129 55.1032 129.843 56.9535C118.556 58.7928 118.809 46.8978 118.809 46.8978C125.81 34.6173 130.711 10.9926 130.711 10.9926C108.27 -9.41615 101.402 4.84681 101.402 4.84681C84.618 14.309 88.841 21.339 93.7733 29.55C94.4444 30.6672 95.1286 31.8062 95.7749 32.9762C101.171 42.7566 98.3464 55.0481 98.3464 55.0481L86.7634 55.742L87.104 36.0602C87.104 36.0602 88.6865 23.8898 67.7513 15.0347C46.816 6.19051 52.7284 19.6385 52.7284 19.6385L51.9151 32.0291C41.1563 39.1661 72.5757 61.304 72.5757 61.304L71.6196 65.4342C71.6196 65.4342 59.6628 78.0231 57.2012 59.2224C54.7505 40.4106 31.4964 54.6736 31.4964 54.6736C21.8255 71.4037 52.058 86.4597 52.058 86.4597C52.058 86.4597 46.6511 100.723 42.6619 92.5504C38.6726 84.3781 29.5732 86.5809 29.5732 86.5809C4.52778 76.338 17.8802 95.2157 17.8802 95.2157C17.8802 95.2157 22.2211 93.8169 25.54 103.476C28.8479 113.135 37.0462 116.351 37.0462 116.351L33.5624 119.171C25.2543 106.901 4.4728 109.875 4.4728 109.875C5.40692 121.142 26.1774 134.238 26.1774 134.238C-2.47263 129.59 13.3305 141.617 13.3305 141.617L0 149.768C6.06716 156.387 27.2618 144.95 36.1814 140.136C37.101 139.64 37.8901 139.214 38.5188 138.886C45.2444 135.372 45.6401 154.47 45.6401 154.47C45.6401 154.47 39.9364 186.312 52.1679 182.963C64.3994 179.626 62.3883 164.89 62.3883 164.89C62.3883 164.89 59.5859 137.542 67.9491 138.886C76.3122 140.229 74.4439 155.153 74.4439 155.153C74.4439 155.153 67.7512 185.486 78.0156 183.778C88.2799 182.071 88.5327 171.09 88.8184 156.993C89.0992 143.14 96.4572 141.751 106.983 139.763C107.169 139.728 107.356 139.692 107.545 139.657C118.37 137.608 122.853 151.111 122.853 151.111L122.216 179.263C122.216 179.263 122.952 187.534 128.909 185.882C134.865 184.23 135.546 168.733 135.546 168.733L137.151 151.959C144.404 141.353 148.712 153.953 148.712 153.953C148.712 153.953 152.196 167.643 153.515 179.604C154.844 191.565 165.713 182.512 165.713 182.512C165.713 182.512 172.032 152.268 178.626 151.21C185.22 150.153 208.54 140.978 208.54 140.978C208.54 140.978 257.081 139.161 251.696 125.129C246.311 111.098 222.233 108.631 222.233 108.631ZM106.635 101.509C106.515 101.845 106.635 102.013 106.995 102.013H111.495C111.759 102.013 111.927 101.905 111.999 101.689L119.775 81.421C119.847 81.205 119.883 81.025 119.883 80.881V77.245C119.883 77.125 119.835 77.029 119.739 76.957C119.667 76.861 119.571 76.813 119.451 76.813H103.719C103.599 76.813 103.491 76.861 103.395 76.957C103.323 77.029 103.287 77.125 103.287 77.245L103.251 83.005C103.251 83.125 103.287 83.233 103.359 83.329C103.455 83.401 103.563 83.437 103.683 83.437H106.959C107.079 83.437 107.175 83.401 107.247 83.329C107.343 83.233 107.391 83.125 107.391 83.005V81.349C107.391 81.229 107.451 81.169 107.571 81.169H114.303C114.447 81.169 114.495 81.241 114.447 81.385L106.635 101.509Z" fill="#043A2E"/>
</svg>
