<svg width="817" height="701" viewBox="0 0 817 701" fill="none" xmlns="http://www.w3.org/2000/svg">
<path d="M646.048 378.633C678.048 389.833 704.715 383.3 714.048 378.633C698.381 387.3 657.648 404.233 620.048 402.633C573.048 400.633 554.048 347.633 546.048 337.633C538.048 327.633 521.048 301.633 497.048 332.633C473.048 363.633 523 426.633 474 447.633C425 468.633 400 540.008 263 480.008C192.939 449.325 116.048 487.633 85.048 447.633C54.048 407.633 50 356.008 50 304.008C50 252.008 -22.5952 228.809 8.00001 166.008C27 127.008 33.048 125.008 85.048 111.008C124.412 100.41 157.883 103.601 172.665 109.906C160.057 104.237 115.935 86.4083 133 65.6332C156 37.6332 225 28.6332 263 28.6332C299.221 28.6332 418.048 58.6331 418.048 39.6331C418.048 24.4331 368.333 25.9665 352 28.6332C361 1.0083 401.248 -2.19171 418.048 1.00829C439.048 5.00829 456.048 41.6332 457.048 65.6332C458.048 89.6332 406.048 105.633 438.048 116.633C470.048 127.633 476.5 145.508 486 166.008C497.321 190.438 511.048 195.008 546.048 206.008C563.048 211.351 570.048 212.508 577.048 240.008C588.871 286.454 569.048 283.633 577.048 315.633C585.048 347.633 606.048 364.633 646.048 378.633Z" fill="white"/>
<path d="M797.636 546.466C797.636 546.466 733.691 604.32 643.824 616.489L679.267 468.606L684.062 450.709C684.062 450.709 684.092 450.749 684.145 450.819C684.18 450.869 684.226 450.937 684.286 451.01L684.294 451.012C684.323 451.051 684.353 451.091 684.39 451.133C687.012 454.592 705.941 477.275 751.645 480.171C752.039 480.197 752.433 480.222 752.828 480.24C768.319 481.098 783.846 478.888 805.779 473.732L809.79 486.633L797.636 546.466Z" fill="#2E3192"/>
<path d="M789.432 586.893C789.432 586.893 789.432 586.893 789.43 586.901C788.634 587.657 727.535 645.865 636.782 645.882L641.341 626.864C641.341 626.864 737.571 616.873 795.358 557.69L789.432 586.893Z" fill="#FF4700"/>
<path d="M781.416 626.346C781.416 626.346 747.462 664.554 668.653 673.788C658.489 670.127 650.026 666.008 644.022 662.757C644.022 662.757 721.712 655.426 786.208 602.752L781.416 626.346Z" fill="#FF4700"/>
<path d="M802.007 476.031C782.998 479.959 766.7 481.009 752.828 480.24C752.433 480.222 752.039 480.197 751.645 480.171C706.639 477.094 687.083 454.507 684.39 451.133C684.353 451.091 684.323 451.051 684.294 451.012L684.287 451.01C684.228 450.93 684.18 450.869 684.145 450.819C684.092 450.749 684.063 450.709 684.063 450.709L694.136 445.14C695.133 444.589 695.843 443.642 696.086 442.529C697.33 436.837 702.296 418.722 715.729 414.493C716.999 414.088 717.959 413.047 718.303 411.762C718.303 411.762 730.967 440.033 789.864 431.729C793.402 434.793 800.31 443.07 797.105 459.397C796.861 460.638 797.207 461.917 798.063 462.851L804.126 469.467C806.204 471.731 805.019 475.403 802.007 476.031Z" fill="white"/>
<path d="M789.864 431.729C730.967 440.033 718.303 411.761 718.303 411.761L721.192 400.981L728.091 401.756L729.67 395.866C730.259 393.668 728.873 391.422 726.649 390.962L717.349 389.039C715.125 388.579 713.739 386.333 714.328 384.135L716.071 377.631C716.69 375.321 719.202 374.079 721.409 374.991L728.386 377.87C730.377 378.692 732.659 377.773 733.521 375.809L736.143 369.853C736.885 368.161 738.703 367.206 740.524 367.558L790.989 377.354C793.244 377.79 794.659 380.044 794.064 382.264L785.345 414.806C784.978 416.174 783.897 417.247 782.512 417.572C782.495 417.576 782.486 417.581 782.469 417.585C783.511 417.432 784.575 417.26 785.644 417.066C788.501 416.541 790.918 419.184 790.167 421.987L788.632 427.714C788.24 429.179 788.711 430.739 789.864 431.729Z" fill="#2E3192"/>
<path d="M795.358 557.69C737.571 616.873 641.341 626.864 641.341 626.864L643.825 616.489C733.691 604.32 797.636 546.466 797.636 546.466L795.358 557.69Z" fill="white"/>
<path d="M786.208 602.752C721.712 655.426 644.022 662.757 644.022 662.757L643.939 662.711L634.208 656.922L634.147 656.882L636.782 645.882C727.535 645.865 788.634 587.657 789.43 586.901L786.208 602.752Z" fill="white"/>
<path d="M773.067 667.464C763.749 673.204 754.248 677.084 744.822 679.518C744.518 679.605 744.211 679.675 743.912 679.747C724.429 684.43 705.587 682.923 691.623 680.255C691.615 680.253 691.615 680.253 691.608 680.251C683.418 678.609 675.756 676.348 668.87 673.878C668.726 673.815 668.653 673.788 668.653 673.788C747.462 664.553 781.416 626.346 781.416 626.346L773.067 667.464Z" fill="white"/>
</svg>
