<svg width="587" height="369" viewBox="0 0 587 369" fill="none" xmlns="http://www.w3.org/2000/svg">
<path d="M420.474 256.715C420.474 256.715 431.679 257.442 420.474 291.989C409.269 326.536 469.064 388.057 487.81 363.228C487.81 363.228 455.084 315.54 510.61 245.471C510.61 245.471 537.858 259.18 551.997 272.729C566.137 286.278 529.374 227.914 529.374 227.914C529.374 227.914 548.707 198.51 544.687 178.187L556.995 166.234C556.995 166.234 577.661 175.899 578.853 173.611C580.045 171.323 573.891 148.144 573.891 148.144C573.891 148.144 597.421 145.591 581.432 112.675C581.432 112.675 575.065 89.3368 518.312 131.066C461.558 172.795 412.417 155.256 412.417 155.256C412.417 155.256 387.429 135.234 395.041 77.1355C402.653 19.0373 379.71 30.6357 379.71 30.6357C379.71 30.6357 364.486 26.9823 367.189 69.8644C369.892 112.746 357.852 116.258 357.852 116.258C357.852 116.258 350.755 110.742 347.91 74.4576C345.082 38.1728 330.302 31.7352 330.302 31.7352C330.302 31.7352 318.386 27.408 316.803 84.6017C315.22 141.795 259.036 125.515 259.036 125.515C259.036 125.515 219.161 123.458 217.4 100.935C215.639 78.4124 218.005 12.2628 193.817 19.5339C193.817 19.5339 181.918 21.1123 189.904 53.7792C197.89 86.4462 178.415 108.366 178.415 108.366C178.415 108.366 167.512 117.659 168.579 72.2408C169.646 26.8228 160.86 23.6483 160.86 23.6483C160.86 23.6483 140.585 -0.452894 146.027 90.4187C146.027 90.4187 160.86 142.381 139.429 144.243C117.998 146.105 34.4061 132.113 20 163.68C20 163.68 85.8237 163.237 132.226 216.706C178.628 270.176 207.28 294.33 207.28 294.33C207.28 294.33 260.014 328.575 313.779 302.984C367.545 277.393 396.126 260.209 396.197 256.378C396.268 252.53 420.474 256.715 420.474 256.715Z" fill="#043A2E"/>
<path d="M252.426 254.221C252.426 254.221 176.394 281.968 179.52 173.998C179.52 173.998 204.919 222.139 224.79 211.6C224.79 211.6 172.918 164.439 198.008 132.339C198.008 132.339 219.145 185.552 234.015 190.776C234.015 190.776 179.658 82.1996 238.371 80.509C238.371 80.509 230.027 144.111 259.818 154.588C259.818 154.588 224.399 52.042 289.971 54.1005C289.971 54.1005 265.58 141.45 296.696 163.057C296.696 163.057 281.83 58.8721 310.43 45.5903C339.03 32.3086 339.058 32.2573 339.058 32.2573C339.058 32.2573 284.807 155.029 337.464 145.519C337.464 145.519 327.389 77.677 361.523 37.2233L385.447 34.1346C385.447 34.1346 337.911 133.963 370.653 121.595C370.653 121.595 378.41 36.1718 420.018 41.3305C420.018 41.3305 379.873 87.3623 411.63 91.5353C411.63 91.5353 419.717 33.7424 460.935 63.8942C502.152 94.0459 431.107 112.674 431.107 112.674C431.107 112.674 350.287 147.542 481.61 107.625C481.61 107.625 495.474 143.756 406.278 152.374C317.082 160.992 420.725 169.234 420.725 169.234C420.725 169.234 457.263 170.126 480.708 165.235C504.114 160.356 470.499 202.6 428.384 195.691C386.269 188.782 373.644 184.761 373.644 184.761C373.644 184.761 314.998 199.929 403.997 210.426L467.757 212.923C467.757 212.923 462.835 268.549 399.615 241.577C336.395 214.604 336.395 214.604 336.395 214.604C336.395 214.604 313.535 248.603 356.589 245.064L433.873 260.937C433.873 260.937 410.833 300.119 372.173 278.8C333.512 257.48 299.716 246.265 340.922 276.377C382.128 306.489 382.128 306.489 382.128 306.489C382.128 306.489 330.093 344.493 308.98 291.36C287.866 238.226 283.375 249.056 283.375 249.056L310.327 315.807C310.378 315.835 208.127 345.438 252.426 254.221Z" fill="#006C53"/>
<path d="M248.751 264.264C248.751 264.264 317.324 289.289 314.505 191.909C314.505 191.909 291.598 235.328 273.675 225.823C273.675 225.823 320.46 183.288 297.83 154.336C297.83 154.336 278.767 202.33 265.356 207.042C265.356 207.042 314.381 109.115 261.427 107.591C261.427 107.591 268.952 164.954 242.084 174.404C242.084 174.404 274.028 81.9159 214.888 83.7725C214.888 83.7725 236.887 162.554 208.822 182.041C208.822 182.041 222.23 88.0761 196.436 76.0971C170.641 64.1181 170.616 64.0718 170.616 64.0718C170.616 64.0718 219.546 174.801 172.053 166.224C172.053 166.224 181.14 105.036 150.355 68.5508L128.777 65.7651C128.777 65.7651 171.651 155.802 142.12 144.647C142.12 144.647 135.124 67.6025 97.597 72.2551C97.597 72.2551 133.804 113.772 105.162 117.535C105.162 117.535 97.8684 65.4113 60.6941 92.6055C23.5197 119.8 87.5957 136.6 87.5957 136.6C87.5957 136.6 160.488 168.048 42.0472 132.047C42.0472 132.047 29.543 164.634 109.989 172.406C190.436 180.179 96.96 187.613 96.96 187.613C96.96 187.613 64.0059 188.417 42.86 184.006C21.7498 179.606 52.0678 217.706 90.0518 211.474C128.036 205.243 139.423 201.617 139.423 201.617C139.423 201.617 192.316 215.297 112.047 224.765L54.5409 227.016C54.5409 227.016 58.9805 277.186 115.999 252.859C173.018 228.532 173.018 228.532 173.018 228.532C173.018 228.532 193.636 259.197 154.805 256.005L85.1012 270.32C85.1012 270.32 105.881 305.659 140.75 286.431C175.618 267.203 206.099 257.088 168.935 284.246C131.771 311.405 131.771 311.405 131.771 311.405C131.771 311.405 178.702 345.681 197.744 297.759C216.786 249.837 220.837 259.605 220.837 259.605L196.529 319.808C196.483 319.834 288.704 346.533 248.751 264.264Z" fill="#3FA34D"/>
<circle cx="215.5" cy="251.5" r="11.5" fill="#2E3192"/>
<circle cx="235.5" cy="274.5" r="11.5" fill="#2E3192"/>
<circle cx="247.5" cy="251.5" r="11.5" fill="#2E3192"/>
</svg>
