<svg width="303" height="193" viewBox="0 0 303 193" fill="none" xmlns="http://www.w3.org/2000/svg">
<path fill-rule="evenodd" clip-rule="evenodd" d="M183.79 156.93L190.512 169.223L200.981 165.627L194.081 156.016L174.995 143.429C175.562 138.89 184.818 137.362 184.818 137.362C184.742 130.36 193.391 129.869 193.391 129.869L198.506 146.083L210.37 157.913L216.442 147.561L203.787 139.445L200.281 119.303C201.761 113.22 205.36 83.3316 205.36 83.3316C223.398 54.9549 277.551 13.6819 277.551 13.6819L302.347 1.09716C284.248 -6.04015 202.605 23.9806 202.605 23.9806L201.466 16.3557L191.177 17.2778L195.951 30.5135L167.093 84.55L152.306 91.8773C152.306 91.8773 138.471 69.155 147.85 69.7848C157.228 70.4146 169.624 54.0353 169.624 54.0353L142.328 63.761L165.974 40.0662C161.224 38.6661 139.449 54.4157 139.449 54.4157C132.967 54.7853 113.354 70.41 113.354 70.41C119.788 74.877 128.699 70.3673 128.699 70.3673C129.505 78.4906 144.124 97.5005 144.124 97.5005L138.66 106.817L109.003 107.508L75.4914 113.588L65.1256 107.508L59.7528 115.485L66.8835 117.582C66.8835 117.582 39.8581 143.466 29.0358 152.419C18.2134 161.371 0 192.424 0 192.424C19.2869 165.48 117.505 141.702 117.505 141.702L163.834 149.397L183.79 156.93ZM169.144 125.061C169.144 123.381 168.856 122.001 168.28 120.921C167.632 119.673 166.732 118.725 165.58 118.077C164.452 117.405 163.168 117.069 161.728 117.069C160.096 117.069 158.788 117.489 157.804 118.329C157.756 118.377 157.708 118.401 157.66 118.401C157.612 118.377 157.588 118.329 157.588 118.257V114.873C157.588 114.033 157.864 113.349 158.416 112.821C158.992 112.269 159.724 111.993 160.612 111.993C161.452 111.993 162.136 112.257 162.664 112.785C163.192 113.313 163.456 113.973 163.456 114.765V115.089C163.456 115.209 163.492 115.317 163.564 115.413C163.66 115.485 163.768 115.521 163.888 115.521H168.1C168.22 115.521 168.316 115.485 168.388 115.413C168.484 115.317 168.532 115.209 168.532 115.089V114.081C168.532 112.809 168.196 111.693 167.524 110.733C166.876 109.749 165.952 108.993 164.752 108.465C163.552 107.913 162.172 107.637 160.612 107.637C159.028 107.637 157.624 107.913 156.4 108.465C155.176 108.993 154.216 109.761 153.52 110.769C152.848 111.753 152.512 112.893 152.512 114.189V125.025C152.512 126.321 152.728 127.497 153.16 128.553C153.76 130.065 154.732 131.253 156.076 132.117C157.42 132.957 159.016 133.377 160.864 133.377C162.664 133.377 164.224 132.969 165.544 132.153C166.864 131.337 167.836 130.221 168.46 128.805C168.916 127.701 169.144 126.453 169.144 125.061ZM164.068 125.133C164.068 126.021 163.888 126.777 163.528 127.401C162.976 128.457 162.076 128.985 160.828 128.985C159.532 128.985 158.62 128.457 158.092 127.401C157.78 126.801 157.624 126.069 157.624 125.205C157.624 124.221 157.804 123.417 158.164 122.793C158.668 121.809 159.568 121.317 160.864 121.317C162.016 121.317 162.892 121.797 163.492 122.757C163.876 123.381 164.068 124.173 164.068 125.133Z" fill="#043A2E"/>
</svg>
