<svg width="208" height="117" viewBox="0 0 208 117" fill="none" xmlns="http://www.w3.org/2000/svg">
<path fill-rule="evenodd" clip-rule="evenodd" d="M47.3039 25.1645C46.894 38.9347 51.0605 38.0029 51.0605 38.0029C51.0605 38.0029 60.3399 36.9414 59.956 35.5331C59.574 34.1313 68.1742 24.8247 85.0697 9.76937C101.965 -5.28597 124.857 1.54694 124.857 1.54694C124.857 1.54694 137.885 7.27863 160.514 21.7845C183.142 36.2904 207.116 29.1002 207.116 29.1002C205.661 39.1052 186.452 43.6875 174.164 46.6188C170.452 47.5044 167.371 48.2393 165.602 48.9275C157.979 51.8938 168.926 69.2221 168.926 69.2221C180.59 101.715 170.624 95.1079 170.624 95.1079C170.624 95.1079 167.08 94.8907 162.632 78.2463C158.185 61.6019 155.196 66.1484 155.196 66.1484C155.196 66.1484 150.423 76.2059 156.816 87.2427C163.209 98.2795 159.035 100.125 159.035 100.125C152.301 104.498 146.875 88.1975 143.5 78.0592C142.84 76.075 142.258 74.3268 141.76 73.0159C138.719 65.0065 123.948 68.5157 123.948 68.5157C123.948 68.5157 101.71 68.5898 107.224 89.5752C112.737 110.561 107.928 110.258 107.928 110.258C107.928 110.258 101.848 109.493 96.952 96.589C92.0493 83.6865 88.8722 82.4369 88.8722 82.4369C88.8722 82.4369 84.852 85.0007 90.4054 100.319C95.9589 115.638 90.0139 115.934 90.0139 115.934C90.0139 115.934 82.8763 122.606 79.4669 100.647C76.0575 78.6887 64.8059 74.0698 64.8059 74.0698C64.8059 74.0698 45.0046 72.9335 28.7374 94.1817C12.4701 115.43 7.661 107.615 7.661 107.615C-1.67941 97.3429 6.63561 93.9008 6.63561 93.9008C6.63561 93.9008 1.92137 86.1216 2.11259 85.1617C2.30382 84.2018 10.8752 85.5128 10.8752 85.5128L14.0937 79.8481C10.4623 72.8802 14.3861 60.114 14.3861 60.114C14.3861 60.114 -5.24552 42.7972 1.35743 46.2187C7.96037 49.6403 19.3638 51.7202 19.3638 51.7202C32.1651 20.2885 15.1438 6.42634 15.1438 6.42634C19.3407 -4.61196 47.7138 11.3943 47.3039 25.1645ZM115.162 39.9711C115.162 38.5311 114.922 37.2591 114.442 36.1551C113.554 34.0911 112.066 32.8551 109.978 32.4471C109.882 32.4471 109.822 32.4231 109.798 32.3751C109.798 32.3271 109.822 32.2791 109.87 32.2311L114.586 27.9111C114.754 27.7431 114.838 27.5631 114.838 27.3711V23.4111C114.838 23.2911 114.79 23.1951 114.694 23.1231C114.622 23.0271 114.526 22.9791 114.406 22.9791H99.3941C99.2741 22.9791 99.1661 23.0271 99.0701 23.1231C98.9981 23.1951 98.9621 23.2911 98.9621 23.4111V26.9031C98.9621 27.0231 98.9981 27.1311 99.0701 27.2271C99.1661 27.2991 99.2741 27.3351 99.3941 27.3351H107.854C107.926 27.3351 107.962 27.3591 107.962 27.4071C107.986 27.4551 107.974 27.5031 107.926 27.5511L102.202 32.5551C102.106 32.6511 102.058 32.7711 102.058 32.9151C102.058 33.0111 102.082 33.0951 102.13 33.1671L104.254 36.1551C104.326 36.2991 104.434 36.3711 104.578 36.3711C104.674 36.3711 104.77 36.3351 104.866 36.2631C105.274 35.9751 105.622 35.7591 105.91 35.6151C106.198 35.4471 106.474 35.3631 106.738 35.3631C108.034 35.3631 108.958 35.9271 109.51 37.0551C109.87 37.7751 110.05 38.6991 110.05 39.8271C110.05 40.7871 109.882 41.6271 109.546 42.3471C109.042 43.5231 108.118 44.1111 106.774 44.1111C106.102 44.1111 105.514 43.9431 105.01 43.6071C104.53 43.2471 104.182 42.7551 103.966 42.1311C103.798 41.7471 103.666 41.1591 103.57 40.3671C103.57 40.0791 103.426 39.9351 103.138 39.9351H98.8901C98.6021 39.9351 98.4581 40.0791 98.4581 40.3671C98.5061 41.4471 98.6981 42.4551 99.0341 43.3911C99.6341 44.9511 100.618 46.1871 101.986 47.0991C103.378 48.0111 104.986 48.4671 106.81 48.4671C108.658 48.4671 110.254 48.0351 111.598 47.1711C112.966 46.3071 113.938 45.1071 114.514 43.5711C114.946 42.4671 115.162 41.2671 115.162 39.9711Z" fill="#043A2E"/>
</svg>
