<svg width="903" height="273" viewBox="0 0 903 273" fill="none" xmlns="http://www.w3.org/2000/svg">
<path d="M890.545 -1C890.545 -1 876.356 37.4641 890.545 65.5783C904.734 93.6925 890.545 139.795 890.545 139.795C890.545 139.795 874.94 181.642 890.545 205.046C906.15 228.449 888.769 264.625 888.769 264.625" stroke="#7FB800" stroke-width="2" stroke-miterlimit="10"/>
<path d="M887.001 11.7654L877.779 24.5308" stroke="#7FB800" stroke-width="2" stroke-miterlimit="10"/>
<path d="M883.61 24.8826L878.131 40.1354" stroke="#7FB800" stroke-width="2" stroke-miterlimit="10"/>
<path d="M884.481 42.2632L877.779 55.7404" stroke="#7FB800" stroke-width="2" stroke-miterlimit="10"/>
<path d="M887.161 57.0681L883.609 73.5767" stroke="#7FB800" stroke-width="2" stroke-miterlimit="10"/>
<path d="M894.064 74.7444L888.417 84.1105" stroke="#7FB800" stroke-width="2" stroke-miterlimit="10"/>
<path d="M897.046 86.95L890.328 98.2916" stroke="#7FB800" stroke-width="2" stroke-miterlimit="10"/>
<path d="M897.046 102.41L890.328 116.024" stroke="#7FB800" stroke-width="2" stroke-miterlimit="10"/>
<path d="M894.407 123.046L885.569 131.805" stroke="#7FB800" stroke-width="2" stroke-miterlimit="10"/>
<path d="M888.776 264.617L880.874 271" stroke="#7FB800" stroke-width="2" stroke-miterlimit="10"/>
<path d="M892.943 253.604L883.609 258.594" stroke="#7FB800" stroke-width="2" stroke-miterlimit="10"/>
<path d="M897.047 241.214L888.281 247.948" stroke="#7FB800" stroke-width="2" stroke-miterlimit="10"/>
<path d="M897.046 225.609L890.328 237.671" stroke="#7FB800" stroke-width="2" stroke-miterlimit="10"/>
<path d="M893.688 214.971L888.281 225.257" stroke="#7FB800" stroke-width="2" stroke-miterlimit="10"/>
<path d="M888.28 201.071L881.13 220.115" stroke="#7FB800" stroke-width="2" stroke-miterlimit="10"/>
<path d="M884.705 190.065L878.842 196.175" stroke="#7FB800" stroke-width="2" stroke-miterlimit="10"/>
<path d="M883.61 177.379L878.491 188.017" stroke="#7FB800" stroke-width="2" stroke-miterlimit="10"/>
<path d="M884.705 163.582L877.067 175.604" stroke="#7FB800" stroke-width="2" stroke-miterlimit="10"/>
<path d="M888.28 150.073L878.842 162.838" stroke="#7FB800" stroke-width="2" stroke-miterlimit="10"/>
<path d="M890.544 139.787L882.386 144.754" stroke="#7FB800" stroke-width="2" stroke-miterlimit="10"/>
<path d="M892.664 129.861L882.386 144.754" stroke="#7FB800" stroke-width="2" stroke-miterlimit="10"/>
<path d="M886.465 18.1479L887.529 28.9617" stroke="#7FB800" stroke-width="2" stroke-miterlimit="10"/>
<path d="M885.385 34.1045L890.328 42.2628" stroke="#7FB800" stroke-width="2" stroke-miterlimit="10"/>
<path d="M886.465 49.0059L893.687 57.868" stroke="#7FB800" stroke-width="2" stroke-miterlimit="10"/>
<path d="M890.544 65.5703L901.542 73.5767" stroke="#7FB800" stroke-width="2" stroke-miterlimit="10"/>
<path d="M897.047 86.95L901.182 94.3964" stroke="#7FB800" stroke-width="2" stroke-miterlimit="10"/>
<path d="M899.119 98.6514L901.182 109.217" stroke="#7FB800" stroke-width="2" stroke-miterlimit="10"/>
<path d="M895.687 114.68L897.047 127.43" stroke="#7FB800" stroke-width="2" stroke-miterlimit="10"/>
<path d="M892.664 129.861V147.593" stroke="#7FB800" stroke-width="2" stroke-miterlimit="10"/>
<path d="M888.281 150.073L892.664 163.902" stroke="#7FB800" stroke-width="2" stroke-miterlimit="10"/>
<path d="M884.706 163.582L888.281 176.668" stroke="#7FB800" stroke-width="2" stroke-miterlimit="10"/>
<path d="M883.778 182.698L892.664 193.12" stroke="#7FB800" stroke-width="2" stroke-miterlimit="10"/>
<path d="M888.281 201.071L896.368 208.589" stroke="#7FB800" stroke-width="2" stroke-miterlimit="10"/>
<path d="M893.688 214.971L901.894 226.321" stroke="#7FB800" stroke-width="2" stroke-miterlimit="10"/>
<path d="M897.791 231.64L901.894 246.181" stroke="#7FB800" stroke-width="2" stroke-miterlimit="10"/>
<path d="M894.248 249.061L900.15 262.49" stroke="#7FB800" stroke-width="2" stroke-miterlimit="10"/>
<path d="M890.984 259.298L892.664 271" stroke="#7FB800" stroke-width="2" stroke-miterlimit="10"/>
<path d="M598.478 -1C598.478 -1 584.289 37.4641 598.478 65.5783C612.667 93.6925 598.478 139.795 598.478 139.795C598.478 139.795 582.873 181.642 598.478 205.046C614.083 228.449 596.702 264.625 596.702 264.625" stroke="#7FB800" stroke-width="2" stroke-miterlimit="10"/>
<path d="M594.934 11.7654L585.712 24.5308" stroke="#7FB800" stroke-width="2" stroke-miterlimit="10"/>
<path d="M591.543 24.8826L586.064 40.1354" stroke="#7FB800" stroke-width="2" stroke-miterlimit="10"/>
<path d="M592.415 42.2632L585.712 55.7404" stroke="#7FB800" stroke-width="2" stroke-miterlimit="10"/>
<path d="M595.094 57.0681L591.542 73.5767" stroke="#7FB800" stroke-width="2" stroke-miterlimit="10"/>
<path d="M601.997 74.7444L596.35 84.1105" stroke="#7FB800" stroke-width="2" stroke-miterlimit="10"/>
<path d="M604.979 86.95L598.261 98.2916" stroke="#7FB800" stroke-width="2" stroke-miterlimit="10"/>
<path d="M604.979 102.41L598.261 116.024" stroke="#7FB800" stroke-width="2" stroke-miterlimit="10"/>
<path d="M602.34 123.046L593.502 131.805" stroke="#7FB800" stroke-width="2" stroke-miterlimit="10"/>
<path d="M596.709 264.617L588.807 271" stroke="#7FB800" stroke-width="2" stroke-miterlimit="10"/>
<path d="M600.877 253.604L591.542 258.594" stroke="#7FB800" stroke-width="2" stroke-miterlimit="10"/>
<path d="M604.981 241.214L596.214 247.948" stroke="#7FB800" stroke-width="2" stroke-miterlimit="10"/>
<path d="M604.979 225.609L598.261 237.671" stroke="#7FB800" stroke-width="2" stroke-miterlimit="10"/>
<path d="M601.621 214.971L596.214 225.257" stroke="#7FB800" stroke-width="2" stroke-miterlimit="10"/>
<path d="M596.214 201.071L589.063 220.115" stroke="#7FB800" stroke-width="2" stroke-miterlimit="10"/>
<path d="M592.638 190.065L586.775 196.175" stroke="#7FB800" stroke-width="2" stroke-miterlimit="10"/>
<path d="M591.543 177.379L586.424 188.017" stroke="#7FB800" stroke-width="2" stroke-miterlimit="10"/>
<path d="M592.638 163.582L585 175.604" stroke="#7FB800" stroke-width="2" stroke-miterlimit="10"/>
<path d="M596.213 150.073L586.775 162.838" stroke="#7FB800" stroke-width="2" stroke-miterlimit="10"/>
<path d="M598.477 139.787L590.319 144.754" stroke="#7FB800" stroke-width="2" stroke-miterlimit="10"/>
<path d="M600.597 129.861L590.319 144.754" stroke="#7FB800" stroke-width="2" stroke-miterlimit="10"/>
<path d="M594.398 18.1479L595.462 28.9617" stroke="#7FB800" stroke-width="2" stroke-miterlimit="10"/>
<path d="M593.318 34.1045L598.261 42.2628" stroke="#7FB800" stroke-width="2" stroke-miterlimit="10"/>
<path d="M594.398 49.0059L601.62 57.868" stroke="#7FB800" stroke-width="2" stroke-miterlimit="10"/>
<path d="M598.478 65.5703L609.475 73.5767" stroke="#7FB800" stroke-width="2" stroke-miterlimit="10"/>
<path d="M604.98 86.95L609.115 94.3964" stroke="#7FB800" stroke-width="2" stroke-miterlimit="10"/>
<path d="M607.052 98.6514L609.115 109.217" stroke="#7FB800" stroke-width="2" stroke-miterlimit="10"/>
<path d="M603.62 114.68L604.98 127.43" stroke="#7FB800" stroke-width="2" stroke-miterlimit="10"/>
<path d="M600.597 129.861V147.593" stroke="#7FB800" stroke-width="2" stroke-miterlimit="10"/>
<path d="M596.214 150.073L600.597 163.902" stroke="#7FB800" stroke-width="2" stroke-miterlimit="10"/>
<path d="M592.639 163.582L596.214 176.668" stroke="#7FB800" stroke-width="2" stroke-miterlimit="10"/>
<path d="M591.711 182.698L600.597 193.12" stroke="#7FB800" stroke-width="2" stroke-miterlimit="10"/>
<path d="M596.214 201.071L604.301 208.589" stroke="#7FB800" stroke-width="2" stroke-miterlimit="10"/>
<path d="M601.621 214.971L609.827 226.321" stroke="#7FB800" stroke-width="2" stroke-miterlimit="10"/>
<path d="M605.724 231.64L609.827 246.181" stroke="#7FB800" stroke-width="2" stroke-miterlimit="10"/>
<path d="M602.181 249.061L608.083 262.49" stroke="#7FB800" stroke-width="2" stroke-miterlimit="10"/>
<path d="M598.917 259.298L600.597 271" stroke="#7FB800" stroke-width="2" stroke-miterlimit="10"/>
<path d="M14.4779 0C14.4779 0 0.288864 38.4641 14.4779 66.5783C28.667 94.6925 14.4779 140.795 14.4779 140.795C14.4779 140.795 -1.12684 182.642 14.4779 206.046C30.0827 229.449 12.7023 265.625 12.7023 265.625" stroke="#7FB800" stroke-width="2" stroke-miterlimit="10"/>
<path d="M10.934 12.7654L1.71191 25.5308" stroke="#7FB800" stroke-width="2" stroke-miterlimit="10"/>
<path d="M7.54332 25.8826L2.06445 41.1354" stroke="#7FB800" stroke-width="2" stroke-miterlimit="10"/>
<path d="M8.41453 43.2632L1.71191 56.7404" stroke="#7FB800" stroke-width="2" stroke-miterlimit="10"/>
<path d="M11.0937 58.0681L7.54248 74.5767" stroke="#7FB800" stroke-width="2" stroke-miterlimit="10"/>
<path d="M17.9969 75.7444L12.3501 85.1105" stroke="#7FB800" stroke-width="2" stroke-miterlimit="10"/>
<path d="M20.9794 87.95L14.2607 99.2916" stroke="#7FB800" stroke-width="2" stroke-miterlimit="10"/>
<path d="M20.9794 103.41L14.2607 117.024" stroke="#7FB800" stroke-width="2" stroke-miterlimit="10"/>
<path d="M18.3401 124.046L9.50195 132.805" stroke="#7FB800" stroke-width="2" stroke-miterlimit="10"/>
<path d="M12.709 265.617L4.80664 272" stroke="#7FB800" stroke-width="2" stroke-miterlimit="10"/>
<path d="M16.8766 254.604L7.54248 259.594" stroke="#7FB800" stroke-width="2" stroke-miterlimit="10"/>
<path d="M20.9805 242.214L12.2144 248.948" stroke="#7FB800" stroke-width="2" stroke-miterlimit="10"/>
<path d="M20.9794 226.609L14.2607 238.671" stroke="#7FB800" stroke-width="2" stroke-miterlimit="10"/>
<path d="M17.6212 215.971L12.2144 226.257" stroke="#7FB800" stroke-width="2" stroke-miterlimit="10"/>
<path d="M12.2135 202.071L5.06299 221.115" stroke="#7FB800" stroke-width="2" stroke-miterlimit="10"/>
<path d="M8.63818 191.065L2.77539 197.175" stroke="#7FB800" stroke-width="2" stroke-miterlimit="10"/>
<path d="M7.54326 178.379L2.42432 189.017" stroke="#7FB800" stroke-width="2" stroke-miterlimit="10"/>
<path d="M8.63843 164.582L1 176.604" stroke="#7FB800" stroke-width="2" stroke-miterlimit="10"/>
<path d="M12.2134 151.073L2.77539 163.838" stroke="#7FB800" stroke-width="2" stroke-miterlimit="10"/>
<path d="M14.4772 140.787L6.31885 145.754" stroke="#7FB800" stroke-width="2" stroke-miterlimit="10"/>
<path d="M16.5967 130.861L6.31885 145.754" stroke="#7FB800" stroke-width="2" stroke-miterlimit="10"/>
<path d="M10.3979 19.1479L11.4617 29.9617" stroke="#7FB800" stroke-width="2" stroke-miterlimit="10"/>
<path d="M9.31836 35.1045L14.2613 43.2628" stroke="#7FB800" stroke-width="2" stroke-miterlimit="10"/>
<path d="M10.3979 50.0059L17.6205 58.868" stroke="#7FB800" stroke-width="2" stroke-miterlimit="10"/>
<path d="M14.4775 66.5703L25.4753 74.5767" stroke="#7FB800" stroke-width="2" stroke-miterlimit="10"/>
<path d="M20.98 87.95L25.1151 95.3964" stroke="#7FB800" stroke-width="2" stroke-miterlimit="10"/>
<path d="M23.0518 99.6514L25.1153 110.217" stroke="#7FB800" stroke-width="2" stroke-miterlimit="10"/>
<path d="M19.6201 115.68L20.9798 128.43" stroke="#7FB800" stroke-width="2" stroke-miterlimit="10"/>
<path d="M16.5972 130.861V148.593" stroke="#7FB800" stroke-width="2" stroke-miterlimit="10"/>
<path d="M12.2144 151.073L16.5975 164.902" stroke="#7FB800" stroke-width="2" stroke-miterlimit="10"/>
<path d="M8.63867 164.582L12.2139 177.668" stroke="#7FB800" stroke-width="2" stroke-miterlimit="10"/>
<path d="M7.71094 183.698L16.5971 194.12" stroke="#7FB800" stroke-width="2" stroke-miterlimit="10"/>
<path d="M12.2144 202.071L20.3007 209.589" stroke="#7FB800" stroke-width="2" stroke-miterlimit="10"/>
<path d="M17.6211 215.971L25.8274 227.321" stroke="#7FB800" stroke-width="2" stroke-miterlimit="10"/>
<path d="M21.7241 232.64L25.8273 247.181" stroke="#7FB800" stroke-width="2" stroke-miterlimit="10"/>
<path d="M18.1807 250.061L24.0834 263.49" stroke="#7FB800" stroke-width="2" stroke-miterlimit="10"/>
<path d="M14.9175 260.298L16.5971 272" stroke="#7FB800" stroke-width="2" stroke-miterlimit="10"/>
</svg>
