<svg width="988" height="678" viewBox="0 0 988 678" fill="none" xmlns="http://www.w3.org/2000/svg">
<path d="M461.9 -81.45C461.9 -81.45 596.53 515.13 695.9 665.77C717.15 697.99 781.31 764.92 794.6 784.49C839.99 851.33 410.02 538.08 410.02 538.08L395.06 -93L461.9 -81.45Z" fill="#BEAF89"/>
<path d="M0 675.74C0 675.74 287.32 530.61 337.2 -17.3501H395.06L410.02 538.07C410.02 538.07 157.63 668.76 0 675.74Z" fill="#BEAF89"/>
<path d="M469.59 -43.9399H608.93C608.93 -43.9399 622.51 459.26 987.64 617.88C987.64 617.88 631.26 508.49 608.93 463.42C586.6 418.35 474.95 -21.0099 469.59 -43.9399Z" fill="#AC9E7A"/>
<path d="M369.12 -17.3501C369.12 -17.3501 427.22 401.08 78.4297 664.61C78.4297 664.61 256.39 622.87 410.02 538.07L395.06 -17.3501H369.12Z" fill="#897D5D"/>
<path d="M418.11 -89.02C418.11 -89.02 436.76 377.45 603.96 675.74C603.96 675.74 428.98 552.03 410.03 538.07L392.06 -93L418.11 -89.02Z" fill="#897D5D"/>
<path d="M570.593 308L578.037 359.733C628.869 593.528 687.126 632.648 687.126 632.648L699.791 635.213L706.705 626.453L746.227 653.491C772.971 642.397 697.542 587.538 695.508 586.07C698.219 587.256 700.632 587.884 702.769 588.036C702.769 588.036 703.309 588.058 704.271 588.077C708.019 588.149 718.12 588.131 726.864 586.217L726.873 586.217C758.219 586.372 785.494 642.382 785.494 642.382C790.329 624.42 766.385 586.499 765.855 585.669C780.041 592.84 800.122 601.347 826.308 600.944C878.579 600.142 815.598 584.178 815.598 584.178C781.672 596.81 718.409 543.175 718.409 543.175C718.409 543.175 643.001 483 764.783 547.079C764.783 547.079 927 609 802.001 538C745.962 494.197 721.471 552.284 726.873 472C726.873 472 727.393 445.187 706.705 466C689.154 483.672 670.178 422.633 663.001 432.132C666.251 466.504 653.646 436.26 643.001 439C636.239 440.755 606.272 418.168 607.123 403.563C607.974 388.958 588.746 342.03 588.746 342.03L570.593 308Z" fill="#006838"/>
<path d="M428.398 378.268C428.398 378.268 424.497 354.949 401.627 390.918C378.757 426.888 356.529 421.964 356.529 421.964C356.529 421.964 323.855 475.895 359.941 447.496C396.027 419.097 355.416 503.021 343.227 499.544C331.045 496.068 303.817 507.849 303.128 513.893C302.439 519.937 270.804 525.313 270.804 525.313C270.804 525.313 257.401 533.183 258.324 546.548C259.247 559.913 293.557 524.933 293.557 524.933C293.557 524.933 363.638 500.967 344.038 522.179C324.438 543.391 262.405 554.425 262.405 554.425C262.405 554.425 228.097 569.281 230.566 579.89C233.036 590.5 256.413 563.938 256.413 563.938C256.413 563.938 283.865 597.913 242.601 599.99C201.337 602.067 199.286 579.157 191.221 606.799C183.155 634.442 152.648 643.489 152.648 643.489C152.648 643.489 102.153 678.435 156.404 658.703C210.654 638.971 240.921 630.97 235.276 650.622C229.631 670.273 182.299 667.538 182.299 667.538C182.299 667.538 125.302 675.813 245.719 674.623C366.137 673.424 300.892 559.086 350.083 573.858C399.274 588.631 334.297 612.951 334.1 616.773C333.901 620.604 300.321 646.46 344.339 667.051C388.357 687.641 379.794 622.253 379.794 622.253C379.794 622.253 371.446 565.153 429.767 614.743C429.767 614.743 403.878 597.114 402.451 621.085C401.025 645.056 384.215 621.54 385.21 631.647C386.211 641.765 403.989 625.809 410.54 637.203C417.082 648.604 387.561 650.304 388.974 661.457C390.387 672.609 366.135 673.433 365.319 677.118C364.503 680.803 408.475 687.455 413.416 688.55C418.357 689.645 441.843 674.575 418.976 663.451C396.11 652.328 442.553 633.058 442.553 633.058C442.553 633.058 521.308 660.567 477.868 669.533C434.43 678.491 438.346 687.109 438.346 687.109C438.346 687.109 399.339 701.7 469.869 724.289C540.4 746.878 474.775 702.143 474.775 702.143C474.775 702.143 472.118 693.813 509.718 695.946C547.326 698.081 484.093 679.43 484.093 679.43C484.093 679.43 474.197 656.836 518.676 675.346C563.157 693.847 485.272 671.174 500.912 644.442C516.551 617.71 591.303 698.39 547.077 629.041C502.851 559.692 534.529 641.817 477.862 578.933C421.194 516.048 503.562 572.233 503.562 572.233C503.562 572.233 537.136 618.386 501.059 541.482C501.059 541.482 491.177 539.293 470.444 513.021C449.711 486.75 483.245 516.634 483.245 516.634C483.245 516.634 508.364 499.743 481.978 493.121C455.593 486.499 424.593 503.641 437.762 476.361C450.93 449.082 477.493 519.235 475.572 472.344C473.65 425.454 371.366 489.519 414.739 434.091C414.739 434.091 451.112 433.631 443.304 439.642C435.497 445.654 459.611 447.898 459.611 447.898C459.611 447.898 483.233 457.006 455.468 431.498C427.704 405.99 428.398 378.268 428.398 378.268Z" fill="#006838"/>
<path d="M90.7091 610.772C90.7091 610.772 121.416 573.971 125.77 606.968C130.124 639.965 129.087 566.473 129.087 566.473L149.163 538.238C149.163 538.238 156.348 528.386 167.727 536.224C179.106 544.062 169.715 507.26 169.715 507.26L90.7091 610.772Z" fill="#006838"/>
</svg>
