<svg width="988" height="678" viewBox="0 0 988 678" fill="none" xmlns="http://www.w3.org/2000/svg">
<path d="M525.74 -69.45C525.74 -69.45 391.11 527.13 291.74 677.77C270.49 709.99 206.33 776.92 193.04 796.49C147.65 863.33 577.62 550.08 577.62 550.08L592.58 -81L525.74 -69.45Z" fill="#BEAF89"/>
<path d="M987.64 687.74C987.64 687.74 700.32 542.61 650.44 -5.3501H592.58L577.62 550.07C577.62 550.07 830.01 680.76 987.64 687.74Z" fill="#BEAF89"/>
<path d="M518.05 -31.9399H378.71C378.71 -31.9399 365.13 471.26 6.10352e-05 629.88C6.10352e-05 629.88 356.38 520.49 378.71 475.42C401.04 430.35 512.69 -9.00994 518.05 -31.9399Z" fill="#AC9E7A"/>
<path d="M618.52 -5.3501C618.52 -5.3501 560.42 413.08 909.21 676.61C909.21 676.61 731.25 634.87 577.62 550.07L592.58 -5.3501H618.52Z" fill="#897D5D"/>
<path d="M569.53 -77.02C569.53 -77.02 550.88 389.45 383.68 687.74C383.68 687.74 558.66 564.03 577.61 550.07L595.58 -81L569.53 -77.02Z" fill="#897D5D"/>
<path d="M419.314 334L411.87 385.733C361.038 619.528 302.782 658.648 302.782 658.648L290.116 661.213L283.203 652.453L243.681 679.491C216.936 668.397 292.366 613.538 294.399 612.07C291.689 613.256 289.276 613.884 287.138 614.036C287.138 614.036 286.598 614.058 285.636 614.077C281.888 614.149 271.787 614.131 263.044 612.217L263.035 612.217C231.689 612.372 204.414 668.382 204.414 668.382C199.578 650.42 223.523 612.499 224.052 611.669C209.866 618.84 189.786 627.347 163.599 626.944C111.328 626.142 174.31 610.178 174.31 610.178C208.235 622.81 271.498 569.175 271.498 569.175C271.498 569.175 269.996 496.771 225.125 573.079C225.125 573.079 133.653 583.1 189.693 539.307C245.732 495.504 255.758 568.715 250.356 488.431C250.356 488.431 271.412 437.319 292.1 458.132C309.651 475.804 319.98 410.13 327.156 419.628C327.868 420.193 343.149 432.139 353.794 434.879C360.557 436.634 383.635 444.168 382.785 429.563C381.934 414.958 401.161 368.03 401.161 368.03L419.314 334Z" fill="#006838"/>
<path d="M561.301 389.268C561.301 389.268 565.202 365.949 588.072 401.918C610.941 437.888 633.169 432.964 633.169 432.964C633.169 432.964 665.844 486.895 629.758 458.496C593.672 430.097 634.283 514.021 646.472 510.544C658.653 507.068 685.882 518.849 686.571 524.893C687.26 530.937 718.895 536.313 718.895 536.313C718.895 536.313 732.298 544.183 731.375 557.548C730.452 570.913 696.142 535.933 696.142 535.933C696.142 535.933 626.06 511.967 645.66 533.179C665.261 554.391 727.294 565.425 727.294 565.425C727.294 565.425 761.602 580.281 759.132 590.89C756.663 601.5 733.285 574.938 733.285 574.938C733.285 574.938 705.834 608.913 747.098 610.99C788.362 613.067 790.412 590.157 798.478 617.799C806.544 645.442 837.05 654.489 837.05 654.489C837.05 654.489 887.546 689.435 833.295 669.703C779.044 649.971 748.777 641.97 754.423 661.622C760.068 681.273 807.4 678.538 807.4 678.538C807.4 678.538 864.396 686.813 743.98 685.623C623.561 684.424 688.807 570.086 639.616 584.858C590.425 599.631 655.402 623.951 655.599 627.773C655.798 631.604 689.378 657.46 645.36 678.051C601.342 698.641 609.904 633.253 609.904 633.253C609.904 633.253 618.253 576.153 559.932 625.743C559.932 625.743 585.821 608.114 587.247 632.085C588.674 656.056 605.483 632.54 604.488 642.647C603.488 652.765 585.71 636.809 579.159 648.203C572.617 659.604 602.138 661.304 600.725 672.457C599.312 683.609 623.563 684.433 624.38 688.118C625.196 691.803 581.224 698.455 576.282 699.55C571.341 700.645 547.856 685.575 570.722 674.451C593.588 663.328 547.146 644.058 547.146 644.058C547.146 644.058 468.39 671.567 511.831 680.533C555.269 689.491 551.352 698.109 551.352 698.109C551.352 698.109 590.36 712.7 519.829 735.289C449.299 757.878 514.923 713.143 514.923 713.143C514.923 713.143 517.581 704.813 479.981 706.946C442.373 709.081 505.606 690.43 505.606 690.43C505.606 690.43 515.501 667.836 471.022 686.346C426.541 704.847 504.426 682.174 488.787 655.442C473.148 628.71 398.395 709.39 442.621 640.041C486.848 570.692 455.169 652.817 511.837 589.933C568.505 527.048 486.137 583.233 486.137 583.233C486.137 583.233 452.562 629.386 488.639 552.482C488.639 552.482 498.522 550.293 519.254 524.021C539.987 497.75 506.453 527.634 506.453 527.634C506.453 527.634 481.335 510.743 507.72 504.121C534.106 497.499 565.106 514.641 551.937 487.361C538.768 460.082 512.206 530.235 514.127 483.344C516.049 436.454 618.333 500.519 574.959 445.091C574.959 445.091 538.587 444.631 546.395 450.642C554.202 456.654 530.088 458.898 530.088 458.898C530.088 458.898 506.466 468.006 534.231 442.498C561.995 416.99 561.301 389.268 561.301 389.268Z" fill="#006838"/>
<path d="M922.393 638.111C922.393 638.111 888.433 604.288 887.131 637.545C885.828 670.803 880.106 597.526 880.106 597.526L857.52 571.257C857.52 571.257 849.46 562.107 838.849 570.957C828.239 579.808 834.207 542.298 834.207 542.298L922.393 638.111Z" fill="#006838"/>
<path d="M107.813 570.845C107.813 570.845 86.7323 565.852 82.9378 569.655C82.9378 569.655 68.0829 577.734 67.1173 581.43C66.1457 585.125 60.5807 586.34 72.1717 592.757C83.7628 599.173 97.541 594.2 97.541 594.2C97.541 594.2 105.311 592.391 105.792 601.34C106.273 610.29 106.806 616.416 106.806 616.416C106.806 616.416 107.892 626.935 114.167 619.213C114.167 619.213 115.998 611.549 117.52 612.306C119.043 613.064 116.85 622.924 116.85 622.924C116.85 622.924 121.84 626.254 122.961 623.387C124.082 620.519 127.934 607.532 131.74 605.027C135.548 602.516 149.053 611.777 149.053 611.777C149.053 611.777 152.826 617.814 151.751 627.611C150.677 637.408 156.1 631.04 156.1 631.04L159.409 621.026C159.409 621.026 163.536 611.495 168.693 620.73L167.031 630.697C167.031 630.697 164.761 639.132 172.141 632.722L177.023 620.103C177.023 620.103 180.167 611.7 183.453 614.195C186.739 616.69 221.873 633.905 221.873 633.905C221.873 633.905 227.176 634.328 223.702 629.039C223.702 629.039 200.179 606.002 197.216 600.667C194.253 595.331 189.518 591.476 189.518 591.476L184.157 599.408L181.679 594.725C181.679 594.725 189.12 580.435 187.7 570.965C186.281 561.489 172.046 591.52 172.046 591.52L168.525 588.254L186.975 559.059C186.975 559.059 188.214 549.381 185.193 546.965C182.167 544.548 159.417 585.517 159.417 585.517L156.031 582.31L179.741 543.254C179.741 543.254 180.586 535.122 172.974 535.682L148.961 579.126C148.961 579.126 145.921 582.484 148.803 572.434C151.686 562.384 167.806 534.769 167.806 534.769C167.806 534.769 162.378 528.064 158.059 535.693C153.746 543.325 138.462 578.703 138.462 578.703L136.765 575.796L150.599 541.467C150.599 541.467 153.645 529.34 143.297 538.25L128.919 573.175L125.298 571.626L134.854 551.13C134.854 551.13 137.977 541.464 132.945 547.153C127.912 552.842 122.045 571.692 122.045 571.692L118.346 570.771L119.799 563.576C119.797 563.582 108.343 567.953 107.813 570.845Z" fill="#043A2E"/>
</svg>
