<svg width="1225" height="664" viewBox="0 0 1225 664" fill="none" xmlns="http://www.w3.org/2000/svg">
<path d="M545.439 470.225C531.041 429.856 500.705 397.412 500.705 397.412C475.465 390.203 414.901 348.382 414.901 348.382C387.503 365.683 401.923 418.311 401.923 418.311C339.906 370.723 395.428 335.406 395.428 335.406L386.05 326.756C326.917 351.265 350 397.412 350 397.412C289.425 364.252 360.094 315.222 360.094 315.222L347.116 283.504C347.116 283.504 259.143 175.363 155.308 186.896C51.4738 198.43 29.8439 179.688 29.8439 179.688L12.5398 140.761C-45.151 55.6876 114.932 41.2702 114.932 41.2702C136.552 3.76338 194.242 9.53033 194.242 9.53033C247.607 -17.8627 285.099 22.506 285.099 22.506C375.956 117.671 427.879 91.7201 427.879 91.7201C574.984 70.0941 726.405 165.26 726.405 165.26C726.405 165.26 847.554 225.823 1011.95 234.474C1176.35 243.124 1225 331.818 1225 331.818C1225 331.818 1121.57 264.75 989.607 313.78C857.648 362.81 658.631 418.322 658.631 418.322C655.769 501.954 661.927 644.631 661.927 644.631C661.927 644.631 664.421 685 644.233 685C624.045 685 626.929 638.854 626.929 638.854L612.509 444.263C612.509 444.263 586.553 418.311 583.669 450.03C580.785 481.748 592.321 644.621 592.321 644.621C592.321 644.621 592.321 684.989 569.249 684.989C546.155 685 545.439 470.225 545.439 470.225Z" fill="#043A2E"/>
<path d="M814.841 140.8C817.026 132.011 819.145 123.209 821.439 114.443C822.041 112.151 823.052 109.921 824.111 107.791C825.749 104.492 828.976 103.122 832.232 103.123C839.028 103.127 845.848 103.625 852.623 104.239C855.25 104.477 858.011 105.175 860.322 106.407C861.473 107.017 862.476 109.418 862.264 110.798C861.3 117 860.079 123.173 858.546 129.259C857.264 134.338 852.085 136.234 846.515 134.066C845.934 133.845 845.397 133.463 844.804 133.354C841.371 132.713 837.306 130.646 834.714 133.762C831.657 137.433 829.904 142.359 831.854 147.161C833.381 150.909 837.244 152.514 840.992 153.845C843.711 154.807 846.706 155.53 848.937 157.213C851.823 159.371 851.116 163.018 850.614 166.103C850.181 168.793 847.882 169.351 845.472 169.111C842.468 168.82 839.486 168.316 836.476 168.114C833.061 167.887 832.086 169.043 832.39 172.475C832.889 178.086 835.36 182.061 841.074 183.746C844.886 184.874 848.645 186.264 852.332 187.787C857.727 190.033 862.243 193.467 865.588 198.348C867.995 201.854 867.619 208.244 861.871 209.694C857.529 210.781 853.015 212.095 848.633 211.922C837.861 211.486 827.736 208.312 818.38 202.813C815.655 201.212 812.17 200.378 811.134 197.014C810.168 193.869 809.297 190.482 809.419 187.251C809.77 178.408 810.367 169.536 811.457 160.752C812.321 154.097 814.076 147.532 815.418 140.929C815.224 140.878 815.038 140.84 814.841 140.8Z" fill="#FF4700"/>
<path d="M948.009 158.942C946.74 165.73 945.785 172.6 944.123 179.303C941.419 190.249 938.313 201.098 935.24 211.952C934.032 216.232 932.511 220.42 930.991 224.607C930.684 225.458 929.864 226.383 929.048 226.741C925.928 228.133 918.476 225.798 917.103 222.761C915.947 220.206 915.101 217.381 914.793 214.6C913.815 205.803 913.128 196.969 912.372 188.145C912.198 186.161 912.352 184.124 911.999 182.185C911.827 181.222 910.95 179.844 910.173 179.687C909.179 179.479 907.579 179.963 906.913 180.735C903.462 184.687 901.061 189.334 899.489 194.283C898.062 198.761 897.375 203.467 896.194 208.025C895.462 210.85 894.446 213.611 893.518 216.389C892.299 219.997 889.428 222.423 886.032 222.741C881.803 223.142 877.872 221.829 874.713 218.083C869.604 212.021 870.642 205.314 871.572 198.519C873.624 183.592 875.545 168.641 878.036 153.796C879.369 145.873 881.599 138.073 883.797 130.324C884.792 126.821 887.747 124.854 891.052 123.145C895.249 120.967 899.366 120.318 903.912 121.315C908.601 122.339 912.689 126.338 913.74 131.097C915.376 138.496 917.049 145.88 918.722 153.263C919.317 155.906 922.061 158.711 924.198 158.452C928.03 157.988 930.746 156.941 931.816 152.794C932.619 149.71 933.302 146.603 934.007 143.5C935.333 137.744 938.042 132.598 941.5 127.944C942.729 126.29 945.051 125.157 947.106 124.486C948.858 123.917 950.461 125.238 950.693 127.154C951.197 131.38 952.083 135.688 951.669 139.844C951.033 146.285 949.428 152.624 948.237 158.996C948.184 158.975 948.097 158.958 948.009 158.942Z" fill="#FF4700"/>
<path d="M951 195.264C951.379 189.811 951.813 181.494 952.548 173.188C953.807 158.929 954.943 144.682 954.531 130.346C954.386 125.338 956.102 123.839 961.07 122.684C970.649 120.452 978.347 123.894 985.387 129.946C989.263 133.278 993.34 136.376 997.239 139.674C998.909 141.084 1000.35 142.761 1001.89 144.316C1009.6 152.078 1014.95 161.106 1018.35 171.589C1021.18 180.339 1021.42 189.112 1020.56 197.973C1020.22 201.594 1018.56 205.169 1017.03 208.556C1015.31 212.365 1013.54 216.329 1010.91 219.494C1008.22 222.715 1004.65 225.313 1001.14 227.723C994.209 232.487 986.233 234.341 977.979 235.418C970.449 236.396 962.997 236.118 955.589 234.763C954.609 234.585 953.373 232.886 953.206 231.754C952.615 227.556 952.326 223.303 952.092 219.072C951.679 212.121 951.434 205.147 951 195.264ZM975.183 164.215C975.016 164.56 974.726 164.915 974.682 165.292C974.091 170.5 973.501 175.709 972.989 180.928C972.933 181.539 973.245 182.26 973.557 182.827C974.938 185.325 978.191 186.447 981.053 185.47C984.863 184.17 985.899 182.66 985.498 178.996C985.42 178.318 985.375 177.641 985.342 176.963C985.041 171.167 980.987 166.014 975.183 164.215Z" fill="#FF4700"/>
<path d="M644.89 107.152C646.069 100.541 647.239 93.9282 648.447 87.3159C648.723 85.7773 649.168 84.2643 649.489 82.7379C650.161 79.4693 649.309 78.046 646.128 77.2619C641.944 76.2378 637.713 75.4246 633.565 74.2645C630.717 73.4723 628.009 72.2318 625.219 71.2221C622.767 70.3318 622.417 68.5187 623.1 66.3314C623.798 64.0898 624.51 61.8325 625.479 59.7024C625.815 58.9569 626.919 58.1356 627.707 58.0942C630.336 57.9632 633.063 57.7905 635.61 58.3273C646.411 60.5803 657.136 63.1916 667.942 65.4265C672.056 66.2764 676.352 66.2713 680.481 67.0668C685.041 67.9584 689.558 69.2271 694.041 70.5157C696.034 71.0886 696.37 73.1701 696.107 74.7317C695.605 77.8028 694.786 80.8573 693.695 83.7706C692.704 86.4193 689.463 87.7077 686.371 86.9569C682.341 85.9741 678.36 84.7713 674.325 83.768C669.551 82.586 665.093 85.0148 663.83 89.6892C661.568 98.0592 659.63 106.526 657.322 114.884C656.188 119.009 654.634 123.032 653.051 127.019C652.245 129.047 648.273 129.44 645.628 128.002C642.161 126.112 640.741 122.603 641.644 117.998C642.003 116.151 642.444 114.326 642.895 112.494C643.345 110.672 643.858 108.867 644.346 107.045C644.53 107.084 644.704 107.121 644.89 107.152Z" fill="#FF4700"/>
<path d="M740.855 104.565C736.898 110.837 732.875 117.074 728.995 123.396C724.068 131.404 719.283 139.495 714.371 147.512C712.733 150.173 710.919 152.735 709.106 155.296C707.653 157.332 705.399 156.931 703.497 156.565C700.678 156.02 697.857 154.876 697.168 151.673C696.846 150.171 697.124 148.317 697.723 146.863C699.868 141.621 702.262 136.495 704.571 131.316C704.893 130.585 705.211 129.842 705.582 129.136C706.737 126.938 706.921 124.604 705.171 122.834C703.352 120.998 700.857 121.37 698.576 122.128C695.107 123.277 694.04 126.632 692.213 129.279C689.045 133.885 686.024 138.608 682.648 143.057C680.886 145.377 679.645 145.288 677.015 143.83C676.061 143.301 675.09 142.784 674.14 142.247C671.176 140.557 670.326 138.455 671.682 135.3C674.624 128.478 677.472 121.599 680.781 114.965C686.281 103.946 692.066 93.0728 697.843 82.1954C698.993 80.0256 699.83 77.6031 702.464 76.3563C704.831 75.23 706.376 76.5347 708.155 77.403C708.796 77.7201 709.311 78.2821 709.918 78.685C712.297 80.2512 712.73 81.2959 711.523 83.8996C709.747 87.7357 707.75 91.4797 705.909 95.2825C703.88 99.4729 703.541 103.961 704.255 108.463C704.433 109.604 705.569 110.884 706.616 111.533C707.933 112.34 709.589 112.682 711.143 113.024C716.411 114.194 717.419 113.711 720.31 109.365C723.206 105.01 725.889 100.444 729.244 96.4788C731.684 93.5993 733.692 89.9127 738.096 89.1285C741.695 88.4886 745.484 91.9688 744.567 95.4315C744.147 97.0383 743.441 98.5809 742.755 100.103C742.099 101.569 741.312 102.967 740.582 104.395C740.668 104.449 740.761 104.507 740.855 104.565Z" fill="#FF4700"/>
<path d="M760.112 150.283C763.65 152.572 767.217 154.818 770.703 157.173C772.378 158.304 772.782 159.749 771.91 161.816C770.681 164.691 769.787 167.736 768.928 170.753C767.441 175.989 762.18 179.342 756.858 178.55C748.43 177.302 740.486 174.56 732.951 170.744C729.26 168.876 725.883 166.325 722.545 163.836C721.717 163.224 721.142 161.615 721.251 160.542C721.449 158.543 721.971 156.487 722.817 154.653C728.608 142.109 734.337 129.527 740.458 117.14C743.306 111.363 746.851 105.918 750.361 100.501C751.145 99.283 752.994 98.4924 754.506 98.063C759.834 96.5603 764.906 98.0416 769.949 99.765C771.704 100.365 773.646 100.415 775.367 101.067C777.375 101.823 779.253 102.921 781.138 103.978C781.502 104.184 781.849 104.904 781.768 105.312C781.158 108.495 781.535 112.103 778.444 114.32C777.779 114.791 776.698 115.078 775.913 114.919C771.785 114.089 767.681 113.104 763.582 112.131C762.346 111.839 761.171 111.208 759.923 111.043C754.998 110.382 753.542 112.29 753.686 117.128C753.77 119.919 755.155 122.431 758.023 123.901C761.208 125.534 762.154 131.016 759.45 133.259C758.242 134.256 755.736 134.3 754.015 133.926C751.82 133.442 750.085 133.373 748.537 135.163C746.907 137.039 747.311 139.083 747.931 141.167C749.146 145.191 751.598 147.976 755.756 149.164C757.134 149.563 758.414 150.308 759.741 150.895C759.863 150.694 759.986 150.493 760.112 150.283Z" fill="#FF4700"/>
</svg>
