<svg width="187" height="319" viewBox="0 0 187 319" fill="none" xmlns="http://www.w3.org/2000/svg">
<path fill-rule="evenodd" clip-rule="evenodd" d="M49.2076 226.889C69.9044 212.281 79.1292 226.519 79.1292 226.519C80.2534 260.144 93.185 267.744 97.7822 267.057C102.379 266.371 99.7788 256.439 99.7788 256.439C99.7788 256.439 92.6568 244.711 89.5041 228.963C86.3513 213.216 96.6334 223.588 96.6334 223.588L97.794 228.959L102.577 237.458C102.577 237.458 109.403 262.768 115.507 258.808C121.611 254.849 117.083 248.854 117.083 248.854C117.083 248.854 111.163 231.72 106.358 217.818C101.557 203.925 104.083 188.161 117.979 184.899C131.875 181.637 138.471 197.047 138.471 197.047L148.069 218.944C148.069 218.944 156.707 241.821 162.178 241.917C167.638 242.017 163.224 227.513 163.224 227.513L147.567 186.149C146.815 172.141 154.876 181.449 154.876 181.449L166.877 212.042C166.877 212.042 171.285 240.311 181.085 235.621C190.894 230.925 183.57 217.205 183.57 217.205L139.431 121.567C139.431 121.567 112.067 62.7342 108.121 43.0313C104.174 23.3283 121.6 15.4002 121.6 15.4002C121.6 15.4002 140.028 23.7241 142.648 12.9148C145.272 2.11516 129.359 4.16755 129.359 4.16755C117.192 -7.81088 113.547 9.97112 113.547 9.97112C96.2122 17.6659 102.552 42.8046 102.552 42.8046C102.552 42.8046 106.316 70.3723 115.308 111.058C124.3 151.744 114.2 152.268 114.2 152.268C114.2 152.268 98.7687 161.085 73.5397 171.183C51.4004 180.054 40.7267 198.544 19.7978 234.8C16.8814 239.852 13.7657 245.249 10.3922 251.014C-17.1901 298.143 20.5655 318.019 20.5655 318.019C20.5655 318.019 34.7412 315.442 27.8518 316.012C20.9624 316.583 13.0249 305.589 11.5741 287.675C10.1232 269.761 28.5205 241.492 49.2076 226.889ZM81.0825 200.522C81.0585 200.474 81.0705 200.426 81.1185 200.378L81.6585 199.838C83.3625 198.11 84.6465 196.79 85.5105 195.878C86.3745 194.966 87.1785 194.042 87.9225 193.106C88.9305 191.882 89.6865 190.742 90.1905 189.686C90.6945 188.63 90.9465 187.598 90.9465 186.59C90.9465 185.27 90.5985 184.07 89.9025 182.99C89.2305 181.91 88.2585 181.058 86.9865 180.434C85.7385 179.786 84.2625 179.462 82.5585 179.462C81.0225 179.462 79.6305 179.726 78.3825 180.254C77.1585 180.782 76.1745 181.55 75.4305 182.558C74.6865 183.542 74.2785 184.682 74.2065 185.978V187.67C74.2065 187.79 74.2425 187.898 74.3145 187.994C74.4105 188.066 74.5185 188.102 74.6385 188.102H78.8865C79.0065 188.102 79.1025 188.066 79.1745 187.994C79.2705 187.898 79.3185 187.79 79.3185 187.67V186.77C79.3185 185.882 79.6185 185.174 80.2185 184.646C80.8185 184.094 81.5985 183.818 82.5585 183.818C83.5185 183.818 84.2985 184.094 84.8985 184.646C85.4985 185.174 85.7985 185.858 85.7985 186.698C85.7985 187.874 84.7065 189.674 82.5225 192.098C81.8265 192.818 81.1425 193.574 80.4705 194.366C80.1585 194.702 79.3905 195.554 78.1665 196.922C76.9425 198.266 75.7425 199.514 74.5665 200.666C74.4225 200.81 74.3505 200.99 74.3505 201.206V204.518C74.3505 204.638 74.3865 204.746 74.4585 204.842C74.5545 204.914 74.6625 204.95 74.7825 204.95H90.9825C91.1025 204.95 91.1985 204.914 91.2705 204.842C91.3665 204.746 91.4145 204.638 91.4145 204.518V201.026C91.4145 200.906 91.3665 200.81 91.2705 200.738C91.1985 200.642 91.1025 200.594 90.9825 200.594H81.2265C81.1545 200.594 81.1065 200.57 81.0825 200.522Z" fill="#043A2E"/>
</svg>
