<svg width="76" height="77" viewBox="0 0 76 77" fill="none" xmlns="http://www.w3.org/2000/svg">
<g filter="url(#filter0_d)">
<ellipse cx="38.0002" cy="38.5" rx="31" ry="31.5" fill="#FFD1DF" fill-opacity="0.3"/>
<path d="M66.5002 38.5C66.5002 54.5541 53.7027 67.5 38.0002 67.5C22.2976 67.5 9.50018 54.5541 9.50018 38.5C9.50018 22.4459 22.2976 9.5 38.0002 9.5C53.7027 9.5 66.5002 22.4459 66.5002 38.5Z" stroke="white" stroke-width="5"/>
</g>
<g filter="url(#filter1_d)">
<path d="M36.2282 37.208H36.8522C37.2682 37.208 37.7002 37.176 38.1482 37.112C38.6122 37.048 39.0282 36.912 39.3962 36.704C39.7802 36.496 40.0922 36.2 40.3322 35.816C40.5882 35.416 40.7162 34.896 40.7162 34.256C40.7162 33.392 40.4442 32.712 39.9002 32.216C39.3722 31.704 38.6762 31.448 37.8122 31.448C37.0922 31.448 36.4682 31.608 35.9402 31.928C35.4122 32.248 34.9962 32.72 34.6922 33.344L32.7482 32.6C33.1642 31.64 33.8122 30.92 34.6922 30.44C35.5882 29.96 36.5802 29.72 37.6682 29.72C38.3402 29.72 38.9802 29.816 39.5882 30.008C40.2122 30.2 40.7562 30.48 41.2202 30.848C41.6842 31.216 42.0522 31.68 42.3242 32.24C42.5962 32.784 42.7322 33.424 42.7322 34.16C42.7322 35.056 42.4602 35.864 41.9162 36.584C41.3882 37.288 40.6922 37.776 39.8282 38.048V38.096C40.3722 38.192 40.8522 38.368 41.2682 38.624C41.7002 38.88 42.0682 39.2 42.3722 39.584C42.6762 39.952 42.9082 40.376 43.0682 40.856C43.2282 41.336 43.3082 41.84 43.3082 42.368C43.3082 43.184 43.1562 43.896 42.8522 44.504C42.5482 45.112 42.1402 45.624 41.6282 46.04C41.1162 46.456 40.5162 46.768 39.8282 46.976C39.1562 47.184 38.4442 47.288 37.6922 47.288C36.3962 47.288 35.2682 47.008 34.3082 46.448C33.3482 45.888 32.6522 44.976 32.2202 43.712L34.2602 43.04C34.5482 43.952 34.9562 44.6 35.4842 44.984C36.0122 45.368 36.7482 45.56 37.6922 45.56C38.1722 45.56 38.6202 45.48 39.0362 45.32C39.4522 45.16 39.8122 44.936 40.1162 44.648C40.4362 44.344 40.6842 43.992 40.8602 43.592C41.0522 43.176 41.1482 42.72 41.1482 42.224C41.1482 41.6 41.0202 41.08 40.7642 40.664C40.5242 40.232 40.1962 39.896 39.7802 39.656C39.3802 39.4 38.9242 39.216 38.4122 39.104C37.9002 38.992 37.3802 38.936 36.8522 38.936H36.2282V37.208Z" fill="white"/>
</g>
<defs>
<filter id="filter0_d" x="0.233089" y="0.232906" width="75.5342" height="76.5342" filterUnits="userSpaceOnUse" color-interpolation-filters="sRGB">
<feFlood flood-opacity="0" result="BackgroundImageFix"/>
<feColorMatrix in="SourceAlpha" type="matrix" values="0 0 0 0 0 0 0 0 0 0 0 0 0 0 0 0 0 0 127 0"/>
<feOffset/>
<feGaussianBlur stdDeviation="3.38355"/>
<feColorMatrix type="matrix" values="0 0 0 0 0 0 0 0 0 0 0 0 0 0 0 0 0 0 0.25 0"/>
<feBlend mode="normal" in2="BackgroundImageFix" result="effect1_dropShadow"/>
<feBlend mode="normal" in="SourceGraphic" in2="effect1_dropShadow" result="shape"/>
</filter>
<filter id="filter1_d" x="28.2202" y="29.72" width="19.088" height="25.568" filterUnits="userSpaceOnUse" color-interpolation-filters="sRGB">
<feFlood flood-opacity="0" result="BackgroundImageFix"/>
<feColorMatrix in="SourceAlpha" type="matrix" values="0 0 0 0 0 0 0 0 0 0 0 0 0 0 0 0 0 0 127 0"/>
<feOffset dy="4"/>
<feGaussianBlur stdDeviation="2"/>
<feColorMatrix type="matrix" values="0 0 0 0 0 0 0 0 0 0 0 0 0 0 0 0 0 0 0.25 0"/>
<feBlend mode="normal" in2="BackgroundImageFix" result="effect1_dropShadow"/>
<feBlend mode="normal" in="SourceGraphic" in2="effect1_dropShadow" result="shape"/>
</filter>
</defs>
</svg>
