<svg width="76" height="77" viewBox="0 0 76 77" fill="none" xmlns="http://www.w3.org/2000/svg">
<g filter="url(#filter0_d)">
<ellipse cx="38.0002" cy="38.5" rx="31" ry="31.5" fill="#FFD1DF" fill-opacity="0.3"/>
<path d="M66.5002 38.5C66.5002 54.5541 53.7028 67.5 38.0002 67.5C22.2977 67.5 9.50024 54.5541 9.50024 38.5C9.50024 22.4459 22.2977 9.5 38.0002 9.5C53.7028 9.5 66.5002 22.4459 66.5002 38.5Z" stroke="white" stroke-width="5"/>
</g>
<g filter="url(#filter1_d)">
<path d="M36.2283 37.088L36.2763 37.136C36.5963 36.96 36.9643 36.832 37.3803 36.752C37.8123 36.672 38.2043 36.632 38.5563 36.632C39.2923 36.632 39.9723 36.76 40.5963 37.016C41.2363 37.272 41.7803 37.64 42.2283 38.12C42.6923 38.584 43.0523 39.144 43.3083 39.8C43.5643 40.456 43.6923 41.176 43.6923 41.96C43.6923 42.792 43.5483 43.536 43.2603 44.192C42.9723 44.848 42.5723 45.408 42.0603 45.872C41.5483 46.32 40.9403 46.672 40.2363 46.928C39.5483 47.168 38.8043 47.288 38.0043 47.288C37.2043 47.288 36.4523 47.168 35.7483 46.928C35.0603 46.672 34.4603 46.32 33.9483 45.872C33.4363 45.408 33.0363 44.848 32.7483 44.192C32.4603 43.536 32.3163 42.792 32.3163 41.96C32.3163 40.984 32.4683 40.128 32.7723 39.392C33.0763 38.656 33.4603 37.92 33.9243 37.184L38.4363 30.008H40.7883L36.2283 37.088ZM38.0043 38.36C37.4923 38.36 37.0123 38.448 36.5643 38.624C36.1163 38.784 35.7243 39.024 35.3883 39.344C35.0683 39.648 34.8123 40.024 34.6203 40.472C34.4283 40.92 34.3323 41.416 34.3323 41.96C34.3323 42.52 34.4283 43.024 34.6203 43.472C34.8123 43.904 35.0683 44.28 35.3883 44.6C35.7243 44.904 36.1163 45.144 36.5643 45.32C37.0123 45.48 37.4923 45.56 38.0043 45.56C38.5163 45.56 38.9963 45.48 39.4443 45.32C39.8923 45.144 40.2763 44.904 40.5963 44.6C40.9323 44.28 41.1963 43.904 41.3883 43.472C41.5803 43.024 41.6763 42.52 41.6763 41.96C41.6763 41.416 41.5803 40.92 41.3883 40.472C41.1963 40.024 40.9323 39.648 40.5963 39.344C40.2763 39.024 39.8923 38.784 39.4443 38.624C38.9963 38.448 38.5163 38.36 38.0043 38.36Z" fill="white"/>
</g>
<defs>
<filter id="filter0_d" x="0.23315" y="0.232906" width="75.5342" height="76.5342" filterUnits="userSpaceOnUse" color-interpolation-filters="sRGB">
<feFlood flood-opacity="0" result="BackgroundImageFix"/>
<feColorMatrix in="SourceAlpha" type="matrix" values="0 0 0 0 0 0 0 0 0 0 0 0 0 0 0 0 0 0 127 0"/>
<feOffset/>
<feGaussianBlur stdDeviation="3.38355"/>
<feColorMatrix type="matrix" values="0 0 0 0 0 0 0 0 0 0 0 0 0 0 0 0 0 0 0.25 0"/>
<feBlend mode="normal" in2="BackgroundImageFix" result="effect1_dropShadow"/>
<feBlend mode="normal" in="SourceGraphic" in2="effect1_dropShadow" result="shape"/>
</filter>
<filter id="filter1_d" x="28.3162" y="30.0081" width="19.376" height="25.28" filterUnits="userSpaceOnUse" color-interpolation-filters="sRGB">
<feFlood flood-opacity="0" result="BackgroundImageFix"/>
<feColorMatrix in="SourceAlpha" type="matrix" values="0 0 0 0 0 0 0 0 0 0 0 0 0 0 0 0 0 0 127 0"/>
<feOffset dy="4"/>
<feGaussianBlur stdDeviation="2"/>
<feColorMatrix type="matrix" values="0 0 0 0 0 0 0 0 0 0 0 0 0 0 0 0 0 0 0.25 0"/>
<feBlend mode="normal" in2="BackgroundImageFix" result="effect1_dropShadow"/>
<feBlend mode="normal" in="SourceGraphic" in2="effect1_dropShadow" result="shape"/>
</filter>
</defs>
</svg>
