<svg width="76" height="77" viewBox="0 0 76 77" fill="none" xmlns="http://www.w3.org/2000/svg">
<g filter="url(#filter0_d)">
<ellipse cx="38.0005" cy="38.5" rx="31" ry="31.5" fill="#FFD1DF" fill-opacity="0.3"/>
<path d="M66.5005 38.5C66.5005 54.5541 53.703 67.5 38.0005 67.5C22.2979 67.5 9.50049 54.5541 9.50049 38.5C9.50049 22.4459 22.2979 9.5 38.0005 9.5C53.703 9.5 66.5005 22.4459 66.5005 38.5Z" stroke="white" stroke-width="5"/>
</g>
<g filter="url(#filter1_d)">
<path d="M33.3046 47H31.2886V32.6H31.2406L28.1926 35.168L26.9926 33.704L31.5526 30.008H33.3046V47ZM39.2005 44.696L45.6085 38.456C46.0085 38.072 46.3605 37.72 46.6645 37.4C46.9685 37.064 47.2165 36.744 47.4085 36.44C47.6165 36.12 47.7685 35.792 47.8645 35.456C47.9605 35.12 48.0085 34.744 48.0085 34.328C48.0085 33.88 47.9285 33.48 47.7685 33.128C47.6085 32.776 47.3845 32.48 47.0965 32.24C46.8245 31.984 46.4965 31.792 46.1125 31.664C45.7445 31.52 45.3445 31.448 44.9125 31.448C44.0485 31.448 43.3365 31.696 42.7765 32.192C42.2165 32.688 41.8565 33.344 41.6965 34.16L39.5125 33.968C39.6245 33.28 39.8325 32.672 40.1365 32.144C40.4565 31.6 40.8485 31.152 41.3125 30.8C41.7925 30.448 42.3285 30.184 42.9205 30.008C43.5125 29.816 44.1525 29.72 44.8405 29.72C45.5445 29.72 46.2085 29.824 46.8325 30.032C47.4565 30.224 48.0005 30.512 48.4645 30.896C48.9445 31.28 49.3205 31.76 49.5925 32.336C49.8805 32.912 50.0245 33.576 50.0245 34.328C50.0245 35 49.9285 35.608 49.7365 36.152C49.5605 36.696 49.3125 37.2 48.9925 37.664C48.6885 38.112 48.3365 38.544 47.9365 38.96C47.5525 39.36 47.1445 39.76 46.7125 40.16L41.4805 45.08V45.128H50.1445V47H39.2005V44.696Z" fill="white"/>
</g>
<defs>
<filter id="filter0_d" x="0.233394" y="0.232906" width="75.5342" height="76.5342" filterUnits="userSpaceOnUse" color-interpolation-filters="sRGB">
<feFlood flood-opacity="0" result="BackgroundImageFix"/>
<feColorMatrix in="SourceAlpha" type="matrix" values="0 0 0 0 0 0 0 0 0 0 0 0 0 0 0 0 0 0 127 0"/>
<feOffset/>
<feGaussianBlur stdDeviation="3.38355"/>
<feColorMatrix type="matrix" values="0 0 0 0 0 0 0 0 0 0 0 0 0 0 0 0 0 0 0.25 0"/>
<feBlend mode="normal" in2="BackgroundImageFix" result="effect1_dropShadow"/>
<feBlend mode="normal" in="SourceGraphic" in2="effect1_dropShadow" result="shape"/>
</filter>
<filter id="filter1_d" x="22.9927" y="29.72" width="31.1519" height="25.28" filterUnits="userSpaceOnUse" color-interpolation-filters="sRGB">
<feFlood flood-opacity="0" result="BackgroundImageFix"/>
<feColorMatrix in="SourceAlpha" type="matrix" values="0 0 0 0 0 0 0 0 0 0 0 0 0 0 0 0 0 0 127 0"/>
<feOffset dy="4"/>
<feGaussianBlur stdDeviation="2"/>
<feColorMatrix type="matrix" values="0 0 0 0 0 0 0 0 0 0 0 0 0 0 0 0 0 0 0.25 0"/>
<feBlend mode="normal" in2="BackgroundImageFix" result="effect1_dropShadow"/>
<feBlend mode="normal" in="SourceGraphic" in2="effect1_dropShadow" result="shape"/>
</filter>
</defs>
</svg>
