<svg width="76" height="77" viewBox="0 0 76 77" fill="none" xmlns="http://www.w3.org/2000/svg">
<g filter="url(#filter0_d)">
<ellipse cx="38" cy="38.5" rx="31" ry="31.5" fill="#FFD1DF" fill-opacity="0.3"/>
<path d="M66.5 38.5C66.5 54.5541 53.7026 67.5 38 67.5C22.2974 67.5 9.5 54.5541 9.5 38.5C9.5 22.4459 22.2974 9.5 38 9.5C53.7026 9.5 66.5 22.4459 66.5 38.5Z" stroke="white" stroke-width="5"/>
</g>
<g filter="url(#filter1_d)">
<path d="M33.156 34.16C33.156 33.488 33.276 32.88 33.516 32.336C33.772 31.792 34.116 31.328 34.548 30.944C34.98 30.56 35.492 30.264 36.084 30.056C36.676 29.832 37.316 29.72 38.004 29.72C38.692 29.72 39.332 29.832 39.924 30.056C40.516 30.264 41.028 30.56 41.46 30.944C41.892 31.328 42.228 31.792 42.468 32.336C42.724 32.88 42.852 33.488 42.852 34.16C42.852 34.56 42.788 34.96 42.66 35.36C42.532 35.76 42.348 36.128 42.108 36.464C41.868 36.8 41.572 37.096 41.22 37.352C40.884 37.608 40.5 37.792 40.068 37.904V37.952C40.58 38.064 41.044 38.256 41.46 38.528C41.876 38.784 42.228 39.104 42.516 39.488C42.804 39.872 43.028 40.312 43.188 40.808C43.348 41.288 43.428 41.792 43.428 42.32C43.428 43.088 43.284 43.784 42.996 44.408C42.724 45.016 42.34 45.536 41.844 45.968C41.364 46.4 40.788 46.728 40.116 46.952C39.46 47.176 38.756 47.288 38.004 47.288C37.252 47.288 36.54 47.176 35.868 46.952C35.212 46.728 34.636 46.4 34.14 45.968C33.66 45.536 33.276 45.016 32.988 44.408C32.716 43.784 32.58 43.088 32.58 42.32C32.58 41.792 32.66 41.288 32.82 40.808C32.98 40.312 33.204 39.872 33.492 39.488C33.78 39.104 34.132 38.784 34.548 38.528C34.964 38.256 35.428 38.064 35.94 37.952V37.904C35.508 37.792 35.116 37.608 34.764 37.352C34.428 37.096 34.14 36.8 33.9 36.464C33.66 36.128 33.476 35.76 33.348 35.36C33.22 34.96 33.156 34.56 33.156 34.16ZM35.172 34.256C35.172 35.072 35.428 35.744 35.94 36.272C36.468 36.8 37.156 37.064 38.004 37.064C38.852 37.064 39.532 36.8 40.044 36.272C40.572 35.744 40.836 35.072 40.836 34.256C40.836 33.44 40.572 32.768 40.044 32.24C39.532 31.712 38.852 31.448 38.004 31.448C37.156 31.448 36.468 31.712 35.94 32.24C35.428 32.768 35.172 33.44 35.172 34.256ZM34.596 42.176C34.596 42.672 34.684 43.128 34.86 43.544C35.036 43.96 35.276 44.32 35.58 44.624C35.9 44.912 36.26 45.144 36.66 45.32C37.076 45.48 37.524 45.56 38.004 45.56C38.484 45.56 38.924 45.48 39.324 45.32C39.74 45.144 40.1 44.912 40.404 44.624C40.724 44.32 40.972 43.96 41.148 43.544C41.324 43.128 41.412 42.672 41.412 42.176C41.412 41.68 41.324 41.224 41.148 40.808C40.972 40.392 40.724 40.04 40.404 39.752C40.1 39.448 39.74 39.216 39.324 39.056C38.924 38.88 38.484 38.792 38.004 38.792C37.524 38.792 37.076 38.88 36.66 39.056C36.26 39.216 35.9 39.448 35.58 39.752C35.276 40.04 35.036 40.392 34.86 40.808C34.684 41.224 34.596 41.68 34.596 42.176Z" fill="white"/>
</g>
<defs>
<filter id="filter0_d" x="0.232906" y="0.232906" width="75.5342" height="76.5342" filterUnits="userSpaceOnUse" color-interpolation-filters="sRGB">
<feFlood flood-opacity="0" result="BackgroundImageFix"/>
<feColorMatrix in="SourceAlpha" type="matrix" values="0 0 0 0 0 0 0 0 0 0 0 0 0 0 0 0 0 0 127 0"/>
<feOffset/>
<feGaussianBlur stdDeviation="3.38355"/>
<feColorMatrix type="matrix" values="0 0 0 0 0 0 0 0 0 0 0 0 0 0 0 0 0 0 0.25 0"/>
<feBlend mode="normal" in2="BackgroundImageFix" result="effect1_dropShadow"/>
<feBlend mode="normal" in="SourceGraphic" in2="effect1_dropShadow" result="shape"/>
</filter>
<filter id="filter1_d" x="28.5801" y="29.72" width="18.848" height="25.568" filterUnits="userSpaceOnUse" color-interpolation-filters="sRGB">
<feFlood flood-opacity="0" result="BackgroundImageFix"/>
<feColorMatrix in="SourceAlpha" type="matrix" values="0 0 0 0 0 0 0 0 0 0 0 0 0 0 0 0 0 0 127 0"/>
<feOffset dy="4"/>
<feGaussianBlur stdDeviation="2"/>
<feColorMatrix type="matrix" values="0 0 0 0 0 0 0 0 0 0 0 0 0 0 0 0 0 0 0.25 0"/>
<feBlend mode="normal" in2="BackgroundImageFix" result="effect1_dropShadow"/>
<feBlend mode="normal" in="SourceGraphic" in2="effect1_dropShadow" result="shape"/>
</filter>
</defs>
</svg>
