<svg width="152" height="110" viewBox="0 0 152 110" fill="none" xmlns="http://www.w3.org/2000/svg">
<g filter="url(#filter0_d)">
<path d="M4 20C4 8.95431 12.9543 0 24 0H128C139.046 0 148 8.95431 148 20V110H4V20Z" fill="#D86B8C"/>
</g>
<path d="M44.9888 46.6938V33.9498H48.0848V46.6938H44.9888ZM58.8193 46.6938L53.6893 38.3598H53.6353L53.7073 46.6938H50.7193V33.9498H54.2293L59.3413 42.2658H59.3953L59.3233 33.9498H62.3113V46.6938H58.8193ZM78.9545 36.5778V46.6938H75.8765V36.5778H72.2765V33.9498H82.5545V36.5778H78.9545ZM92.0055 46.6938V41.3658H87.0375V46.6938H83.9595V33.9498H87.0375V38.7738H92.0055V33.9498H95.0835V46.6938H92.0055ZM97.7056 46.6938V33.9498H106.274V36.5598H100.676V38.9538H105.968V41.4198H100.676V44.0658H106.598V46.6938H97.7056ZM34.2374 58.2858C34.2374 59.4018 34.0274 60.3678 33.6074 61.1838C33.1994 61.9878 32.6534 62.6538 31.9694 63.1818C31.2974 63.6978 30.5354 64.0818 29.6834 64.3338C28.8314 64.5738 27.9674 64.6938 27.0914 64.6938H22.3394V51.9498H26.9474C27.8474 51.9498 28.7354 52.0578 29.6114 52.2738C30.4874 52.4778 31.2674 52.8258 31.9514 53.3178C32.6354 53.7978 33.1874 54.4458 33.6074 55.2618C34.0274 56.0778 34.2374 57.0858 34.2374 58.2858ZM31.0334 58.2858C31.0334 57.5658 30.9134 56.9718 30.6734 56.5038C30.4454 56.0238 30.1334 55.6458 29.7374 55.3698C29.3534 55.0818 28.9094 54.8778 28.4054 54.7578C27.9134 54.6378 27.4034 54.5778 26.8754 54.5778H25.3454V62.0298H26.8034C27.3554 62.0298 27.8834 61.9698 28.3874 61.8498C28.9034 61.7178 29.3534 61.5078 29.7374 61.2198C30.1334 60.9318 30.4454 60.5478 30.6734 60.0678C30.9134 59.5878 31.0334 58.9938 31.0334 58.2858ZM36.2788 64.6938V51.9498H44.8468V54.5598H39.2488V56.9538H44.5408V59.4198H39.2488V62.0658H45.1708V64.6938H36.2788ZM53.5304 64.6938H50.4524L45.6284 51.9498H49.0844L52.0364 60.9858H52.1084L55.0424 51.9498H58.4444L53.5304 64.6938ZM59.482 64.6938V51.9498H62.578V64.6938H59.482ZM65.2124 64.6938V51.9498H68.3084V62.0118H73.2404V64.6938H65.2124ZM75.0783 56.8278H72.8103L74.1063 51.9498H76.7163L75.0783 56.8278ZM85.5148 55.2618C85.2508 54.9258 84.9028 54.6618 84.4708 54.4698C84.0508 54.2658 83.6428 54.1638 83.2468 54.1638C83.0428 54.1638 82.8328 54.1818 82.6168 54.2178C82.4128 54.2538 82.2268 54.3258 82.0588 54.4338C81.8908 54.5298 81.7468 54.6618 81.6268 54.8298C81.5188 54.9858 81.4648 55.1898 81.4648 55.4418C81.4648 55.6578 81.5068 55.8378 81.5908 55.9818C81.6868 56.1258 81.8188 56.2518 81.9868 56.3598C82.1668 56.4678 82.3768 56.5698 82.6168 56.6658C82.8568 56.7498 83.1268 56.8398 83.4268 56.9358C83.8588 57.0798 84.3088 57.2418 84.7768 57.4218C85.2448 57.5898 85.6708 57.8178 86.0548 58.1058C86.4388 58.3938 86.7568 58.7538 87.0088 59.1858C87.2608 59.6058 87.3867 60.1338 87.3867 60.7698C87.3867 61.5018 87.2487 62.1378 86.9727 62.6778C86.7088 63.2058 86.3488 63.6438 85.8928 63.9918C85.4368 64.3398 84.9148 64.5978 84.3268 64.7658C83.7388 64.9338 83.1328 65.0178 82.5088 65.0178C81.5968 65.0178 80.7148 64.8618 79.8628 64.5498C79.0108 64.2258 78.3028 63.7698 77.7388 63.1818L79.7548 61.1298C80.0668 61.5138 80.4748 61.8378 80.9788 62.1018C81.4948 62.3538 82.0048 62.4798 82.5088 62.4798C82.7368 62.4798 82.9588 62.4558 83.1748 62.4078C83.3908 62.3598 83.5768 62.2818 83.7328 62.1738C83.9008 62.0658 84.0328 61.9218 84.1288 61.7418C84.2248 61.5618 84.2728 61.3458 84.2728 61.0938C84.2728 60.8538 84.2128 60.6498 84.0928 60.4818C83.9728 60.3138 83.7988 60.1638 83.5708 60.0318C83.3548 59.8878 83.0788 59.7618 82.7428 59.6538C82.4188 59.5338 82.0468 59.4078 81.6268 59.2758C81.2188 59.1438 80.8168 58.9878 80.4208 58.8078C80.0368 58.6278 79.6888 58.3998 79.3768 58.1238C79.0768 57.8358 78.8308 57.4938 78.6388 57.0978C78.4588 56.6898 78.3688 56.1978 78.3688 55.6218C78.3688 54.9138 78.5128 54.3078 78.8008 53.8038C79.0888 53.2998 79.4668 52.8858 79.9348 52.5618C80.4028 52.2378 80.9308 52.0038 81.5188 51.8598C82.1068 51.7038 82.7008 51.6258 83.3008 51.6258C84.0208 51.6258 84.7528 51.7578 85.4968 52.0218C86.2528 52.2858 86.9128 52.6758 87.4768 53.1918L85.5148 55.2618ZM105.132 62.9298C104.568 63.5778 103.872 64.0938 103.044 64.4778C102.216 64.8498 101.262 65.0358 100.182 65.0358C99.1975 65.0358 98.2855 64.8738 97.4455 64.5498C96.6175 64.2258 95.8975 63.7698 95.2855 63.1818C94.6735 62.5818 94.1935 61.8678 93.8455 61.0398C93.4975 60.2118 93.3235 59.2998 93.3235 58.3038C93.3235 57.2838 93.4975 56.3598 93.8455 55.5318C94.2055 54.7038 94.6975 54.0018 95.3215 53.4258C95.9455 52.8378 96.6775 52.3878 97.5175 52.0758C98.3575 51.7638 99.2635 51.6078 100.236 51.6078C101.136 51.6078 102.018 51.7698 102.882 52.0938C103.758 52.4058 104.466 52.8678 105.006 53.4798L102.918 55.5678C102.63 55.1718 102.252 54.8778 101.784 54.6858C101.316 54.4938 100.836 54.3978 100.344 54.3978C99.8035 54.3978 99.3055 54.4998 98.8495 54.7038C98.4055 54.8958 98.0215 55.1658 97.6975 55.5138C97.3735 55.8618 97.1215 56.2758 96.9415 56.7558C96.7615 57.2238 96.6715 57.7398 96.6715 58.3038C96.6715 58.8798 96.7615 59.4078 96.9415 59.8878C97.1215 60.3678 97.3675 60.7818 97.6795 61.1298C98.0035 61.4658 98.3875 61.7298 98.8315 61.9218C99.2755 62.1138 99.7615 62.2098 100.29 62.2098C100.902 62.2098 101.436 62.0898 101.892 61.8498C102.348 61.6098 102.714 61.2978 102.99 60.9138L105.132 62.9298ZM114.88 64.6938L113.89 62.1918H108.958L108.022 64.6938H104.674L110.02 51.9498H113.008L118.3 64.6938H114.88ZM111.46 55.3518L109.84 59.7258H113.044L111.46 55.3518ZM126.175 64.6938L123.421 59.6358H122.377V64.6938H119.353V51.9498H124.213C124.825 51.9498 125.419 52.0158 125.995 52.1478C126.583 52.2678 127.105 52.4778 127.561 52.7778C128.029 53.0778 128.401 53.4738 128.677 53.9658C128.953 54.4578 129.091 55.0698 129.091 55.8018C129.091 56.6658 128.857 57.3918 128.389 57.9798C127.921 58.5678 127.273 58.9878 126.445 59.2398L129.775 64.6938H126.175ZM126.049 55.8558C126.049 55.5558 125.983 55.3158 125.851 55.1358C125.731 54.9438 125.569 54.7998 125.365 54.7038C125.173 54.5958 124.951 54.5238 124.699 54.4878C124.459 54.4518 124.225 54.4338 123.997 54.4338H122.359V57.4038H123.817C124.069 57.4038 124.327 57.3858 124.591 57.3498C124.855 57.3018 125.095 57.2238 125.311 57.1158C125.527 57.0078 125.701 56.8518 125.833 56.6478C125.977 56.4438 126.049 56.1798 126.049 55.8558Z" fill="#FAF49D"/>
<defs>
<filter id="filter0_d" x="0" y="0" width="152" height="118" filterUnits="userSpaceOnUse" color-interpolation-filters="sRGB">
<feFlood flood-opacity="0" result="BackgroundImageFix"/>
<feColorMatrix in="SourceAlpha" type="matrix" values="0 0 0 0 0 0 0 0 0 0 0 0 0 0 0 0 0 0 127 0"/>
<feOffset dy="4"/>
<feGaussianBlur stdDeviation="2"/>
<feColorMatrix type="matrix" values="0 0 0 0 0 0 0 0 0 0 0 0 0 0 0 0 0 0 0.25 0"/>
<feBlend mode="normal" in2="BackgroundImageFix" result="effect1_dropShadow"/>
<feBlend mode="normal" in="SourceGraphic" in2="effect1_dropShadow" result="shape"/>
</filter>
</defs>
</svg>
