<svg width="152" height="110" viewBox="0 0 152 110" fill="none" xmlns="http://www.w3.org/2000/svg">
<g filter="url(#filter0_d)">
<path d="M4 20C4 8.95431 12.9543 0 24 0H128C139.046 0 148 8.95431 148 20V110H4V20Z" fill="#D86B8C"/>
</g>
<path d="M64.6987 36.5778V46.6938H61.6207V36.5778H58.0207V33.9498H68.2987V36.5778H64.6987ZM77.7496 46.6938V41.3658H72.7816V46.6938H69.7036V33.9498H72.7816V38.7738H77.7496V33.9498H80.8276V46.6938H77.7496ZM83.4497 46.6938V33.9498H92.0177V36.5598H86.4197V38.9538H91.7117V41.4198H86.4197V44.0658H92.3417V46.6938H83.4497ZM26.5216 64.6938H23.4436L18.6196 51.9498H22.0756L25.0276 60.9858H25.0996L28.0336 51.9498H31.4356L26.5216 64.6938ZM32.4732 64.6938V51.9498H35.5692V64.6938H32.4732ZM50.1016 58.2858C50.1016 59.4018 49.8916 60.3678 49.4716 61.1838C49.0636 61.9878 48.5176 62.6538 47.8336 63.1818C47.1616 63.6978 46.3996 64.0818 45.5476 64.3338C44.6956 64.5738 43.8316 64.6938 42.9556 64.6938H38.2036V51.9498H42.8116C43.7116 51.9498 44.5996 52.0578 45.4756 52.2738C46.3516 52.4778 47.1316 52.8258 47.8156 53.3178C48.4996 53.7978 49.0516 54.4458 49.4716 55.2618C49.8916 56.0778 50.1016 57.0858 50.1016 58.2858ZM46.8976 58.2858C46.8976 57.5658 46.7776 56.9718 46.5376 56.5038C46.3096 56.0238 45.9976 55.6458 45.6016 55.3698C45.2176 55.0818 44.7736 54.8778 44.2696 54.7578C43.7776 54.6378 43.2676 54.5778 42.7396 54.5778H41.2096V62.0298H42.6676C43.2196 62.0298 43.7476 61.9698 44.2516 61.8498C44.7676 61.7178 45.2176 61.5078 45.6016 61.2198C45.9976 60.9318 46.3096 60.5478 46.5376 60.0678C46.7776 59.5878 46.8976 58.9938 46.8976 58.2858ZM52.1431 64.6938V51.9498H60.7111V54.5598H55.1131V56.9538H60.4051V59.4198H55.1131V62.0658H61.0351V64.6938H52.1431ZM76.3607 58.2678C76.3607 59.2758 76.1867 60.1998 75.8387 61.0398C75.4907 61.8678 75.0047 62.5818 74.3807 63.1818C73.7687 63.7698 73.0367 64.2258 72.1847 64.5498C71.3327 64.8738 70.4087 65.0358 69.4127 65.0358C68.4167 65.0358 67.4927 64.8738 66.6407 64.5498C65.8007 64.2258 65.0687 63.7698 64.4447 63.1818C63.8327 62.5818 63.3527 61.8678 63.0047 61.0398C62.6567 60.1998 62.4827 59.2758 62.4827 58.2678C62.4827 57.2478 62.6567 56.3298 63.0047 55.5138C63.3527 54.6858 63.8327 53.9838 64.4447 53.4078C65.0687 52.8318 65.8007 52.3878 66.6407 52.0758C67.4927 51.7638 68.4167 51.6078 69.4127 51.6078C70.4087 51.6078 71.3327 51.7638 72.1847 52.0758C73.0367 52.3878 73.7687 52.8318 74.3807 53.4078C75.0047 53.9838 75.4907 54.6858 75.8387 55.5138C76.1867 56.3298 76.3607 57.2478 76.3607 58.2678ZM73.0667 58.2678C73.0667 57.7158 72.9767 57.1998 72.7967 56.7198C72.6167 56.2398 72.3647 55.8318 72.0407 55.4958C71.7287 55.1478 71.3447 54.8778 70.8887 54.6858C70.4447 54.4818 69.9527 54.3798 69.4127 54.3798C68.8727 54.3798 68.3807 54.4818 67.9367 54.6858C67.4927 54.8778 67.1087 55.1478 66.7847 55.4958C66.4607 55.8318 66.2087 56.2398 66.0287 56.7198C65.8607 57.1998 65.7767 57.7158 65.7767 58.2678C65.7767 58.8438 65.8667 59.3778 66.0467 59.8698C66.2267 60.3498 66.4727 60.7638 66.7847 61.1118C67.1087 61.4598 67.4927 61.7358 67.9367 61.9398C68.3807 62.1318 68.8727 62.2278 69.4127 62.2278C69.9527 62.2278 70.4447 62.1318 70.8887 61.9398C71.3327 61.7358 71.7167 61.4598 72.0407 61.1118C72.3647 60.7638 72.6167 60.3498 72.7967 59.8698C72.9767 59.3778 73.0667 58.8438 73.0667 58.2678ZM83.2963 54.5778V64.6938H80.2183V54.5778H76.6183V51.9498H86.8963V54.5778H83.2963ZM95.869 64.6938L94.879 62.1918H89.947L89.011 64.6938H85.663L91.009 51.9498H93.997L99.289 64.6938H95.869ZM92.449 55.3518L90.829 59.7258H94.033L92.449 55.3518ZM110.008 55.8738C110.008 56.6178 109.87 57.2478 109.594 57.7638C109.318 58.2678 108.946 58.6758 108.478 58.9878C108.01 59.2998 107.47 59.5278 106.858 59.6718C106.246 59.8158 105.61 59.8878 104.95 59.8878H103.42V64.6938H100.342V51.9498H105.022C105.718 51.9498 106.366 52.0218 106.966 52.1658C107.578 52.2978 108.106 52.5198 108.55 52.8318C109.006 53.1318 109.36 53.5338 109.612 54.0378C109.876 54.5298 110.008 55.1418 110.008 55.8738ZM106.93 55.8918C106.93 55.5918 106.87 55.3458 106.75 55.1538C106.63 54.9618 106.468 54.8118 106.264 54.7038C106.06 54.5958 105.826 54.5238 105.562 54.4878C105.31 54.4518 105.046 54.4338 104.77 54.4338H103.42V57.4398H104.716C105.004 57.4398 105.28 57.4158 105.544 57.3678C105.808 57.3198 106.042 57.2358 106.246 57.1158C106.462 56.9958 106.63 56.8398 106.75 56.6478C106.87 56.4438 106.93 56.1918 106.93 55.8918ZM111.856 64.6938V51.9498H120.424V54.5598H114.826V56.9538H120.118V59.4198H114.826V62.0658H120.748V64.6938H111.856ZM129.522 55.2618C129.258 54.9258 128.91 54.6618 128.478 54.4698C128.058 54.2658 127.65 54.1638 127.254 54.1638C127.05 54.1638 126.84 54.1818 126.624 54.2178C126.42 54.2538 126.234 54.3258 126.066 54.4338C125.898 54.5298 125.754 54.6618 125.634 54.8298C125.526 54.9858 125.472 55.1898 125.472 55.4418C125.472 55.6578 125.514 55.8378 125.598 55.9818C125.694 56.1258 125.826 56.2518 125.994 56.3598C126.174 56.4678 126.384 56.5698 126.624 56.6658C126.864 56.7498 127.134 56.8398 127.434 56.9358C127.866 57.0798 128.316 57.2418 128.784 57.4218C129.252 57.5898 129.678 57.8178 130.062 58.1058C130.446 58.3938 130.764 58.7538 131.016 59.1858C131.268 59.6058 131.394 60.1338 131.394 60.7698C131.394 61.5018 131.256 62.1378 130.98 62.6778C130.716 63.2058 130.356 63.6438 129.9 63.9918C129.444 64.3398 128.922 64.5978 128.334 64.7658C127.746 64.9338 127.14 65.0178 126.516 65.0178C125.604 65.0178 124.722 64.8618 123.87 64.5498C123.018 64.2258 122.31 63.7698 121.746 63.1818L123.762 61.1298C124.074 61.5138 124.482 61.8378 124.986 62.1018C125.502 62.3538 126.012 62.4798 126.516 62.4798C126.744 62.4798 126.966 62.4558 127.182 62.4078C127.398 62.3598 127.584 62.2818 127.74 62.1738C127.908 62.0658 128.04 61.9218 128.136 61.7418C128.232 61.5618 128.28 61.3458 128.28 61.0938C128.28 60.8538 128.22 60.6498 128.1 60.4818C127.98 60.3138 127.806 60.1638 127.578 60.0318C127.362 59.8878 127.086 59.7618 126.75 59.6538C126.426 59.5338 126.054 59.4078 125.634 59.2758C125.226 59.1438 124.824 58.9878 124.428 58.8078C124.044 58.6278 123.696 58.3998 123.384 58.1238C123.084 57.8358 122.838 57.4938 122.646 57.0978C122.466 56.6898 122.376 56.1978 122.376 55.6218C122.376 54.9138 122.52 54.3078 122.808 53.8038C123.096 53.2998 123.474 52.8858 123.942 52.5618C124.41 52.2378 124.938 52.0038 125.526 51.8598C126.114 51.7038 126.708 51.6258 127.308 51.6258C128.028 51.6258 128.76 51.7578 129.504 52.0218C130.26 52.2858 130.92 52.6758 131.484 53.1918L129.522 55.2618Z" fill="#FAF49D"/>
<defs>
<filter id="filter0_d" x="0" y="0" width="152" height="118" filterUnits="userSpaceOnUse" color-interpolation-filters="sRGB">
<feFlood flood-opacity="0" result="BackgroundImageFix"/>
<feColorMatrix in="SourceAlpha" type="matrix" values="0 0 0 0 0 0 0 0 0 0 0 0 0 0 0 0 0 0 127 0"/>
<feOffset dy="4"/>
<feGaussianBlur stdDeviation="2"/>
<feColorMatrix type="matrix" values="0 0 0 0 0 0 0 0 0 0 0 0 0 0 0 0 0 0 0.25 0"/>
<feBlend mode="normal" in2="BackgroundImageFix" result="effect1_dropShadow"/>
<feBlend mode="normal" in="SourceGraphic" in2="effect1_dropShadow" result="shape"/>
</filter>
</defs>
</svg>
