<svg width="152" height="110" viewBox="0 0 152 110" fill="none" xmlns="http://www.w3.org/2000/svg">
<g filter="url(#filter0_d)">
<path d="M4.00005 20C4.00005 8.95431 12.9544 0 24 0H128C139.046 0 148 8.95431 148 20V110H4.00005V20Z" fill="#D86B8C"/>
</g>
<path d="M31.3034 44.9298C30.7394 45.5778 30.0434 46.0938 29.2154 46.4778C28.3874 46.8498 27.4334 47.0358 26.3534 47.0358C25.3694 47.0358 24.4574 46.8738 23.6174 46.5498C22.7894 46.2258 22.0694 45.7698 21.4574 45.1818C20.8454 44.5818 20.3654 43.8678 20.0174 43.0398C19.6694 42.2118 19.4954 41.2998 19.4954 40.3038C19.4954 39.2838 19.6694 38.3598 20.0174 37.5318C20.3774 36.7038 20.8694 36.0018 21.4934 35.4258C22.1174 34.8378 22.8494 34.3878 23.6894 34.0758C24.5294 33.7638 25.4354 33.6078 26.4074 33.6078C27.3074 33.6078 28.1894 33.7698 29.0534 34.0938C29.9294 34.4058 30.6374 34.8678 31.1774 35.4798L29.0894 37.5678C28.8014 37.1718 28.4234 36.8778 27.9554 36.6858C27.4874 36.4938 27.0074 36.3978 26.5154 36.3978C25.9754 36.3978 25.4774 36.4998 25.0214 36.7038C24.5774 36.8958 24.1934 37.1658 23.8694 37.5138C23.5454 37.8618 23.2934 38.2758 23.1134 38.7558C22.9334 39.2238 22.8434 39.7398 22.8434 40.3038C22.8434 40.8798 22.9334 41.4078 23.1134 41.8878C23.2934 42.3678 23.5394 42.7818 23.8514 43.1298C24.1754 43.4658 24.5594 43.7298 25.0034 43.9218C25.4474 44.1138 25.9334 44.2098 26.4614 44.2098C27.0734 44.2098 27.6074 44.0898 28.0634 43.8498C28.5194 43.6098 28.8854 43.2978 29.1614 42.9138L31.3034 44.9298ZM40.6686 46.6938V41.3658H35.7006V46.6938H32.6226V33.9498H35.7006V38.7738H40.6686V33.9498H43.7466V46.6938H40.6686ZM46.3687 46.6938V33.9498H54.9367V36.5598H49.3387V38.9538H54.6307V41.4198H49.3387V44.0658H55.2607V46.6938H46.3687ZM64.1243 46.6938L61.3703 41.6358H60.3263V46.6938H57.3023V33.9498H62.1623C62.7743 33.9498 63.3683 34.0158 63.9443 34.1478C64.5323 34.2678 65.0543 34.4778 65.5103 34.7778C65.9783 35.0778 66.3503 35.4738 66.6263 35.9658C66.9023 36.4578 67.0403 37.0698 67.0403 37.8018C67.0403 38.6658 66.8063 39.3918 66.3383 39.9798C65.8703 40.5678 65.2223 40.9878 64.3943 41.2398L67.7243 46.6938H64.1243ZM63.9983 37.8558C63.9983 37.5558 63.9323 37.3158 63.8003 37.1358C63.6803 36.9438 63.5183 36.7998 63.3143 36.7038C63.1223 36.5958 62.9003 36.5238 62.6483 36.4878C62.4083 36.4518 62.1743 36.4338 61.9463 36.4338H60.3083V39.4038H61.7663C62.0183 39.4038 62.2763 39.3858 62.5403 39.3498C62.8043 39.3018 63.0443 39.2238 63.2603 39.1158C63.4763 39.0078 63.6503 38.8518 63.7823 38.6478C63.9263 38.4438 63.9983 38.1798 63.9983 37.8558ZM70.9299 38.8278H68.6619L69.9579 33.9498H72.5679L70.9299 38.8278ZM81.3664 37.2618C81.1024 36.9258 80.7544 36.6618 80.3224 36.4698C79.9024 36.2658 79.4944 36.1638 79.0984 36.1638C78.8944 36.1638 78.6844 36.1818 78.4684 36.2178C78.2644 36.2538 78.0784 36.3258 77.9104 36.4338C77.7424 36.5298 77.5984 36.6618 77.4784 36.8298C77.3704 36.9858 77.3164 37.1898 77.3164 37.4418C77.3164 37.6578 77.3584 37.8378 77.4424 37.9818C77.5384 38.1258 77.6704 38.2518 77.8384 38.3598C78.0184 38.4678 78.2284 38.5698 78.4684 38.6658C78.7084 38.7498 78.9784 38.8398 79.2784 38.9358C79.7104 39.0798 80.1604 39.2418 80.6284 39.4218C81.0964 39.5898 81.5224 39.8178 81.9064 40.1058C82.2904 40.3938 82.6084 40.7538 82.8604 41.1858C83.1124 41.6058 83.2384 42.1338 83.2384 42.7698C83.2384 43.5018 83.1004 44.1378 82.8244 44.6778C82.5604 45.2058 82.2004 45.6438 81.7444 45.9918C81.2884 46.3398 80.7664 46.5978 80.1784 46.7658C79.5904 46.9338 78.9844 47.0178 78.3604 47.0178C77.4484 47.0178 76.5664 46.8618 75.7144 46.5498C74.8624 46.2258 74.1544 45.7698 73.5904 45.1818L75.6064 43.1298C75.9184 43.5138 76.3264 43.8378 76.8304 44.1018C77.3464 44.3538 77.8564 44.4798 78.3604 44.4798C78.5884 44.4798 78.8104 44.4558 79.0264 44.4078C79.2424 44.3598 79.4284 44.2818 79.5844 44.1738C79.7524 44.0658 79.8844 43.9218 79.9804 43.7418C80.0764 43.5618 80.1244 43.3458 80.1244 43.0938C80.1244 42.8538 80.0644 42.6498 79.9444 42.4818C79.8244 42.3138 79.6504 42.1638 79.4224 42.0318C79.2064 41.8878 78.9304 41.7618 78.5944 41.6538C78.2704 41.5338 77.8984 41.4078 77.4784 41.2758C77.0704 41.1438 76.6684 40.9878 76.2724 40.8078C75.8884 40.6278 75.5404 40.3998 75.2284 40.1238C74.9284 39.8358 74.6824 39.4938 74.4904 39.0978C74.3104 38.6898 74.2204 38.1978 74.2204 37.6218C74.2204 36.9138 74.3644 36.3078 74.6524 35.8038C74.9404 35.2998 75.3184 34.8858 75.7864 34.5618C76.2544 34.2378 76.7824 34.0038 77.3704 33.8598C77.9584 33.7038 78.5524 33.6258 79.1524 33.6258C79.8724 33.6258 80.6044 33.7578 81.3484 34.0218C82.1044 34.2858 82.7644 34.6758 83.3284 35.1918L81.3664 37.2618ZM99.7051 42.9858C99.7051 43.6818 99.5671 44.2698 99.2911 44.7498C99.0151 45.2178 98.6491 45.5958 98.1931 45.8838C97.7371 46.1718 97.2151 46.3818 96.6271 46.5138C96.0511 46.6338 95.4571 46.6938 94.8451 46.6938H89.7691V33.9498H94.8451C95.3371 33.9498 95.8411 34.0038 96.3571 34.1118C96.8731 34.2078 97.3411 34.3818 97.7611 34.6338C98.1811 34.8738 98.5231 35.2038 98.7871 35.6238C99.0511 36.0438 99.1831 36.5778 99.1831 37.2258C99.1831 37.9338 98.9911 38.5218 98.6071 38.9898C98.2231 39.4458 97.7191 39.7758 97.0951 39.9798V40.0158C97.4551 40.0758 97.7911 40.1898 98.1031 40.3578C98.4271 40.5138 98.7031 40.7178 98.9311 40.9698C99.1711 41.2218 99.3571 41.5158 99.4891 41.8518C99.6331 42.1878 99.7051 42.5658 99.7051 42.9858ZM96.2131 37.6398C96.2131 37.2078 96.0451 36.8958 95.7091 36.7038C95.3851 36.4998 94.8991 36.3978 94.2511 36.3978H92.7391V39.0258H94.3951C94.9711 39.0258 95.4151 38.9118 95.7271 38.6838C96.0511 38.4438 96.2131 38.0958 96.2131 37.6398ZM96.6271 42.6978C96.6271 42.1698 96.4291 41.8038 96.0331 41.5998C95.6371 41.3958 95.1091 41.2938 94.4491 41.2938H92.7391V44.2098H94.4671C94.7071 44.2098 94.9531 44.1918 95.2051 44.1558C95.4691 44.1078 95.7031 44.0298 95.9071 43.9218C96.1231 43.8138 96.2971 43.6638 96.4291 43.4718C96.5611 43.2678 96.6271 43.0098 96.6271 42.6978ZM101.74 46.6938V33.9498H110.308V36.5598H104.71V38.9538H110.002V41.4198H104.71V44.0658H110.632V46.6938H101.74ZM119.405 37.2618C119.141 36.9258 118.793 36.6618 118.361 36.4698C117.941 36.2658 117.533 36.1638 117.137 36.1638C116.933 36.1638 116.723 36.1818 116.507 36.2178C116.303 36.2538 116.117 36.3258 115.949 36.4338C115.781 36.5298 115.637 36.6618 115.517 36.8298C115.409 36.9858 115.355 37.1898 115.355 37.4418C115.355 37.6578 115.397 37.8378 115.481 37.9818C115.577 38.1258 115.709 38.2518 115.877 38.3598C116.057 38.4678 116.267 38.5698 116.507 38.6658C116.747 38.7498 117.017 38.8398 117.317 38.9358C117.749 39.0798 118.199 39.2418 118.667 39.4218C119.135 39.5898 119.561 39.8178 119.945 40.1058C120.329 40.3938 120.647 40.7538 120.899 41.1858C121.151 41.6058 121.277 42.1338 121.277 42.7698C121.277 43.5018 121.139 44.1378 120.863 44.6778C120.599 45.2058 120.239 45.6438 119.783 45.9918C119.327 46.3398 118.805 46.5978 118.217 46.7658C117.629 46.9338 117.023 47.0178 116.399 47.0178C115.487 47.0178 114.605 46.8618 113.753 46.5498C112.901 46.2258 112.193 45.7698 111.629 45.1818L113.645 43.1298C113.957 43.5138 114.365 43.8378 114.869 44.1018C115.385 44.3538 115.895 44.4798 116.399 44.4798C116.627 44.4798 116.849 44.4558 117.065 44.4078C117.281 44.3598 117.467 44.2818 117.623 44.1738C117.791 44.0658 117.923 43.9218 118.019 43.7418C118.115 43.5618 118.163 43.3458 118.163 43.0938C118.163 42.8538 118.103 42.6498 117.983 42.4818C117.863 42.3138 117.689 42.1638 117.461 42.0318C117.245 41.8878 116.969 41.7618 116.633 41.6538C116.309 41.5338 115.937 41.4078 115.517 41.2758C115.109 41.1438 114.707 40.9878 114.311 40.8078C113.927 40.6278 113.579 40.3998 113.267 40.1238C112.967 39.8358 112.721 39.4938 112.529 39.0978C112.349 38.6898 112.259 38.1978 112.259 37.6218C112.259 36.9138 112.403 36.3078 112.691 35.8038C112.979 35.2998 113.357 34.8858 113.825 34.5618C114.293 34.2378 114.821 34.0038 115.409 33.8598C115.997 33.7038 116.591 33.6258 117.191 33.6258C117.911 33.6258 118.643 33.7578 119.387 34.0218C120.143 34.2858 120.803 34.6758 121.367 35.1918L119.405 37.2618ZM128.534 36.5778V46.6938H125.456V36.5778H121.856V33.9498H132.134V36.5778H128.534ZM28.9576 64.6938V51.9498H32.0536V64.6938H28.9576ZM42.7881 64.6938L37.6581 56.3598H37.6041L37.6761 64.6938H34.6881V51.9498H38.1981L43.3101 60.2658H43.3641L43.2921 51.9498H46.2801V64.6938H42.7881ZM54.3628 54.5778V64.6938H51.2848V54.5778H47.6848V51.9498H57.9628V54.5778H54.3628ZM59.3678 64.6938V51.9498H67.9358V54.5598H62.3378V56.9538H67.6298V59.4198H62.3378V62.0658H68.2598V64.6938H59.3678ZM77.1234 64.6938L74.3694 59.6358H73.3254V64.6938H70.3014V51.9498H75.1614C75.7734 51.9498 76.3674 52.0158 76.9434 52.1478C77.5314 52.2678 78.0534 52.4778 78.5094 52.7778C78.9774 53.0778 79.3494 53.4738 79.6254 53.9658C79.9014 54.4578 80.0394 55.0698 80.0394 55.8018C80.0394 56.6658 79.8054 57.3918 79.3374 57.9798C78.8694 58.5678 78.2214 58.9878 77.3934 59.2398L80.7234 64.6938H77.1234ZM76.9974 55.8558C76.9974 55.5558 76.9314 55.3158 76.7994 55.1358C76.6794 54.9438 76.5174 54.7998 76.3134 54.7038C76.1214 54.5958 75.8994 54.5238 75.6474 54.4878C75.4074 54.4518 75.1734 54.4338 74.9454 54.4338H73.3074V57.4038H74.7654C75.0174 57.4038 75.2754 57.3858 75.5394 57.3498C75.8034 57.3018 76.0434 57.2238 76.2594 57.1158C76.4754 57.0078 76.6494 56.8518 76.7814 56.6478C76.9254 56.4438 76.9974 56.1798 76.9974 55.8558ZM82.2369 64.6938V51.9498H90.8049V54.5598H85.2069V56.9538H90.4989V59.4198H85.2069V62.0658H91.1289V64.6938H82.2369ZM99.9025 55.2618C99.6385 54.9258 99.2905 54.6618 98.8585 54.4698C98.4385 54.2658 98.0305 54.1638 97.6345 54.1638C97.4305 54.1638 97.2205 54.1818 97.0045 54.2178C96.8005 54.2538 96.6145 54.3258 96.4465 54.4338C96.2785 54.5298 96.1345 54.6618 96.0145 54.8298C95.9065 54.9858 95.8525 55.1898 95.8525 55.4418C95.8525 55.6578 95.8945 55.8378 95.9785 55.9818C96.0745 56.1258 96.2065 56.2518 96.3745 56.3598C96.5545 56.4678 96.7645 56.5698 97.0045 56.6658C97.2445 56.7498 97.5145 56.8398 97.8145 56.9358C98.2465 57.0798 98.6965 57.2418 99.1645 57.4218C99.6325 57.5898 100.058 57.8178 100.442 58.1058C100.826 58.3938 101.144 58.7538 101.396 59.1858C101.648 59.6058 101.774 60.1338 101.774 60.7698C101.774 61.5018 101.636 62.1378 101.36 62.6778C101.096 63.2058 100.736 63.6438 100.28 63.9918C99.8245 64.3398 99.3025 64.5978 98.7145 64.7658C98.1265 64.9338 97.5205 65.0178 96.8965 65.0178C95.9845 65.0178 95.1025 64.8618 94.2505 64.5498C93.3985 64.2258 92.6905 63.7698 92.1265 63.1818L94.1425 61.1298C94.4545 61.5138 94.8625 61.8378 95.3665 62.1018C95.8825 62.3538 96.3925 62.4798 96.8965 62.4798C97.1245 62.4798 97.3465 62.4558 97.5625 62.4078C97.7785 62.3598 97.9645 62.2818 98.1205 62.1738C98.2885 62.0658 98.4205 61.9218 98.5165 61.7418C98.6125 61.5618 98.6605 61.3458 98.6605 61.0938C98.6605 60.8538 98.6005 60.6498 98.4805 60.4818C98.3605 60.3138 98.1865 60.1638 97.9585 60.0318C97.7425 59.8878 97.4665 59.7618 97.1305 59.6538C96.8065 59.5338 96.4345 59.4078 96.0145 59.2758C95.6065 59.1438 95.2045 58.9878 94.8085 58.8078C94.4245 58.6278 94.0765 58.3998 93.7645 58.1238C93.4645 57.8358 93.2185 57.4938 93.0265 57.0978C92.8465 56.6898 92.7565 56.1978 92.7565 55.6218C92.7565 54.9138 92.9005 54.3078 93.1885 53.8038C93.4765 53.2998 93.8545 52.8858 94.3225 52.5618C94.7905 52.2378 95.3185 52.0038 95.9065 51.8598C96.4945 51.7038 97.0885 51.6258 97.6885 51.6258C98.4085 51.6258 99.1405 51.7578 99.8845 52.0218C100.64 52.2858 101.3 52.6758 101.864 53.1918L99.9025 55.2618ZM109.031 54.5778V64.6938H105.953V54.5778H102.353V51.9498H112.631V54.5778H109.031ZM120.768 55.2618C120.504 54.9258 120.156 54.6618 119.724 54.4698C119.304 54.2658 118.896 54.1638 118.5 54.1638C118.296 54.1638 118.086 54.1818 117.87 54.2178C117.666 54.2538 117.48 54.3258 117.312 54.4338C117.144 54.5298 117 54.6618 116.88 54.8298C116.772 54.9858 116.718 55.1898 116.718 55.4418C116.718 55.6578 116.76 55.8378 116.844 55.9818C116.94 56.1258 117.072 56.2518 117.24 56.3598C117.42 56.4678 117.63 56.5698 117.87 56.6658C118.11 56.7498 118.38 56.8398 118.68 56.9358C119.112 57.0798 119.562 57.2418 120.03 57.4218C120.498 57.5898 120.924 57.8178 121.308 58.1058C121.692 58.3938 122.01 58.7538 122.262 59.1858C122.514 59.6058 122.64 60.1338 122.64 60.7698C122.64 61.5018 122.502 62.1378 122.226 62.6778C121.962 63.2058 121.602 63.6438 121.146 63.9918C120.69 64.3398 120.168 64.5978 119.58 64.7658C118.992 64.9338 118.386 65.0178 117.762 65.0178C116.85 65.0178 115.968 64.8618 115.116 64.5498C114.264 64.2258 113.556 63.7698 112.992 63.1818L115.008 61.1298C115.32 61.5138 115.728 61.8378 116.232 62.1018C116.748 62.3538 117.258 62.4798 117.762 62.4798C117.99 62.4798 118.212 62.4558 118.428 62.4078C118.644 62.3598 118.83 62.2818 118.986 62.1738C119.154 62.0658 119.286 61.9218 119.382 61.7418C119.478 61.5618 119.526 61.3458 119.526 61.0938C119.526 60.8538 119.466 60.6498 119.346 60.4818C119.226 60.3138 119.052 60.1638 118.824 60.0318C118.608 59.8878 118.332 59.7618 117.996 59.6538C117.672 59.5338 117.3 59.4078 116.88 59.2758C116.472 59.1438 116.07 58.9878 115.674 58.8078C115.29 58.6278 114.942 58.3998 114.63 58.1238C114.33 57.8358 114.084 57.4938 113.892 57.0978C113.712 56.6898 113.622 56.1978 113.622 55.6218C113.622 54.9138 113.766 54.3078 114.054 53.8038C114.342 53.2998 114.72 52.8858 115.188 52.5618C115.656 52.2378 116.184 52.0038 116.772 51.8598C117.36 51.7038 117.954 51.6258 118.554 51.6258C119.274 51.6258 120.006 51.7578 120.75 52.0218C121.506 52.2858 122.166 52.6758 122.73 53.1918L120.768 55.2618Z" fill="#FAF49D"/>
<defs>
<filter id="filter0_d" x="4.57764e-05" y="0" width="152" height="118" filterUnits="userSpaceOnUse" color-interpolation-filters="sRGB">
<feFlood flood-opacity="0" result="BackgroundImageFix"/>
<feColorMatrix in="SourceAlpha" type="matrix" values="0 0 0 0 0 0 0 0 0 0 0 0 0 0 0 0 0 0 127 0"/>
<feOffset dy="4"/>
<feGaussianBlur stdDeviation="2"/>
<feColorMatrix type="matrix" values="0 0 0 0 0 0 0 0 0 0 0 0 0 0 0 0 0 0 0.25 0"/>
<feBlend mode="normal" in2="BackgroundImageFix" result="effect1_dropShadow"/>
<feBlend mode="normal" in="SourceGraphic" in2="effect1_dropShadow" result="shape"/>
</filter>
</defs>
</svg>
