<svg width="152" height="110" viewBox="0 0 152 110" fill="none" xmlns="http://www.w3.org/2000/svg">
<g filter="url(#filter0_d)">
<path d="M4 20C4 8.95431 12.9543 0 24 0H128C139.046 0 148 8.95431 148 20V110H4V20Z" fill="#D86B8C"/>
</g>
<path d="M64.6987 36.5778V46.6938H61.6207V36.5778H58.0207V33.9498H68.2987V36.5778H64.6987ZM77.7496 46.6938V41.3658H72.7816V46.6938H69.7036V33.9498H72.7816V38.7738H77.7496V33.9498H80.8276V46.6938H77.7496ZM83.4497 46.6938V33.9498H92.0177V36.5598H86.4197V38.9538H91.7117V41.4198H86.4197V44.0658H92.3417V46.6938H83.4497ZM44.7867 64.6938H41.7447L39.2247 56.0718H39.1707L36.6507 64.6938H33.5907L29.9727 51.9498H33.2847L35.3007 60.4278H35.3547L37.6227 51.9498H40.8267L43.1127 60.4278H43.1667L45.2187 51.9498H48.4227L44.7867 64.6938ZM49.7437 64.6938V51.9498H58.3117V54.5598H52.7137V56.9538H58.0057V59.4198H52.7137V62.0658H58.6357V64.6938H49.7437ZM72.5753 58.2858C72.5753 59.4018 72.3653 60.3678 71.9453 61.1838C71.5373 61.9878 70.9913 62.6538 70.3073 63.1818C69.6353 63.6978 68.8733 64.0818 68.0213 64.3338C67.1693 64.5738 66.3053 64.6938 65.4293 64.6938H60.6773V51.9498H65.2853C66.1853 51.9498 67.0733 52.0578 67.9493 52.2738C68.8253 52.4778 69.6053 52.8258 70.2893 53.3178C70.9733 53.7978 71.5253 54.4458 71.9453 55.2618C72.3653 56.0778 72.5753 57.0858 72.5753 58.2858ZM69.3713 58.2858C69.3713 57.5658 69.2513 56.9718 69.0113 56.5038C68.7833 56.0238 68.4713 55.6458 68.0753 55.3698C67.6913 55.0818 67.2473 54.8778 66.7433 54.7578C66.2513 54.6378 65.7413 54.5778 65.2133 54.5778H63.6833V62.0298H65.1413C65.6933 62.0298 66.2213 61.9698 66.7253 61.8498C67.2413 61.7178 67.6913 61.5078 68.0753 61.2198C68.4713 60.9318 68.7833 60.5478 69.0113 60.0678C69.2513 59.5878 69.3713 58.9938 69.3713 58.2858ZM86.5147 58.2858C86.5147 59.4018 86.3047 60.3678 85.8847 61.1838C85.4767 61.9878 84.9307 62.6538 84.2467 63.1818C83.5747 63.6978 82.8127 64.0818 81.9607 64.3338C81.1087 64.5738 80.2447 64.6938 79.3687 64.6938H74.6167V51.9498H79.2247C80.1247 51.9498 81.0127 52.0578 81.8887 52.2738C82.7647 52.4778 83.5447 52.8258 84.2287 53.3178C84.9127 53.7978 85.4647 54.4458 85.8847 55.2618C86.3047 56.0778 86.5147 57.0858 86.5147 58.2858ZM83.3107 58.2858C83.3107 57.5658 83.1907 56.9718 82.9507 56.5038C82.7227 56.0238 82.4107 55.6458 82.0147 55.3698C81.6307 55.0818 81.1867 54.8778 80.6827 54.7578C80.1907 54.6378 79.6807 54.5778 79.1527 54.5778H77.6227V62.0298H79.0807C79.6327 62.0298 80.1607 61.9698 80.6647 61.8498C81.1807 61.7178 81.6307 61.5078 82.0147 61.2198C82.4107 60.9318 82.7227 60.5478 82.9507 60.0678C83.1907 59.5878 83.3107 58.9938 83.3107 58.2858ZM88.5562 64.6938V51.9498H91.6522V64.6938H88.5562ZM102.387 64.6938L97.2567 56.3598H97.2027L97.2747 64.6938H94.2867V51.9498H97.7967L102.909 60.2658H102.963L102.891 51.9498H105.879V64.6938H102.387ZM119.829 63.9198C119.205 64.2438 118.473 64.5078 117.633 64.7118C116.805 64.9158 115.899 65.0178 114.915 65.0178C113.895 65.0178 112.953 64.8558 112.089 64.5318C111.237 64.2078 110.499 63.7518 109.875 63.1638C109.263 62.5758 108.783 61.8738 108.435 61.0578C108.087 60.2298 107.913 59.3118 107.913 58.3038C107.913 57.2838 108.087 56.3598 108.435 55.5318C108.795 54.7038 109.287 54.0018 109.911 53.4258C110.535 52.8378 111.267 52.3878 112.107 52.0758C112.947 51.7638 113.853 51.6078 114.825 51.6078C115.833 51.6078 116.769 51.7638 117.633 52.0758C118.497 52.3758 119.199 52.7838 119.739 53.2998L117.795 55.5138C117.495 55.1658 117.099 54.8838 116.607 54.6678C116.115 54.4398 115.557 54.3258 114.933 54.3258C114.393 54.3258 113.895 54.4278 113.439 54.6318C112.983 54.8238 112.587 55.0998 112.251 55.4598C111.915 55.8078 111.651 56.2278 111.459 56.7198C111.279 57.1998 111.189 57.7278 111.189 58.3038C111.189 58.8918 111.273 59.4318 111.441 59.9238C111.609 60.4158 111.855 60.8418 112.179 61.2018C112.515 61.5498 112.923 61.8258 113.403 62.0298C113.895 62.2218 114.453 62.3178 115.077 62.3178C115.437 62.3178 115.779 62.2938 116.103 62.2458C116.427 62.1858 116.727 62.0958 117.003 61.9758V59.6538H114.573V57.1698H119.829V63.9198Z" fill="#FAF49D"/>
<defs>
<filter id="filter0_d" x="0" y="0" width="152" height="118" filterUnits="userSpaceOnUse" color-interpolation-filters="sRGB">
<feFlood flood-opacity="0" result="BackgroundImageFix"/>
<feColorMatrix in="SourceAlpha" type="matrix" values="0 0 0 0 0 0 0 0 0 0 0 0 0 0 0 0 0 0 127 0"/>
<feOffset dy="4"/>
<feGaussianBlur stdDeviation="2"/>
<feColorMatrix type="matrix" values="0 0 0 0 0 0 0 0 0 0 0 0 0 0 0 0 0 0 0.25 0"/>
<feBlend mode="normal" in2="BackgroundImageFix" result="effect1_dropShadow"/>
<feBlend mode="normal" in="SourceGraphic" in2="effect1_dropShadow" result="shape"/>
</filter>
</defs>
</svg>
