<svg width="152" height="110" viewBox="0 0 152 110" fill="none" xmlns="http://www.w3.org/2000/svg">
<g filter="url(#filter0_d)">
<path d="M4 20C4 8.95431 12.9543 0 24 0H128C139.046 0 148 8.95431 148 20V110H4V20Z" fill="#D86B8C"/>
</g>
<path d="M24.4975 36.5778V46.6938H21.4195V36.5778H17.8195V33.9498H28.0975V36.5778H24.4975ZM37.5485 46.6938V41.3658H32.5805V46.6938H29.5025V33.9498H32.5805V38.7738H37.5485V33.9498H40.6265V46.6938H37.5485ZM43.2486 46.6938V33.9498H51.8166V36.5598H46.2186V38.9538H51.5106V41.4198H46.2186V44.0658H52.1406V46.6938H43.2486ZM63.6967 36.5778V46.6938H60.6187V36.5778H57.0187V33.9498H67.2967V36.5778H63.6967ZM81.4408 40.2678C81.4408 41.2758 81.2668 42.1998 80.9188 43.0398C80.5708 43.8678 80.0848 44.5818 79.4608 45.1818C78.8488 45.7698 78.1168 46.2258 77.2648 46.5498C76.4128 46.8738 75.4888 47.0358 74.4928 47.0358C73.4968 47.0358 72.5728 46.8738 71.7208 46.5498C70.8808 46.2258 70.1488 45.7698 69.5248 45.1818C68.9128 44.5818 68.4328 43.8678 68.0848 43.0398C67.7368 42.1998 67.5628 41.2758 67.5628 40.2678C67.5628 39.2478 67.7368 38.3298 68.0848 37.5138C68.4328 36.6858 68.9128 35.9838 69.5248 35.4078C70.1488 34.8318 70.8808 34.3878 71.7208 34.0758C72.5728 33.7638 73.4968 33.6078 74.4928 33.6078C75.4888 33.6078 76.4128 33.7638 77.2648 34.0758C78.1168 34.3878 78.8488 34.8318 79.4608 35.4078C80.0848 35.9838 80.5708 36.6858 80.9188 37.5138C81.2668 38.3298 81.4408 39.2478 81.4408 40.2678ZM78.1468 40.2678C78.1468 39.7158 78.0568 39.1998 77.8768 38.7198C77.6968 38.2398 77.4448 37.8318 77.1208 37.4958C76.8088 37.1478 76.4248 36.8778 75.9688 36.6858C75.5248 36.4818 75.0328 36.3798 74.4928 36.3798C73.9528 36.3798 73.4608 36.4818 73.0168 36.6858C72.5728 36.8778 72.1888 37.1478 71.8648 37.4958C71.5408 37.8318 71.2888 38.2398 71.1088 38.7198C70.9408 39.1998 70.8568 39.7158 70.8568 40.2678C70.8568 40.8438 70.9468 41.3778 71.1268 41.8698C71.3068 42.3498 71.5528 42.7638 71.8648 43.1118C72.1888 43.4598 72.5728 43.7358 73.0168 43.9398C73.4608 44.1318 73.9528 44.2278 74.4928 44.2278C75.0328 44.2278 75.5248 44.1318 75.9688 43.9398C76.4128 43.7358 76.7968 43.4598 77.1208 43.1118C77.4448 42.7638 77.6968 42.3498 77.8768 41.8698C78.0568 41.3778 78.1468 40.8438 78.1468 40.2678ZM88.3764 36.5778V46.6938H85.2984V36.5778H81.6984V33.9498H91.9764V36.5778H88.3764ZM100.949 46.6938L99.9591 44.1918H95.0271L94.0911 46.6938H90.7431L96.0891 33.9498H99.0771L104.369 46.6938H100.949ZM97.5291 37.3518L95.9091 41.7258H99.1131L97.5291 37.3518ZM105.422 46.6938V33.9498H108.518V44.0118H113.45V46.6938H105.422ZM114.897 46.6938V33.9498H117.993V44.0118H122.925V46.6938H114.897ZM129.175 41.2938V46.6938H126.097V41.2938L121.309 33.9498H125.035L127.753 38.6658L130.471 33.9498H134.071L129.175 41.2938ZM44.2936 62.9298C43.7296 63.5778 43.0336 64.0938 42.2056 64.4778C41.3776 64.8498 40.4236 65.0358 39.3436 65.0358C38.3596 65.0358 37.4476 64.8738 36.6076 64.5498C35.7796 64.2258 35.0596 63.7698 34.4476 63.1818C33.8356 62.5818 33.3556 61.8678 33.0076 61.0398C32.6596 60.2118 32.4856 59.2998 32.4856 58.3038C32.4856 57.2838 32.6596 56.3598 33.0076 55.5318C33.3676 54.7038 33.8596 54.0018 34.4836 53.4258C35.1076 52.8378 35.8396 52.3878 36.6796 52.0758C37.5196 51.7638 38.4256 51.6078 39.3976 51.6078C40.2976 51.6078 41.1796 51.7698 42.0436 52.0938C42.9196 52.4058 43.6276 52.8678 44.1676 53.4798L42.0796 55.5678C41.7916 55.1718 41.4136 54.8778 40.9456 54.6858C40.4776 54.4938 39.9976 54.3978 39.5056 54.3978C38.9656 54.3978 38.4676 54.4998 38.0116 54.7038C37.5676 54.8958 37.1836 55.1658 36.8596 55.5138C36.5356 55.8618 36.2836 56.2758 36.1036 56.7558C35.9236 57.2238 35.8336 57.7398 35.8336 58.3038C35.8336 58.8798 35.9236 59.4078 36.1036 59.8878C36.2836 60.3678 36.5296 60.7818 36.8416 61.1298C37.1656 61.4658 37.5496 61.7298 37.9936 61.9218C38.4376 62.1138 38.9236 62.2098 39.4516 62.2098C40.0636 62.2098 40.5976 62.0898 41.0536 61.8498C41.5096 61.6098 41.8756 61.2978 42.1516 60.9138L44.2936 62.9298ZM45.6128 64.6938V51.9498H48.7088V62.0118H53.6408V64.6938H45.6128ZM65.448 59.8878C65.448 60.6558 65.316 61.3578 65.052 61.9938C64.8 62.6178 64.434 63.1578 63.954 63.6138C63.474 64.0578 62.892 64.4058 62.208 64.6578C61.536 64.9098 60.786 65.0358 59.958 65.0358C59.118 65.0358 58.362 64.9098 57.69 64.6578C57.018 64.4058 56.448 64.0578 55.98 63.6138C55.512 63.1578 55.152 62.6178 54.9 61.9938C54.648 61.3578 54.522 60.6558 54.522 59.8878V51.9498H57.582V59.6358C57.582 59.9838 57.624 60.3138 57.708 60.6258C57.804 60.9378 57.942 61.2198 58.122 61.4718C58.314 61.7118 58.56 61.9038 58.86 62.0478C59.172 62.1918 59.544 62.2638 59.976 62.2638C60.408 62.2638 60.774 62.1918 61.074 62.0478C61.386 61.9038 61.638 61.7118 61.83 61.4718C62.022 61.2198 62.16 60.9378 62.244 60.6258C62.328 60.3138 62.37 59.9838 62.37 59.6358V51.9498H65.448V59.8878ZM67.937 64.6938V51.9498H76.505V54.5598H70.907V56.9538H76.199V59.4198H70.907V62.0658H76.829V64.6938H67.937ZM78.8706 64.6938V51.9498H81.9666V62.0118H86.8986V64.6938H78.8706ZM88.3453 64.6938V51.9498H96.9133V54.5598H91.3153V56.9538H96.6073V59.4198H91.3153V62.0658H97.2373V64.6938H88.3453ZM106.011 55.2618C105.747 54.9258 105.399 54.6618 104.967 54.4698C104.547 54.2658 104.139 54.1638 103.743 54.1638C103.539 54.1638 103.329 54.1818 103.113 54.2178C102.909 54.2538 102.723 54.3258 102.555 54.4338C102.387 54.5298 102.243 54.6618 102.123 54.8298C102.015 54.9858 101.961 55.1898 101.961 55.4418C101.961 55.6578 102.003 55.8378 102.087 55.9818C102.183 56.1258 102.315 56.2518 102.483 56.3598C102.663 56.4678 102.873 56.5698 103.113 56.6658C103.353 56.7498 103.623 56.8398 103.923 56.9358C104.355 57.0798 104.805 57.2418 105.273 57.4218C105.741 57.5898 106.167 57.8178 106.551 58.1058C106.935 58.3938 107.253 58.7538 107.505 59.1858C107.757 59.6058 107.883 60.1338 107.883 60.7698C107.883 61.5018 107.745 62.1378 107.469 62.6778C107.205 63.2058 106.845 63.6438 106.389 63.9918C105.933 64.3398 105.411 64.5978 104.823 64.7658C104.235 64.9338 103.629 65.0178 103.005 65.0178C102.093 65.0178 101.211 64.8618 100.359 64.5498C99.5068 64.2258 98.7988 63.7698 98.2348 63.1818L100.251 61.1298C100.563 61.5138 100.971 61.8378 101.475 62.1018C101.991 62.3538 102.501 62.4798 103.005 62.4798C103.233 62.4798 103.455 62.4558 103.671 62.4078C103.887 62.3598 104.073 62.2818 104.229 62.1738C104.397 62.0658 104.529 61.9218 104.625 61.7418C104.721 61.5618 104.769 61.3458 104.769 61.0938C104.769 60.8538 104.709 60.6498 104.589 60.4818C104.469 60.3138 104.295 60.1638 104.067 60.0318C103.851 59.8878 103.575 59.7618 103.239 59.6538C102.915 59.5338 102.543 59.4078 102.123 59.2758C101.715 59.1438 101.313 58.9878 100.917 58.8078C100.533 58.6278 100.185 58.3998 99.8728 58.1238C99.5728 57.8358 99.3268 57.4938 99.1348 57.0978C98.9548 56.6898 98.8648 56.1978 98.8648 55.6218C98.8648 54.9138 99.0088 54.3078 99.2968 53.8038C99.5848 53.2998 99.9628 52.8858 100.431 52.5618C100.899 52.2378 101.427 52.0038 102.015 51.8598C102.603 51.7038 103.197 51.6258 103.797 51.6258C104.517 51.6258 105.249 51.7578 105.993 52.0218C106.749 52.2858 107.409 52.6758 107.973 53.1918L106.011 55.2618ZM116.646 55.2618C116.382 54.9258 116.034 54.6618 115.602 54.4698C115.182 54.2658 114.774 54.1638 114.378 54.1638C114.174 54.1638 113.964 54.1818 113.748 54.2178C113.544 54.2538 113.358 54.3258 113.19 54.4338C113.022 54.5298 112.878 54.6618 112.758 54.8298C112.65 54.9858 112.596 55.1898 112.596 55.4418C112.596 55.6578 112.638 55.8378 112.722 55.9818C112.818 56.1258 112.95 56.2518 113.118 56.3598C113.298 56.4678 113.508 56.5698 113.748 56.6658C113.988 56.7498 114.258 56.8398 114.558 56.9358C114.99 57.0798 115.44 57.2418 115.908 57.4218C116.376 57.5898 116.802 57.8178 117.186 58.1058C117.57 58.3938 117.888 58.7538 118.14 59.1858C118.392 59.6058 118.518 60.1338 118.518 60.7698C118.518 61.5018 118.38 62.1378 118.104 62.6778C117.84 63.2058 117.48 63.6438 117.024 63.9918C116.568 64.3398 116.046 64.5978 115.458 64.7658C114.87 64.9338 114.264 65.0178 113.64 65.0178C112.728 65.0178 111.846 64.8618 110.994 64.5498C110.142 64.2258 109.434 63.7698 108.87 63.1818L110.886 61.1298C111.198 61.5138 111.606 61.8378 112.11 62.1018C112.626 62.3538 113.136 62.4798 113.64 62.4798C113.868 62.4798 114.09 62.4558 114.306 62.4078C114.522 62.3598 114.708 62.2818 114.864 62.1738C115.032 62.0658 115.164 61.9218 115.26 61.7418C115.356 61.5618 115.404 61.3458 115.404 61.0938C115.404 60.8538 115.344 60.6498 115.224 60.4818C115.104 60.3138 114.93 60.1638 114.702 60.0318C114.486 59.8878 114.21 59.7618 113.874 59.6538C113.55 59.5338 113.178 59.4078 112.758 59.2758C112.35 59.1438 111.948 58.9878 111.552 58.8078C111.168 58.6278 110.82 58.3998 110.508 58.1238C110.208 57.8358 109.962 57.4938 109.77 57.0978C109.59 56.6898 109.5 56.1978 109.5 55.6218C109.5 54.9138 109.644 54.3078 109.932 53.8038C110.22 53.2998 110.598 52.8858 111.066 52.5618C111.534 52.2378 112.062 52.0038 112.65 51.8598C113.238 51.7038 113.832 51.6258 114.432 51.6258C115.152 51.6258 115.884 51.7578 116.628 52.0218C117.384 52.2858 118.044 52.6758 118.608 53.1918L116.646 55.2618Z" fill="#FAF49D"/>
<defs>
<filter id="filter0_d" x="0" y="0" width="152" height="118" filterUnits="userSpaceOnUse" color-interpolation-filters="sRGB">
<feFlood flood-opacity="0" result="BackgroundImageFix"/>
<feColorMatrix in="SourceAlpha" type="matrix" values="0 0 0 0 0 0 0 0 0 0 0 0 0 0 0 0 0 0 127 0"/>
<feOffset dy="4"/>
<feGaussianBlur stdDeviation="2"/>
<feColorMatrix type="matrix" values="0 0 0 0 0 0 0 0 0 0 0 0 0 0 0 0 0 0 0.25 0"/>
<feBlend mode="normal" in2="BackgroundImageFix" result="effect1_dropShadow"/>
<feBlend mode="normal" in="SourceGraphic" in2="effect1_dropShadow" result="shape"/>
</filter>
</defs>
</svg>
