<svg width="152" height="110" viewBox="0 0 152 110" fill="none" xmlns="http://www.w3.org/2000/svg">
<g filter="url(#filter0_d)">
<path d="M4 20C4 8.95431 12.9543 0 24 0H128C139.046 0 148 8.95431 148 20V110H4V20Z" fill="#D86B8C"/>
</g>
<path d="M40.7485 36.5778V46.6938H37.6705V36.5778H34.0705V33.9498H44.3485V36.5778H40.7485ZM53.7995 46.6938V41.3658H48.8315V46.6938H45.7535V33.9498H48.8315V38.7738H53.7995V33.9498H56.8775V46.6938H53.7995ZM59.4995 46.6938V33.9498H68.0675V36.5598H62.4695V38.9538H67.7615V41.4198H62.4695V44.0658H68.3915V46.6938H59.4995ZM83.0331 46.6938L77.9031 38.3598H77.8491L77.9211 46.6938H74.9331V33.9498H78.4431L83.5551 42.2658H83.6091L83.5371 33.9498H86.5251V46.6938H83.0331ZM89.1538 46.6938V33.9498H97.7218V36.5598H92.1238V38.9538H97.4158V41.4198H92.1238V44.0658H98.0458V46.6938H89.1538ZM113.587 46.6938H110.545L108.025 38.0718H107.971L105.451 46.6938H102.391L98.7734 33.9498H102.085L104.101 42.4278H104.155L106.423 33.9498H109.627L111.913 42.4278H111.967L114.019 33.9498H117.223L113.587 46.6938ZM67.6487 63.9198C67.0247 64.2438 66.2927 64.5078 65.4527 64.7118C64.6247 64.9158 63.7187 65.0178 62.7347 65.0178C61.7147 65.0178 60.7727 64.8558 59.9087 64.5318C59.0567 64.2078 58.3187 63.7518 57.6947 63.1638C57.0827 62.5758 56.6027 61.8738 56.2547 61.0578C55.9067 60.2298 55.7327 59.3118 55.7327 58.3038C55.7327 57.2838 55.9067 56.3598 56.2547 55.5318C56.6147 54.7038 57.1067 54.0018 57.7307 53.4258C58.3547 52.8378 59.0867 52.3878 59.9267 52.0758C60.7667 51.7638 61.6727 51.6078 62.6447 51.6078C63.6527 51.6078 64.5887 51.7638 65.4527 52.0758C66.3167 52.3758 67.0187 52.7838 67.5587 53.2998L65.6147 55.5138C65.3147 55.1658 64.9187 54.8838 64.4267 54.6678C63.9347 54.4398 63.3767 54.3258 62.7527 54.3258C62.2127 54.3258 61.7147 54.4278 61.2587 54.6318C60.8027 54.8238 60.4067 55.0998 60.0707 55.4598C59.7347 55.8078 59.4707 56.2278 59.2787 56.7198C59.0987 57.1998 59.0087 57.7278 59.0087 58.3038C59.0087 58.8918 59.0927 59.4318 59.2607 59.9238C59.4287 60.4158 59.6747 60.8418 59.9987 61.2018C60.3347 61.5498 60.7427 61.8258 61.2227 62.0298C61.7147 62.2218 62.2727 62.3178 62.8967 62.3178C63.2567 62.3178 63.5987 62.2938 63.9227 62.2458C64.2467 62.1858 64.5467 62.0958 64.8227 61.9758V59.6538H62.3927V57.1698H67.6487V63.9198ZM70.1607 64.6938V51.9498H73.2567V64.6938H70.1607ZM82.7131 64.6938L79.9591 59.6358H78.9151V64.6938H75.8911V51.9498H80.7511C81.3631 51.9498 81.9571 52.0158 82.5331 52.1478C83.1211 52.2678 83.6431 52.4778 84.0991 52.7778C84.5671 53.0778 84.9391 53.4738 85.2151 53.9658C85.4911 54.4578 85.6291 55.0698 85.6291 55.8018C85.6291 56.6658 85.3951 57.3918 84.9271 57.9798C84.4591 58.5678 83.8111 58.9878 82.9831 59.2398L86.3131 64.6938H82.7131ZM82.5871 55.8558C82.5871 55.5558 82.5211 55.3158 82.3891 55.1358C82.2691 54.9438 82.1071 54.7998 81.9031 54.7038C81.7111 54.5958 81.4891 54.5238 81.2371 54.4878C80.9971 54.4518 80.7631 54.4338 80.5351 54.4338H78.8971V57.4038H80.3551C80.6071 57.4038 80.8651 57.3858 81.1291 57.3498C81.3931 57.3018 81.6331 57.2238 81.8491 57.1158C82.0651 57.0078 82.2391 56.8518 82.3711 56.6478C82.5151 56.4438 82.5871 56.1798 82.5871 55.8558ZM87.8267 64.6938V51.9498H90.9227V62.0118H95.8547V64.6938H87.8267Z" fill="#FAF49D"/>
<defs>
<filter id="filter0_d" x="0" y="0" width="152" height="118" filterUnits="userSpaceOnUse" color-interpolation-filters="sRGB">
<feFlood flood-opacity="0" result="BackgroundImageFix"/>
<feColorMatrix in="SourceAlpha" type="matrix" values="0 0 0 0 0 0 0 0 0 0 0 0 0 0 0 0 0 0 127 0"/>
<feOffset dy="4"/>
<feGaussianBlur stdDeviation="2"/>
<feColorMatrix type="matrix" values="0 0 0 0 0 0 0 0 0 0 0 0 0 0 0 0 0 0 0.25 0"/>
<feBlend mode="normal" in2="BackgroundImageFix" result="effect1_dropShadow"/>
<feBlend mode="normal" in="SourceGraphic" in2="effect1_dropShadow" result="shape"/>
</filter>
</defs>
</svg>
