<svg width="152" height="110" viewBox="0 0 152 110" fill="none" xmlns="http://www.w3.org/2000/svg">
<g filter="url(#filter0_d)">
<path d="M4 20C4 8.95431 12.9543 0 24 0H128C139.046 0 148 8.95431 148 20V110H4V20Z" fill="#D86B8C"/>
</g>
<path d="M30.4078 55.6938V42.9498H38.9758V45.5598H33.3778V47.9538H38.6698V50.4198H33.3778V53.0658H39.2998V55.6938H30.4078ZM51.0073 46.8738C51.0073 47.6178 50.8693 48.2478 50.5933 48.7638C50.3173 49.2678 49.9453 49.6758 49.4773 49.9878C49.0093 50.2998 48.4693 50.5278 47.8573 50.6718C47.2453 50.8158 46.6093 50.8878 45.9493 50.8878H44.4193V55.6938H41.3413V42.9498H46.0213C46.7173 42.9498 47.3653 43.0218 47.9653 43.1658C48.5773 43.2978 49.1053 43.5198 49.5493 43.8318C50.0053 44.1318 50.3593 44.5338 50.6113 45.0378C50.8753 45.5298 51.0073 46.1418 51.0073 46.8738ZM47.9293 46.8918C47.9293 46.5918 47.8693 46.3458 47.7493 46.1538C47.6293 45.9618 47.4673 45.8118 47.2633 45.7038C47.0593 45.5958 46.8253 45.5238 46.5613 45.4878C46.3093 45.4518 46.0453 45.4338 45.7693 45.4338H44.4193V48.4398H45.7153C46.0033 48.4398 46.2793 48.4158 46.5433 48.3678C46.8073 48.3198 47.0413 48.2358 47.2453 48.1158C47.4613 47.9958 47.6293 47.8398 47.7493 47.6478C47.8693 47.4438 47.9293 47.1918 47.9293 46.8918ZM52.855 55.6938V42.9498H55.951V55.6938H52.855ZM68.2515 46.8738C68.2515 47.6178 68.1135 48.2478 67.8375 48.7638C67.5615 49.2678 67.1895 49.6758 66.7215 49.9878C66.2535 50.2998 65.7135 50.5278 65.1015 50.6718C64.4895 50.8158 63.8535 50.8878 63.1935 50.8878H61.6635V55.6938H58.5855V42.9498H63.2655C63.9615 42.9498 64.6095 43.0218 65.2095 43.1658C65.8215 43.2978 66.3495 43.5198 66.7935 43.8318C67.2495 44.1318 67.6035 44.5338 67.8555 45.0378C68.1195 45.5298 68.2515 46.1418 68.2515 46.8738ZM65.1735 46.8918C65.1735 46.5918 65.1135 46.3458 64.9935 46.1538C64.8735 45.9618 64.7115 45.8118 64.5075 45.7038C64.3035 45.5958 64.0695 45.5238 63.8055 45.4878C63.5535 45.4518 63.2895 45.4338 63.0135 45.4338H61.6635V48.4398H62.9595C63.2475 48.4398 63.5235 48.4158 63.7875 48.3678C64.0515 48.3198 64.2855 48.2358 64.4895 48.1158C64.7055 47.9958 64.8735 47.8398 64.9935 47.6478C65.1135 47.4438 65.1735 47.1918 65.1735 46.8918ZM78.1452 55.6938V50.3658H73.1772V55.6938H70.0992V42.9498H73.1772V47.7738H78.1452V42.9498H81.2232V55.6938H78.1452ZM92.4853 55.6938L91.4953 53.1918H86.5633L85.6273 55.6938H82.2792L87.6253 42.9498H90.6133L95.9053 55.6938H92.4853ZM89.0653 46.3518L87.4453 50.7258H90.6493L89.0653 46.3518ZM105.059 55.6938L99.9285 47.3598H99.8745L99.9465 55.6938H96.9585V42.9498H100.469L105.581 51.2658H105.635L105.563 42.9498H108.551V55.6938H105.059ZM117.371 50.2938V55.6938H114.293V50.2938L109.505 42.9498H113.231L115.949 47.6658L118.667 42.9498H122.267L117.371 50.2938Z" fill="#FAF49D"/>
<defs>
<filter id="filter0_d" x="0" y="0" width="152" height="118" filterUnits="userSpaceOnUse" color-interpolation-filters="sRGB">
<feFlood flood-opacity="0" result="BackgroundImageFix"/>
<feColorMatrix in="SourceAlpha" type="matrix" values="0 0 0 0 0 0 0 0 0 0 0 0 0 0 0 0 0 0 127 0"/>
<feOffset dy="4"/>
<feGaussianBlur stdDeviation="2"/>
<feColorMatrix type="matrix" values="0 0 0 0 0 0 0 0 0 0 0 0 0 0 0 0 0 0 0.25 0"/>
<feBlend mode="normal" in2="BackgroundImageFix" result="effect1_dropShadow"/>
<feBlend mode="normal" in="SourceGraphic" in2="effect1_dropShadow" result="shape"/>
</filter>
</defs>
</svg>
