<svg width="152" height="110" viewBox="0 0 152 110" fill="none" xmlns="http://www.w3.org/2000/svg">
<g filter="url(#filter0_d)">
<path d="M4 20C4 8.95431 12.9543 0 24 0H128C139.046 0 148 8.95431 148 20V110H4V20Z" fill="#D86B8C"/>
</g>
<path d="M36.4421 42.3378C36.4421 42.8418 36.3821 43.3698 36.2621 43.9218C36.1541 44.4738 35.9441 44.9838 35.6321 45.4518C35.3321 45.9078 34.9061 46.2858 34.3541 46.5858C33.8141 46.8858 33.1121 47.0358 32.2481 47.0358C31.1681 47.0358 30.2681 46.7598 29.5481 46.2078C28.8281 45.6438 28.3481 44.9238 28.1081 44.0478L30.8261 43.1298C30.9101 43.4658 31.0601 43.7358 31.2761 43.9398C31.5041 44.1438 31.7801 44.2458 32.1041 44.2458C32.6081 44.2458 32.9381 44.0718 33.0941 43.7238C33.2621 43.3758 33.3461 42.9198 33.3461 42.3558V33.9498H36.4421V42.3378ZM52.2875 40.2678C52.2875 41.2758 52.1135 42.1998 51.7655 43.0398C51.4175 43.8678 50.9315 44.5818 50.3075 45.1818C49.6955 45.7698 48.9635 46.2258 48.1115 46.5498C47.2595 46.8738 46.3355 47.0358 45.3395 47.0358C44.3435 47.0358 43.4195 46.8738 42.5675 46.5498C41.7275 46.2258 40.9955 45.7698 40.3715 45.1818C39.7595 44.5818 39.2795 43.8678 38.9315 43.0398C38.5835 42.1998 38.4095 41.2758 38.4095 40.2678C38.4095 39.2478 38.5835 38.3298 38.9315 37.5138C39.2795 36.6858 39.7595 35.9838 40.3715 35.4078C40.9955 34.8318 41.7275 34.3878 42.5675 34.0758C43.4195 33.7638 44.3435 33.6078 45.3395 33.6078C46.3355 33.6078 47.2595 33.7638 48.1115 34.0758C48.9635 34.3878 49.6955 34.8318 50.3075 35.4078C50.9315 35.9838 51.4175 36.6858 51.7655 37.5138C52.1135 38.3298 52.2875 39.2478 52.2875 40.2678ZM48.9935 40.2678C48.9935 39.7158 48.9035 39.1998 48.7235 38.7198C48.5435 38.2398 48.2915 37.8318 47.9675 37.4958C47.6555 37.1478 47.2715 36.8778 46.8155 36.6858C46.3715 36.4818 45.8795 36.3798 45.3395 36.3798C44.7995 36.3798 44.3075 36.4818 43.8635 36.6858C43.4195 36.8778 43.0355 37.1478 42.7115 37.4958C42.3875 37.8318 42.1355 38.2398 41.9555 38.7198C41.7875 39.1998 41.7035 39.7158 41.7035 40.2678C41.7035 40.8438 41.7935 41.3778 41.9735 41.8698C42.1535 42.3498 42.3995 42.7638 42.7115 43.1118C43.0355 43.4598 43.4195 43.7358 43.8635 43.9398C44.3075 44.1318 44.7995 44.2278 45.3395 44.2278C45.8795 44.2278 46.3715 44.1318 46.8155 43.9398C47.2595 43.7358 47.6435 43.4598 47.9675 43.1118C48.2915 42.7638 48.5435 42.3498 48.7235 41.8698C48.9035 41.3778 48.9935 40.8438 48.9935 40.2678ZM61.046 37.2618C60.782 36.9258 60.434 36.6618 60.002 36.4698C59.582 36.2658 59.174 36.1638 58.778 36.1638C58.574 36.1638 58.364 36.1818 58.148 36.2178C57.944 36.2538 57.758 36.3258 57.59 36.4338C57.422 36.5298 57.278 36.6618 57.158 36.8298C57.05 36.9858 56.996 37.1898 56.996 37.4418C56.996 37.6578 57.038 37.8378 57.122 37.9818C57.218 38.1258 57.35 38.2518 57.518 38.3598C57.698 38.4678 57.908 38.5698 58.148 38.6658C58.388 38.7498 58.658 38.8398 58.958 38.9358C59.39 39.0798 59.84 39.2418 60.308 39.4218C60.776 39.5898 61.202 39.8178 61.586 40.1058C61.97 40.3938 62.288 40.7538 62.54 41.1858C62.792 41.6058 62.918 42.1338 62.918 42.7698C62.918 43.5018 62.78 44.1378 62.504 44.6778C62.24 45.2058 61.88 45.6438 61.424 45.9918C60.968 46.3398 60.446 46.5978 59.858 46.7658C59.27 46.9338 58.664 47.0178 58.04 47.0178C57.128 47.0178 56.246 46.8618 55.394 46.5498C54.542 46.2258 53.834 45.7698 53.27 45.1818L55.286 43.1298C55.598 43.5138 56.006 43.8378 56.51 44.1018C57.026 44.3538 57.536 44.4798 58.04 44.4798C58.268 44.4798 58.49 44.4558 58.706 44.4078C58.922 44.3598 59.108 44.2818 59.264 44.1738C59.432 44.0658 59.564 43.9218 59.66 43.7418C59.756 43.5618 59.804 43.3458 59.804 43.0938C59.804 42.8538 59.744 42.6498 59.624 42.4818C59.504 42.3138 59.33 42.1638 59.102 42.0318C58.886 41.8878 58.61 41.7618 58.274 41.6538C57.95 41.5338 57.578 41.4078 57.158 41.2758C56.75 41.1438 56.348 40.9878 55.952 40.8078C55.568 40.6278 55.22 40.3998 54.908 40.1238C54.608 39.8358 54.362 39.4938 54.17 39.0978C53.99 38.6898 53.9 38.1978 53.9 37.6218C53.9 36.9138 54.044 36.3078 54.332 35.8038C54.62 35.2998 54.998 34.8858 55.466 34.5618C55.934 34.2378 56.462 34.0038 57.05 33.8598C57.638 33.7038 58.232 33.6258 58.832 33.6258C59.552 33.6258 60.284 33.7578 61.028 34.0218C61.784 34.2858 62.444 34.6758 63.008 35.1918L61.046 37.2618ZM72.9948 46.6938V41.3658H68.0268V46.6938H64.9488V33.9498H68.0268V38.7738H72.9948V33.9498H76.0728V46.6938H72.9948ZM91.5185 46.6938L90.5285 44.1918H85.5965L84.6605 46.6938H81.3125L86.6585 33.9498H89.6465L94.9385 46.6938H91.5185ZM88.0985 37.3518L86.4785 41.7258H89.6825L88.0985 37.3518ZM104.092 46.6938L98.9617 38.3598H98.9077L98.9797 46.6938H95.9917V33.9498H99.5017L104.614 42.2658H104.668L104.596 33.9498H107.584V46.6938H104.092ZM122.11 40.2858C122.11 41.4018 121.9 42.3678 121.48 43.1838C121.072 43.9878 120.526 44.6538 119.842 45.1818C119.17 45.6978 118.408 46.0818 117.556 46.3338C116.704 46.5738 115.84 46.6938 114.964 46.6938H110.212V33.9498H114.82C115.72 33.9498 116.608 34.0578 117.484 34.2738C118.36 34.4778 119.14 34.8258 119.824 35.3178C120.508 35.7978 121.06 36.4458 121.48 37.2618C121.9 38.0778 122.11 39.0858 122.11 40.2858ZM118.906 40.2858C118.906 39.5658 118.786 38.9718 118.546 38.5038C118.318 38.0238 118.006 37.6458 117.61 37.3698C117.226 37.0818 116.782 36.8778 116.278 36.7578C115.786 36.6378 115.276 36.5778 114.748 36.5778H113.218V44.0298H114.676C115.228 44.0298 115.756 43.9698 116.26 43.8498C116.776 43.7178 117.226 43.5078 117.61 43.2198C118.006 42.9318 118.318 42.5478 118.546 42.0678C118.786 41.5878 118.906 40.9938 118.906 40.2858ZM63.4538 62.9298C62.8898 63.5778 62.1938 64.0938 61.3658 64.4778C60.5378 64.8498 59.5838 65.0358 58.5038 65.0358C57.5198 65.0358 56.6078 64.8738 55.7678 64.5498C54.9398 64.2258 54.2198 63.7698 53.6078 63.1818C52.9958 62.5818 52.5158 61.8678 52.1678 61.0398C51.8198 60.2118 51.6458 59.2998 51.6458 58.3038C51.6458 57.2838 51.8198 56.3598 52.1678 55.5318C52.5278 54.7038 53.0198 54.0018 53.6438 53.4258C54.2678 52.8378 54.9998 52.3878 55.8398 52.0758C56.6798 51.7638 57.5858 51.6078 58.5578 51.6078C59.4578 51.6078 60.3398 51.7698 61.2038 52.0938C62.0798 52.4058 62.7878 52.8678 63.3278 53.4798L61.2398 55.5678C60.9518 55.1718 60.5738 54.8778 60.1058 54.6858C59.6378 54.4938 59.1578 54.3978 58.6658 54.3978C58.1258 54.3978 57.6278 54.4998 57.1718 54.7038C56.7278 54.8958 56.3438 55.1658 56.0198 55.5138C55.6958 55.8618 55.4438 56.2758 55.2638 56.7558C55.0838 57.2238 54.9938 57.7398 54.9938 58.3038C54.9938 58.8798 55.0838 59.4078 55.2638 59.8878C55.4438 60.3678 55.6898 60.7818 56.0018 61.1298C56.3258 61.4658 56.7098 61.7298 57.1538 61.9218C57.5978 62.1138 58.0838 62.2098 58.6118 62.2098C59.2238 62.2098 59.7578 62.0898 60.2138 61.8498C60.6698 61.6098 61.0358 61.2978 61.3118 60.9138L63.4538 62.9298ZM72.819 64.6938V59.3658H67.851V64.6938H64.773V51.9498H67.851V56.7738H72.819V51.9498H75.897V64.6938H72.819ZM78.5191 64.6938V51.9498H87.0871V54.5598H81.4891V56.9538H86.7811V59.4198H81.4891V62.0658H87.4111V64.6938H78.5191ZM96.2747 64.6938L93.5207 59.6358H92.4767V64.6938H89.4527V51.9498H94.3127C94.9247 51.9498 95.5187 52.0158 96.0947 52.1478C96.6827 52.2678 97.2047 52.4778 97.6607 52.7778C98.1287 53.0778 98.5007 53.4738 98.7767 53.9658C99.0527 54.4578 99.1907 55.0698 99.1907 55.8018C99.1907 56.6658 98.9567 57.3918 98.4887 57.9798C98.0207 58.5678 97.3727 58.9878 96.5447 59.2398L99.8747 64.6938H96.2747ZM96.1487 55.8558C96.1487 55.5558 96.0827 55.3158 95.9507 55.1358C95.8307 54.9438 95.6687 54.7998 95.4647 54.7038C95.2727 54.5958 95.0507 54.5238 94.7987 54.4878C94.5587 54.4518 94.3247 54.4338 94.0967 54.4338H92.4587V57.4038H93.9167C94.1687 57.4038 94.4267 57.3858 94.6907 57.3498C94.9547 57.3018 95.1947 57.2238 95.4107 57.1158C95.6267 57.0078 95.8007 56.8518 95.9327 56.6478C96.0767 56.4438 96.1487 56.1798 96.1487 55.8558Z" fill="#FAF49D"/>
<defs>
<filter id="filter0_d" x="0" y="0" width="152" height="118" filterUnits="userSpaceOnUse" color-interpolation-filters="sRGB">
<feFlood flood-opacity="0" result="BackgroundImageFix"/>
<feColorMatrix in="SourceAlpha" type="matrix" values="0 0 0 0 0 0 0 0 0 0 0 0 0 0 0 0 0 0 127 0"/>
<feOffset dy="4"/>
<feGaussianBlur stdDeviation="2"/>
<feColorMatrix type="matrix" values="0 0 0 0 0 0 0 0 0 0 0 0 0 0 0 0 0 0 0.25 0"/>
<feBlend mode="normal" in2="BackgroundImageFix" result="effect1_dropShadow"/>
<feBlend mode="normal" in="SourceGraphic" in2="effect1_dropShadow" result="shape"/>
</filter>
</defs>
</svg>
