<svg width="152" height="110" viewBox="0 0 152 110" fill="none" xmlns="http://www.w3.org/2000/svg">
<g filter="url(#filter0_d)">
<path d="M4 20C4 8.95431 12.9543 0 24 0H128C139.046 0 148 8.95431 148 20V110H4V20Z" fill="#D86B8C"/>
</g>
<path d="M53.6206 36.5778V39.2058H58.5526V41.7438H53.6206V46.6938H50.5786V33.9498H58.9666V36.5778H53.6206ZM60.9497 46.6938V33.9498H64.0457V46.6938H60.9497ZM74.7802 46.6938L69.6502 38.3598H69.5962L69.6682 46.6938H66.6802V33.9498H70.1902L75.3022 42.2658H75.3562L75.2842 33.9498H78.2722V46.6938H74.7802ZM89.5409 46.6938L88.5509 44.1918H83.6189L82.6829 46.6938H79.3349L84.6809 33.9498H87.6689L92.9609 46.6938H89.5409ZM86.1209 37.3518L84.5009 41.7258H87.7049L86.1209 37.3518ZM94.0142 46.6938V33.9498H97.1102V44.0118H102.042V46.6938H94.0142ZM36.2333 64.6938L36.3053 55.6758H36.2513L32.9393 64.6938H30.7793L27.5573 55.6758H27.5033L27.5753 64.6938H24.6773V51.9498H29.0513L31.9493 60.1218H32.0213L34.7933 51.9498H39.2393V64.6938H36.2333ZM50.5087 64.6938L49.5187 62.1918H44.5867L43.6507 64.6938H40.3027L45.6487 51.9498H48.6367L53.9287 64.6938H50.5087ZM47.0887 55.3518L45.4687 59.7258H48.6727L47.0887 55.3518ZM62.776 64.6938L58.042 58.8258H58.006V64.6938H54.982V51.9498H58.006V57.1338H58.06L62.614 51.9498H66.466L60.976 57.8178L66.79 64.6938H62.776ZM67.7788 64.6938V51.9498H76.3468V54.5598H70.7488V56.9538H76.0408V59.4198H70.7488V62.0658H76.6708V64.6938H67.7788ZM91.9964 58.2678C91.9964 59.2758 91.8224 60.1998 91.4744 61.0398C91.1264 61.8678 90.6404 62.5818 90.0164 63.1818C89.4044 63.7698 88.6724 64.2258 87.8204 64.5498C86.9684 64.8738 86.0444 65.0358 85.0484 65.0358C84.0524 65.0358 83.1284 64.8738 82.2764 64.5498C81.4364 64.2258 80.7044 63.7698 80.0804 63.1818C79.4684 62.5818 78.9884 61.8678 78.6404 61.0398C78.2924 60.1998 78.1184 59.2758 78.1184 58.2678C78.1184 57.2478 78.2924 56.3298 78.6404 55.5138C78.9884 54.6858 79.4684 53.9838 80.0804 53.4078C80.7044 52.8318 81.4364 52.3878 82.2764 52.0758C83.1284 51.7638 84.0524 51.6078 85.0484 51.6078C86.0444 51.6078 86.9684 51.7638 87.8204 52.0758C88.6724 52.3878 89.4044 52.8318 90.0164 53.4078C90.6404 53.9838 91.1264 54.6858 91.4744 55.5138C91.8224 56.3298 91.9964 57.2478 91.9964 58.2678ZM88.7024 58.2678C88.7024 57.7158 88.6124 57.1998 88.4324 56.7198C88.2524 56.2398 88.0004 55.8318 87.6764 55.4958C87.3644 55.1478 86.9804 54.8778 86.5244 54.6858C86.0804 54.4818 85.5884 54.3798 85.0484 54.3798C84.5084 54.3798 84.0164 54.4818 83.5724 54.6858C83.1284 54.8778 82.7444 55.1478 82.4204 55.4958C82.0964 55.8318 81.8444 56.2398 81.6644 56.7198C81.4964 57.1998 81.4124 57.7158 81.4124 58.2678C81.4124 58.8438 81.5024 59.3778 81.6824 59.8698C81.8624 60.3498 82.1084 60.7638 82.4204 61.1118C82.7444 61.4598 83.1284 61.7358 83.5724 61.9398C84.0164 62.1318 84.5084 62.2278 85.0484 62.2278C85.5884 62.2278 86.0804 62.1318 86.5244 61.9398C86.9684 61.7358 87.3524 61.4598 87.6764 61.1118C88.0004 60.7638 88.2524 60.3498 88.4324 59.8698C88.6124 59.3778 88.7024 58.8438 88.7024 58.2678ZM100.13 64.6938H97.052L92.228 51.9498H95.684L98.636 60.9858H98.708L101.642 51.9498H105.044L100.13 64.6938ZM106.082 64.6938V51.9498H114.65V54.5598H109.052V56.9538H114.344V59.4198H109.052V62.0658H114.974V64.6938H106.082ZM123.837 64.6938L121.083 59.6358H120.039V64.6938H117.015V51.9498H121.875C122.487 51.9498 123.081 52.0158 123.657 52.1478C124.245 52.2678 124.767 52.4778 125.223 52.7778C125.691 53.0778 126.063 53.4738 126.339 53.9658C126.615 54.4578 126.753 55.0698 126.753 55.8018C126.753 56.6658 126.519 57.3918 126.051 57.9798C125.583 58.5678 124.935 58.9878 124.107 59.2398L127.437 64.6938H123.837ZM123.711 55.8558C123.711 55.5558 123.645 55.3158 123.513 55.1358C123.393 54.9438 123.231 54.7998 123.027 54.7038C122.835 54.5958 122.613 54.5238 122.361 54.4878C122.121 54.4518 121.887 54.4338 121.659 54.4338H120.021V57.4038H121.479C121.731 57.4038 121.989 57.3858 122.253 57.3498C122.517 57.3018 122.757 57.2238 122.973 57.1158C123.189 57.0078 123.363 56.8518 123.495 56.6478C123.639 56.4438 123.711 56.1798 123.711 55.8558Z" fill="#FAF49D"/>
<defs>
<filter id="filter0_d" x="0" y="0" width="152" height="118" filterUnits="userSpaceOnUse" color-interpolation-filters="sRGB">
<feFlood flood-opacity="0" result="BackgroundImageFix"/>
<feColorMatrix in="SourceAlpha" type="matrix" values="0 0 0 0 0 0 0 0 0 0 0 0 0 0 0 0 0 0 127 0"/>
<feOffset dy="4"/>
<feGaussianBlur stdDeviation="2"/>
<feColorMatrix type="matrix" values="0 0 0 0 0 0 0 0 0 0 0 0 0 0 0 0 0 0 0.25 0"/>
<feBlend mode="normal" in2="BackgroundImageFix" result="effect1_dropShadow"/>
<feBlend mode="normal" in="SourceGraphic" in2="effect1_dropShadow" result="shape"/>
</filter>
</defs>
</svg>
