<svg width="152" height="110" viewBox="0 0 152 110" fill="none" xmlns="http://www.w3.org/2000/svg">
<g filter="url(#filter0_d)">
<path d="M4 20C4 8.95431 12.9543 0 24 0H128C139.046 0 148 8.95431 148 20V110H4V20Z" fill="#D86B8C"/>
</g>
<path d="M29.395 46.8738C29.395 47.6178 29.257 48.2478 28.981 48.7638C28.705 49.2678 28.333 49.6758 27.865 49.9878C27.397 50.2998 26.857 50.5278 26.245 50.6718C25.633 50.8158 24.997 50.8878 24.337 50.8878H22.807V55.6938H19.729V42.9498H24.409C25.105 42.9498 25.753 43.0218 26.353 43.1658C26.965 43.2978 27.493 43.5198 27.937 43.8318C28.393 44.1318 28.747 44.5338 28.999 45.0378C29.263 45.5298 29.395 46.1418 29.395 46.8738ZM26.317 46.8918C26.317 46.5918 26.257 46.3458 26.137 46.1538C26.017 45.9618 25.855 45.8118 25.651 45.7038C25.447 45.5958 25.213 45.5238 24.949 45.4878C24.697 45.4518 24.433 45.4338 24.157 45.4338H22.807V48.4398H24.103C24.391 48.4398 24.667 48.4158 24.931 48.3678C25.195 48.3198 25.429 48.2358 25.633 48.1158C25.849 47.9958 26.017 47.8398 26.137 47.6478C26.257 47.4438 26.317 47.1918 26.317 46.8918ZM44.5267 49.2678C44.5267 50.2758 44.3527 51.1998 44.0047 52.0398C43.6567 52.8678 43.1707 53.5818 42.5467 54.1818C41.9347 54.7698 41.2027 55.2258 40.3507 55.5498C39.4987 55.8738 38.5747 56.0358 37.5787 56.0358C36.5827 56.0358 35.6587 55.8738 34.8067 55.5498C33.9667 55.2258 33.2347 54.7698 32.6107 54.1818C31.9987 53.5818 31.5187 52.8678 31.1707 52.0398C30.8227 51.1998 30.6487 50.2758 30.6487 49.2678C30.6487 48.2478 30.8227 47.3298 31.1707 46.5138C31.5187 45.6858 31.9987 44.9838 32.6107 44.4078C33.2347 43.8318 33.9667 43.3878 34.8067 43.0758C35.6587 42.7638 36.5827 42.6078 37.5787 42.6078C38.5747 42.6078 39.4987 42.7638 40.3507 43.0758C41.2027 43.3878 41.9347 43.8318 42.5467 44.4078C43.1707 44.9838 43.6567 45.6858 44.0047 46.5138C44.3527 47.3298 44.5267 48.2478 44.5267 49.2678ZM41.2327 49.2678C41.2327 48.7158 41.1427 48.1998 40.9627 47.7198C40.7827 47.2398 40.5307 46.8318 40.2067 46.4958C39.8947 46.1478 39.5107 45.8778 39.0547 45.6858C38.6107 45.4818 38.1187 45.3798 37.5787 45.3798C37.0387 45.3798 36.5467 45.4818 36.1027 45.6858C35.6587 45.8778 35.2747 46.1478 34.9507 46.4958C34.6267 46.8318 34.3747 47.2398 34.1947 47.7198C34.0267 48.1998 33.9427 48.7158 33.9427 49.2678C33.9427 49.8438 34.0327 50.3778 34.2127 50.8698C34.3927 51.3498 34.6387 51.7638 34.9507 52.1118C35.2747 52.4598 35.6587 52.7358 36.1027 52.9398C36.5467 53.1318 37.0387 53.2278 37.5787 53.2278C38.1187 53.2278 38.6107 53.1318 39.0547 52.9398C39.4987 52.7358 39.8827 52.4598 40.2067 52.1118C40.5307 51.7638 40.7827 51.3498 40.9627 50.8698C41.1427 50.3778 41.2327 49.8438 41.2327 49.2678ZM56.2193 46.8738C56.2193 47.6178 56.0813 48.2478 55.8053 48.7638C55.5293 49.2678 55.1573 49.6758 54.6893 49.9878C54.2213 50.2998 53.6813 50.5278 53.0693 50.6718C52.4573 50.8158 51.8213 50.8878 51.1613 50.8878H49.6313V55.6938H46.5533V42.9498H51.2333C51.9293 42.9498 52.5773 43.0218 53.1773 43.1658C53.7893 43.2978 54.3173 43.5198 54.7613 43.8318C55.2173 44.1318 55.5713 44.5338 55.8233 45.0378C56.0873 45.5298 56.2193 46.1418 56.2193 46.8738ZM53.1413 46.8918C53.1413 46.5918 53.0813 46.3458 52.9613 46.1538C52.8413 45.9618 52.6793 45.8118 52.4753 45.7038C52.2713 45.5958 52.0373 45.5238 51.7733 45.4878C51.5213 45.4518 51.2573 45.4338 50.9813 45.4338H49.6313V48.4398H50.9273C51.2153 48.4398 51.4913 48.4158 51.7553 48.3678C52.0193 48.3198 52.2533 48.2358 52.4573 48.1158C52.6733 47.9958 52.8413 47.8398 52.9613 47.6478C53.0813 47.4438 53.1413 47.1918 53.1413 46.8918ZM68.8669 50.8878C68.8669 51.6558 68.7349 52.3578 68.4709 52.9938C68.2189 53.6178 67.8529 54.1578 67.3729 54.6138C66.8929 55.0578 66.3109 55.4058 65.6269 55.6578C64.9549 55.9098 64.2049 56.0358 63.3769 56.0358C62.5369 56.0358 61.7809 55.9098 61.1089 55.6578C60.4369 55.4058 59.8669 55.0578 59.3989 54.6138C58.9309 54.1578 58.5709 53.6178 58.3189 52.9938C58.0669 52.3578 57.9409 51.6558 57.9409 50.8878V42.9498H61.0009V50.6358C61.0009 50.9838 61.0429 51.3138 61.1269 51.6258C61.2229 51.9378 61.3609 52.2198 61.5409 52.4718C61.7329 52.7118 61.9789 52.9038 62.2789 53.0478C62.5909 53.1918 62.9629 53.2638 63.3949 53.2638C63.8269 53.2638 64.1929 53.1918 64.4929 53.0478C64.8049 52.9038 65.0569 52.7118 65.2489 52.4718C65.4409 52.2198 65.5789 51.9378 65.6629 51.6258C65.7469 51.3138 65.7889 50.9838 65.7889 50.6358V42.9498H68.8669V50.8878ZM71.356 55.6938V42.9498H74.452V53.0118H79.384V55.6938H71.356ZM89.4706 55.6938L88.4806 53.1918H83.5486L82.6126 55.6938H79.2646L84.6106 42.9498H87.5986L92.8906 55.6938H89.4706ZM86.0506 46.3518L84.4306 50.7258H87.6346L86.0506 46.3518ZM100.766 55.6938L98.0119 50.6358H96.9679V55.6938H93.9439V42.9498H98.8039C99.4159 42.9498 100.01 43.0158 100.586 43.1478C101.174 43.2678 101.696 43.4778 102.152 43.7778C102.62 44.0778 102.992 44.4738 103.268 44.9658C103.544 45.4578 103.682 46.0698 103.682 46.8018C103.682 47.6658 103.448 48.3918 102.98 48.9798C102.512 49.5678 101.864 49.9878 101.036 50.2398L104.366 55.6938H100.766ZM100.64 46.8558C100.64 46.5558 100.574 46.3158 100.442 46.1358C100.322 45.9438 100.16 45.7998 99.9559 45.7038C99.7639 45.5958 99.5419 45.5238 99.2899 45.4878C99.0499 45.4518 98.8159 45.4338 98.5879 45.4338H96.9499V48.4038H98.4079C98.6599 48.4038 98.9179 48.3858 99.1819 48.3498C99.4459 48.3018 99.6859 48.2238 99.9019 48.1158C100.118 48.0078 100.292 47.8518 100.424 47.6478C100.568 47.4438 100.64 47.1798 100.64 46.8558ZM105.879 55.6938V42.9498H108.975V55.6938H105.879ZM117.064 45.5778V55.6938H113.986V45.5778H110.386V42.9498H120.664V45.5778H117.064ZM128.05 50.2938V55.6938H124.972V50.2938L120.184 42.9498H123.91L126.628 47.6658L129.346 42.9498H132.946L128.05 50.2938Z" fill="#FAF49D"/>
<defs>
<filter id="filter0_d" x="0" y="0" width="152" height="118" filterUnits="userSpaceOnUse" color-interpolation-filters="sRGB">
<feFlood flood-opacity="0" result="BackgroundImageFix"/>
<feColorMatrix in="SourceAlpha" type="matrix" values="0 0 0 0 0 0 0 0 0 0 0 0 0 0 0 0 0 0 127 0"/>
<feOffset dy="4"/>
<feGaussianBlur stdDeviation="2"/>
<feColorMatrix type="matrix" values="0 0 0 0 0 0 0 0 0 0 0 0 0 0 0 0 0 0 0.25 0"/>
<feBlend mode="normal" in2="BackgroundImageFix" result="effect1_dropShadow"/>
<feBlend mode="normal" in="SourceGraphic" in2="effect1_dropShadow" result="shape"/>
</filter>
</defs>
</svg>
