<svg width="152" height="110" viewBox="0 0 152 110" fill="none" xmlns="http://www.w3.org/2000/svg">
<g filter="url(#filter0_d)">
<path d="M4 20C4 8.95431 12.9543 0 24 0H128C139.046 0 148 8.95431 148 20V110H4V20Z" fill="#D86B8C"/>
</g>
<path d="M32.0034 45.5778V55.6938H28.9254V45.5778H25.3254V42.9498H35.6034V45.5778H32.0034ZM45.0543 55.6938V50.3658H40.0863V55.6938H37.0083V42.9498H40.0863V47.7738H45.0543V42.9498H48.1323V55.6938H45.0543ZM50.7544 55.6938V42.9498H59.3224V45.5598H53.7244V47.9538H59.0164V50.4198H53.7244V53.0658H59.6464V55.6938H50.7544ZM72.92 46.2618C72.656 45.9258 72.308 45.6618 71.876 45.4698C71.456 45.2658 71.048 45.1638 70.652 45.1638C70.448 45.1638 70.238 45.1818 70.022 45.2178C69.818 45.2538 69.632 45.3258 69.464 45.4338C69.296 45.5298 69.152 45.6618 69.032 45.8298C68.924 45.9858 68.87 46.1898 68.87 46.4418C68.87 46.6578 68.912 46.8378 68.996 46.9818C69.092 47.1258 69.224 47.2518 69.392 47.3598C69.572 47.4678 69.782 47.5698 70.022 47.6658C70.262 47.7498 70.532 47.8398 70.832 47.9358C71.264 48.0798 71.714 48.2418 72.182 48.4218C72.65 48.5898 73.076 48.8178 73.46 49.1058C73.844 49.3938 74.162 49.7538 74.414 50.1858C74.666 50.6058 74.792 51.1338 74.792 51.7698C74.792 52.5018 74.654 53.1378 74.378 53.6778C74.114 54.2058 73.754 54.6438 73.298 54.9918C72.842 55.3398 72.32 55.5978 71.732 55.7658C71.144 55.9338 70.538 56.0178 69.914 56.0178C69.002 56.0178 68.12 55.8618 67.268 55.5498C66.416 55.2258 65.708 54.7698 65.144 54.1818L67.16 52.1298C67.472 52.5138 67.88 52.8378 68.384 53.1018C68.9 53.3538 69.41 53.4798 69.914 53.4798C70.142 53.4798 70.364 53.4558 70.58 53.4078C70.796 53.3598 70.982 53.2818 71.138 53.1738C71.306 53.0658 71.438 52.9218 71.534 52.7418C71.63 52.5618 71.678 52.3458 71.678 52.0938C71.678 51.8538 71.618 51.6498 71.498 51.4818C71.378 51.3138 71.204 51.1638 70.976 51.0318C70.76 50.8878 70.484 50.7618 70.148 50.6538C69.824 50.5338 69.452 50.4078 69.032 50.2758C68.624 50.1438 68.222 49.9878 67.826 49.8078C67.442 49.6278 67.094 49.3998 66.782 49.1238C66.482 48.8358 66.236 48.4938 66.044 48.0978C65.864 47.6898 65.774 47.1978 65.774 46.6218C65.774 45.9138 65.918 45.3078 66.206 44.8038C66.494 44.2998 66.872 43.8858 67.34 43.5618C67.808 43.2378 68.336 43.0038 68.924 42.8598C69.512 42.7038 70.106 42.6258 70.706 42.6258C71.426 42.6258 72.158 42.7578 72.902 43.0218C73.658 43.2858 74.318 43.6758 74.882 44.1918L72.92 46.2618ZM76.8228 55.6938V42.9498H85.3908V45.5598H79.7928V47.9538H85.0848V50.4198H79.7928V53.0658H85.7148V55.6938H76.8228ZM93.2104 45.5778V55.6938H90.1324V45.5778H86.5324V42.9498H96.8104V45.5778H93.2104ZM113.076 50.8878C113.076 51.6558 112.944 52.3578 112.68 52.9938C112.428 53.6178 112.062 54.1578 111.582 54.6138C111.102 55.0578 110.52 55.4058 109.836 55.6578C109.164 55.9098 108.414 56.0358 107.586 56.0358C106.746 56.0358 105.99 55.9098 105.318 55.6578C104.646 55.4058 104.076 55.0578 103.608 54.6138C103.14 54.1578 102.78 53.6178 102.528 52.9938C102.276 52.3578 102.15 51.6558 102.15 50.8878V42.9498H105.21V50.6358C105.21 50.9838 105.252 51.3138 105.336 51.6258C105.432 51.9378 105.57 52.2198 105.75 52.4718C105.942 52.7118 106.188 52.9038 106.488 53.0478C106.8 53.1918 107.172 53.2638 107.604 53.2638C108.036 53.2638 108.402 53.1918 108.702 53.0478C109.014 52.9038 109.266 52.7118 109.458 52.4718C109.65 52.2198 109.788 51.9378 109.872 51.6258C109.956 51.3138 109.998 50.9838 109.998 50.6358V42.9498H113.076V50.8878ZM125.231 46.8738C125.231 47.6178 125.093 48.2478 124.817 48.7638C124.541 49.2678 124.169 49.6758 123.701 49.9878C123.233 50.2998 122.693 50.5278 122.081 50.6718C121.469 50.8158 120.833 50.8878 120.173 50.8878H118.643V55.6938H115.565V42.9498H120.245C120.941 42.9498 121.589 43.0218 122.189 43.1658C122.801 43.2978 123.329 43.5198 123.773 43.8318C124.229 44.1318 124.583 44.5338 124.835 45.0378C125.099 45.5298 125.231 46.1418 125.231 46.8738ZM122.153 46.8918C122.153 46.5918 122.093 46.3458 121.973 46.1538C121.853 45.9618 121.691 45.8118 121.487 45.7038C121.283 45.5958 121.049 45.5238 120.785 45.4878C120.533 45.4518 120.269 45.4338 119.993 45.4338H118.643V48.4398H119.939C120.227 48.4398 120.503 48.4158 120.767 48.3678C121.031 48.3198 121.265 48.2358 121.469 48.1158C121.685 47.9958 121.853 47.8398 121.973 47.6478C122.093 47.4438 122.153 47.1918 122.153 46.8918Z" fill="#FAF49D"/>
<defs>
<filter id="filter0_d" x="0" y="0" width="152" height="118" filterUnits="userSpaceOnUse" color-interpolation-filters="sRGB">
<feFlood flood-opacity="0" result="BackgroundImageFix"/>
<feColorMatrix in="SourceAlpha" type="matrix" values="0 0 0 0 0 0 0 0 0 0 0 0 0 0 0 0 0 0 127 0"/>
<feOffset dy="4"/>
<feGaussianBlur stdDeviation="2"/>
<feColorMatrix type="matrix" values="0 0 0 0 0 0 0 0 0 0 0 0 0 0 0 0 0 0 0.25 0"/>
<feBlend mode="normal" in2="BackgroundImageFix" result="effect1_dropShadow"/>
<feBlend mode="normal" in="SourceGraphic" in2="effect1_dropShadow" result="shape"/>
</filter>
</defs>
</svg>
