<svg width="214" height="110" viewBox="0 0 214 110" fill="none" xmlns="http://www.w3.org/2000/svg">
<g filter="url(#filter0_d)">
<path d="M4 20C4 8.95431 12.9543 0 24 0H190C201.046 0 210 8.95431 210 20V110H4V20Z" fill="#D86B8C"/>
</g>
<path d="M20.6485 46.6938V33.9498H29.2165V36.5598H23.6185V38.9538H28.9105V41.4198H23.6185V44.0658H29.5405V46.6938H20.6485ZM39.2681 46.6938L36.4781 42.1938L33.7961 46.6938H30.1241L34.5881 39.9618L30.4841 33.9498H34.1921L36.5681 37.9098L38.9081 33.9498H42.4901L38.4581 39.9618L43.0661 46.6938H39.2681ZM43.1329 43.1478V40.8078H47.7049V43.1478H43.1329ZM56.1911 37.2618C55.9271 36.9258 55.5791 36.6618 55.1471 36.4698C54.7271 36.2658 54.3191 36.1638 53.9231 36.1638C53.7191 36.1638 53.5091 36.1818 53.2931 36.2178C53.0891 36.2538 52.9031 36.3258 52.7351 36.4338C52.5671 36.5298 52.4231 36.6618 52.3031 36.8298C52.1951 36.9858 52.1411 37.1898 52.1411 37.4418C52.1411 37.6578 52.1831 37.8378 52.2671 37.9818C52.3631 38.1258 52.4951 38.2518 52.6631 38.3598C52.8431 38.4678 53.0531 38.5698 53.2931 38.6658C53.5331 38.7498 53.8031 38.8398 54.1031 38.9358C54.5351 39.0798 54.9851 39.2418 55.4531 39.4218C55.9211 39.5898 56.3471 39.8178 56.7311 40.1058C57.1151 40.3938 57.4331 40.7538 57.6851 41.1858C57.9371 41.6058 58.0631 42.1338 58.0631 42.7698C58.0631 43.5018 57.9251 44.1378 57.6491 44.6778C57.3851 45.2058 57.0251 45.6438 56.5691 45.9918C56.1131 46.3398 55.5911 46.5978 55.0031 46.7658C54.4151 46.9338 53.8091 47.0178 53.1851 47.0178C52.2731 47.0178 51.3911 46.8618 50.5391 46.5498C49.6871 46.2258 48.9791 45.7698 48.4151 45.1818L50.4311 43.1298C50.7431 43.5138 51.1511 43.8378 51.6551 44.1018C52.1711 44.3538 52.6811 44.4798 53.1851 44.4798C53.4131 44.4798 53.6351 44.4558 53.8511 44.4078C54.0671 44.3598 54.2531 44.2818 54.4091 44.1738C54.5771 44.0658 54.7091 43.9218 54.8051 43.7418C54.9011 43.5618 54.9491 43.3458 54.9491 43.0938C54.9491 42.8538 54.8891 42.6498 54.7691 42.4818C54.6491 42.3138 54.4751 42.1638 54.2471 42.0318C54.0311 41.8878 53.7551 41.7618 53.4191 41.6538C53.0951 41.5338 52.7231 41.4078 52.3031 41.2758C51.8951 41.1438 51.4931 40.9878 51.0971 40.8078C50.7131 40.6278 50.3651 40.3998 50.0531 40.1238C49.7531 39.8358 49.5071 39.4938 49.3151 39.0978C49.1351 38.6898 49.0451 38.1978 49.0451 37.6218C49.0451 36.9138 49.1891 36.3078 49.4771 35.8038C49.7651 35.2998 50.1431 34.8858 50.6111 34.5618C51.0791 34.2378 51.6071 34.0038 52.1951 33.8598C52.7831 33.7038 53.3771 33.6258 53.9771 33.6258C54.6971 33.6258 55.4291 33.7578 56.1731 34.0218C56.9291 34.2858 57.5891 34.6758 58.1531 35.1918L56.1911 37.2618ZM65.3193 36.5778V46.6938H62.2413V36.5778H58.6413V33.9498H68.9193V36.5778H65.3193ZM70.3243 46.6938V33.9498H78.8923V36.5598H73.2943V38.9538H78.5863V41.4198H73.2943V44.0658H79.2163V46.6938H70.3243ZM90.9239 37.8738C90.9239 38.6178 90.7859 39.2478 90.5099 39.7638C90.2339 40.2678 89.8619 40.6758 89.3939 40.9878C88.9259 41.2998 88.3859 41.5278 87.7739 41.6718C87.1619 41.8158 86.5259 41.8878 85.8659 41.8878H84.3359V46.6938H81.2579V33.9498H85.9379C86.6339 33.9498 87.2819 34.0218 87.8819 34.1658C88.4939 34.2978 89.0219 34.5198 89.4659 34.8318C89.9219 35.1318 90.2759 35.5338 90.5279 36.0378C90.7919 36.5298 90.9239 37.1418 90.9239 37.8738ZM87.8459 37.8918C87.8459 37.5918 87.7859 37.3458 87.6659 37.1538C87.5459 36.9618 87.3839 36.8118 87.1799 36.7038C86.9759 36.5958 86.7419 36.5238 86.4779 36.4878C86.2259 36.4518 85.9619 36.4338 85.6859 36.4338H84.3359V39.4398H85.6319C85.9199 39.4398 86.1959 39.4158 86.4599 39.3678C86.7239 39.3198 86.9579 39.2358 87.1619 39.1158C87.3779 38.9958 87.5459 38.8398 87.6659 38.6478C87.7859 38.4438 87.8459 38.1918 87.8459 37.8918ZM102.708 42.9858C102.708 43.6818 102.57 44.2698 102.294 44.7498C102.018 45.2178 101.652 45.5958 101.196 45.8838C100.74 46.1718 100.218 46.3818 99.6296 46.5138C99.0536 46.6338 98.4596 46.6938 97.8476 46.6938H92.7716V33.9498H97.8476C98.3396 33.9498 98.8436 34.0038 99.3596 34.1118C99.8756 34.2078 100.344 34.3818 100.764 34.6338C101.184 34.8738 101.526 35.2038 101.79 35.6238C102.054 36.0438 102.186 36.5778 102.186 37.2258C102.186 37.9338 101.994 38.5218 101.61 38.9898C101.226 39.4458 100.722 39.7758 100.098 39.9798V40.0158C100.458 40.0758 100.794 40.1898 101.106 40.3578C101.43 40.5138 101.706 40.7178 101.934 40.9698C102.174 41.2218 102.36 41.5158 102.492 41.8518C102.636 42.1878 102.708 42.5658 102.708 42.9858ZM99.2156 37.6398C99.2156 37.2078 99.0476 36.8958 98.7116 36.7038C98.3876 36.4998 97.9016 36.3978 97.2536 36.3978H95.7416V39.0258H97.3976C97.9736 39.0258 98.4176 38.9118 98.7296 38.6838C99.0536 38.4438 99.2156 38.0958 99.2156 37.6398ZM99.6296 42.6978C99.6296 42.1698 99.4316 41.8038 99.0356 41.5998C98.6396 41.3958 98.1116 41.2938 97.4516 41.2938H95.7416V44.2098H97.4696C97.7096 44.2098 97.9556 44.1918 98.2076 44.1558C98.4716 44.1078 98.7056 44.0298 98.9096 43.9218C99.1256 43.8138 99.2996 43.6638 99.4316 43.4718C99.5636 43.2678 99.6296 43.0098 99.6296 42.6978ZM111.564 46.6938L108.81 41.6358H107.766V46.6938H104.742V33.9498H109.602C110.214 33.9498 110.808 34.0158 111.384 34.1478C111.972 34.2678 112.494 34.4778 112.95 34.7778C113.418 35.0778 113.79 35.4738 114.066 35.9658C114.342 36.4578 114.48 37.0698 114.48 37.8018C114.48 38.6658 114.246 39.3918 113.778 39.9798C113.31 40.5678 112.662 40.9878 111.834 41.2398L115.164 46.6938H111.564ZM111.438 37.8558C111.438 37.5558 111.372 37.3158 111.24 37.1358C111.12 36.9438 110.958 36.7998 110.754 36.7038C110.562 36.5958 110.34 36.5238 110.088 36.4878C109.848 36.4518 109.614 36.4338 109.386 36.4338H107.748V39.4038H109.206C109.458 39.4038 109.716 39.3858 109.98 39.3498C110.244 39.3018 110.484 39.2238 110.7 39.1158C110.916 39.0078 111.09 38.8518 111.222 38.6478C111.366 38.4438 111.438 38.1798 111.438 37.8558ZM129.962 40.2678C129.962 41.2758 129.788 42.1998 129.44 43.0398C129.092 43.8678 128.606 44.5818 127.982 45.1818C127.37 45.7698 126.638 46.2258 125.786 46.5498C124.934 46.8738 124.01 47.0358 123.014 47.0358C122.018 47.0358 121.094 46.8738 120.242 46.5498C119.402 46.2258 118.67 45.7698 118.046 45.1818C117.434 44.5818 116.954 43.8678 116.606 43.0398C116.258 42.1998 116.084 41.2758 116.084 40.2678C116.084 39.2478 116.258 38.3298 116.606 37.5138C116.954 36.6858 117.434 35.9838 118.046 35.4078C118.67 34.8318 119.402 34.3878 120.242 34.0758C121.094 33.7638 122.018 33.6078 123.014 33.6078C124.01 33.6078 124.934 33.7638 125.786 34.0758C126.638 34.3878 127.37 34.8318 127.982 35.4078C128.606 35.9838 129.092 36.6858 129.44 37.5138C129.788 38.3298 129.962 39.2478 129.962 40.2678ZM126.668 40.2678C126.668 39.7158 126.578 39.1998 126.398 38.7198C126.218 38.2398 125.966 37.8318 125.642 37.4958C125.33 37.1478 124.946 36.8778 124.49 36.6858C124.046 36.4818 123.554 36.3798 123.014 36.3798C122.474 36.3798 121.982 36.4818 121.538 36.6858C121.094 36.8778 120.71 37.1478 120.386 37.4958C120.062 37.8318 119.81 38.2398 119.63 38.7198C119.462 39.1998 119.378 39.7158 119.378 40.2678C119.378 40.8438 119.468 41.3778 119.648 41.8698C119.828 42.3498 120.074 42.7638 120.386 43.1118C120.71 43.4598 121.094 43.7358 121.538 43.9398C121.982 44.1318 122.474 44.2278 123.014 44.2278C123.554 44.2278 124.046 44.1318 124.49 43.9398C124.934 43.7358 125.318 43.4598 125.642 43.1118C125.966 42.7638 126.218 42.3498 126.398 41.8698C126.578 41.3778 126.668 40.8438 126.668 40.2678ZM136.897 36.5778V46.6938H133.819V36.5778H130.219V33.9498H140.497V36.5778H136.897ZM149.948 46.6938V41.3658H144.98V46.6938H141.902V33.9498H144.98V38.7738H149.948V33.9498H153.026V46.6938H149.948ZM155.649 46.6938V33.9498H164.217V36.5598H158.619V38.9538H163.911V41.4198H158.619V44.0658H164.541V46.6938H155.649ZM173.404 46.6938L170.65 41.6358H169.606V46.6938H166.582V33.9498H171.442C172.054 33.9498 172.648 34.0158 173.224 34.1478C173.812 34.2678 174.334 34.4778 174.79 34.7778C175.258 35.0778 175.63 35.4738 175.906 35.9658C176.182 36.4578 176.32 37.0698 176.32 37.8018C176.32 38.6658 176.086 39.3918 175.618 39.9798C175.15 40.5678 174.502 40.9878 173.674 41.2398L177.004 46.6938H173.404ZM173.278 37.8558C173.278 37.5558 173.212 37.3158 173.08 37.1358C172.96 36.9438 172.798 36.7998 172.594 36.7038C172.402 36.5958 172.18 36.5238 171.928 36.4878C171.688 36.4518 171.454 36.4338 171.226 36.4338H169.588V39.4038H171.046C171.298 39.4038 171.556 39.3858 171.82 39.3498C172.084 39.3018 172.324 39.2238 172.54 39.1158C172.756 39.0078 172.93 38.8518 173.062 38.6478C173.206 38.4438 173.278 38.1798 173.278 37.8558ZM180.21 38.8278H177.942L179.238 33.9498H181.848L180.21 38.8278ZM190.646 37.2618C190.382 36.9258 190.034 36.6618 189.602 36.4698C189.182 36.2658 188.774 36.1638 188.378 36.1638C188.174 36.1638 187.964 36.1818 187.748 36.2178C187.544 36.2538 187.358 36.3258 187.19 36.4338C187.022 36.5298 186.878 36.6618 186.758 36.8298C186.65 36.9858 186.596 37.1898 186.596 37.4418C186.596 37.6578 186.638 37.8378 186.722 37.9818C186.818 38.1258 186.95 38.2518 187.118 38.3598C187.298 38.4678 187.508 38.5698 187.748 38.6658C187.988 38.7498 188.258 38.8398 188.558 38.9358C188.99 39.0798 189.44 39.2418 189.908 39.4218C190.376 39.5898 190.802 39.8178 191.186 40.1058C191.57 40.3938 191.888 40.7538 192.14 41.1858C192.392 41.6058 192.518 42.1338 192.518 42.7698C192.518 43.5018 192.38 44.1378 192.104 44.6778C191.84 45.2058 191.48 45.6438 191.024 45.9918C190.568 46.3398 190.046 46.5978 189.458 46.7658C188.87 46.9338 188.264 47.0178 187.64 47.0178C186.728 47.0178 185.846 46.8618 184.994 46.5498C184.142 46.2258 183.434 45.7698 182.87 45.1818L184.886 43.1298C185.198 43.5138 185.606 43.8378 186.11 44.1018C186.626 44.3538 187.136 44.4798 187.64 44.4798C187.868 44.4798 188.09 44.4558 188.306 44.4078C188.522 44.3598 188.708 44.2818 188.864 44.1738C189.032 44.0658 189.164 43.9218 189.26 43.7418C189.356 43.5618 189.404 43.3458 189.404 43.0938C189.404 42.8538 189.344 42.6498 189.224 42.4818C189.104 42.3138 188.93 42.1638 188.702 42.0318C188.486 41.8878 188.21 41.7618 187.874 41.6538C187.55 41.5338 187.178 41.4078 186.758 41.2758C186.35 41.1438 185.948 40.9878 185.552 40.8078C185.168 40.6278 184.82 40.3998 184.508 40.1238C184.208 39.8358 183.962 39.4938 183.77 39.0978C183.59 38.6898 183.5 38.1978 183.5 37.6218C183.5 36.9138 183.644 36.3078 183.932 35.8038C184.22 35.2998 184.598 34.8858 185.066 34.5618C185.534 34.2378 186.062 34.0038 186.65 33.8598C187.238 33.7038 187.832 33.6258 188.432 33.6258C189.152 33.6258 189.884 33.7578 190.628 34.0218C191.384 34.2858 192.044 34.6758 192.608 35.1918L190.646 37.2618ZM38.0255 54.5778V57.2058H42.9575V59.7438H38.0255V64.6938H34.9835V51.9498H43.3715V54.5778H38.0255ZM52.1766 64.6938L49.4226 59.6358H48.3786V64.6938H45.3546V51.9498H50.2146C50.8266 51.9498 51.4206 52.0158 51.9966 52.1478C52.5846 52.2678 53.1066 52.4778 53.5626 52.7778C54.0306 53.0778 54.4026 53.4738 54.6786 53.9658C54.9546 54.4578 55.0926 55.0698 55.0926 55.8018C55.0926 56.6658 54.8586 57.3918 54.3906 57.9798C53.9226 58.5678 53.2746 58.9878 52.4466 59.2398L55.7766 64.6938H52.1766ZM52.0506 55.8558C52.0506 55.5558 51.9846 55.3158 51.8526 55.1358C51.7326 54.9438 51.5706 54.7998 51.3666 54.7038C51.1746 54.5958 50.9526 54.5238 50.7006 54.4878C50.4606 54.4518 50.2266 54.4338 49.9986 54.4338H48.3606V57.4038H49.8186C50.0706 57.4038 50.3286 57.3858 50.5926 57.3498C50.8566 57.3018 51.0966 57.2238 51.3126 57.1158C51.5286 57.0078 51.7026 56.8518 51.8346 56.6478C51.9786 56.4438 52.0506 56.1798 52.0506 55.8558ZM57.2901 64.6938V51.9498H60.3861V64.6938H57.2901ZM63.0206 64.6938V51.9498H71.5886V54.5598H65.9906V56.9538H71.2826V59.4198H65.9906V62.0658H71.9126V64.6938H63.0206ZM82.0542 64.6938L76.9242 56.3598H76.8702L76.9422 64.6938H73.9542V51.9498H77.4642L82.5762 60.2658H82.6302L82.5582 51.9498H85.5462V64.6938H82.0542ZM100.073 58.2858C100.073 59.4018 99.8629 60.3678 99.4429 61.1838C99.0349 61.9878 98.4889 62.6538 97.8049 63.1818C97.1329 63.6978 96.3709 64.0818 95.5189 64.3338C94.6669 64.5738 93.8029 64.6938 92.9269 64.6938H88.1749V51.9498H92.7829C93.6829 51.9498 94.5709 52.0578 95.4469 52.2738C96.3229 52.4778 97.1029 52.8258 97.7869 53.3178C98.4709 53.7978 99.0229 54.4458 99.4429 55.2618C99.8629 56.0778 100.073 57.0858 100.073 58.2858ZM96.8689 58.2858C96.8689 57.5658 96.7489 56.9718 96.5089 56.5038C96.2809 56.0238 95.9689 55.6458 95.5729 55.3698C95.1889 55.0818 94.7449 54.8778 94.2409 54.7578C93.7489 54.6378 93.2389 54.5778 92.7109 54.5778H91.1809V62.0298H92.6389C93.1909 62.0298 93.7189 61.9698 94.2229 61.8498C94.7389 61.7178 95.1889 61.5078 95.5729 61.2198C95.9689 60.9318 96.2809 60.5478 96.5089 60.0678C96.7489 59.5878 96.8689 58.9938 96.8689 58.2858ZM103.806 56.8278H101.538L102.834 51.9498H105.444L103.806 56.8278ZM114.243 55.2618C113.979 54.9258 113.631 54.6618 113.199 54.4698C112.779 54.2658 112.371 54.1638 111.975 54.1638C111.771 54.1638 111.561 54.1818 111.345 54.2178C111.141 54.2538 110.955 54.3258 110.787 54.4338C110.619 54.5298 110.475 54.6618 110.355 54.8298C110.247 54.9858 110.193 55.1898 110.193 55.4418C110.193 55.6578 110.235 55.8378 110.319 55.9818C110.415 56.1258 110.547 56.2518 110.715 56.3598C110.895 56.4678 111.105 56.5698 111.345 56.6658C111.585 56.7498 111.855 56.8398 112.155 56.9358C112.587 57.0798 113.037 57.2418 113.505 57.4218C113.973 57.5898 114.399 57.8178 114.783 58.1058C115.167 58.3938 115.485 58.7538 115.737 59.1858C115.989 59.6058 116.115 60.1338 116.115 60.7698C116.115 61.5018 115.977 62.1378 115.701 62.6778C115.437 63.2058 115.077 63.6438 114.621 63.9918C114.165 64.3398 113.643 64.5978 113.055 64.7658C112.467 64.9338 111.861 65.0178 111.237 65.0178C110.325 65.0178 109.443 64.8618 108.591 64.5498C107.739 64.2258 107.031 63.7698 106.467 63.1818L108.483 61.1298C108.795 61.5138 109.203 61.8378 109.707 62.1018C110.223 62.3538 110.733 62.4798 111.237 62.4798C111.465 62.4798 111.687 62.4558 111.903 62.4078C112.119 62.3598 112.305 62.2818 112.461 62.1738C112.629 62.0658 112.761 61.9218 112.857 61.7418C112.953 61.5618 113.001 61.3458 113.001 61.0938C113.001 60.8538 112.941 60.6498 112.821 60.4818C112.701 60.3138 112.527 60.1638 112.299 60.0318C112.083 59.8878 111.807 59.7618 111.471 59.6538C111.147 59.5338 110.775 59.4078 110.355 59.2758C109.947 59.1438 109.545 58.9878 109.149 58.8078C108.765 58.6278 108.417 58.3998 108.105 58.1238C107.805 57.8358 107.559 57.4938 107.367 57.0978C107.187 56.6898 107.097 56.1978 107.097 55.6218C107.097 54.9138 107.241 54.3078 107.529 53.8038C107.817 53.2998 108.195 52.8858 108.663 52.5618C109.131 52.2378 109.659 52.0038 110.247 51.8598C110.835 51.7038 111.429 51.6258 112.029 51.6258C112.749 51.6258 113.481 51.7578 114.225 52.0218C114.981 52.2858 115.641 52.6758 116.205 53.1918L114.243 55.2618ZM132.312 55.8738C132.312 56.6178 132.174 57.2478 131.898 57.7638C131.622 58.2678 131.25 58.6758 130.782 58.9878C130.314 59.2998 129.774 59.5278 129.162 59.6718C128.55 59.8158 127.914 59.8878 127.254 59.8878H125.724V64.6938H122.646V51.9498H127.326C128.022 51.9498 128.67 52.0218 129.27 52.1658C129.882 52.2978 130.41 52.5198 130.854 52.8318C131.31 53.1318 131.664 53.5338 131.916 54.0378C132.18 54.5298 132.312 55.1418 132.312 55.8738ZM129.234 55.8918C129.234 55.5918 129.174 55.3458 129.054 55.1538C128.934 54.9618 128.772 54.8118 128.568 54.7038C128.364 54.5958 128.13 54.5238 127.866 54.4878C127.614 54.4518 127.35 54.4338 127.074 54.4338H125.724V57.4398H127.02C127.308 57.4398 127.584 57.4158 127.848 57.3678C128.112 57.3198 128.346 57.2358 128.55 57.1158C128.766 56.9958 128.934 56.8398 129.054 56.6478C129.174 56.4438 129.234 56.1918 129.234 55.8918ZM141.727 64.6938L140.737 62.1918H135.805L134.869 64.6938H131.521L136.867 51.9498H139.855L145.147 64.6938H141.727ZM138.307 55.3518L136.687 59.7258H139.891L138.307 55.3518ZM153.022 64.6938L150.268 59.6358H149.224V64.6938H146.2V51.9498H151.06C151.672 51.9498 152.266 52.0158 152.842 52.1478C153.43 52.2678 153.952 52.4778 154.408 52.7778C154.876 53.0778 155.248 53.4738 155.524 53.9658C155.8 54.4578 155.938 55.0698 155.938 55.8018C155.938 56.6658 155.704 57.3918 155.236 57.9798C154.768 58.5678 154.12 58.9878 153.292 59.2398L156.622 64.6938H153.022ZM152.896 55.8558C152.896 55.5558 152.83 55.3158 152.698 55.1358C152.578 54.9438 152.416 54.7998 152.212 54.7038C152.02 54.5958 151.798 54.5238 151.546 54.4878C151.306 54.4518 151.072 54.4338 150.844 54.4338H149.206V57.4038H150.664C150.916 57.4038 151.174 57.3858 151.438 57.3498C151.702 57.3018 151.942 57.2238 152.158 57.1158C152.374 57.0078 152.548 56.8518 152.68 56.6478C152.824 56.4438 152.896 56.1798 152.896 55.8558ZM163.379 54.5778V64.6938H160.301V54.5778H156.701V51.9498H166.979V54.5778H163.379ZM174.365 59.2938V64.6938H171.287V59.2938L166.499 51.9498H170.225L172.943 56.6658L175.661 51.9498H179.261L174.365 59.2938Z" fill="#FAF49D"/>
<defs>
<filter id="filter0_d" x="0" y="0" width="214" height="118" filterUnits="userSpaceOnUse" color-interpolation-filters="sRGB">
<feFlood flood-opacity="0" result="BackgroundImageFix"/>
<feColorMatrix in="SourceAlpha" type="matrix" values="0 0 0 0 0 0 0 0 0 0 0 0 0 0 0 0 0 0 127 0"/>
<feOffset dy="4"/>
<feGaussianBlur stdDeviation="2"/>
<feColorMatrix type="matrix" values="0 0 0 0 0 0 0 0 0 0 0 0 0 0 0 0 0 0 0.25 0"/>
<feBlend mode="normal" in2="BackgroundImageFix" result="effect1_dropShadow"/>
<feBlend mode="normal" in="SourceGraphic" in2="effect1_dropShadow" result="shape"/>
</filter>
</defs>
</svg>
