<svg width="237" height="170" viewBox="0 0 237 170" fill="none" xmlns="http://www.w3.org/2000/svg">
<g filter="url(#filter0_d)">
<rect x="24.0002" y="61" width="201" height="51" fill="#FFF5D0"/>
</g>
<path d="M37.6402 96.2031C37.5465 96.7344 37.2809 97.1016 36.8434 97.3047C36.6402 97.3203 36.484 97.3125 36.3746 97.2812C36.2809 97.25 36.1793 97.2109 36.0699 97.1641C35.9293 97.1016 35.8043 97.0625 35.6949 97.0469L35.4371 96.8594C35.4059 96.7812 35.3668 96.7031 35.3199 96.625C35.2731 96.5469 35.2184 96.4688 35.1559 96.3906C35.0309 96.2344 34.9059 96.0391 34.7809 95.8047C34.6871 95.3516 34.6715 94.9766 34.734 94.6797C34.7965 94.3672 34.8746 94.0625 34.9684 93.7656C34.9996 93.6719 35.0309 93.5781 35.0621 93.4844C35.0934 93.375 35.1246 93.2734 35.1559 93.1797C34.7496 92.9609 34.4449 92.6484 34.2418 92.2422C34.0387 91.8359 33.9215 91.4453 33.8902 91.0703C33.9371 90.7734 34.0231 90.5391 34.1481 90.3672C34.2731 90.1797 34.4137 90.0312 34.5699 89.9219C34.7418 89.8125 34.9137 89.7266 35.0856 89.6641C35.2731 89.6016 35.4527 89.5469 35.6246 89.5L35.9293 89.6172C36.0699 89.7578 36.2106 89.8672 36.3512 89.9453C36.4606 89.8984 36.5309 89.8281 36.5621 89.7344C36.609 89.625 36.6481 89.5078 36.6793 89.3828C36.7262 89.2422 36.7731 89.1016 36.8199 88.9609C36.8824 88.8203 36.9527 88.6797 37.0309 88.5391C37.0152 88.3359 37.0465 88.1484 37.1246 87.9766C37.0152 87.8984 36.8981 87.8516 36.7731 87.8359C36.7418 87.8359 36.6637 87.8203 36.5387 87.7891C36.3512 87.6484 36.2184 87.5312 36.1402 87.4375C36.0777 87.3281 36.0152 87.2266 35.9527 87.1328C35.859 86.9297 35.7418 86.7656 35.6012 86.6406L35.3668 86.4766L35.484 86.2422C35.5152 86.2109 35.5309 86.1719 35.5309 86.125C35.5309 86.0781 35.4996 86.0078 35.4371 85.9141C35.4059 85.7422 35.4059 85.625 35.4371 85.5625L35.484 85.3281C35.609 85.1562 35.6715 85.0625 35.6715 85.0469L35.8824 84.8359C36.1949 84.7578 36.4996 84.6719 36.7965 84.5781C37.109 84.4688 37.4215 84.3594 37.734 84.25C38.0309 84.1562 38.3277 84.0625 38.6246 83.9688C38.9371 83.8594 39.2496 83.7656 39.5621 83.6875C39.6715 83.6094 39.7887 83.5625 39.9137 83.5469C40.0387 83.5156 40.1559 83.4922 40.2652 83.4766C40.359 83.4609 40.4449 83.4531 40.5231 83.4531C40.6012 83.4375 40.6559 83.4062 40.6871 83.3594C40.8746 83.2969 41.0934 83.2266 41.3434 83.1484C41.734 83.0391 42.2496 82.9219 42.8902 82.7969C43.5309 82.6562 44.2496 82.5469 45.0465 82.4688L45.4449 82.4453C45.5231 82.4609 45.6012 82.4688 45.6793 82.4688C45.7574 82.4531 45.8356 82.4453 45.9137 82.4453C46.6168 82.4453 47.0621 82.6562 47.2496 83.0781C47.3902 83.1562 47.5152 83.2422 47.6246 83.3359C47.734 83.4297 47.8356 83.5234 47.9293 83.6172C47.9762 83.6797 48.0231 83.7344 48.0699 83.7812C48.1324 83.8281 48.1793 83.8594 48.2106 83.875C48.4762 84.2812 48.5621 84.6406 48.4684 84.9531C48.3277 85.1562 48.1481 85.2734 47.9293 85.3047L47.6715 85.4453C47.4996 85.4297 47.3668 85.4219 47.2731 85.4219C47.1949 85.4219 47.109 85.4219 47.0152 85.4219C46.6246 85.4219 46.1715 85.4453 45.6559 85.4922C45.1402 85.5391 44.609 85.6094 44.0621 85.7031C43.5309 85.7812 43.0152 85.8828 42.5152 86.0078C42.0152 86.1328 41.5777 86.2656 41.2027 86.4062L40.7809 86.6172C40.6715 86.7891 40.609 86.9297 40.5934 87.0391C40.5777 87.1328 40.5621 87.2266 40.5465 87.3203C40.5309 87.3828 40.5152 87.4453 40.4996 87.5078C40.4996 87.5703 40.4918 87.6406 40.4762 87.7188C40.2106 88.0469 40.0777 88.4375 40.0777 88.8906C39.9684 89.0781 39.8981 89.2188 39.8668 89.3125C39.8356 89.3906 39.8356 89.4922 39.8668 89.6172C40.1637 89.7422 40.4449 89.7891 40.7106 89.7578C40.9762 89.7266 41.2418 89.6875 41.5074 89.6406C41.8668 89.5781 42.234 89.5234 42.609 89.4766C42.9996 89.4297 43.3981 89.4062 43.8043 89.4062H44.5543L44.3668 89.5938L44.484 89.9219C44.5777 89.9688 44.6402 90 44.6715 90.0156C44.7184 90.0312 44.7652 90.0547 44.8121 90.0859L44.9293 90.2969C44.9918 90.3281 45.0465 90.3828 45.0934 90.4609C45.1559 90.5391 45.1949 90.6562 45.2106 90.8125L44.2496 92.1719L43.9215 92.2656C43.6559 92.25 43.4215 92.2812 43.2184 92.3594C43.109 92.3906 42.9996 92.4219 42.8902 92.4531C42.7809 92.4688 42.6637 92.4766 42.5387 92.4766C42.2262 92.5391 41.9606 92.5859 41.7418 92.6172C41.5387 92.6484 41.3277 92.6797 41.109 92.7109C40.8277 92.7422 40.5543 92.7891 40.2887 92.8516C40.0231 92.8984 39.7731 92.9688 39.5387 93.0625C39.3824 93.0625 39.2731 93.0625 39.2106 93.0625C39.0856 93.0625 38.9527 93.0859 38.8121 93.1328C38.6871 93.1641 38.5699 93.1953 38.4606 93.2266C38.3824 93.2891 38.3277 93.3594 38.2965 93.4375C38.2652 93.5 38.234 93.5703 38.2027 93.6484C38.1402 93.8672 38.0543 94.0469 37.9449 94.1875V94.5391C37.8199 94.6953 37.7418 94.8203 37.7106 94.9141C37.6949 94.9922 37.6715 95.0703 37.6402 95.1484C37.609 95.1953 37.5856 95.2422 37.5699 95.2891C37.5543 95.3203 37.5465 95.3594 37.5465 95.4062C37.6715 95.6406 37.7027 95.9062 37.6402 96.2031ZM51.6896 95.3594C51.7677 95.8281 51.7365 96.1953 51.5959 96.4609C51.4709 96.7266 51.2834 96.9219 51.0334 97.0469C50.799 97.1875 50.5256 97.2656 50.2131 97.2812C49.9006 97.2969 49.6037 97.2812 49.3224 97.2344C49.1662 97.0156 49.0256 96.7422 48.9006 96.4141C48.7756 96.0859 48.6584 95.75 48.549 95.4062C48.4396 95.0469 48.3381 94.6953 48.2443 94.3516C48.1662 94.0078 48.0959 93.7031 48.0334 93.4375C48.1115 93.25 48.1584 93.0391 48.174 92.8047C48.2052 92.5547 48.2209 92.3047 48.2209 92.0547C48.2365 91.8047 48.2443 91.5547 48.2443 91.3047C48.2599 91.0391 48.2834 90.7891 48.3146 90.5547C48.424 89.8984 48.5802 89.2734 48.7834 88.6797C49.0021 88.0859 49.174 87.4688 49.299 86.8281C49.3302 86.6875 49.3146 86.5547 49.2521 86.4297C49.2052 86.3047 49.1974 86.1875 49.2287 86.0781C49.2443 86.0156 49.2912 85.9766 49.3693 85.9609C49.4474 85.9297 49.4943 85.875 49.5099 85.7969C49.5568 85.625 49.5646 85.4844 49.5334 85.375C49.5177 85.2656 49.549 85.1328 49.6271 84.9766C49.7052 84.8516 49.799 84.6719 49.9084 84.4375C50.0334 84.1875 50.0802 83.9297 50.049 83.6641C50.1896 83.5703 50.3224 83.4609 50.4474 83.3359C50.5724 83.2109 50.6974 83.1016 50.8224 83.0078C50.9631 82.8984 51.1115 82.8047 51.2677 82.7266C51.4396 82.6484 51.6427 82.6094 51.8771 82.6094C52.0021 82.7656 52.0802 82.9375 52.1115 83.125C52.1584 83.3125 52.1974 83.5 52.2287 83.6875C52.2756 83.875 52.3381 84.0547 52.4162 84.2266C52.4943 84.3828 52.6271 84.5078 52.8146 84.6016C52.8146 84.7266 52.8146 84.8828 52.8146 85.0703C52.8146 85.2578 52.8224 85.4453 52.8381 85.6328C52.8537 85.8047 52.8849 85.9688 52.9318 86.125C52.9943 86.2656 53.0881 86.3594 53.2131 86.4062C52.9318 87.1562 52.6662 87.8984 52.4162 88.6328C52.1818 89.3672 51.9865 90.1094 51.8302 90.8594C51.674 91.5938 51.5724 92.3359 51.5256 93.0859C51.4943 93.8359 51.549 94.5938 51.6896 95.3594ZM59.6218 94.5625C59.4499 95.1875 59.2937 95.6641 59.1531 95.9922C59.0281 96.3047 58.8327 96.6328 58.5671 96.9766C58.364 96.9453 58.2234 96.9688 58.1452 97.0469C58.0671 97.125 57.9812 97.1953 57.8874 97.2578C57.7468 97.2891 57.6452 97.2891 57.5827 97.2578C57.5202 97.2266 57.4656 97.1875 57.4187 97.1406C57.3718 97.1094 57.3093 97.0703 57.2312 97.0234C57.1687 96.9922 57.0671 96.9766 56.9265 96.9766C56.8952 96.8516 56.8562 96.7344 56.8093 96.625C56.7781 96.5156 56.6765 96.4766 56.5046 96.5078C56.5359 96.3828 56.5437 96.2812 56.5281 96.2031C56.5124 96.1094 56.489 96.0312 56.4577 95.9688C56.4421 95.8906 56.4265 95.8203 56.4109 95.7578C56.3952 95.6797 56.4031 95.5859 56.4343 95.4766C56.3562 95.4766 56.2937 95.4219 56.2468 95.3125C56.1999 95.2031 56.1452 95.0938 56.0827 94.9844C56.1296 94.7031 56.1765 94.4375 56.2234 94.1875C56.2702 93.9375 56.3249 93.7031 56.3874 93.4844C56.4656 93.2656 56.5281 93.0469 56.5749 92.8281C56.6218 92.6094 56.5984 92.3828 56.5046 92.1484C56.5671 92.1953 56.614 92.1875 56.6452 92.125C56.6765 92.0469 56.6999 91.9531 56.7156 91.8438C56.7312 91.7188 56.739 91.6016 56.739 91.4922C56.739 91.3672 56.7312 91.2656 56.7156 91.1875C56.8718 90.7812 56.9968 90.3672 57.0906 89.9453C57.1999 89.5078 57.2937 89.0781 57.3718 88.6562C57.4656 88.2344 57.5593 87.8203 57.6531 87.4141C57.7468 87.0078 57.8718 86.6328 58.0281 86.2891C58.1999 86.2578 58.3874 86.2812 58.5906 86.3594C58.8093 86.4219 58.9421 86.5078 58.989 86.6172C59.3952 86.3047 59.7546 85.9297 60.0671 85.4922C60.3796 85.0391 60.6999 84.6016 61.0281 84.1797C61.3562 83.7578 61.7156 83.3828 62.1062 83.0547C62.5124 82.7266 63.0202 82.5312 63.6296 82.4688C63.9421 82.7031 64.2859 82.9453 64.6609 83.1953C65.0515 83.4297 65.3718 83.7422 65.6218 84.1328C65.7468 84.1953 65.8484 84.2656 65.9265 84.3438C66.0202 84.4062 66.1296 84.4766 66.2546 84.5547V84.8359C66.4421 85.0078 66.5906 85.2109 66.6999 85.4453C66.8249 85.6641 66.9343 85.9062 67.0281 86.1719C67.1218 86.4219 67.2156 86.6797 67.3093 86.9453C67.4031 87.1953 67.5124 87.4375 67.6374 87.6719C67.6062 87.75 67.5906 87.8203 67.5906 87.8828C67.5906 87.9297 67.5984 87.9844 67.614 88.0469C67.6452 88.1094 67.6687 88.1719 67.6843 88.2344C67.6999 88.2969 67.6999 88.3828 67.6843 88.4922C67.6374 89.1797 67.4109 89.7344 67.0046 90.1562C66.614 90.5781 66.1374 90.9297 65.5749 91.2109C65.0124 91.4766 64.4109 91.7031 63.7702 91.8906C63.1296 92.0781 62.5515 92.2812 62.0359 92.5C62.0359 92.5625 62.0593 92.5938 62.1062 92.5938C62.1687 92.5938 62.1921 92.6328 62.1765 92.7109C62.5515 92.9453 62.8484 93.1328 63.0671 93.2734C63.2859 93.4141 63.489 93.5312 63.6765 93.625C63.8796 93.7188 64.0906 93.8047 64.3093 93.8828C64.5437 93.9453 64.864 94.0234 65.2702 94.1172C65.6765 94.2109 65.989 94.2891 66.2077 94.3516C66.4421 94.3984 66.6531 94.4453 66.8406 94.4922C67.0281 94.5234 67.2156 94.5547 67.4031 94.5859C67.6062 94.6016 67.8874 94.625 68.2468 94.6562C68.3874 94.7969 68.5046 94.9688 68.5984 95.1719C68.7077 95.3594 68.7781 95.5547 68.8093 95.7578C68.8406 95.9453 68.8484 96.1328 68.8327 96.3203C68.8171 96.4922 68.7624 96.6328 68.6687 96.7422C68.6843 96.7891 68.7156 96.8125 68.7624 96.8125C68.8249 96.7969 68.8874 96.7969 68.9499 96.8125C68.8562 96.875 68.7781 96.9531 68.7156 97.0469C68.6531 97.1406 68.5906 97.2344 68.5281 97.3281C68.4656 97.4219 68.3952 97.5 68.3171 97.5625C68.239 97.6406 68.1296 97.6875 67.989 97.7031C67.5046 97.8906 66.8952 97.8984 66.1609 97.7266C65.4265 97.5703 64.4968 97.2734 63.3718 96.8359C62.8093 96.6172 62.3484 96.4297 61.989 96.2734C61.6452 96.1016 61.3406 95.9375 61.0749 95.7812C60.8249 95.6094 60.5906 95.4297 60.3718 95.2422C60.1687 95.0547 59.9187 94.8281 59.6218 94.5625ZM62.9734 86.5234C62.8015 86.7734 62.6062 87 62.3874 87.2031C62.1843 87.4062 61.9812 87.6172 61.7781 87.8359C61.5906 88.0391 61.4187 88.2734 61.2624 88.5391C61.1062 88.7891 60.9968 89.0859 60.9343 89.4297C61.4812 89.3672 62.0515 89.2188 62.6452 88.9844C63.239 88.7344 63.8015 88.5 64.3327 88.2812C64.2702 87.7969 64.0984 87.4062 63.8171 87.1094C63.5515 86.8125 63.2702 86.6172 62.9734 86.5234ZM70.6477 86.4531C70.7571 86.125 70.929 85.8438 71.1634 85.6094C71.4134 85.375 71.679 85.1797 71.9602 85.0234C72.2571 84.8516 72.5618 84.7109 72.8743 84.6016C73.1868 84.4922 73.4837 84.3984 73.7649 84.3203C74.3899 84.0547 75.054 83.8047 75.7571 83.5703C76.4759 83.3203 77.2024 83.1016 77.9368 82.9141C78.6868 82.7266 79.4524 82.6094 80.2337 82.5625C81.0149 82.5 81.8352 82.5938 82.6946 82.8438C82.7415 83 82.8118 83.1484 82.9056 83.2891C82.9993 83.4297 83.0931 83.5703 83.1868 83.7109C83.2962 83.8516 83.3899 83.9922 83.4681 84.1328C83.5462 84.2578 83.5931 84.3906 83.6087 84.5312C83.7649 84.6719 83.8899 84.8281 83.9837 85C84.0774 85.1562 84.0931 85.3672 84.0306 85.6328C83.8743 85.7578 83.7181 85.875 83.5618 85.9844C83.4212 86.0781 83.2649 86.1641 83.0931 86.2422C82.5149 86.1016 81.929 86.0547 81.3352 86.1016C80.7415 86.1484 80.2102 86.1875 79.7415 86.2188C79.6009 86.0781 79.429 86.0078 79.2259 86.0078C79.0384 86.0078 78.8352 86.0391 78.6165 86.1016C78.4134 86.1641 78.2024 86.2266 77.9837 86.2891C77.7806 86.3516 77.5852 86.3672 77.3977 86.3359C77.2415 86.4609 77.0462 86.5469 76.8118 86.5938C76.5931 86.625 76.3509 86.6562 76.0852 86.6875C76.0696 86.7656 76.0852 86.8203 76.1321 86.8516C76.179 86.8672 76.1868 86.9141 76.1556 86.9922C76.2493 87.1016 76.3665 87.1797 76.5071 87.2266C76.6634 87.2734 76.8196 87.3203 76.9759 87.3672C77.1477 87.4141 77.2962 87.4766 77.4212 87.5547C77.5462 87.6172 77.6321 87.7266 77.679 87.8828C77.9134 87.8828 78.1165 87.9375 78.2884 88.0469C78.4602 88.1562 78.6009 88.2891 78.7102 88.4453C78.8196 88.6016 78.8977 88.7734 78.9446 88.9609C79.0071 89.1328 79.0384 89.2891 79.0384 89.4297C79.0852 89.5547 79.1399 89.6094 79.2024 89.5938C79.2649 89.5781 79.3352 89.6094 79.4134 89.6875C79.4602 89.8906 79.5774 90.1016 79.7649 90.3203C79.9524 90.5234 80.1009 90.75 80.2102 91C80.2415 91.3906 80.2649 91.7422 80.2806 92.0547C80.2962 92.3516 80.2415 92.6562 80.1165 92.9688C79.8821 93.5469 79.554 94.0625 79.1321 94.5156C78.7259 94.9688 78.2571 95.375 77.7259 95.7344C77.2102 96.0781 76.6556 96.375 76.0618 96.625C75.4681 96.875 74.8899 97.0859 74.3274 97.2578C74.2649 97.2422 74.2024 97.2422 74.1399 97.2578C74.0774 97.2734 74.0618 97.2344 74.0931 97.1406C73.9681 97.25 73.8274 97.3203 73.6712 97.3516C73.5306 97.3828 73.3743 97.3906 73.2024 97.375C73.0306 97.375 72.8509 97.3672 72.6634 97.3516C72.4915 97.3359 72.3274 97.3438 72.1712 97.375C72.0618 97.2656 71.9602 97.1562 71.8665 97.0469C71.7884 96.9531 71.7259 96.8281 71.679 96.6719C71.6009 96.6719 71.5618 96.6328 71.5618 96.5547C71.5774 96.4766 71.554 96.4375 71.4915 96.4375C71.5852 96.2812 71.6243 96.1953 71.6087 96.1797C71.6087 96.1484 71.5852 96.125 71.5384 96.1094C71.5071 96.0938 71.4759 96.0781 71.4446 96.0625C71.4134 96.0312 71.4056 95.9922 71.4212 95.9453C71.4837 95.8203 71.5071 95.6797 71.4915 95.5234C71.4759 95.3516 71.4602 95.1797 71.4446 95.0078C71.429 94.8359 71.4368 94.6719 71.4681 94.5156C71.5149 94.3594 71.6321 94.2344 71.8196 94.1406C72.3509 94.2031 72.8509 94.1875 73.3196 94.0938C73.804 93.9844 74.2571 93.8359 74.679 93.6484C75.1009 93.4609 75.4993 93.2578 75.8743 93.0391C76.2649 92.8203 76.6477 92.625 77.0227 92.4531C77.0696 92.3125 77.1321 92.1953 77.2102 92.1016C77.304 92.0078 77.3977 91.9219 77.4915 91.8438C77.5852 91.7656 77.6712 91.6797 77.7493 91.5859C77.8274 91.4922 77.8821 91.375 77.9134 91.2344C77.929 91.125 77.8977 91.0625 77.8196 91.0469C77.7571 91.0156 77.7259 90.9531 77.7259 90.8594L77.4681 90.7891C77.1712 90.6172 76.8352 90.4766 76.4602 90.3672C76.0852 90.2422 75.7649 90.1094 75.4993 89.9688C75.3274 90.0625 75.1634 90.0859 75.0071 90.0391C74.8665 89.9922 74.679 89.9453 74.4446 89.8984C73.9134 89.8672 73.3977 89.8125 72.8977 89.7344C72.4134 89.6562 71.9446 89.5156 71.4915 89.3125C71.4602 89.2344 71.4212 89.1641 71.3743 89.1016C71.3274 89.0391 71.2415 89.0234 71.1165 89.0547C71.0227 88.9297 70.929 88.8125 70.8352 88.7031C70.7415 88.5781 70.6556 88.4453 70.5774 88.3047C70.6087 88.1172 70.6321 87.9609 70.6477 87.8359C70.6634 87.6953 70.6165 87.5625 70.5071 87.4375C70.5696 87.2344 70.6165 87.0703 70.6477 86.9453C70.679 86.8203 70.679 86.6562 70.6477 86.4531ZM96.1815 85.7266C95.7909 85.7266 95.369 85.7578 94.9159 85.8203C94.4627 85.8672 94.0174 85.9219 93.5799 85.9844C93.2674 86.0312 92.9627 86.0703 92.6659 86.1016C92.3846 86.1328 92.1268 86.1562 91.8924 86.1719C91.7831 86.5156 91.6737 86.8203 91.5643 87.0859C91.4549 87.3516 91.3377 87.6094 91.2127 87.8594C91.0877 88.125 90.9706 88.3984 90.8612 88.6797C90.7674 88.9453 90.6737 89.2344 90.5799 89.5469C90.4237 89.7969 90.2909 90.0312 90.1815 90.25C90.0877 90.4531 90.0096 90.6875 89.9471 90.9531C89.7596 91.1875 89.619 91.4375 89.5252 91.7031C89.4315 91.9531 89.3612 92.1719 89.3143 92.3594L89.2206 92.6406C89.1268 92.7344 89.0721 92.8125 89.0565 92.875C89.0409 92.9219 89.0018 92.9688 88.9393 93.0156C88.9237 93.1875 88.869 93.3594 88.7752 93.5312C88.744 93.6094 88.7206 93.6875 88.7049 93.7656C88.6893 93.8281 88.6815 93.875 88.6815 93.9062C88.6815 94.0625 88.6424 94.1641 88.5643 94.2109C88.5799 94.2891 88.5799 94.375 88.5643 94.4688C88.5487 94.5469 88.5331 94.625 88.5174 94.7031C88.4706 94.8906 88.4549 95.0391 88.4706 95.1484C88.5174 95.2109 88.5565 95.2656 88.5877 95.3125C88.6346 95.3594 88.6659 95.4219 88.6815 95.5C88.7752 95.5625 88.8456 95.6016 88.8924 95.6172C88.9549 95.6641 89.0487 95.7188 89.1737 95.7812L89.3846 96.0156C89.4627 96.4688 89.3924 96.8281 89.1737 97.0938C88.9393 97.3906 88.5409 97.5391 87.9784 97.5391H87.6971C87.619 97.4609 87.5721 97.3984 87.5565 97.3516C87.4315 97.3047 87.3299 97.2656 87.2518 97.2344C87.1737 97.2031 87.1034 97.1406 87.0409 97.0469C86.8377 96.9531 86.6737 96.875 86.5487 96.8125L86.3377 96.6953C86.3377 96.5234 86.3377 96.4297 86.3377 96.4141C86.2284 96.2734 86.1424 96.1172 86.0799 95.9453C86.0331 95.7734 85.994 95.6016 85.9627 95.4297C85.9315 95.2891 85.8924 95.1562 85.8456 95.0312C85.8143 94.9062 85.7674 94.7969 85.7049 94.7031C85.6737 93.7969 85.7596 93.0312 85.9627 92.4062C86.1659 91.7812 86.3768 91.1797 86.5956 90.6016C86.7206 90.2891 86.8456 89.9766 86.9706 89.6641C87.0956 89.3359 87.2049 89 87.2987 88.6562L87.5096 88.4219C87.619 88.1719 87.7049 87.9688 87.7674 87.8125C87.8456 87.6406 87.9237 87.4688 88.0018 87.2969C88.0487 87.1875 88.0877 87.0859 88.119 86.9922C88.1659 86.8828 88.2049 86.7891 88.2362 86.7109C88.1424 86.7109 88.0565 86.7188 87.9784 86.7344C87.9002 86.7344 87.8221 86.7422 87.744 86.7578C87.6502 86.7734 87.5643 86.7891 87.4862 86.8047C87.4081 86.8047 87.3299 86.8047 87.2518 86.8047C87.1424 86.8047 87.0643 86.7969 87.0174 86.7812C86.8456 86.8594 86.6581 86.8984 86.4549 86.8984H86.2206C86.1737 86.8984 86.1268 86.8984 86.0799 86.8984C86.0487 86.8828 86.0174 86.875 85.9862 86.875C85.8299 86.875 85.7049 86.8984 85.6112 86.9453C85.4237 86.9453 85.244 86.9453 85.0721 86.9453H84.8377C84.8065 86.9453 84.7674 86.9531 84.7206 86.9688C84.6737 86.9688 84.6346 86.9688 84.6034 86.9688C84.494 86.9688 84.3768 86.9609 84.2518 86.9453C84.1268 86.9141 83.994 86.8594 83.8534 86.7812C83.6659 86.5312 83.5409 86.3984 83.4784 86.3828L83.2674 86.1016C83.2518 86.0078 83.2284 85.9219 83.1971 85.8438C83.1659 85.75 83.1346 85.6484 83.1034 85.5391C83.0409 85.3828 82.9784 85.2188 82.9159 85.0469C82.869 84.8594 82.8456 84.6406 82.8456 84.3906C82.8612 84.2656 82.8924 84.1719 82.9393 84.1094C82.9862 84.0469 83.0252 83.9922 83.0565 83.9453L83.1268 83.5938L83.4315 83.6172H84.0877C84.5877 83.6172 85.0956 83.6016 85.6112 83.5703C86.1268 83.5234 86.6581 83.4766 87.2049 83.4297C87.5174 83.3984 87.8299 83.3672 88.1424 83.3359C88.4706 83.3047 88.8065 83.2734 89.1502 83.2422C89.2127 83.1016 89.2752 82.9688 89.3377 82.8438L89.5721 82.7266C89.8534 82.7109 90.0487 82.75 90.1581 82.8438C90.2831 82.9219 90.3846 83 90.4627 83.0781C90.8065 83.0469 91.1502 83.0156 91.494 82.9844C91.8534 82.9375 92.2127 82.8828 92.5721 82.8203C93.1034 82.7422 93.6346 82.6719 94.1659 82.6094C94.7127 82.5469 95.2362 82.5156 95.7362 82.5156C95.9549 82.5156 96.1659 82.5234 96.369 82.5391C96.5721 82.5547 96.7596 82.5781 96.9315 82.6094L97.1659 82.7734C97.2127 82.8672 97.2752 82.9531 97.3534 83.0312C97.4471 83.1094 97.5409 83.1875 97.6346 83.2656C97.8221 83.4375 98.0096 83.6406 98.1971 83.875C98.3846 84.1094 98.4549 84.4531 98.4081 84.9062C98.2831 85.0938 98.1893 85.2031 98.1268 85.2344L97.9159 85.5156L97.6815 85.4922C97.5877 85.4922 97.5018 85.5078 97.4237 85.5391C97.3456 85.5547 97.2674 85.5781 97.1893 85.6094C97.1268 85.6406 97.0643 85.6719 97.0018 85.7031C96.9393 85.7188 96.869 85.7344 96.7909 85.75C96.6502 85.75 96.5331 85.75 96.4393 85.75C96.3612 85.7344 96.2752 85.7266 96.1815 85.7266ZM119.194 83.8047C119.21 83.9141 119.21 84 119.194 84.0625C119.194 84.1094 119.186 84.1562 119.171 84.2031C119.171 84.25 119.171 84.3047 119.171 84.3672C119.171 84.4141 119.186 84.4922 119.218 84.6016C118.89 85.1328 118.507 85.5 118.069 85.7031C117.647 85.8906 117.186 86.0312 116.686 86.125C116.186 86.2031 115.671 86.2891 115.14 86.3828C114.624 86.4766 114.108 86.6797 113.593 86.9922C113.39 86.9141 113.202 86.9141 113.03 86.9922C112.874 87.0703 112.64 87.0938 112.327 87.0625C112.233 87.1562 112.116 87.2266 111.976 87.2734C111.835 87.3047 111.694 87.3438 111.554 87.3906C111.616 87.5312 111.64 87.6797 111.624 87.8359C111.624 87.9766 111.647 88.0938 111.694 88.1875C112.241 88.2344 112.843 88.2266 113.499 88.1641C114.171 88.1016 114.827 88.0625 115.468 88.0469C115.483 88.125 115.476 88.1797 115.444 88.2109C115.413 88.2266 115.405 88.2656 115.421 88.3281C115.53 88.4062 115.64 88.5078 115.749 88.6328C115.858 88.7422 115.968 88.8516 116.077 88.9609C116.186 89.0703 116.296 89.1641 116.405 89.2422C116.53 89.3047 116.671 89.3281 116.827 89.3125C116.89 89.4375 116.929 89.5781 116.944 89.7344C116.976 89.875 116.96 90.0234 116.897 90.1797C116.647 90.3516 116.397 90.5312 116.147 90.7188C115.897 90.8906 115.632 91.0469 115.351 91.1875C115.085 91.3281 114.796 91.4453 114.483 91.5391C114.186 91.6172 113.851 91.6484 113.476 91.6328C113.397 91.6328 113.335 91.6328 113.288 91.6328C113.257 91.6328 113.21 91.6094 113.147 91.5625C113.022 91.6406 112.843 91.6641 112.608 91.6328C112.39 91.6016 112.218 91.625 112.093 91.7031C111.921 91.625 111.71 91.5938 111.46 91.6094C111.226 91.6094 111.015 91.5781 110.827 91.5156C110.577 91.8438 110.351 92.1953 110.147 92.5703C109.944 92.9453 109.765 93.3438 109.608 93.7656C110.14 93.8438 110.577 93.875 110.921 93.8594C111.28 93.8438 111.616 93.8203 111.929 93.7891C112.241 93.7422 112.561 93.7031 112.89 93.6719C113.218 93.625 113.632 93.6094 114.132 93.625C114.444 93.4531 114.811 93.3438 115.233 93.2969C115.671 93.2344 116.069 93.1406 116.429 93.0156C116.554 93.0625 116.663 93.1484 116.757 93.2734C116.851 93.3828 116.936 93.4922 117.015 93.6016C117.108 93.6953 117.202 93.7812 117.296 93.8594C117.39 93.9375 117.507 93.9688 117.647 93.9531C117.71 94.0156 117.749 94.0938 117.765 94.1875C117.796 94.2656 117.819 94.3438 117.835 94.4219C117.851 94.5 117.874 94.5703 117.905 94.6328C117.952 94.6797 118.022 94.6953 118.116 94.6797C117.882 95.1953 117.608 95.5938 117.296 95.875C116.999 96.1406 116.655 96.3438 116.265 96.4844C115.874 96.625 115.436 96.7344 114.952 96.8125C114.483 96.8906 113.96 96.9844 113.382 97.0938C113.241 97.125 113.124 97.1172 113.03 97.0703C112.936 97.0391 112.827 97.0234 112.702 97.0234C112.343 97.1016 111.913 97.1719 111.413 97.2344C110.913 97.2969 110.405 97.3203 109.89 97.3047C109.374 97.2891 108.882 97.2188 108.413 97.0938C107.944 96.9844 107.561 96.7812 107.265 96.4844C107.14 96.375 107.054 96.25 107.007 96.1094C106.976 95.9531 106.874 95.8359 106.702 95.7578C106.686 95.5547 106.655 95.3281 106.608 95.0781C106.561 94.8281 106.515 94.5703 106.468 94.3047C106.421 94.0234 106.382 93.75 106.351 93.4844C106.335 93.2188 106.351 92.9766 106.397 92.7578C106.444 92.5234 106.538 92.3125 106.679 92.125C106.835 91.9375 106.89 91.7344 106.843 91.5156C106.921 91.5 106.968 91.4609 106.983 91.3984C106.999 91.3203 107.061 91.2891 107.171 91.3047C107.265 91.0234 107.366 90.7578 107.476 90.5078C107.585 90.2578 107.694 90.0156 107.804 89.7812C107.929 89.5469 108.046 89.3125 108.155 89.0781C108.28 88.8281 108.397 88.5547 108.507 88.2578C108.288 88.0547 108.124 87.8359 108.015 87.6016C107.921 87.3516 107.851 87.1094 107.804 86.875C107.757 86.625 107.718 86.375 107.686 86.125C107.655 85.8594 107.601 85.5938 107.522 85.3281C107.679 85.0938 107.866 84.9062 108.085 84.7656C108.319 84.6094 108.569 84.4844 108.835 84.3906C109.101 84.2969 109.39 84.2188 109.702 84.1562C110.015 84.0938 110.343 84.0234 110.686 83.9453C111.311 83.7422 111.866 83.5859 112.351 83.4766C112.851 83.3672 113.335 83.2812 113.804 83.2188C114.288 83.1406 114.788 83.0703 115.304 83.0078C115.819 82.9453 116.405 82.8516 117.061 82.7266C117.202 82.8672 117.335 82.9375 117.46 82.9375C117.522 82.7969 117.593 82.7578 117.671 82.8203C117.765 82.8672 117.804 82.8203 117.788 82.6797C117.944 82.9453 118.14 83.1719 118.374 83.3594C118.624 83.5312 118.897 83.6797 119.194 83.8047ZM128.908 82.4688C129.564 82.5469 130.15 82.6797 130.666 82.8672C131.181 83.0547 131.619 83.3047 131.978 83.6172C132.228 84.0078 132.462 84.4297 132.681 84.8828C132.916 85.3359 133.087 85.8125 133.197 86.3125C133.322 86.7969 133.376 87.2969 133.361 87.8125C133.361 88.3281 133.251 88.8516 133.033 89.3828C132.58 89.9453 132.025 90.4062 131.369 90.7656C130.728 91.1094 130.033 91.3906 129.283 91.6094C128.533 91.8281 127.751 92.0156 126.939 92.1719C126.142 92.3281 125.361 92.4844 124.595 92.6406C124.611 93 124.611 93.3828 124.595 93.7891C124.595 94.1797 124.556 94.5781 124.478 94.9844C124.416 95.375 124.314 95.7578 124.173 96.1328C124.033 96.5078 123.845 96.8516 123.611 97.1641C123.345 97.1641 123.072 97.1953 122.791 97.2578C122.509 97.3359 122.259 97.3984 122.041 97.4453C121.931 97.3828 121.83 97.3203 121.736 97.2578C121.658 97.2109 121.541 97.1797 121.384 97.1641C121.416 97.0078 121.376 96.8516 121.267 96.6953C121.158 96.5234 121.048 96.3516 120.939 96.1797C120.83 96.0078 120.751 95.8438 120.705 95.6875C120.673 95.5312 120.751 95.3828 120.939 95.2422C120.83 95.1328 120.775 94.9922 120.775 94.8203C120.884 94.6328 120.978 94.375 121.056 94.0469C121.15 93.7188 121.22 93.3984 121.267 93.0859C121.33 92.7578 121.345 92.4609 121.314 92.1953C121.283 91.9297 121.126 91.7344 120.845 91.6094C120.861 91.5781 120.892 91.5625 120.939 91.5625C120.986 91.5625 121.033 91.5547 121.08 91.5391C120.955 91.4453 120.876 91.3125 120.845 91.1406C120.83 90.9688 120.775 90.8203 120.681 90.6953C120.712 90.6172 120.736 90.5469 120.751 90.4844C120.767 90.4219 120.822 90.3984 120.916 90.4141C120.869 90.1328 120.869 89.8672 120.916 89.6172C120.978 89.3672 121.064 89.1328 121.173 88.9141C121.283 88.6797 121.416 88.4531 121.572 88.2344C121.728 88.0156 121.876 87.7969 122.017 87.5781C122.126 87.5625 122.189 87.5781 122.205 87.625C122.236 87.6719 122.291 87.6641 122.369 87.6016C122.572 87.4453 122.712 87.2812 122.791 87.1094C122.869 86.9375 122.908 86.7422 122.908 86.5234C123.017 86.1953 123.15 85.8672 123.306 85.5391C123.462 85.1953 123.634 84.8828 123.822 84.6016C124.009 84.3203 124.212 84.0703 124.431 83.8516C124.666 83.6328 124.908 83.4688 125.158 83.3594C125.345 83.2031 125.58 83.0625 125.861 82.9375C126.142 82.7969 126.447 82.6953 126.775 82.6328C127.103 82.5547 127.431 82.5156 127.759 82.5156C128.103 82.5 128.416 82.5312 128.697 82.6094C128.775 82.6406 128.814 82.625 128.814 82.5625C128.83 82.5 128.861 82.4688 128.908 82.4688ZM127.947 88.0703C128.337 87.8984 128.751 87.7656 129.189 87.6719C129.642 87.5625 130.017 87.3672 130.314 87.0859C130.126 86.9141 129.853 86.7656 129.494 86.6406C129.134 86.5 128.744 86.4141 128.322 86.3828C127.9 86.3516 127.47 86.3906 127.033 86.5C126.611 86.5938 126.244 86.7812 125.931 87.0625C125.837 87.3438 125.759 87.5703 125.697 87.7422C125.634 87.8984 125.548 88.0938 125.439 88.3281C125.47 88.4062 125.517 88.4688 125.58 88.5156C125.658 88.5469 125.712 88.6016 125.744 88.6797C126.103 88.4922 126.462 88.3906 126.822 88.375C127.197 88.3438 127.572 88.2422 127.947 88.0703ZM139.066 95.3594C139.145 95.8281 139.113 96.1953 138.973 96.4609C138.848 96.7266 138.66 96.9219 138.41 97.0469C138.176 97.1875 137.902 97.2656 137.59 97.2812C137.277 97.2969 136.981 97.2812 136.699 97.2344C136.543 97.0156 136.402 96.7422 136.277 96.4141C136.152 96.0859 136.035 95.75 135.926 95.4062C135.816 95.0469 135.715 94.6953 135.621 94.3516C135.543 94.0078 135.473 93.7031 135.41 93.4375C135.488 93.25 135.535 93.0391 135.551 92.8047C135.582 92.5547 135.598 92.3047 135.598 92.0547C135.613 91.8047 135.621 91.5547 135.621 91.3047C135.637 91.0391 135.66 90.7891 135.691 90.5547C135.801 89.8984 135.957 89.2734 136.16 88.6797C136.379 88.0859 136.551 87.4688 136.676 86.8281C136.707 86.6875 136.691 86.5547 136.629 86.4297C136.582 86.3047 136.574 86.1875 136.606 86.0781C136.621 86.0156 136.668 85.9766 136.746 85.9609C136.824 85.9297 136.871 85.875 136.887 85.7969C136.934 85.625 136.941 85.4844 136.91 85.375C136.895 85.2656 136.926 85.1328 137.004 84.9766C137.082 84.8516 137.176 84.6719 137.285 84.4375C137.41 84.1875 137.457 83.9297 137.426 83.6641C137.566 83.5703 137.699 83.4609 137.824 83.3359C137.949 83.2109 138.074 83.1016 138.199 83.0078C138.34 82.8984 138.488 82.8047 138.645 82.7266C138.816 82.6484 139.02 82.6094 139.254 82.6094C139.379 82.7656 139.457 82.9375 139.488 83.125C139.535 83.3125 139.574 83.5 139.606 83.6875C139.652 83.875 139.715 84.0547 139.793 84.2266C139.871 84.3828 140.004 84.5078 140.191 84.6016C140.191 84.7266 140.191 84.8828 140.191 85.0703C140.191 85.2578 140.199 85.4453 140.215 85.6328C140.231 85.8047 140.262 85.9688 140.309 86.125C140.371 86.2656 140.465 86.3594 140.59 86.4062C140.309 87.1562 140.043 87.8984 139.793 88.6328C139.559 89.3672 139.363 90.1094 139.207 90.8594C139.051 91.5938 138.949 92.3359 138.902 93.0859C138.871 93.8359 138.926 94.5938 139.066 95.3594ZM152.061 82.4688C152.717 82.5469 153.303 82.6797 153.819 82.8672C154.335 83.0547 154.772 83.3047 155.131 83.6172C155.381 84.0078 155.616 84.4297 155.835 84.8828C156.069 85.3359 156.241 85.8125 156.35 86.3125C156.475 86.7969 156.53 87.2969 156.514 87.8125C156.514 88.3281 156.405 88.8516 156.186 89.3828C155.733 89.9453 155.178 90.4062 154.522 90.7656C153.881 91.1094 153.186 91.3906 152.436 91.6094C151.686 91.8281 150.905 92.0156 150.092 92.1719C149.296 92.3281 148.514 92.4844 147.749 92.6406C147.764 93 147.764 93.3828 147.749 93.7891C147.749 94.1797 147.71 94.5781 147.631 94.9844C147.569 95.375 147.467 95.7578 147.327 96.1328C147.186 96.5078 146.999 96.8516 146.764 97.1641C146.499 97.1641 146.225 97.1953 145.944 97.2578C145.663 97.3359 145.413 97.3984 145.194 97.4453C145.085 97.3828 144.983 97.3203 144.889 97.2578C144.811 97.2109 144.694 97.1797 144.538 97.1641C144.569 97.0078 144.53 96.8516 144.421 96.6953C144.311 96.5234 144.202 96.3516 144.092 96.1797C143.983 96.0078 143.905 95.8438 143.858 95.6875C143.827 95.5312 143.905 95.3828 144.092 95.2422C143.983 95.1328 143.928 94.9922 143.928 94.8203C144.038 94.6328 144.131 94.375 144.21 94.0469C144.303 93.7188 144.374 93.3984 144.421 93.0859C144.483 92.7578 144.499 92.4609 144.467 92.1953C144.436 91.9297 144.28 91.7344 143.999 91.6094C144.014 91.5781 144.046 91.5625 144.092 91.5625C144.139 91.5625 144.186 91.5547 144.233 91.5391C144.108 91.4453 144.03 91.3125 143.999 91.1406C143.983 90.9688 143.928 90.8203 143.835 90.6953C143.866 90.6172 143.889 90.5469 143.905 90.4844C143.921 90.4219 143.975 90.3984 144.069 90.4141C144.022 90.1328 144.022 89.8672 144.069 89.6172C144.131 89.3672 144.217 89.1328 144.327 88.9141C144.436 88.6797 144.569 88.4531 144.725 88.2344C144.881 88.0156 145.03 87.7969 145.171 87.5781C145.28 87.5625 145.342 87.5781 145.358 87.625C145.389 87.6719 145.444 87.6641 145.522 87.6016C145.725 87.4453 145.866 87.2812 145.944 87.1094C146.022 86.9375 146.061 86.7422 146.061 86.5234C146.171 86.1953 146.303 85.8672 146.46 85.5391C146.616 85.1953 146.788 84.8828 146.975 84.6016C147.163 84.3203 147.366 84.0703 147.585 83.8516C147.819 83.6328 148.061 83.4688 148.311 83.3594C148.499 83.2031 148.733 83.0625 149.014 82.9375C149.296 82.7969 149.6 82.6953 149.928 82.6328C150.256 82.5547 150.585 82.5156 150.913 82.5156C151.256 82.5 151.569 82.5312 151.85 82.6094C151.928 82.6406 151.967 82.625 151.967 82.5625C151.983 82.5 152.014 82.4688 152.061 82.4688ZM151.1 88.0703C151.491 87.8984 151.905 87.7656 152.342 87.6719C152.796 87.5625 153.171 87.3672 153.467 87.0859C153.28 86.9141 153.006 86.7656 152.647 86.6406C152.288 86.5 151.897 86.4141 151.475 86.3828C151.053 86.3516 150.624 86.3906 150.186 86.5C149.764 86.5938 149.397 86.7812 149.085 87.0625C148.991 87.3438 148.913 87.5703 148.85 87.7422C148.788 87.8984 148.702 88.0938 148.592 88.3281C148.624 88.4062 148.671 88.4688 148.733 88.5156C148.811 88.5469 148.866 88.6016 148.897 88.6797C149.256 88.4922 149.616 88.3906 149.975 88.375C150.35 88.3438 150.725 88.2422 151.1 88.0703ZM169.251 94.7266C169.282 95.1328 169.236 95.4688 169.111 95.7344C168.986 96 168.814 96.2266 168.595 96.4141C168.376 96.6016 168.126 96.75 167.845 96.8594C167.564 96.9688 167.29 97.0703 167.025 97.1641C166.9 97.0859 166.775 97.0078 166.65 96.9297C166.54 96.8359 166.407 96.7656 166.251 96.7188C166.048 96.3438 165.853 96.0156 165.665 95.7344C165.478 95.4375 165.392 95.1016 165.407 94.7266C165.407 94.7109 165.415 94.625 165.431 94.4688C165.462 94.3125 165.493 94.1406 165.525 93.9531C165.572 93.7656 165.603 93.5938 165.618 93.4375C165.65 93.2656 165.665 93.1719 165.665 93.1562C165.306 93.1875 164.931 93.2656 164.54 93.3906C164.15 93.5156 163.767 93.6641 163.392 93.8359C163.032 94.0078 162.689 94.1797 162.361 94.3516C162.048 94.5234 161.79 94.6719 161.587 94.7969C161.587 94.8438 161.556 94.9609 161.493 95.1484C161.431 95.3203 161.353 95.5078 161.259 95.7109C161.165 95.8984 161.064 96.0703 160.954 96.2266C160.845 96.3828 160.736 96.4609 160.626 96.4609C160.642 96.5078 160.665 96.5547 160.697 96.6016C160.728 96.6484 160.728 96.7109 160.697 96.7891C160.478 96.8516 160.282 96.9297 160.111 97.0234C159.939 97.1328 159.759 97.2188 159.572 97.2812C159.384 97.3594 159.181 97.3984 158.962 97.3984C158.743 97.3984 158.486 97.3203 158.189 97.1641C158.189 97.0703 158.15 96.9922 158.072 96.9297C157.993 96.8516 157.907 96.7891 157.814 96.7422C157.736 96.6797 157.665 96.6328 157.603 96.6016C157.54 96.5547 157.509 96.5156 157.509 96.4844C157.431 96.5 157.4 96.4453 157.415 96.3203C157.431 96.1953 157.493 96.1641 157.603 96.2266C157.431 96.0078 157.322 95.8203 157.275 95.6641C157.243 95.4922 157.157 95.2812 157.017 95.0312C157.048 95 157.079 94.9453 157.111 94.8672C157.126 94.7891 157.142 94.7188 157.157 94.6562C157.173 94.5938 157.197 94.5469 157.228 94.5156C157.259 94.4844 157.298 94.4922 157.345 94.5391C157.314 94.3984 157.314 94.2812 157.345 94.1875C157.376 94.0938 157.407 94.0078 157.439 93.9297C157.47 93.8516 157.493 93.7734 157.509 93.6953C157.525 93.6172 157.501 93.5312 157.439 93.4375C157.689 93.0938 157.853 92.7266 157.931 92.3359C158.009 91.9297 158.056 91.5625 158.072 91.2344C158.181 91.125 158.275 90.9688 158.353 90.7656C158.447 90.5625 158.517 90.3594 158.564 90.1562C158.611 89.9375 158.626 89.7344 158.611 89.5469C158.611 89.3438 158.587 89.1797 158.54 89.0547C158.556 88.9766 158.642 88.9531 158.798 88.9844C158.892 88.4688 158.954 87.8906 158.986 87.25C159.032 86.5938 159.103 85.9766 159.197 85.3984C159.29 84.8047 159.447 84.2891 159.665 83.8516C159.884 83.3984 160.236 83.1016 160.72 82.9609C160.814 83.2891 160.931 83.5781 161.072 83.8281C161.228 84.0781 161.392 84.3203 161.564 84.5547C161.751 84.7734 161.931 85 162.103 85.2344C162.29 85.4688 162.462 85.7344 162.618 86.0312C162.603 86.3281 162.572 86.6719 162.525 87.0625C162.478 87.4531 162.415 87.8516 162.337 88.2578C162.275 88.6641 162.204 89.0547 162.126 89.4297C162.064 89.8047 162.001 90.125 161.939 90.3906C161.954 90.4688 161.993 90.5156 162.056 90.5312C162.134 90.5469 162.15 90.6172 162.103 90.7422C162.478 90.6484 162.868 90.5625 163.275 90.4844C163.681 90.4062 164.087 90.3203 164.493 90.2266C164.9 90.1328 165.29 90.0312 165.665 89.9219C166.056 89.7969 166.415 89.6484 166.743 89.4766C166.822 88.8672 166.923 88.2578 167.048 87.6484C167.173 87.0391 167.189 86.4141 167.095 85.7734C167.173 85.7109 167.236 85.6328 167.282 85.5391C167.329 85.4453 167.407 85.3828 167.517 85.3516C167.439 85.0547 167.407 84.7422 167.423 84.4141C167.439 84.0859 167.493 83.7734 167.587 83.4766C167.697 83.1797 167.845 82.9297 168.032 82.7266C168.236 82.5078 168.478 82.3672 168.759 82.3047C168.931 82.5547 169.079 82.8281 169.204 83.125C169.329 83.4062 169.454 83.6953 169.579 83.9922C169.72 84.2734 169.861 84.5469 170.001 84.8125C170.157 85.0625 170.353 85.2812 170.587 85.4688C170.634 85.9219 170.665 86.3906 170.681 86.875C170.712 87.3594 170.736 87.8516 170.751 88.3516C170.626 88.9453 170.486 89.5234 170.329 90.0859C170.189 90.6328 170.087 91.2188 170.025 91.8438C169.915 91.9688 169.829 92.1094 169.767 92.2656C169.704 92.4219 169.642 92.5859 169.579 92.7578C169.517 92.9141 169.447 93.0703 169.368 93.2266C169.29 93.3672 169.197 93.4922 169.087 93.6016C169.15 93.7891 169.157 93.9688 169.111 94.1406C169.079 94.2969 169.126 94.4922 169.251 94.7266ZM185.058 95.0312C184.965 95.2969 184.824 95.5703 184.636 95.8516C184.465 96.1172 184.254 96.3594 184.004 96.5781C183.769 96.7812 183.504 96.9531 183.207 97.0938C182.91 97.2344 182.597 97.3125 182.269 97.3281C182.066 97.2812 181.926 97.2266 181.847 97.1641C181.785 97.1172 181.715 97.0703 181.636 97.0234C181.59 96.9922 181.543 96.9688 181.496 96.9531C181.465 96.9219 181.433 96.8984 181.402 96.8828L181.121 96.7656L181.215 96.4609C181.246 96.3359 181.238 96.2422 181.191 96.1797C181.144 96.1016 181.051 96 180.91 95.875C180.863 95.8281 180.816 95.7812 180.769 95.7344C180.722 95.6875 180.683 95.6406 180.652 95.5938L180.254 95.1484L180.886 94.9844C181.277 94.875 181.535 94.7344 181.66 94.5625C181.801 94.3906 181.855 94.1016 181.824 93.6953C181.511 93.6328 181.246 93.625 181.027 93.6719C180.824 93.7188 180.613 93.7734 180.394 93.8359C180.113 93.9141 179.824 93.9844 179.527 94.0469C179.246 94.0938 178.933 94.1172 178.59 94.1172C178.465 94.1172 178.347 94.1172 178.238 94.1172C178.129 94.1016 178.011 94.0859 177.886 94.0703L177.652 94.0234C177.621 93.8516 177.59 93.7578 177.558 93.7422C177.527 93.7109 177.496 93.6797 177.465 93.6484C177.386 93.5703 177.301 93.4688 177.207 93.3438C177.129 93.2031 177.113 93.0312 177.16 92.8281C177.082 92.6875 177.035 92.5469 177.019 92.4062C176.926 92.5938 176.855 92.7891 176.808 92.9922L176.715 93.2266L176.48 93.2734C176.449 93.2891 176.426 93.3281 176.41 93.3906C176.394 93.4375 176.386 93.4766 176.386 93.5078L176.269 93.9062C176.238 93.9375 176.207 93.9688 176.176 94C176.144 94.0156 176.113 94.0391 176.082 94.0703C176.051 94.2109 176.011 94.3516 175.965 94.4922C175.918 94.6328 175.871 94.7656 175.824 94.8906C175.746 95.0938 175.676 95.2969 175.613 95.5C175.566 95.6875 175.551 95.875 175.566 96.0625L175.472 96.3203C175.394 96.4141 175.308 96.4922 175.215 96.5547C175.121 96.6016 175.027 96.6484 174.933 96.6953C174.902 96.7266 174.855 96.7578 174.793 96.7891C174.746 96.8047 174.707 96.8203 174.676 96.8359L174.605 97.0938L174.324 97.1406C174.152 97.1719 174.027 97.1953 173.949 97.2109C173.886 97.2266 173.808 97.2344 173.715 97.2344L173.48 97.2109C173.308 97.0703 173.176 96.9609 173.082 96.8828C172.988 96.7891 172.879 96.7031 172.754 96.625C172.613 96.4375 172.535 96.2969 172.519 96.2031C172.504 96.1094 172.488 96.0234 172.472 95.9453C172.441 95.8516 172.426 95.7734 172.426 95.7109C172.41 95.6484 172.386 95.6016 172.355 95.5703L172.051 95.2891L172.308 95.0781L172.332 94.6797C172.644 93.8828 172.972 93.1172 173.316 92.3828C173.676 91.6484 174.043 90.8984 174.418 90.1328C174.543 89.8828 174.66 89.6328 174.769 89.3828C174.894 89.1328 175.019 88.8828 175.144 88.6328C175.129 88.5859 175.121 88.5312 175.121 88.4688C175.121 88.4062 175.136 88.3359 175.168 88.2578C175.34 87.9922 175.48 87.7578 175.59 87.5547C175.699 87.3359 175.808 87.1172 175.918 86.8984C176.043 86.6328 176.168 86.375 176.293 86.125C176.433 85.875 176.605 85.6172 176.808 85.3516L177.183 85.1875C177.23 85.1719 177.285 85.1562 177.347 85.1406C177.41 85.1094 177.48 85.0938 177.558 85.0938L177.91 85.1406C178.347 84.9375 178.73 84.6562 179.058 84.2969C179.386 83.9219 179.722 83.4766 180.066 82.9609L180.301 82.6328L180.605 82.8203C180.683 82.8672 180.793 82.9141 180.933 82.9609C181.074 82.9922 181.222 83.0312 181.379 83.0781C181.66 83.1406 181.926 83.2109 182.176 83.2891C182.426 83.3672 182.629 83.4844 182.785 83.6406C182.879 83.8906 182.933 84.0781 182.949 84.2031C182.965 84.3281 182.988 84.4531 183.019 84.5781C183.066 84.8438 183.105 85.1094 183.136 85.375C183.183 85.6406 183.215 85.9375 183.23 86.2656C183.308 86.5312 183.371 86.7969 183.418 87.0625C183.48 87.3125 183.535 87.5703 183.582 87.8359C183.66 88.2109 183.738 88.5781 183.816 88.9375C183.894 89.2812 183.996 89.6094 184.121 89.9219C184.246 89.9219 184.324 89.9297 184.355 89.9453C184.433 89.9141 184.511 89.8906 184.59 89.875C184.683 89.8594 184.785 89.8438 184.894 89.8281L185.152 89.8047L185.246 90.0391C185.261 90.1172 185.34 90.1953 185.48 90.2734C185.683 90.2891 185.832 90.3359 185.926 90.4141C186.019 90.4766 186.105 90.5469 186.183 90.625C186.246 90.6875 186.308 90.7344 186.371 90.7656L186.722 90.9062L186.535 91.2578C186.379 91.5391 186.152 91.8125 185.855 92.0781C185.574 92.3281 185.254 92.5391 184.894 92.7109C184.91 92.8047 184.918 92.8984 184.918 92.9922C184.933 93.0703 184.957 93.1562 184.988 93.25C185.035 93.5156 185.074 93.7891 185.105 94.0703C185.136 94.3516 185.136 94.6406 185.105 94.9375L185.058 95.0312ZM178.285 90.9766C178.754 90.9453 179.176 90.9141 179.551 90.8828C179.941 90.8359 180.371 90.7656 180.84 90.6719C180.73 90.2031 180.613 89.7188 180.488 89.2188C180.363 88.7031 180.23 88.1953 180.09 87.6953L179.949 87.9297C179.636 88.2578 179.332 88.625 179.035 89.0312C178.754 89.4375 178.511 89.8203 178.308 90.1797C178.215 90.3203 178.121 90.4609 178.027 90.6016C177.933 90.7422 177.847 90.8828 177.769 91.0234C177.863 91.0078 177.949 91 178.027 91C178.121 91 178.207 90.9922 178.285 90.9766ZM192.85 92.7344C192.709 92.7656 192.608 92.8516 192.545 92.9922C192.483 93.1172 192.42 93.25 192.358 93.3906C192.311 93.5312 192.256 93.6641 192.194 93.7891C192.147 93.8984 192.069 93.9531 191.959 93.9531C191.944 94.0781 191.897 94.1875 191.819 94.2812C191.756 94.375 191.694 94.4766 191.631 94.5859C191.569 94.6797 191.522 94.7891 191.491 94.9141C191.459 95.0234 191.475 95.1562 191.537 95.3125C191.412 95.4062 191.334 95.5391 191.303 95.7109C191.272 95.8828 191.233 96.0469 191.186 96.2031C191.155 96.3594 191.092 96.4922 190.998 96.6016C190.905 96.7109 190.733 96.7578 190.483 96.7422C190.436 96.8047 190.428 96.8438 190.459 96.8594C190.491 96.875 190.514 96.9297 190.53 97.0234C190.358 96.9922 190.225 97 190.131 97.0469C190.053 97.1094 189.951 97.1484 189.826 97.1641C189.53 97.0703 189.28 96.9062 189.076 96.6719C188.889 96.4375 188.717 96.1797 188.561 95.8984C188.42 95.6016 188.287 95.3047 188.162 95.0078C188.053 94.7109 187.944 94.4531 187.834 94.2344C187.881 94.0625 187.889 93.8984 187.858 93.7422C187.826 93.5703 187.772 93.4297 187.694 93.3203C188.459 91.6953 189.295 89.9609 190.201 88.1172C191.108 86.2734 191.967 84.4531 192.78 82.6562C193.139 82.7969 193.491 82.9609 193.834 83.1484C194.194 83.3203 194.514 83.5234 194.795 83.7578C195.092 83.9922 195.342 84.2656 195.545 84.5781C195.748 84.875 195.881 85.2109 195.944 85.5859C195.912 85.6797 195.873 85.7188 195.826 85.7031C195.795 85.6719 195.764 85.6797 195.733 85.7266C195.795 85.8047 195.826 85.8594 195.826 85.8906C195.842 85.9219 195.842 85.9531 195.826 85.9844C195.826 86.0156 195.826 86.0625 195.826 86.125C195.826 86.1719 195.85 86.2422 195.897 86.3359C195.834 86.3203 195.787 86.3281 195.756 86.3594C195.741 86.3906 195.694 86.3906 195.616 86.3594C195.678 86.5312 195.694 86.6719 195.662 86.7812C195.647 86.8906 195.616 86.9922 195.569 87.0859C195.522 87.1641 195.483 87.2578 195.451 87.3672C195.42 87.4609 195.428 87.5859 195.475 87.7422C195.428 87.7422 195.389 87.7578 195.358 87.7891C195.342 87.8047 195.326 87.8281 195.311 87.8594C195.295 87.875 195.272 87.8984 195.241 87.9297C195.225 87.9453 195.194 87.9453 195.147 87.9297C195.194 88.2734 195.209 88.6172 195.194 88.9609C195.178 89.3047 195.162 89.6562 195.147 90.0156C195.147 90.3594 195.155 90.7266 195.17 91.1172C195.186 91.4922 195.241 91.8828 195.334 92.2891C195.897 91.9609 196.342 91.5391 196.67 91.0234C197.014 90.5078 197.287 89.9297 197.491 89.2891C197.709 88.6484 197.873 87.9609 197.983 87.2266C198.092 86.4922 198.209 85.7422 198.334 84.9766C198.475 84.8359 198.584 84.6641 198.662 84.4609C198.741 84.2578 198.811 84.0469 198.873 83.8281C198.936 83.5938 198.998 83.3672 199.061 83.1484C199.123 82.9141 199.201 82.7031 199.295 82.5156C199.53 82.5469 199.725 82.625 199.881 82.75C200.053 82.8594 200.209 82.9844 200.35 83.125C200.491 83.25 200.639 83.375 200.795 83.5C200.951 83.6094 201.147 83.6797 201.381 83.7109C201.569 83.9766 201.741 84.2344 201.897 84.4844C202.053 84.7344 202.155 85 202.201 85.2812C202.123 85.4062 202.061 85.5469 202.014 85.7031C201.983 85.8594 201.944 86.0156 201.897 86.1719C201.85 86.3281 201.787 86.4766 201.709 86.6172C201.631 86.7422 201.522 86.8516 201.381 86.9453C201.334 87.3516 201.272 87.7266 201.194 88.0703C201.131 88.3984 201.061 88.7266 200.983 89.0547C200.92 89.3828 200.866 89.7266 200.819 90.0859C200.772 90.4297 200.756 90.8125 200.772 91.2344C200.647 91.5938 200.514 91.9766 200.373 92.3828C200.233 92.7891 200.123 93.1562 200.045 93.4844C199.795 93.6875 199.6 93.9297 199.459 94.2109C199.319 94.4922 199.17 94.7734 199.014 95.0547C198.951 95.1172 198.912 95.1328 198.897 95.1016C198.881 95.0703 198.826 95.0469 198.733 95.0312C198.748 95.0938 198.748 95.1406 198.733 95.1719C198.717 95.2031 198.694 95.2344 198.662 95.2656C198.647 95.2812 198.631 95.3125 198.616 95.3594C198.616 95.4062 198.631 95.4688 198.662 95.5469C198.444 95.6406 198.248 95.7734 198.076 95.9453C197.905 96.1172 197.717 96.2734 197.514 96.4141C197.326 96.5547 197.092 96.6484 196.811 96.6953C196.545 96.7422 196.194 96.6875 195.756 96.5312C195.116 96.0625 194.545 95.5234 194.045 94.9141C193.561 94.3047 193.162 93.5781 192.85 92.7344ZM210.532 90.8594C210.423 90.9531 210.329 91.0703 210.251 91.2109C210.173 91.3359 210.095 91.4688 210.016 91.6094C209.938 91.7812 209.852 91.9453 209.759 92.1016C209.665 92.2578 209.548 92.3984 209.407 92.5234C209.329 92.7578 209.251 92.9453 209.173 93.0859C209.095 93.2109 208.97 93.3594 208.798 93.5312C208.641 94.1562 208.274 94.8359 207.696 95.5703C207.681 95.7109 207.634 95.8516 207.556 95.9922C207.493 96.1172 207.423 96.2422 207.345 96.3672C207.313 96.4141 207.282 96.4688 207.251 96.5312C207.22 96.5781 207.196 96.6172 207.181 96.6484L207.134 96.8828C207.056 97.0078 206.97 97.1172 206.876 97.2109C206.782 97.3047 206.696 97.3906 206.618 97.4688C206.587 97.5156 206.532 97.5781 206.454 97.6562L206.102 97.7969C204.962 97.6406 204.266 97.0312 204.016 95.9688L204.04 95.7344C204.071 95.6562 204.095 95.5781 204.11 95.5C204.141 95.4062 204.173 95.3125 204.204 95.2188C204.266 95 204.337 94.7812 204.415 94.5625C204.509 94.3438 204.641 94.1484 204.813 93.9766C204.845 93.8672 204.915 93.6953 205.024 93.4609C205.134 93.2109 205.321 92.8438 205.587 92.3594C205.806 91.9844 205.977 91.6875 206.102 91.4688C206.227 91.25 206.329 91.0781 206.407 90.9531C206.251 90.7031 206.063 90.4766 205.845 90.2734C205.641 89.8828 205.462 89.5078 205.306 89.1484C205.165 88.7891 205.056 88.4688 204.977 88.1875C204.962 87.9844 204.938 87.8125 204.907 87.6719C204.876 87.5312 204.845 87.3828 204.813 87.2266C204.766 87.0547 204.727 86.8828 204.696 86.7109C204.665 86.5391 204.649 86.3594 204.649 86.1719C204.571 86.0625 204.524 85.9531 204.509 85.8438L204.556 85.6094C204.602 85.5 204.61 85.3594 204.579 85.1875C204.548 85 204.509 84.8125 204.462 84.625C204.431 84.4688 204.391 84.2969 204.345 84.1094C204.313 83.9219 204.306 83.7344 204.321 83.5469C204.337 83.3594 204.384 83.1875 204.462 83.0312C204.556 82.8594 204.704 82.7109 204.907 82.5859L205.306 82.5625C205.446 82.6406 205.579 82.7188 205.704 82.7969C205.845 82.8594 205.977 82.9297 206.102 83.0078C206.274 83.0859 206.438 83.1641 206.595 83.2422C206.751 83.3203 206.915 83.4219 207.087 83.5469L207.251 83.875L207.556 84.1328V84.3906C207.571 84.4531 207.579 84.5391 207.579 84.6484C207.579 84.8516 207.61 84.9766 207.673 85.0234L207.766 85.3047C207.766 85.5234 207.79 85.7344 207.837 85.9375C207.884 86.125 207.931 86.3047 207.977 86.4766C208.024 86.6484 208.071 86.8281 208.118 87.0156C208.165 87.2031 208.173 87.4062 208.141 87.625C208.235 87.5781 208.313 87.5234 208.376 87.4609C208.407 87.4297 208.438 87.4062 208.47 87.3906C208.501 87.375 208.532 87.3516 208.563 87.3203L209.946 85.4453L209.899 85.2109L210.391 84.7422C210.516 84.6172 210.634 84.5 210.743 84.3906C210.868 84.2812 210.97 84.1641 211.048 84.0391L211.306 83.8516C211.806 83.0703 212.516 82.5859 213.438 82.3984L213.766 82.3516L213.86 82.6562C213.923 82.8281 214.048 82.9844 214.235 83.125C214.438 83.2656 214.649 83.3984 214.868 83.5234L215.079 83.6641C215.157 83.8203 215.196 83.9375 215.196 84.0156C215.196 84.0938 215.188 84.1641 215.173 84.2266L215.266 84.4609C215.141 84.8359 214.985 85.1094 214.798 85.2812C214.626 85.4531 214.454 85.6094 214.282 85.75C214.141 85.875 214.009 85.9922 213.884 86.1016C213.774 86.1953 213.688 86.3203 213.626 86.4766L213.462 86.6641C213.134 86.8516 212.923 87.1016 212.829 87.4141L212.759 87.6953H212.477C212.462 87.6953 212.423 87.7266 212.36 87.7891C212.313 87.8359 212.235 87.9688 212.126 88.1875C212.016 88.3438 211.938 88.4453 211.891 88.4922C211.845 88.5391 211.806 88.5781 211.774 88.6094C211.759 88.6719 211.735 88.7344 211.704 88.7969C211.688 88.8438 211.665 88.9062 211.634 88.9844C211.431 89.1875 211.306 89.3438 211.259 89.4531C211.212 89.5469 211.157 89.6562 211.095 89.7812C211.032 89.9062 210.97 90.0312 210.907 90.1562C210.86 90.2656 210.774 90.3828 210.649 90.5078L210.532 90.8594Z" fill="#D86B8C"/>
<path d="M149 17C105 14 25.4999 26.5 5.53672 95.1559C-20.9445 186.228 144.899 186.984 215 124.5C266 86.3441 205.4 12.1 149 2.5" stroke="#D86B8C" stroke-width="4" stroke-linecap="round"/>
<defs>
<filter id="filter0_d" x="17.0002" y="54" width="215" height="65" filterUnits="userSpaceOnUse" color-interpolation-filters="sRGB">
<feFlood flood-opacity="0" result="BackgroundImageFix"/>
<feColorMatrix in="SourceAlpha" type="matrix" values="0 0 0 0 0 0 0 0 0 0 0 0 0 0 0 0 0 0 127 0"/>
<feOffset/>
<feGaussianBlur stdDeviation="3.5"/>
<feColorMatrix type="matrix" values="0 0 0 0 0 0 0 0 0 0 0 0 0 0 0 0 0 0 0.25 0"/>
<feBlend mode="normal" in2="BackgroundImageFix" result="effect1_dropShadow"/>
<feBlend mode="normal" in="SourceGraphic" in2="effect1_dropShadow" result="shape"/>
</filter>
</defs>
</svg>
