<svg width="264" height="176" viewBox="0 0 264 176" fill="none" xmlns="http://www.w3.org/2000/svg">
<g filter="url(#filter0_d)">
<rect x="24.8203" y="60" width="218.872" height="65" fill="#FFF5D0"/>
</g>
<path d="M40.541 84.7656C40.5124 84.5365 40.4551 84.3359 40.3691 84.1641C40.3118 83.9635 40.2402 83.7487 40.1543 83.5195C40.0111 83.1758 39.8822 82.8034 39.7676 82.4023C39.653 82.0013 39.5957 81.5286 39.5957 80.9844C39.653 80.6979 39.7246 80.4974 39.8105 80.3828C39.8965 80.2396 39.9824 80.125 40.0684 80.0391L40.2402 79.2656H40.8848C41.1139 79.2943 41.3431 79.3086 41.5723 79.3086C41.8301 79.3086 42.0736 79.3086 42.3027 79.3086C43.3913 79.3086 44.5085 79.2656 45.6543 79.1797C46.8001 79.0938 47.9746 78.9935 49.1777 78.8789C50.4954 78.707 51.9134 78.5781 53.4316 78.4922C53.5749 78.1771 53.6608 77.9766 53.6895 77.8906C53.7467 77.8047 53.804 77.7044 53.8613 77.5898L54.334 77.332C54.9928 77.3034 55.4512 77.3893 55.709 77.5898C55.9668 77.7617 56.1673 77.9336 56.3105 78.1055C57.0553 78.0482 57.8145 77.9766 58.5879 77.8906C59.3613 77.776 60.1634 77.6615 60.9941 77.5469C62.14 77.4036 63.3001 77.2604 64.4746 77.1172C65.6491 76.974 66.7949 76.9023 67.9121 76.9023C68.3991 76.9023 68.8574 76.9167 69.2871 76.9453C69.7168 76.974 70.1322 77.0169 70.5332 77.0742L71.0488 77.4609C71.1634 77.6615 71.3066 77.8477 71.4785 78.0195C71.6504 78.1914 71.8509 78.3633 72.0801 78.5352C72.5098 78.8789 72.9251 79.3086 73.3262 79.8242C73.7559 80.3398 73.9134 81.099 73.7988 82.1016L73.584 82.5312C73.4694 82.6458 73.3262 82.7604 73.1543 82.875L72.7246 83.4336H72.252C71.9655 83.4336 71.7507 83.4622 71.6074 83.5195C71.4642 83.5482 71.2923 83.6055 71.0918 83.6914C70.9772 83.7487 70.8483 83.806 70.7051 83.8633C70.5618 83.8919 70.4043 83.9349 70.2324 83.9922C69.9173 83.9635 69.6738 83.9492 69.502 83.9492C69.3301 83.9492 69.1296 83.9492 68.9004 83.9492C68.041 83.9492 67.11 84.0065 66.1074 84.1211C65.1048 84.2357 64.1309 84.3646 63.1855 84.5078C62.498 84.5938 61.8392 84.6797 61.209 84.7656C60.5788 84.8229 60.0059 84.8802 59.4902 84.9375C59.2038 85.6823 58.946 86.3411 58.7168 86.9141C58.4876 87.487 58.2441 88.0599 57.9863 88.6328C57.7285 89.2057 57.485 89.793 57.2559 90.3945C57.0267 90.9674 56.8118 91.612 56.6113 92.3281C56.2676 92.8438 55.9811 93.3451 55.752 93.832C55.5228 94.2904 55.3366 94.8203 55.1934 95.4219C54.7637 95.9089 54.4486 96.4388 54.248 97.0117C54.0762 97.5846 53.9186 98.0716 53.7754 98.4727L53.6035 99.1172C53.403 99.3177 53.2741 99.4753 53.2168 99.5898C53.1882 99.7044 53.1165 99.8333 53.002 99.9766C52.916 100.349 52.8014 100.707 52.6582 101.051C52.6009 101.194 52.5436 101.352 52.4863 101.523C52.429 101.667 52.4147 101.781 52.4434 101.867C52.3861 102.182 52.3001 102.426 52.1855 102.598C52.1855 102.77 52.1712 102.941 52.1426 103.113C52.1139 103.285 52.0853 103.457 52.0566 103.629C51.9993 103.829 51.9564 104.016 51.9277 104.188C51.8991 104.331 51.9134 104.474 51.9707 104.617C52.0566 104.732 52.1426 104.846 52.2285 104.961C52.3145 105.076 52.3861 105.219 52.4434 105.391C52.5007 105.448 52.5723 105.491 52.6582 105.52C52.7441 105.548 52.8158 105.591 52.873 105.648C53.1022 105.849 53.3171 105.964 53.5176 105.992L53.9473 106.508C54.1191 107.539 53.9616 108.341 53.4746 108.914C52.959 109.573 52.0996 109.902 50.8965 109.902L50.2949 109.859C50.0944 109.659 49.9798 109.53 49.9512 109.473C49.6934 109.358 49.4785 109.258 49.3066 109.172C49.1348 109.115 48.9772 108.986 48.834 108.785C48.7767 108.728 48.7051 108.699 48.6191 108.699C48.5332 108.671 48.4616 108.628 48.4043 108.57C48.1178 108.484 47.8887 108.384 47.7168 108.27L47.2441 108.012C47.2728 107.725 47.2871 107.525 47.2871 107.41C47.0579 107.095 46.8717 106.751 46.7285 106.379C46.6139 106.007 46.5137 105.62 46.4277 105.219C46.3418 104.904 46.2559 104.617 46.1699 104.359C46.1126 104.102 46.0124 103.872 45.8691 103.672C45.8118 101.667 45.998 99.9909 46.4277 98.6445C46.8574 97.2695 47.3301 95.9375 47.8457 94.6484C48.1322 93.9609 48.4043 93.2591 48.6621 92.543C48.9199 91.8268 49.1491 91.0964 49.3496 90.3516L49.8223 89.8789C50.0228 89.707 50.1517 89.6068 50.209 89.5781C50.209 89.2057 50.2806 88.8477 50.4238 88.5039C50.5671 88.1315 50.7246 87.7591 50.8965 87.3867C51.0111 87.1576 51.1113 86.9284 51.1973 86.6992C51.3118 86.4701 51.3835 86.2695 51.4121 86.0977C51.2116 86.0977 51.0254 86.112 50.8535 86.1406C50.7103 86.1406 50.5527 86.1549 50.3809 86.1836C50.0085 86.2695 49.6504 86.3125 49.3066 86.3125C49.0488 86.3125 48.8626 86.2982 48.748 86.2695C48.5189 86.3841 48.304 86.4557 48.1035 86.4844C47.903 86.4844 47.7025 86.4844 47.502 86.4844H46.9863H46.4707C46.127 86.4844 45.8548 86.5273 45.6543 86.6133C45.2533 86.6133 44.9954 86.6133 44.8809 86.6133C44.7663 86.6133 44.6374 86.6133 44.4941 86.6133H43.9785H43.4629C43.2337 86.6133 42.9759 86.599 42.6895 86.5703C42.403 86.513 42.1022 86.3984 41.7871 86.2266L41.4863 85.8828C41.3145 85.5677 41.1569 85.3958 41.0137 85.3672L40.541 85.2383V84.7656ZM66.9668 107.539C66.8809 107.568 66.8236 107.539 66.7949 107.453C66.7663 107.367 66.752 107.281 66.752 107.195C66.7806 107.109 66.8236 107.038 66.8809 106.98C66.9668 106.923 67.0671 106.923 67.1816 106.98C66.8092 106.522 66.5658 106.107 66.4512 105.734C66.3652 105.362 66.179 104.904 65.8926 104.359C65.9785 104.273 66.0358 104.159 66.0645 104.016C66.0931 103.844 66.1361 103.686 66.1934 103.543C66.222 103.4 66.265 103.299 66.3223 103.242C66.4082 103.156 66.5085 103.171 66.623 103.285C66.5658 102.97 66.5658 102.712 66.623 102.512C66.6803 102.311 66.7376 102.125 66.7949 101.953C66.8809 101.781 66.9382 101.609 66.9668 101.438C66.9954 101.266 66.9525 101.065 66.8379 100.836C67.3822 100.091 67.7402 99.2891 67.9121 98.4297C68.084 97.5417 68.1842 96.7396 68.2129 96.0234C68.4707 95.7656 68.6855 95.4219 68.8574 94.9922C69.0579 94.5625 69.2012 94.1185 69.2871 93.6602C69.373 93.2018 69.416 92.7578 69.416 92.3281C69.416 91.8698 69.3587 91.5117 69.2441 91.2539C69.2728 91.1393 69.3301 91.082 69.416 91.082C69.5306 91.0534 69.6595 91.0534 69.8027 91.082C70.0033 89.9362 70.1322 88.6615 70.1895 87.2578C70.2754 85.8542 70.4186 84.5078 70.6191 83.2188C70.8483 81.901 71.2064 80.7552 71.6934 79.7812C72.1803 78.7786 72.9538 78.1341 74.0137 77.8477C74.2142 78.5638 74.472 79.194 74.7871 79.7383C75.1309 80.2826 75.4889 80.8125 75.8613 81.3281C76.2624 81.8438 76.6634 82.3594 77.0645 82.875C77.4655 83.3906 77.8379 83.9635 78.1816 84.5938C78.153 85.2526 78.0814 86.0117 77.9668 86.8711C77.8809 87.7305 77.752 88.6042 77.5801 89.4922C77.4368 90.3802 77.2793 91.2396 77.1074 92.0703C76.9642 92.901 76.821 93.6029 76.6777 94.1758C76.7064 94.319 76.8066 94.4193 76.9785 94.4766C77.1504 94.5052 77.179 94.6628 77.0645 94.9492C77.8952 94.7487 78.7546 94.5625 79.6426 94.3906C80.5592 94.1901 81.4473 94.0039 82.3066 93.832C83.1947 93.6315 84.054 93.4023 84.8848 93.1445C85.7441 92.8867 86.5462 92.5716 87.291 92.1992C87.4629 90.8242 87.6777 89.4635 87.9355 88.1172C88.1934 86.7708 88.222 85.4102 88.0215 84.0352C88.1934 83.8919 88.3366 83.7201 88.4512 83.5195C88.5658 83.319 88.7376 83.1901 88.9668 83.1328C88.7949 82.474 88.7233 81.7865 88.752 81.0703C88.7806 80.3255 88.8952 79.638 89.0957 79.0078C89.3249 78.3776 89.6543 77.8333 90.084 77.375C90.5137 76.888 91.0436 76.5729 91.6738 76.4297C92.0462 76.974 92.3757 77.5612 92.6621 78.1914C92.9486 78.8216 93.235 79.4661 93.5215 80.125C93.8079 80.7552 94.1087 81.3568 94.4238 81.9297C94.7676 82.5026 95.1973 82.9896 95.7129 83.3906C95.7988 84.3932 95.8704 85.4245 95.9277 86.4844C95.985 87.5156 96.028 88.5898 96.0566 89.707C95.7988 90.9961 95.498 92.2565 95.1543 93.4883C94.8392 94.6914 94.61 95.9805 94.4668 97.3555C94.2376 97.6133 94.0514 97.9284 93.9082 98.3008C93.765 98.6445 93.6217 99.0026 93.4785 99.375C93.3639 99.7188 93.2207 100.062 93.0488 100.406C92.877 100.75 92.6621 101.036 92.4043 101.266C92.5189 101.667 92.5332 102.053 92.4473 102.426C92.39 102.77 92.4902 103.185 92.748 103.672C92.8053 104.56 92.6908 105.305 92.4043 105.906C92.1465 106.479 91.7741 106.98 91.2871 107.41C90.8288 107.811 90.2845 108.141 89.6543 108.398C89.0527 108.628 88.4512 108.842 87.8496 109.043C87.5632 108.871 87.291 108.699 87.0332 108.527C86.804 108.327 86.5176 108.184 86.1738 108.098L86.3887 107.711C85.8158 107.138 85.3145 106.536 84.8848 105.906C84.4837 105.247 84.2975 104.503 84.3262 103.672C84.3262 103.643 84.3548 103.457 84.4121 103.113C84.4694 102.741 84.5267 102.354 84.584 101.953C84.6699 101.552 84.7415 101.18 84.7988 100.836C84.8848 100.464 84.9277 100.263 84.9277 100.234C84.1257 100.32 83.2949 100.507 82.4355 100.793C81.5762 101.079 80.7311 101.409 79.9004 101.781C79.0983 102.125 78.3392 102.497 77.623 102.898C76.9355 103.271 76.377 103.586 75.9473 103.844C75.9473 103.93 75.8757 104.173 75.7324 104.574C75.5892 104.975 75.4173 105.405 75.2168 105.863C75.0163 106.293 74.7871 106.68 74.5293 107.023C74.3001 107.367 74.0566 107.525 73.7988 107.496C73.8561 107.639 73.9134 107.754 73.9707 107.84C74.028 107.897 74.028 108.026 73.9707 108.227C73.4837 108.37 73.0397 108.556 72.6387 108.785C72.2663 109.014 71.8796 109.201 71.4785 109.344C71.0775 109.516 70.6335 109.587 70.1465 109.559C69.6882 109.559 69.1296 109.387 68.4707 109.043C68.4707 108.842 68.3848 108.671 68.2129 108.527C68.041 108.355 67.8548 108.212 67.6543 108.098C67.4824 107.983 67.3249 107.883 67.1816 107.797C67.0384 107.711 66.9668 107.625 66.9668 107.539ZM99.3223 107.539C99.0931 107.31 98.9212 107.038 98.8066 106.723C98.7207 106.408 98.4915 106.15 98.1191 105.949C98.0618 105.52 97.9759 105.033 97.8613 104.488C97.7754 103.915 97.6751 103.342 97.5605 102.77C97.4746 102.168 97.403 101.581 97.3457 101.008C97.3171 100.406 97.3457 99.862 97.4316 99.375C97.4889 99.1172 97.5749 98.8737 97.6895 98.6445C97.8327 98.4154 97.9616 98.2005 98.0762 98C98.2194 97.7708 98.3197 97.5417 98.377 97.3125C98.4629 97.0833 98.4772 96.8542 98.4199 96.625C98.5918 96.5964 98.6921 96.5104 98.7207 96.3672C98.778 96.1953 98.9212 96.138 99.1504 96.1953C99.3509 95.5651 99.5658 94.9779 99.7949 94.4336C100.024 93.8893 100.268 93.3594 100.525 92.8438C100.783 92.3281 101.041 91.8125 101.299 91.2969C101.585 90.7526 101.843 90.151 102.072 89.4922C101.585 89.0339 101.227 88.5469 100.998 88.0312C100.798 87.487 100.64 86.9427 100.525 86.3984C100.411 85.8542 100.325 85.3099 100.268 84.7656C100.21 84.1927 100.096 83.6198 99.9238 83.0469C100.268 82.5312 100.683 82.1159 101.17 81.8008C101.657 81.457 102.187 81.1849 102.76 80.9844C103.361 80.7552 104.006 80.5833 104.693 80.4688C105.381 80.3255 106.111 80.168 106.885 79.9961C108.26 79.5664 109.492 79.237 110.58 79.0078C111.669 78.75 112.729 78.5495 113.76 78.4062C114.791 78.2344 115.865 78.0911 116.982 77.9766C118.1 77.8333 119.389 77.6328 120.85 77.375C120.878 77.4609 120.921 77.5039 120.979 77.5039C121.064 77.5039 121.165 77.5039 121.279 77.5039C121.365 77.7044 121.523 77.8047 121.752 77.8047C121.752 77.7188 121.738 77.6471 121.709 77.5898C121.709 77.5039 121.709 77.4323 121.709 77.375C121.766 77.375 121.838 77.3893 121.924 77.418C122.038 77.4466 122.124 77.4753 122.182 77.5039C122.268 77.5326 122.339 77.5326 122.396 77.5039C122.454 77.4466 122.468 77.3464 122.439 77.2031C122.783 77.8047 123.227 78.306 123.771 78.707C124.316 79.0794 124.917 79.4089 125.576 79.6953C125.605 79.9531 125.605 80.1393 125.576 80.2539C125.576 80.3685 125.562 80.4831 125.533 80.5977C125.505 80.6836 125.49 80.7982 125.49 80.9414C125.49 81.056 125.519 81.2279 125.576 81.457C125.118 82.2305 124.588 82.832 123.986 83.2617C123.413 83.6914 122.798 84.0208 122.139 84.25C121.48 84.4792 120.778 84.651 120.033 84.7656C119.317 84.8802 118.572 85.0091 117.799 85.1523C117.054 85.2669 116.295 85.4388 115.521 85.668C114.748 85.8971 113.989 86.2409 113.244 86.6992C113.015 86.6133 112.8 86.5846 112.6 86.6133C112.428 86.6133 112.242 86.6419 112.041 86.6992C111.84 86.7565 111.611 86.8138 111.354 86.8711C111.124 86.9284 110.838 86.9284 110.494 86.8711C110.265 87.0716 109.993 87.2148 109.678 87.3008C109.391 87.3867 109.09 87.4727 108.775 87.5586C108.919 87.8737 108.976 88.1888 108.947 88.5039C108.947 88.819 108.99 89.0911 109.076 89.3203C110.279 89.4349 111.611 89.4349 113.072 89.3203C114.533 89.1771 115.965 89.0768 117.369 89.0195C117.398 89.1628 117.383 89.263 117.326 89.3203C117.269 89.3776 117.24 89.4779 117.24 89.6211C117.498 89.793 117.742 90.0078 117.971 90.2656C118.2 90.5234 118.429 90.7812 118.658 91.0391C118.916 91.2682 119.174 91.4688 119.432 91.6406C119.689 91.7839 119.99 91.8411 120.334 91.8125C120.477 92.099 120.577 92.3997 120.635 92.7148C120.692 93.0299 120.649 93.3594 120.506 93.7031C119.933 94.0755 119.374 94.4622 118.83 94.8633C118.286 95.2357 117.713 95.5794 117.111 95.8945C116.538 96.2096 115.908 96.4674 115.221 96.668C114.533 96.8685 113.788 96.9544 112.986 96.9258C112.843 96.9258 112.714 96.9258 112.6 96.9258C112.514 96.9258 112.399 96.8685 112.256 96.7539C111.969 96.8971 111.583 96.9544 111.096 96.9258C110.637 96.8685 110.251 96.9115 109.936 97.0547C109.535 96.9115 109.062 96.8398 108.518 96.8398C108.002 96.8398 107.544 96.7682 107.143 96.625C106.627 97.3698 106.14 98.1576 105.682 98.9883C105.223 99.7904 104.822 100.65 104.479 101.566C105.653 101.738 106.627 101.81 107.4 101.781C108.174 101.753 108.904 101.695 109.592 101.609C110.279 101.523 110.981 101.438 111.697 101.352C112.442 101.266 113.344 101.237 114.404 101.266C115.12 100.922 115.937 100.693 116.854 100.578C117.799 100.435 118.673 100.234 119.475 99.9766C119.761 100.062 120.005 100.234 120.205 100.492C120.406 100.721 120.592 100.965 120.764 101.223C120.964 101.452 121.165 101.652 121.365 101.824C121.566 101.996 121.824 102.053 122.139 101.996C122.282 102.139 122.368 102.311 122.396 102.512C122.454 102.712 122.497 102.898 122.525 103.07C122.583 103.242 122.654 103.385 122.74 103.5C122.826 103.586 122.984 103.615 123.213 103.586C122.669 104.703 122.053 105.562 121.365 106.164C120.706 106.766 119.947 107.238 119.088 107.582C118.257 107.897 117.312 108.141 116.252 108.312C115.221 108.456 114.061 108.642 112.771 108.871C112.456 108.928 112.184 108.928 111.955 108.871C111.755 108.785 111.54 108.742 111.311 108.742C110.508 108.885 109.549 109.029 108.432 109.172C107.343 109.315 106.24 109.372 105.123 109.344C104.006 109.315 102.932 109.172 101.9 108.914C100.869 108.656 100.01 108.198 99.3223 107.539ZM143.193 107.539C142.964 107.31 142.792 107.038 142.678 106.723C142.592 106.408 142.363 106.15 141.99 105.949C141.933 105.52 141.847 105.033 141.732 104.488C141.646 103.915 141.546 103.342 141.432 102.77C141.346 102.168 141.274 101.581 141.217 101.008C141.188 100.406 141.217 99.862 141.303 99.375C141.36 99.1172 141.446 98.8737 141.561 98.6445C141.704 98.4154 141.833 98.2005 141.947 98C142.09 97.7708 142.191 97.5417 142.248 97.3125C142.334 97.0833 142.348 96.8542 142.291 96.625C142.463 96.5964 142.563 96.5104 142.592 96.3672C142.649 96.1953 142.792 96.138 143.021 96.1953C143.222 95.5651 143.437 94.9779 143.666 94.4336C143.895 93.8893 144.139 93.3594 144.396 92.8438C144.654 92.3281 144.912 91.8125 145.17 91.2969C145.456 90.7526 145.714 90.151 145.943 89.4922C145.456 89.0339 145.098 88.5469 144.869 88.0312C144.669 87.487 144.511 86.9427 144.396 86.3984C144.282 85.8542 144.196 85.3099 144.139 84.7656C144.081 84.1927 143.967 83.6198 143.795 83.0469C144.139 82.5312 144.554 82.1159 145.041 81.8008C145.528 81.457 146.058 81.1849 146.631 80.9844C147.232 80.7552 147.877 80.5833 148.564 80.4688C149.252 80.3255 149.982 80.168 150.756 79.9961C152.131 79.5664 153.363 79.237 154.451 79.0078C155.54 78.75 156.6 78.5495 157.631 78.4062C158.662 78.2344 159.736 78.0911 160.854 77.9766C161.971 77.8333 163.26 77.6328 164.721 77.375C164.749 77.4609 164.792 77.5039 164.85 77.5039C164.936 77.5039 165.036 77.5039 165.15 77.5039C165.236 77.7044 165.394 77.8047 165.623 77.8047C165.623 77.7188 165.609 77.6471 165.58 77.5898C165.58 77.5039 165.58 77.4323 165.58 77.375C165.637 77.375 165.709 77.3893 165.795 77.418C165.91 77.4466 165.995 77.4753 166.053 77.5039C166.139 77.5326 166.21 77.5326 166.268 77.5039C166.325 77.4466 166.339 77.3464 166.311 77.2031C166.654 77.8047 167.098 78.306 167.643 78.707C168.187 79.0794 168.788 79.4089 169.447 79.6953C169.476 79.9531 169.476 80.1393 169.447 80.2539C169.447 80.3685 169.433 80.4831 169.404 80.5977C169.376 80.6836 169.361 80.7982 169.361 80.9414C169.361 81.056 169.39 81.2279 169.447 81.457C168.989 82.2305 168.459 82.832 167.857 83.2617C167.285 83.6914 166.669 84.0208 166.01 84.25C165.351 84.4792 164.649 84.651 163.904 84.7656C163.188 84.8802 162.443 85.0091 161.67 85.1523C160.925 85.2669 160.166 85.4388 159.393 85.668C158.619 85.8971 157.86 86.2409 157.115 86.6992C156.886 86.6133 156.671 86.5846 156.471 86.6133C156.299 86.6133 156.113 86.6419 155.912 86.6992C155.712 86.7565 155.482 86.8138 155.225 86.8711C154.995 86.9284 154.709 86.9284 154.365 86.8711C154.136 87.0716 153.864 87.2148 153.549 87.3008C153.262 87.3867 152.962 87.4727 152.646 87.5586C152.79 87.8737 152.847 88.1888 152.818 88.5039C152.818 88.819 152.861 89.0911 152.947 89.3203C154.15 89.4349 155.482 89.4349 156.943 89.3203C158.404 89.1771 159.837 89.0768 161.24 89.0195C161.269 89.1628 161.255 89.263 161.197 89.3203C161.14 89.3776 161.111 89.4779 161.111 89.6211C161.369 89.793 161.613 90.0078 161.842 90.2656C162.071 90.5234 162.3 90.7812 162.529 91.0391C162.787 91.2682 163.045 91.4688 163.303 91.6406C163.561 91.7839 163.861 91.8411 164.205 91.8125C164.348 92.099 164.449 92.3997 164.506 92.7148C164.563 93.0299 164.52 93.3594 164.377 93.7031C163.804 94.0755 163.245 94.4622 162.701 94.8633C162.157 95.2357 161.584 95.5794 160.982 95.8945C160.41 96.2096 159.779 96.4674 159.092 96.668C158.404 96.8685 157.66 96.9544 156.857 96.9258C156.714 96.9258 156.585 96.9258 156.471 96.9258C156.385 96.9258 156.27 96.8685 156.127 96.7539C155.84 96.8971 155.454 96.9544 154.967 96.9258C154.508 96.8685 154.122 96.9115 153.807 97.0547C153.406 96.9115 152.933 96.8398 152.389 96.8398C151.873 96.8398 151.415 96.7682 151.014 96.625C150.498 97.3698 150.011 98.1576 149.553 98.9883C149.094 99.7904 148.693 100.65 148.35 101.566C149.524 101.738 150.498 101.81 151.271 101.781C152.045 101.753 152.775 101.695 153.463 101.609C154.15 101.523 154.852 101.438 155.568 101.352C156.313 101.266 157.215 101.237 158.275 101.266C158.992 100.922 159.808 100.693 160.725 100.578C161.67 100.435 162.544 100.234 163.346 99.9766C163.632 100.062 163.876 100.234 164.076 100.492C164.277 100.721 164.463 100.965 164.635 101.223C164.835 101.452 165.036 101.652 165.236 101.824C165.437 101.996 165.695 102.053 166.01 101.996C166.153 102.139 166.239 102.311 166.268 102.512C166.325 102.712 166.368 102.898 166.396 103.07C166.454 103.242 166.525 103.385 166.611 103.5C166.697 103.586 166.855 103.615 167.084 103.586C166.54 104.703 165.924 105.562 165.236 106.164C164.577 106.766 163.818 107.238 162.959 107.582C162.128 107.897 161.183 108.141 160.123 108.312C159.092 108.456 157.932 108.642 156.643 108.871C156.327 108.928 156.055 108.928 155.826 108.871C155.626 108.785 155.411 108.742 155.182 108.742C154.38 108.885 153.42 109.029 152.303 109.172C151.214 109.315 150.111 109.372 148.994 109.344C147.877 109.315 146.803 109.172 145.771 108.914C144.74 108.656 143.881 108.198 143.193 107.539ZM176.15 104.961C175.864 105.19 175.692 105.491 175.635 105.863C175.577 106.207 175.506 106.551 175.42 106.895C175.334 107.238 175.176 107.539 174.947 107.797C174.747 108.026 174.374 108.126 173.83 108.098C173.715 108.241 173.687 108.327 173.744 108.355C173.83 108.384 173.902 108.513 173.959 108.742C173.558 108.685 173.271 108.714 173.1 108.828C172.928 108.943 172.713 109.029 172.455 109.086C171.796 108.885 171.238 108.527 170.779 108.012C170.35 107.467 169.963 106.88 169.619 106.25C169.304 105.62 169.018 104.975 168.76 104.316C168.531 103.658 168.287 103.085 168.029 102.598C168.029 102.483 168.087 102.44 168.201 102.469C168.287 102.469 168.373 102.469 168.459 102.469C168.316 102.182 168.215 101.867 168.158 101.523C168.072 101.151 167.929 100.85 167.729 100.621C168.559 98.8451 169.447 96.9974 170.393 95.0781C171.338 93.1302 172.283 91.168 173.229 89.1914C174.202 87.1862 175.162 85.181 176.107 83.1758C177.081 81.1419 178.012 79.151 178.9 77.2031C179.702 77.4896 180.476 77.8333 181.221 78.2344C181.994 78.6068 182.696 79.0508 183.326 79.5664C183.956 80.082 184.486 80.6836 184.916 81.3711C185.374 82.0299 185.675 82.7891 185.818 83.6484C185.761 83.8203 185.689 83.8776 185.604 83.8203C185.518 83.763 185.446 83.7917 185.389 83.9062C185.532 84.0781 185.604 84.207 185.604 84.293C185.632 84.3503 185.632 84.4219 185.604 84.5078C185.575 84.5651 185.561 84.651 185.561 84.7656C185.561 84.8802 185.632 85.0378 185.775 85.2383C185.632 85.2096 185.532 85.2383 185.475 85.3242C185.417 85.3815 185.317 85.3815 185.174 85.3242C185.317 85.7253 185.36 86.0404 185.303 86.2695C185.245 86.4987 185.16 86.7135 185.045 86.9141C184.93 87.0859 184.83 87.2865 184.744 87.5156C184.687 87.7161 184.715 88.0026 184.83 88.375C184.715 88.375 184.63 88.4036 184.572 88.4609C184.544 88.4896 184.515 88.5326 184.486 88.5898C184.458 88.6471 184.415 88.7044 184.357 88.7617C184.329 88.7904 184.257 88.7904 184.143 88.7617C184.229 89.5065 184.257 90.2656 184.229 91.0391C184.2 91.7839 184.171 92.5573 184.143 93.3594C184.114 94.1328 184.114 94.9349 184.143 95.7656C184.171 96.5964 184.286 97.4557 184.486 98.3438C185.718 97.6276 186.706 96.6966 187.451 95.5508C188.225 94.4049 188.826 93.1302 189.256 91.7266C189.714 90.3229 190.058 88.819 190.287 87.2148C190.545 85.6107 190.803 83.9779 191.061 82.3164C191.376 82.0013 191.619 81.6146 191.791 81.1562C191.992 80.6979 192.149 80.2253 192.264 79.7383C192.407 79.2513 192.536 78.7643 192.65 78.2773C192.794 77.7617 192.98 77.3034 193.209 76.9023C193.725 76.9596 194.154 77.1172 194.498 77.375C194.87 77.6042 195.214 77.8763 195.529 78.1914C195.844 78.4779 196.174 78.75 196.518 79.0078C196.861 79.2656 197.291 79.4375 197.807 79.5234C198.208 80.0964 198.58 80.6549 198.924 81.1992C199.268 81.7148 199.497 82.3021 199.611 82.9609C199.439 83.2474 199.311 83.5625 199.225 83.9062C199.139 84.25 199.038 84.5938 198.924 84.9375C198.838 85.2812 198.709 85.5964 198.537 85.8828C198.365 86.1693 198.122 86.4128 197.807 86.6133C197.721 87.4727 197.592 88.2747 197.42 89.0195C197.248 89.7643 197.09 90.4948 196.947 91.2109C196.804 91.9271 196.675 92.6719 196.561 93.4453C196.446 94.2188 196.403 95.0638 196.432 95.9805C196.174 96.8112 195.887 97.6706 195.572 98.5586C195.257 99.418 195.028 100.22 194.885 100.965C194.34 101.395 193.911 101.924 193.596 102.555C193.281 103.185 192.951 103.815 192.607 104.445C192.464 104.56 192.378 104.589 192.35 104.531C192.321 104.445 192.192 104.388 191.963 104.359C191.992 104.617 191.934 104.789 191.791 104.875C191.676 104.932 191.691 105.133 191.834 105.477C191.347 105.706 190.917 106.007 190.545 106.379C190.173 106.751 189.757 107.095 189.299 107.41C188.869 107.725 188.354 107.94 187.752 108.055C187.179 108.141 186.42 108.012 185.475 107.668C184.071 106.637 182.811 105.448 181.693 104.102C180.576 102.755 179.688 101.165 179.029 99.332C178.743 99.418 178.528 99.6042 178.385 99.8906C178.242 100.177 178.113 100.478 177.998 100.793C177.883 101.108 177.769 101.395 177.654 101.652C177.54 101.91 177.368 102.039 177.139 102.039C177.081 102.297 176.967 102.54 176.795 102.77C176.652 102.97 176.508 103.185 176.365 103.414C176.222 103.615 176.107 103.844 176.021 104.102C175.964 104.359 176.007 104.646 176.15 104.961ZM202.705 109.473C201.874 109.272 201.23 108.943 200.771 108.484C200.342 107.997 200.012 107.439 199.783 106.809C199.583 106.15 199.439 105.434 199.354 104.66C199.296 103.887 199.225 103.085 199.139 102.254C199.253 101.882 199.396 101.566 199.568 101.309C199.769 101.051 199.855 100.693 199.826 100.234C200.141 99.3177 200.428 98.4297 200.686 97.5703C200.943 96.7109 201.115 95.8229 201.201 94.9062C201.373 94.6484 201.545 94.4766 201.717 94.3906C201.946 92.7578 201.975 91.082 201.803 89.3633C201.631 87.6445 201.344 86.0547 200.943 84.5938C200.972 84.2786 201.015 84.0495 201.072 83.9062C201.13 83.7344 201.13 83.5911 201.072 83.4766C201.015 83.2188 201.101 83.0898 201.33 83.0898C201.559 83.0898 201.788 83.0898 202.018 83.0898C202.018 82.5742 201.917 82.0729 201.717 81.5859C201.545 81.0703 201.373 80.4831 201.201 79.8242C201.43 79.3086 201.588 78.8073 201.674 78.3203C201.76 77.8333 201.917 77.3893 202.146 76.9883C203.063 77.2747 203.965 77.6042 204.854 77.9766C205.742 78.349 206.615 78.7214 207.475 79.0938C208.334 79.4375 209.179 79.7812 210.01 80.125C210.84 80.4401 211.657 80.6979 212.459 80.8984C213.691 81.7865 214.951 82.6745 216.24 83.5625C217.558 84.4219 218.747 85.3815 219.807 86.4414C220.895 87.4727 221.798 88.6615 222.514 90.0078C223.23 91.3542 223.645 92.944 223.76 94.7773C223.702 94.9492 223.66 95.0924 223.631 95.207C223.602 95.3216 223.574 95.4362 223.545 95.5508C223.516 95.6654 223.502 95.7943 223.502 95.9375C223.502 96.0807 223.502 96.2812 223.502 96.5391C222.471 98.3438 221.167 99.862 219.592 101.094C218.016 102.326 216.298 103.414 214.436 104.359C212.574 105.305 210.626 106.178 208.592 106.98C206.587 107.754 204.624 108.585 202.705 109.473ZM206.916 85.1094C206.658 85.1094 206.472 85.1667 206.357 85.2812C206.701 86.5703 206.959 87.7878 207.131 88.9336C207.303 90.0794 207.389 91.2253 207.389 92.3711C207.417 93.5169 207.36 94.6914 207.217 95.8945C207.074 97.0977 206.873 98.401 206.615 99.8047C206.988 99.776 207.317 99.7044 207.604 99.5898C207.89 99.4753 208.176 99.3464 208.463 99.2031C208.778 99.0599 209.093 98.931 209.408 98.8164C209.752 98.7018 210.139 98.6302 210.568 98.6016C210.683 98.3724 210.826 98.2005 210.998 98.0859C211.199 97.9427 211.37 97.7995 211.514 97.6562C212.23 97.3698 212.946 97.069 213.662 96.7539C214.378 96.4388 215.037 96.0807 215.639 95.6797C216.24 95.2786 216.785 94.8203 217.271 94.3047C217.758 93.7891 218.16 93.1732 218.475 92.457C218.245 92.0273 217.959 91.6693 217.615 91.3828C217.3 91.0677 216.956 90.7669 216.584 90.4805C216.24 90.1654 215.896 89.8503 215.553 89.5352C215.238 89.1914 214.98 88.8047 214.779 88.375C214.321 88.3177 213.92 88.2031 213.576 88.0312C213.232 87.8307 212.903 87.6445 212.588 87.4727C212.273 87.2721 211.929 87.0859 211.557 86.9141C211.213 86.7422 210.798 86.6419 210.311 86.6133C209.566 86.2122 208.893 85.9401 208.291 85.7969C207.689 85.625 207.231 85.3958 206.916 85.1094Z" fill="#D86B8C"/>
<path d="M171.311 17.0724C125.503 13.954 42.7368 26.9475 21.9533 98.3137C-5.61598 192.981 167.042 193.767 240.023 128.816C293.118 89.1541 230.029 11.979 171.311 2" stroke="#D86B8C" stroke-width="4" stroke-linecap="round"/>
<defs>
<filter id="filter0_d" x="17.8203" y="53" width="232.872" height="79" filterUnits="userSpaceOnUse" color-interpolation-filters="sRGB">
<feFlood flood-opacity="0" result="BackgroundImageFix"/>
<feColorMatrix in="SourceAlpha" type="matrix" values="0 0 0 0 0 0 0 0 0 0 0 0 0 0 0 0 0 0 127 0"/>
<feOffset/>
<feGaussianBlur stdDeviation="3.5"/>
<feColorMatrix type="matrix" values="0 0 0 0 0 0 0 0 0 0 0 0 0 0 0 0 0 0 0.25 0"/>
<feBlend mode="normal" in2="BackgroundImageFix" result="effect1_dropShadow"/>
<feBlend mode="normal" in="SourceGraphic" in2="effect1_dropShadow" result="shape"/>
</filter>
</defs>
</svg>
