<svg width="309" height="376" viewBox="0 0 309 376" fill="none" xmlns="http://www.w3.org/2000/svg">
<g filter="url(#filter0_d)">
<path fill-rule="evenodd" clip-rule="evenodd" d="M230.446 15.4487C227.265 14.4569 225.097 14.1939 222.391 14.6035C221.388 14.7551 220.413 15.01 219.47 15.3678C218.915 14.5796 218.283 13.8493 217.576 13.1795C215.547 11.2557 213.52 10.1717 210.453 9.21559C202.238 6.65479 194.162 11.5514 191.426 20.3277C189.36 26.9556 191.086 34.5184 196.089 42.8707C198.715 47.2548 202.359 51.9191 205.153 54.6673L206.752 56.2397L208.961 55.8544C212.822 55.1809 218.471 53.4135 223.123 51.2984C231.986 47.2688 237.704 42.0268 239.77 35.3989C242.477 26.7154 238.577 18.0201 230.446 15.4487ZM235.376 34.0288C233.757 39.2214 228.984 43.5969 221.196 47.1379C216.949 49.0685 211.755 50.7014 208.284 51.3255C205.783 48.8395 202.437 44.5441 200.04 40.5426C195.644 33.203 194.203 26.8905 195.822 21.6979C197.843 15.2133 203.443 11.8179 209.092 13.5791C211.531 14.3394 212.944 15.0949 214.409 16.4833C215.274 17.3034 215.97 18.2473 216.494 19.3187L217.577 21.5353L219.717 20.3087C220.785 19.6969 221.912 19.305 223.101 19.1251C225.034 18.8326 226.524 19.0133 229.077 19.8094C234.65 21.5718 237.369 27.6343 235.376 34.0288Z" fill="#B8DBDD"/>
</g>
<g filter="url(#filter1_d)">
<path fill-rule="evenodd" clip-rule="evenodd" d="M265.967 275.16C263.209 277.031 261.653 278.563 260.287 280.935C259.781 281.813 259.373 282.735 259.065 283.696C258.103 283.638 257.138 283.678 256.173 283.813C253.404 284.202 251.293 285.112 248.634 286.916C241.514 291.745 240.312 301.113 245.472 308.721C249.369 314.467 256.36 317.829 266.01 319.119C271.075 319.797 276.994 319.853 280.884 319.379L283.11 319.109L284.185 317.141C286.064 313.701 288.201 308.182 289.445 303.225C291.815 293.782 291.278 286.043 287.381 280.297C282.276 272.77 273.044 270.403 265.967 275.16ZM283.571 282.881C286.624 287.383 287.073 293.842 284.99 302.14C283.855 306.664 281.896 311.744 280.221 314.848C276.718 315.256 271.274 315.197 266.65 314.579C258.17 313.444 252.335 310.638 249.282 306.137C245.469 300.516 246.303 294.02 251.2 290.698C253.314 289.265 254.786 288.63 256.784 288.349C257.965 288.184 259.137 288.227 260.301 288.485L262.71 289.019L263.084 286.581C263.27 285.364 263.666 284.239 264.266 283.196C265.242 281.502 266.311 280.45 268.525 278.948C273.375 275.688 279.812 277.338 283.571 282.881Z" fill="#FAEB9D"/>
</g>
<g filter="url(#filter2_d)">
<path fill-rule="evenodd" clip-rule="evenodd" d="M33.9671 42.1603C31.2093 44.0307 29.6529 45.5625 28.2868 47.9349C27.781 48.8133 27.3727 49.7349 27.0647 50.6958C26.1029 50.6382 25.1376 50.6778 24.1735 50.8132C21.4043 51.2019 19.2933 52.1124 16.6345 53.9157C9.51356 58.7452 8.3119 68.1128 13.4719 75.721C17.3688 81.4667 24.3597 84.8285 34.0098 86.1192C39.0752 86.7967 44.9938 86.8527 48.8843 86.3793L51.1103 86.1085L52.1852 84.1406C54.064 80.7011 56.2011 75.1815 57.4452 70.2248C59.8154 60.7817 59.2778 53.043 55.381 47.2974C50.2756 39.7697 41.0441 37.4029 33.9671 42.1603ZM51.5712 49.8812C54.6242 54.3826 55.0729 60.842 52.9901 69.1401C51.8546 73.6642 49.8956 78.7444 48.2211 81.8483C44.7181 82.2559 39.2736 82.197 34.6503 81.5786C26.1703 80.4444 20.335 77.6383 17.282 73.1369C13.4695 67.5155 14.3027 61.0198 19.2002 57.6982C21.3142 56.2644 22.7857 55.6298 24.7842 55.3492C25.9647 55.1835 27.1368 55.2269 28.301 55.4849L30.7096 56.0189L31.0837 53.5805C31.2702 52.3644 31.6661 51.2384 32.2662 50.1963C33.2418 48.502 34.3112 47.4496 36.5249 45.9482C41.3753 42.6876 47.8116 44.3378 51.5712 49.8812Z" fill="white"/>
</g>
<g filter="url(#filter3_d)">
<path fill-rule="evenodd" clip-rule="evenodd" d="M99.0225 322.75C95.7251 322.27 93.5428 322.35 90.9337 323.179C89.9677 323.486 89.0445 323.89 88.1687 324.392C87.4978 323.7 86.7587 323.078 85.9559 322.527C83.6499 320.945 81.4776 320.193 78.2986 319.729C69.7843 318.488 62.5761 324.591 61.2501 333.687C60.2486 340.557 63.1392 347.756 69.3899 355.22C72.6708 359.138 77.0009 363.174 80.1915 365.45L82.017 366.752L84.1382 366.025C87.8458 364.755 93.1477 362.123 97.4107 359.305C105.532 353.936 110.358 347.862 111.359 340.992C112.671 331.991 107.456 324.015 99.0225 322.75ZM106.804 340.328C106.019 345.71 101.992 350.78 94.8549 355.498C90.9639 358.071 86.09 360.498 82.7597 361.658C79.8994 359.595 75.9212 355.878 72.9266 352.302C67.4338 345.742 65.0211 339.734 65.8057 334.351C66.7855 327.63 71.7838 323.399 77.6395 324.252C80.1671 324.621 81.6813 325.145 83.3456 326.287C84.3286 326.961 85.1643 327.784 85.8493 328.76L87.2665 330.78L89.188 329.233C90.1464 328.461 91.1983 327.897 92.3445 327.533C94.2078 326.941 95.7071 326.886 98.354 327.272C104.134 328.139 107.77 333.7 106.804 340.328Z" fill="#D86B8C"/>
</g>
<defs>
<filter id="filter0_d" x="176.293" y="0" width="74.4763" height="74.217" filterUnits="userSpaceOnUse" color-interpolation-filters="sRGB">
<feFlood flood-opacity="0" result="BackgroundImageFix"/>
<feColorMatrix in="SourceAlpha" type="matrix" values="0 0 0 0 0 0 0 0 0 0 0 0 0 0 0 0 0 0 127 0"/>
<feOffset dy="2.70684"/>
<feGaussianBlur stdDeviation="1.35342"/>
<feColorMatrix type="matrix" values="0 0 0 0 0 0 0 0 0 0 0 0 0 0 0 0 0 0 0.25 0"/>
<feBlend mode="normal" in2="BackgroundImageFix" result="effect1_dropShadow"/>
<feBlend mode="normal" in="SourceGraphic" in2="effect1_dropShadow" result="shape"/>
</filter>
<filter id="filter1_d" x="229.293" y="262" width="81.9187" height="81.8137" filterUnits="userSpaceOnUse" color-interpolation-filters="sRGB">
<feFlood flood-opacity="0" result="BackgroundImageFix"/>
<feColorMatrix in="SourceAlpha" type="matrix" values="0 0 0 0 0 0 0 0 0 0 0 0 0 0 0 0 0 0 127 0"/>
<feOffset dy="2.70684"/>
<feGaussianBlur stdDeviation="1.35342"/>
<feColorMatrix type="matrix" values="0 0 0 0 0 0 0 0 0 0 0 0 0 0 0 0 0 0 0.25 0"/>
<feBlend mode="normal" in2="BackgroundImageFix" result="effect1_dropShadow"/>
<feBlend mode="normal" in="SourceGraphic" in2="effect1_dropShadow" result="shape"/>
</filter>
<filter id="filter2_d" x="-2.70684" y="28.9999" width="81.9187" height="81.8137" filterUnits="userSpaceOnUse" color-interpolation-filters="sRGB">
<feFlood flood-opacity="0" result="BackgroundImageFix"/>
<feColorMatrix in="SourceAlpha" type="matrix" values="0 0 0 0 0 0 0 0 0 0 0 0 0 0 0 0 0 0 127 0"/>
<feOffset dy="2.70684"/>
<feGaussianBlur stdDeviation="1.35342"/>
<feColorMatrix type="matrix" values="0 0 0 0 0 0 0 0 0 0 0 0 0 0 0 0 0 0 0.25 0"/>
<feBlend mode="normal" in2="BackgroundImageFix" result="effect1_dropShadow"/>
<feBlend mode="normal" in="SourceGraphic" in2="effect1_dropShadow" result="shape"/>
</filter>
<filter id="filter3_d" x="51.2932" y="313" width="67.9898" height="67.6563" filterUnits="userSpaceOnUse" color-interpolation-filters="sRGB">
<feFlood flood-opacity="0" result="BackgroundImageFix"/>
<feColorMatrix in="SourceAlpha" type="matrix" values="0 0 0 0 0 0 0 0 0 0 0 0 0 0 0 0 0 0 127 0"/>
<feOffset dy="2.70684"/>
<feGaussianBlur stdDeviation="1.35342"/>
<feColorMatrix type="matrix" values="0 0 0 0 0 0 0 0 0 0 0 0 0 0 0 0 0 0 0.25 0"/>
<feBlend mode="normal" in2="BackgroundImageFix" result="effect1_dropShadow"/>
<feBlend mode="normal" in="SourceGraphic" in2="effect1_dropShadow" result="shape"/>
</filter>
</defs>
</svg>
