<svg width="196" height="199" viewBox="0 0 196 199" fill="none" xmlns="http://www.w3.org/2000/svg">
<g filter="url(#filter0_d)">
<rect x="51" y="141" width="138" height="51" fill="#FFF5D0"/>
</g>
<g filter="url(#filter1_d)">
<rect x="7" y="75" width="120" height="51" fill="#FFF5D0"/>
</g>
<g filter="url(#filter2_d)">
<rect x="22" y="7" width="162" height="51" fill="#FFF5D0"/>
</g>
<path d="M61 182.5L177.5 180" stroke="#D86B8C" stroke-width="2" stroke-linecap="round"/>
<path d="M70.5 175H171" stroke="#D86B8C" stroke-width="2" stroke-linecap="round"/>
<path d="M82.6695 168.047C82.4195 168.062 82.107 168.055 81.732 168.023C81.3727 167.992 81.0367 168.047 80.7242 168.188C79.8961 168.156 79.0523 168.055 78.193 167.883C77.3336 167.711 76.5445 167.5 75.8258 167.25C75.6695 167.078 75.5133 166.922 75.357 166.781C75.2008 166.625 74.9898 166.516 74.7242 166.453C74.3492 166.156 74.0445 165.797 73.8102 165.375C73.5758 164.938 73.3883 164.477 73.2477 163.992C73.107 163.508 73.0133 163.016 72.9664 162.516C72.9195 162 72.9039 161.508 72.9195 161.039C73.1539 160.336 73.482 159.734 73.9039 159.234C74.3414 158.719 74.7867 158.211 75.2398 157.711C75.443 157.617 75.5914 157.523 75.6852 157.43C75.7945 157.32 75.9039 157.227 76.0133 157.148C76.1383 157.055 76.2555 156.969 76.3648 156.891C76.4898 156.797 76.5992 156.688 76.693 156.562C77.0211 156.484 77.3023 156.375 77.5367 156.234C77.7867 156.078 78.0289 155.922 78.2633 155.766C78.4977 155.594 78.7398 155.438 78.9898 155.297C79.2398 155.156 79.5289 155.047 79.857 154.969C79.982 154.828 80.1305 154.719 80.3023 154.641C80.4742 154.547 80.6461 154.461 80.818 154.383C81.0055 154.289 81.1773 154.195 81.3336 154.102C81.5055 154.008 81.6383 153.883 81.732 153.727C81.8102 153.852 81.9195 153.898 82.0602 153.867C82.2008 153.82 82.3336 153.773 82.4586 153.727C82.5367 153.711 82.5992 153.727 82.6461 153.773C82.7086 153.82 82.7633 153.867 82.8102 153.914C82.857 153.961 82.8961 153.992 82.9273 154.008C82.9742 154.008 83.0133 153.969 83.0445 153.891C83.1227 153.891 83.1461 153.93 83.1148 154.008C83.0836 154.086 83.0602 154.141 83.0445 154.172C83.1695 154.156 83.2711 154.188 83.3492 154.266C83.443 154.328 83.5836 154.367 83.7711 154.383C83.8336 154.461 83.8492 154.523 83.818 154.57C83.7867 154.602 83.7711 154.664 83.7711 154.758C84.2398 154.898 84.5367 155.125 84.6617 155.438C84.7867 155.734 84.7945 156.047 84.6852 156.375C84.5758 156.703 84.3805 157.008 84.0992 157.289C83.818 157.57 83.5133 157.758 83.1852 157.852C82.4352 158.055 81.7242 158.281 81.0523 158.531C80.3961 158.766 79.857 159.117 79.4352 159.586C79.0602 159.695 78.7242 159.844 78.4273 160.031C78.1461 160.203 77.8727 160.406 77.607 160.641C77.357 160.859 77.1148 161.094 76.8805 161.344C76.6617 161.578 76.4273 161.812 76.1773 162.047C76.193 162.266 76.1539 162.438 76.0602 162.562C75.982 162.672 75.9039 162.789 75.8258 162.914C75.857 163.148 75.9117 163.359 75.9898 163.547C76.068 163.719 76.1539 163.891 76.2477 164.062C77.2789 164.375 78.3727 164.57 79.5289 164.648C80.7008 164.727 81.8727 164.773 83.0445 164.789C83.1539 164.945 83.2789 165.094 83.4195 165.234C83.5758 165.359 83.7164 165.5 83.8414 165.656C83.9664 165.797 84.068 165.961 84.1461 166.148C84.2242 166.32 84.2398 166.539 84.193 166.805C83.9742 167.039 83.732 167.258 83.4664 167.461C83.2008 167.648 82.9352 167.844 82.6695 168.047ZM98.6877 165.727C98.7189 166.133 98.672 166.469 98.547 166.734C98.422 167 98.2502 167.227 98.0314 167.414C97.8127 167.602 97.5627 167.75 97.2814 167.859C97.0002 167.969 96.7267 168.07 96.4611 168.164C96.3361 168.086 96.2111 168.008 96.0861 167.93C95.9767 167.836 95.8439 167.766 95.6877 167.719C95.4845 167.344 95.2892 167.016 95.1017 166.734C94.9142 166.438 94.8283 166.102 94.8439 165.727C94.8439 165.711 94.8517 165.625 94.8673 165.469C94.8986 165.312 94.9298 165.141 94.9611 164.953C95.008 164.766 95.0392 164.594 95.0548 164.438C95.0861 164.266 95.1017 164.172 95.1017 164.156C94.7423 164.188 94.3673 164.266 93.9767 164.391C93.5861 164.516 93.2033 164.664 92.8283 164.836C92.4689 165.008 92.1252 165.18 91.797 165.352C91.4845 165.523 91.2267 165.672 91.0236 165.797C91.0236 165.844 90.9923 165.961 90.9298 166.148C90.8673 166.32 90.7892 166.508 90.6955 166.711C90.6017 166.898 90.5002 167.07 90.3908 167.227C90.2814 167.383 90.172 167.461 90.0627 167.461C90.0783 167.508 90.1017 167.555 90.133 167.602C90.1642 167.648 90.1642 167.711 90.133 167.789C89.9142 167.852 89.7189 167.93 89.547 168.023C89.3752 168.133 89.1955 168.219 89.008 168.281C88.8205 168.359 88.6173 168.398 88.3986 168.398C88.1798 168.398 87.922 168.32 87.6252 168.164C87.6252 168.07 87.5861 167.992 87.508 167.93C87.4298 167.852 87.3439 167.789 87.2502 167.742C87.172 167.68 87.1017 167.633 87.0392 167.602C86.9767 167.555 86.9455 167.516 86.9455 167.484C86.8673 167.5 86.8361 167.445 86.8517 167.32C86.8673 167.195 86.9298 167.164 87.0392 167.227C86.8673 167.008 86.758 166.82 86.7111 166.664C86.6798 166.492 86.5939 166.281 86.4533 166.031C86.4845 166 86.5158 165.945 86.547 165.867C86.5627 165.789 86.5783 165.719 86.5939 165.656C86.6095 165.594 86.633 165.547 86.6642 165.516C86.6955 165.484 86.7345 165.492 86.7814 165.539C86.7502 165.398 86.7502 165.281 86.7814 165.188C86.8127 165.094 86.8439 165.008 86.8752 164.93C86.9064 164.852 86.9298 164.773 86.9455 164.695C86.9611 164.617 86.9377 164.531 86.8752 164.438C87.1252 164.094 87.2892 163.727 87.3673 163.336C87.4455 162.93 87.4923 162.562 87.508 162.234C87.6173 162.125 87.7111 161.969 87.7892 161.766C87.883 161.562 87.9533 161.359 88.0002 161.156C88.047 160.938 88.0627 160.734 88.047 160.547C88.047 160.344 88.0236 160.18 87.9767 160.055C87.9923 159.977 88.0783 159.953 88.2345 159.984C88.3283 159.469 88.3908 158.891 88.422 158.25C88.4689 157.594 88.5392 156.977 88.633 156.398C88.7267 155.805 88.883 155.289 89.1017 154.852C89.3205 154.398 89.672 154.102 90.1564 153.961C90.2502 154.289 90.3673 154.578 90.508 154.828C90.6642 155.078 90.8283 155.32 91.0002 155.555C91.1877 155.773 91.3673 156 91.5392 156.234C91.7267 156.469 91.8986 156.734 92.0548 157.031C92.0392 157.328 92.008 157.672 91.9611 158.062C91.9142 158.453 91.8517 158.852 91.7736 159.258C91.7111 159.664 91.6408 160.055 91.5627 160.43C91.5002 160.805 91.4377 161.125 91.3752 161.391C91.3908 161.469 91.4298 161.516 91.4923 161.531C91.5705 161.547 91.5861 161.617 91.5392 161.742C91.9142 161.648 92.3048 161.562 92.7111 161.484C93.1173 161.406 93.5236 161.32 93.9298 161.227C94.3361 161.133 94.7267 161.031 95.1017 160.922C95.4923 160.797 95.8517 160.648 96.1798 160.477C96.258 159.867 96.3595 159.258 96.4845 158.648C96.6095 158.039 96.6252 157.414 96.5314 156.773C96.6095 156.711 96.672 156.633 96.7189 156.539C96.7658 156.445 96.8439 156.383 96.9533 156.352C96.8752 156.055 96.8439 155.742 96.8595 155.414C96.8752 155.086 96.9298 154.773 97.0236 154.477C97.133 154.18 97.2814 153.93 97.4689 153.727C97.672 153.508 97.9142 153.367 98.1955 153.305C98.3673 153.555 98.5158 153.828 98.6408 154.125C98.7658 154.406 98.8908 154.695 99.0158 154.992C99.1564 155.273 99.297 155.547 99.4377 155.812C99.5939 156.062 99.7892 156.281 100.024 156.469C100.07 156.922 100.102 157.391 100.117 157.875C100.149 158.359 100.172 158.852 100.188 159.352C100.063 159.945 99.922 160.523 99.7658 161.086C99.6252 161.633 99.5236 162.219 99.4611 162.844C99.3517 162.969 99.2658 163.109 99.2033 163.266C99.1408 163.422 99.0783 163.586 99.0158 163.758C98.9533 163.914 98.883 164.07 98.8048 164.227C98.7267 164.367 98.633 164.492 98.5236 164.602C98.5861 164.789 98.5939 164.969 98.547 165.141C98.5158 165.297 98.5627 165.492 98.6877 165.727ZM114.495 166.031C114.401 166.297 114.26 166.57 114.073 166.852C113.901 167.117 113.69 167.359 113.44 167.578C113.206 167.781 112.94 167.953 112.643 168.094C112.346 168.234 112.034 168.312 111.706 168.328C111.503 168.281 111.362 168.227 111.284 168.164C111.221 168.117 111.151 168.07 111.073 168.023C111.026 167.992 110.979 167.969 110.932 167.953C110.901 167.922 110.87 167.898 110.839 167.883L110.557 167.766L110.651 167.461C110.682 167.336 110.675 167.242 110.628 167.18C110.581 167.102 110.487 167 110.346 166.875C110.3 166.828 110.253 166.781 110.206 166.734C110.159 166.688 110.12 166.641 110.089 166.594L109.69 166.148L110.323 165.984C110.714 165.875 110.971 165.734 111.096 165.562C111.237 165.391 111.292 165.102 111.26 164.695C110.948 164.633 110.682 164.625 110.464 164.672C110.26 164.719 110.05 164.773 109.831 164.836C109.55 164.914 109.26 164.984 108.964 165.047C108.682 165.094 108.37 165.117 108.026 165.117C107.901 165.117 107.784 165.117 107.675 165.117C107.565 165.102 107.448 165.086 107.323 165.07L107.089 165.023C107.057 164.852 107.026 164.758 106.995 164.742C106.964 164.711 106.932 164.68 106.901 164.648C106.823 164.57 106.737 164.469 106.643 164.344C106.565 164.203 106.55 164.031 106.596 163.828C106.518 163.688 106.471 163.547 106.456 163.406C106.362 163.594 106.292 163.789 106.245 163.992L106.151 164.227L105.917 164.273C105.885 164.289 105.862 164.328 105.846 164.391C105.831 164.438 105.823 164.477 105.823 164.508L105.706 164.906C105.675 164.938 105.643 164.969 105.612 165C105.581 165.016 105.55 165.039 105.518 165.07C105.487 165.211 105.448 165.352 105.401 165.492C105.354 165.633 105.307 165.766 105.26 165.891C105.182 166.094 105.112 166.297 105.05 166.5C105.003 166.688 104.987 166.875 105.003 167.062L104.909 167.32C104.831 167.414 104.745 167.492 104.651 167.555C104.557 167.602 104.464 167.648 104.37 167.695C104.339 167.727 104.292 167.758 104.229 167.789C104.182 167.805 104.143 167.82 104.112 167.836L104.042 168.094L103.76 168.141C103.589 168.172 103.464 168.195 103.385 168.211C103.323 168.227 103.245 168.234 103.151 168.234L102.917 168.211C102.745 168.07 102.612 167.961 102.518 167.883C102.425 167.789 102.315 167.703 102.19 167.625C102.05 167.438 101.971 167.297 101.956 167.203C101.94 167.109 101.925 167.023 101.909 166.945C101.878 166.852 101.862 166.773 101.862 166.711C101.846 166.648 101.823 166.602 101.792 166.57L101.487 166.289L101.745 166.078L101.768 165.68C102.081 164.883 102.409 164.117 102.753 163.383C103.112 162.648 103.479 161.898 103.854 161.133C103.979 160.883 104.096 160.633 104.206 160.383C104.331 160.133 104.456 159.883 104.581 159.633C104.565 159.586 104.557 159.531 104.557 159.469C104.557 159.406 104.573 159.336 104.604 159.258C104.776 158.992 104.917 158.758 105.026 158.555C105.135 158.336 105.245 158.117 105.354 157.898C105.479 157.633 105.604 157.375 105.729 157.125C105.87 156.875 106.042 156.617 106.245 156.352L106.62 156.188C106.667 156.172 106.721 156.156 106.784 156.141C106.846 156.109 106.917 156.094 106.995 156.094L107.346 156.141C107.784 155.938 108.167 155.656 108.495 155.297C108.823 154.922 109.159 154.477 109.503 153.961L109.737 153.633L110.042 153.82C110.12 153.867 110.229 153.914 110.37 153.961C110.51 153.992 110.659 154.031 110.815 154.078C111.096 154.141 111.362 154.211 111.612 154.289C111.862 154.367 112.065 154.484 112.221 154.641C112.315 154.891 112.37 155.078 112.385 155.203C112.401 155.328 112.425 155.453 112.456 155.578C112.503 155.844 112.542 156.109 112.573 156.375C112.62 156.641 112.651 156.938 112.667 157.266C112.745 157.531 112.807 157.797 112.854 158.062C112.917 158.312 112.971 158.57 113.018 158.836C113.096 159.211 113.175 159.578 113.253 159.938C113.331 160.281 113.432 160.609 113.557 160.922C113.682 160.922 113.76 160.93 113.792 160.945C113.87 160.914 113.948 160.891 114.026 160.875C114.12 160.859 114.221 160.844 114.331 160.828L114.589 160.805L114.682 161.039C114.698 161.117 114.776 161.195 114.917 161.273C115.12 161.289 115.268 161.336 115.362 161.414C115.456 161.477 115.542 161.547 115.62 161.625C115.682 161.688 115.745 161.734 115.807 161.766L116.159 161.906L115.971 162.258C115.815 162.539 115.589 162.812 115.292 163.078C115.01 163.328 114.69 163.539 114.331 163.711C114.346 163.805 114.354 163.898 114.354 163.992C114.37 164.07 114.393 164.156 114.425 164.25C114.471 164.516 114.51 164.789 114.542 165.07C114.573 165.352 114.573 165.641 114.542 165.938L114.495 166.031ZM107.721 161.977C108.19 161.945 108.612 161.914 108.987 161.883C109.378 161.836 109.807 161.766 110.276 161.672C110.167 161.203 110.05 160.719 109.925 160.219C109.8 159.703 109.667 159.195 109.526 158.695L109.385 158.93C109.073 159.258 108.768 159.625 108.471 160.031C108.19 160.438 107.948 160.82 107.745 161.18C107.651 161.32 107.557 161.461 107.464 161.602C107.37 161.742 107.284 161.883 107.206 162.023C107.3 162.008 107.385 162 107.464 162C107.557 162 107.643 161.992 107.721 161.977ZM122.286 163.734C122.146 163.766 122.044 163.852 121.982 163.992C121.919 164.117 121.857 164.25 121.794 164.391C121.747 164.531 121.693 164.664 121.63 164.789C121.583 164.898 121.505 164.953 121.396 164.953C121.38 165.078 121.333 165.188 121.255 165.281C121.193 165.375 121.13 165.477 121.068 165.586C121.005 165.68 120.958 165.789 120.927 165.914C120.896 166.023 120.911 166.156 120.974 166.312C120.849 166.406 120.771 166.539 120.74 166.711C120.708 166.883 120.669 167.047 120.622 167.203C120.591 167.359 120.529 167.492 120.435 167.602C120.341 167.711 120.169 167.758 119.919 167.742C119.872 167.805 119.865 167.844 119.896 167.859C119.927 167.875 119.95 167.93 119.966 168.023C119.794 167.992 119.661 168 119.568 168.047C119.49 168.109 119.388 168.148 119.263 168.164C118.966 168.07 118.716 167.906 118.513 167.672C118.325 167.438 118.154 167.18 117.997 166.898C117.857 166.602 117.724 166.305 117.599 166.008C117.49 165.711 117.38 165.453 117.271 165.234C117.318 165.062 117.325 164.898 117.294 164.742C117.263 164.57 117.208 164.43 117.13 164.32C117.896 162.695 118.732 160.961 119.638 159.117C120.544 157.273 121.404 155.453 122.216 153.656C122.575 153.797 122.927 153.961 123.271 154.148C123.63 154.32 123.95 154.523 124.232 154.758C124.529 154.992 124.779 155.266 124.982 155.578C125.185 155.875 125.318 156.211 125.38 156.586C125.349 156.68 125.31 156.719 125.263 156.703C125.232 156.672 125.2 156.68 125.169 156.727C125.232 156.805 125.263 156.859 125.263 156.891C125.279 156.922 125.279 156.953 125.263 156.984C125.263 157.016 125.263 157.062 125.263 157.125C125.263 157.172 125.286 157.242 125.333 157.336C125.271 157.32 125.224 157.328 125.193 157.359C125.177 157.391 125.13 157.391 125.052 157.359C125.115 157.531 125.13 157.672 125.099 157.781C125.083 157.891 125.052 157.992 125.005 158.086C124.958 158.164 124.919 158.258 124.888 158.367C124.857 158.461 124.865 158.586 124.911 158.742C124.865 158.742 124.825 158.758 124.794 158.789C124.779 158.805 124.763 158.828 124.747 158.859C124.732 158.875 124.708 158.898 124.677 158.93C124.661 158.945 124.63 158.945 124.583 158.93C124.63 159.273 124.646 159.617 124.63 159.961C124.615 160.305 124.599 160.656 124.583 161.016C124.583 161.359 124.591 161.727 124.607 162.117C124.622 162.492 124.677 162.883 124.771 163.289C125.333 162.961 125.779 162.539 126.107 162.023C126.45 161.508 126.724 160.93 126.927 160.289C127.146 159.648 127.31 158.961 127.419 158.227C127.529 157.492 127.646 156.742 127.771 155.977C127.911 155.836 128.021 155.664 128.099 155.461C128.177 155.258 128.247 155.047 128.31 154.828C128.372 154.594 128.435 154.367 128.497 154.148C128.56 153.914 128.638 153.703 128.732 153.516C128.966 153.547 129.161 153.625 129.318 153.75C129.49 153.859 129.646 153.984 129.786 154.125C129.927 154.25 130.075 154.375 130.232 154.5C130.388 154.609 130.583 154.68 130.818 154.711C131.005 154.977 131.177 155.234 131.333 155.484C131.49 155.734 131.591 156 131.638 156.281C131.56 156.406 131.497 156.547 131.45 156.703C131.419 156.859 131.38 157.016 131.333 157.172C131.286 157.328 131.224 157.477 131.146 157.617C131.068 157.742 130.958 157.852 130.818 157.945C130.771 158.352 130.708 158.727 130.63 159.07C130.568 159.398 130.497 159.727 130.419 160.055C130.357 160.383 130.302 160.727 130.255 161.086C130.208 161.43 130.193 161.812 130.208 162.234C130.083 162.594 129.95 162.977 129.81 163.383C129.669 163.789 129.56 164.156 129.482 164.484C129.232 164.688 129.036 164.93 128.896 165.211C128.755 165.492 128.607 165.773 128.45 166.055C128.388 166.117 128.349 166.133 128.333 166.102C128.318 166.07 128.263 166.047 128.169 166.031C128.185 166.094 128.185 166.141 128.169 166.172C128.154 166.203 128.13 166.234 128.099 166.266C128.083 166.281 128.068 166.312 128.052 166.359C128.052 166.406 128.068 166.469 128.099 166.547C127.88 166.641 127.685 166.773 127.513 166.945C127.341 167.117 127.154 167.273 126.95 167.414C126.763 167.555 126.529 167.648 126.247 167.695C125.982 167.742 125.63 167.688 125.193 167.531C124.552 167.062 123.982 166.523 123.482 165.914C122.997 165.305 122.599 164.578 122.286 163.734ZM149.086 163.781C148.711 164.453 148.219 164.977 147.609 165.352C147 165.711 146.328 166.016 145.594 166.266C144.859 166.5 144.086 166.711 143.273 166.898C142.476 167.086 141.703 167.328 140.953 167.625C140.734 167.625 140.539 167.633 140.367 167.648C140.211 167.664 140.055 167.688 139.898 167.719C139.758 167.734 139.617 167.758 139.476 167.789C139.336 167.805 139.18 167.82 139.008 167.836C138.945 167.82 138.906 167.836 138.89 167.883C138.875 167.914 138.851 167.945 138.82 167.977C138.555 168.023 138.312 168.047 138.094 168.047C137.89 168.047 137.719 168.047 137.578 168.047C137.39 168.047 137.195 168.07 136.992 168.117C136.805 168.18 136.633 168.203 136.476 168.188C135.305 168.125 134.383 167.711 133.711 166.945C133.055 166.164 132.687 165.086 132.609 163.711C132.625 163.633 132.609 163.586 132.562 163.57C132.531 163.555 132.5 163.531 132.469 163.5C132.469 163.344 132.484 163.211 132.515 163.102C132.562 162.992 132.57 162.852 132.539 162.68C132.945 161.82 133.406 161.023 133.922 160.289C134.437 159.539 135.055 158.883 135.773 158.32C135.883 158.227 135.976 158.133 136.055 158.039C136.133 157.945 136.203 157.852 136.265 157.758C136.344 157.664 136.43 157.586 136.523 157.523C136.617 157.445 136.734 157.391 136.875 157.359C137.203 156.984 137.594 156.641 138.047 156.328C138.5 156.016 138.976 155.719 139.476 155.438C139.976 155.141 140.469 154.852 140.953 154.57C141.453 154.273 141.906 153.945 142.312 153.586C142.484 153.664 142.609 153.688 142.687 153.656C142.765 153.625 142.851 153.625 142.945 153.656C143.055 153.891 143.203 154.055 143.39 154.148C143.594 154.242 143.789 154.344 143.976 154.453C144.18 154.547 144.367 154.664 144.539 154.805C144.711 154.945 144.844 155.133 144.937 155.367C144.844 155.367 144.797 155.406 144.797 155.484C144.812 155.547 144.836 155.617 144.867 155.695C144.898 155.758 144.906 155.828 144.89 155.906C144.89 155.969 144.836 156 144.726 156C144.742 156.078 144.789 156.125 144.867 156.141C144.961 156.141 145.008 156.18 145.008 156.258C145.008 156.336 144.984 156.398 144.937 156.445C144.906 156.492 144.906 156.57 144.937 156.68C144.625 156.883 144.273 157.078 143.883 157.266C143.508 157.453 143.109 157.656 142.687 157.875C142.281 158.078 141.851 158.305 141.398 158.555C140.961 158.789 140.531 159.062 140.109 159.375C139.687 159.688 139.258 160.039 138.82 160.43C138.383 160.805 137.961 161.203 137.555 161.625C137.148 162.047 136.765 162.484 136.406 162.938C136.047 163.375 135.742 163.812 135.492 164.25C135.523 164.328 135.555 164.391 135.586 164.438C135.633 164.469 135.672 164.523 135.703 164.602C136.203 164.633 136.664 164.633 137.086 164.602C137.523 164.555 137.961 164.578 138.398 164.672C138.445 164.641 138.476 164.594 138.492 164.531C138.508 164.469 138.547 164.422 138.609 164.391C139.5 164.297 140.328 164.156 141.094 163.969C141.859 163.766 142.64 163.555 143.437 163.336C143.312 163.289 143.195 163.25 143.086 163.219C142.992 163.172 142.898 163.133 142.805 163.102C142.726 163.023 142.726 162.961 142.805 162.914C142.898 162.852 142.976 162.789 143.039 162.727C142.82 162.602 142.64 162.445 142.5 162.258C142.375 162.07 142.297 161.82 142.265 161.508C142.359 161.43 142.406 161.336 142.406 161.227C142.406 161.117 142.359 161.031 142.265 160.969C142.203 160.953 142.164 160.953 142.148 160.969C142.133 160.984 142.117 161.008 142.101 161.039C142.101 161.07 142.094 161.102 142.078 161.133C142.062 161.148 142.023 161.141 141.961 161.109C141.976 160.969 142.008 160.852 142.055 160.758C142.117 160.664 142.164 160.555 142.195 160.43L143.812 159.352C143.984 159.477 144.195 159.617 144.445 159.773C144.695 159.914 144.953 160.062 145.219 160.219C145.5 160.359 145.781 160.508 146.062 160.664C146.359 160.805 146.633 160.945 146.883 161.086C147.101 161.18 147.297 161.305 147.469 161.461C147.64 161.617 147.805 161.781 147.961 161.953C148.117 162.109 148.273 162.266 148.43 162.422C148.601 162.578 148.797 162.711 149.015 162.82C148.984 163.023 148.992 163.188 149.039 163.312C149.086 163.438 149.101 163.594 149.086 163.781ZM162.643 154.805C162.659 154.914 162.659 155 162.643 155.062C162.643 155.109 162.635 155.156 162.62 155.203C162.62 155.25 162.62 155.305 162.62 155.367C162.62 155.414 162.635 155.492 162.666 155.602C162.338 156.133 161.955 156.5 161.518 156.703C161.096 156.891 160.635 157.031 160.135 157.125C159.635 157.203 159.12 157.289 158.588 157.383C158.073 157.477 157.557 157.68 157.041 157.992C156.838 157.914 156.651 157.914 156.479 157.992C156.323 158.07 156.088 158.094 155.776 158.062C155.682 158.156 155.565 158.227 155.424 158.273C155.284 158.305 155.143 158.344 155.002 158.391C155.065 158.531 155.088 158.68 155.073 158.836C155.073 158.977 155.096 159.094 155.143 159.188C155.69 159.234 156.291 159.227 156.948 159.164C157.62 159.102 158.276 159.062 158.916 159.047C158.932 159.125 158.924 159.18 158.893 159.211C158.862 159.227 158.854 159.266 158.87 159.328C158.979 159.406 159.088 159.508 159.198 159.633C159.307 159.742 159.416 159.852 159.526 159.961C159.635 160.07 159.745 160.164 159.854 160.242C159.979 160.305 160.12 160.328 160.276 160.312C160.338 160.438 160.377 160.578 160.393 160.734C160.424 160.875 160.409 161.023 160.346 161.18C160.096 161.352 159.846 161.531 159.596 161.719C159.346 161.891 159.08 162.047 158.799 162.188C158.534 162.328 158.245 162.445 157.932 162.539C157.635 162.617 157.299 162.648 156.924 162.633C156.846 162.633 156.784 162.633 156.737 162.633C156.705 162.633 156.659 162.609 156.596 162.562C156.471 162.641 156.291 162.664 156.057 162.633C155.838 162.602 155.666 162.625 155.541 162.703C155.37 162.625 155.159 162.594 154.909 162.609C154.674 162.609 154.463 162.578 154.276 162.516C154.026 162.844 153.799 163.195 153.596 163.57C153.393 163.945 153.213 164.344 153.057 164.766C153.588 164.844 154.026 164.875 154.37 164.859C154.729 164.844 155.065 164.82 155.377 164.789C155.69 164.742 156.01 164.703 156.338 164.672C156.666 164.625 157.08 164.609 157.58 164.625C157.893 164.453 158.26 164.344 158.682 164.297C159.12 164.234 159.518 164.141 159.877 164.016C160.002 164.062 160.112 164.148 160.205 164.273C160.299 164.383 160.385 164.492 160.463 164.602C160.557 164.695 160.651 164.781 160.745 164.859C160.838 164.938 160.955 164.969 161.096 164.953C161.159 165.016 161.198 165.094 161.213 165.188C161.245 165.266 161.268 165.344 161.284 165.422C161.299 165.5 161.323 165.57 161.354 165.633C161.401 165.68 161.471 165.695 161.565 165.68C161.33 166.195 161.057 166.594 160.745 166.875C160.448 167.141 160.104 167.344 159.713 167.484C159.323 167.625 158.885 167.734 158.401 167.812C157.932 167.891 157.409 167.984 156.83 168.094C156.69 168.125 156.573 168.117 156.479 168.07C156.385 168.039 156.276 168.023 156.151 168.023C155.791 168.102 155.362 168.172 154.862 168.234C154.362 168.297 153.854 168.32 153.338 168.305C152.823 168.289 152.33 168.219 151.862 168.094C151.393 167.984 151.01 167.781 150.713 167.484C150.588 167.375 150.502 167.25 150.455 167.109C150.424 166.953 150.323 166.836 150.151 166.758C150.135 166.555 150.104 166.328 150.057 166.078C150.01 165.828 149.963 165.57 149.916 165.305C149.87 165.023 149.83 164.75 149.799 164.484C149.784 164.219 149.799 163.977 149.846 163.758C149.893 163.523 149.987 163.312 150.127 163.125C150.284 162.938 150.338 162.734 150.291 162.516C150.37 162.5 150.416 162.461 150.432 162.398C150.448 162.32 150.51 162.289 150.62 162.305C150.713 162.023 150.815 161.758 150.924 161.508C151.034 161.258 151.143 161.016 151.252 160.781C151.377 160.547 151.495 160.312 151.604 160.078C151.729 159.828 151.846 159.555 151.955 159.258C151.737 159.055 151.573 158.836 151.463 158.602C151.37 158.352 151.299 158.109 151.252 157.875C151.205 157.625 151.166 157.375 151.135 157.125C151.104 156.859 151.049 156.594 150.971 156.328C151.127 156.094 151.315 155.906 151.534 155.766C151.768 155.609 152.018 155.484 152.284 155.391C152.549 155.297 152.838 155.219 153.151 155.156C153.463 155.094 153.791 155.023 154.135 154.945C154.76 154.742 155.315 154.586 155.799 154.477C156.299 154.367 156.784 154.281 157.252 154.219C157.737 154.141 158.237 154.07 158.752 154.008C159.268 153.945 159.854 153.852 160.51 153.727C160.651 153.867 160.784 153.938 160.909 153.938C160.971 153.797 161.041 153.758 161.12 153.82C161.213 153.867 161.252 153.82 161.237 153.68C161.393 153.945 161.588 154.172 161.823 154.359C162.073 154.531 162.346 154.68 162.643 154.805Z" fill="#D86B8C"/>
<path d="M35.2672 107.203C35.1734 107.734 34.9078 108.102 34.4703 108.305C34.2672 108.32 34.1109 108.312 34.0016 108.281C33.9078 108.25 33.8063 108.211 33.6969 108.164C33.5563 108.102 33.4313 108.062 33.3219 108.047L33.0641 107.859C33.0328 107.781 32.9938 107.703 32.9469 107.625C32.9 107.547 32.8453 107.469 32.7828 107.391C32.6578 107.234 32.5328 107.039 32.4078 106.805C32.3141 106.352 32.2984 105.977 32.3609 105.68C32.4234 105.367 32.5016 105.062 32.5953 104.766C32.6266 104.672 32.6578 104.578 32.6891 104.484C32.7203 104.375 32.7516 104.273 32.7828 104.18C32.3766 103.961 32.0719 103.648 31.8688 103.242C31.6656 102.836 31.5484 102.445 31.5172 102.07C31.5641 101.773 31.65 101.539 31.775 101.367C31.9 101.18 32.0406 101.031 32.1969 100.922C32.3688 100.812 32.5406 100.727 32.7125 100.664C32.9 100.602 33.0797 100.547 33.2516 100.5L33.5563 100.617C33.6969 100.758 33.8375 100.867 33.9781 100.945C34.0875 100.898 34.1578 100.828 34.1891 100.734C34.2359 100.625 34.275 100.508 34.3063 100.383C34.3531 100.242 34.4 100.102 34.4469 99.9609C34.5094 99.8203 34.5797 99.6797 34.6578 99.5391C34.6422 99.3359 34.6734 99.1484 34.7516 98.9766C34.6422 98.8984 34.525 98.8516 34.4 98.8359C34.3688 98.8359 34.2906 98.8203 34.1656 98.7891C33.9781 98.6484 33.8453 98.5312 33.7672 98.4375C33.7047 98.3281 33.6422 98.2266 33.5797 98.1328C33.4859 97.9297 33.3688 97.7656 33.2281 97.6406L32.9938 97.4766L33.1109 97.2422C33.1422 97.2109 33.1578 97.1719 33.1578 97.125C33.1578 97.0781 33.1266 97.0078 33.0641 96.9141C33.0328 96.7422 33.0328 96.625 33.0641 96.5625L33.1109 96.3281C33.2359 96.1562 33.2984 96.0625 33.2984 96.0469L33.5094 95.8359C33.8219 95.7578 34.1266 95.6719 34.4234 95.5781C34.7359 95.4688 35.0484 95.3594 35.3609 95.25C35.6578 95.1562 35.9547 95.0625 36.2516 94.9688C36.5641 94.8594 36.8766 94.7656 37.1891 94.6875C37.2984 94.6094 37.4156 94.5625 37.5406 94.5469C37.6656 94.5156 37.7828 94.4922 37.8922 94.4766C37.9859 94.4609 38.0719 94.4531 38.15 94.4531C38.2281 94.4375 38.2828 94.4062 38.3141 94.3594C38.5016 94.2969 38.7203 94.2266 38.9703 94.1484C39.3609 94.0391 39.8766 93.9219 40.5172 93.7969C41.1578 93.6562 41.8766 93.5469 42.6734 93.4688L43.0719 93.4453C43.15 93.4609 43.2281 93.4688 43.3063 93.4688C43.3844 93.4531 43.4625 93.4453 43.5406 93.4453C44.2438 93.4453 44.6891 93.6562 44.8766 94.0781C45.0172 94.1562 45.1422 94.2422 45.2516 94.3359C45.3609 94.4297 45.4625 94.5234 45.5563 94.6172C45.6031 94.6797 45.65 94.7344 45.6969 94.7812C45.7594 94.8281 45.8063 94.8594 45.8375 94.875C46.1031 95.2812 46.1891 95.6406 46.0953 95.9531C45.9547 96.1562 45.775 96.2734 45.5563 96.3047L45.2984 96.4453C45.1266 96.4297 44.9938 96.4219 44.9 96.4219C44.8219 96.4219 44.7359 96.4219 44.6422 96.4219C44.2516 96.4219 43.7984 96.4453 43.2828 96.4922C42.7672 96.5391 42.2359 96.6094 41.6891 96.7031C41.1578 96.7812 40.6422 96.8828 40.1422 97.0078C39.6422 97.1328 39.2047 97.2656 38.8297 97.4062L38.4078 97.6172C38.2984 97.7891 38.2359 97.9297 38.2203 98.0391C38.2047 98.1328 38.1891 98.2266 38.1734 98.3203C38.1578 98.3828 38.1422 98.4453 38.1266 98.5078C38.1266 98.5703 38.1188 98.6406 38.1031 98.7188C37.8375 99.0469 37.7047 99.4375 37.7047 99.8906C37.5953 100.078 37.525 100.219 37.4938 100.312C37.4625 100.391 37.4625 100.492 37.4938 100.617C37.7906 100.742 38.0719 100.789 38.3375 100.758C38.6031 100.727 38.8688 100.688 39.1344 100.641C39.4938 100.578 39.8609 100.523 40.2359 100.477C40.6266 100.43 41.025 100.406 41.4313 100.406H42.1813L41.9938 100.594L42.1109 100.922C42.2047 100.969 42.2672 101 42.2984 101.016C42.3453 101.031 42.3922 101.055 42.4391 101.086L42.5563 101.297C42.6188 101.328 42.6734 101.383 42.7203 101.461C42.7828 101.539 42.8219 101.656 42.8375 101.812L41.8766 103.172L41.5484 103.266C41.2828 103.25 41.0484 103.281 40.8453 103.359C40.7359 103.391 40.6266 103.422 40.5172 103.453C40.4078 103.469 40.2906 103.477 40.1656 103.477C39.8531 103.539 39.5875 103.586 39.3688 103.617C39.1656 103.648 38.9547 103.68 38.7359 103.711C38.4547 103.742 38.1813 103.789 37.9156 103.852C37.65 103.898 37.4 103.969 37.1656 104.062C37.0094 104.062 36.9 104.062 36.8375 104.062C36.7125 104.062 36.5797 104.086 36.4391 104.133C36.3141 104.164 36.1969 104.195 36.0875 104.227C36.0094 104.289 35.9547 104.359 35.9234 104.438C35.8922 104.5 35.8609 104.57 35.8297 104.648C35.7672 104.867 35.6813 105.047 35.5719 105.188V105.539C35.4469 105.695 35.3688 105.82 35.3375 105.914C35.3219 105.992 35.2984 106.07 35.2672 106.148C35.2359 106.195 35.2125 106.242 35.1969 106.289C35.1813 106.32 35.1734 106.359 35.1734 106.406C35.2984 106.641 35.3297 106.906 35.2672 107.203ZM58.0119 100.969C57.9963 101.156 58.0119 101.336 58.0588 101.508C58.1056 101.68 58.1603 101.852 58.2228 102.023C58.3009 102.18 58.3713 102.344 58.4338 102.516C58.4963 102.688 58.5431 102.859 58.5744 103.031C58.6056 103.25 58.6056 103.492 58.5744 103.758C58.5431 104.008 58.4884 104.258 58.4103 104.508C58.3322 104.742 58.2306 104.961 58.1056 105.164C57.9806 105.352 57.8322 105.492 57.6603 105.586C57.4416 105.867 57.1759 106.086 56.8634 106.242C56.5509 106.398 56.2619 106.586 55.9963 106.805C55.8244 106.914 55.6291 106.992 55.4103 107.039C55.2072 107.086 54.9963 107.133 54.7775 107.18C54.6056 107.273 54.4025 107.375 54.1681 107.484C53.9338 107.578 53.6916 107.672 53.4416 107.766C53.1916 107.844 52.9416 107.906 52.6916 107.953C52.4416 107.984 52.2228 107.992 52.0353 107.977C51.5666 108.148 51.1056 108.258 50.6525 108.305C50.215 108.367 49.6994 108.336 49.1056 108.211C48.5431 108.289 48.0197 108.266 47.5353 108.141C47.0666 108.016 46.6447 107.82 46.2697 107.555C45.9103 107.273 45.59 106.945 45.3088 106.57C45.0431 106.18 44.8244 105.773 44.6525 105.352C44.5275 104.461 44.5588 103.656 44.7463 102.938C44.9338 102.203 45.1994 101.531 45.5431 100.922C45.9025 100.297 46.3088 99.7266 46.7619 99.2109C47.215 98.6797 47.6525 98.1641 48.0744 97.6641C48.1681 97.6953 48.2384 97.6953 48.2853 97.6641C48.3478 97.6172 48.4025 97.5625 48.4494 97.5C48.4963 97.4219 48.5431 97.3516 48.59 97.2891C48.6525 97.2266 48.7228 97.1875 48.8009 97.1719C48.9103 96.9375 49.0666 96.7656 49.2697 96.6562C49.4884 96.5312 49.6603 96.3594 49.7853 96.1406C49.9259 96.1094 50.0431 96.0625 50.1369 96C50.2306 95.9375 50.3166 95.8672 50.3947 95.7891C50.4884 95.7109 50.5822 95.6406 50.6759 95.5781C50.7697 95.5 50.8791 95.4453 51.0041 95.4141V95.1562C51.2853 95.0312 51.4884 94.8906 51.6134 94.7344C51.7541 94.5625 51.9181 94.3594 52.1056 94.125C52.2463 94.1094 52.3556 94.1016 52.4338 94.1016C52.5275 94.1016 52.6603 94.0859 52.8322 94.0547C52.9572 93.8359 53.0666 93.6719 53.1603 93.5625C53.2697 93.4531 53.4259 93.3359 53.6291 93.2109C53.8166 93.3047 54.0197 93.3672 54.2384 93.3984C54.4728 93.4297 54.6759 93.5312 54.8478 93.7031C54.8634 93.8594 54.9103 93.9844 54.9884 94.0781C55.0666 94.1562 55.1525 94.2344 55.2463 94.3125C55.34 94.375 55.4259 94.4453 55.5041 94.5234C55.5978 94.6016 55.6603 94.7109 55.6916 94.8516C55.7541 94.8672 55.7931 94.8594 55.8088 94.8281C55.84 94.7969 55.8869 94.7891 55.9494 94.8047C55.9963 95.0234 56.0509 95.1719 56.1134 95.25C56.1759 95.3125 56.2384 95.4453 56.3009 95.6484C56.2228 95.8047 56.1603 95.9688 56.1134 96.1406C56.0822 96.2969 55.9884 96.4141 55.8322 96.4922C55.8166 96.6016 55.8478 96.6641 55.9259 96.6797C56.0041 96.6797 56.0509 96.7188 56.0666 96.7969C56.0822 96.9375 56.0588 97.0391 55.9963 97.1016C56.3713 97.7109 56.7072 98.3594 57.0041 99.0469C57.3009 99.7188 57.6369 100.359 58.0119 100.969ZM55.0822 103.195C55.1447 103.023 55.2228 102.883 55.3166 102.773C55.4259 102.664 55.4884 102.5 55.5041 102.281C55.4259 102.156 55.3791 102.062 55.3634 102C55.3478 101.922 55.34 101.805 55.34 101.648C54.9963 101.164 54.6994 100.648 54.4494 100.102C54.1994 99.5391 53.9181 99.0156 53.6056 98.5312C53.5744 98.5938 53.5197 98.6562 53.4416 98.7188C53.3634 98.7812 53.2775 98.7656 53.1838 98.6719C53.1525 98.7969 53.0978 98.8906 53.0197 98.9531C52.9416 99 52.8556 99.0234 52.7619 99.0234C52.6681 99.0078 52.5666 98.9844 52.4572 98.9531C52.3634 98.9062 52.2775 98.8516 52.1994 98.7891C51.7463 99.1484 51.2931 99.5 50.84 99.8438C50.3869 100.188 49.9806 100.586 49.6213 101.039C49.5588 101.07 49.5197 101.086 49.5041 101.086C49.4884 101.07 49.4416 101.078 49.3634 101.109C49.2384 101.406 49.0822 101.68 48.8947 101.93C48.7228 102.164 48.5509 102.406 48.3791 102.656C48.2072 102.906 48.0588 103.172 47.9338 103.453C47.8088 103.734 47.7384 104.062 47.7228 104.438C47.9884 104.656 48.3009 104.789 48.6603 104.836C49.0197 104.883 49.3869 104.891 49.7619 104.859C50.1525 104.828 50.5275 104.781 50.8869 104.719C51.2619 104.641 51.6056 104.602 51.9181 104.602C52.5744 104.445 53.1369 104.242 53.6056 103.992C54.0744 103.727 54.5666 103.461 55.0822 103.195ZM64.655 105.562C64.4831 106.188 64.3269 106.664 64.1863 106.992C64.0613 107.305 63.8659 107.633 63.6003 107.977C63.3972 107.945 63.2566 107.969 63.1784 108.047C63.1003 108.125 63.0144 108.195 62.9206 108.258C62.78 108.289 62.6784 108.289 62.6159 108.258C62.5534 108.227 62.4988 108.188 62.4519 108.141C62.405 108.109 62.3425 108.07 62.2644 108.023C62.2019 107.992 62.1003 107.977 61.9597 107.977C61.9284 107.852 61.8894 107.734 61.8425 107.625C61.8113 107.516 61.7097 107.477 61.5378 107.508C61.5691 107.383 61.5769 107.281 61.5613 107.203C61.5456 107.109 61.5222 107.031 61.4909 106.969C61.4753 106.891 61.4597 106.82 61.4441 106.758C61.4284 106.68 61.4363 106.586 61.4675 106.477C61.3894 106.477 61.3269 106.422 61.28 106.312C61.2331 106.203 61.1784 106.094 61.1159 105.984C61.1628 105.703 61.2097 105.438 61.2566 105.188C61.3034 104.938 61.3581 104.703 61.4206 104.484C61.4988 104.266 61.5613 104.047 61.6081 103.828C61.655 103.609 61.6316 103.383 61.5378 103.148C61.6003 103.195 61.6472 103.188 61.6784 103.125C61.7097 103.047 61.7331 102.953 61.7488 102.844C61.7644 102.719 61.7722 102.602 61.7722 102.492C61.7722 102.367 61.7644 102.266 61.7488 102.188C61.905 101.781 62.03 101.367 62.1238 100.945C62.2331 100.508 62.3269 100.078 62.405 99.6562C62.4988 99.2344 62.5925 98.8203 62.6863 98.4141C62.78 98.0078 62.905 97.6328 63.0613 97.2891C63.2331 97.2578 63.4206 97.2812 63.6238 97.3594C63.8425 97.4219 63.9753 97.5078 64.0222 97.6172C64.4284 97.3047 64.7878 96.9297 65.1003 96.4922C65.4128 96.0391 65.7331 95.6016 66.0613 95.1797C66.3894 94.7578 66.7488 94.3828 67.1394 94.0547C67.5456 93.7266 68.0534 93.5312 68.6628 93.4688C68.9753 93.7031 69.3191 93.9453 69.6941 94.1953C70.0847 94.4297 70.405 94.7422 70.655 95.1328C70.78 95.1953 70.8816 95.2656 70.9597 95.3438C71.0534 95.4062 71.1628 95.4766 71.2878 95.5547V95.8359C71.4753 96.0078 71.6238 96.2109 71.7331 96.4453C71.8581 96.6641 71.9675 96.9062 72.0613 97.1719C72.155 97.4219 72.2488 97.6797 72.3425 97.9453C72.4363 98.1953 72.5456 98.4375 72.6706 98.6719C72.6394 98.75 72.6238 98.8203 72.6238 98.8828C72.6238 98.9297 72.6316 98.9844 72.6472 99.0469C72.6784 99.1094 72.7019 99.1719 72.7175 99.2344C72.7331 99.2969 72.7331 99.3828 72.7175 99.4922C72.6706 100.18 72.4441 100.734 72.0378 101.156C71.6472 101.578 71.1706 101.93 70.6081 102.211C70.0456 102.477 69.4441 102.703 68.8034 102.891C68.1628 103.078 67.5847 103.281 67.0691 103.5C67.0691 103.562 67.0925 103.594 67.1394 103.594C67.2019 103.594 67.2253 103.633 67.2097 103.711C67.5847 103.945 67.8816 104.133 68.1003 104.273C68.3191 104.414 68.5222 104.531 68.7097 104.625C68.9128 104.719 69.1238 104.805 69.3425 104.883C69.5769 104.945 69.8972 105.023 70.3034 105.117C70.7097 105.211 71.0222 105.289 71.2409 105.352C71.4753 105.398 71.6863 105.445 71.8738 105.492C72.0613 105.523 72.2488 105.555 72.4363 105.586C72.6394 105.602 72.9206 105.625 73.28 105.656C73.4206 105.797 73.5378 105.969 73.6316 106.172C73.7409 106.359 73.8113 106.555 73.8425 106.758C73.8738 106.945 73.8816 107.133 73.8659 107.32C73.8503 107.492 73.7956 107.633 73.7019 107.742C73.7175 107.789 73.7488 107.812 73.7956 107.812C73.8581 107.797 73.9206 107.797 73.9831 107.812C73.8894 107.875 73.8113 107.953 73.7488 108.047C73.6863 108.141 73.6238 108.234 73.5613 108.328C73.4988 108.422 73.4284 108.5 73.3503 108.562C73.2722 108.641 73.1628 108.688 73.0222 108.703C72.5378 108.891 71.9284 108.898 71.1941 108.727C70.4597 108.57 69.53 108.273 68.405 107.836C67.8425 107.617 67.3816 107.43 67.0222 107.273C66.6784 107.102 66.3738 106.938 66.1081 106.781C65.8581 106.609 65.6238 106.43 65.405 106.242C65.2019 106.055 64.9519 105.828 64.655 105.562ZM68.0066 97.5234C67.8347 97.7734 67.6394 98 67.4206 98.2031C67.2175 98.4062 67.0144 98.6172 66.8113 98.8359C66.6238 99.0391 66.4519 99.2734 66.2956 99.5391C66.1394 99.7891 66.03 100.086 65.9675 100.43C66.5144 100.367 67.0847 100.219 67.6784 99.9844C68.2722 99.7344 68.8347 99.5 69.3659 99.2812C69.3034 98.7969 69.1316 98.4062 68.8503 98.1094C68.5847 97.8125 68.3034 97.6172 68.0066 97.5234ZM98.0272 106.031C97.9334 106.297 97.7928 106.57 97.6053 106.852C97.4334 107.117 97.2225 107.359 96.9725 107.578C96.7381 107.781 96.4725 107.953 96.1756 108.094C95.8788 108.234 95.5663 108.312 95.2381 108.328C95.035 108.281 94.8944 108.227 94.8163 108.164C94.7538 108.117 94.6834 108.07 94.6053 108.023C94.5584 107.992 94.5116 107.969 94.4647 107.953C94.4334 107.922 94.4022 107.898 94.3709 107.883L94.0897 107.766L94.1834 107.461C94.2147 107.336 94.2069 107.242 94.16 107.18C94.1131 107.102 94.0194 107 93.8788 106.875C93.8319 106.828 93.785 106.781 93.7381 106.734C93.6913 106.688 93.6522 106.641 93.6209 106.594L93.2225 106.148L93.8553 105.984C94.2459 105.875 94.5038 105.734 94.6288 105.562C94.7694 105.391 94.8241 105.102 94.7928 104.695C94.4803 104.633 94.2147 104.625 93.9959 104.672C93.7928 104.719 93.5819 104.773 93.3631 104.836C93.0819 104.914 92.7928 104.984 92.4959 105.047C92.2147 105.094 91.9022 105.117 91.5584 105.117C91.4334 105.117 91.3163 105.117 91.2069 105.117C91.0975 105.102 90.9803 105.086 90.8553 105.07L90.6209 105.023C90.5897 104.852 90.5584 104.758 90.5272 104.742C90.4959 104.711 90.4647 104.68 90.4334 104.648C90.3553 104.57 90.2694 104.469 90.1756 104.344C90.0975 104.203 90.0819 104.031 90.1288 103.828C90.0506 103.688 90.0038 103.547 89.9881 103.406C89.8944 103.594 89.8241 103.789 89.7772 103.992L89.6834 104.227L89.4491 104.273C89.4178 104.289 89.3944 104.328 89.3788 104.391C89.3631 104.438 89.3553 104.477 89.3553 104.508L89.2381 104.906C89.2069 104.938 89.1756 104.969 89.1444 105C89.1131 105.016 89.0819 105.039 89.0506 105.07C89.0194 105.211 88.9803 105.352 88.9334 105.492C88.8866 105.633 88.8397 105.766 88.7928 105.891C88.7147 106.094 88.6444 106.297 88.5819 106.5C88.535 106.688 88.5194 106.875 88.535 107.062L88.4413 107.32C88.3631 107.414 88.2772 107.492 88.1834 107.555C88.0897 107.602 87.9959 107.648 87.9022 107.695C87.8709 107.727 87.8241 107.758 87.7616 107.789C87.7147 107.805 87.6756 107.82 87.6444 107.836L87.5741 108.094L87.2928 108.141C87.1209 108.172 86.9959 108.195 86.9178 108.211C86.8553 108.227 86.7772 108.234 86.6834 108.234L86.4491 108.211C86.2772 108.07 86.1444 107.961 86.0506 107.883C85.9569 107.789 85.8475 107.703 85.7225 107.625C85.5819 107.438 85.5038 107.297 85.4881 107.203C85.4725 107.109 85.4569 107.023 85.4413 106.945C85.41 106.852 85.3944 106.773 85.3944 106.711C85.3788 106.648 85.3553 106.602 85.3241 106.57L85.0194 106.289L85.2772 106.078L85.3006 105.68C85.6131 104.883 85.9413 104.117 86.285 103.383C86.6444 102.648 87.0116 101.898 87.3866 101.133C87.5116 100.883 87.6288 100.633 87.7381 100.383C87.8631 100.133 87.9881 99.8828 88.1131 99.6328C88.0975 99.5859 88.0897 99.5312 88.0897 99.4688C88.0897 99.4062 88.1053 99.3359 88.1366 99.2578C88.3084 98.9922 88.4491 98.7578 88.5584 98.5547C88.6678 98.3359 88.7772 98.1172 88.8866 97.8984C89.0116 97.6328 89.1366 97.375 89.2616 97.125C89.4022 96.875 89.5741 96.6172 89.7772 96.3516L90.1522 96.1875C90.1991 96.1719 90.2538 96.1562 90.3163 96.1406C90.3788 96.1094 90.4491 96.0938 90.5272 96.0938L90.8788 96.1406C91.3163 95.9375 91.6991 95.6562 92.0272 95.2969C92.3553 94.9219 92.6913 94.4766 93.035 93.9609L93.2694 93.6328L93.5741 93.8203C93.6522 93.8672 93.7616 93.9141 93.9022 93.9609C94.0428 93.9922 94.1913 94.0312 94.3475 94.0781C94.6288 94.1406 94.8944 94.2109 95.1444 94.2891C95.3944 94.3672 95.5975 94.4844 95.7538 94.6406C95.8475 94.8906 95.9022 95.0781 95.9178 95.2031C95.9334 95.3281 95.9569 95.4531 95.9881 95.5781C96.035 95.8438 96.0741 96.1094 96.1053 96.375C96.1522 96.6406 96.1834 96.9375 96.1991 97.2656C96.2772 97.5312 96.3397 97.7969 96.3866 98.0625C96.4491 98.3125 96.5038 98.5703 96.5506 98.8359C96.6288 99.2109 96.7069 99.5781 96.785 99.9375C96.8631 100.281 96.9647 100.609 97.0897 100.922C97.2147 100.922 97.2928 100.93 97.3241 100.945C97.4022 100.914 97.4803 100.891 97.5584 100.875C97.6522 100.859 97.7538 100.844 97.8631 100.828L98.1209 100.805L98.2147 101.039C98.2303 101.117 98.3084 101.195 98.4491 101.273C98.6522 101.289 98.8006 101.336 98.8944 101.414C98.9881 101.477 99.0741 101.547 99.1522 101.625C99.2147 101.688 99.2772 101.734 99.3397 101.766L99.6913 101.906L99.5038 102.258C99.3475 102.539 99.1209 102.812 98.8241 103.078C98.5428 103.328 98.2225 103.539 97.8631 103.711C97.8788 103.805 97.8866 103.898 97.8866 103.992C97.9022 104.07 97.9256 104.156 97.9569 104.25C98.0038 104.516 98.0428 104.789 98.0741 105.07C98.1053 105.352 98.1053 105.641 98.0741 105.938L98.0272 106.031ZM91.2538 101.977C91.7225 101.945 92.1444 101.914 92.5194 101.883C92.91 101.836 93.3397 101.766 93.8084 101.672C93.6991 101.203 93.5819 100.719 93.4569 100.219C93.3319 99.7031 93.1991 99.1953 93.0584 98.6953L92.9178 98.9297C92.6053 99.2578 92.3006 99.625 92.0038 100.031C91.7225 100.438 91.4803 100.82 91.2772 101.18C91.1834 101.32 91.0897 101.461 90.9959 101.602C90.9022 101.742 90.8163 101.883 90.7381 102.023C90.8319 102.008 90.9178 102 90.9959 102C91.0897 102 91.1756 101.992 91.2538 101.977Z" fill="#D86B8C"/>
<path d="M49.5837 38.3594C49.6619 38.8281 49.6306 39.1953 49.49 39.4609C49.365 39.7266 49.1775 39.9219 48.9275 40.0469C48.6931 40.1875 48.4197 40.2656 48.1072 40.2812C47.7947 40.2969 47.4978 40.2812 47.2166 40.2344C47.0603 40.0156 46.9197 39.7422 46.7947 39.4141C46.6697 39.0859 46.5525 38.75 46.4431 38.4062C46.3337 38.0469 46.2322 37.6953 46.1384 37.3516C46.0603 37.0078 45.99 36.7031 45.9275 36.4375C46.0056 36.25 46.0525 36.0391 46.0681 35.8047C46.0994 35.5547 46.115 35.3047 46.115 35.0547C46.1306 34.8047 46.1384 34.5547 46.1384 34.3047C46.1541 34.0391 46.1775 33.7891 46.2087 33.5547C46.3181 32.8984 46.4744 32.2734 46.6775 31.6797C46.8962 31.0859 47.0681 30.4688 47.1931 29.8281C47.2244 29.6875 47.2087 29.5547 47.1462 29.4297C47.0994 29.3047 47.0916 29.1875 47.1228 29.0781C47.1384 29.0156 47.1853 28.9766 47.2634 28.9609C47.3416 28.9297 47.3884 28.875 47.4041 28.7969C47.4509 28.625 47.4587 28.4844 47.4275 28.375C47.4119 28.2656 47.4431 28.1328 47.5212 27.9766C47.5994 27.8516 47.6931 27.6719 47.8025 27.4375C47.9275 27.1875 47.9744 26.9297 47.9431 26.6641C48.0837 26.5703 48.2166 26.4609 48.3416 26.3359C48.4666 26.2109 48.5916 26.1016 48.7166 26.0078C48.8572 25.8984 49.0056 25.8047 49.1619 25.7266C49.3337 25.6484 49.5369 25.6094 49.7712 25.6094C49.8962 25.7656 49.9744 25.9375 50.0056 26.125C50.0525 26.3125 50.0916 26.5 50.1228 26.6875C50.1697 26.875 50.2322 27.0547 50.3103 27.2266C50.3884 27.3828 50.5212 27.5078 50.7087 27.6016C50.7087 27.7266 50.7087 27.8828 50.7087 28.0703C50.7087 28.2578 50.7166 28.4453 50.7322 28.6328C50.7478 28.8047 50.7791 28.9688 50.8259 29.125C50.8884 29.2656 50.9822 29.3594 51.1072 29.4062C50.8259 30.1562 50.5603 30.8984 50.3103 31.6328C50.0759 32.3672 49.8806 33.1094 49.7244 33.8594C49.5681 34.5938 49.4666 35.3359 49.4197 36.0859C49.3884 36.8359 49.4431 37.5938 49.5837 38.3594ZM67.0784 28.7266C66.6878 28.7266 66.2659 28.7578 65.8128 28.8203C65.3597 28.8672 64.9144 28.9219 64.4769 28.9844C64.1644 29.0312 63.8597 29.0703 63.5628 29.1016C63.2816 29.1328 63.0237 29.1562 62.7894 29.1719C62.68 29.5156 62.5706 29.8203 62.4612 30.0859C62.3519 30.3516 62.2347 30.6094 62.1097 30.8594C61.9847 31.125 61.8675 31.3984 61.7581 31.6797C61.6644 31.9453 61.5706 32.2344 61.4769 32.5469C61.3206 32.7969 61.1878 33.0312 61.0784 33.25C60.9847 33.4531 60.9066 33.6875 60.8441 33.9531C60.6566 34.1875 60.5159 34.4375 60.4222 34.7031C60.3284 34.9531 60.2581 35.1719 60.2112 35.3594L60.1175 35.6406C60.0237 35.7344 59.9691 35.8125 59.9534 35.875C59.9378 35.9219 59.8987 35.9688 59.8362 36.0156C59.8206 36.1875 59.7659 36.3594 59.6722 36.5312C59.6409 36.6094 59.6175 36.6875 59.6019 36.7656C59.5862 36.8281 59.5784 36.875 59.5784 36.9062C59.5784 37.0625 59.5394 37.1641 59.4612 37.2109C59.4769 37.2891 59.4769 37.375 59.4612 37.4688C59.4456 37.5469 59.43 37.625 59.4144 37.7031C59.3675 37.8906 59.3519 38.0391 59.3675 38.1484C59.4144 38.2109 59.4534 38.2656 59.4847 38.3125C59.5316 38.3594 59.5628 38.4219 59.5784 38.5C59.6722 38.5625 59.7425 38.6016 59.7894 38.6172C59.8519 38.6641 59.9456 38.7188 60.0706 38.7812L60.2816 39.0156C60.3597 39.4688 60.2894 39.8281 60.0706 40.0938C59.8362 40.3906 59.4378 40.5391 58.8753 40.5391H58.5941C58.5159 40.4609 58.4691 40.3984 58.4534 40.3516C58.3284 40.3047 58.2269 40.2656 58.1487 40.2344C58.0706 40.2031 58.0003 40.1406 57.9378 40.0469C57.7347 39.9531 57.5706 39.875 57.4456 39.8125L57.2347 39.6953C57.2347 39.5234 57.2347 39.4297 57.2347 39.4141C57.1253 39.2734 57.0394 39.1172 56.9769 38.9453C56.93 38.7734 56.8909 38.6016 56.8597 38.4297C56.8284 38.2891 56.7894 38.1562 56.7425 38.0312C56.7112 37.9062 56.6644 37.7969 56.6019 37.7031C56.5706 36.7969 56.6566 36.0312 56.8597 35.4062C57.0628 34.7812 57.2737 34.1797 57.4925 33.6016C57.6175 33.2891 57.7425 32.9766 57.8675 32.6641C57.9925 32.3359 58.1019 32 58.1956 31.6562L58.4066 31.4219C58.5159 31.1719 58.6019 30.9688 58.6644 30.8125C58.7425 30.6406 58.8206 30.4688 58.8987 30.2969C58.9456 30.1875 58.9847 30.0859 59.0159 29.9922C59.0628 29.8828 59.1019 29.7891 59.1331 29.7109C59.0394 29.7109 58.9534 29.7188 58.8753 29.7344C58.7972 29.7344 58.7191 29.7422 58.6409 29.7578C58.5472 29.7734 58.4612 29.7891 58.3831 29.8047C58.305 29.8047 58.2269 29.8047 58.1487 29.8047C58.0394 29.8047 57.9612 29.7969 57.9144 29.7812C57.7425 29.8594 57.555 29.8984 57.3519 29.8984H57.1175C57.0706 29.8984 57.0237 29.8984 56.9769 29.8984C56.9456 29.8828 56.9144 29.875 56.8831 29.875C56.7269 29.875 56.6019 29.8984 56.5081 29.9453C56.3206 29.9453 56.1409 29.9453 55.9691 29.9453H55.7347C55.7034 29.9453 55.6644 29.9531 55.6175 29.9688C55.5706 29.9688 55.5316 29.9688 55.5003 29.9688C55.3909 29.9688 55.2737 29.9609 55.1487 29.9453C55.0237 29.9141 54.8909 29.8594 54.7503 29.7812C54.5628 29.5312 54.4378 29.3984 54.3753 29.3828L54.1644 29.1016C54.1487 29.0078 54.1253 28.9219 54.0941 28.8438C54.0628 28.75 54.0316 28.6484 54.0003 28.5391C53.9378 28.3828 53.8753 28.2188 53.8128 28.0469C53.7659 27.8594 53.7425 27.6406 53.7425 27.3906C53.7581 27.2656 53.7894 27.1719 53.8362 27.1094C53.8831 27.0469 53.9222 26.9922 53.9534 26.9453L54.0237 26.5938L54.3284 26.6172H54.9847C55.4847 26.6172 55.9925 26.6016 56.5081 26.5703C57.0237 26.5234 57.555 26.4766 58.1019 26.4297C58.4144 26.3984 58.7269 26.3672 59.0394 26.3359C59.3675 26.3047 59.7034 26.2734 60.0472 26.2422C60.1097 26.1016 60.1722 25.9688 60.2347 25.8438L60.4691 25.7266C60.7503 25.7109 60.9456 25.75 61.055 25.8438C61.18 25.9219 61.2816 26 61.3597 26.0781C61.7034 26.0469 62.0472 26.0156 62.3909 25.9844C62.7503 25.9375 63.1097 25.8828 63.4691 25.8203C64.0003 25.7422 64.5316 25.6719 65.0628 25.6094C65.6097 25.5469 66.1331 25.5156 66.6331 25.5156C66.8519 25.5156 67.0628 25.5234 67.2659 25.5391C67.4691 25.5547 67.6566 25.5781 67.8284 25.6094L68.0628 25.7734C68.1097 25.8672 68.1722 25.9531 68.2503 26.0312C68.3441 26.1094 68.4378 26.1875 68.5316 26.2656C68.7191 26.4375 68.9066 26.6406 69.0941 26.875C69.2816 27.1094 69.3519 27.4531 69.305 27.9062C69.18 28.0938 69.0862 28.2031 69.0237 28.2344L68.8128 28.5156L68.5784 28.4922C68.4847 28.4922 68.3987 28.5078 68.3206 28.5391C68.2425 28.5547 68.1644 28.5781 68.0862 28.6094C68.0237 28.6406 67.9612 28.6719 67.8987 28.7031C67.8362 28.7188 67.7659 28.7344 67.6878 28.75C67.5472 28.75 67.43 28.75 67.3362 28.75C67.2581 28.7344 67.1722 28.7266 67.0784 28.7266ZM73.6278 25.7734C73.6122 25.8516 73.5731 25.8984 73.5106 25.9141C73.4637 25.9141 73.4247 25.9531 73.3934 26.0312C73.3309 26.2031 73.2919 26.3125 73.2762 26.3594C73.2606 26.3906 73.245 26.4141 73.2294 26.4297C73.2137 26.4297 73.1903 26.4453 73.1591 26.4766C73.1434 26.5078 73.1044 26.6016 73.0419 26.7578C72.9325 26.9766 72.7919 27.2031 72.62 27.4375C72.4637 27.6562 72.3622 27.875 72.3153 28.0938C72.0966 28.2812 71.8231 28.5234 71.495 28.8203C71.1825 29.1016 70.8856 29.2969 70.6044 29.4062C70.4637 29.3438 70.2372 29.25 69.9247 29.125C69.6278 28.9844 69.3387 28.8281 69.0575 28.6562C68.7919 28.4688 68.5887 28.2812 68.4481 28.0938C68.3075 27.8906 68.3231 27.6953 68.495 27.5078C68.7762 27.2109 69.0184 26.8594 69.2216 26.4531C69.4403 26.0312 69.6278 25.5859 69.7841 25.1172C69.9559 24.6328 70.0966 24.1406 70.2059 23.6406C70.3309 23.125 70.4403 22.6328 70.5341 22.1641C70.5966 22.2266 70.6591 22.25 70.7216 22.2344C70.7997 22.2031 70.8622 22.1641 70.9091 22.1172C70.9716 22.0547 71.0262 21.9844 71.0731 21.9062C71.1356 21.8281 71.1825 21.7656 71.2137 21.7188C71.3075 21.7969 71.4637 21.8906 71.6825 22C71.9169 22.1094 72.1591 22.2188 72.4091 22.3281C72.6591 22.4219 72.8934 22.5078 73.1122 22.5859C73.3309 22.6641 73.4872 22.7109 73.5809 22.7266C73.7684 23.0234 73.87 23.2969 73.8856 23.5469C73.9012 23.7812 73.9403 24.0312 74.0028 24.2969C73.9091 24.375 73.8544 24.5078 73.8387 24.6953C73.8231 24.8672 73.8075 24.9922 73.7919 25.0703C73.7762 25.1953 73.745 25.2734 73.6981 25.3047C73.6669 25.3203 73.6356 25.3828 73.6044 25.4922C73.5887 25.5234 73.5887 25.5703 73.6044 25.6328C73.6356 25.6953 73.6434 25.7422 73.6278 25.7734ZM73.2866 29.4531C73.3959 29.125 73.5678 28.8438 73.8022 28.6094C74.0522 28.375 74.3178 28.1797 74.5991 28.0234C74.8959 27.8516 75.2006 27.7109 75.5131 27.6016C75.8256 27.4922 76.1225 27.3984 76.4037 27.3203C77.0287 27.0547 77.6928 26.8047 78.3959 26.5703C79.1147 26.3203 79.8412 26.1016 80.5756 25.9141C81.3256 25.7266 82.0912 25.6094 82.8725 25.5625C83.6537 25.5 84.4741 25.5938 85.3334 25.8438C85.3803 26 85.4506 26.1484 85.5444 26.2891C85.6381 26.4297 85.7319 26.5703 85.8256 26.7109C85.935 26.8516 86.0287 26.9922 86.1069 27.1328C86.185 27.2578 86.2319 27.3906 86.2475 27.5312C86.4037 27.6719 86.5287 27.8281 86.6225 28C86.7162 28.1562 86.7319 28.3672 86.6694 28.6328C86.5131 28.7578 86.3569 28.875 86.2006 28.9844C86.06 29.0781 85.9037 29.1641 85.7319 29.2422C85.1537 29.1016 84.5678 29.0547 83.9741 29.1016C83.3803 29.1484 82.8491 29.1875 82.3803 29.2188C82.2397 29.0781 82.0678 29.0078 81.8647 29.0078C81.6772 29.0078 81.4741 29.0391 81.2553 29.1016C81.0522 29.1641 80.8412 29.2266 80.6225 29.2891C80.4194 29.3516 80.2241 29.3672 80.0366 29.3359C79.8803 29.4609 79.685 29.5469 79.4506 29.5938C79.2319 29.625 78.9897 29.6562 78.7241 29.6875C78.7084 29.7656 78.7241 29.8203 78.7709 29.8516C78.8178 29.8672 78.8256 29.9141 78.7944 29.9922C78.8881 30.1016 79.0053 30.1797 79.1459 30.2266C79.3022 30.2734 79.4584 30.3203 79.6147 30.3672C79.7866 30.4141 79.935 30.4766 80.06 30.5547C80.185 30.6172 80.2709 30.7266 80.3178 30.8828C80.5522 30.8828 80.7553 30.9375 80.9272 31.0469C81.0991 31.1562 81.2397 31.2891 81.3491 31.4453C81.4584 31.6016 81.5366 31.7734 81.5834 31.9609C81.6459 32.1328 81.6772 32.2891 81.6772 32.4297C81.7241 32.5547 81.7787 32.6094 81.8412 32.5938C81.9037 32.5781 81.9741 32.6094 82.0522 32.6875C82.0991 32.8906 82.2162 33.1016 82.4037 33.3203C82.5912 33.5234 82.7397 33.75 82.8491 34C82.8803 34.3906 82.9037 34.7422 82.9194 35.0547C82.935 35.3516 82.8803 35.6562 82.7553 35.9688C82.5209 36.5469 82.1928 37.0625 81.7709 37.5156C81.3647 37.9688 80.8959 38.375 80.3647 38.7344C79.8491 39.0781 79.2944 39.375 78.7006 39.625C78.1069 39.875 77.5287 40.0859 76.9662 40.2578C76.9037 40.2422 76.8412 40.2422 76.7787 40.2578C76.7162 40.2734 76.7006 40.2344 76.7319 40.1406C76.6069 40.25 76.4662 40.3203 76.31 40.3516C76.1694 40.3828 76.0131 40.3906 75.8412 40.375C75.6694 40.375 75.4897 40.3672 75.3022 40.3516C75.1303 40.3359 74.9662 40.3438 74.81 40.375C74.7006 40.2656 74.5991 40.1562 74.5053 40.0469C74.4272 39.9531 74.3647 39.8281 74.3178 39.6719C74.2397 39.6719 74.2006 39.6328 74.2006 39.5547C74.2162 39.4766 74.1928 39.4375 74.1303 39.4375C74.2241 39.2812 74.2631 39.1953 74.2475 39.1797C74.2475 39.1484 74.2241 39.125 74.1772 39.1094C74.1459 39.0938 74.1147 39.0781 74.0834 39.0625C74.0522 39.0312 74.0444 38.9922 74.06 38.9453C74.1225 38.8203 74.1459 38.6797 74.1303 38.5234C74.1147 38.3516 74.0991 38.1797 74.0834 38.0078C74.0678 37.8359 74.0756 37.6719 74.1069 37.5156C74.1537 37.3594 74.2709 37.2344 74.4584 37.1406C74.9897 37.2031 75.4897 37.1875 75.9584 37.0938C76.4428 36.9844 76.8959 36.8359 77.3178 36.6484C77.7397 36.4609 78.1381 36.2578 78.5131 36.0391C78.9037 35.8203 79.2866 35.625 79.6616 35.4531C79.7084 35.3125 79.7709 35.1953 79.8491 35.1016C79.9428 35.0078 80.0366 34.9219 80.1303 34.8438C80.2241 34.7656 80.31 34.6797 80.3881 34.5859C80.4662 34.4922 80.5209 34.375 80.5522 34.2344C80.5678 34.125 80.5366 34.0625 80.4584 34.0469C80.3959 34.0156 80.3647 33.9531 80.3647 33.8594L80.1069 33.7891C79.81 33.6172 79.4741 33.4766 79.0991 33.3672C78.7241 33.2422 78.4037 33.1094 78.1381 32.9688C77.9662 33.0625 77.8022 33.0859 77.6459 33.0391C77.5053 32.9922 77.3178 32.9453 77.0834 32.8984C76.5522 32.8672 76.0366 32.8125 75.5366 32.7344C75.0522 32.6562 74.5834 32.5156 74.1303 32.3125C74.0991 32.2344 74.06 32.1641 74.0131 32.1016C73.9662 32.0391 73.8803 32.0234 73.7553 32.0547C73.6616 31.9297 73.5678 31.8125 73.4741 31.7031C73.3803 31.5781 73.2944 31.4453 73.2162 31.3047C73.2475 31.1172 73.2709 30.9609 73.2866 30.8359C73.3022 30.6953 73.2553 30.5625 73.1459 30.4375C73.2084 30.2344 73.2553 30.0703 73.2866 29.9453C73.3178 29.8203 73.3178 29.6562 73.2866 29.4531ZM109.143 28.7266C108.753 28.7266 108.331 28.7578 107.878 28.8203C107.424 28.8672 106.979 28.9219 106.542 28.9844C106.229 29.0312 105.924 29.0703 105.628 29.1016C105.346 29.1328 105.088 29.1562 104.854 29.1719C104.745 29.5156 104.635 29.8203 104.526 30.0859C104.417 30.3516 104.299 30.6094 104.174 30.8594C104.049 31.125 103.932 31.3984 103.823 31.6797C103.729 31.9453 103.635 32.2344 103.542 32.5469C103.385 32.7969 103.253 33.0312 103.143 33.25C103.049 33.4531 102.971 33.6875 102.909 33.9531C102.721 34.1875 102.581 34.4375 102.487 34.7031C102.393 34.9531 102.323 35.1719 102.276 35.3594L102.182 35.6406C102.088 35.7344 102.034 35.8125 102.018 35.875C102.003 35.9219 101.963 35.9688 101.901 36.0156C101.885 36.1875 101.831 36.3594 101.737 36.5312C101.706 36.6094 101.682 36.6875 101.667 36.7656C101.651 36.8281 101.643 36.875 101.643 36.9062C101.643 37.0625 101.604 37.1641 101.526 37.2109C101.542 37.2891 101.542 37.375 101.526 37.4688C101.51 37.5469 101.495 37.625 101.479 37.7031C101.432 37.8906 101.417 38.0391 101.432 38.1484C101.479 38.2109 101.518 38.2656 101.549 38.3125C101.596 38.3594 101.628 38.4219 101.643 38.5C101.737 38.5625 101.807 38.6016 101.854 38.6172C101.917 38.6641 102.01 38.7188 102.135 38.7812L102.346 39.0156C102.424 39.4688 102.354 39.8281 102.135 40.0938C101.901 40.3906 101.503 40.5391 100.94 40.5391H100.659C100.581 40.4609 100.534 40.3984 100.518 40.3516C100.393 40.3047 100.292 40.2656 100.213 40.2344C100.135 40.2031 100.065 40.1406 100.003 40.0469C99.7994 39.9531 99.6353 39.875 99.5103 39.8125L99.2994 39.6953C99.2994 39.5234 99.2994 39.4297 99.2994 39.4141C99.19 39.2734 99.1041 39.1172 99.0416 38.9453C98.9947 38.7734 98.9556 38.6016 98.9244 38.4297C98.8931 38.2891 98.8541 38.1562 98.8072 38.0312C98.7759 37.9062 98.7291 37.7969 98.6666 37.7031C98.6353 36.7969 98.7213 36.0312 98.9244 35.4062C99.1275 34.7812 99.3384 34.1797 99.5572 33.6016C99.6822 33.2891 99.8072 32.9766 99.9322 32.6641C100.057 32.3359 100.167 32 100.26 31.6562L100.471 31.4219C100.581 31.1719 100.667 30.9688 100.729 30.8125C100.807 30.6406 100.885 30.4688 100.963 30.2969C101.01 30.1875 101.049 30.0859 101.081 29.9922C101.128 29.8828 101.167 29.7891 101.198 29.7109C101.104 29.7109 101.018 29.7188 100.94 29.7344C100.862 29.7344 100.784 29.7422 100.706 29.7578C100.612 29.7734 100.526 29.7891 100.448 29.8047C100.37 29.8047 100.292 29.8047 100.213 29.8047C100.104 29.8047 100.026 29.7969 99.9791 29.7812C99.8072 29.8594 99.6197 29.8984 99.4166 29.8984H99.1822C99.1353 29.8984 99.0884 29.8984 99.0416 29.8984C99.0103 29.8828 98.9791 29.875 98.9478 29.875C98.7916 29.875 98.6666 29.8984 98.5728 29.9453C98.3853 29.9453 98.2056 29.9453 98.0338 29.9453H97.7994C97.7681 29.9453 97.7291 29.9531 97.6822 29.9688C97.6353 29.9688 97.5963 29.9688 97.565 29.9688C97.4556 29.9688 97.3384 29.9609 97.2134 29.9453C97.0884 29.9141 96.9556 29.8594 96.815 29.7812C96.6275 29.5312 96.5025 29.3984 96.44 29.3828L96.2291 29.1016C96.2134 29.0078 96.19 28.9219 96.1588 28.8438C96.1275 28.75 96.0963 28.6484 96.065 28.5391C96.0025 28.3828 95.94 28.2188 95.8775 28.0469C95.8306 27.8594 95.8072 27.6406 95.8072 27.3906C95.8228 27.2656 95.8541 27.1719 95.9009 27.1094C95.9478 27.0469 95.9869 26.9922 96.0181 26.9453L96.0884 26.5938L96.3931 26.6172H97.0494C97.5494 26.6172 98.0572 26.6016 98.5728 26.5703C99.0884 26.5234 99.6197 26.4766 100.167 26.4297C100.479 26.3984 100.792 26.3672 101.104 26.3359C101.432 26.3047 101.768 26.2734 102.112 26.2422C102.174 26.1016 102.237 25.9688 102.299 25.8438L102.534 25.7266C102.815 25.7109 103.01 25.75 103.12 25.8438C103.245 25.9219 103.346 26 103.424 26.0781C103.768 26.0469 104.112 26.0156 104.456 25.9844C104.815 25.9375 105.174 25.8828 105.534 25.8203C106.065 25.7422 106.596 25.6719 107.128 25.6094C107.674 25.5469 108.198 25.5156 108.698 25.5156C108.917 25.5156 109.128 25.5234 109.331 25.5391C109.534 25.5547 109.721 25.5781 109.893 25.6094L110.128 25.7734C110.174 25.8672 110.237 25.9531 110.315 26.0312C110.409 26.1094 110.503 26.1875 110.596 26.2656C110.784 26.4375 110.971 26.6406 111.159 26.875C111.346 27.1094 111.417 27.4531 111.37 27.9062C111.245 28.0938 111.151 28.2031 111.088 28.2344L110.878 28.5156L110.643 28.4922C110.549 28.4922 110.463 28.5078 110.385 28.5391C110.307 28.5547 110.229 28.5781 110.151 28.6094C110.088 28.6406 110.026 28.6719 109.963 28.7031C109.901 28.7188 109.831 28.7344 109.753 28.75C109.612 28.75 109.495 28.75 109.401 28.75C109.323 28.7344 109.237 28.7266 109.143 28.7266ZM113.724 38.3594C113.802 38.8281 113.771 39.1953 113.63 39.4609C113.505 39.7266 113.317 39.9219 113.067 40.0469C112.833 40.1875 112.56 40.2656 112.247 40.2812C111.935 40.2969 111.638 40.2812 111.357 40.2344C111.2 40.0156 111.06 39.7422 110.935 39.4141C110.81 39.0859 110.692 38.75 110.583 38.4062C110.474 38.0469 110.372 37.6953 110.278 37.3516C110.2 37.0078 110.13 36.7031 110.067 36.4375C110.146 36.25 110.192 36.0391 110.208 35.8047C110.239 35.5547 110.255 35.3047 110.255 35.0547C110.271 34.8047 110.278 34.5547 110.278 34.3047C110.294 34.0391 110.317 33.7891 110.349 33.5547C110.458 32.8984 110.614 32.2734 110.817 31.6797C111.036 31.0859 111.208 30.4688 111.333 29.8281C111.364 29.6875 111.349 29.5547 111.286 29.4297C111.239 29.3047 111.232 29.1875 111.263 29.0781C111.278 29.0156 111.325 28.9766 111.403 28.9609C111.482 28.9297 111.528 28.875 111.544 28.7969C111.591 28.625 111.599 28.4844 111.567 28.375C111.552 28.2656 111.583 28.1328 111.661 27.9766C111.739 27.8516 111.833 27.6719 111.942 27.4375C112.067 27.1875 112.114 26.9297 112.083 26.6641C112.224 26.5703 112.357 26.4609 112.482 26.3359C112.607 26.2109 112.732 26.1016 112.857 26.0078C112.997 25.8984 113.146 25.8047 113.302 25.7266C113.474 25.6484 113.677 25.6094 113.911 25.6094C114.036 25.7656 114.114 25.9375 114.146 26.125C114.192 26.3125 114.232 26.5 114.263 26.6875C114.31 26.875 114.372 27.0547 114.45 27.2266C114.528 27.3828 114.661 27.5078 114.849 27.6016C114.849 27.7266 114.849 27.8828 114.849 28.0703C114.849 28.2578 114.857 28.4453 114.872 28.6328C114.888 28.8047 114.919 28.9688 114.966 29.125C115.028 29.2656 115.122 29.3594 115.247 29.4062C114.966 30.1562 114.7 30.8984 114.45 31.6328C114.216 32.3672 114.021 33.1094 113.864 33.8594C113.708 34.5938 113.607 35.3359 113.56 36.0859C113.528 36.8359 113.583 37.5938 113.724 38.3594ZM134.101 39.5781C133.945 39.6562 133.797 39.7266 133.656 39.7891C133.531 39.8516 133.382 39.8828 133.211 39.8828C132.601 39.4297 132.281 38.6406 132.25 37.5156C132.234 36.3906 132.476 34.9609 132.976 33.2266C133.054 33.1797 133.093 33.0859 133.093 32.9453L132.882 32.7109C132.82 32.7109 132.757 32.7188 132.695 32.7344C132.648 32.75 132.609 32.8047 132.578 32.8984C132.172 33.1953 131.726 33.5078 131.242 33.8359C130.757 34.1484 130.25 34.4453 129.718 34.7266C129.203 34.9922 128.672 35.2109 128.125 35.3828C127.593 35.5547 127.07 35.6406 126.554 35.6406C125.242 35.6406 124.257 34.9766 123.601 33.6484L123.414 33.2969L123.226 33.6016C123.179 33.6641 123.109 33.7969 123.015 34C122.922 34.1875 122.828 34.4062 122.734 34.6562C122.64 34.9062 122.554 35.1641 122.476 35.4297C122.414 35.6797 122.39 35.8984 122.406 36.0859C122.265 36.2266 122.117 36.3906 121.961 36.5781C121.804 36.7656 121.687 36.9766 121.609 37.2109C121.578 37.3359 121.593 37.4531 121.656 37.5625C121.625 37.7031 121.554 37.8125 121.445 37.8906C121.382 37.9688 121.312 38.0469 121.234 38.125C121.172 38.1875 121.117 38.2578 121.07 38.3359C121.039 38.4141 121.015 38.4922 121 38.5703C121 38.6484 120.992 38.7266 120.976 38.8047C120.976 38.9141 120.961 39.0156 120.929 39.1094C120.664 39.6562 120.453 40.0078 120.297 40.1641C120.14 40.3359 119.929 40.4219 119.664 40.4219C119.539 40.4219 119.336 40.3984 119.054 40.3516C118.851 40.1328 118.664 39.8359 118.492 39.4609C118.336 39.0703 118.211 38.6562 118.117 38.2188C118.039 37.7812 118 37.3438 118 36.9062C118.015 36.4531 118.093 36.0625 118.234 35.7344C118.234 35.7188 118.297 35.5625 118.422 35.2656C118.547 34.9688 118.703 34.5859 118.89 34.1172C119.093 33.6484 119.32 33.1328 119.57 32.5703C119.82 31.9922 120.07 31.4375 120.32 30.9062C120.57 30.3594 120.804 29.8594 121.023 29.4062C121.257 28.9531 121.453 28.6094 121.609 28.375C121.734 28.1875 121.843 28.0156 121.937 27.8594C122.047 27.6875 122.148 27.5234 122.242 27.3672C122.523 26.8828 122.789 26.4844 123.039 26.1719C123.304 25.8437 123.687 25.5859 124.187 25.3984C124.531 25.5391 124.781 25.7031 124.937 25.8906L124.984 26.1484C125.047 26.3047 125.14 26.3828 125.265 26.3828C125.437 26.4297 125.578 26.4766 125.687 26.5234C125.812 26.5547 125.945 26.5859 126.086 26.6172C126.195 26.7422 126.297 26.8906 126.39 27.0625C126.515 27.25 126.632 27.4375 126.742 27.625C126.867 27.7969 126.961 27.9766 127.023 28.1641C127.101 28.3359 127.14 28.5156 127.14 28.7031C127.156 28.8906 127.125 29.0859 127.047 29.2891L127.07 29.5234C127.148 29.6641 127.164 29.8594 127.117 30.1094C127.101 30.2187 127.093 30.3359 127.093 30.4609C127.093 30.5703 127.109 30.6953 127.14 30.8359C127.422 31.0547 127.672 31.1641 127.89 31.1641C128.14 31.1641 128.367 31.1094 128.57 31C128.789 30.875 128.992 30.75 129.179 30.625C129.304 30.5312 129.429 30.4531 129.554 30.3906C129.679 30.3125 129.804 30.2656 129.929 30.25C130.211 29.9844 130.461 29.75 130.679 29.5469C130.914 29.3437 131.156 29.1406 131.406 28.9375C131.875 28.5625 132.328 28.1562 132.765 27.7187C133.203 27.2812 133.554 26.7344 133.82 26.0781C133.976 25.9844 134.14 25.9375 134.312 25.9375C134.484 25.9375 134.664 25.9766 134.851 26.0547C135.039 26.1328 135.218 26.2109 135.39 26.2891C135.437 26.3203 135.476 26.3437 135.507 26.3594C135.554 26.375 135.593 26.3906 135.625 26.4062C135.625 26.5625 135.687 26.6953 135.812 26.8047C135.875 26.8516 135.914 26.8828 135.929 26.8984C135.945 26.9141 135.968 26.9297 136 26.9453C136.234 27.0703 136.382 27.1953 136.445 27.3203C136.554 27.6797 136.75 27.9531 137.031 28.1406C137 28.2969 137 28.4453 137.031 28.5859C137.078 28.7109 137.132 28.8437 137.195 28.9844C137.211 29.0312 137.226 29.0781 137.242 29.125C137.257 29.1719 137.281 29.2266 137.312 29.2891L136.867 29.2422L136.937 29.6875C136.968 29.9062 136.945 30.1484 136.867 30.4141C136.804 30.6797 136.726 30.8906 136.632 31.0469C136.648 31.4531 136.656 31.7734 136.656 32.0078C136.672 32.2266 136.664 32.4375 136.632 32.6406C136.601 32.8281 136.554 33.0078 136.492 33.1797C136.445 33.3516 136.375 33.5391 136.281 33.7422C136.343 34.7422 136.226 35.6562 135.929 36.4844C135.648 37.2969 135.351 38.0625 135.039 38.7812C135.007 38.8594 134.968 38.9375 134.922 39.0156C134.89 39.0938 134.859 39.1719 134.828 39.25C134.687 39.2969 134.562 39.3516 134.453 39.4141C134.343 39.4609 134.226 39.5156 134.101 39.5781ZM151.948 26.8047C151.963 26.9141 151.963 27 151.948 27.0625C151.948 27.1094 151.94 27.1562 151.924 27.2031C151.924 27.25 151.924 27.3047 151.924 27.3672C151.924 27.4141 151.94 27.4922 151.971 27.6016C151.643 28.1328 151.26 28.5 150.823 28.7031C150.401 28.8906 149.94 29.0312 149.44 29.125C148.94 29.2031 148.424 29.2891 147.893 29.3828C147.377 29.4766 146.862 29.6797 146.346 29.9922C146.143 29.9141 145.955 29.9141 145.783 29.9922C145.627 30.0703 145.393 30.0937 145.08 30.0625C144.987 30.1562 144.869 30.2266 144.729 30.2734C144.588 30.3047 144.448 30.3437 144.307 30.3906C144.369 30.5312 144.393 30.6797 144.377 30.8359C144.377 30.9766 144.401 31.0937 144.448 31.1875C144.994 31.2344 145.596 31.2266 146.252 31.1641C146.924 31.1016 147.58 31.0625 148.221 31.0469C148.237 31.125 148.229 31.1797 148.198 31.2109C148.166 31.2266 148.158 31.2656 148.174 31.3281C148.283 31.4062 148.393 31.5078 148.502 31.6328C148.612 31.7422 148.721 31.8516 148.83 31.9609C148.94 32.0703 149.049 32.1641 149.158 32.2422C149.283 32.3047 149.424 32.3281 149.58 32.3125C149.643 32.4375 149.682 32.5781 149.698 32.7344C149.729 32.875 149.713 33.0234 149.651 33.1797C149.401 33.3516 149.151 33.5312 148.901 33.7188C148.651 33.8906 148.385 34.0469 148.104 34.1875C147.838 34.3281 147.549 34.4453 147.237 34.5391C146.94 34.6172 146.604 34.6484 146.229 34.6328C146.151 34.6328 146.088 34.6328 146.041 34.6328C146.01 34.6328 145.963 34.6094 145.901 34.5625C145.776 34.6406 145.596 34.6641 145.362 34.6328C145.143 34.6016 144.971 34.625 144.846 34.7031C144.674 34.625 144.463 34.5938 144.213 34.6094C143.979 34.6094 143.768 34.5781 143.58 34.5156C143.33 34.8438 143.104 35.1953 142.901 35.5703C142.698 35.9453 142.518 36.3438 142.362 36.7656C142.893 36.8438 143.33 36.875 143.674 36.8594C144.033 36.8438 144.369 36.8203 144.682 36.7891C144.994 36.7422 145.315 36.7031 145.643 36.6719C145.971 36.625 146.385 36.6094 146.885 36.625C147.198 36.4531 147.565 36.3438 147.987 36.2969C148.424 36.2344 148.823 36.1406 149.182 36.0156C149.307 36.0625 149.416 36.1484 149.51 36.2734C149.604 36.3828 149.69 36.4922 149.768 36.6016C149.862 36.6953 149.955 36.7812 150.049 36.8594C150.143 36.9375 150.26 36.9688 150.401 36.9531C150.463 37.0156 150.502 37.0938 150.518 37.1875C150.549 37.2656 150.573 37.3438 150.588 37.4219C150.604 37.5 150.627 37.5703 150.658 37.6328C150.705 37.6797 150.776 37.6953 150.869 37.6797C150.635 38.1953 150.362 38.5938 150.049 38.875C149.752 39.1406 149.408 39.3438 149.018 39.4844C148.627 39.625 148.19 39.7344 147.705 39.8125C147.237 39.8906 146.713 39.9844 146.135 40.0938C145.994 40.125 145.877 40.1172 145.783 40.0703C145.69 40.0391 145.58 40.0234 145.455 40.0234C145.096 40.1016 144.666 40.1719 144.166 40.2344C143.666 40.2969 143.158 40.3203 142.643 40.3047C142.127 40.2891 141.635 40.2188 141.166 40.0938C140.698 39.9844 140.315 39.7812 140.018 39.4844C139.893 39.375 139.807 39.25 139.76 39.1094C139.729 38.9531 139.627 38.8359 139.455 38.7578C139.44 38.5547 139.408 38.3281 139.362 38.0781C139.315 37.8281 139.268 37.5703 139.221 37.3047C139.174 37.0234 139.135 36.75 139.104 36.4844C139.088 36.2188 139.104 35.9766 139.151 35.7578C139.198 35.5234 139.291 35.3125 139.432 35.125C139.588 34.9375 139.643 34.7344 139.596 34.5156C139.674 34.5 139.721 34.4609 139.737 34.3984C139.752 34.3203 139.815 34.2891 139.924 34.3047C140.018 34.0234 140.119 33.7578 140.229 33.5078C140.338 33.2578 140.448 33.0156 140.557 32.7812C140.682 32.5469 140.799 32.3125 140.908 32.0781C141.033 31.8281 141.151 31.5547 141.26 31.2578C141.041 31.0547 140.877 30.8359 140.768 30.6016C140.674 30.3516 140.604 30.1094 140.557 29.875C140.51 29.625 140.471 29.375 140.44 29.125C140.408 28.8594 140.354 28.5937 140.276 28.3281C140.432 28.0937 140.619 27.9062 140.838 27.7656C141.073 27.6094 141.323 27.4844 141.588 27.3906C141.854 27.2969 142.143 27.2187 142.455 27.1562C142.768 27.0937 143.096 27.0234 143.44 26.9453C144.065 26.7422 144.619 26.5859 145.104 26.4766C145.604 26.3672 146.088 26.2812 146.557 26.2187C147.041 26.1406 147.541 26.0703 148.057 26.0078C148.573 25.9453 149.158 25.8516 149.815 25.7266C149.955 25.8672 150.088 25.9375 150.213 25.9375C150.276 25.7969 150.346 25.7578 150.424 25.8203C150.518 25.8672 150.557 25.8203 150.541 25.6797C150.698 25.9453 150.893 26.1719 151.127 26.3594C151.377 26.5312 151.651 26.6797 151.948 26.8047Z" fill="#D86B8C"/>
<defs>
<filter id="filter0_d" x="44" y="134" width="152" height="65" filterUnits="userSpaceOnUse" color-interpolation-filters="sRGB">
<feFlood flood-opacity="0" result="BackgroundImageFix"/>
<feColorMatrix in="SourceAlpha" type="matrix" values="0 0 0 0 0 0 0 0 0 0 0 0 0 0 0 0 0 0 127 0"/>
<feOffset/>
<feGaussianBlur stdDeviation="3.5"/>
<feColorMatrix type="matrix" values="0 0 0 0 0 0 0 0 0 0 0 0 0 0 0 0 0 0 0.25 0"/>
<feBlend mode="normal" in2="BackgroundImageFix" result="effect1_dropShadow"/>
<feBlend mode="normal" in="SourceGraphic" in2="effect1_dropShadow" result="shape"/>
</filter>
<filter id="filter1_d" x="0" y="68" width="134" height="65" filterUnits="userSpaceOnUse" color-interpolation-filters="sRGB">
<feFlood flood-opacity="0" result="BackgroundImageFix"/>
<feColorMatrix in="SourceAlpha" type="matrix" values="0 0 0 0 0 0 0 0 0 0 0 0 0 0 0 0 0 0 127 0"/>
<feOffset/>
<feGaussianBlur stdDeviation="3.5"/>
<feColorMatrix type="matrix" values="0 0 0 0 0 0 0 0 0 0 0 0 0 0 0 0 0 0 0.25 0"/>
<feBlend mode="normal" in2="BackgroundImageFix" result="effect1_dropShadow"/>
<feBlend mode="normal" in="SourceGraphic" in2="effect1_dropShadow" result="shape"/>
</filter>
<filter id="filter2_d" x="15" y="0" width="176" height="65" filterUnits="userSpaceOnUse" color-interpolation-filters="sRGB">
<feFlood flood-opacity="0" result="BackgroundImageFix"/>
<feColorMatrix in="SourceAlpha" type="matrix" values="0 0 0 0 0 0 0 0 0 0 0 0 0 0 0 0 0 0 127 0"/>
<feOffset/>
<feGaussianBlur stdDeviation="3.5"/>
<feColorMatrix type="matrix" values="0 0 0 0 0 0 0 0 0 0 0 0 0 0 0 0 0 0 0.25 0"/>
<feBlend mode="normal" in2="BackgroundImageFix" result="effect1_dropShadow"/>
<feBlend mode="normal" in="SourceGraphic" in2="effect1_dropShadow" result="shape"/>
</filter>
</defs>
</svg>
