<svg width="202" height="135" viewBox="0 0 202 135" fill="none" xmlns="http://www.w3.org/2000/svg">
<g filter="url(#filter0_d)">
<rect x="23" y="33" width="141" height="73" fill="#FFF5D0"/>
</g>
<path d="M56.3988 55.4531C56.5081 55.125 56.68 54.8438 56.9144 54.6094C57.1644 54.375 57.43 54.1797 57.7113 54.0234C58.0081 53.8516 58.3128 53.7109 58.6253 53.6016C58.9378 53.4922 59.2347 53.3984 59.5159 53.3203C60.1409 53.0547 60.805 52.8047 61.5081 52.5703C62.2269 52.3203 62.9534 52.1016 63.6878 51.9141C64.4378 51.7266 65.2034 51.6094 65.9847 51.5625C66.7659 51.5 67.5863 51.5938 68.4456 51.8438C68.4925 52 68.5628 52.1484 68.6566 52.2891C68.7503 52.4297 68.8441 52.5703 68.9378 52.7109C69.0472 52.8516 69.1409 52.9922 69.2191 53.1328C69.2972 53.2578 69.3441 53.3906 69.3597 53.5312C69.5159 53.6719 69.6409 53.8281 69.7347 54C69.8284 54.1562 69.8441 54.3672 69.7816 54.6328C69.6253 54.7578 69.4691 54.875 69.3128 54.9844C69.1722 55.0781 69.0159 55.1641 68.8441 55.2422C68.2659 55.1016 67.68 55.0547 67.0863 55.1016C66.4925 55.1484 65.9613 55.1875 65.4925 55.2188C65.3519 55.0781 65.18 55.0078 64.9769 55.0078C64.7894 55.0078 64.5863 55.0391 64.3675 55.1016C64.1644 55.1641 63.9534 55.2266 63.7347 55.2891C63.5316 55.3516 63.3363 55.3672 63.1488 55.3359C62.9925 55.4609 62.7972 55.5469 62.5628 55.5938C62.3441 55.625 62.1019 55.6562 61.8363 55.6875C61.8206 55.7656 61.8363 55.8203 61.8831 55.8516C61.93 55.8672 61.9378 55.9141 61.9066 55.9922C62.0003 56.1016 62.1175 56.1797 62.2581 56.2266C62.4144 56.2734 62.5706 56.3203 62.7269 56.3672C62.8988 56.4141 63.0472 56.4766 63.1722 56.5547C63.2972 56.6172 63.3831 56.7266 63.43 56.8828C63.6644 56.8828 63.8675 56.9375 64.0394 57.0469C64.2113 57.1562 64.3519 57.2891 64.4613 57.4453C64.5706 57.6016 64.6488 57.7734 64.6956 57.9609C64.7581 58.1328 64.7894 58.2891 64.7894 58.4297C64.8363 58.5547 64.8909 58.6094 64.9534 58.5938C65.0159 58.5781 65.0863 58.6094 65.1644 58.6875C65.2113 58.8906 65.3284 59.1016 65.5159 59.3203C65.7034 59.5234 65.8519 59.75 65.9613 60C65.9925 60.3906 66.0159 60.7422 66.0316 61.0547C66.0472 61.3516 65.9925 61.6562 65.8675 61.9688C65.6331 62.5469 65.305 63.0625 64.8831 63.5156C64.4769 63.9688 64.0081 64.375 63.4769 64.7344C62.9613 65.0781 62.4066 65.375 61.8128 65.625C61.2191 65.875 60.6409 66.0859 60.0784 66.2578C60.0159 66.2422 59.9534 66.2422 59.8909 66.2578C59.8284 66.2734 59.8128 66.2344 59.8441 66.1406C59.7191 66.25 59.5784 66.3203 59.4222 66.3516C59.2816 66.3828 59.1253 66.3906 58.9534 66.375C58.7816 66.375 58.6019 66.3672 58.4144 66.3516C58.2425 66.3359 58.0784 66.3438 57.9222 66.375C57.8128 66.2656 57.7113 66.1562 57.6175 66.0469C57.5394 65.9531 57.4769 65.8281 57.43 65.6719C57.3519 65.6719 57.3128 65.6328 57.3128 65.5547C57.3284 65.4766 57.305 65.4375 57.2425 65.4375C57.3363 65.2812 57.3753 65.1953 57.3597 65.1797C57.3597 65.1484 57.3363 65.125 57.2894 65.1094C57.2581 65.0938 57.2269 65.0781 57.1956 65.0625C57.1644 65.0312 57.1566 64.9922 57.1722 64.9453C57.2347 64.8203 57.2581 64.6797 57.2425 64.5234C57.2269 64.3516 57.2113 64.1797 57.1956 64.0078C57.18 63.8359 57.1878 63.6719 57.2191 63.5156C57.2659 63.3594 57.3831 63.2344 57.5706 63.1406C58.1019 63.2031 58.6019 63.1875 59.0706 63.0938C59.555 62.9844 60.0081 62.8359 60.43 62.6484C60.8519 62.4609 61.2503 62.2578 61.6253 62.0391C62.0159 61.8203 62.3988 61.625 62.7738 61.4531C62.8206 61.3125 62.8831 61.1953 62.9613 61.1016C63.055 61.0078 63.1488 60.9219 63.2425 60.8438C63.3363 60.7656 63.4222 60.6797 63.5003 60.5859C63.5784 60.4922 63.6331 60.375 63.6644 60.2344C63.68 60.125 63.6488 60.0625 63.5706 60.0469C63.5081 60.0156 63.4769 59.9531 63.4769 59.8594L63.2191 59.7891C62.9222 59.6172 62.5863 59.4766 62.2113 59.3672C61.8363 59.2422 61.5159 59.1094 61.2503 58.9688C61.0784 59.0625 60.9144 59.0859 60.7581 59.0391C60.6175 58.9922 60.43 58.9453 60.1956 58.8984C59.6644 58.8672 59.1488 58.8125 58.6488 58.7344C58.1644 58.6562 57.6956 58.5156 57.2425 58.3125C57.2113 58.2344 57.1722 58.1641 57.1253 58.1016C57.0784 58.0391 56.9925 58.0234 56.8675 58.0547C56.7738 57.9297 56.68 57.8125 56.5863 57.7031C56.4925 57.5781 56.4066 57.4453 56.3284 57.3047C56.3597 57.1172 56.3831 56.9609 56.3988 56.8359C56.4144 56.6953 56.3675 56.5625 56.2581 56.4375C56.3206 56.2344 56.3675 56.0703 56.3988 55.9453C56.43 55.8203 56.43 55.6562 56.3988 55.4531ZM81.6747 52.8047C81.6903 52.9141 81.6903 53 81.6747 53.0625C81.6747 53.1094 81.6669 53.1562 81.6513 53.2031C81.6513 53.25 81.6513 53.3047 81.6513 53.3672C81.6513 53.4141 81.6669 53.4922 81.6981 53.6016C81.37 54.1328 80.9872 54.5 80.5497 54.7031C80.1278 54.8906 79.6669 55.0312 79.1669 55.125C78.6669 55.2031 78.1513 55.2891 77.62 55.3828C77.1044 55.4766 76.5888 55.6797 76.0731 55.9922C75.87 55.9141 75.6825 55.9141 75.5106 55.9922C75.3544 56.0703 75.12 56.0938 74.8075 56.0625C74.7138 56.1562 74.5966 56.2266 74.4559 56.2734C74.3153 56.3047 74.1747 56.3438 74.0341 56.3906C74.0966 56.5312 74.12 56.6797 74.1044 56.8359C74.1044 56.9766 74.1278 57.0938 74.1747 57.1875C74.7216 57.2344 75.3231 57.2266 75.9794 57.1641C76.6513 57.1016 77.3075 57.0625 77.9481 57.0469C77.9638 57.125 77.9559 57.1797 77.9247 57.2109C77.8934 57.2266 77.8856 57.2656 77.9013 57.3281C78.0106 57.4062 78.12 57.5078 78.2294 57.6328C78.3388 57.7422 78.4481 57.8516 78.5575 57.9609C78.6669 58.0703 78.7763 58.1641 78.8856 58.2422C79.0106 58.3047 79.1513 58.3281 79.3075 58.3125C79.37 58.4375 79.4091 58.5781 79.4247 58.7344C79.4559 58.875 79.4403 59.0234 79.3778 59.1797C79.1278 59.3516 78.8778 59.5312 78.6278 59.7188C78.3778 59.8906 78.1122 60.0469 77.8309 60.1875C77.5653 60.3281 77.2763 60.4453 76.9638 60.5391C76.6669 60.6172 76.3309 60.6484 75.9559 60.6328C75.8778 60.6328 75.8153 60.6328 75.7684 60.6328C75.7372 60.6328 75.6903 60.6094 75.6278 60.5625C75.5028 60.6406 75.3231 60.6641 75.0888 60.6328C74.87 60.6016 74.6981 60.625 74.5731 60.7031C74.4013 60.625 74.1903 60.5938 73.9403 60.6094C73.7059 60.6094 73.495 60.5781 73.3075 60.5156C73.0575 60.8438 72.8309 61.1953 72.6278 61.5703C72.4247 61.9453 72.245 62.3438 72.0888 62.7656C72.62 62.8438 73.0575 62.875 73.4013 62.8594C73.7606 62.8438 74.0966 62.8203 74.4091 62.7891C74.7216 62.7422 75.0419 62.7031 75.37 62.6719C75.6981 62.625 76.1122 62.6094 76.6122 62.625C76.9247 62.4531 77.2919 62.3438 77.7138 62.2969C78.1513 62.2344 78.5497 62.1406 78.9091 62.0156C79.0341 62.0625 79.1434 62.1484 79.2372 62.2734C79.3309 62.3828 79.4169 62.4922 79.495 62.6016C79.5888 62.6953 79.6825 62.7812 79.7763 62.8594C79.87 62.9375 79.9872 62.9688 80.1278 62.9531C80.1903 63.0156 80.2294 63.0938 80.245 63.1875C80.2763 63.2656 80.2997 63.3438 80.3153 63.4219C80.3309 63.5 80.3544 63.5703 80.3856 63.6328C80.4325 63.6797 80.5028 63.6953 80.5966 63.6797C80.3622 64.1953 80.0888 64.5938 79.7763 64.875C79.4794 65.1406 79.1356 65.3438 78.745 65.4844C78.3544 65.625 77.9169 65.7344 77.4325 65.8125C76.9638 65.8906 76.4403 65.9844 75.8622 66.0938C75.7216 66.125 75.6044 66.1172 75.5106 66.0703C75.4169 66.0391 75.3075 66.0234 75.1825 66.0234C74.8231 66.1016 74.3934 66.1719 73.8934 66.2344C73.3934 66.2969 72.8856 66.3203 72.37 66.3047C71.8544 66.2891 71.3622 66.2188 70.8934 66.0938C70.4247 65.9844 70.0419 65.7812 69.745 65.4844C69.62 65.375 69.5341 65.25 69.4872 65.1094C69.4559 64.9531 69.3544 64.8359 69.1825 64.7578C69.1669 64.5547 69.1356 64.3281 69.0888 64.0781C69.0419 63.8281 68.995 63.5703 68.9481 63.3047C68.9013 63.0234 68.8622 62.75 68.8309 62.4844C68.8153 62.2188 68.8309 61.9766 68.8778 61.7578C68.9247 61.5234 69.0184 61.3125 69.1591 61.125C69.3153 60.9375 69.37 60.7344 69.3231 60.5156C69.4013 60.5 69.4481 60.4609 69.4638 60.3984C69.4794 60.3203 69.5419 60.2891 69.6513 60.3047C69.745 60.0234 69.8466 59.7578 69.9559 59.5078C70.0653 59.2578 70.1747 59.0156 70.2841 58.7812C70.4091 58.5469 70.5263 58.3125 70.6356 58.0781C70.7606 57.8281 70.8778 57.5547 70.9872 57.2578C70.7684 57.0547 70.6044 56.8359 70.495 56.6016C70.4013 56.3516 70.3309 56.1094 70.2841 55.875C70.2372 55.625 70.1981 55.375 70.1669 55.125C70.1356 54.8594 70.0809 54.5938 70.0028 54.3281C70.1591 54.0938 70.3466 53.9062 70.5653 53.7656C70.7997 53.6094 71.0497 53.4844 71.3153 53.3906C71.5809 53.2969 71.87 53.2188 72.1825 53.1562C72.495 53.0938 72.8231 53.0234 73.1669 52.9453C73.7919 52.7422 74.3466 52.5859 74.8309 52.4766C75.3309 52.3672 75.8153 52.2812 76.2841 52.2188C76.7684 52.1406 77.2684 52.0703 77.7841 52.0078C78.2997 51.9453 78.8856 51.8516 79.5419 51.7266C79.6825 51.8672 79.8153 51.9375 79.9403 51.9375C80.0028 51.7969 80.0731 51.7578 80.1513 51.8203C80.245 51.8672 80.2841 51.8203 80.2684 51.6797C80.4247 51.9453 80.62 52.1719 80.8544 52.3594C81.1044 52.5312 81.3778 52.6797 81.6747 52.8047ZM92.0678 66.0469C91.8178 66.0625 91.5053 66.0547 91.1303 66.0234C90.7709 65.9922 90.435 66.0469 90.1225 66.1875C89.2944 66.1562 88.4506 66.0547 87.5912 65.8828C86.7319 65.7109 85.9428 65.5 85.2241 65.25C85.0678 65.0781 84.9116 64.9219 84.7553 64.7812C84.5991 64.625 84.3881 64.5156 84.1225 64.4531C83.7475 64.1562 83.4428 63.7969 83.2084 63.375C82.9741 62.9375 82.7866 62.4766 82.6459 61.9922C82.5053 61.5078 82.4116 61.0156 82.3647 60.5156C82.3178 60 82.3022 59.5078 82.3178 59.0391C82.5522 58.3359 82.8803 57.7344 83.3022 57.2344C83.7397 56.7188 84.185 56.2109 84.6381 55.7109C84.8412 55.6172 84.9897 55.5234 85.0834 55.4297C85.1928 55.3203 85.3022 55.2266 85.4116 55.1484C85.5366 55.0547 85.6537 54.9688 85.7631 54.8906C85.8881 54.7969 85.9975 54.6875 86.0912 54.5625C86.4194 54.4844 86.7006 54.375 86.935 54.2344C87.185 54.0781 87.4272 53.9219 87.6616 53.7656C87.8959 53.5938 88.1381 53.4375 88.3881 53.2969C88.6381 53.1562 88.9272 53.0469 89.2553 52.9688C89.3803 52.8281 89.5287 52.7188 89.7006 52.6406C89.8725 52.5469 90.0444 52.4609 90.2162 52.3828C90.4037 52.2891 90.5756 52.1953 90.7319 52.1016C90.9037 52.0078 91.0366 51.8828 91.1303 51.7266C91.2084 51.8516 91.3178 51.8984 91.4584 51.8672C91.5991 51.8203 91.7319 51.7734 91.8569 51.7266C91.935 51.7109 91.9975 51.7266 92.0444 51.7734C92.1069 51.8203 92.1616 51.8672 92.2084 51.9141C92.2553 51.9609 92.2944 51.9922 92.3256 52.0078C92.3725 52.0078 92.4116 51.9688 92.4428 51.8906C92.5209 51.8906 92.5444 51.9297 92.5131 52.0078C92.4819 52.0859 92.4584 52.1406 92.4428 52.1719C92.5678 52.1562 92.6694 52.1875 92.7475 52.2656C92.8412 52.3281 92.9819 52.3672 93.1694 52.3828C93.2319 52.4609 93.2475 52.5234 93.2162 52.5703C93.185 52.6016 93.1694 52.6641 93.1694 52.7578C93.6381 52.8984 93.935 53.125 94.06 53.4375C94.185 53.7344 94.1928 54.0469 94.0834 54.375C93.9741 54.7031 93.7787 55.0078 93.4975 55.2891C93.2162 55.5703 92.9116 55.7578 92.5834 55.8516C91.8334 56.0547 91.1225 56.2812 90.4506 56.5312C89.7944 56.7656 89.2553 57.1172 88.8334 57.5859C88.4584 57.6953 88.1225 57.8438 87.8256 58.0312C87.5444 58.2031 87.2709 58.4062 87.0053 58.6406C86.7553 58.8594 86.5131 59.0938 86.2787 59.3438C86.06 59.5781 85.8256 59.8125 85.5756 60.0469C85.5912 60.2656 85.5522 60.4375 85.4584 60.5625C85.3803 60.6719 85.3022 60.7891 85.2241 60.9141C85.2553 61.1484 85.31 61.3594 85.3881 61.5469C85.4662 61.7188 85.5522 61.8906 85.6459 62.0625C86.6772 62.375 87.7709 62.5703 88.9272 62.6484C90.0991 62.7266 91.2709 62.7734 92.4428 62.7891C92.5522 62.9453 92.6772 63.0938 92.8178 63.2344C92.9741 63.3594 93.1147 63.5 93.2397 63.6562C93.3647 63.7969 93.4662 63.9609 93.5444 64.1484C93.6225 64.3203 93.6381 64.5391 93.5912 64.8047C93.3725 65.0391 93.1303 65.2578 92.8647 65.4609C92.5991 65.6484 92.3334 65.8438 92.0678 66.0469ZM109.75 58.9688C109.734 59.1562 109.75 59.3359 109.797 59.5078C109.844 59.6797 109.898 59.8516 109.961 60.0234C110.039 60.1797 110.109 60.3438 110.172 60.5156C110.234 60.6875 110.281 60.8594 110.312 61.0312C110.344 61.25 110.344 61.4922 110.312 61.7578C110.281 62.0078 110.227 62.2578 110.148 62.5078C110.07 62.7422 109.969 62.9609 109.844 63.1641C109.719 63.3516 109.57 63.4922 109.398 63.5859C109.18 63.8672 108.914 64.0859 108.602 64.2422C108.289 64.3984 108 64.5859 107.734 64.8047C107.562 64.9141 107.367 64.9922 107.148 65.0391C106.945 65.0859 106.734 65.1328 106.516 65.1797C106.344 65.2734 106.141 65.375 105.906 65.4844C105.672 65.5781 105.43 65.6719 105.18 65.7656C104.93 65.8438 104.68 65.9062 104.43 65.9531C104.18 65.9844 103.961 65.9922 103.773 65.9766C103.305 66.1484 102.844 66.2578 102.391 66.3047C101.953 66.3672 101.438 66.3359 100.844 66.2109C100.281 66.2891 99.7578 66.2656 99.2734 66.1406C98.8047 66.0156 98.3828 65.8203 98.0078 65.5547C97.6484 65.2734 97.3281 64.9453 97.0469 64.5703C96.7812 64.1797 96.5625 63.7734 96.3906 63.3516C96.2656 62.4609 96.2969 61.6562 96.4844 60.9375C96.6719 60.2031 96.9375 59.5312 97.2812 58.9219C97.6406 58.2969 98.0469 57.7266 98.5 57.2109C98.9531 56.6797 99.3906 56.1641 99.8125 55.6641C99.9062 55.6953 99.9766 55.6953 100.023 55.6641C100.086 55.6172 100.141 55.5625 100.188 55.5C100.234 55.4219 100.281 55.3516 100.328 55.2891C100.391 55.2266 100.461 55.1875 100.539 55.1719C100.648 54.9375 100.805 54.7656 101.008 54.6562C101.227 54.5312 101.398 54.3594 101.523 54.1406C101.664 54.1094 101.781 54.0625 101.875 54C101.969 53.9375 102.055 53.8672 102.133 53.7891C102.227 53.7109 102.32 53.6406 102.414 53.5781C102.508 53.5 102.617 53.4453 102.742 53.4141V53.1562C103.023 53.0312 103.227 52.8906 103.352 52.7344C103.492 52.5625 103.656 52.3594 103.844 52.125C103.984 52.1094 104.094 52.1016 104.172 52.1016C104.266 52.1016 104.398 52.0859 104.57 52.0547C104.695 51.8359 104.805 51.6719 104.898 51.5625C105.008 51.4531 105.164 51.3359 105.367 51.2109C105.555 51.3047 105.758 51.3672 105.977 51.3984C106.211 51.4297 106.414 51.5312 106.586 51.7031C106.602 51.8594 106.648 51.9844 106.727 52.0781C106.805 52.1562 106.891 52.2344 106.984 52.3125C107.078 52.375 107.164 52.4453 107.242 52.5234C107.336 52.6016 107.398 52.7109 107.43 52.8516C107.492 52.8672 107.531 52.8594 107.547 52.8281C107.578 52.7969 107.625 52.7891 107.688 52.8047C107.734 53.0234 107.789 53.1719 107.852 53.25C107.914 53.3125 107.977 53.4453 108.039 53.6484C107.961 53.8047 107.898 53.9688 107.852 54.1406C107.82 54.2969 107.727 54.4141 107.57 54.4922C107.555 54.6016 107.586 54.6641 107.664 54.6797C107.742 54.6797 107.789 54.7188 107.805 54.7969C107.82 54.9375 107.797 55.0391 107.734 55.1016C108.109 55.7109 108.445 56.3594 108.742 57.0469C109.039 57.7188 109.375 58.3594 109.75 58.9688ZM106.82 61.1953C106.883 61.0234 106.961 60.8828 107.055 60.7734C107.164 60.6641 107.227 60.5 107.242 60.2812C107.164 60.1562 107.117 60.0625 107.102 60C107.086 59.9219 107.078 59.8047 107.078 59.6484C106.734 59.1641 106.438 58.6484 106.188 58.1016C105.938 57.5391 105.656 57.0156 105.344 56.5312C105.312 56.5938 105.258 56.6562 105.18 56.7188C105.102 56.7812 105.016 56.7656 104.922 56.6719C104.891 56.7969 104.836 56.8906 104.758 56.9531C104.68 57 104.594 57.0234 104.5 57.0234C104.406 57.0078 104.305 56.9844 104.195 56.9531C104.102 56.9062 104.016 56.8516 103.938 56.7891C103.484 57.1484 103.031 57.5 102.578 57.8438C102.125 58.1875 101.719 58.5859 101.359 59.0391C101.297 59.0703 101.258 59.0859 101.242 59.0859C101.227 59.0703 101.18 59.0781 101.102 59.1094C100.977 59.4062 100.82 59.6797 100.633 59.9297C100.461 60.1641 100.289 60.4062 100.117 60.6562C99.9453 60.9062 99.7969 61.1719 99.6719 61.4531C99.5469 61.7344 99.4766 62.0625 99.4609 62.4375C99.7266 62.6562 100.039 62.7891 100.398 62.8359C100.758 62.8828 101.125 62.8906 101.5 62.8594C101.891 62.8281 102.266 62.7812 102.625 62.7188C103 62.6406 103.344 62.6016 103.656 62.6016C104.312 62.4453 104.875 62.2422 105.344 61.9922C105.812 61.7266 106.305 61.4609 106.82 61.1953ZM117.424 61.7344C117.284 61.7656 117.182 61.8516 117.12 61.9922C117.057 62.1172 116.995 62.25 116.932 62.3906C116.885 62.5312 116.831 62.6641 116.768 62.7891C116.721 62.8984 116.643 62.9531 116.534 62.9531C116.518 63.0781 116.471 63.1875 116.393 63.2812C116.331 63.375 116.268 63.4766 116.206 63.5859C116.143 63.6797 116.096 63.7891 116.065 63.9141C116.034 64.0234 116.049 64.1562 116.112 64.3125C115.987 64.4062 115.909 64.5391 115.878 64.7109C115.846 64.8828 115.807 65.0469 115.76 65.2031C115.729 65.3594 115.667 65.4922 115.573 65.6016C115.479 65.7109 115.307 65.7578 115.057 65.7422C115.01 65.8047 115.003 65.8438 115.034 65.8594C115.065 65.875 115.088 65.9297 115.104 66.0234C114.932 65.9922 114.799 66 114.706 66.0469C114.628 66.1094 114.526 66.1484 114.401 66.1641C114.104 66.0703 113.854 65.9062 113.651 65.6719C113.463 65.4375 113.292 65.1797 113.135 64.8984C112.995 64.6016 112.862 64.3047 112.737 64.0078C112.628 63.7109 112.518 63.4531 112.409 63.2344C112.456 63.0625 112.463 62.8984 112.432 62.7422C112.401 62.5703 112.346 62.4297 112.268 62.3203C113.034 60.6953 113.87 58.9609 114.776 57.1172C115.682 55.2734 116.542 53.4531 117.354 51.6562C117.713 51.7969 118.065 51.9609 118.409 52.1484C118.768 52.3203 119.088 52.5234 119.37 52.7578C119.667 52.9922 119.917 53.2656 120.12 53.5781C120.323 53.875 120.456 54.2109 120.518 54.5859C120.487 54.6797 120.448 54.7188 120.401 54.7031C120.37 54.6719 120.338 54.6797 120.307 54.7266C120.37 54.8047 120.401 54.8594 120.401 54.8906C120.417 54.9219 120.417 54.9531 120.401 54.9844C120.401 55.0156 120.401 55.0625 120.401 55.125C120.401 55.1719 120.424 55.2422 120.471 55.3359C120.409 55.3203 120.362 55.3281 120.331 55.3594C120.315 55.3906 120.268 55.3906 120.19 55.3594C120.253 55.5312 120.268 55.6719 120.237 55.7812C120.221 55.8906 120.19 55.9922 120.143 56.0859C120.096 56.1641 120.057 56.2578 120.026 56.3672C119.995 56.4609 120.003 56.5859 120.049 56.7422C120.003 56.7422 119.963 56.7578 119.932 56.7891C119.917 56.8047 119.901 56.8281 119.885 56.8594C119.87 56.875 119.846 56.8984 119.815 56.9297C119.799 56.9453 119.768 56.9453 119.721 56.9297C119.768 57.2734 119.784 57.6172 119.768 57.9609C119.753 58.3047 119.737 58.6562 119.721 59.0156C119.721 59.3594 119.729 59.7266 119.745 60.1172C119.76 60.4922 119.815 60.8828 119.909 61.2891C120.471 60.9609 120.917 60.5391 121.245 60.0234C121.588 59.5078 121.862 58.9297 122.065 58.2891C122.284 57.6484 122.448 56.9609 122.557 56.2266C122.667 55.4922 122.784 54.7422 122.909 53.9766C123.049 53.8359 123.159 53.6641 123.237 53.4609C123.315 53.2578 123.385 53.0469 123.448 52.8281C123.51 52.5938 123.573 52.3672 123.635 52.1484C123.698 51.9141 123.776 51.7031 123.87 51.5156C124.104 51.5469 124.299 51.625 124.456 51.75C124.628 51.8594 124.784 51.9844 124.924 52.125C125.065 52.25 125.213 52.375 125.37 52.5C125.526 52.6094 125.721 52.6797 125.956 52.7109C126.143 52.9766 126.315 53.2344 126.471 53.4844C126.628 53.7344 126.729 54 126.776 54.2812C126.698 54.4062 126.635 54.5469 126.588 54.7031C126.557 54.8594 126.518 55.0156 126.471 55.1719C126.424 55.3281 126.362 55.4766 126.284 55.6172C126.206 55.7422 126.096 55.8516 125.956 55.9453C125.909 56.3516 125.846 56.7266 125.768 57.0703C125.706 57.3984 125.635 57.7266 125.557 58.0547C125.495 58.3828 125.44 58.7266 125.393 59.0859C125.346 59.4297 125.331 59.8125 125.346 60.2344C125.221 60.5938 125.088 60.9766 124.948 61.3828C124.807 61.7891 124.698 62.1562 124.62 62.4844C124.37 62.6875 124.174 62.9297 124.034 63.2109C123.893 63.4922 123.745 63.7734 123.588 64.0547C123.526 64.1172 123.487 64.1328 123.471 64.1016C123.456 64.0703 123.401 64.0469 123.307 64.0312C123.323 64.0938 123.323 64.1406 123.307 64.1719C123.292 64.2031 123.268 64.2344 123.237 64.2656C123.221 64.2812 123.206 64.3125 123.19 64.3594C123.19 64.4062 123.206 64.4688 123.237 64.5469C123.018 64.6406 122.823 64.7734 122.651 64.9453C122.479 65.1172 122.292 65.2734 122.088 65.4141C121.901 65.5547 121.667 65.6484 121.385 65.6953C121.12 65.7422 120.768 65.6875 120.331 65.5312C119.69 65.0625 119.12 64.5234 118.62 63.9141C118.135 63.3047 117.737 62.5781 117.424 61.7344ZM139.161 59.6719C139.146 59.75 139.13 59.8203 139.114 59.8828C139.099 59.9297 139.083 59.9766 139.067 60.0234C139.052 60.0703 139.044 60.1328 139.044 60.2109C139.044 60.2734 139.044 60.3594 139.044 60.4688C138.575 61.2969 137.982 61.9922 137.263 62.5547C136.56 63.1172 135.778 63.6172 134.919 64.0547C134.075 64.4766 133.192 64.8672 132.271 65.2266C131.349 65.5703 130.45 65.9453 129.575 66.3516C129.2 66.2578 128.911 66.1016 128.708 65.8828C128.521 65.6641 128.372 65.4141 128.263 65.1328C128.169 64.8359 128.099 64.5156 128.052 64.1719C128.021 63.8125 127.989 63.4453 127.958 63.0703C128.005 62.8984 128.067 62.7578 128.146 62.6484C128.239 62.5234 128.286 62.3516 128.286 62.1328C128.411 61.7266 128.536 61.3281 128.661 60.9375C128.786 60.5469 128.864 60.1484 128.896 59.7422C128.942 59.6172 129.028 59.5312 129.153 59.4844C129.232 58.7344 129.232 57.9766 129.153 57.2109C129.091 56.4297 128.966 55.7031 128.778 55.0312C128.794 54.875 128.81 54.7656 128.825 54.7031C128.857 54.625 128.857 54.5703 128.825 54.5391C128.81 54.4141 128.849 54.3516 128.942 54.3516C129.052 54.3516 129.161 54.3516 129.271 54.3516C129.271 54.1172 129.224 53.8828 129.13 53.6484C129.052 53.4141 128.974 53.1484 128.896 52.8516C129.005 52.6172 129.075 52.3906 129.107 52.1719C129.138 51.9375 129.208 51.7344 129.317 51.5625C130.161 51.8281 130.966 52.1484 131.732 52.5234C132.513 52.8984 133.278 53.1719 134.028 53.3438C134.591 53.75 135.169 54.1562 135.763 54.5625C136.357 54.9531 136.896 55.3906 137.38 55.875C137.864 56.3438 138.271 56.8828 138.599 57.4922C138.927 58.1016 139.114 58.8281 139.161 59.6719ZM133.607 60.9609C133.935 60.8359 134.255 60.7031 134.567 60.5625C134.896 60.4219 135.192 60.2656 135.458 60.0938C135.739 59.9062 135.989 59.6953 136.208 59.4609C136.427 59.2266 136.607 58.9453 136.747 58.6172C136.653 58.4297 136.528 58.2656 136.372 58.125C136.216 57.9688 136.06 57.8281 135.903 57.7031C135.747 57.5625 135.591 57.4219 135.435 57.2812C135.294 57.1406 135.177 56.9688 135.083 56.7656C134.88 56.7344 134.7 56.6797 134.544 56.6016C134.388 56.5078 134.232 56.4219 134.075 56.3438C133.935 56.25 133.778 56.1641 133.607 56.0859C133.45 56.0078 133.263 55.9609 133.044 55.9453C132.7 55.7734 132.388 55.6484 132.107 55.5703C131.841 55.4922 131.638 55.3906 131.497 55.2656C131.388 55.2656 131.302 55.2891 131.239 55.3359C131.396 55.9297 131.513 56.4922 131.591 57.0234C131.669 57.5391 131.708 58.0625 131.708 58.5938C131.724 59.1094 131.7 59.6406 131.638 60.1875C131.575 60.7344 131.489 61.3281 131.38 61.9688C131.536 61.9531 131.677 61.9219 131.802 61.875C131.942 61.8125 132.075 61.75 132.2 61.6875C132.341 61.625 132.482 61.5703 132.622 61.5234C132.778 61.4609 132.958 61.4219 133.161 61.4062C133.208 61.3125 133.271 61.2344 133.349 61.1719C133.442 61.1094 133.528 61.0391 133.607 60.9609ZM58.3155 78.8047C58.3311 78.9141 58.3311 79 58.3155 79.0625C58.3155 79.1094 58.3077 79.1562 58.292 79.2031C58.292 79.25 58.292 79.3047 58.292 79.3672C58.292 79.4141 58.3077 79.4922 58.3389 79.6016C58.0108 80.1328 57.628 80.5 57.1905 80.7031C56.7686 80.8906 56.3077 81.0312 55.8077 81.125C55.3077 81.2031 54.792 81.2891 54.2608 81.3828C53.7452 81.4766 53.2295 81.6797 52.7139 81.9922C52.5108 81.9141 52.3233 81.9141 52.1514 81.9922C51.9952 82.0703 51.7608 82.0938 51.4483 82.0625C51.3545 82.1562 51.2373 82.2266 51.0967 82.2734C50.9561 82.3047 50.8155 82.3438 50.6748 82.3906C50.7373 82.5312 50.7608 82.6797 50.7452 82.8359C50.7452 82.9766 50.7686 83.0938 50.8155 83.1875C51.3623 83.2344 51.9639 83.2266 52.6202 83.1641C53.292 83.1016 53.9483 83.0625 54.5889 83.0469C54.6045 83.125 54.5967 83.1797 54.5655 83.2109C54.5342 83.2266 54.5264 83.2656 54.542 83.3281C54.6514 83.4062 54.7608 83.5078 54.8702 83.6328C54.9795 83.7422 55.0889 83.8516 55.1983 83.9609C55.3077 84.0703 55.417 84.1641 55.5264 84.2422C55.6514 84.3047 55.792 84.3281 55.9483 84.3125C56.0108 84.4375 56.0498 84.5781 56.0655 84.7344C56.0967 84.875 56.0811 85.0234 56.0186 85.1797C55.7686 85.3516 55.5186 85.5312 55.2686 85.7188C55.0186 85.8906 54.753 86.0469 54.4717 86.1875C54.2061 86.3281 53.917 86.4453 53.6045 86.5391C53.3077 86.6172 52.9717 86.6484 52.5967 86.6328C52.5186 86.6328 52.4561 86.6328 52.4092 86.6328C52.378 86.6328 52.3311 86.6094 52.2686 86.5625C52.1436 86.6406 51.9639 86.6641 51.7295 86.6328C51.5108 86.6016 51.3389 86.625 51.2139 86.7031C51.042 86.625 50.8311 86.5938 50.5811 86.6094C50.3467 86.6094 50.1358 86.5781 49.9483 86.5156C49.6983 86.8438 49.4717 87.1953 49.2686 87.5703C49.0655 87.9453 48.8858 88.3438 48.7295 88.7656C49.2608 88.8438 49.6983 88.875 50.042 88.8594C50.4014 88.8438 50.7373 88.8203 51.0498 88.7891C51.3623 88.7422 51.6827 88.7031 52.0108 88.6719C52.3389 88.625 52.753 88.6094 53.253 88.625C53.5655 88.4531 53.9327 88.3438 54.3545 88.2969C54.792 88.2344 55.1905 88.1406 55.5498 88.0156C55.6748 88.0625 55.7842 88.1484 55.878 88.2734C55.9717 88.3828 56.0577 88.4922 56.1358 88.6016C56.2295 88.6953 56.3233 88.7812 56.417 88.8594C56.5108 88.9375 56.628 88.9688 56.7686 88.9531C56.8311 89.0156 56.8702 89.0938 56.8858 89.1875C56.917 89.2656 56.9405 89.3438 56.9561 89.4219C56.9717 89.5 56.9952 89.5703 57.0264 89.6328C57.0733 89.6797 57.1436 89.6953 57.2373 89.6797C57.003 90.1953 56.7295 90.5938 56.417 90.875C56.1202 91.1406 55.7764 91.3438 55.3858 91.4844C54.9952 91.625 54.5577 91.7344 54.0733 91.8125C53.6045 91.8906 53.0811 91.9844 52.503 92.0938C52.3623 92.125 52.2452 92.1172 52.1514 92.0703C52.0577 92.0391 51.9483 92.0234 51.8233 92.0234C51.4639 92.1016 51.0342 92.1719 50.5342 92.2344C50.0342 92.2969 49.5264 92.3203 49.0108 92.3047C48.4952 92.2891 48.003 92.2188 47.5342 92.0938C47.0655 91.9844 46.6827 91.7812 46.3858 91.4844C46.2608 91.375 46.1748 91.25 46.128 91.1094C46.0967 90.9531 45.9952 90.8359 45.8233 90.7578C45.8077 90.5547 45.7764 90.3281 45.7295 90.0781C45.6827 89.8281 45.6358 89.5703 45.5889 89.3047C45.542 89.0234 45.503 88.75 45.4717 88.4844C45.4561 88.2188 45.4717 87.9766 45.5186 87.7578C45.5655 87.5234 45.6592 87.3125 45.7998 87.125C45.9561 86.9375 46.0108 86.7344 45.9639 86.5156C46.042 86.5 46.0889 86.4609 46.1045 86.3984C46.1202 86.3203 46.1827 86.2891 46.292 86.3047C46.3858 86.0234 46.4873 85.7578 46.5967 85.5078C46.7061 85.2578 46.8155 85.0156 46.9248 84.7812C47.0498 84.5469 47.167 84.3125 47.2764 84.0781C47.4014 83.8281 47.5186 83.5547 47.628 83.2578C47.4092 83.0547 47.2452 82.8359 47.1358 82.6016C47.042 82.3516 46.9717 82.1094 46.9248 81.875C46.878 81.625 46.8389 81.375 46.8077 81.125C46.7764 80.8594 46.7217 80.5938 46.6436 80.3281C46.7998 80.0938 46.9873 79.9062 47.2061 79.7656C47.4405 79.6094 47.6905 79.4844 47.9561 79.3906C48.2217 79.2969 48.5108 79.2188 48.8233 79.1562C49.1358 79.0938 49.4639 79.0234 49.8077 78.9453C50.4327 78.7422 50.9873 78.5859 51.4717 78.4766C51.9717 78.3672 52.4561 78.2812 52.9248 78.2188C53.4092 78.1406 53.9092 78.0703 54.4248 78.0078C54.9405 77.9453 55.5264 77.8516 56.1827 77.7266C56.3233 77.8672 56.4561 77.9375 56.5811 77.9375C56.6436 77.7969 56.7139 77.7578 56.792 77.8203C56.8858 77.8672 56.9248 77.8203 56.9092 77.6797C57.0655 77.9453 57.2608 78.1719 57.4952 78.3594C57.7452 78.5312 58.0186 78.6797 58.3155 78.8047ZM68.0289 77.4688C68.6852 77.5469 69.2711 77.6797 69.7867 77.8672C70.3023 78.0547 70.7398 78.3047 71.0992 78.6172C71.3492 79.0078 71.5836 79.4297 71.8023 79.8828C72.0367 80.3359 72.2086 80.8125 72.318 81.3125C72.443 81.7969 72.4977 82.2969 72.482 82.8125C72.482 83.3281 72.3727 83.8516 72.1539 84.3828C71.7008 84.9453 71.1461 85.4062 70.4898 85.7656C69.8492 86.1094 69.1539 86.3906 68.4039 86.6094C67.6539 86.8281 66.8727 87.0156 66.0602 87.1719C65.2633 87.3281 64.482 87.4844 63.7164 87.6406C63.732 88 63.732 88.3828 63.7164 88.7891C63.7164 89.1797 63.6773 89.5781 63.5992 89.9844C63.5367 90.375 63.4352 90.7578 63.2945 91.1328C63.1539 91.5078 62.9664 91.8516 62.732 92.1641C62.4664 92.1641 62.193 92.1953 61.9117 92.2578C61.6305 92.3359 61.3805 92.3984 61.1617 92.4453C61.0523 92.3828 60.9508 92.3203 60.857 92.2578C60.7789 92.2109 60.6617 92.1797 60.5055 92.1641C60.5367 92.0078 60.4977 91.8516 60.3883 91.6953C60.2789 91.5234 60.1695 91.3516 60.0602 91.1797C59.9508 91.0078 59.8727 90.8438 59.8258 90.6875C59.7945 90.5312 59.8727 90.3828 60.0602 90.2422C59.9508 90.1328 59.8961 89.9922 59.8961 89.8203C60.0055 89.6328 60.0992 89.375 60.1773 89.0469C60.2711 88.7188 60.3414 88.3984 60.3883 88.0859C60.4508 87.7578 60.4664 87.4609 60.4352 87.1953C60.4039 86.9297 60.2477 86.7344 59.9664 86.6094C59.982 86.5781 60.0133 86.5625 60.0602 86.5625C60.107 86.5625 60.1539 86.5547 60.2008 86.5391C60.0758 86.4453 59.9977 86.3125 59.9664 86.1406C59.9508 85.9688 59.8961 85.8203 59.8023 85.6953C59.8336 85.6172 59.857 85.5469 59.8727 85.4844C59.8883 85.4219 59.943 85.3984 60.0367 85.4141C59.9898 85.1328 59.9898 84.8672 60.0367 84.6172C60.0992 84.3672 60.1852 84.1328 60.2945 83.9141C60.4039 83.6797 60.5367 83.4531 60.693 83.2344C60.8492 83.0156 60.9977 82.7969 61.1383 82.5781C61.2477 82.5625 61.3102 82.5781 61.3258 82.625C61.357 82.6719 61.4117 82.6641 61.4898 82.6016C61.693 82.4453 61.8336 82.2812 61.9117 82.1094C61.9898 81.9375 62.0289 81.7422 62.0289 81.5234C62.1383 81.1953 62.2711 80.8672 62.4273 80.5391C62.5836 80.1953 62.7555 79.8828 62.943 79.6016C63.1305 79.3203 63.3336 79.0703 63.5523 78.8516C63.7867 78.6328 64.0289 78.4688 64.2789 78.3594C64.4664 78.2031 64.7008 78.0625 64.982 77.9375C65.2633 77.7969 65.568 77.6953 65.8961 77.6328C66.2242 77.5547 66.5523 77.5156 66.8805 77.5156C67.2242 77.5 67.5367 77.5312 67.818 77.6094C67.8961 77.6406 67.9352 77.625 67.9352 77.5625C67.9508 77.5 67.982 77.4688 68.0289 77.4688ZM67.068 83.0703C67.4586 82.8984 67.8727 82.7656 68.3102 82.6719C68.7633 82.5625 69.1383 82.3672 69.4352 82.0859C69.2477 81.9141 68.9742 81.7656 68.6148 81.6406C68.2555 81.5 67.8648 81.4141 67.443 81.3828C67.0211 81.3516 66.5914 81.3906 66.1539 81.5C65.732 81.5938 65.3648 81.7812 65.0523 82.0625C64.9586 82.3438 64.8805 82.5703 64.818 82.7422C64.7555 82.8984 64.6695 83.0938 64.5602 83.3281C64.5914 83.4062 64.6383 83.4688 64.7008 83.5156C64.7789 83.5469 64.8336 83.6016 64.8648 83.6797C65.2242 83.4922 65.5836 83.3906 65.943 83.375C66.318 83.3438 66.693 83.2422 67.068 83.0703ZM78.1877 90.3594C78.2658 90.8281 78.2345 91.1953 78.0939 91.4609C77.9689 91.7266 77.7814 91.9219 77.5314 92.0469C77.297 92.1875 77.0236 92.2656 76.7111 92.2812C76.3986 92.2969 76.1017 92.2812 75.8205 92.2344C75.6642 92.0156 75.5236 91.7422 75.3986 91.4141C75.2736 91.0859 75.1564 90.75 75.047 90.4062C74.9377 90.0469 74.8361 89.6953 74.7423 89.3516C74.6642 89.0078 74.5939 88.7031 74.5314 88.4375C74.6095 88.25 74.6564 88.0391 74.672 87.8047C74.7033 87.5547 74.7189 87.3047 74.7189 87.0547C74.7345 86.8047 74.7423 86.5547 74.7423 86.3047C74.758 86.0391 74.7814 85.7891 74.8127 85.5547C74.922 84.8984 75.0783 84.2734 75.2814 83.6797C75.5002 83.0859 75.672 82.4688 75.797 81.8281C75.8283 81.6875 75.8127 81.5547 75.7502 81.4297C75.7033 81.3047 75.6955 81.1875 75.7267 81.0781C75.7423 81.0156 75.7892 80.9766 75.8673 80.9609C75.9455 80.9297 75.9923 80.875 76.008 80.7969C76.0548 80.625 76.0627 80.4844 76.0314 80.375C76.0158 80.2656 76.047 80.1328 76.1252 79.9766C76.2033 79.8516 76.297 79.6719 76.4064 79.4375C76.5314 79.1875 76.5783 78.9297 76.547 78.6641C76.6877 78.5703 76.8205 78.4609 76.9455 78.3359C77.0705 78.2109 77.1955 78.1016 77.3205 78.0078C77.4611 77.8984 77.6095 77.8047 77.7658 77.7266C77.9377 77.6484 78.1408 77.6094 78.3752 77.6094C78.5002 77.7656 78.5783 77.9375 78.6095 78.125C78.6564 78.3125 78.6955 78.5 78.7267 78.6875C78.7736 78.875 78.8361 79.0547 78.9142 79.2266C78.9923 79.3828 79.1252 79.5078 79.3127 79.6016C79.3127 79.7266 79.3127 79.8828 79.3127 80.0703C79.3127 80.2578 79.3205 80.4453 79.3361 80.6328C79.3517 80.8047 79.383 80.9688 79.4298 81.125C79.4923 81.2656 79.5861 81.3594 79.7111 81.4062C79.4298 82.1562 79.1642 82.8984 78.9142 83.6328C78.6798 84.3672 78.4845 85.1094 78.3283 85.8594C78.172 86.5938 78.0705 87.3359 78.0236 88.0859C77.9923 88.8359 78.047 89.5938 78.1877 90.3594ZM91.1823 77.4688C91.8386 77.5469 92.4245 77.6797 92.9402 77.8672C93.4558 78.0547 93.8933 78.3047 94.2527 78.6172C94.5027 79.0078 94.737 79.4297 94.9558 79.8828C95.1902 80.3359 95.362 80.8125 95.4714 81.3125C95.5964 81.7969 95.6511 82.2969 95.6355 82.8125C95.6355 83.3281 95.5261 83.8516 95.3073 84.3828C94.8542 84.9453 94.2995 85.4062 93.6433 85.7656C93.0027 86.1094 92.3073 86.3906 91.5573 86.6094C90.8073 86.8281 90.0261 87.0156 89.2136 87.1719C88.4167 87.3281 87.6355 87.4844 86.8698 87.6406C86.8855 88 86.8855 88.3828 86.8698 88.7891C86.8698 89.1797 86.8308 89.5781 86.7527 89.9844C86.6902 90.375 86.5886 90.7578 86.448 91.1328C86.3073 91.5078 86.1198 91.8516 85.8855 92.1641C85.6198 92.1641 85.3464 92.1953 85.0652 92.2578C84.7839 92.3359 84.5339 92.3984 84.3152 92.4453C84.2058 92.3828 84.1042 92.3203 84.0105 92.2578C83.9323 92.2109 83.8152 92.1797 83.6589 92.1641C83.6902 92.0078 83.6511 91.8516 83.5417 91.6953C83.4323 91.5234 83.323 91.3516 83.2136 91.1797C83.1042 91.0078 83.0261 90.8438 82.9792 90.6875C82.948 90.5312 83.0261 90.3828 83.2136 90.2422C83.1042 90.1328 83.0495 89.9922 83.0495 89.8203C83.1589 89.6328 83.2527 89.375 83.3308 89.0469C83.4245 88.7188 83.4948 88.3984 83.5417 88.0859C83.6042 87.7578 83.6198 87.4609 83.5886 87.1953C83.5573 86.9297 83.4011 86.7344 83.1198 86.6094C83.1355 86.5781 83.1667 86.5625 83.2136 86.5625C83.2605 86.5625 83.3073 86.5547 83.3542 86.5391C83.2292 86.4453 83.1511 86.3125 83.1198 86.1406C83.1042 85.9688 83.0495 85.8203 82.9558 85.6953C82.987 85.6172 83.0105 85.5469 83.0261 85.4844C83.0417 85.4219 83.0964 85.3984 83.1902 85.4141C83.1433 85.1328 83.1433 84.8672 83.1902 84.6172C83.2527 84.3672 83.3386 84.1328 83.448 83.9141C83.5573 83.6797 83.6902 83.4531 83.8464 83.2344C84.0027 83.0156 84.1511 82.7969 84.2917 82.5781C84.4011 82.5625 84.4636 82.5781 84.4792 82.625C84.5105 82.6719 84.5652 82.6641 84.6433 82.6016C84.8464 82.4453 84.987 82.2812 85.0652 82.1094C85.1433 81.9375 85.1823 81.7422 85.1823 81.5234C85.2917 81.1953 85.4245 80.8672 85.5808 80.5391C85.737 80.1953 85.9089 79.8828 86.0964 79.6016C86.2839 79.3203 86.487 79.0703 86.7058 78.8516C86.9402 78.6328 87.1823 78.4688 87.4323 78.3594C87.6198 78.2031 87.8542 78.0625 88.1355 77.9375C88.4167 77.7969 88.7214 77.6953 89.0495 77.6328C89.3777 77.5547 89.7058 77.5156 90.0339 77.5156C90.3777 77.5 90.6902 77.5312 90.9714 77.6094C91.0495 77.6406 91.0886 77.625 91.0886 77.5625C91.1042 77.5 91.1355 77.4688 91.1823 77.4688ZM90.2214 83.0703C90.612 82.8984 91.0261 82.7656 91.4636 82.6719C91.9167 82.5625 92.2917 82.3672 92.5886 82.0859C92.4011 81.9141 92.1277 81.7656 91.7683 81.6406C91.4089 81.5 91.0183 81.4141 90.5964 81.3828C90.1745 81.3516 89.7448 81.3906 89.3073 81.5C88.8855 81.5938 88.5183 81.7812 88.2058 82.0625C88.112 82.3438 88.0339 82.5703 87.9714 82.7422C87.9089 82.8984 87.823 83.0938 87.7136 83.3281C87.7448 83.4062 87.7917 83.4688 87.8542 83.5156C87.9323 83.5469 87.987 83.6016 88.0183 83.6797C88.3777 83.4922 88.737 83.3906 89.0964 83.375C89.4714 83.3438 89.8464 83.2422 90.2214 83.0703ZM108.372 89.7266C108.404 90.1328 108.357 90.4688 108.232 90.7344C108.107 91 107.935 91.2266 107.716 91.4141C107.497 91.6016 107.247 91.75 106.966 91.8594C106.685 91.9688 106.411 92.0703 106.146 92.1641C106.021 92.0859 105.896 92.0078 105.771 91.9297C105.661 91.8359 105.529 91.7656 105.372 91.7188C105.169 91.3438 104.974 91.0156 104.786 90.7344C104.599 90.4375 104.513 90.1016 104.529 89.7266C104.529 89.7109 104.536 89.625 104.552 89.4688C104.583 89.3125 104.615 89.1406 104.646 88.9531C104.693 88.7656 104.724 88.5938 104.74 88.4375C104.771 88.2656 104.786 88.1719 104.786 88.1562C104.427 88.1875 104.052 88.2656 103.661 88.3906C103.271 88.5156 102.888 88.6641 102.513 88.8359C102.154 89.0078 101.81 89.1797 101.482 89.3516C101.169 89.5234 100.911 89.6719 100.708 89.7969C100.708 89.8438 100.677 89.9609 100.615 90.1484C100.552 90.3203 100.474 90.5078 100.38 90.7109C100.286 90.8984 100.185 91.0703 100.075 91.2266C99.9661 91.3828 99.8567 91.4609 99.7473 91.4609C99.763 91.5078 99.7864 91.5547 99.8177 91.6016C99.8489 91.6484 99.8489 91.7109 99.8177 91.7891C99.5989 91.8516 99.4036 91.9297 99.2317 92.0234C99.0598 92.1328 98.8802 92.2188 98.6927 92.2812C98.5052 92.3594 98.302 92.3984 98.0833 92.3984C97.8645 92.3984 97.6067 92.3203 97.3098 92.1641C97.3098 92.0703 97.2708 91.9922 97.1927 91.9297C97.1145 91.8516 97.0286 91.7891 96.9348 91.7422C96.8567 91.6797 96.7864 91.6328 96.7239 91.6016C96.6614 91.5547 96.6302 91.5156 96.6302 91.4844C96.552 91.5 96.5208 91.4453 96.5364 91.3203C96.552 91.1953 96.6145 91.1641 96.7239 91.2266C96.552 91.0078 96.4427 90.8203 96.3958 90.6641C96.3645 90.4922 96.2786 90.2812 96.138 90.0312C96.1692 90 96.2005 89.9453 96.2317 89.8672C96.2473 89.7891 96.263 89.7188 96.2786 89.6562C96.2942 89.5938 96.3177 89.5469 96.3489 89.5156C96.3802 89.4844 96.4192 89.4922 96.4661 89.5391C96.4348 89.3984 96.4348 89.2812 96.4661 89.1875C96.4973 89.0938 96.5286 89.0078 96.5598 88.9297C96.5911 88.8516 96.6145 88.7734 96.6302 88.6953C96.6458 88.6172 96.6223 88.5312 96.5598 88.4375C96.8098 88.0938 96.9739 87.7266 97.052 87.3359C97.1302 86.9297 97.177 86.5625 97.1927 86.2344C97.302 86.125 97.3958 85.9688 97.4739 85.7656C97.5677 85.5625 97.638 85.3594 97.6848 85.1562C97.7317 84.9375 97.7473 84.7344 97.7317 84.5469C97.7317 84.3438 97.7083 84.1797 97.6614 84.0547C97.677 83.9766 97.763 83.9531 97.9192 83.9844C98.013 83.4688 98.0755 82.8906 98.1067 82.25C98.1536 81.5938 98.2239 80.9766 98.3177 80.3984C98.4114 79.8047 98.5677 79.2891 98.7864 78.8516C99.0052 78.3984 99.3567 78.1016 99.8411 77.9609C99.9348 78.2891 100.052 78.5781 100.193 78.8281C100.349 79.0781 100.513 79.3203 100.685 79.5547C100.872 79.7734 101.052 80 101.224 80.2344C101.411 80.4688 101.583 80.7344 101.74 81.0312C101.724 81.3281 101.693 81.6719 101.646 82.0625C101.599 82.4531 101.536 82.8516 101.458 83.2578C101.396 83.6641 101.325 84.0547 101.247 84.4297C101.185 84.8047 101.122 85.125 101.06 85.3906C101.075 85.4688 101.115 85.5156 101.177 85.5312C101.255 85.5469 101.271 85.6172 101.224 85.7422C101.599 85.6484 101.99 85.5625 102.396 85.4844C102.802 85.4062 103.208 85.3203 103.615 85.2266C104.021 85.1328 104.411 85.0312 104.786 84.9219C105.177 84.7969 105.536 84.6484 105.865 84.4766C105.943 83.8672 106.044 83.2578 106.169 82.6484C106.294 82.0391 106.31 81.4141 106.216 80.7734C106.294 80.7109 106.357 80.6328 106.404 80.5391C106.45 80.4453 106.529 80.3828 106.638 80.3516C106.56 80.0547 106.529 79.7422 106.544 79.4141C106.56 79.0859 106.615 78.7734 106.708 78.4766C106.818 78.1797 106.966 77.9297 107.154 77.7266C107.357 77.5078 107.599 77.3672 107.88 77.3047C108.052 77.5547 108.2 77.8281 108.325 78.125C108.45 78.4062 108.575 78.6953 108.7 78.9922C108.841 79.2734 108.982 79.5469 109.122 79.8125C109.279 80.0625 109.474 80.2812 109.708 80.4688C109.755 80.9219 109.786 81.3906 109.802 81.875C109.833 82.3594 109.857 82.8516 109.872 83.3516C109.747 83.9453 109.607 84.5234 109.45 85.0859C109.31 85.6328 109.208 86.2188 109.146 86.8438C109.036 86.9688 108.95 87.1094 108.888 87.2656C108.825 87.4219 108.763 87.5859 108.7 87.7578C108.638 87.9141 108.568 88.0703 108.49 88.2266C108.411 88.3672 108.318 88.4922 108.208 88.6016C108.271 88.7891 108.279 88.9688 108.232 89.1406C108.2 89.2969 108.247 89.4922 108.372 89.7266ZM124.18 90.0312C124.086 90.2969 123.945 90.5703 123.758 90.8516C123.586 91.1172 123.375 91.3594 123.125 91.5781C122.89 91.7812 122.625 91.9531 122.328 92.0938C122.031 92.2344 121.719 92.3125 121.39 92.3281C121.187 92.2812 121.047 92.2266 120.969 92.1641C120.906 92.1172 120.836 92.0703 120.758 92.0234C120.711 91.9922 120.664 91.9688 120.617 91.9531C120.586 91.9219 120.555 91.8984 120.523 91.8828L120.242 91.7656L120.336 91.4609C120.367 91.3359 120.359 91.2422 120.312 91.1797C120.265 91.1016 120.172 91 120.031 90.875C119.984 90.8281 119.937 90.7812 119.89 90.7344C119.844 90.6875 119.805 90.6406 119.773 90.5938L119.375 90.1484L120.008 89.9844C120.398 89.875 120.656 89.7344 120.781 89.5625C120.922 89.3906 120.976 89.1016 120.945 88.6953C120.633 88.6328 120.367 88.625 120.148 88.6719C119.945 88.7188 119.734 88.7734 119.515 88.8359C119.234 88.9141 118.945 88.9844 118.648 89.0469C118.367 89.0938 118.055 89.1172 117.711 89.1172C117.586 89.1172 117.469 89.1172 117.359 89.1172C117.25 89.1016 117.133 89.0859 117.008 89.0703L116.773 89.0234C116.742 88.8516 116.711 88.7578 116.68 88.7422C116.648 88.7109 116.617 88.6797 116.586 88.6484C116.508 88.5703 116.422 88.4688 116.328 88.3438C116.25 88.2031 116.234 88.0312 116.281 87.8281C116.203 87.6875 116.156 87.5469 116.14 87.4062C116.047 87.5938 115.976 87.7891 115.93 87.9922L115.836 88.2266L115.601 88.2734C115.57 88.2891 115.547 88.3281 115.531 88.3906C115.515 88.4375 115.508 88.4766 115.508 88.5078L115.39 88.9062C115.359 88.9375 115.328 88.9688 115.297 89C115.265 89.0156 115.234 89.0391 115.203 89.0703C115.172 89.2109 115.133 89.3516 115.086 89.4922C115.039 89.6328 114.992 89.7656 114.945 89.8906C114.867 90.0938 114.797 90.2969 114.734 90.5C114.687 90.6875 114.672 90.875 114.687 91.0625L114.594 91.3203C114.515 91.4141 114.43 91.4922 114.336 91.5547C114.242 91.6016 114.148 91.6484 114.055 91.6953C114.023 91.7266 113.976 91.7578 113.914 91.7891C113.867 91.8047 113.828 91.8203 113.797 91.8359L113.726 92.0938L113.445 92.1406C113.273 92.1719 113.148 92.1953 113.07 92.2109C113.008 92.2266 112.93 92.2344 112.836 92.2344L112.601 92.2109C112.43 92.0703 112.297 91.9609 112.203 91.8828C112.109 91.7891 112 91.7031 111.875 91.625C111.734 91.4375 111.656 91.2969 111.64 91.2031C111.625 91.1094 111.609 91.0234 111.594 90.9453C111.562 90.8516 111.547 90.7734 111.547 90.7109C111.531 90.6484 111.508 90.6016 111.476 90.5703L111.172 90.2891L111.43 90.0781L111.453 89.6797C111.765 88.8828 112.094 88.1172 112.437 87.3828C112.797 86.6484 113.164 85.8984 113.539 85.1328C113.664 84.8828 113.781 84.6328 113.89 84.3828C114.015 84.1328 114.14 83.8828 114.265 83.6328C114.25 83.5859 114.242 83.5312 114.242 83.4688C114.242 83.4062 114.258 83.3359 114.289 83.2578C114.461 82.9922 114.601 82.7578 114.711 82.5547C114.82 82.3359 114.93 82.1172 115.039 81.8984C115.164 81.6328 115.289 81.375 115.414 81.125C115.555 80.875 115.726 80.6172 115.93 80.3516L116.305 80.1875C116.351 80.1719 116.406 80.1562 116.469 80.1406C116.531 80.1094 116.601 80.0938 116.68 80.0938L117.031 80.1406C117.469 79.9375 117.851 79.6562 118.18 79.2969C118.508 78.9219 118.844 78.4766 119.187 77.9609L119.422 77.6328L119.726 77.8203C119.805 77.8672 119.914 77.9141 120.055 77.9609C120.195 77.9922 120.344 78.0312 120.5 78.0781C120.781 78.1406 121.047 78.2109 121.297 78.2891C121.547 78.3672 121.75 78.4844 121.906 78.6406C122 78.8906 122.055 79.0781 122.07 79.2031C122.086 79.3281 122.109 79.4531 122.14 79.5781C122.187 79.8438 122.226 80.1094 122.258 80.375C122.305 80.6406 122.336 80.9375 122.351 81.2656C122.43 81.5312 122.492 81.7969 122.539 82.0625C122.601 82.3125 122.656 82.5703 122.703 82.8359C122.781 83.2109 122.859 83.5781 122.937 83.9375C123.015 84.2812 123.117 84.6094 123.242 84.9219C123.367 84.9219 123.445 84.9297 123.476 84.9453C123.555 84.9141 123.633 84.8906 123.711 84.875C123.805 84.8594 123.906 84.8438 124.015 84.8281L124.273 84.8047L124.367 85.0391C124.383 85.1172 124.461 85.1953 124.601 85.2734C124.805 85.2891 124.953 85.3359 125.047 85.4141C125.14 85.4766 125.226 85.5469 125.305 85.625C125.367 85.6875 125.43 85.7344 125.492 85.7656L125.844 85.9062L125.656 86.2578C125.5 86.5391 125.273 86.8125 124.976 87.0781C124.695 87.3281 124.375 87.5391 124.015 87.7109C124.031 87.8047 124.039 87.8984 124.039 87.9922C124.055 88.0703 124.078 88.1562 124.109 88.25C124.156 88.5156 124.195 88.7891 124.226 89.0703C124.258 89.3516 124.258 89.6406 124.226 89.9375L124.18 90.0312ZM117.406 85.9766C117.875 85.9453 118.297 85.9141 118.672 85.8828C119.062 85.8359 119.492 85.7656 119.961 85.6719C119.851 85.2031 119.734 84.7188 119.609 84.2188C119.484 83.7031 119.351 83.1953 119.211 82.6953L119.07 82.9297C118.758 83.2578 118.453 83.625 118.156 84.0312C117.875 84.4375 117.633 84.8203 117.43 85.1797C117.336 85.3203 117.242 85.4609 117.148 85.6016C117.055 85.7422 116.969 85.8828 116.89 86.0234C116.984 86.0078 117.07 86 117.148 86C117.242 86 117.328 85.9922 117.406 85.9766ZM131.971 87.7344C131.83 87.7656 131.729 87.8516 131.666 87.9922C131.604 88.1172 131.541 88.25 131.479 88.3906C131.432 88.5312 131.377 88.6641 131.315 88.7891C131.268 88.8984 131.19 88.9531 131.08 88.9531C131.065 89.0781 131.018 89.1875 130.94 89.2812C130.877 89.375 130.815 89.4766 130.752 89.5859C130.69 89.6797 130.643 89.7891 130.612 89.9141C130.58 90.0234 130.596 90.1562 130.659 90.3125C130.534 90.4062 130.455 90.5391 130.424 90.7109C130.393 90.8828 130.354 91.0469 130.307 91.2031C130.276 91.3594 130.213 91.4922 130.12 91.6016C130.026 91.7109 129.854 91.7578 129.604 91.7422C129.557 91.8047 129.549 91.8438 129.58 91.8594C129.612 91.875 129.635 91.9297 129.651 92.0234C129.479 91.9922 129.346 92 129.252 92.0469C129.174 92.1094 129.073 92.1484 128.948 92.1641C128.651 92.0703 128.401 91.9062 128.198 91.6719C128.01 91.4375 127.838 91.1797 127.682 90.8984C127.541 90.6016 127.409 90.3047 127.284 90.0078C127.174 89.7109 127.065 89.4531 126.955 89.2344C127.002 89.0625 127.01 88.8984 126.979 88.7422C126.948 88.5703 126.893 88.4297 126.815 88.3203C127.58 86.6953 128.416 84.9609 129.323 83.1172C130.229 81.2734 131.088 79.4531 131.901 77.6562C132.26 77.7969 132.612 77.9609 132.955 78.1484C133.315 78.3203 133.635 78.5234 133.916 78.7578C134.213 78.9922 134.463 79.2656 134.666 79.5781C134.87 79.875 135.002 80.2109 135.065 80.5859C135.034 80.6797 134.995 80.7188 134.948 80.7031C134.916 80.6719 134.885 80.6797 134.854 80.7266C134.916 80.8047 134.948 80.8594 134.948 80.8906C134.963 80.9219 134.963 80.9531 134.948 80.9844C134.948 81.0156 134.948 81.0625 134.948 81.125C134.948 81.1719 134.971 81.2422 135.018 81.3359C134.955 81.3203 134.909 81.3281 134.877 81.3594C134.862 81.3906 134.815 81.3906 134.737 81.3594C134.799 81.5312 134.815 81.6719 134.784 81.7812C134.768 81.8906 134.737 81.9922 134.69 82.0859C134.643 82.1641 134.604 82.2578 134.573 82.3672C134.541 82.4609 134.549 82.5859 134.596 82.7422C134.549 82.7422 134.51 82.7578 134.479 82.7891C134.463 82.8047 134.448 82.8281 134.432 82.8594C134.416 82.875 134.393 82.8984 134.362 82.9297C134.346 82.9453 134.315 82.9453 134.268 82.9297C134.315 83.2734 134.33 83.6172 134.315 83.9609C134.299 84.3047 134.284 84.6562 134.268 85.0156C134.268 85.3594 134.276 85.7266 134.291 86.1172C134.307 86.4922 134.362 86.8828 134.455 87.2891C135.018 86.9609 135.463 86.5391 135.791 86.0234C136.135 85.5078 136.409 84.9297 136.612 84.2891C136.83 83.6484 136.995 82.9609 137.104 82.2266C137.213 81.4922 137.33 80.7422 137.455 79.9766C137.596 79.8359 137.705 79.6641 137.784 79.4609C137.862 79.2578 137.932 79.0469 137.995 78.8281C138.057 78.5938 138.12 78.3672 138.182 78.1484C138.245 77.9141 138.323 77.7031 138.416 77.5156C138.651 77.5469 138.846 77.625 139.002 77.75C139.174 77.8594 139.33 77.9844 139.471 78.125C139.612 78.25 139.76 78.375 139.916 78.5C140.073 78.6094 140.268 78.6797 140.502 78.7109C140.69 78.9766 140.862 79.2344 141.018 79.4844C141.174 79.7344 141.276 80 141.323 80.2812C141.245 80.4062 141.182 80.5469 141.135 80.7031C141.104 80.8594 141.065 81.0156 141.018 81.1719C140.971 81.3281 140.909 81.4766 140.83 81.6172C140.752 81.7422 140.643 81.8516 140.502 81.9453C140.455 82.3516 140.393 82.7266 140.315 83.0703C140.252 83.3984 140.182 83.7266 140.104 84.0547C140.041 84.3828 139.987 84.7266 139.94 85.0859C139.893 85.4297 139.877 85.8125 139.893 86.2344C139.768 86.5938 139.635 86.9766 139.495 87.3828C139.354 87.7891 139.245 88.1562 139.166 88.4844C138.916 88.6875 138.721 88.9297 138.58 89.2109C138.44 89.4922 138.291 89.7734 138.135 90.0547C138.073 90.1172 138.034 90.1328 138.018 90.1016C138.002 90.0703 137.948 90.0469 137.854 90.0312C137.87 90.0938 137.87 90.1406 137.854 90.1719C137.838 90.2031 137.815 90.2344 137.784 90.2656C137.768 90.2812 137.752 90.3125 137.737 90.3594C137.737 90.4062 137.752 90.4688 137.784 90.5469C137.565 90.6406 137.37 90.7734 137.198 90.9453C137.026 91.1172 136.838 91.2734 136.635 91.4141C136.448 91.5547 136.213 91.6484 135.932 91.6953C135.666 91.7422 135.315 91.6875 134.877 91.5312C134.237 91.0625 133.666 90.5234 133.166 89.9141C132.682 89.3047 132.284 88.5781 131.971 87.7344ZM149.653 85.8594C149.544 85.9531 149.45 86.0703 149.372 86.2109C149.294 86.3359 149.216 86.4688 149.138 86.6094C149.06 86.7812 148.974 86.9453 148.88 87.1016C148.786 87.2578 148.669 87.3984 148.528 87.5234C148.45 87.7578 148.372 87.9453 148.294 88.0859C148.216 88.2109 148.091 88.3594 147.919 88.5312C147.763 89.1562 147.395 89.8359 146.817 90.5703C146.802 90.7109 146.755 90.8516 146.677 90.9922C146.614 91.1172 146.544 91.2422 146.466 91.3672C146.435 91.4141 146.403 91.4688 146.372 91.5312C146.341 91.5781 146.317 91.6172 146.302 91.6484L146.255 91.8828C146.177 92.0078 146.091 92.1172 145.997 92.2109C145.903 92.3047 145.817 92.3906 145.739 92.4688C145.708 92.5156 145.653 92.5781 145.575 92.6562L145.224 92.7969C144.083 92.6406 143.388 92.0312 143.138 90.9688L143.161 90.7344C143.192 90.6562 143.216 90.5781 143.231 90.5C143.263 90.4062 143.294 90.3125 143.325 90.2188C143.388 90 143.458 89.7812 143.536 89.5625C143.63 89.3438 143.763 89.1484 143.935 88.9766C143.966 88.8672 144.036 88.6953 144.145 88.4609C144.255 88.2109 144.442 87.8438 144.708 87.3594C144.927 86.9844 145.099 86.6875 145.224 86.4688C145.349 86.25 145.45 86.0781 145.528 85.9531C145.372 85.7031 145.185 85.4766 144.966 85.2734C144.763 84.8828 144.583 84.5078 144.427 84.1484C144.286 83.7891 144.177 83.4688 144.099 83.1875C144.083 82.9844 144.06 82.8125 144.028 82.6719C143.997 82.5312 143.966 82.3828 143.935 82.2266C143.888 82.0547 143.849 81.8828 143.817 81.7109C143.786 81.5391 143.77 81.3594 143.77 81.1719C143.692 81.0625 143.645 80.9531 143.63 80.8438L143.677 80.6094C143.724 80.5 143.731 80.3594 143.7 80.1875C143.669 80 143.63 79.8125 143.583 79.625C143.552 79.4688 143.513 79.2969 143.466 79.1094C143.435 78.9219 143.427 78.7344 143.442 78.5469C143.458 78.3594 143.505 78.1875 143.583 78.0312C143.677 77.8594 143.825 77.7109 144.028 77.5859L144.427 77.5625C144.567 77.6406 144.7 77.7188 144.825 77.7969C144.966 77.8594 145.099 77.9297 145.224 78.0078C145.395 78.0859 145.56 78.1641 145.716 78.2422C145.872 78.3203 146.036 78.4219 146.208 78.5469L146.372 78.875L146.677 79.1328V79.3906C146.692 79.4531 146.7 79.5391 146.7 79.6484C146.7 79.8516 146.731 79.9766 146.794 80.0234L146.888 80.3047C146.888 80.5234 146.911 80.7344 146.958 80.9375C147.005 81.125 147.052 81.3047 147.099 81.4766C147.145 81.6484 147.192 81.8281 147.239 82.0156C147.286 82.2031 147.294 82.4062 147.263 82.625C147.356 82.5781 147.435 82.5234 147.497 82.4609C147.528 82.4297 147.56 82.4062 147.591 82.3906C147.622 82.375 147.653 82.3516 147.685 82.3203L149.067 80.4453L149.02 80.2109L149.513 79.7422C149.638 79.6172 149.755 79.5 149.864 79.3906C149.989 79.2812 150.091 79.1641 150.169 79.0391L150.427 78.8516C150.927 78.0703 151.638 77.5859 152.56 77.3984L152.888 77.3516L152.981 77.6562C153.044 77.8281 153.169 77.9844 153.356 78.125C153.56 78.2656 153.77 78.3984 153.989 78.5234L154.2 78.6641C154.278 78.8203 154.317 78.9375 154.317 79.0156C154.317 79.0938 154.31 79.1641 154.294 79.2266L154.388 79.4609C154.263 79.8359 154.106 80.1094 153.919 80.2812C153.747 80.4531 153.575 80.6094 153.403 80.75C153.263 80.875 153.13 80.9922 153.005 81.1016C152.895 81.1953 152.81 81.3203 152.747 81.4766L152.583 81.6641C152.255 81.8516 152.044 82.1016 151.95 82.4141L151.88 82.6953H151.599C151.583 82.6953 151.544 82.7266 151.481 82.7891C151.435 82.8359 151.356 82.9688 151.247 83.1875C151.138 83.3438 151.06 83.4453 151.013 83.4922C150.966 83.5391 150.927 83.5781 150.895 83.6094C150.88 83.6719 150.856 83.7344 150.825 83.7969C150.81 83.8438 150.786 83.9062 150.755 83.9844C150.552 84.1875 150.427 84.3438 150.38 84.4531C150.333 84.5469 150.278 84.6562 150.216 84.7812C150.153 84.9062 150.091 85.0312 150.028 85.1562C149.981 85.2656 149.895 85.3828 149.77 85.5078L149.653 85.8594Z" fill="#D86B8C"/>
<path d="M174.02 12.4598C174.02 12.4598 34.0001 2.86436 6.90159 66.9611C-26.7639 146.591 121.732 152.01 185.657 95.0493C232.165 60.266 155.086 10.7515 103.654 2" stroke="#D86B8C" stroke-width="4" stroke-linecap="round"/>
<defs>
<filter id="filter0_d" x="16" y="26" width="155" height="87" filterUnits="userSpaceOnUse" color-interpolation-filters="sRGB">
<feFlood flood-opacity="0" result="BackgroundImageFix"/>
<feColorMatrix in="SourceAlpha" type="matrix" values="0 0 0 0 0 0 0 0 0 0 0 0 0 0 0 0 0 0 127 0"/>
<feOffset/>
<feGaussianBlur stdDeviation="3.5"/>
<feColorMatrix type="matrix" values="0 0 0 0 0 0 0 0 0 0 0 0 0 0 0 0 0 0 0.25 0"/>
<feBlend mode="normal" in2="BackgroundImageFix" result="effect1_dropShadow"/>
<feBlend mode="normal" in="SourceGraphic" in2="effect1_dropShadow" result="shape"/>
</filter>
</defs>
</svg>
