<?xml version="1.0" encoding="utf-8"?>
<!-- Generator: Adobe Illustrator 24.0.1, SVG Export Plug-In . SVG Version: 6.00 Build 0)  -->
<svg version="1.1" xmlns="http://www.w3.org/2000/svg" xmlns:xlink="http://www.w3.org/1999/xlink" x="0px" y="0px"
	 viewBox="0 0 55 56" style="enable-background:new 0 0 55 56;" xml:space="preserve">
<style type="text/css">
	.st0{fill:#FFFFFF;}
	.st1{fill:#1C1C1C;}
</style>
<g id="Layer_2">
</g>
<g id="Layer_1">
	<path class="st0" d="M27.8,55.2c15,0,27.2-12.2,27.2-27.2S42.8,0.8,27.8,0.8C12.7,0.8,0.6,13,0.6,28S12.7,55.2,27.8,55.2z"/>
	<path class="st1" d="M25.1,27.3l-11.9-6.8c-0.1-0.1-0.3-0.1-0.4-0.1c-0.1,0-0.3,0-0.4,0.1c-0.1,0.1-0.2,0.2-0.3,0.3
		C12.1,20.9,12,21,12,21.1v13.7c0,0.1,0,0.3,0.1,0.4c0.1,0.1,0.2,0.2,0.3,0.3s0.3,0.1,0.4,0.1c0.1,0,0.3,0,0.4-0.1l11.9-6.9
		c0.1-0.1,0.2-0.2,0.3-0.3c0.1-0.1,0.1-0.3,0.1-0.4c0-0.1,0-0.3-0.1-0.4C25.3,27.5,25.2,27.4,25.1,27.3z"/>
	<path class="st1" d="M35.6,19.6H34c-0.3,0-0.6,0.3-0.6,0.6v14.3c0,0.3,0.3,0.6,0.6,0.6h1.6c0.3,0,0.6-0.3,0.6-0.6V20.2
		C36.2,19.8,36,19.6,35.6,19.6z"/>
	<path class="st1" d="M41.4,19.6h-1.6c-0.3,0-0.6,0.3-0.6,0.6v14.3c0,0.3,0.3,0.6,0.6,0.6h1.6c0.3,0,0.6-0.3,0.6-0.6V20.2
		C42,19.8,41.7,19.6,41.4,19.6z"/>
</g>
</svg>
