<svg width="496" height="396" viewBox="0 0 496 396" fill="none" xmlns="http://www.w3.org/2000/svg">
<path d="M426.404 58.6472L62.9625 68.74C53.4841 69.0032 46.0148 76.8978 46.2793 86.373L52.4572 307.679C52.7217 317.154 60.6198 324.622 70.0982 324.359L433.539 314.266C443.018 314.003 450.487 306.108 450.222 296.633L444.044 75.3271C443.78 65.8518 435.882 58.384 426.404 58.6472Z" fill="#303030"/>
<path d="M415.05 77.9053L76.9347 87.2947C71.3606 87.4495 66.968 92.0922 67.1235 97.6645L71.3174 247.898C71.4729 253.47 76.1178 257.862 81.6918 257.707L419.807 248.318C425.382 248.163 429.774 243.52 429.619 237.948L425.425 87.7145C425.269 82.1422 420.624 77.7505 415.05 77.9053Z" fill="#38A396"/>
<path d="M400.736 90.9449L85.0092 99.7126C79.4351 99.8674 75.0425 104.51 75.198 110.082L75.9562 137.242C76.1118 142.814 80.7566 147.206 86.3307 147.051L402.058 138.283C407.632 138.129 412.024 133.486 411.869 127.914L411.111 100.754C410.955 95.1818 406.31 90.7901 400.736 90.9449Z" fill="white"/>
<path d="M384.446 153.13L111.696 160.704C99.4031 161.046 89.7156 171.285 90.0586 183.574L90.7063 206.775C91.0494 219.064 101.293 228.75 113.586 228.409L386.336 220.834C398.629 220.493 408.317 210.254 407.974 197.965L407.326 174.763C406.983 162.474 396.739 152.789 384.446 153.13Z" fill="white"/>
<path d="M279.426 164.192L211.31 166.084C208.909 166.15 207.016 168.151 207.083 170.551L208.345 215.745C208.412 218.146 210.413 220.038 212.814 219.971L280.93 218.079C283.331 218.013 285.224 216.013 285.157 213.612L283.895 168.418C283.828 166.017 281.827 164.125 279.426 164.192Z" fill="#262626"/>
<path d="M153.871 217.935C168.282 220.589 182.114 211.062 184.767 196.657C187.42 182.252 177.889 168.422 163.479 165.768C149.068 163.114 135.235 172.641 132.582 187.046C129.929 201.451 139.461 215.281 153.871 217.935Z" fill="#262626"/>
<path d="M331.271 213.024C345.682 215.678 359.514 206.152 362.167 191.746C364.82 177.341 355.289 163.512 340.879 160.858C326.468 158.204 312.635 167.73 309.982 182.135C307.329 196.541 316.861 210.37 331.271 213.024Z" fill="#262626"/>
<path d="M122.059 312.817L148.856 267.594L343.552 262.208L365.599 306.076L122.059 312.817Z" stroke="#6B6B6B" stroke-width="3" stroke-linecap="round" stroke-linejoin="round"/>
<path d="M95.1716 112.883L395.031 103.002" stroke="#6B6B6B" stroke-width="1.1" stroke-linecap="square" stroke-linejoin="round"/>
<path d="M94.1676 133.444L394.028 123.562" stroke="#6B6B6B" stroke-width="1.1" stroke-linecap="square" stroke-linejoin="round"/>
<path d="M226.406 173.99L227.411 210.279" stroke="#6B6B6B" stroke-width="1.1" stroke-linecap="square" stroke-linejoin="round"/>
<path d="M237.461 173.684L238.464 209.986" stroke="#6B6B6B" stroke-width="1.1" stroke-linecap="square" stroke-linejoin="round"/>
<path d="M250.075 173.342L251.095 209.634" stroke="#6B6B6B" stroke-width="1.1" stroke-linecap="square" stroke-linejoin="round"/>
<path d="M264.282 172.943L265.302 209.234" stroke="#6B6B6B" stroke-width="1.1" stroke-linecap="square" stroke-linejoin="round"/>
</svg>
