<svg width="1152" height="700" viewBox="0 0 1152 700" fill="none" xmlns="http://www.w3.org/2000/svg">
<path d="M182.828 638.996L-129.612 426.179C-137.448 420.842 -148.129 422.865 -153.468 430.698L-283.423 621.351C-288.762 629.184 -286.738 639.861 -278.902 645.198L33.5378 858.015C41.3738 863.353 52.0545 861.329 57.3938 853.496L187.348 662.843C192.688 655.01 190.664 644.333 182.828 638.996Z" fill="#303030"/>
<path d="M161.387 648.136L-128.925 450.391C-133.533 447.252 -139.815 448.442 -142.955 453.049L-231.108 582.376C-234.248 586.982 -233.057 593.261 -228.449 596.4L61.8634 794.145C66.4716 797.284 72.7528 796.094 75.8928 791.487L164.046 662.16C167.186 657.554 165.996 651.275 161.387 648.136Z" fill="#EF8B33"/>
<path d="M141.432 650.391L-129.693 465.716C-134.301 462.577 -140.583 463.767 -143.723 468.374L-160 492.254C-163.14 496.861 -161.95 503.14 -157.342 506.279L113.783 690.954C118.391 694.093 124.673 692.903 127.813 688.296L144.09 664.415C147.23 659.809 146.04 653.53 141.432 650.391Z" fill="white"/>
<path d="M90.3528 692.974L-144.683 532.881C-154.846 525.958 -168.698 528.582 -175.623 538.742L-190.084 559.957C-197.009 570.117 -194.384 583.964 -184.221 590.887L50.8141 750.98C60.9772 757.902 74.8298 755.278 81.7548 745.119L96.2158 723.903C103.141 713.744 100.516 699.896 90.3528 692.974Z" fill="white"/>
<path d="M28.5991 719.064C43.7928 719.064 56.1098 706.751 56.1098 691.563C56.1098 676.374 43.7928 664.062 28.5991 664.062C13.4054 664.062 1.0885 676.374 1.0885 691.563C1.0885 706.751 13.4054 719.064 28.5991 719.064Z" fill="#262626"/>
<path d="M-128.773 483.175L129.121 656.834" stroke="#6B6B6B" stroke-width="1.14" stroke-linecap="square" stroke-linejoin="round"/>
<path d="M-142.111 499.835L115.783 673.493" stroke="#6B6B6B" stroke-width="1.14" stroke-linecap="square" stroke-linejoin="round"/>
<path d="M298.412 -208.033L-25.9661 -369.775C-34.4512 -374.006 -44.7609 -370.559 -48.9933 -362.077L-147.531 -164.597C-151.764 -156.115 -148.316 -145.809 -139.831 -141.578L184.548 20.1638C193.033 24.3947 203.342 20.9484 207.575 12.4663L306.113 -185.014C310.345 -193.496 306.898 -203.802 298.412 -208.033Z" fill="#303030"/>
<path d="M292.983 68.4043L-95.4911 -17.9721C-104.747 -20.0301 -113.919 -14.1978 -115.978 -4.94513L-168.864 232.737C-170.923 241.989 -165.088 251.158 -155.832 253.216L232.642 339.593C241.898 341.651 251.07 335.818 253.129 326.566L306.015 88.8841C308.074 79.6315 302.239 70.4624 292.983 68.4043Z" fill="#303030"/>
<path d="M275.321 85.5489L-85.0898 5.41231C-90.5331 4.202 -95.9273 7.63195 -97.138 13.0733L-132.98 174.156C-134.191 179.597 -130.76 184.99 -125.316 186.2L235.095 266.337C240.538 267.547 245.932 264.117 247.143 258.676L282.985 97.5928C284.195 92.1514 280.764 86.7592 275.321 85.5489Z" fill="#8632AD"/>
<path d="M256.776 95.4925L-79.8875 20.636C-85.3308 19.4257 -90.725 22.8556 -91.9357 28.297L-98.7251 58.8101C-99.9358 64.2515 -96.5046 69.6437 -91.0613 70.854L245.602 145.71C251.046 146.921 256.44 143.491 257.65 138.049L264.44 107.536C265.651 102.095 262.219 96.7028 256.776 95.4925Z" fill="white"/>
<path d="M224.136 156.893L-68.9843 91.718C-80.989 89.0488 -92.8854 96.6132 -95.5556 108.614L-101.867 136.976C-104.537 148.977 -96.9695 160.869 -84.9647 163.538L208.156 228.713C220.16 231.382 232.057 223.818 234.727 211.817L241.038 183.455C243.708 171.454 236.141 159.562 224.136 156.893Z" fill="white"/>
<path d="M109.048 140.387L36.0491 124.156C33.704 123.635 31.3801 125.112 30.8585 127.456L20.0256 176.143C19.504 178.487 20.9822 180.81 23.3272 181.331L96.3261 197.562C98.6711 198.084 100.995 196.606 101.517 194.262L112.35 145.576C112.871 143.232 111.393 140.909 109.048 140.387Z" fill="#262626"/>
<path d="M-25.8461 166.211C-9.92053 166.211 2.98967 153.305 2.98967 137.385C2.98967 121.465 -9.92053 108.56 -25.8461 108.56C-41.7716 108.56 -54.6818 121.465 -54.6818 137.385C-54.6818 153.305 -41.7716 166.211 -25.8461 166.211Z" fill="#262626"/>
<path d="M162.364 208.052C178.29 208.052 191.2 195.147 191.2 179.227C191.2 163.307 178.29 150.401 162.364 150.401C146.439 150.401 133.529 163.307 133.529 179.227C133.529 195.147 146.439 208.052 162.364 208.052Z" fill="#262626"/>
<path d="M-96.5095 255.12L-56.295 214.575L150.28 260.505L161.86 312.57L-96.5095 255.12Z" stroke="#6B6B6B" stroke-width="3.26" stroke-linecap="round" stroke-linejoin="round"/>
<path d="M-71.7931 37.3599L246.754 106.429" stroke="#6B6B6B" stroke-width="1.19" stroke-linecap="square" stroke-linejoin="round"/>
<path d="M-78.3035 58.7415L240.244 127.81" stroke="#6B6B6B" stroke-width="1.19" stroke-linecap="square" stroke-linejoin="round"/>
<path d="M50.2621 136.521L41.692 175.023" stroke="#6B6B6B" stroke-width="1.19" stroke-linecap="square" stroke-linejoin="round"/>
<path d="M398.909 22.3188L710.251 -77.4867C719.28 -80.3812 724.252 -90.0447 721.357 -99.0707L660.915 -287.482C658.02 -296.508 648.353 -301.479 639.324 -298.584L327.982 -198.779C318.953 -195.884 313.98 -186.221 316.876 -177.195L377.317 11.2166C380.212 20.2426 389.879 25.2132 398.909 22.3188Z" fill="#303030"/>
<path d="M405.1 5.855L695.104 -88.7441C700.402 -90.4722 703.295 -96.166 701.566 -101.462L659.826 -229.327C658.098 -234.623 652.402 -237.515 647.104 -235.787L357.101 -141.188C351.803 -139.46 348.91 -133.766 350.639 -128.471L392.378 -0.60467C394.107 4.69095 399.803 7.58304 405.1 5.855Z" fill="#3B9322"/>
<path d="M1296.77 609.971L977.612 544.596C968.323 542.694 959.25 548.679 957.346 557.965L917.767 751.051C915.864 760.337 921.851 769.407 931.14 771.31L1250.3 836.685C1259.59 838.588 1268.66 832.602 1270.57 823.317L1310.15 630.23C1312.05 620.944 1306.06 611.874 1296.77 609.971Z" fill="#303030"/>
<path d="M1283.45 624.747L985.441 563.705C979.978 562.586 974.642 566.106 973.523 571.566L946.596 702.929C945.477 708.39 948.998 713.724 954.461 714.843L1252.47 775.885C1257.93 777.004 1263.27 773.484 1264.39 768.023L1291.32 636.661C1292.43 631.2 1288.91 625.866 1283.45 624.747Z" fill="#8632AD"/>
<path d="M1268.16 633.26L989.999 576.285C984.537 575.166 979.201 578.685 978.081 584.146L973.53 606.348C972.411 611.809 975.932 617.143 981.395 618.262L1259.55 675.238C1265.01 676.357 1270.35 672.837 1271.47 667.376L1276.02 645.174C1277.14 639.713 1273.62 634.379 1268.16 633.26Z" fill="white"/>
<path d="M1239.83 684.47L1002.05 635.767C990.007 633.299 978.239 641.061 975.77 653.105L972.402 669.538C969.933 681.581 977.698 693.345 989.746 695.813L1227.52 744.516C1239.57 746.984 1251.33 739.222 1253.8 727.178L1257.17 710.745C1259.64 698.702 1251.87 686.938 1239.83 684.47Z" fill="white"/>
<path d="M1147.67 672.347L1088.03 660.18C1085.67 659.7 1083.38 661.218 1082.9 663.572L1074.88 702.855C1074.39 705.209 1075.91 707.506 1078.27 707.986L1137.91 720.153C1140.26 720.633 1142.56 719.114 1143.04 716.761L1151.06 677.478C1151.54 675.124 1150.02 672.827 1147.67 672.347Z" fill="#262626"/>
<path d="M1035.06 696.386C1048.32 696.386 1059.07 685.64 1059.07 672.384C1059.07 659.128 1048.32 648.382 1035.06 648.382C1021.8 648.382 1011.05 659.128 1011.05 672.384C1011.05 685.64 1021.8 696.386 1035.06 696.386Z" fill="#262626"/>
<path d="M995.389 589.709L1261.68 642.767" stroke="#6B6B6B" stroke-width="0.99" stroke-linecap="square" stroke-linejoin="round"/>
<path d="M990.261 607.62L1256.55 660.678" stroke="#6B6B6B" stroke-width="0.99" stroke-linecap="square" stroke-linejoin="round"/>
<path d="M1098.43 670.599L1091.83 702.779" stroke="#6B6B6B" stroke-width="0.99" stroke-linecap="square" stroke-linejoin="round"/>
<path d="M1108.24 672.6L1101.64 704.795" stroke="#6B6B6B" stroke-width="0.99" stroke-linecap="square" stroke-linejoin="round"/>
<path d="M1119.43 674.889L1112.84 707.084" stroke="#6B6B6B" stroke-width="0.99" stroke-linecap="square" stroke-linejoin="round"/>
<path d="M1132.03 677.467L1125.44 709.661" stroke="#6B6B6B" stroke-width="0.99" stroke-linecap="square" stroke-linejoin="round"/>
<path d="M1200.82 -417.387L745.166 -313.318C735.922 -311.206 730.141 -302.004 732.253 -292.763L796.446 -11.9043C798.558 -2.66364 807.764 3.11583 817.008 1.00453L1272.66 -103.065C1281.9 -105.177 1287.68 -114.379 1285.57 -123.62L1221.38 -404.478C1219.27 -413.719 1210.06 -419.499 1200.82 -417.387Z" fill="#303030"/>
<path d="M881.667 653.941L597.24 631.964C587.786 631.233 579.53 638.302 578.799 647.753L565.611 818.311C564.88 827.761 571.952 836.015 581.406 836.745L865.832 858.723C875.286 859.453 883.543 852.384 884.273 842.934L897.462 672.376C898.192 662.925 891.121 654.672 881.667 653.941Z" fill="#303030"/>
<path d="M872.368 668.47L605.447 647.845C599.887 647.416 595.032 651.573 594.602 657.131L585.602 773.525C585.172 779.083 589.331 783.937 594.89 784.367L861.812 804.991C867.371 805.421 872.227 801.264 872.657 795.706L881.657 679.311C882.086 673.754 877.928 668.9 872.368 668.47Z" fill="#D34452"/>
<path d="M859.823 677.686L610.852 658.449C605.293 658.019 600.437 662.176 600.008 667.734L598.631 685.535C598.201 691.093 602.36 695.946 607.92 696.376L856.89 715.614C862.45 716.043 867.305 711.886 867.735 706.328L869.111 688.528C869.541 682.97 865.382 678.116 859.823 677.686Z" fill="white"/>
<path d="M615.944 669.62L856.295 686.912" stroke="#6B6B6B" stroke-width="0.88" stroke-linecap="square" stroke-linejoin="round"/>
<path d="M613.409 685.962L853.76 703.24" stroke="#6B6B6B" stroke-width="0.88" stroke-linecap="square" stroke-linejoin="round"/>
<path d="M251.188 861.361L512.531 813.695C521.859 811.994 528.042 803.055 526.34 793.73L497.889 637.85C496.187 628.525 487.245 622.345 477.917 624.047L216.574 671.712C207.245 673.414 201.063 682.352 202.765 691.677L231.216 847.557C232.918 856.882 241.86 863.062 251.188 861.361Z" fill="#303030"/>
<path d="M255.715 846.02L501.698 801.156C507.184 800.155 510.82 794.899 509.819 789.415L490.368 682.841C489.367 677.357 484.108 673.723 478.622 674.724L232.639 719.588C227.153 720.588 223.517 725.845 224.518 731.329L243.97 837.903C244.971 843.386 250.229 847.021 255.715 846.02Z" fill="#38A396"/>
<path d="M444.6 637.886L429.822 674.659L285.37 701.008L263.909 670.858L444.6 637.886Z" stroke="#6B6B6B" stroke-width="2.26" stroke-linecap="round" stroke-linejoin="round"/>
<path d="M737.404 58.6472L373.962 68.74C364.484 69.0032 357.015 76.8978 357.279 86.373L363.457 307.679C363.722 317.154 371.62 324.622 381.098 324.359L744.539 314.266C754.018 314.003 761.487 306.108 761.222 296.633L755.044 75.3271C754.78 65.8518 746.882 58.384 737.404 58.6472Z" fill="#303030"/>
<path d="M726.05 77.9053L387.935 87.2947C382.361 87.4495 377.968 92.0922 378.124 97.6645L382.317 247.898C382.473 253.47 387.118 257.862 392.692 257.707L730.807 248.318C736.382 248.163 740.774 243.52 740.619 237.948L736.425 87.7145C736.269 82.1422 731.624 77.7505 726.05 77.9053Z" fill="#38A396"/>
<path d="M711.736 90.9449L396.009 99.7126C390.435 99.8674 386.042 104.51 386.198 110.082L386.956 137.242C387.112 142.814 391.757 147.206 397.331 147.051L713.058 138.283C718.632 138.129 723.024 133.486 722.869 127.914L722.111 100.754C721.955 95.1818 717.31 90.7901 711.736 90.9449Z" fill="white"/>
<path d="M695.446 153.13L422.696 160.704C410.403 161.046 400.716 171.285 401.059 183.574L401.706 206.775C402.049 219.064 412.293 228.75 424.586 228.409L697.336 220.834C709.629 220.493 719.317 210.254 718.974 197.965L718.326 174.763C717.983 162.474 707.739 152.789 695.446 153.13Z" fill="white"/>
<path d="M590.426 164.192L522.31 166.084C519.909 166.15 518.016 168.151 518.083 170.551L519.345 215.745C519.412 218.146 521.413 220.038 523.814 219.971L591.93 218.079C594.331 218.013 596.224 216.013 596.157 213.612L594.895 168.418C594.828 166.017 592.827 164.125 590.426 164.192Z" fill="#262626"/>
<path d="M464.871 217.935C479.282 220.589 493.114 211.062 495.767 196.657C498.42 182.252 488.889 168.422 474.479 165.768C460.068 163.114 446.235 172.641 443.582 187.046C440.929 201.451 450.461 215.281 464.871 217.935Z" fill="#262626"/>
<path d="M642.271 213.024C656.682 215.678 670.514 206.152 673.167 191.746C675.82 177.341 666.289 163.512 651.879 160.858C637.468 158.204 623.635 167.73 620.982 182.135C618.329 196.541 627.861 210.37 642.271 213.024Z" fill="#262626"/>
<path d="M433.059 312.817L459.856 267.594L654.552 262.208L676.599 306.076L433.059 312.817Z" stroke="#6B6B6B" stroke-width="3" stroke-linecap="round" stroke-linejoin="round"/>
<path d="M406.172 112.883L706.031 103.002" stroke="#6B6B6B" stroke-width="1.1" stroke-linecap="square" stroke-linejoin="round"/>
<path d="M405.168 133.444L705.028 123.562" stroke="#6B6B6B" stroke-width="1.1" stroke-linecap="square" stroke-linejoin="round"/>
<path d="M537.406 173.99L538.411 210.279" stroke="#6B6B6B" stroke-width="1.1" stroke-linecap="square" stroke-linejoin="round"/>
<path d="M548.461 173.684L549.464 209.986" stroke="#6B6B6B" stroke-width="1.1" stroke-linecap="square" stroke-linejoin="round"/>
<path d="M561.075 173.342L562.095 209.634" stroke="#6B6B6B" stroke-width="1.1" stroke-linecap="square" stroke-linejoin="round"/>
<path d="M575.282 172.943L576.302 209.234" stroke="#6B6B6B" stroke-width="1.1" stroke-linecap="square" stroke-linejoin="round"/>
<g clip-path="url(#clip0)">
<path d="M1127.07 365.535L813.581 279.196C805.5 276.967 800.694 268.52 802.921 260.429L855.478 69.1399C857.704 61.0489 866.14 56.2363 874.221 58.4652L1187.71 144.804C1195.79 147.033 1200.6 155.48 1198.37 163.571L1145.82 354.847C1143.59 362.951 1135.15 367.764 1127.07 365.535Z" fill="#303030"/>
<path d="M1132.52 305.475L840.938 225.175C836.185 223.864 833.364 218.892 834.672 214.132L870.336 84.3041C871.645 79.5439 876.611 76.7191 881.365 78.0294L1172.94 158.33C1177.69 159.64 1180.51 164.613 1179.2 169.373L1143.54 299.2C1142.24 303.961 1137.28 306.786 1132.52 305.475Z" fill="#3B9322"/>
<path d="M1146.07 206.62L873.796 131.629C869.042 130.319 866.221 125.346 867.53 120.586L873.994 97.0398C875.302 92.2796 880.269 89.4547 885.023 90.7651L1157.3 165.756C1162.05 167.066 1164.87 172.039 1163.56 176.799L1157.1 200.345C1155.79 205.105 1150.82 207.93 1146.07 206.62Z" fill="white"/>
<path d="M1111.14 273.206L875.788 208.387C865.299 205.496 859.07 194.543 861.957 184.04L867.53 163.774C870.417 153.271 881.356 147.034 891.845 149.925L1127.2 214.743C1137.69 217.634 1143.91 228.587 1141.03 239.09L1135.45 259.356C1132.58 269.872 1121.63 276.096 1111.14 273.206Z" fill="white"/>
<path d="M1021.68 243.299L962.912 227.115C960.86 226.547 959.649 224.416 960.215 222.361L970.956 183.284C971.523 181.23 973.651 180.017 975.703 180.585L1034.47 196.769C1036.52 197.336 1037.73 199.467 1037.17 201.522L1026.43 240.599C1025.86 242.654 1023.72 243.866 1021.68 243.299Z" fill="#262626"/>
<path d="M923.683 212.63C936.782 212.816 947.552 202.335 947.738 189.219C947.925 176.103 937.457 165.32 924.359 165.134C911.26 164.947 900.49 175.429 900.304 188.545C900.117 201.66 910.585 212.444 923.683 212.63Z" fill="#262626"/>
<path d="M1076.61 254.74C1089.71 254.926 1100.48 244.444 1100.67 231.329C1100.85 218.213 1090.39 207.429 1077.29 207.243C1064.19 207.057 1053.42 217.538 1053.23 230.654C1053.05 243.77 1063.51 254.553 1076.61 254.74Z" fill="#262626"/>
<path d="M861.153 282.885L895.856 251.17L1063.7 297.399L1071.1 340.718L861.153 282.885Z" stroke="#6B6B6B" stroke-width="3.0215" stroke-miterlimit="10" stroke-linecap="round" stroke-linejoin="round"/>
<path d="M890.352 104.678L1149.26 174.52" stroke="#6B6B6B" stroke-width="1.1031" stroke-miterlimit="10" stroke-linecap="square" stroke-linejoin="round"/>
<path d="M884.13 122.013L1143.03 191.856" stroke="#6B6B6B" stroke-width="1.1031" stroke-miterlimit="10" stroke-linecap="square" stroke-linejoin="round"/>
<path d="M986.58 191.271L977.971 222.614" stroke="#6B6B6B" stroke-width="1.1031" stroke-miterlimit="10" stroke-linecap="square" stroke-linejoin="round"/>
<path d="M996.114 193.892L987.492 225.235" stroke="#6B6B6B" stroke-width="1.1031" stroke-miterlimit="10" stroke-linecap="square" stroke-linejoin="round"/>
<path d="M1007 196.891L998.389 228.234" stroke="#6B6B6B" stroke-width="1.1031" stroke-miterlimit="10" stroke-linecap="square" stroke-linejoin="round"/>
<path d="M1019.23 200.268L1010.62 231.611" stroke="#6B6B6B" stroke-width="1.1031" stroke-miterlimit="10" stroke-linecap="square" stroke-linejoin="round"/>
</g>
<g clip-path="url(#clip1)">
<path d="M1095.79 73.6738L857.943 21.6599C850.469 20.0254 845.681 12.5648 847.316 5.09254L878.649 -138.059C880.284 -145.532 887.746 -150.319 895.22 -148.684L1133.06 -96.6702C1140.53 -95.0356 1145.32 -87.5751 1143.69 -80.1028L1112.36 63.0492C1110.73 70.5331 1103.27 75.3083 1095.79 73.6738Z" fill="#303030"/>
<path d="M1098.42 27.9756L875.682 -20.7342C871.279 -21.6916 868.465 -26.0815 869.434 -30.4831L890.782 -128.043C891.739 -132.444 896.13 -135.258 900.533 -134.289L1123.27 -85.5793C1127.67 -84.6219 1130.49 -80.232 1129.52 -75.8304L1108.17 21.7292C1107.21 26.1308 1102.82 28.9446 1098.42 27.9756Z" fill="#EF8B33"/>
<path d="M1079.26 3.9593L903.137 -34.5578C893.433 -36.6827 887.231 -46.35 889.357 -56.0522L891.506 -65.8946C893.631 -75.5968 903.301 -81.7964 913.005 -79.6715L1089.12 -41.1544C1098.83 -39.0295 1105.03 -29.3623 1102.9 -19.66L1100.76 -9.81767C1098.63 -0.12709 1088.96 6.07254 1079.26 3.9593Z" fill="white"/>
<path d="M892.101 22.0562L917.256 -3.46625L1046.99 24.905L1054.37 57.5494L892.101 22.0562Z" stroke="#6B6B6B" stroke-width="2.5253" stroke-miterlimit="10" stroke-linecap="round" stroke-linejoin="round"/>
</g>
<defs>
<clipPath id="clip0">
<rect x="805.329" y="57" width="395.007" height="304.417" transform="rotate(0.814813 805.329 57)" fill="white"/>
</clipPath>
<clipPath id="clip1">
<rect x="847" y="-149" width="297" height="223" fill="white"/>
</clipPath>
</defs>
</svg>
