<?xml version="1.0" encoding="utf-8"?>
<!-- Generator: Adobe Illustrator 24.0.1, SVG Export Plug-In . SVG Version: 6.00 Build 0)  -->
<svg version="1.1" id="Layer_1" xmlns="http://www.w3.org/2000/svg" xmlns:xlink="http://www.w3.org/1999/xlink" x="0px" y="0px"
	 viewBox="0 0 1152 700" style="enable-background:new 0 0 1152 700;" xml:space="preserve">
<style type="text/css">
	.st0{fill:#1C1C1C;}
	.st1{fill:#424242;}
	.st2{fill:#303030;}
	.st3{fill:#D34452;}
	.st4{fill:#FFFFFF;}
	.st5{fill:#262626;}
	.st6{fill:none;stroke:#6B6B6B;stroke-width:2.38;stroke-linecap:round;stroke-linejoin:round;}
	.st7{fill:none;stroke:#6B6B6B;stroke-width:0.87;stroke-linecap:square;stroke-linejoin:round;}
	.st8{fill:none;stroke:#6B6B6B;stroke-width:3.1;stroke-linecap:round;stroke-linejoin:round;}
	.st9{fill:none;stroke:#6B6B6B;stroke-width:1.14;stroke-linecap:square;stroke-linejoin:round;}
	.st10{fill:#EF8B33;}
	.st11{fill:#8632AD;}
	.st12{fill:none;stroke:#6B6B6B;stroke-width:2.82;stroke-linecap:round;stroke-linejoin:round;}
	.st13{fill:none;stroke:#6B6B6B;stroke-width:1.03;stroke-linecap:square;stroke-linejoin:round;}
	.st14{fill:#3B9322;}
	.st15{fill:#38A396;}
	.st16{enable-background:new    ;}
</style>
<title>end</title>
<g id="maintext">
	<path class="st0" d="M198.8,221.6l0.5,40.8L149,263l2.2,164.2l-41.3,0.5l-2.2-164.2l-50.5,0.7l-0.5-40.8L198.8,221.6z"/>
	<path class="st0" d="M257.7,220.8l1.1,82l68.5-0.9l-1.1-82l41.1-0.5l2.7,205l-41.1,0.5l-1.1-82.2l-68.5,0.9l1.1,82.2l-41.1,0.5
		l-2.7-205L257.7,220.8z"/>
	<path class="st0" d="M516.3,216.8l0.5,41.1l-82.4,1.1l0.5,41.3l61.8-0.8l0.5,41.1l-61.8,0.8l0.5,41.3l82.4-1.1l0.5,40.9l-123.6,1.6
		l-2.7-205.8L516.3,216.8z"/>
	<path class="st0" d="M734.1,213.9l0.5,41.1l-82.4,1.1l0.5,41.3l61.8-0.8l0.5,41.1l-61.8,0.8l0.5,41.3l82.4-1.1l0.5,40.9L613,421.2
		l-2.7-205.8L734.1,213.9z"/>
	<path class="st0" d="M876.8,325.9L875.3,212l41.3-0.5l2.8,209.7L794.3,305.1l1.5,113.8l-41.2,0.5l-2.8-209.6L876.8,325.9z"/>
	<path class="st0" d="M996.6,210.9c32.2-0.4,57.6,12,75.3,29.1c18.6,18.2,28,42.2,28.4,72.2s-8.4,54.2-26.5,72.7
		c-19.9,20.3-44.7,30.6-74.5,31l-54.6,0.7L942,211.7l54.6-0.7V210.9z M997.1,251.8l-13.4,0.2l1.6,123.1l13.7-0.2
		c37-0.5,60.7-25.3,60.2-62.4C1058.8,275.8,1034,251.3,997.1,251.8L997.1,251.8z"/>
</g>
<rect x="-6.6" y="-12.5" class="st1" width="1162.9" height="722.6"/>
<g id="Cassette">
	<path class="st2" d="M1219,568.3l-285.5-38.6c-7.5-1-14.3,4.2-15.3,11.7l-23.5,173.9c-1,7.5,4.2,14.3,11.7,15.3l285.5,38.6
		c7.5,1,14.3-4.2,15.3-11.7l23.5-173.9C1231.7,576.1,1226.5,569.3,1219,568.3z"/>
	<path class="st3" d="M1207.7,581.9L942.1,546c-4.4-0.6-8.4,2.5-9,6.9c0,0,0,0,0,0l-15.9,118c-0.6,4.4,2.5,8.4,6.9,9c0,0,0,0,0,0
		l265.6,35.9c4.4,0.6,8.4-2.5,9-6.9c0,0,0,0,0,0l15.9-118C1215.1,586.5,1212.1,582.5,1207.7,581.9z"/>
	<path class="st4" d="M1174.1,636.8l-214.3-28.9c-9.6-1.3-18.5,5.5-19.8,15.1c0,0,0,0,0,0l-2.5,18.2c-1.3,9.6,5.5,18.5,15.1,19.8
		c0,0,0,0,0,0l214.3,28.9c9.6,1.3,18.5-5.5,19.8-15.1c0,0,0,0,0,0l2.5-18.2c1.3-9.6-5.3-18.4-14.9-19.8
		C1174.2,636.8,1174.2,636.8,1174.1,636.8z"/>
	<path class="st5" d="M1090.6,632.1l-53.5-7.2c-1.9-0.2-3.7,1.1-3.9,3l-4.8,35.5c-0.2,1.9,1.1,3.7,3,3.9l53.5,7.2
		c1.9,0.2,3.7-1.1,3.9-3l4.8-35.5C1093.8,634.1,1092.5,632.4,1090.6,632.1z"/>
	<path class="st5" d="M985.5,658c10.9,3.9,22.9-1.8,26.8-12.7c3.9-10.9-1.8-22.9-12.7-26.8c-10.9-3.9-22.9,1.8-26.8,12.7
		C968.9,642,974.6,654.1,985.5,658z"/>
	<path class="st5" d="M1124.9,676.9c10.9,3.9,22.9-1.8,26.8-12.7c3.9-10.9-1.8-22.9-12.7-26.8c-10.9-3.9-22.9,1.8-26.8,12.7
		C1108.3,660.9,1114,673,1124.9,676.9z"/>
	<path class="st6" d="M948.5,728.2l26.7-31.9l152.9,20.7l11.6,37.1L948.5,728.2z"/>
	<path class="st7" d="M953,568.4l235.8,30.6"/>
	<path class="st7" d="M949.6,584.3l235.8,30.6"/>
	<path class="st7" d="M1047.9,632.9l-3.9,28.5"/>
	<path class="st7" d="M1056.6,634.1l-3.9,28.5"/>
	<path class="st7" d="M1066.5,635.5l-3.8,28.5"/>
	<path class="st7" d="M1077.6,637l-3.8,28.5"/>
	<path class="st2" d="M108.1-195.7L-198.3,21.1c-8,5.6-9.9,16.7-4.3,24.6c0,0,0,0.1,0.1,0.1l132,186.6c5.6,8,16.7,9.9,24.6,4.3
		c0,0,0.1,0,0.1-0.1L260.7,19.8c8-5.6,9.9-16.7,4.3-24.6c0,0,0-0.1-0.1-0.1l-132-186.6C127.1-199.4,116.1-201.3,108.1-195.7z"/>
	<path class="st3" d="M109.4-172.6L-175.7,29.1c-4.7,3.3-5.8,9.8-2.5,14.5l89.6,126.7c3.3,4.7,9.8,5.8,14.5,2.5L211.1-29
		c4.7-3.3,5.8-9.8,2.5-14.5L124-170.2C120.6-174.9,114.1-175.9,109.4-172.6z"/>
	<path class="st4" d="M126.2-90.5l-230,162.7c-10.4,7.3-12.8,21.6-5.5,32c0,0,0,0,0,0l13.8,19.6c7.3,10.4,21.6,12.8,32,5.5
		c0,0,0,0,0,0l230-162.7c10.4-7.3,12.8-21.6,5.5-32c0,0,0,0,0,0L158.2-85C150.9-95.4,136.6-97.8,126.2-90.5
		C126.2-90.5,126.2-90.5,126.2-90.5z"/>
	<path class="st5" d="M42.3-20.8l-57.4,40.6c-2,1.5-2.5,4.2-1.1,6.3l27,38.1c1.5,2,4.2,2.5,6.3,1.1l57.4-40.6c2-1.5,2.5-4.2,1.1-6.3
		l-27-38.1c-1.4-2-4.1-2.6-6.1-1.2C42.4-20.9,42.4-20.8,42.3-20.8z"/>
	<path class="st8" d="M-7.8,197l-2.9-54.2L153.5,26.6l44.1,25.1L-7.8,197z"/>
	<path class="st9" d="M-145.4,40.6l251.9-180.2"/>
	<path class="st9" d="M-134.4,58.8l251.9-180.2"/>
	<path class="st9" d="M2.4,17.9L24,48.5"/>
	<path class="st9" d="M11.7,11.4L33.4,42"/>
	<path class="st9" d="M22.3,3.8L44,34.4"/>
	<path class="st9" d="M34.3-4.6L56,25.9"/>
	<path class="st2" d="M-136.1,567.9l34.7,225.9c1.5,9.6,10.5,16.3,20.1,14.8c0,0,0.1,0,0.1,0l371-57c9.6-1.5,16.3-10.5,14.8-20.1
		c0,0,0-0.1,0-0.1L270,505.5c-1.5-9.6-10.5-16.3-20.1-14.8c0,0-0.1,0-0.1,0l-371,57C-130.9,549.2-137.5,558.2-136.1,567.9z"/>
	<path class="st10" d="M-114.9,577.1l23.6,153.4c0.9,5.7,6.2,9.6,11.9,8.7c0,0,0,0,0,0l345.2-53.1c5.7-0.9,9.6-6.2,8.7-11.9
		c0,0,0,0,0,0l-23.6-153.4c-0.9-5.7-6.2-9.6-11.9-8.7c0,0,0,0,0,0l-345.2,53.1C-111.8,566.1-115.7,571.4-114.9,577.1z"/>
	<path class="st4" d="M-80.4,662.1l3.6,23.7c1.9,12.5,13.7,21.1,26.2,19.2l278.4-42.8c12.5-1.9,21.1-13.7,19.2-26.2l-3.6-23.7
		c-1.9-12.5-13.7-21.1-26.2-19.2l-278.4,42.8C-73.7,637.9-82.3,649.6-80.4,662.1z"/>
	<path class="st5" d="M43.8,632.8l7.1,46.1c0.4,2.4,2.7,4.1,5.1,3.8l69.5-10.7c2.4-0.4,4.1-2.7,3.8-5.1l-7.1-46.1
		c-0.4-2.4-2.7-4.1-5.1-3.8l-69.5,10.7C45.2,628.1,43.5,630.4,43.8,632.8z"/>
	<path class="st5" d="M201,623.7c-5.4-14.1-21.2-21.3-35.3-15.9s-21.3,21.2-15.9,35.3c5.4,14.1,21.2,21.3,35.3,15.9c0,0,0,0,0,0
		C199.2,653.6,206.3,637.8,201,623.7z"/>
	<path class="st5" d="M19.9,651.6c-5.4-14.1-21.2-21.2-35.3-15.9c-14.1,5.4-21.2,21.2-15.9,35.3c5.4,14.1,21.2,21.2,35.3,15.9
		C18.1,681.5,25.2,665.7,19.9,651.6z"/>
	<path class="st9" d="M-81.2,587l306.4-45.5"/>
	<path class="st9" d="M-76.3,607.7l306.4-45.5"/>
	<path class="st9" d="M109,664.9l-5.7-37"/>
	<path class="st9" d="M97.7,666.6l-5.7-37"/>
	<path class="st9" d="M84.8,668.6l-5.7-37.1"/>
	<path class="st9" d="M70.3,670.9l-5.7-37.1"/>
	<path class="st2" d="M1114.2,257.9l31.6,205.5c1.4,8.8,9.6,14.8,18.4,13.5l337.5-51.9c8.8-1.4,14.8-9.6,13.5-18.4l-31.6-205.5
		c-1.4-8.8-9.6-14.8-18.4-13.5l-337.5,51.9C1118.9,240.9,1112.8,249.1,1114.2,257.9z"/>
	<path class="st10" d="M1133.5,266.2l21.4,139.5c0.8,5.1,5.6,8.7,10.7,7.9c0,0,0.1,0,0.1,0l314-48.3c5.1-0.8,8.7-5.6,7.9-10.7
		c0,0,0-0.1,0-0.1L1466.2,215c-0.8-5.1-5.6-8.7-10.7-7.9c0,0-0.1,0-0.1,0l-314,48.3C1136.3,256.2,1132.7,261,1133.5,266.2
		C1133.5,266.1,1133.5,266.2,1133.5,266.2z"/>
	<path class="st2" d="M398.4-66.8L430,138.7c1.4,8.8,9.6,14.8,18.4,13.5l337.5-51.9c8.8-1.4,14.8-9.6,13.5-18.4l-31.6-205.5
		c-1.4-8.8-9.6-14.8-18.4-13.5L411.9-85.2C403.1-83.9,397.1-75.7,398.4-66.8C398.4-66.9,398.4-66.8,398.4-66.8z"/>
	<path class="st11" d="M417.7-58.5L439.1,81c0.8,5.1,5.6,8.7,10.7,7.9c0,0,0.1,0,0.1,0l314-48.3c5.1-0.8,8.7-5.6,7.9-10.7
		c0,0,0-0.1,0-0.1l-21.4-139.5c-0.8-5.1-5.6-8.7-10.7-7.9c0,0-0.1,0-0.1,0l-314,48.3C420.5-68.5,416.9-63.7,417.7-58.5
		C417.7-58.6,417.7-58.5,417.7-58.5z"/>
	<path class="st4" d="M449,18.9l3.3,21.5c1.8,11.4,12.4,19.2,23.8,17.5L729.5,19c11.4-1.8,19.2-12.4,17.5-23.8l-3.3-21.5
		c-1.8-11.4-12.4-19.2-23.8-17.5L466.5-5C455.1-3.2,447.3,7.5,449,18.9z"/>
	<path class="st5" d="M562-7.8l6.4,42c0.3,2.2,2.3,3.7,4.5,3.4c0.1,0,0.1,0,0.2,0l63.3-9.7c2.2-0.3,3.7-2.3,3.4-4.5
		c0-0.1,0-0.1,0-0.2l-6.4-42c-0.3-2.2-2.3-3.7-4.5-3.4c-0.1,0-0.1,0-0.2,0l-63.3,9.7C563.2-12.1,561.7-10,562-7.8z"/>
	<path class="st5" d="M705-16.1c-4.9-12.8-19.2-19.3-32.1-14.5c-12.8,4.9-19.3,19.2-14.5,32.1c4.9,12.8,19.2,19.3,32.1,14.5
		C703.4,11.1,709.9-3.2,705-16.1C705-16.1,705-16.1,705-16.1z"/>
	<path class="st5" d="M540.2,9.3C535.3-3.6,521-10.1,508.1-5.2c-12.9,4.9-19.4,19.2-14.5,32.1s19.2,19.4,32.1,14.5c0,0,0,0,0,0
		c12.9-4.8,19.4-19.1,14.5-32C540.2,9.4,540.2,9.3,540.2,9.3z"/>
	<path class="st12" d="M509.7,133.1l13-44.2l180.8-27.8l32.4,37.3L509.7,133.1z"/>
	<path class="st13" d="M621.3,21.4l-5.2-33.7"/>
	<path class="st13" d="M611,23l-5.2-33.7"/>
	<path class="st13" d="M599.3,24.8l-5.2-33.7"/>
	<path class="st13" d="M586.1,26.8l-5.2-33.7"/>
	<path class="st2" d="M421.3,902.3l164.4,127.2c7,5.4,17.1,4.2,22.6-2.9c0,0,0,0,0,0l208.9-270.1c5.4-7,4.2-17.1-2.9-22.6
		c0,0,0,0,0,0L649.9,606.7c-7-5.4-17.1-4.2-22.6,2.9c0,0,0,0,0,0L418.4,879.7c-5.5,7-4.2,17,2.7,22.5
		C421.2,902.2,421.2,902.3,421.3,902.3z"/>
	<path class="st14" d="M441,895.1l111.6,86.4c4.1,3.2,10.1,2.4,13.3-1.7l194.4-251.3c3.2-4.1,2.4-10.1-1.7-13.3L647,628.8
		c-4.1-3.2-10.1-2.4-13.3,1.7L439.3,881.8C436.1,885.9,436.8,891.8,441,895.1C441,895.1,441,895.1,441,895.1z"/>
	<path class="st4" d="M517,929.5l17.2,13.3c9.1,7.1,22.2,5.4,29.3-3.7c0,0,0,0,0,0l156.8-202.7c7.1-9.1,5.4-22.2-3.7-29.3
		c0,0,0,0,0,0l-17.2-13.3c-9.1-7.1-22.2-5.4-29.3,3.7c0,0,0,0,0,0L513.3,900.2C506.2,909.3,507.9,922.4,517,929.5
		C517,929.5,517,929.5,517,929.5z"/>
	<path class="st13" d="M469.4,880.5l173.6-222"/>
	<path class="st13" d="M485.5,891.1l173.6-222"/>
	<path class="st2" d="M914.3,53.8L1078.7,181c7,5.4,17.1,4.2,22.6-2.9c0,0,0,0,0,0L1310.2-92c5.4-7,4.2-17.1-2.9-22.6c0,0,0,0,0,0
		l-164.4-127.2c-7-5.4-17.1-4.2-22.6,2.9c0,0,0,0,0,0L911.4,31.2c-5.5,7-4.2,17,2.7,22.5C914.2,53.7,914.2,53.8,914.3,53.8z"/>
	<path class="st15" d="M934,46.5l111.6,86.4c4.1,3.2,10.1,2.4,13.3-1.7l194.4-251.3c3.2-4.1,2.4-10.1-1.7-13.3L1140-219.8
		c-4.1-3.2-10.1-2.4-13.3,1.7L932.3,33.2C929.1,37.3,929.8,43.2,934,46.5C933.9,46.5,934,46.5,934,46.5z"/>
	<path class="st4" d="M1010,81l17.2,13.3c9.1,7.1,22.2,5.4,29.3-3.7c0,0,0,0,0,0l156.8-202.7c7.1-9.1,5.4-22.2-3.7-29.3c0,0,0,0,0,0
		l-17.2-13.3c-9.1-7.1-22.2-5.4-29.3,3.7c0,0,0,0,0,0L1006.3,51.7C999.2,60.8,1000.9,73.9,1010,81C1010,81,1010,81,1010,81z"/>
	<path class="st5" d="M1073.6-16.1l33.6,26c1.7,1.4,4.2,1.1,5.6-0.6c0,0,0.1-0.1,0.1-0.1l39.2-50.6c1.4-1.7,1.1-4.2-0.6-5.6
		c0,0-0.1-0.1-0.1-0.1l-33.6-26c-1.7-1.4-4.2-1.1-5.6,0.6c0,0-0.1,0.1-0.1,0.1l-39.2,50.6C1071.5-20.1,1071.8-17.6,1073.6-16.1
		C1073.5-16.1,1073.6-16.1,1073.6-16.1z"/>
	<path class="st5" d="M1069.5,11.2c-12.4-6-27.4-0.9-33.4,11.5s-0.9,27.4,11.5,33.4S1075,57,1081,44.6c0,0,0-0.1,0.1-0.1
		c6-12.3,0.9-27.2-11.4-33.2C1069.6,11.3,1069.6,11.2,1069.5,11.2z"/>
	<path class="st12" d="M1132.7,122.1l-21.1-41l111.9-144.7l49.1,4.7L1132.7,122.1z"/>
	<path class="st13" d="M962.4,31.9L1136-190"/>
	<path class="st13" d="M978.5,42.6l173.6-222"/>
</g>
<g class="st16">
	<path class="st4" d="M531.4,528.8c0-4.2,3.2-7.2,7.5-7.2c2.1,0,3.9,0.7,5.2,2.1l-1,1c-1.2-1.2-2.6-1.7-4.2-1.7c-3.4,0-6,2.5-6,5.9
		s2.6,5.9,6,5.9c1.6,0,3.1-0.5,4.2-1.7l1,1c-1.3,1.4-3.1,2.1-5.2,2.1C534.6,536,531.4,532.9,531.4,528.8z"/>
	<path class="st4" d="M547,520.8h1.4v15.1H547V520.8z"/>
	<path class="st4" d="M552.1,521.8c0-0.5,0.5-1,1.1-1s1.1,0.4,1.1,1c0,0.6-0.4,1.1-1.1,1.1C552.6,522.9,552.1,522.4,552.1,521.8z
		 M552.5,525.2h1.4v10.7h-1.4V525.2z"/>
</g>
<g class="st16">
	<path class="st4" d="M556.9,530.5c0-3.2,2.3-5.4,5.5-5.4c1.8,0,3.3,0.7,4.2,2.1l-1.1,0.7c-0.7-1.1-1.9-1.6-3.1-1.6
		c-2.3,0-4.1,1.7-4.1,4.2c0,2.5,1.7,4.2,4.1,4.2c1.2,0,2.4-0.5,3.1-1.6l1.1,0.7c-0.9,1.4-2.4,2.1-4.2,2.1
		C559.2,536,556.9,533.7,556.9,530.5z"/>
</g>
<g class="st16">
	<path class="st4" d="M573.2,530.5l-2.5,2.3v3.1h-1.4v-15.1h1.4V531l6.4-5.8h1.8l-4.6,4.4l5,6.3h-1.8L573.2,530.5z"/>
</g>
<g class="st16">
	<path class="st4" d="M589.9,523h-5v-1.3h11.5v1.3h-5v12.9h-1.5V523z"/>
</g>
<g class="st16">
	<path class="st4" d="M596.3,530.5c0-3.2,2.3-5.4,5.5-5.4s5.4,2.3,5.4,5.4s-2.3,5.5-5.4,5.5S596.3,533.7,596.3,530.5z M605.7,530.5
		c0-2.5-1.7-4.2-4-4.2c-2.3,0-4,1.7-4,4.2s1.7,4.2,4,4.2C604,534.7,605.7,533.1,605.7,530.5z"/>
	<path class="st4" d="M625.5,535.9l-3.3-4.6c-0.4,0-0.7,0.1-1.1,0.1h-3.8v4.5h-1.5v-14.2h5.3c3.6,0,5.8,1.8,5.8,4.9
		c0,2.2-1.2,3.8-3.3,4.5l3.5,4.9H625.5z M625.4,526.5c0-2.3-1.5-3.6-4.4-3.6h-3.8v7.1h3.8C623.9,530.1,625.4,528.8,625.4,526.5z"/>
	<path class="st4" d="M639.5,531h-9c0.2,2.2,1.9,3.7,4.2,3.7c1.3,0,2.5-0.5,3.3-1.4l0.8,0.9c-1,1.1-2.4,1.8-4.1,1.8
		c-3.3,0-5.6-2.3-5.6-5.5s2.2-5.4,5.2-5.4s5.2,2.2,5.2,5.4C639.5,530.7,639.5,530.8,639.5,531z M630.6,529.9h7.6
		c-0.2-2.1-1.7-3.6-3.8-3.6C632.3,526.4,630.7,527.8,630.6,529.9z"/>
	<path class="st4" d="M641,534.7l0.7-1.1c0.9,0.7,2.3,1.2,3.8,1.2c2,0,2.9-0.7,2.9-1.8c0-2.8-6.9-0.6-6.9-4.8c0-1.8,1.5-3.1,4.2-3.1
		c1.4,0,2.9,0.4,3.8,1l-0.6,1.2c-0.9-0.7-2.1-0.9-3.2-0.9c-1.9,0-2.8,0.8-2.8,1.8c0,2.9,6.9,0.7,6.9,4.8c0,1.9-1.6,3.1-4.4,3.1
		C643.6,536,641.9,535.4,641,534.7z"/>
	<path class="st4" d="M658.1,535.2c-0.6,0.5-1.4,0.8-2.3,0.8c-2,0-3.1-1.1-3.1-3.1v-6.5h-1.9v-1.2h1.9v-2.3h1.4v2.3h3.3v1.2h-3.3
		v6.4c0,1.3,0.7,2,1.9,2c0.6,0,1.2-0.2,1.6-0.5L658.1,535.2z"/>
	<path class="st4" d="M668.8,529.3v6.6h-1.4v-1.7c-0.7,1.1-1.9,1.8-3.7,1.8c-2.4,0-3.9-1.3-3.9-3.1c0-1.6,1.1-3,4.1-3h3.4v-0.7
		c0-1.8-1-2.8-3-2.8c-1.4,0-2.7,0.5-3.6,1.3l-0.7-1.1c1.1-0.9,2.7-1.4,4.4-1.4C667.2,525.1,668.8,526.5,668.8,529.3z M667.4,532.7
		v-1.8H664c-2.1,0-2.7,0.8-2.7,1.9c0,1.2,1,2,2.7,2C665.6,534.9,666.8,534.1,667.4,532.7z"/>
</g>
<g class="st16">
	<path class="st4" d="M678.1,525.1v1.4c-0.1,0-0.2,0-0.3,0c-2.2,0-3.6,1.4-3.6,3.9v5.5h-1.4v-10.7h1.4v2.1
		C674.8,525.9,676.1,525.1,678.1,525.1z"/>
</g>
<g class="st16">
	<path class="st4" d="M686.8,535.2c-0.6,0.5-1.4,0.8-2.3,0.8c-2,0-3.1-1.1-3.1-3.1v-6.5h-1.9v-1.2h1.9v-2.3h1.4v2.3h3.3v1.2h-3.3
		v6.4c0,1.3,0.7,2,1.9,2c0.6,0,1.2-0.2,1.6-0.5L686.8,535.2z"/>
</g>
</svg>
