<svg id="Layer_1" data-name="Layer 1" xmlns="http://www.w3.org/2000/svg" viewBox="0 0 1056.85 227.57"><defs><style>.cls-1{fill:#1c1c1c;}.cls-2{fill:none;stroke:#fff;stroke-miterlimit:10;stroke-width:2.65px;}</style></defs><title>endtext</title><g id="maintext"><path class="cls-1" d="M201.1,238.69l.5,40.8-50.3.6,2.2,164.2-41.3.5L110,280.59l-50.5.7-.5-40.8Z" transform="translate(-45.76 -217.21)"/><path class="cls-1" d="M260,237.89l1.1,82,68.5-.9-1.1-82,41.1-.5,2.7,205-41.1.5-1.1-82.2-68.5.9,1.1,82.2-41.1.5-2.7-205Z" transform="translate(-45.76 -217.21)"/><path class="cls-1" d="M518.6,233.89l.5,41.1-82.4,1.1.5,41.3,61.8-.8.5,41.1-61.8.8.5,41.3,82.4-1.1.5,40.9-123.6,1.6-2.7-205.8Z" transform="translate(-45.76 -217.21)"/><path class="cls-1" d="M736.4,231l.5,41.1-82.4,1.1.5,41.3,61.8-.8.5,41.1-61.8.8.5,41.3,82.4-1.1.5,40.9-123.6,1.6-2.7-205.8Z" transform="translate(-45.76 -217.21)"/><path class="cls-1" d="M879.1,343l-1.5-113.9,41.3-.5,2.8,209.7L796.6,322.19,798.1,436l-41.2.5-2.8-209.6Z" transform="translate(-45.76 -217.21)"/><path class="cls-1" d="M998.9,228c32.2-.4,57.6,12,75.3,29.1,18.6,18.2,28,42.2,28.4,72.2s-8.4,54.2-26.5,72.7q-29.85,30.45-74.5,31l-54.6.7-2.7-204.9,54.6-.7Zm.5,40.9-13.4.2,1.6,123.1,13.7-.2c37-.5,60.7-25.3,60.2-62.4C1061.1,292.89,1036.3,268.39,999.4,268.89Z" transform="translate(-45.76 -217.21)"/></g><g id="stroke"><path class="cls-2" d="M189.3,232.09l.5,40.8-50.4.7,2.2,164.2-41.3.5-2.2-164.2-50.5.7L47.1,234Z" transform="translate(-45.76 -217.21)"/><path class="cls-2" d="M248.1,231.29l1.1,82,68.5-.9-1.1-82,41.1-.5,2.7,205-41.1.5-1.1-82.2-68.5.9,1.1,82.2-41.1.5-2.7-205Z" transform="translate(-45.76 -217.21)"/><path class="cls-2" d="M506.8,227.39l.5,41.1-82.4,1.1.5,41.3,61.8-.8.5,41.1-61.8.8.5,41.3,82.4-1.1.5,40.9-123.6,1.6L383,228.89Z" transform="translate(-45.76 -217.21)"/><path class="cls-2" d="M724.5,224.49l.5,41.1-82.4,1.1.5,41.3,61.8-.8.5,41.1-61.8.8.5,41.3,82.4-1.1.5,40.9-123.6,1.6-2.5-205.7Z" transform="translate(-45.76 -217.21)"/><path class="cls-2" d="M867.3,336.39l-1.5-113.8,41.3-.5,2.8,209.7L784.7,315.59l1.5,113.8-41.2.5-2.8-209.6Z" transform="translate(-45.76 -217.21)"/><path class="cls-2" d="M987.1,221.49c32.2-.4,57.6,12,75.3,29.1,18.6,18.2,28,42.2,28.4,72.2s-8.4,54.2-26.5,72.7q-29.85,30.45-74.5,31l-54.6.7-2.7-204.9,54.6-.7Zm.4,40.8-13.4.2,1.6,123.1,13.7-.2c37-.5,60.7-25.3,60.2-62.4C1049.3,286.39,1024.4,261.79,987.5,262.29Z" transform="translate(-45.76 -217.21)"/></g></svg>