<svg width="223" height="57" viewBox="0 0 223 57" fill="none" xmlns="http://www.w3.org/2000/svg">
<path d="M194.827 0.842163H28.9995C13.4876 0.842163 0.91272 13.4125 0.91272 28.9189C0.91272 44.4252 13.4876 56.9956 28.9995 56.9956H194.827C210.339 56.9956 222.913 44.4252 222.913 28.9189C222.913 13.4125 210.339 0.842163 194.827 0.842163Z" fill="white"/>
<path d="M33.5076 32.1589L34.0982 31.0214C35.3858 32.1443 37.0418 32.7542 38.7505 32.7348C41.4007 32.7348 42.5385 31.6261 42.5385 30.2295C42.5385 26.3564 33.8965 28.7896 33.8965 23.5055C33.8965 21.4321 35.5097 19.6323 39.0961 19.6323C40.6265 19.6294 42.1258 20.064 43.4172 20.885L42.913 22.0801C41.7596 21.3292 40.415 20.9244 39.0385 20.9138C36.4603 20.9138 35.3081 22.0657 35.3081 23.4767C35.3081 27.3498 43.9501 25.0029 43.9501 30.1431C43.9501 32.2309 42.2937 34.0018 38.6784 34.0018C36.7858 34.0497 34.943 33.3929 33.5076 32.1589Z" fill="#1C1C1C"/>
<path d="M45.909 28.5735C45.8843 27.8536 46.0092 27.1363 46.2757 26.467C46.5423 25.7977 46.9448 25.1908 47.4577 24.6848C47.9707 24.1788 48.583 23.7846 49.256 23.5271C49.929 23.2696 50.6481 23.1542 51.368 23.1885C52.1857 23.1402 53.0017 23.3093 53.7329 23.6785C54.464 24.0478 55.0843 24.604 55.5306 25.2907L54.4504 26.0106C54.1106 25.5104 53.6499 25.1042 53.111 24.8298C52.5721 24.5555 51.9725 24.4218 51.368 24.4412C50.2716 24.4412 49.2202 24.8765 48.4449 25.6515C47.6697 26.4265 47.2342 27.4776 47.2342 28.5735C47.2342 29.6695 47.6697 30.7206 48.4449 31.4955C49.2202 32.2705 50.2716 32.7059 51.368 32.7059C51.9718 32.731 52.572 32.6012 53.1115 32.3291C53.651 32.0569 54.1119 31.6513 54.4504 31.1508L55.5306 31.8852C55.0777 32.5634 54.4552 33.1115 53.7251 33.4752C52.9949 33.8388 52.1824 34.0055 51.368 33.9586C50.6487 33.9906 49.9305 33.8738 49.2585 33.6155C48.5864 33.3572 47.975 32.9629 47.4625 32.4574C46.95 31.9518 46.5475 31.3459 46.2802 30.6775C46.0129 30.0092 45.8865 29.2929 45.909 28.5735Z" fill="#1C1C1C"/>
<path d="M63.6685 23.1884V24.6283H63.3228C61.1047 24.6283 59.7507 26.0681 59.7507 28.5446V33.944H58.3104V23.3468H59.6787V25.3194C60.0514 24.6036 60.6317 24.017 61.3437 23.6367C62.0557 23.2565 62.8661 23.1002 63.6685 23.1884Z" fill="#1C1C1C"/>
<path d="M65.08 28.5736C65.08 27.5057 65.3968 26.4618 65.9903 25.5738C66.5838 24.6859 67.4274 23.9938 68.4143 23.5852C69.4013 23.1765 70.4873 23.0696 71.5351 23.278C72.5828 23.4863 73.5453 24.0005 74.3006 24.7556C75.056 25.5107 75.5704 26.4728 75.7788 27.5202C75.9872 28.5676 75.8803 29.6532 75.4715 30.6399C75.0627 31.6265 74.3704 32.4697 73.4821 33.063C72.5939 33.6563 71.5496 33.973 70.4814 33.973C69.7655 33.9971 69.0524 33.8738 68.3862 33.611C67.72 33.3482 67.1149 32.9514 66.6084 32.4451C66.102 31.9388 65.705 31.334 65.4421 30.668C65.1792 30.002 65.056 29.2892 65.08 28.5736ZM74.4135 28.5736C74.3768 27.8017 74.1142 27.0576 73.6582 26.4337C73.2023 25.8097 72.573 25.3333 71.8486 25.0636C71.1242 24.794 70.3365 24.7429 69.5833 24.9168C68.8302 25.0907 68.1446 25.4818 67.6119 26.0417C67.0791 26.6016 66.7225 27.3056 66.5865 28.0662C66.4504 28.8269 66.5408 29.6108 66.8464 30.3205C67.152 31.0303 67.6594 31.6347 68.3056 32.0588C68.9518 32.4828 69.7084 32.7079 70.4814 32.7059C71.0176 32.7151 71.5498 32.6129 72.0445 32.4058C72.5391 32.1987 72.9854 31.8912 73.355 31.5028C73.7246 31.1143 74.0095 30.6534 74.1917 30.1492C74.3739 29.645 74.4494 29.1085 74.4135 28.5736Z" fill="#1C1C1C"/>
<path d="M78.7921 18.9122H80.2325V33.8722H78.7921V18.9122Z" fill="#1C1C1C"/>
<path d="M84.2222 18.9122H85.6626V33.8722H84.2222V18.9122Z" fill="#1C1C1C"/>
<path d="M96.7247 20.9998V26.5432H104.085V27.8247H96.7823V33.8145H95.3419V19.704H105.021V20.9998H96.7247Z" fill="#1C1C1C"/>
<path d="M106.26 28.5736C106.26 27.5057 106.576 26.4617 107.17 25.5738C107.763 24.6859 108.607 23.9938 109.594 23.5852C110.581 23.1765 111.667 23.0696 112.715 23.278C113.762 23.4863 114.725 24.0005 115.48 24.7556C116.236 25.5107 116.75 26.4728 116.958 27.5202C117.167 28.5676 117.06 29.6532 116.651 30.6398C116.242 31.6264 115.55 32.4697 114.662 33.063C113.773 33.6563 112.729 33.973 111.661 33.973C110.945 33.9992 110.23 33.8774 109.563 33.6154C108.896 33.3533 108.29 32.9565 107.783 32.4498C107.276 31.9431 106.879 31.3373 106.617 30.6704C106.355 30.0035 106.233 29.2897 106.26 28.5736ZM115.593 28.5736C115.556 27.8017 115.294 27.0576 114.838 26.4336C114.382 25.8097 113.753 25.3333 113.028 25.0636C112.304 24.794 111.516 24.7429 110.763 24.9168C110.01 25.0907 109.324 25.4818 108.791 26.0417C108.259 26.6016 107.902 27.3055 107.766 28.0662C107.63 28.8269 107.72 29.6107 108.026 30.3205C108.332 31.0303 108.839 31.6347 109.485 32.0587C110.131 32.4828 110.888 32.7078 111.661 32.7059C112.198 32.7171 112.732 32.6164 113.229 32.4102C113.725 32.204 114.173 31.8968 114.544 31.5081C114.915 31.1195 115.201 30.6579 115.385 30.1527C115.568 29.6474 115.644 29.1097 115.607 28.5736H115.593Z" fill="#1C1C1C"/>
<path d="M125.315 23.1885V24.6283H124.97C122.752 24.6283 121.398 26.0681 121.398 28.5447V33.9441H119.957V23.3469H121.398V25.3194C121.766 24.6159 122.335 24.0376 123.032 23.6582C123.73 23.2787 124.525 23.1152 125.315 23.1885Z" fill="#1C1C1C"/>
<path d="M148.303 19.7617V33.8721H146.863V22.5838L141.318 32.0867H140.612L135.052 22.6414V33.8721H133.612V19.7617H134.836L140.972 30.2293L147.05 19.7617H148.303Z" fill="#1C1C1C"/>
<path d="M162.16 23.2749V33.872H160.791V31.9427C160.397 32.5937 159.835 33.1261 159.163 33.4834C158.491 33.8408 157.734 34.0099 156.974 33.9728C156.365 34.0326 155.75 33.9554 155.174 33.7468C154.599 33.5382 154.077 33.2035 153.647 32.7673C153.218 32.3311 152.892 31.8044 152.692 31.2257C152.493 30.647 152.425 30.0311 152.495 29.423V23.2749H153.935V29.279C153.868 29.7238 153.903 30.178 154.037 30.6075C154.171 31.0369 154.4 31.4306 154.708 31.7589C155.015 32.0871 155.393 32.3416 155.813 32.5031C156.233 32.6646 156.684 32.7289 157.133 32.6913C157.635 32.7183 158.138 32.6348 158.604 32.4466C159.071 32.2585 159.491 31.9703 159.834 31.6024C160.178 31.2345 160.436 30.7958 160.592 30.3173C160.747 29.8387 160.795 29.3319 160.734 28.8326V23.2749H162.16Z" fill="#1C1C1C"/>
<path d="M164.695 32.6625L165.343 31.5394C166.443 32.3267 167.764 32.7451 169.116 32.7345C171.133 32.7345 171.997 32.0434 171.997 30.9923C171.997 28.2278 165.112 30.4164 165.112 26.212C165.112 24.4842 166.553 23.1883 169.318 23.1883C170.634 23.1713 171.929 23.5149 173.063 24.1818L172.444 25.3193C171.514 24.7163 170.426 24.4054 169.318 24.4266C167.402 24.4266 166.553 25.1609 166.553 26.1688C166.553 29.0485 173.437 26.8744 173.437 30.9491C173.437 32.7921 171.81 33.9728 169.116 33.9728C167.537 34.0422 165.981 33.5809 164.695 32.6625Z" fill="#1C1C1C"/>
<path d="M175.699 19.9201C175.706 19.6476 175.821 19.3891 176.018 19.2005C176.214 19.0119 176.478 18.9083 176.75 18.9122C176.885 18.9083 177.018 18.931 177.144 18.9789C177.269 19.0267 177.384 19.0988 177.482 19.1911C177.579 19.2834 177.658 19.394 177.713 19.5166C177.768 19.6392 177.798 19.7714 177.802 19.9056C177.802 20.1844 177.691 20.4518 177.494 20.6489C177.296 20.846 177.029 20.9567 176.75 20.9567C176.471 20.9567 176.204 20.846 176.007 20.6489C175.81 20.4518 175.699 20.1844 175.699 19.9056V19.9201ZM176.03 23.2749H177.47V33.8721H176.03V23.2749Z" fill="#1C1C1C"/>
<path d="M180.423 28.5734C180.401 27.8527 180.527 27.1351 180.795 26.4658C181.064 25.7965 181.467 25.1898 181.981 24.6841C182.496 24.1783 183.109 23.7844 183.782 23.5269C184.456 23.2695 185.176 23.1543 185.896 23.1884C186.712 23.1412 187.526 23.3109 188.254 23.6801C188.983 24.0494 189.601 24.6051 190.045 25.2906L188.979 26.0105C188.638 25.5113 188.177 25.1058 187.638 24.8315C187.1 24.5573 186.501 24.423 185.896 24.4411C184.8 24.4411 183.749 24.8764 182.973 25.6514C182.198 26.4263 181.763 27.4774 181.763 28.5734C181.763 29.6694 182.198 30.7204 182.973 31.4954C183.749 32.2703 184.8 32.7057 185.896 32.7057C186.5 32.7294 187.1 32.5991 187.639 32.327C188.178 32.055 188.639 31.6501 188.979 31.1507L190.045 31.885C189.595 32.5637 188.975 33.1133 188.248 33.4794C187.52 33.8456 186.71 34.0156 185.896 33.9728C185.175 34.0048 184.455 33.8877 183.781 33.6286C183.108 33.3696 182.495 32.9742 181.981 32.4673C181.467 31.9604 181.063 31.3529 180.795 30.6829C180.527 30.0128 180.401 29.2947 180.423 28.5734Z" fill="#1C1C1C"/>
</svg>
