<svg width="281" height="15" viewBox="0 0 281 15" fill="none" xmlns="http://www.w3.org/2000/svg">
<path d="M11.466 14H12.87L7.11 1.4H5.796L0.036 14H1.422L2.934 10.634H9.954L11.466 14ZM3.42 9.554L6.444 2.786L9.468 9.554H3.42ZM19.5083 4.46C17.8703 4.46 16.5923 5.126 15.9083 6.278V4.532H14.6843V14H15.9623V9.032C15.9623 6.872 17.2403 5.612 19.2743 5.612C21.0743 5.612 22.1183 6.638 22.1183 8.636V14H23.3963V8.51C23.3963 5.792 21.8123 4.46 19.5083 4.46ZM31.8469 14H33.1789V1.4H31.8469V14ZM41.8326 4.46C40.1946 4.46 38.9166 5.126 38.2326 6.278V4.532H37.0086V14H38.2866V9.032C38.2866 6.872 39.5646 5.612 41.5986 5.612C43.3986 5.612 44.4426 6.638 44.4426 8.636V14H45.7206V8.51C45.7206 5.792 44.1366 4.46 41.8326 4.46ZM53.7262 12.506C53.3662 12.83 52.8442 12.992 52.3222 12.992C51.2602 12.992 50.6842 12.38 50.6842 11.264V5.612H53.5642V4.532H50.6842V2.462H49.4062V4.532H47.7142V5.612H49.4062V11.336C49.4062 13.082 50.3962 14.09 52.1782 14.09C52.9162 14.09 53.6722 13.874 54.1762 13.424L53.7262 12.506ZM64.4307 9.266C64.4307 6.422 62.5047 4.46 59.8407 4.46C57.1767 4.46 55.2147 6.458 55.2147 9.266C55.2147 12.074 57.2307 14.09 60.1827 14.09C61.6767 14.09 62.9907 13.55 63.8367 12.542L63.1167 11.714C62.3967 12.542 61.3707 12.956 60.2187 12.956C58.1487 12.956 56.6367 11.642 56.4927 9.662H64.4127C64.4127 9.518 64.4307 9.374 64.4307 9.266ZM59.8407 5.558C61.6947 5.558 63.0447 6.854 63.2067 8.708H56.4927C56.6547 6.854 58.0047 5.558 59.8407 5.558ZM68.256 6.386V4.532H67.032V14H68.31V9.176C68.31 6.944 69.516 5.684 71.496 5.684C71.586 5.684 71.694 5.702 71.802 5.702V4.46C70.056 4.46 68.85 5.126 68.256 6.386ZM77.4104 4.46C75.9164 4.46 74.5124 4.928 73.5584 5.738L74.1344 6.692C74.9084 6.008 76.0604 5.576 77.2844 5.576C79.0484 5.576 79.9664 6.458 79.9664 8.078V8.654H76.9604C74.2424 8.654 73.3064 9.878 73.3064 11.336C73.3064 12.974 74.6204 14.09 76.7624 14.09C78.3284 14.09 79.4444 13.496 80.0204 12.524V14H81.2444V8.132C81.2444 5.684 79.8584 4.46 77.4104 4.46ZM76.9604 13.082C75.4484 13.082 74.5664 12.398 74.5664 11.3C74.5664 10.328 75.1604 9.608 76.9964 9.608H79.9664V11.156C79.4624 12.398 78.4004 13.082 76.9604 13.082ZM88.6748 14.09C90.2768 14.09 91.6268 13.442 92.3828 12.218L91.4288 11.57C90.7808 12.524 89.7728 12.956 88.6748 12.956C86.6048 12.956 85.0928 11.498 85.0928 9.266C85.0928 7.052 86.6048 5.576 88.6748 5.576C89.7728 5.576 90.7808 6.026 91.4288 6.98L92.3828 6.332C91.6268 5.09 90.2768 4.46 88.6748 4.46C85.8488 4.46 83.7968 6.44 83.7968 9.266C83.7968 12.092 85.8488 14.09 88.6748 14.09ZM99.5348 12.506C99.1748 12.83 98.6528 12.992 98.1308 12.992C97.0688 12.992 96.4928 12.38 96.4928 11.264V5.612H99.3728V4.532H96.4928V2.462H95.2148V4.532H93.5228V5.612H95.2148V11.336C95.2148 13.082 96.2048 14.09 97.9868 14.09C98.7248 14.09 99.4808 13.874 99.9848 13.424L99.5348 12.506ZM102.959 2.462C103.499 2.462 103.895 2.048 103.895 1.526C103.895 1.04 103.481 0.643999 102.959 0.643999C102.437 0.643999 102.023 1.058 102.023 1.544C102.023 2.048 102.437 2.462 102.959 2.462ZM102.311 14H103.589V4.532H102.311V14ZM113.841 4.532L110.259 12.596L106.713 4.532H105.381L109.575 14H110.889L115.101 4.532H113.841ZM124.899 9.266C124.899 6.422 122.973 4.46 120.309 4.46C117.645 4.46 115.683 6.458 115.683 9.266C115.683 12.074 117.699 14.09 120.651 14.09C122.145 14.09 123.459 13.55 124.305 12.542L123.585 11.714C122.865 12.542 121.839 12.956 120.687 12.956C118.617 12.956 117.105 11.642 116.961 9.662H124.881C124.881 9.518 124.899 9.374 124.899 9.266ZM120.309 5.558C122.163 5.558 123.513 6.854 123.675 8.708H116.961C117.123 6.854 118.473 5.558 120.309 5.558ZM144.47 1.4L139.052 10.742L133.58 1.4H132.482V14H133.76V3.974L138.71 12.398H139.34L144.29 3.92V14H145.568V1.4H144.47ZM156.657 4.532V9.5C156.657 11.66 155.415 12.938 153.435 12.938C151.635 12.938 150.591 11.912 150.591 9.896V4.532H149.313V10.022C149.313 12.74 150.897 14.09 153.309 14.09C154.821 14.09 156.045 13.424 156.711 12.272V14H157.935V4.532H156.657ZM164.052 14.09C166.518 14.09 167.958 13.028 167.958 11.39C167.958 7.754 161.82 9.68 161.82 7.124C161.82 6.224 162.576 5.558 164.286 5.558C165.258 5.558 166.248 5.792 167.076 6.368L167.634 5.342C166.842 4.802 165.51 4.46 164.286 4.46C161.874 4.46 160.542 5.612 160.542 7.16C160.542 10.904 166.68 8.96 166.68 11.426C166.68 12.362 165.942 12.974 164.142 12.974C162.81 12.974 161.532 12.506 160.776 11.912L160.2 12.92C160.974 13.586 162.486 14.09 164.052 14.09ZM170.969 2.462C171.509 2.462 171.905 2.048 171.905 1.526C171.905 1.04 171.491 0.643999 170.969 0.643999C170.447 0.643999 170.033 1.058 170.033 1.544C170.033 2.048 170.447 2.462 170.969 2.462ZM170.321 14H171.599V4.532H170.321V14ZM179.079 14.09C180.681 14.09 182.031 13.442 182.787 12.218L181.833 11.57C181.185 12.524 180.177 12.956 179.079 12.956C177.009 12.956 175.497 11.498 175.497 9.266C175.497 7.052 177.009 5.576 179.079 5.576C180.177 5.576 181.185 6.026 181.833 6.98L182.787 6.332C182.031 5.09 180.681 4.46 179.079 4.46C176.253 4.46 174.201 6.44 174.201 9.266C174.201 12.092 176.253 14.09 179.079 14.09ZM188.61 4.46C187.116 4.46 185.712 4.928 184.758 5.738L185.334 6.692C186.108 6.008 187.26 5.576 188.484 5.576C190.248 5.576 191.166 6.458 191.166 8.078V8.654H188.16C185.442 8.654 184.506 9.878 184.506 11.336C184.506 12.974 185.82 14.09 187.962 14.09C189.528 14.09 190.644 13.496 191.22 12.524V14H192.444V8.132C192.444 5.684 191.058 4.46 188.61 4.46ZM188.16 13.082C186.648 13.082 185.766 12.398 185.766 11.3C185.766 10.328 186.36 9.608 188.196 9.608H191.166V11.156C190.662 12.398 189.6 13.082 188.16 13.082ZM195.915 14H197.193V0.643999H195.915V14ZM208.178 14H209.51V2.552H213.938V1.4H203.75V2.552H208.178V14ZM216.198 2.462C216.738 2.462 217.134 2.048 217.134 1.526C217.134 1.04 216.72 0.643999 216.198 0.643999C215.676 0.643999 215.262 1.058 215.262 1.544C215.262 2.048 215.676 2.462 216.198 2.462ZM215.55 14H216.828V4.532H215.55V14ZM232.192 4.46C230.482 4.46 229.132 5.234 228.448 6.458C227.872 5.126 226.648 4.46 225.082 4.46C223.498 4.46 222.274 5.126 221.608 6.26V4.532H220.384V14H221.662V9.032C221.662 6.872 222.904 5.612 224.83 5.612C226.558 5.612 227.566 6.638 227.566 8.636V14H228.844V9.032C228.844 6.872 230.068 5.612 232.012 5.612C233.722 5.612 234.73 6.638 234.73 8.636V14H236.008V8.51C236.008 5.792 234.496 4.46 232.192 4.46ZM247.771 9.266C247.771 6.422 245.845 4.46 243.181 4.46C240.517 4.46 238.555 6.458 238.555 9.266C238.555 12.074 240.571 14.09 243.523 14.09C245.017 14.09 246.331 13.55 247.177 12.542L246.457 11.714C245.737 12.542 244.711 12.956 243.559 12.956C241.489 12.956 239.977 11.642 239.833 9.662H247.753C247.753 9.518 247.771 9.374 247.771 9.266ZM243.181 5.558C245.035 5.558 246.385 6.854 246.547 8.708H239.833C239.995 6.854 241.345 5.558 243.181 5.558ZM250.372 14H251.65V0.643999H250.372V14ZM255.854 2.462C256.394 2.462 256.79 2.048 256.79 1.526C256.79 1.04 256.376 0.643999 255.854 0.643999C255.332 0.643999 254.918 1.058 254.918 1.544C254.918 2.048 255.332 2.462 255.854 2.462ZM255.206 14H256.484V4.532H255.206V14ZM264.864 4.46C263.226 4.46 261.948 5.126 261.264 6.278V4.532H260.04V14H261.318V9.032C261.318 6.872 262.596 5.612 264.63 5.612C266.43 5.612 267.474 6.638 267.474 8.636V14H268.752V8.51C268.752 5.792 267.168 4.46 264.864 4.46ZM280.519 9.266C280.519 6.422 278.593 4.46 275.929 4.46C273.265 4.46 271.303 6.458 271.303 9.266C271.303 12.074 273.319 14.09 276.271 14.09C277.765 14.09 279.079 13.55 279.925 12.542L279.205 11.714C278.485 12.542 277.459 12.956 276.307 12.956C274.237 12.956 272.725 11.642 272.581 9.662H280.501C280.501 9.518 280.519 9.374 280.519 9.266ZM275.929 5.558C277.783 5.558 279.133 6.854 279.295 8.708H272.581C272.743 6.854 274.093 5.558 275.929 5.558Z" fill="white"/>
</svg>
