<svg width="1100" height="159" viewBox="0 0 1100 159" fill="none" xmlns="http://www.w3.org/2000/svg">
<path d="M83.4603 66.8777C87.4811 68.8402 91.2288 71.3184 94.6086 74.2496C103.079 82.8198 107.829 94.3821 107.829 106.43C107.829 118.478 103.079 130.04 94.6086 138.61C90.4966 142.947 85.5292 146.384 80.0203 148.704C74.5115 151.024 68.5811 152.176 62.6041 152.087H8.73511V7.18214H49.1945C54.5672 7.10146 59.8988 8.13019 64.8556 10.2039C69.8123 12.2775 74.2876 15.3516 78.0014 19.2336C81.6894 22.8163 84.612 27.1096 86.5926 31.8539C88.5731 36.5981 89.5704 41.6946 89.5242 46.8352C89.481 53.7752 86.1394 62.1118 83.4603 66.8777ZM49.1945 35.4605H37.8157V61.9822C40.3939 61.8526 44.0092 61.6223 48.6903 61.2623C55.5896 60.4848 61.4662 55.3158 61.4662 47.9582C61.4742 44.6809 60.1911 41.5322 57.8945 39.1933C55.5979 36.8545 52.4725 35.5135 49.1945 35.4605ZM79.4417 106.387C79.3809 101.854 77.6196 97.5099 74.5066 94.2141C71.3936 90.9182 67.156 88.9111 62.6329 88.5903C53.9908 88.1152 46.5298 88.5039 37.8157 88.5039V123.65H62.6041C64.8403 123.628 67.0501 123.164 69.1065 122.285C71.1629 121.407 73.0255 120.131 74.5873 118.531C76.1492 116.931 77.3794 115.038 78.2076 112.962C79.0357 110.885 79.4453 108.665 79.4129 106.43L79.4417 106.387Z" fill="#1C1C1C"/>
<path d="M172.128 4.21631L238.312 152.087H206.754L196.945 130.058H147.282L137.488 152.087H106.031L172.128 4.21631ZM185.437 104.357L172.215 73.7027L158.805 104.357H185.437Z" fill="#1C1C1C"/>
<path d="M325.64 66.8779C329.659 68.8441 333.406 71.322 336.789 74.2498C345.259 82.8201 350.009 94.3824 350.009 106.43C350.009 118.478 345.259 130.04 336.789 138.61C332.675 142.949 327.705 146.387 322.194 148.707C316.682 151.027 310.749 152.178 304.77 152.087H250.901V7.18235H291.317C296.689 7.10427 302.02 8.13416 306.976 10.2077C311.933 12.2812 316.408 15.3539 320.124 19.2338C323.812 22.8165 326.734 27.1099 328.715 31.8541C330.695 36.5983 331.693 41.6948 331.646 46.8354C331.646 53.7754 328.319 62.112 325.64 66.8779ZM291.317 35.4607H279.895V61.9825C282.473 61.8529 286.103 61.6225 290.784 61.2626C297.669 60.485 303.545 55.316 303.545 47.9585C303.553 44.6885 302.276 41.5461 299.989 39.2085C297.702 36.8708 294.587 35.5249 291.317 35.4607ZM321.564 106.387C321.503 101.852 319.74 97.5059 316.624 94.2097C313.508 90.9135 309.266 88.9079 304.741 88.5906C296.099 88.1154 288.652 88.5042 279.924 88.5042V123.651H304.741C306.978 123.63 309.19 123.167 311.248 122.29C313.306 121.412 315.17 120.136 316.733 118.536C318.297 116.936 319.528 115.043 320.357 112.965C321.186 110.887 321.596 108.667 321.564 106.43V106.387Z" fill="#1C1C1C"/>
<path d="M366.56 7.18237L392.991 57.4326L419.508 7.18237H452.506L407.538 89.9728V152.087H378.587V89.9728L333.706 7.18237H366.56Z" fill="#1C1C1C"/>
<path d="M503.61 7.18236C513.411 7.03654 523.144 8.84606 532.237 12.505C541.331 16.164 549.604 21.5989 556.571 28.4919C569.515 41.4888 575.992 58.5844 576.001 79.7788C576.011 100.973 569.534 118.006 556.571 130.878C542.293 145.018 524.639 152.087 503.61 152.087H465.023V7.28315H503.61V7.18236ZM503.509 35.979H494.074V123.003H503.782C529.91 123.003 546.993 105.725 546.993 79.4908C546.95 53.617 529.622 36.0366 503.509 36.0366V35.979Z" fill="#1C1C1C"/>
<path d="M588.59 7.18237H635.891C652.023 7.18237 665.072 13.2729 673.83 21.9263C682.587 30.5797 687.859 38.8011 687.859 54.8265V58.5988C687.827 68.5289 684.645 78.193 678.77 86.2004C673.671 93.3276 669.638 96.3657 661.414 99.5909L695.06 152.087H659.441L617.815 87.9858V152.087H588.677L588.59 7.18237ZM657.828 55.7335C657.836 53.145 657.332 50.5804 656.343 48.1881C655.354 45.7957 653.9 43.6232 652.066 41.796C648.278 38.1244 641.105 36.0366 634.076 36.0366H617.728V76.0496H628.963V76.136H638.671C649.286 76.136 657.828 66.7771 657.828 55.7335Z" fill="#1C1C1C"/>
<path d="M707.577 7.18237H736.715V152.087H707.577V7.18237Z" fill="#1C1C1C"/>
<path d="M814.667 155.327L749.347 7.18237H780.185L814.638 86.5604L849.206 7.18237H880.404L814.667 155.327Z" fill="#1C1C1C"/>
<path d="M980.307 6.82229V35.8637H922.03V65.078H965.745V94.1194H922.03V123.29H980.307V152.231H892.907V6.80792L980.307 6.82229Z" fill="#1C1C1C"/>
<path d="M992.896 7.18237H1040.2C1056.34 7.18237 1069.39 13.2729 1078.15 21.9263C1086.91 30.5797 1092.15 38.8011 1092.15 54.8265V58.5988C1092.1 68.5396 1088.89 78.2063 1082.97 86.2004C1077.89 93.3276 1073.86 96.3657 1065.69 99.5909L1099.35 152.087H1063.76L1022.12 87.9858V152.087H992.996L992.896 7.18237ZM1062.15 55.7335C1062.16 53.1447 1061.66 50.5794 1060.67 48.1867C1059.68 45.7941 1058.22 43.6217 1056.39 41.796C1052.61 38.1244 1045.43 36.0366 1038.41 36.0366H1022.03V76.0496H1033.28V76.136H1042.99C1053.61 76.136 1062.15 66.7771 1062.15 55.7335Z" fill="#1C1C1C"/>
<path d="M76.3594 66.8777C80.3802 68.8402 84.1279 71.3184 87.5077 74.2496C95.9783 82.8198 100.728 94.3821 100.728 106.43C100.728 118.478 95.9783 130.04 87.5077 138.61C83.3957 142.947 78.4283 146.384 72.9195 148.704C67.4106 151.024 61.4802 152.176 55.5032 152.087H1.63422V7.18214H42.1368C47.5095 7.10146 52.8411 8.13019 57.7979 10.2039C62.7547 12.2775 67.23 15.3516 70.9437 19.2336C74.6317 22.8163 77.5543 27.1096 79.5349 31.8539C81.5155 36.5981 82.5128 41.6946 82.4665 46.8352C82.3801 53.7752 79.0385 62.1118 76.3594 66.8777ZM42.1368 35.4605H30.614V61.9822C33.1922 61.8526 36.8219 61.6223 41.503 61.2623C48.4023 60.4848 54.2645 55.3158 54.2645 47.9582C54.2769 44.7042 53.0149 41.5745 50.7483 39.2389C48.4818 36.9032 45.3908 35.547 42.1368 35.4605V35.4605ZM72.3841 106.387C72.3232 101.854 70.5619 97.5099 67.4489 94.2141C64.3359 90.9182 60.0983 88.9111 55.5752 88.5903C46.9331 88.1152 39.4721 88.5039 30.7436 88.5039V123.65H55.5032C57.7455 123.637 59.9631 123.18 62.0278 122.306C64.0926 121.432 65.9637 120.157 67.5331 118.556C69.1025 116.955 70.3392 115.059 71.1718 112.978C72.0044 110.897 72.4164 108.671 72.3841 106.43V106.387Z" stroke="white" stroke-width="2.96" stroke-miterlimit="10"/>
<path d="M165.027 4.21631L231.283 152.102H199.653L189.844 130.072H140.21L130.401 152.087H98.9297L165.027 4.21631ZM178.336 104.357L165.114 73.7027L151.718 104.357H178.336Z" stroke="white" stroke-width="2.96" stroke-miterlimit="10"/>
<path d="M318.539 66.8779C322.558 68.8441 326.305 71.322 329.688 74.2498C338.158 82.8201 342.908 94.3824 342.908 106.43C342.908 118.478 338.158 130.04 329.688 138.61C325.574 142.949 320.604 146.387 315.093 148.707C309.581 151.027 303.648 152.178 297.669 152.087H243.785V7.18235H284.259C289.631 7.10427 294.962 8.13416 299.919 10.2077C304.875 12.2812 309.351 15.3539 313.066 19.2338C316.754 22.8165 319.677 27.1099 321.657 31.8541C323.638 36.5983 324.635 41.6948 324.589 46.8354C324.56 53.7754 321.218 62.112 318.539 66.8779ZM284.273 35.4607H272.852V61.9825C275.43 61.8529 279.059 61.6225 283.726 61.2625C290.625 60.485 296.502 55.316 296.502 47.9585C296.51 44.6885 295.233 41.5461 292.946 39.2085C290.658 36.8708 287.544 35.5249 284.273 35.4607V35.4607ZM314.521 106.387C314.46 101.852 312.696 97.5059 309.58 94.2097C306.464 90.9135 302.223 88.9079 297.697 88.5906C289.055 88.1154 281.609 88.5042 272.88 88.5042V123.651H297.697C299.933 123.626 302.141 123.161 304.195 122.282C306.25 121.402 308.111 120.126 309.671 118.526C311.232 116.926 312.461 115.034 313.288 112.958C314.115 110.883 314.524 108.664 314.492 106.43L314.521 106.387Z" stroke="white" stroke-width="2.96" stroke-miterlimit="10"/>
<path d="M359.445 7.18237L385.89 57.4326L412.306 7.18237H445.304L400.337 89.9728V152.087H371.386V89.9728L326.504 7.18237H359.445Z" stroke="white" stroke-width="2.96" stroke-miterlimit="10"/>
<path d="M496.494 7.1823C506.298 7.03698 516.032 8.84666 525.128 12.5055C534.224 16.1644 542.499 21.5991 549.47 28.4919C562.424 41.4888 568.896 58.5844 568.886 79.7788C568.876 100.973 562.404 118.006 549.47 130.878C535.201 145.018 517.542 152.087 496.494 152.087H457.922V7.2831H496.494V7.1823ZM496.408 35.979H486.973V123.003H496.681C522.809 123.003 539.892 105.725 539.892 79.4908C539.849 53.617 522.521 36.0366 496.408 36.0366V35.979Z" stroke="white" stroke-width="2.96" stroke-miterlimit="10"/>
<path d="M581.489 7.18237H628.79C644.922 7.18237 657.971 13.2729 666.729 21.9263C675.486 30.5797 680.758 38.8011 680.758 54.8265V58.5988C680.703 68.5412 677.484 78.2081 671.568 86.2004C666.484 93.3276 662.451 96.3657 654.284 99.5909L687.959 152.087H652.34L610.714 87.9858V152.087H581.575L581.489 7.18237ZM650.727 55.7335C650.738 53.1447 650.234 50.5794 649.245 48.1867C648.256 45.7941 646.801 43.6217 644.965 41.796C641.191 38.1244 634.018 36.0366 626.99 36.0366H610.613V76.0496H621.862V76.136H631.57C642.185 76.136 650.727 66.7771 650.727 55.7335V55.7335Z" stroke="white" stroke-width="2.96" stroke-miterlimit="10"/>
<path d="M700.462 7.18237H729.6V152.087H700.462V7.18237Z" stroke="white" stroke-width="2.96" stroke-miterlimit="10"/>
<path d="M807.566 155.327L742.145 7.18237H772.983L807.422 86.5604L841.99 7.18237H873.217L807.566 155.327Z" stroke="white" stroke-width="2.96" stroke-miterlimit="10"/>
<path d="M973.206 6.82229V35.8637H914.987V65.078H958.702V94.1194H914.987V123.29H973.264V152.231H885.806V6.80792L973.206 6.82229Z" stroke="white" stroke-width="2.96" stroke-miterlimit="10"/>
<path d="M985.795 7.18237H1033.1C1049.24 7.18237 1062.29 13.2729 1071.05 21.9263C1079.81 30.5797 1085.08 38.8011 1085.08 54.8265V58.5988C1085.03 68.5396 1081.81 78.2063 1075.9 86.2004C1070.82 93.3276 1066.79 96.3657 1058.55 99.5909L1092.27 152.087H1056.66L1015.02 87.9858V152.087H985.881L985.795 7.18237ZM1055.05 55.7335C1055.05 53.1451 1054.55 50.5808 1053.56 48.1886C1052.57 45.7963 1051.12 43.6236 1049.29 41.796C1045.51 38.1244 1038.32 36.0366 1031.3 36.0366H1014.93V76.0496H1026.17V76.136H1035.89C1046.51 76.136 1055.05 66.7771 1055.05 55.7335V55.7335Z" stroke="white" stroke-width="2.96" stroke-miterlimit="10"/>
</svg>
