<svg width="1152" height="700" viewBox="0 0 1152 700" fill="none" xmlns="http://www.w3.org/2000/svg">
<g clip-path="url(#clip0)">
<path d="M1154.06 -197.232H-33.5087V700.504H1154.06V-197.232Z" fill="#424242"/>
<path d="M182.828 638.996L-129.612 426.179C-137.448 420.842 -148.129 422.865 -153.468 430.698L-283.423 621.351C-288.762 629.184 -286.738 639.861 -278.902 645.198L33.5378 858.015C41.3738 863.353 52.0545 861.329 57.3938 853.496L187.348 662.843C192.688 655.01 190.664 644.333 182.828 638.996Z" fill="#303030"/>
<path d="M161.387 648.136L-128.925 450.391C-133.533 447.252 -139.815 448.442 -142.955 453.049L-231.108 582.376C-234.248 586.982 -233.057 593.261 -228.449 596.4L61.8634 794.145C66.4716 797.284 72.7528 796.094 75.8928 791.487L164.046 662.16C167.186 657.554 165.996 651.275 161.387 648.136Z" fill="#EF8B33"/>
<path d="M141.432 650.391L-129.693 465.716C-134.301 462.577 -140.583 463.767 -143.723 468.374L-160 492.254C-163.14 496.861 -161.95 503.14 -157.342 506.279L113.783 690.954C118.391 694.093 124.673 692.903 127.813 688.296L144.09 664.415C147.23 659.809 146.04 653.53 141.432 650.391Z" fill="white"/>
<path d="M90.3528 692.974L-144.683 532.881C-154.846 525.958 -168.698 528.582 -175.623 538.742L-190.084 559.957C-197.009 570.117 -194.384 583.964 -184.221 590.887L50.8141 750.98C60.9772 757.902 74.8298 755.278 81.7548 745.119L96.2158 723.903C103.141 713.744 100.516 699.896 90.3528 692.974Z" fill="white"/>
<path d="M28.5991 719.064C43.7928 719.064 56.1098 706.751 56.1098 691.563C56.1098 676.374 43.7928 664.062 28.5991 664.062C13.4054 664.062 1.0885 676.374 1.0885 691.563C1.0885 706.751 13.4054 719.064 28.5991 719.064Z" fill="#262626"/>
<path d="M-128.773 483.175L129.121 656.834" stroke="#6B6B6B" stroke-width="1.14" stroke-linecap="square" stroke-linejoin="round"/>
<path d="M-142.111 499.835L115.783 673.493" stroke="#6B6B6B" stroke-width="1.14" stroke-linecap="square" stroke-linejoin="round"/>
<path d="M298.412 -208.033L-25.9661 -369.775C-34.4512 -374.006 -44.7609 -370.559 -48.9933 -362.077L-147.531 -164.597C-151.764 -156.115 -148.316 -145.809 -139.831 -141.578L184.548 20.1638C193.033 24.3947 203.342 20.9484 207.575 12.4663L306.113 -185.014C310.345 -193.496 306.898 -203.802 298.412 -208.033Z" fill="#303030"/>
<path d="M292.983 68.4043L-95.4911 -17.9721C-104.747 -20.0301 -113.919 -14.1978 -115.978 -4.94513L-168.864 232.737C-170.923 241.989 -165.088 251.158 -155.832 253.216L232.642 339.593C241.898 341.651 251.07 335.818 253.129 326.566L306.015 88.8841C308.074 79.6315 302.239 70.4624 292.983 68.4043Z" fill="#303030"/>
<path d="M275.321 85.5489L-85.0898 5.41231C-90.5331 4.202 -95.9273 7.63195 -97.138 13.0733L-132.98 174.156C-134.191 179.597 -130.76 184.99 -125.316 186.2L235.095 266.337C240.538 267.547 245.932 264.117 247.143 258.676L282.985 97.5928C284.195 92.1514 280.764 86.7592 275.321 85.5489Z" fill="#8632AD"/>
<path d="M256.776 95.4925L-79.8875 20.636C-85.3308 19.4257 -90.725 22.8556 -91.9357 28.297L-98.7251 58.8101C-99.9358 64.2515 -96.5046 69.6437 -91.0613 70.854L245.602 145.71C251.046 146.921 256.44 143.491 257.65 138.049L264.44 107.536C265.651 102.095 262.219 96.7028 256.776 95.4925Z" fill="white"/>
<path d="M224.136 156.893L-68.9843 91.718C-80.989 89.0488 -92.8854 96.6132 -95.5556 108.614L-101.867 136.976C-104.537 148.977 -96.9695 160.869 -84.9647 163.538L208.156 228.713C220.16 231.382 232.057 223.818 234.727 211.817L241.038 183.455C243.708 171.454 236.141 159.562 224.136 156.893Z" fill="white"/>
<path d="M109.048 140.387L36.0491 124.156C33.704 123.635 31.3801 125.112 30.8585 127.456L20.0256 176.143C19.504 178.487 20.9822 180.81 23.3272 181.331L96.3261 197.562C98.6711 198.084 100.995 196.606 101.517 194.262L112.35 145.576C112.871 143.232 111.393 140.909 109.048 140.387Z" fill="#262626"/>
<path d="M-25.8461 166.211C-9.92053 166.211 2.98967 153.305 2.98967 137.385C2.98967 121.465 -9.92053 108.56 -25.8461 108.56C-41.7716 108.56 -54.6818 121.465 -54.6818 137.385C-54.6818 153.305 -41.7716 166.211 -25.8461 166.211Z" fill="#262626"/>
<path d="M162.364 208.052C178.29 208.052 191.2 195.147 191.2 179.227C191.2 163.307 178.29 150.401 162.364 150.401C146.439 150.401 133.529 163.307 133.529 179.227C133.529 195.147 146.439 208.052 162.364 208.052Z" fill="#262626"/>
<path d="M-96.5095 255.12L-56.295 214.575L150.28 260.505L161.86 312.57L-96.5095 255.12Z" stroke="#6B6B6B" stroke-width="3.26" stroke-linecap="round" stroke-linejoin="round"/>
<path d="M-71.7931 37.3599L246.754 106.429" stroke="#6B6B6B" stroke-width="1.19" stroke-linecap="square" stroke-linejoin="round"/>
<path d="M-78.3035 58.7415L240.244 127.81" stroke="#6B6B6B" stroke-width="1.19" stroke-linecap="square" stroke-linejoin="round"/>
<path d="M50.2621 136.521L41.692 175.023" stroke="#6B6B6B" stroke-width="1.19" stroke-linecap="square" stroke-linejoin="round"/>
<path d="M398.909 22.3188L710.251 -77.4867C719.28 -80.3812 724.252 -90.0447 721.357 -99.0707L660.915 -287.482C658.02 -296.508 648.353 -301.479 639.324 -298.584L327.982 -198.779C318.953 -195.884 313.98 -186.221 316.876 -177.195L377.317 11.2166C380.212 20.2426 389.879 25.2132 398.909 22.3188Z" fill="#303030"/>
<path d="M405.1 5.855L695.104 -88.7441C700.402 -90.4722 703.295 -96.166 701.566 -101.462L659.826 -229.327C658.098 -234.623 652.402 -237.515 647.104 -235.787L357.101 -141.188C351.803 -139.46 348.91 -133.766 350.639 -128.471L392.378 -0.60467C394.107 4.69095 399.803 7.58304 405.1 5.855Z" fill="#3B9322"/>
<path d="M1296.77 609.971L977.612 544.596C968.323 542.694 959.25 548.679 957.346 557.965L917.767 751.051C915.864 760.337 921.851 769.407 931.14 771.31L1250.3 836.685C1259.59 838.588 1268.66 832.602 1270.57 823.317L1310.15 630.23C1312.05 620.944 1306.06 611.874 1296.77 609.971Z" fill="#303030"/>
<path d="M1283.45 624.747L985.441 563.705C979.978 562.586 974.642 566.106 973.523 571.566L946.596 702.929C945.477 708.39 948.998 713.724 954.461 714.843L1252.47 775.885C1257.93 777.004 1263.27 773.484 1264.39 768.023L1291.32 636.661C1292.43 631.2 1288.91 625.866 1283.45 624.747Z" fill="#8632AD"/>
<path d="M1268.16 633.26L989.999 576.285C984.537 575.166 979.201 578.685 978.081 584.146L973.53 606.348C972.411 611.809 975.932 617.143 981.395 618.262L1259.55 675.238C1265.01 676.357 1270.35 672.837 1271.47 667.376L1276.02 645.174C1277.14 639.713 1273.62 634.379 1268.16 633.26Z" fill="white"/>
<path d="M1239.83 684.47L1002.05 635.767C990.007 633.299 978.239 641.061 975.77 653.105L972.402 669.538C969.933 681.581 977.698 693.345 989.746 695.813L1227.52 744.516C1239.57 746.984 1251.33 739.222 1253.8 727.178L1257.17 710.745C1259.64 698.702 1251.87 686.938 1239.83 684.47Z" fill="white"/>
<path d="M1147.67 672.347L1088.03 660.18C1085.67 659.7 1083.38 661.218 1082.9 663.572L1074.88 702.855C1074.39 705.209 1075.91 707.506 1078.27 707.986L1137.91 720.153C1140.26 720.633 1142.56 719.114 1143.04 716.761L1151.06 677.478C1151.54 675.124 1150.02 672.827 1147.67 672.347Z" fill="#262626"/>
<path d="M1035.06 696.386C1048.32 696.386 1059.07 685.64 1059.07 672.384C1059.07 659.128 1048.32 648.382 1035.06 648.382C1021.8 648.382 1011.05 659.128 1011.05 672.384C1011.05 685.64 1021.8 696.386 1035.06 696.386Z" fill="#262626"/>
<path d="M995.389 589.709L1261.68 642.767" stroke="#6B6B6B" stroke-width="0.99" stroke-linecap="square" stroke-linejoin="round"/>
<path d="M990.261 607.62L1256.55 660.678" stroke="#6B6B6B" stroke-width="0.99" stroke-linecap="square" stroke-linejoin="round"/>
<path d="M1098.43 670.599L1091.83 702.779" stroke="#6B6B6B" stroke-width="0.99" stroke-linecap="square" stroke-linejoin="round"/>
<path d="M1108.24 672.6L1101.64 704.795" stroke="#6B6B6B" stroke-width="0.99" stroke-linecap="square" stroke-linejoin="round"/>
<path d="M1119.43 674.889L1112.84 707.084" stroke="#6B6B6B" stroke-width="0.99" stroke-linecap="square" stroke-linejoin="round"/>
<path d="M1132.03 677.467L1125.44 709.661" stroke="#6B6B6B" stroke-width="0.99" stroke-linecap="square" stroke-linejoin="round"/>
<path d="M1200.82 -417.387L745.166 -313.318C735.922 -311.206 730.141 -302.004 732.253 -292.763L796.446 -11.9043C798.558 -2.66364 807.764 3.11583 817.008 1.00453L1272.66 -103.065C1281.9 -105.177 1287.68 -114.379 1285.57 -123.62L1221.38 -404.478C1219.27 -413.719 1210.06 -419.499 1200.82 -417.387Z" fill="#303030"/>
<path d="M881.667 653.941L597.24 631.964C587.786 631.233 579.53 638.302 578.799 647.753L565.611 818.311C564.88 827.761 571.952 836.015 581.406 836.745L865.832 858.723C875.286 859.453 883.543 852.384 884.273 842.934L897.462 672.376C898.192 662.925 891.121 654.672 881.667 653.941Z" fill="#303030"/>
<path d="M872.368 668.47L605.447 647.845C599.887 647.416 595.032 651.573 594.602 657.131L585.602 773.525C585.172 779.083 589.331 783.937 594.89 784.367L861.812 804.991C867.371 805.421 872.227 801.264 872.657 795.706L881.657 679.311C882.086 673.754 877.928 668.9 872.368 668.47Z" fill="#D34452"/>
<path d="M859.823 677.686L610.852 658.449C605.293 658.019 600.437 662.176 600.008 667.734L598.631 685.535C598.201 691.093 602.36 695.946 607.92 696.376L856.89 715.614C862.45 716.043 867.305 711.886 867.735 706.328L869.111 688.528C869.541 682.97 865.382 678.116 859.823 677.686Z" fill="white"/>
<path d="M615.944 669.62L856.295 686.912" stroke="#6B6B6B" stroke-width="0.88" stroke-linecap="square" stroke-linejoin="round"/>
<path d="M613.409 685.962L853.76 703.24" stroke="#6B6B6B" stroke-width="0.88" stroke-linecap="square" stroke-linejoin="round"/>
<path d="M109.46 415.878C113.481 417.84 117.229 420.318 120.609 423.25C129.079 431.82 133.829 443.382 133.829 455.43C133.829 467.478 129.079 479.04 120.609 487.61C116.497 491.947 111.529 495.384 106.02 497.704C100.511 500.024 94.5811 501.176 88.6041 501.087H34.7351V356.182H75.1945C80.5672 356.101 85.8988 357.13 90.8556 359.204C95.8123 361.278 100.288 364.352 104.001 368.234C107.689 371.816 110.612 376.11 112.593 380.854C114.573 385.598 115.57 390.695 115.524 395.835C115.481 402.775 112.139 411.112 109.46 415.878ZM75.1945 384.46H63.8157V410.982C66.3939 410.853 70.0092 410.622 74.6903 410.262C81.5896 409.485 87.4662 404.316 87.4662 396.958C87.4742 393.681 86.1911 390.532 83.8945 388.193C81.5979 385.854 78.4725 384.513 75.1945 384.46ZM105.442 455.387C105.381 450.854 103.62 446.51 100.507 443.214C97.3936 439.918 93.156 437.911 88.6329 437.59C79.9908 437.115 72.5298 437.504 63.8157 437.504V472.65H88.6041C90.8403 472.628 93.0501 472.164 95.1065 471.285C97.1629 470.407 99.0255 469.131 100.587 467.531C102.149 465.931 103.379 464.038 104.208 461.962C105.036 459.885 105.445 457.665 105.413 455.43L105.442 455.387Z" fill="#1C1C1C"/>
<path d="M198.128 353.216L264.312 501.087H232.754L222.945 479.058H173.282L163.488 501.087H132.031L198.128 353.216ZM211.437 453.357L198.215 422.703L184.805 453.357H211.437Z" fill="#1C1C1C"/>
<path d="M351.64 415.878C355.659 417.844 359.406 420.322 362.789 423.25C371.259 431.82 376.009 443.382 376.009 455.43C376.009 467.478 371.259 479.04 362.789 487.61C358.675 491.949 353.705 495.387 348.194 497.707C342.682 500.027 336.749 501.178 330.77 501.087H276.901V356.182H317.317C322.689 356.104 328.02 357.134 332.976 359.208C337.933 361.281 342.408 364.354 346.124 368.234C349.812 371.817 352.734 376.11 354.715 380.854C356.695 385.598 357.693 390.695 357.646 395.835C357.646 402.775 354.319 411.112 351.64 415.878ZM317.317 384.461H305.895V410.982C308.473 410.853 312.103 410.623 316.784 410.263C323.669 409.485 329.545 404.316 329.545 396.958C329.553 393.688 328.276 390.546 325.989 388.208C323.702 385.871 320.587 384.525 317.317 384.461ZM347.564 455.387C347.503 450.852 345.74 446.506 342.624 443.21C339.508 439.913 335.266 437.908 330.741 437.591C322.099 437.115 314.652 437.504 305.924 437.504V472.651H330.741C332.978 472.63 335.19 472.167 337.248 471.29C339.306 470.412 341.17 469.136 342.733 467.536C344.297 465.936 345.528 464.043 346.357 461.965C347.186 459.887 347.596 457.667 347.564 455.43V455.387Z" fill="#1C1C1C"/>
<path d="M392.56 356.182L418.991 406.433L445.508 356.182H478.506L433.538 438.973V501.087H404.587V438.973L359.706 356.182H392.56Z" fill="#1C1C1C"/>
<path d="M529.61 356.182C539.411 356.037 549.144 357.846 558.237 361.505C567.331 365.164 575.604 370.599 582.571 377.492C595.515 390.489 601.992 407.584 602.001 428.779C602.011 449.973 595.534 467.006 582.571 479.878C568.293 494.018 550.639 501.087 529.61 501.087H491.023V356.283H529.61V356.182ZM529.509 384.979H520.074V472.003H529.782C555.91 472.003 572.993 454.725 572.993 428.491C572.95 402.617 555.622 385.037 529.509 385.037V384.979Z" fill="#1C1C1C"/>
<path d="M614.59 356.182H661.891C678.023 356.182 691.072 362.273 699.83 370.926C708.587 379.58 713.859 387.801 713.859 403.826V407.599C713.827 417.529 710.645 427.193 704.77 435.2C699.671 442.328 695.638 445.366 687.414 448.591L721.06 501.087H685.441L643.815 436.986V501.087H614.677L614.59 356.182ZM683.828 404.734C683.836 402.145 683.332 399.58 682.343 397.188C681.354 394.796 679.9 392.623 678.066 390.796C674.278 387.124 667.105 385.037 660.076 385.037H643.728V425.05H654.963V425.136H664.671C675.286 425.136 683.828 415.777 683.828 404.734Z" fill="#1C1C1C"/>
<path d="M733.577 356.182H762.715V501.087H733.577V356.182Z" fill="#1C1C1C"/>
<path d="M840.667 504.327L775.347 356.182H806.185L840.638 435.56L875.206 356.182H906.404L840.667 504.327Z" fill="#1C1C1C"/>
<path d="M1006.31 355.822V384.864H948.03V414.078H991.745V443.119H948.03V472.29H1006.31V501.231H918.907V355.808L1006.31 355.822Z" fill="#1C1C1C"/>
<path d="M1018.9 356.182H1066.2C1082.34 356.182 1095.39 362.273 1104.15 370.926C1112.91 379.58 1118.15 387.801 1118.15 403.826V407.599C1118.1 417.54 1114.89 427.206 1108.97 435.2C1103.89 442.328 1099.86 445.366 1091.69 448.591L1125.35 501.087H1089.76L1048.12 436.986V501.087H1019L1018.9 356.182ZM1088.15 404.734C1088.16 402.145 1087.66 399.579 1086.67 397.187C1085.68 394.794 1084.22 392.622 1082.39 390.796C1078.61 387.124 1071.43 385.037 1064.41 385.037H1048.03V425.05H1059.28V425.136H1068.99C1079.61 425.136 1088.15 415.777 1088.15 404.734Z" fill="#1C1C1C"/>
<path d="M102.359 415.878C106.38 417.84 110.128 420.318 113.508 423.25C121.978 431.82 126.728 443.382 126.728 455.43C126.728 467.478 121.978 479.04 113.508 487.61C109.396 491.947 104.428 495.384 98.9195 497.704C93.4106 500.024 87.4802 501.176 81.5032 501.087H27.6342V356.182H68.1368C73.5095 356.101 78.8411 357.13 83.7979 359.204C88.7547 361.278 93.23 364.352 96.9437 368.234C100.632 371.816 103.554 376.11 105.535 380.854C107.515 385.598 108.513 390.695 108.466 395.835C108.38 402.775 105.038 411.112 102.359 415.878ZM68.1368 384.46H56.614V410.982C59.1922 410.853 62.8219 410.622 67.503 410.262C74.4023 409.485 80.2645 404.316 80.2645 396.958C80.2769 393.704 79.0149 390.575 76.7483 388.239C74.4818 385.903 71.3908 384.547 68.1368 384.46V384.46ZM98.3841 455.387C98.3232 450.854 96.5619 446.51 93.4489 443.214C90.3359 439.918 86.0983 437.911 81.5752 437.59C72.9331 437.115 65.4721 437.504 56.7436 437.504V472.65H81.5032C83.7455 472.637 85.9631 472.18 88.0278 471.306C90.0926 470.432 91.9637 469.157 93.5331 467.556C95.1025 465.955 96.3392 464.059 97.1718 461.978C98.0044 459.897 98.4164 457.671 98.3841 455.43V455.387Z" stroke="white" stroke-width="2.96" stroke-miterlimit="10"/>
<path d="M191.027 353.216L257.283 501.102H225.653L215.844 479.072H166.21L156.401 501.087H124.93L191.027 353.216ZM204.336 453.357L191.114 422.703L177.718 453.357H204.336Z" stroke="white" stroke-width="2.96" stroke-miterlimit="10"/>
<path d="M344.539 415.878C348.558 417.844 352.305 420.322 355.688 423.25C364.158 431.82 368.908 443.382 368.908 455.43C368.908 467.478 364.158 479.04 355.688 487.61C351.574 491.949 346.604 495.387 341.093 497.707C335.581 500.027 329.648 501.178 323.669 501.087H269.785V356.182H310.259C315.631 356.104 320.962 357.134 325.919 359.208C330.875 361.281 335.351 364.354 339.066 368.234C342.754 371.817 345.677 376.11 347.657 380.854C349.638 385.598 350.635 390.695 350.589 395.835C350.56 402.775 347.218 411.112 344.539 415.878ZM310.273 384.461H298.852V410.982C301.43 410.853 305.059 410.623 309.726 410.263C316.625 409.485 322.502 404.316 322.502 396.958C322.51 393.688 321.233 390.546 318.946 388.208C316.658 385.871 313.544 384.525 310.273 384.461V384.461ZM340.521 455.387C340.46 450.852 338.696 446.506 335.58 443.21C332.464 439.913 328.223 437.908 323.697 437.591C315.055 437.115 307.609 437.504 298.88 437.504V472.651H323.697C325.933 472.626 328.141 472.161 330.195 471.282C332.25 470.402 334.111 469.126 335.671 467.526C337.232 465.926 338.461 464.034 339.288 461.958C340.115 459.883 340.524 457.664 340.492 455.43L340.521 455.387Z" stroke="white" stroke-width="2.96" stroke-miterlimit="10"/>
<path d="M385.445 356.182L411.89 406.433L438.306 356.182H471.304L426.337 438.973V501.087H397.386V438.973L352.504 356.182H385.445Z" stroke="white" stroke-width="2.96" stroke-miterlimit="10"/>
<path d="M522.494 356.182C532.298 356.037 542.032 357.847 551.128 361.506C560.224 365.164 568.499 370.599 575.47 377.492C588.424 390.489 594.896 407.584 594.886 428.779C594.876 449.973 588.404 467.006 575.47 479.878C561.201 494.018 543.542 501.087 522.494 501.087H483.922V356.283H522.494V356.182ZM522.408 384.979H512.973V472.003H522.681C548.809 472.003 565.892 454.725 565.892 428.491C565.849 402.617 548.521 385.037 522.408 385.037V384.979Z" stroke="white" stroke-width="2.96" stroke-miterlimit="10"/>
<path d="M607.489 356.182H654.79C670.922 356.182 683.971 362.273 692.729 370.926C701.486 379.58 706.758 387.801 706.758 403.826V407.599C706.703 417.541 703.484 427.208 697.568 435.2C692.484 442.328 688.451 445.366 680.284 448.591L713.959 501.087H678.34L636.714 436.986V501.087H607.575L607.489 356.182ZM676.727 404.734C676.738 402.145 676.234 399.579 675.245 397.187C674.256 394.794 672.801 392.622 670.965 390.796C667.191 387.124 660.018 385.037 652.99 385.037H636.613V425.05H647.862V425.136H657.57C668.185 425.136 676.727 415.777 676.727 404.734V404.734Z" stroke="white" stroke-width="2.96" stroke-miterlimit="10"/>
<path d="M726.462 356.182H755.6V501.087H726.462V356.182Z" stroke="white" stroke-width="2.96" stroke-miterlimit="10"/>
<path d="M833.566 504.327L768.145 356.182H798.983L833.422 435.56L867.99 356.182H899.217L833.566 504.327Z" stroke="white" stroke-width="2.96" stroke-miterlimit="10"/>
<path d="M999.206 355.822V384.864H940.987V414.078H984.702V443.119H940.987V472.29H999.264V501.231H911.806V355.808L999.206 355.822Z" stroke="white" stroke-width="2.96" stroke-miterlimit="10"/>
<path d="M1011.79 356.182H1059.1C1075.24 356.182 1088.29 362.273 1097.05 370.926C1105.81 379.58 1111.08 387.801 1111.08 403.826V407.599C1111.03 417.54 1107.81 427.206 1101.9 435.2C1096.82 442.328 1092.79 445.366 1084.55 448.591L1118.27 501.087H1082.66L1041.02 436.986V501.087H1011.88L1011.79 356.182ZM1081.05 404.734C1081.05 402.145 1080.55 399.581 1079.56 397.189C1078.57 394.796 1077.12 392.624 1075.29 390.796C1071.51 387.124 1064.32 385.037 1057.3 385.037H1040.93V425.05H1052.17V425.136H1061.89C1072.51 425.136 1081.05 415.777 1081.05 404.734V404.734Z" stroke="white" stroke-width="2.96" stroke-miterlimit="10"/>
<path d="M251.188 861.361L512.531 813.695C521.859 811.994 528.042 803.055 526.34 793.73L497.889 637.85C496.187 628.525 487.245 622.345 477.917 624.047L216.574 671.712C207.245 673.414 201.063 682.352 202.765 691.677L231.216 847.557C232.918 856.882 241.86 863.062 251.188 861.361Z" fill="#303030"/>
<path d="M255.715 846.02L501.698 801.156C507.184 800.155 510.82 794.899 509.819 789.415L490.368 682.841C489.367 677.357 484.108 673.723 478.622 674.724L232.639 719.588C227.153 720.588 223.517 725.845 224.518 731.329L243.97 837.903C244.971 843.386 250.229 847.021 255.715 846.02Z" fill="#38A396"/>
<path d="M444.6 637.886L429.822 674.659L285.37 701.008L263.909 670.858L444.6 637.886Z" stroke="#6B6B6B" stroke-width="2.26" stroke-linecap="round" stroke-linejoin="round"/>
<path d="M706.186 -7.00439L350.584 68.7488C341.31 70.7244 335.395 79.8412 337.371 89.1118L383.53 305.639C385.506 314.909 394.626 320.823 403.9 318.847L759.502 243.094C768.776 241.119 774.692 232.002 772.716 222.731L726.557 6.20437C724.58 -3.06622 715.46 -8.97999 706.186 -7.00439Z" fill="#303030"/>
<path d="M698.509 13.9915L367.686 84.4659C362.232 85.6278 358.753 90.9893 359.915 96.4412L391.251 243.43C392.413 248.882 397.776 252.36 403.23 251.198L734.053 180.724C739.507 179.562 742.986 174.201 741.824 168.749L710.488 21.7594C709.326 16.3075 703.963 12.8297 698.509 13.9915Z" fill="#38A396"/>
<path d="M686.793 29.408L377.876 95.216C372.422 96.3778 368.943 101.739 370.106 107.191L375.77 133.764C376.933 139.216 382.296 142.694 387.75 141.532L696.667 75.7241C702.121 74.5623 705.6 69.2008 704.438 63.7489L698.773 37.1759C697.611 31.724 692.247 28.2462 686.793 29.408Z" fill="white"/>
<path d="M682.036 93.515L415.169 150.365C403.141 152.927 395.468 164.752 398.031 176.776L402.871 199.476C405.434 211.5 417.262 219.17 429.29 216.607L696.157 159.757C708.186 157.195 715.858 145.371 713.295 133.347L708.456 110.646C705.893 98.6227 694.064 90.9527 682.036 93.515Z" fill="white"/>
<path d="M580.756 123.416L514.11 137.613C511.76 138.114 510.261 140.424 510.762 142.772L520.188 186.99C520.689 189.339 523 190.837 525.349 190.337L591.996 176.139C594.345 175.639 595.844 173.329 595.343 170.98L585.917 126.762C585.416 124.414 583.106 122.915 580.756 123.416Z" fill="#262626"/>
<path d="M467.012 199.01C481.665 199.01 493.543 187.136 493.543 172.488C493.543 157.841 481.665 145.967 467.012 145.967C452.359 145.967 440.481 157.841 440.481 172.488C440.481 187.136 452.359 199.01 467.012 199.01Z" fill="#262626"/>
<path d="M640.588 162.05C655.241 162.05 667.12 150.175 667.12 135.528C667.12 120.88 655.241 109.006 640.588 109.006C625.936 109.006 614.057 120.88 614.057 135.528C614.057 150.175 625.936 162.05 640.588 162.05Z" fill="#262626"/>
<path d="M452.911 298.085L471.074 248.756L661.574 208.196L691.202 247.345L452.911 298.085Z" stroke="#6B6B6B" stroke-width="3" stroke-linecap="round" stroke-linejoin="round"/>
<path d="M390.256 106.328L683.367 42.2987" stroke="#6B6B6B" stroke-width="1.1" stroke-linecap="square" stroke-linejoin="round"/>
<path d="M392.993 126.731L686.103 62.7011" stroke="#6B6B6B" stroke-width="1.1" stroke-linecap="square" stroke-linejoin="round"/>
<path d="M530.387 142.655L537.949 178.161" stroke="#6B6B6B" stroke-width="1.1" stroke-linecap="square" stroke-linejoin="round"/>
<path d="M541.204 140.351L548.766 175.872" stroke="#6B6B6B" stroke-width="1.1" stroke-linecap="square" stroke-linejoin="round"/>
<path d="M553.548 137.731L561.124 173.237" stroke="#6B6B6B" stroke-width="1.1" stroke-linecap="square" stroke-linejoin="round"/>
<path d="M567.448 134.765L575.024 170.271" stroke="#6B6B6B" stroke-width="1.1" stroke-linecap="square" stroke-linejoin="round"/>
<g clip-path="url(#clip1)">
<path d="M1127.07 365.535L813.581 279.196C805.5 276.967 800.694 268.52 802.921 260.429L855.478 69.1399C857.704 61.0489 866.14 56.2363 874.221 58.4652L1187.71 144.804C1195.79 147.033 1200.6 155.48 1198.37 163.571L1145.82 354.847C1143.59 362.951 1135.15 367.764 1127.07 365.535Z" fill="#303030"/>
<path d="M1132.52 305.475L840.938 225.175C836.185 223.864 833.364 218.892 834.672 214.132L870.336 84.3041C871.645 79.5439 876.611 76.7191 881.365 78.0294L1172.94 158.33C1177.69 159.64 1180.51 164.613 1179.2 169.373L1143.54 299.2C1142.24 303.961 1137.28 306.786 1132.52 305.475Z" fill="#3B9322"/>
<path d="M1146.07 206.62L873.796 131.629C869.042 130.319 866.221 125.346 867.53 120.586L873.994 97.0398C875.302 92.2796 880.269 89.4547 885.023 90.7651L1157.3 165.756C1162.05 167.066 1164.87 172.039 1163.56 176.799L1157.1 200.345C1155.79 205.105 1150.82 207.93 1146.07 206.62Z" fill="white"/>
<path d="M1111.14 273.206L875.788 208.387C865.299 205.496 859.07 194.543 861.957 184.04L867.53 163.774C870.417 153.271 881.356 147.034 891.845 149.925L1127.2 214.743C1137.69 217.634 1143.91 228.587 1141.03 239.09L1135.45 259.356C1132.58 269.872 1121.63 276.096 1111.14 273.206Z" fill="white"/>
<path d="M1021.68 243.299L962.912 227.115C960.86 226.547 959.649 224.416 960.215 222.361L970.956 183.284C971.523 181.23 973.651 180.017 975.703 180.585L1034.47 196.769C1036.52 197.336 1037.73 199.467 1037.17 201.522L1026.43 240.599C1025.86 242.654 1023.72 243.866 1021.68 243.299Z" fill="#262626"/>
<path d="M923.683 212.63C936.782 212.816 947.552 202.335 947.738 189.219C947.925 176.103 937.457 165.32 924.359 165.134C911.26 164.947 900.49 175.429 900.304 188.545C900.117 201.66 910.585 212.444 923.683 212.63Z" fill="#262626"/>
<path d="M1076.61 254.74C1089.71 254.926 1100.48 244.444 1100.67 231.329C1100.85 218.213 1090.39 207.429 1077.29 207.243C1064.19 207.057 1053.42 217.538 1053.23 230.654C1053.05 243.77 1063.51 254.553 1076.61 254.74Z" fill="#262626"/>
<path d="M861.153 282.885L895.856 251.17L1063.7 297.399L1071.1 340.718L861.153 282.885Z" stroke="#6B6B6B" stroke-width="3.0215" stroke-miterlimit="10" stroke-linecap="round" stroke-linejoin="round"/>
<path d="M890.352 104.678L1149.26 174.52" stroke="#6B6B6B" stroke-width="1.1031" stroke-miterlimit="10" stroke-linecap="square" stroke-linejoin="round"/>
<path d="M884.13 122.013L1143.03 191.856" stroke="#6B6B6B" stroke-width="1.1031" stroke-miterlimit="10" stroke-linecap="square" stroke-linejoin="round"/>
<path d="M986.58 191.271L977.971 222.614" stroke="#6B6B6B" stroke-width="1.1031" stroke-miterlimit="10" stroke-linecap="square" stroke-linejoin="round"/>
<path d="M996.114 193.892L987.492 225.235" stroke="#6B6B6B" stroke-width="1.1031" stroke-miterlimit="10" stroke-linecap="square" stroke-linejoin="round"/>
<path d="M1007 196.891L998.389 228.234" stroke="#6B6B6B" stroke-width="1.1031" stroke-miterlimit="10" stroke-linecap="square" stroke-linejoin="round"/>
<path d="M1019.23 200.268L1010.62 231.611" stroke="#6B6B6B" stroke-width="1.1031" stroke-miterlimit="10" stroke-linecap="square" stroke-linejoin="round"/>
</g>
<g clip-path="url(#clip2)">
<path d="M1095.79 73.6738L857.943 21.6599C850.469 20.0254 845.681 12.5648 847.316 5.09254L878.649 -138.059C880.284 -145.532 887.746 -150.319 895.22 -148.684L1133.06 -96.6702C1140.53 -95.0356 1145.32 -87.5751 1143.69 -80.1028L1112.36 63.0492C1110.73 70.5331 1103.27 75.3083 1095.79 73.6738Z" fill="#303030"/>
<path d="M1098.42 27.9756L875.682 -20.7342C871.279 -21.6916 868.465 -26.0815 869.434 -30.4831L890.782 -128.043C891.739 -132.444 896.13 -135.258 900.533 -134.289L1123.27 -85.5793C1127.67 -84.6219 1130.49 -80.232 1129.52 -75.8304L1108.17 21.7292C1107.21 26.1308 1102.82 28.9446 1098.42 27.9756Z" fill="#EF8B33"/>
<path d="M1079.26 3.9593L903.137 -34.5578C893.432 -36.6827 887.231 -46.35 889.357 -56.0522L891.506 -65.8946C893.631 -75.5968 903.301 -81.7964 913.005 -79.6715L1089.12 -41.1544C1098.83 -39.0295 1105.03 -29.3623 1102.9 -19.66L1100.76 -9.81767C1098.63 -0.12709 1088.96 6.07254 1079.26 3.9593Z" fill="white"/>
<path d="M892.101 22.0562L917.256 -3.46625L1046.99 24.905L1054.37 57.5494L892.101 22.0562Z" stroke="#6B6B6B" stroke-width="2.5253" stroke-miterlimit="10" stroke-linecap="round" stroke-linejoin="round"/>
</g>
</g>
<defs>
<clipPath id="clip0">
<rect x="-1" y="-131" width="1155" height="831" fill="white"/>
</clipPath>
<clipPath id="clip1">
<rect x="805.329" y="57" width="395.007" height="304.417" transform="rotate(0.814813 805.329 57)" fill="white"/>
</clipPath>
<clipPath id="clip2">
<rect x="847" y="-149" width="297" height="223" fill="white"/>
</clipPath>
</defs>
</svg>
