<svg width="1152" height="308" viewBox="0 0 1152 308" fill="none" xmlns="http://www.w3.org/2000/svg">
<path d="M87.81 185.76C92.56 187.37 99.21 190.26 103.1 193.08C115.238 202.364 123.226 216.06 125.33 231.196C127.435 246.332 123.486 261.687 114.34 273.93C109.936 280.104 104.298 285.295 97.7825 289.176C91.2669 293.056 84.0162 295.54 76.49 296.47L8.84002 305.88L-16.48 123.82L21.7 118.52L34.34 116.76C41.0666 115.725 47.9345 116.088 54.5142 117.828C61.0939 119.567 67.244 122.645 72.58 126.87C83.58 135.31 90.0067 146.197 91.86 159.53C93.09 168.26 90.35 179.3 87.81 185.76ZM39.29 152.33L24.95 154.33L29.58 187.64C32.8 187.04 37.3134 186.107 43.12 184.84C51.65 182.66 58.12 175.15 56.84 165.84C56.2648 161.739 54.1048 158.027 50.8235 155.502C47.5423 152.976 43.4014 151.837 39.29 152.33ZM89.64 236.16C87.96 224.06 76.78 215.92 65.41 216.73C54.48 217.64 45.18 219.43 34.22 220.96L40.36 265.12L47.59 264.12L71.53 260.79C83.41 259.13 91.29 248 89.64 236.16Z" fill="#F8CA33"/>
<path d="M123.79 104.32L183.19 96.0498C203.47 93.2298 220.92 98.6098 233.43 107.95C246.05 117.49 253.99 126.7 256.79 146.84L257.45 151.58C259.15 163.86 256.92 175.953 250.76 187.86C245.61 197.7 241.07 202.21 231.29 207.72L282.82 267.78L238.1 274L174.61 200.75L185.81 281.28L149.21 286.36L123.79 104.32ZM219.23 153.21C218.791 149.956 217.711 146.822 216.053 143.988C214.395 141.154 212.191 138.677 209.57 136.7C204.18 132.75 194.8 131.39 185.98 132.61L165.42 135.47L172.42 185.73L186.54 183.73V183.84L198.74 182.14C212.08 180.34 221.17 167.09 219.23 153.21Z" fill="#F8CA33"/>
<path d="M273.21 83.5397L309.8 78.4497L335.12 260.5L298.53 265.59L273.21 83.5397Z" fill="#F8CA33"/>
<path d="M417.84 62.2698C442.352 58.8882 467.207 65.3212 487 80.1698L464.53 109.89C451.937 100.51 438.147 96.8798 423.16 98.9998C415.853 99.8988 408.811 102.301 402.478 106.054C396.145 109.808 390.657 114.832 386.36 120.81C381.82 126.613 378.518 133.285 376.659 140.414C374.799 147.544 374.422 154.979 375.55 162.26C376.452 169.573 378.844 176.623 382.578 182.975C386.312 189.327 391.309 194.845 397.26 199.19C409.46 208.523 423.24 212.133 438.6 210.02C449.084 208.539 458.929 204.103 466.985 197.232C475.041 190.361 480.974 181.339 484.09 171.22L432.14 178.45L427.28 143.56L520.79 130.56C528.13 164.22 520.4 190.47 504.9 210.82C489.26 231.333 468.753 243.356 443.38 246.89C417.78 250.45 394.807 244.473 374.46 228.96C353.9 213.56 341.84 193.06 338.28 167.46C334.753 142.086 340.753 119.033 356.28 98.2998C371.68 77.6332 392.14 65.5365 417.66 62.0098L417.84 62.2698Z" fill="#F8CA33"/>
<path d="M562.32 43.33L572.45 116.17L633.32 107.71L623.19 34.87L659.67 29.79L685 211.85L648.52 216.92L638.36 144L577.5 152.46L587.64 225.41L551.16 230.49L525.84 48.4L562.32 43.33Z" fill="#F8CA33"/>
<path d="M801.75 10L806.75 46.25L762.07 52.5L782.35 198.3L745.64 203.41L725.36 57.6L680.53 63.84L675.53 27.59L801.75 10Z" fill="#F8CA33"/>
<path d="M954.41 15.0001C975.077 30.6201 987.18 51.1534 990.72 76.6001C994.26 102.047 988.21 125.07 972.57 145.67C956.997 166.123 936.473 178.12 911 181.66C885.527 185.2 862.527 179.267 842 163.86C821.42 148.3 809.36 127.797 805.82 102.35C802.28 76.9034 808.28 53.8501 823.82 33.1901C839.453 12.5234 859.95 0.426719 885.31 -3.09995C910.67 -6.62661 933.703 -0.593282 954.41 15.0001ZM853.55 55.5501C844.217 68.05 840.617 81.8667 842.75 97.0001C843.65 104.314 846.04 111.365 849.775 117.717C853.509 124.069 858.507 129.587 864.46 133.93C876.727 143.21 890.537 146.777 905.89 144.63C921.023 142.523 933.3 135.33 942.72 123.05C947.303 117.265 950.638 110.594 952.518 103.457C954.397 96.3204 954.779 88.8718 953.64 81.5801C951.527 66.3734 944.25 54.0667 931.81 44.6601C926.024 40.1308 919.373 36.8342 912.265 34.9734C905.157 33.1125 897.743 32.7268 890.48 33.8401C875.04 35.9934 862.73 43.2301 853.55 55.5501Z" fill="#F8CA33"/>
<path d="M1117.29 68.7198L1103.22 -32.3602L1139.93 -37.4702L1165.83 148.76L1041.51 59.4498L1055.57 160.53L1019 165.62L993.09 -20.5002L1117.29 68.7198Z" fill="#F8CA33"/>
<path d="M33.48 121.88C43.71 121.88 52.88 125.08 61.48 131.65C71.65 139.46 77.43 149.23 79.14 161.52C80.14 168.86 77.95 178.91 75.32 185.61L73.69 189.77L78 191.2C82.36 192.67 88.63 195.39 92.11 197.89C97.7634 202.06 102.503 207.343 106.037 213.414C109.572 219.485 111.825 226.215 112.66 233.19C114.66 247.98 111.39 260.93 102.47 272.81C93.55 284.69 82.15 291.62 67.47 293.66L4 302.49L-20.18 128.87L13.82 124.14L26.47 122.38C28.7926 122.054 31.1347 121.887 33.48 121.88ZM17.48 194.06L21.86 193.24C25.12 192.63 29.72 191.68 35.52 190.41H35.6H35.68C46.95 187.52 54.05 177.57 52.54 166.76C51.8896 161.983 49.5425 157.6 45.9274 154.411C42.3123 151.222 37.6705 149.44 32.85 149.39C31.9636 149.39 31.0783 149.45 30.2 149.57L15.85 151.57L11.64 152.16L12.23 156.37L16.86 189.68L17.48 194.06ZM28.22 271.33L32.43 270.74L39.66 269.74L63.6 266.41C66.9771 265.955 70.2261 264.817 73.1488 263.065C76.0716 261.313 78.6069 258.984 80.6 256.22C84.6209 250.674 86.3213 243.78 85.34 237C84.3848 230.559 81.1448 224.676 76.2117 220.426C71.2786 216.176 64.9815 213.842 58.47 213.85C57.85 213.85 57.21 213.85 56.59 213.92H56.54C48.91 214.56 42.17 215.59 35.03 216.7C31.84 217.19 28.54 217.7 25.12 218.17L20.91 218.76L21.5 223L27.64 267.16L28.22 271.33ZM33.46 117.64C30.9073 117.644 28.3578 117.824 25.83 118.18L13.2 119.94L-25 125.25L0.34 307.3L68 297.89C83.74 295.703 96.36 288.193 105.86 275.36C114.997 263.112 118.94 247.756 116.834 232.621C114.729 217.485 106.744 203.789 94.61 194.5C90.72 191.69 84.07 188.79 79.31 187.18C81.85 180.72 84.59 169.68 83.38 160.95C81.52 147.617 75.09 136.73 64.09 128.29C55.3731 121.395 44.5845 117.642 33.47 117.64H33.46ZM21.08 189.06L16.45 155.74L30.8 153.74C31.4822 153.641 32.1706 153.591 32.86 153.59C36.6512 153.654 40.2946 155.071 43.1331 157.585C45.9716 160.099 47.8183 163.545 48.34 167.3C49.63 176.56 43.16 184.06 34.63 186.24C28.81 187.52 24.2933 188.46 21.08 189.06ZM31.86 266.53L25.72 222.37C36.72 220.85 45.99 219.06 56.9 218.15C57.43 218.15 57.95 218.08 58.47 218.08C69.28 218.08 79.47 226.03 81.13 237.56C82.79 249.44 74.9 260.56 63.02 262.18L39.09 265.51L31.86 266.53Z" fill="white"/>
<path d="M185.38 96.7199V101C199.26 101 212.05 105.08 222.38 112.78C234.48 121.93 241.53 130.39 244.1 148.86L244.75 153.61C246.33 164.93 244.22 176.28 238.5 187.33C233.77 196.33 229.95 200.25 220.72 205.45L216.2 208L219.57 211.93L266 266.06L231.26 270.89L169.26 199.38L162.54 191.64L164.43 191.38L174.34 190V190.11L178.55 189.52L190.75 187.82C194.541 187.281 198.177 185.956 201.426 183.931C204.675 181.906 207.466 179.225 209.62 176.06C214.091 169.656 215.964 161.792 214.86 154.06C214.349 150.271 213.094 146.621 211.166 143.319C209.239 140.017 206.678 137.128 203.63 134.82L203.57 134.76H203.51C198.81 131.31 191.78 129.41 183.71 129.41C181.405 129.414 179.103 129.575 176.82 129.89L156.26 132.74L152.05 133.33L152.64 137.54L159.64 187.8L160.22 192.01H160.33L161.84 202.82L172.45 279.13L144.32 283L120.06 109.35L175.26 101.67C178.606 101.197 181.981 100.96 185.36 100.96L185.38 96.7199ZM185.38 96.7199C181.807 96.7224 178.238 96.973 174.7 97.4699L115.29 105.73L140.72 287.73L177.32 282.64L166.12 202.12L229.61 275.37L274.33 269.15L222.81 209.08C232.58 203.58 237.12 199.08 242.27 189.22C248.437 177.34 250.68 165.267 249 153L248.35 148.25C245.54 128.11 237.61 118.91 224.98 109.37C213.495 100.982 199.601 96.5436 185.38 96.7199ZM163.91 187.16L156.91 136.9L177.48 134C179.574 133.709 181.686 133.562 183.8 133.56C190.53 133.56 196.97 135.07 201.08 138.09C203.701 140.065 205.904 142.541 207.562 145.373C209.22 148.205 210.3 151.338 210.74 154.59C212.67 168.47 203.59 181.72 190.25 183.59L178.05 185.29V185.18L163.91 187.16Z" fill="white"/>
<path d="M297.68 84.6599L321.82 258.29L293.65 262.21L269.5 88.5699L297.68 84.6599ZM301.3 79.8599L264.71 84.9999L290 267L326.6 261.91L301.3 79.8599Z" fill="white"/>
<path d="M422.32 67.0001C440.202 67.0278 457.664 72.4279 472.44 82.5L455.09 105.44C445.523 98.9947 434.256 95.5383 422.72 95.5101C419.829 95.515 416.942 95.7222 414.08 96.13C406.223 97.1109 398.652 99.6992 391.839 103.734C385.026 107.768 379.117 113.162 374.48 119.58C369.706 125.883 366.222 133.065 364.226 140.715C362.23 148.365 361.762 156.334 362.848 164.166C363.935 171.997 366.555 179.538 370.559 186.356C374.562 193.174 379.87 199.135 386.18 203.9C396.303 211.88 408.82 216.213 421.71 216.2C424.721 216.192 427.728 215.978 430.71 215.56C442.001 213.975 452.607 209.205 461.285 201.809C469.963 194.413 476.355 184.697 479.71 173.8L481.66 167.42L475.06 168.34L427.27 175L423.59 148.53L508.93 136.66C514.08 164.43 508.74 188.95 493.03 209.58C486.009 218.966 477.217 226.886 467.15 232.89C457.042 238.728 445.877 242.504 434.3 244C429.839 244.645 425.338 244.979 420.83 245C401.83 245 384.26 238.93 368.52 226.93C359.102 220.009 351.163 211.274 345.17 201.24C333.532 180.704 330.163 156.504 335.75 133.57C338.803 122.208 344.052 111.554 351.2 102.21C357.732 93.1111 366.008 85.4011 375.546 79.5283C385.084 73.6554 395.694 69.7368 406.76 68.0001L406.9 68.28L409.9 67.8601C414.015 67.2896 418.165 67.0022 422.32 67.0001ZM422.32 62.7501C417.971 62.7455 413.626 63.0496 409.32 63.6601L409.15 63.3401C383.63 66.8801 363.173 78.9734 347.78 99.6201C332.24 120.36 326.24 143.413 329.78 168.78C333.353 194.367 345.413 214.87 365.96 230.29C382.507 242.903 400.793 249.21 420.82 249.21C425.524 249.204 430.222 248.87 434.88 248.21C460.253 244.677 480.763 232.653 496.41 212.14C511.9 191.79 519.63 165.54 512.3 131.88L418.78 144.88L423.64 179.78L475.59 172.55C472.472 182.667 466.538 191.688 458.483 198.557C450.427 205.426 440.583 209.86 430.1 211.34C427.317 211.735 424.511 211.935 421.7 211.94C409.743 211.966 398.131 207.937 388.76 200.51C382.809 196.166 377.812 190.647 374.078 184.295C370.344 177.943 367.952 170.893 367.05 163.58C365.929 156.299 366.31 148.866 368.169 141.737C370.028 134.609 373.326 127.936 377.86 122.13C382.158 116.154 387.646 111.132 393.98 107.381C400.313 103.629 407.354 101.228 414.66 100.33C417.33 99.954 420.023 99.7636 422.72 99.7601C434.62 99.7601 445.72 103.593 456.02 111.26L478.48 81.5501C462.254 69.4385 442.567 62.8587 422.32 62.78V62.7501Z" fill="white"/>
<path d="M647.55 36L671.7 209.64L643.64 213.54L634.09 144.79L633.5 140.58L629.29 141.17L568.42 149.63L564.21 150.22L564.8 154.43L574.36 223.17L546.29 227.07L522.14 53.45L550.2 49.55L559.74 118.18L560.33 122.39L564.54 121.8L625.41 113.34L629.62 112.75L629.03 108.54L619.49 39.91L647.55 36ZM651.18 31.21L614.69 36.28L624.82 109.12L564 117.59L553.82 44.74L517.34 49.82L542.66 231.87L579.14 226.8L569 153.8L629.87 145.34L640.01 218.34L676.49 213.27L651.18 31.21Z" fill="white"/>
<path d="M789.62 16.2399L793.5 44.0699L753 49.6999L748.79 50.2899L749.37 54.4999L769.07 196.09L740.77 200L721.08 58.4299L720.49 54.2199L716.28 54.8099L675.66 60.4599L671.78 32.6299L789.62 16.2399ZM793.25 11.4399L667 28.9999L672 65.2499L716.86 58.9999L737.14 204.81L773.84 199.7L753.56 53.9099L798.28 47.6899L793.25 11.4399Z" fill="white"/>
<path d="M890.63 1.6001C909.63 1.6001 927.32 7.7401 943.34 19.8501C952.789 26.8567 960.767 35.6537 966.82 45.7401C972.689 55.8654 976.489 67.055 978 78.6601C979.724 90.2432 979.119 102.054 976.22 113.4C971.802 130.479 962.372 145.844 949.144 157.516C935.916 169.188 919.496 176.633 902 178.89C897.589 179.494 893.142 179.801 888.69 179.81C869.69 179.81 851.97 173.81 836.12 161.9C826.702 154.922 818.756 146.15 812.74 136.09C806.885 125.971 803.092 114.793 801.58 103.2C799.877 91.6403 800.475 79.858 803.34 68.5301C806.394 57.1765 811.639 46.5299 818.78 37.1901C825.769 27.7448 834.545 19.7638 844.61 13.7001C854.703 7.84241 865.859 4.04576 877.43 2.5301C881.803 1.9172 886.214 1.60647 890.63 1.6001ZM888.92 150.89C891.948 150.887 894.972 150.674 897.97 150.25C914.18 148 927.51 140.19 937.59 127.05C942.513 120.817 946.098 113.636 948.122 105.956C950.145 98.2749 950.563 90.2596 949.35 82.4101C947.08 66.1201 939.19 52.7601 925.88 42.7001C915.704 34.7569 903.169 30.4354 890.26 30.4201C887.292 30.4244 884.329 30.6349 881.39 31.0501C864.86 33.3601 851.48 41.2201 841.64 54.4401C831.68 67.8101 827.77 82.8001 830 99.0001C830.988 106.864 833.569 114.444 837.585 121.277C841.602 128.11 846.969 134.052 853.36 138.74C863.533 146.63 876.046 150.905 888.92 150.89ZM890.63 -2.6499C886.019 -2.62985 881.415 -2.29574 876.85 -1.6499C851.483 1.88343 830.987 13.9834 815.36 34.6501C799.733 55.3168 793.733 78.3668 797.36 103.8C800.9 129.247 812.96 149.75 833.54 165.31C850.227 177.77 868.6 184 888.66 184C893.303 183.996 897.94 183.679 902.54 183.05C927.993 179.51 948.51 167.51 964.09 147.05C979.67 126.59 985.717 103.57 982.23 77.9901C978.69 52.5434 966.587 32.0068 945.92 16.3801C929.053 3.69343 910.623 -2.6499 890.63 -2.6499ZM888.92 146.65C876.966 146.678 865.348 142.7 855.92 135.35C849.971 131.004 844.975 125.485 841.241 119.133C837.507 112.782 835.114 105.732 834.21 98.4201C832.123 83.2934 835.737 69.4868 845.05 57.0001C854.243 44.6534 866.56 37.4034 882 35.2501C884.744 34.8714 887.51 34.6776 890.28 34.6701C902.28 34.6701 913.3 38.4734 923.34 46.0801C935.78 55.4734 943.047 67.7801 945.14 83.0001C946.277 90.2918 945.894 97.74 944.015 104.877C942.136 112.013 938.801 118.684 934.22 124.47C924.807 136.743 912.53 143.92 897.39 146C894.585 146.412 891.755 146.629 888.92 146.65Z" fill="white"/>
<path d="M1127.8 -31.2503L1151.8 140.95L1035.49 57.4197L1027.43 51.6397L1028.79 61.4597L1042.27 158.33L1014.09 162.24L990.16 -9.84029L1106.3 73.5897L1114.3 79.3797L1113 69.5497L1099.53 -27.3203L1127.8 -31.2503ZM1131.43 -36.0503L1094.73 -30.9403L1108.79 70.1397L984.59 -19.0803L1010.48 167L1047.07 161.91L1033 60.8697L1157.32 150.19L1131.43 -36.0503Z" fill="white"/>
</svg>
