<svg width="366" height="138" viewBox="0 0 366 138" fill="none" xmlns="http://www.w3.org/2000/svg">
<path d="M142.88 5.99972C142.88 5.99972 102.13 11.1297 96.18 16.2597C90.23 21.3897 57.81 47.6597 45.91 50.6797C34.01 53.6997 11.11 55.5097 4.91001 60.6797C-1.28999 65.8497 -0.739987 98.1097 5.20001 102.03C11.14 105.95 24.84 122.55 67.66 117.42C110.48 112.29 138.7 108.32 175 103.5C211.3 98.6797 252.63 96.8497 299.62 93.2297C346.61 89.6097 358.52 87.7997 362.38 79.6497C366.24 71.4997 366.55 53.3897 361.79 41.9297C361.79 41.9297 360 30.1497 336.5 30.1497C313 30.1497 260.36 36.1497 253.22 25.9297C246.08 15.7097 245.49 4.49971 227.94 1.17971C210.39 -2.14029 142.88 5.99972 142.88 5.99972Z" fill="#233C73"/>
<path d="M8.85001 61.8399C8.85001 61.8399 26.06 53.0799 31.49 55.4999C36.92 57.9199 42.66 60.3299 36.02 64.5599C30.0777 68.5585 24.5204 73.1014 19.42 78.1299C16.7 80.8499 11.87 84.1299 6.42001 81.1299C0.970006 78.1299 -0.219994 76.2999 2.19001 70.8699C3.78948 67.4482 6.05337 64.3786 8.85001 61.8399Z" fill="#D7413C"/>
<path d="M347.21 31.3501C347.21 31.3501 342.08 31.3501 340.27 32.8601C338.46 34.3701 335.14 37.0901 337.27 37.9901C339.4 38.8901 344.21 40.1101 346.33 38.6001C347.94 37.2899 349.363 35.7658 350.56 34.0701L347.21 31.3501Z" fill="#E4833B"/>
<path d="M352.94 30.4501C352.94 30.4501 348.41 28.3301 346.6 31.3501C344.79 34.3701 341.47 37.3501 343.6 38.6001C345.73 39.8501 351.45 41.0101 355.38 42.5201C359.31 44.0301 362.62 45.8401 361.72 40.7101C360.82 35.5801 358.07 32.2601 352.94 30.4501Z" fill="#FFF9E3"/>
<path d="M81.5 137.17C86.5201 137.172 91.4281 135.685 95.6031 132.898C99.7781 130.11 103.033 126.147 104.955 121.51C106.878 116.872 107.382 111.769 106.404 106.845C105.425 101.921 103.009 97.3978 99.4599 93.8473C95.9109 90.2969 91.3886 87.8787 86.4651 86.8986C81.5416 85.9185 76.438 86.4205 71.7998 88.3411C67.1616 90.2618 63.1972 93.5148 60.408 97.6888C57.6188 101.863 56.13 106.77 56.13 111.79C56.1287 115.123 56.7839 118.423 58.0583 121.502C59.3327 124.581 61.2012 127.379 63.5572 129.736C65.9131 132.093 68.7103 133.962 71.789 135.238C74.8677 136.514 78.1675 137.17 81.5 137.17Z" fill="#111F3A"/>
<path d="M306.27 109.27C311.288 109.27 316.193 107.782 320.365 104.994C324.537 102.206 327.789 98.2442 329.709 93.6085C331.629 88.9727 332.131 83.8716 331.153 78.9503C330.174 74.0291 327.757 69.5085 324.209 65.9605C320.661 62.4124 316.141 59.9962 311.219 59.0173C306.298 58.0384 301.197 58.5408 296.561 60.461C291.926 62.3812 287.963 65.6329 285.176 69.805C282.388 73.977 280.9 78.8821 280.9 83.8998C280.9 90.6283 283.573 97.0813 288.331 101.839C293.089 106.597 299.541 109.27 306.27 109.27Z" fill="#111F3A"/>
<path d="M239.17 31.3001C239.17 31.3001 236.44 5.43008 211.94 6.79008C187.44 8.15008 173.82 9.52006 173.82 9.52006L175.18 38.1101L240.53 31.3001" fill="#D2FCFC"/>
<path d="M165.64 10.8701C165.64 10.8701 120.72 12.2401 112.55 16.3201C104.38 20.4001 71.7 49.0001 71.7 49.0001L167 39.4701L165.64 10.8701Z" fill="#D2FCFC"/>
</svg>
