<?xml version="1.0" encoding="utf-8"?>
<!-- Generator: Adobe Illustrator 24.0.1, SVG Export Plug-In . SVG Version: 6.00 Build 0)  -->
<svg version="1.1" xmlns="http://www.w3.org/2000/svg" xmlns:xlink="http://www.w3.org/1999/xlink" x="0px" y="0px"
	 viewBox="0 0 605.2 366.7" style="enable-background:new 0 0 605.2 366.7;" xml:space="preserve">
<style type="text/css">
	.st0-br{fill:#AF2D24;}
	.st1-br{fill:#191919;}
	.st2-br{fill:#0C0C0C;}
	.st3-br{fill:#E4833B;}
	.st4-br{fill:#FFF9E3;}
	.st5-br{fill:#D2FCFC;}
	.st6-br{fill:#FFFFFF;}
	.st7-br{opacity:0.76;fill:#AF2D24;}
</style>
<g id="police">
	<path class="st0-br" d="M306.7,126.8l-11.5,0.8c-1.2,0.1-2.3-0.3-3.2-1.1c-0.9-0.8-1.4-1.9-1.5-3l-0.8-11.5c-0.1-1.2,0.3-2.3,1.1-3.2
		c0.8-0.9,1.9-1.4,3-1.5l11.5-0.8c1.2-0.1,2.3,0.3,3.2,1.1c0.9,0.8,1.4,1.9,1.5,3l0.8,11.5c0.1,1.2-0.3,2.3-1.1,3.2
		C308.9,126.2,307.8,126.7,306.7,126.8z"/>
	<path class="st1-br" d="M420.7,110.9c0,0-140.2,2.7-163.4,13.6c-23.1,10.9-64,44.9-64,44.9s-51.7,12.2-61.3,20.4s-17.7,16.3-17.7,23.1
		s-4.1,17.7-4.1,23.1c0,5.5,4.1,25.9,6.8,28.6c2,1.8,4.3,3.2,6.8,4.1c0,0,0,4.1,2.7,5.5c2.7,1.4,12.2,1.4,12.2,1.4l9.5-5.4l54.5-5.5
		l157.9-13.6l69.4-9.5c0,0,42.2-2.7,40.8-23.1c-1.4-20.4-9.5-25.9-9.5-25.9s4.1-35.4-9.5-49l-23.1-23.2l6.8-4.1
		c-0.1-1-0.6-2-1.4-2.7C432.9,112.2,423.4,110.9,420.7,110.9z"/>
	<path class="st2-br" d="M170.9,293.3c16.4,0,29.6-14.6,29.6-32.7c0-18.1-13.3-32.7-29.6-32.7s-29.6,14.6-29.6,32.7
		C141.2,278.7,154.5,293.3,170.9,293.3z"/>
	<path class="st2-br" d="M394.1,275.6c16.4,0,29.6-14.6,29.6-32.7s-13.3-32.7-29.6-32.7c-16.4,0-29.6,14.6-29.6,32.7
		S377.8,275.6,394.1,275.6z"/>
	<path class="st3-br" d="M117.6,200.3c0,0-1.5,2.7,4,2.9c5.5,0.2,23.2-1.8,23.2-1.8s-4.4,8-7.2,9.2c-2.8,1.2-20.5,1.9-23.1-2.3
		L117.6,200.3z"/>
	<path class="st4-br" d="M114.5,208.5l-2,14.8c0,0,5.4,1.6,8.3-2.4c2.9-4,4.4-8,9.9-9.1l5.5-1.1L114.5,208.5z"/>
	<path class="st5-br" d="M284.5,134c0,0-28.6,2.7-35.4,8.2s-27.2,23.1-27.2,23.1v15l59.9-8.2L284.5,134z"/>
	<path class="st5-br" d="M296.8,132.7l1.4,36.8l61.3-6.8c0,0,5.4-2.7,4.1-6.8s-16.3-23.1-16.3-23.1s-2.7-5.4-13.6-4.1
		C322.7,129.9,296.8,132.7,296.8,132.7z"/>
	<path class="st6-br" d="M204.6,189.4l88.5-9.8c0,0-2.1,45.9,1.9,60.8l-82.9,7.4C212.1,247.8,197.2,211.6,204.6,189.4z"/>
</g>
<g id="lights">
	<path class="st7-br" d="M297,101.5l-7.5-15.2c-0.6-1.2,0.1-2.6,1.3-2.7l12-1c1.1-0.1,2,1.2,1.6,2.4l-4.5,16.2
		C299.5,102.6,297.7,102.8,297,101.5z"/>
	<path class="st7-br" d="M283.6,111.3l-9.2-2.8c-0.9-0.3-1.9,0.3-1.9,1.2l-0.1,5.2c0,0.9,0.9,1.6,1.8,1.3l9.3-2.3
		C285,113.6,285,111.8,283.6,111.3z"/>
	<path class="st7-br" d="M286.9,105.5l-12.3-5.8c-0.6-0.3-0.7-1-0.3-1.5l4.7-5.6c0.4-0.5,1.2-0.5,1.6,0.1l7.6,11.4
		C288.7,104.9,287.8,105.9,286.9,105.5z"/>
	<path class="st7-br" d="M314.4,109.1l9.1-2.7c1-0.3,2.1,0.4,2.1,1.3l0.1,4.9c0,1-1,1.7-2,1.4l-9.2-2.2
		C312.9,111.5,312.8,109.6,314.4,109.1z"/>
	<path class="st7-br" d="M310.6,102.4l10.8-5.1c0.8-0.4,1-1.4,0.5-2l-4.1-5c-0.6-0.7-1.6-0.6-2.1,0.1l-6.7,10
		C308.2,101.6,309.4,103,310.6,102.4z"/>
</g>
</svg>
