<svg width="770" height="283" viewBox="0 0 770 283" fill="none" xmlns="http://www.w3.org/2000/svg">
<path d="M7.84003 87.0498L75.77 78.9998C98.95 76.2498 118.77 82.7698 132.77 93.6998C146.95 104.87 155.77 115.54 158.54 138.58L159.18 144C160.853 158.04 158.033 171.776 150.72 185.21C144.62 196.31 139.35 201.36 128.08 207.42L185.48 277.09L134.34 283.17L63.6 198.17L74.54 290.25L32.7 295.25L7.84003 87.0498ZM115.57 145C115.138 141.286 113.975 137.695 112.147 134.434C110.319 131.173 107.863 128.306 104.92 126C98.87 121.36 88.21 119.6 78.11 120.8L54.6 123.6L61.44 181L77.58 179.08V179.21L91.58 177.56C106.79 175.74 117.45 160.84 115.57 145Z" fill="#F8CA33"/>
<path d="M354.73 75.6899C377.95 93.9632 391.283 117.653 394.73 146.76C398.177 175.867 390.757 201.983 372.47 225.11C354.25 248.05 330.583 261.25 301.47 264.71C272.357 268.17 246.257 260.88 223.17 242.84C200.05 224.627 186.763 200.96 183.31 171.84C179.857 142.72 187.227 116.567 205.42 93.3799C223.7 70.1666 247.347 56.8332 276.36 53.3799C305.373 49.9266 331.497 57.3632 354.73 75.6899ZM238.8 119.59C227.9 133.63 223.477 149.297 225.53 166.59C227.61 184.07 235.583 198.273 249.45 209.2C263.317 220.127 278.983 224.503 296.45 222.33C313.75 220.277 327.91 212.353 338.93 198.56C349.95 184.767 354.417 169.1 352.33 151.56C350.257 134.167 342.24 119.97 328.28 108.97C314.32 97.9699 298.693 93.5332 281.4 95.6599C263.76 97.7599 249.56 105.737 238.8 119.59Z" fill="#F8CA33"/>
<path d="M522.85 238.41C493.73 241.776 467.673 234.483 444.68 216.53C421.56 198.323 408.273 174.656 404.82 145.53C401.367 116.403 408.737 90.2498 426.93 67.0698C445.21 43.8564 468.813 30.5231 497.74 27.0698L497.67 27.5998C529.82 23.7798 557.07 35.0198 576.24 49.5998L550 82.9998C535.947 72.0998 520.28 67.6764 503 69.7298C485.427 71.8164 471.267 79.7864 460.52 93.6398C449.607 107.68 445.183 123.346 447.25 140.64C449.33 158.12 457.303 172.323 471.17 183.25C485.037 194.176 500.647 198.57 518 196.43C535.56 194.343 549.803 186.363 560.73 172.49L594.11 198.77C585.44 209.758 574.679 218.918 562.448 225.722C550.216 232.526 536.758 236.838 522.85 238.41Z" fill="#F8CA33"/>
<path d="M632.64 12.7997L643.57 104.88L686 6.45972L734.3 0.719727L685.3 113.81L769.01 207.71L718.13 213.71L647 133.67L657.37 221L615.66 226L590.92 17.7597L632.64 12.7997Z" fill="#F8CA33"/>
<path d="M78.84 81.2998C100.14 81.2998 114.9 89.2998 123.51 95.9998C137.51 107 145.58 117.13 148.17 138.9L148.82 144.33C150.4 157.67 147.67 170.95 140.7 183.77C134.96 194.21 130.15 198.93 119.25 204.77L116.08 206.48L118.36 209.26L172.31 274.74L128.14 280L58.43 196.26L52 188.6L53.18 198.51L63.78 287.66L27.78 291.94L3.61003 89.6399L68.61 81.9199C72.0045 81.5082 75.4207 81.3011 78.84 81.2998ZM51.41 184.3L54.35 183.95L67.55 182.38V182.51L70.48 182.16L84.43 180.51C88.5054 180.008 92.4314 178.662 95.9576 176.558C99.4837 174.454 102.533 171.638 104.91 168.29C109.882 161.471 112.077 153.017 111.05 144.64C110.578 140.542 109.302 136.577 107.294 132.973C105.287 129.369 102.587 126.198 99.35 123.64H99.3C94.18 119.72 86 117.47 76.87 117.47C74.6909 117.47 72.5136 117.6 70.35 117.86L46.84 120.65L43.91 121L44.26 123.93L51.09 181.4L51.41 184.3ZM78.84 78.3499C75.3274 78.3555 71.8181 78.5658 68.33 78.9799L0.400024 87.0598L25.27 295.22L67.11 290.22L56.18 198.14L126.91 283.14L178.05 277.06L120.66 207.4C131.93 201.34 137.2 196.29 143.29 185.19C150.623 171.75 153.447 158.013 151.76 143.98L151.11 138.56C148.38 115.56 139.53 104.85 125.34 93.6798C113.46 84.4398 97.5 78.3398 78.84 78.3398V78.3499ZM54 181L47.17 123.53L70.68 120.73C72.728 120.49 74.7881 120.37 76.85 120.37C84.91 120.37 92.67 122.24 97.49 125.94C100.43 128.247 102.884 131.114 104.711 134.375C106.537 137.637 107.699 141.227 108.13 144.94C110.02 160.82 99.36 175.71 84.13 177.53L70.18 179.18V179.05L54 181Z" fill="white" stroke="white" stroke-width="0.5" stroke-miterlimit="10"/>
<path d="M282.54 55.5699C305.39 55.5699 326.54 63.1199 345.47 78.0099C356.278 86.3624 365.337 96.7599 372.13 108.61C385.284 132.663 388.463 160.921 380.981 187.295C373.499 213.669 355.955 236.048 332.13 249.61C320.226 256.139 307.155 260.264 293.66 261.75C289.242 262.264 284.798 262.525 280.35 262.53C257.35 262.53 236.25 255.12 217.53 240.53C201.519 227.834 189.583 210.721 183.2 191.309C176.817 171.898 176.268 151.04 181.62 131.32C189.461 104.918 207.06 82.4926 230.84 68.5999C242.7 62.0127 255.755 57.855 269.24 56.3699C273.654 55.8468 278.095 55.5797 282.54 55.5699ZM280.67 225.81C283.581 225.803 286.489 225.629 289.38 225.29C307.38 223.15 322.38 214.78 333.83 200.42C339.417 193.612 343.543 185.727 345.951 177.256C348.36 168.785 348.999 159.909 347.83 151.18C345.67 133.07 337.21 118.08 322.67 106.62C310.53 97.0499 296.88 92.2099 282.12 92.2099C279.272 92.213 276.428 92.3833 273.6 92.7199C255.22 94.9099 240.22 103.33 229.01 117.72C217.67 132.33 213.01 148.87 215.14 166.9C217.06 182.987 224.763 197.827 236.814 208.656C248.864 219.485 264.44 225.564 280.64 225.76L280.67 225.81ZM282.54 52.6099C277.998 52.6184 273.46 52.8922 268.95 53.4299C239.943 56.8832 216.293 70.2165 198 93.4299C179.82 116.723 172.45 142.877 175.89 171.89C179.33 200.903 192.62 224.57 215.76 242.89C235.093 258.01 256.643 265.567 280.41 265.56C284.968 265.558 289.523 265.291 294.05 264.76C323.15 261.3 346.817 248.1 365.05 225.16C383.35 202.107 390.77 175.99 387.31 146.81C383.85 117.63 370.517 93.9399 347.31 75.7399C327.77 60.3199 306.18 52.6099 282.54 52.6099ZM280.67 222.85C266.591 222.908 252.927 218.088 242 209.21C228.127 198.29 220.153 184.087 218.08 166.6C216.02 149.267 220.44 133.6 231.34 119.6C242.093 105.74 256.297 97.7665 273.95 95.6799C276.661 95.3517 279.389 95.1847 282.12 95.1799C296.28 95.1799 309.187 99.7732 320.84 108.96C334.84 119.96 342.84 134.157 344.84 151.55C346.933 169.11 342.47 184.777 331.45 198.55C320.43 212.323 306.28 220.257 289 222.35C286.236 222.682 283.454 222.849 280.67 222.85Z" fill="white" stroke="white" stroke-width="0.5" stroke-miterlimit="10"/>
<path d="M502.87 29.8601C530.09 29.8601 551.12 40.5202 564.59 50.1902L542 78.9001C530.883 70.7097 517.438 66.2878 503.63 66.2802C500.802 66.2827 497.977 66.453 495.17 66.7902C476.87 68.9702 461.91 77.3802 450.71 91.7902C439.36 106.4 434.71 122.95 436.83 140.98C438.753 157.057 446.45 171.888 458.489 182.715C470.528 193.542 486.09 199.628 502.28 199.84C505.164 199.837 508.046 199.667 510.91 199.33C528.21 197.27 542.61 189.62 553.74 176.57L582.48 199.2C565.511 219.494 541.377 232.473 515.09 235.44C510.695 235.946 506.274 236.204 501.85 236.21C478.94 236.21 457.85 228.79 439.09 214.21C423.077 201.515 411.137 184.403 404.747 164.993C398.358 145.583 397.799 124.725 403.14 105C410.992 78.6135 428.575 56.1948 452.33 42.2802C463.031 36.3092 474.733 32.3441 486.86 30.5801L486.8 31.0501L490.57 30.6002C494.653 30.1203 498.759 29.8733 502.87 29.8601ZM502.87 26.9102C498.646 26.9111 494.425 27.1616 490.23 27.6602L490.3 27.1302C461.373 30.5702 437.767 43.9035 419.48 67.1302C401.3 90.3768 393.93 116.52 397.37 145.56C400.81 174.6 414.1 198.267 437.24 216.56C456.573 231.68 478.103 239.24 501.83 239.24C506.368 239.233 510.902 238.966 515.41 238.44C529.316 236.868 542.773 232.556 555.003 225.752C567.232 218.948 577.992 209.788 586.66 198.8L553.28 172.52C542.36 186.394 528.113 194.37 510.54 196.45C507.793 196.783 505.028 196.95 502.26 196.95C488.093 196.95 475.23 192.4 463.67 183.3C456.984 178.208 451.412 171.8 447.298 164.472C443.184 157.143 440.615 149.05 439.75 140.69C437.69 123.39 442.11 107.723 453.01 93.6902C463.763 79.8302 477.923 71.8602 495.49 69.7802C498.185 69.4596 500.896 69.296 503.61 69.2902C517.73 69.2902 530.697 73.8768 542.51 83.0501L568.8 49.6801C552.19 37.0001 529.53 26.9102 502.87 26.9102Z" fill="white" stroke="white" stroke-width="0.5" stroke-miterlimit="10"/>
<path d="M722.08 4.26971L675.08 112.63L674.33 114.37L675.59 115.77L755.53 205.45L711.81 210.64L641.76 131.71L635.5 124.65L636.61 134.02L646.61 218.39L610.76 222.65L586.76 20.3397L622.6 16.0797L633.2 105.22L634.5 116.14L638.86 106.04L680.57 9.18973L722.08 4.26971ZM726.84 0.719727L678.54 6.45972L636.15 104.88L625.21 12.7997L583.5 17.7997L608.24 225.97L650 221L639.62 133.7L710.7 213.79L761.58 207.79L677.86 113.89L726.84 0.719727Z" fill="white" stroke="white" stroke-width="0.5" stroke-miterlimit="10"/>
</svg>
